<?xml version="1.0" encoding="UTF-8"?>
<svg width="700pt" height="700pt" version="1.1" viewBox="0 0 700 700" xmlns="http://www.w3.org/2000/svg" xmlns:xlink="http://www.w3.org/1999/xlink">
 <defs>
  <symbol id="u" overflow="visible">
   <path d="m20.844-1.25c-1.0742 0.5625-2.1953 0.98438-3.3594 1.2656-1.168 0.28125-2.3828 0.42188-3.6406 0.42188-3.7812 0-6.7773-1.0508-8.9844-3.1562-2.2109-2.1133-3.3125-4.9766-3.3125-8.5938 0-3.625 1.1016-6.4922 3.3125-8.6094 2.207-2.1133 5.2031-3.1719 8.9844-3.1719 1.2578 0 2.4727 0.14844 3.6406 0.4375 1.1641 0.28125 2.2852 0.69922 3.3594 1.25v4.7031c-1.0859-0.73828-2.1523-1.2812-3.2031-1.625-1.0547-0.34375-2.1641-0.51562-3.3281-0.51562-2.0859 0-3.7266 0.66797-4.9219 2-1.1992 1.3359-1.7969 3.1797-1.7969 5.5312 0 2.3359 0.59766 4.1719 1.7969 5.5156 1.1953 1.3359 2.8359 2 4.9219 2 1.1641 0 2.2734-0.17188 3.3281-0.51562 1.0508-0.34375 2.1172-0.88281 3.2031-1.625z"/>
  </symbol>
  <symbol id="b" overflow="visible">
   <path d="m15.25-12.375c-0.48047-0.22656-0.95312-0.39453-1.4219-0.5-0.46875-0.10156-0.94531-0.15625-1.4219-0.15625-1.3984 0-2.4766 0.44922-3.2344 1.3438-0.75 0.89844-1.125 2.1797-1.125 3.8438v7.8438h-5.4375v-17.016h5.4375v2.7969c0.69531-1.1133 1.5-1.9258 2.4062-2.4375 0.90625-0.50781 1.9922-0.76562 3.2656-0.76562 0.17578 0 0.36719 0.011719 0.57812 0.03125 0.21875 0.011719 0.53125 0.042969 0.9375 0.09375z"/>
  </symbol>
  <symbol id="a" overflow="visible">
   <path d="m19.594-8.5469v1.5469h-12.719c0.13281 1.2734 0.59766 2.2305 1.3906 2.875 0.78906 0.63672 1.8945 0.95312 3.3125 0.95312 1.1445 0 2.3164-0.16406 3.5156-0.5 1.1953-0.34375 2.4297-0.85938 3.7031-1.5469v4.1875c-1.293 0.49219-2.5859 0.85547-3.875 1.0938-1.2812 0.25-2.5625 0.375-3.8438 0.375-3.0859 0-5.4805-0.78125-7.1875-2.3438-1.6992-1.5625-2.5469-3.7539-2.5469-6.5781 0-2.7812 0.83203-4.9609 2.5-6.5469 1.6758-1.5938 3.9844-2.3906 6.9219-2.3906 2.6758 0 4.8164 0.80859 6.4219 2.4219 1.6016 1.6055 2.4062 3.7578 2.4062 6.4531zm-5.5938-1.8125c0-1.0312-0.30469-1.8633-0.90625-2.5-0.59375-0.63281-1.3828-0.95312-2.3594-0.95312-1.0547 0-1.9062 0.29688-2.5625 0.89062s-1.0703 1.4492-1.2344 2.5625z"/>
  </symbol>
  <symbol id="e" overflow="visible">
   <path d="m10.234-7.6562c-1.1367 0-1.9922 0.19531-2.5625 0.57812-0.5625 0.38672-0.84375 0.95312-0.84375 1.7031 0 0.6875 0.22656 1.2305 0.6875 1.625 0.45703 0.38672 1.0977 0.57812 1.9219 0.57812 1.0195 0 1.8789-0.36328 2.5781-1.0938 0.69531-0.73828 1.0469-1.6602 1.0469-2.7656v-0.625zm8.3125-2.0469v9.7031h-5.4844v-2.5156c-0.73047 1.0312-1.5547 1.7812-2.4688 2.25-0.90625 0.46875-2.0117 0.70312-3.3125 0.70312-1.7617 0-3.1953-0.50781-4.2969-1.5312-1.0938-1.0312-1.6406-2.3672-1.6406-4.0156 0-1.9883 0.67969-3.4453 2.0469-4.375 1.375-0.9375 3.5312-1.4062 6.4688-1.4062h3.2031v-0.42188c0-0.86328-0.33984-1.4922-1.0156-1.8906-0.67969-0.40625-1.7344-0.60938-3.1719-0.60938-1.168 0-2.2578 0.12109-3.2656 0.35938-1 0.23047-1.9297 0.57812-2.7812 1.0469v-4.1562c1.1641-0.28125 2.332-0.49219 3.5-0.64062 1.1758-0.14453 2.3516-0.21875 3.5312-0.21875 3.0703 0 5.2852 0.60547 6.6406 1.8125 1.3633 1.2109 2.0469 3.1797 2.0469 5.9062z"/>
  </symbol>
  <symbol id="d" overflow="visible">
   <path d="m8.5469-21.844v4.8281h5.6094v3.8906h-5.6094v7.2188c0 0.79297 0.15625 1.3281 0.46875 1.6094 0.32031 0.27344 0.94531 0.40625 1.875 0.40625h2.7969v3.8906h-4.6719c-2.1484 0-3.668-0.44531-4.5625-1.3438-0.89844-0.89453-1.3438-2.4141-1.3438-4.5625v-7.2188h-2.7031v-3.8906h2.7031v-4.8281z"/>
  </symbol>
  <symbol id="i" overflow="visible">
   <path d="m14.188-14.516v-9.125h5.4688v23.641h-5.4688v-2.4531c-0.75 1-1.5781 1.7344-2.4844 2.2031-0.89844 0.45703-1.9375 0.6875-3.125 0.6875-2.0938 0-3.8203-0.83203-5.1719-2.5-1.3438-1.6641-2.0156-3.8047-2.0156-6.4219 0-2.625 0.67188-4.7695 2.0156-6.4375 1.3516-1.6641 3.0781-2.5 5.1719-2.5 1.1758 0 2.2188 0.23438 3.125 0.70312s1.7344 1.2031 2.4844 2.2031zm-3.5781 11c1.1562 0 2.0391-0.42188 2.6562-1.2656 0.61328-0.85156 0.92188-2.0859 0.92188-3.7031 0-1.625-0.30859-2.8594-0.92188-3.7031-0.61719-0.85156-1.5-1.2812-2.6562-1.2812s-2.043 0.42969-2.6562 1.2812c-0.61719 0.84375-0.92188 2.0781-0.92188 3.7031 0 1.6172 0.30469 2.8516 0.92188 3.7031 0.61328 0.84375 1.5 1.2656 2.6562 1.2656z"/>
  </symbol>
  <symbol id="h" overflow="visible">
   <path d="m11.672-3.5156c1.1562 0 2.0391-0.42188 2.6562-1.2656 0.61328-0.85156 0.92188-2.0859 0.92188-3.7031 0-1.625-0.30859-2.8594-0.92188-3.7031-0.61719-0.85156-1.5-1.2812-2.6562-1.2812-1.168 0-2.0625 0.42969-2.6875 1.2812-0.625 0.85547-0.9375 2.0898-0.9375 3.7031 0 1.6055 0.3125 2.8359 0.9375 3.6875 0.625 0.85547 1.5195 1.2812 2.6875 1.2812zm-3.625-11c0.75-1 1.5781-1.7344 2.4844-2.2031 0.91406-0.46875 1.9688-0.70312 3.1562-0.70312 2.0938 0 3.8125 0.83594 5.1562 2.5 1.3516 1.668 2.0312 3.8125 2.0312 6.4375 0 2.6172-0.67969 4.7578-2.0312 6.4219-1.3438 1.668-3.0625 2.5-5.1562 2.5-1.1875 0-2.2422-0.23438-3.1562-0.70312-0.90625-0.46875-1.7344-1.1953-2.4844-2.1875v2.4531h-5.4375v-23.641h5.4375z"/>
  </symbol>
  <symbol id="g" overflow="visible">
   <path d="m0.375-17.016h5.4375l4.5781 11.547 3.8906-11.547h5.4375l-7.1562 18.625c-0.71875 1.8945-1.5586 3.2188-2.5156 3.9688-0.96094 0.75781-2.2188 1.1406-3.7812 1.1406h-3.1562v-3.5781h1.7031c0.92578 0 1.5977-0.14844 2.0156-0.4375 0.41406-0.29297 0.74219-0.82031 0.98438-1.5781l0.14062-0.46875z"/>
  </symbol>
  <symbol id="f" overflow="visible">
   <path d="m2.6094-17.016h5.4375v17.016h-5.4375zm0-6.625h5.4375v4.4375h-5.4375z"/>
  </symbol>
  <symbol id="t" overflow="visible">
   <path d="m2.6094-23.641h5.4375v23.641h-5.4375z"/>
  </symbol>
  <symbol id="s" overflow="visible">
   <path d="m15.906-16.484v4.1406c-1.168-0.48828-2.293-0.85156-3.375-1.0938-1.0859-0.25-2.1055-0.375-3.0625-0.375-1.043 0-1.8125 0.13281-2.3125 0.39062-0.5 0.26172-0.75 0.65625-0.75 1.1875 0 0.4375 0.1875 0.77734 0.5625 1.0156 0.38281 0.23047 1.0664 0.40234 2.0469 0.51562l0.96875 0.125c2.7812 0.35547 4.6484 0.9375 5.6094 1.75 0.96875 0.8125 1.4531 2.0859 1.4531 3.8125 0 1.8125-0.67188 3.1797-2.0156 4.0938-1.3359 0.90625-3.3281 1.3594-5.9844 1.3594-1.1172 0-2.2773-0.089844-3.4844-0.26562-1.1992-0.17578-2.4297-0.44141-3.6875-0.79688v-4.125c1.082 0.52344 2.1914 0.91797 3.3281 1.1875 1.1328 0.26172 2.2891 0.39062 3.4688 0.39062 1.0625 0 1.8594-0.14453 2.3906-0.4375 0.53906-0.30078 0.8125-0.73828 0.8125-1.3125 0-0.48828-0.1875-0.84766-0.5625-1.0781-0.36719-0.23828-1.1016-0.42578-2.2031-0.5625l-0.95312-0.125c-2.418-0.30078-4.1172-0.85938-5.0938-1.6719-0.96875-0.82031-1.4531-2.0703-1.4531-3.75 0-1.8008 0.61328-3.1328 1.8438-4 1.2383-0.875 3.1328-1.3125 5.6875-1.3125 1 0 2.0508 0.078125 3.1562 0.23438 1.1016 0.14844 2.3047 0.38281 3.6094 0.70312z"/>
  </symbol>
  <symbol id="c" overflow="visible">
   <path d="m10.703-13.531c-1.1992 0-2.1172 0.43359-2.75 1.2969-0.63672 0.86719-0.95312 2.1172-0.95312 3.75 0 1.625 0.31641 2.8711 0.95312 3.7344 0.63281 0.86719 1.5508 1.2969 2.75 1.2969 1.1875 0 2.0938-0.42969 2.7188-1.2969 0.63281-0.86328 0.95312-2.1094 0.95312-3.7344 0-1.6328-0.32031-2.8828-0.95312-3.75-0.625-0.86328-1.5312-1.2969-2.7188-1.2969zm0-3.8906c2.9258 0 5.2109 0.79297 6.8594 2.375 1.6445 1.5742 2.4688 3.7617 2.4688 6.5625 0 2.793-0.82422 4.9805-2.4688 6.5625-1.6484 1.5742-3.9336 2.3594-6.8594 2.3594-2.9375 0-5.2344-0.78516-6.8906-2.3594-1.6484-1.582-2.4688-3.7695-2.4688-6.5625 0-2.8008 0.82031-4.9883 2.4688-6.5625 1.6562-1.582 3.9531-2.375 6.8906-2.375z"/>
  </symbol>
  <symbol id="r" overflow="visible">
   <path d="m13.812-23.641v3.5781h-3.0156c-0.77344 0-1.3086 0.14062-1.6094 0.42188-0.30469 0.27344-0.45312 0.75-0.45312 1.4375v1.1875h4.6406v3.8906h-4.6406v13.125h-5.4375v-13.125h-2.7031v-3.8906h2.7031v-1.1875c0-1.8516 0.51562-3.2227 1.5469-4.1094 1.0312-0.88281 2.6289-1.3281 4.7969-1.3281z"/>
  </symbol>
  <symbol id="q" overflow="visible">
   <path d="m18.375-14.188c0.6875-1.0508 1.5039-1.8516 2.4531-2.4062 0.94531-0.55078 1.9883-0.82812 3.125-0.82812 1.957 0 3.4453 0.60547 4.4688 1.8125 1.0195 1.1992 1.5312 2.9492 1.5312 5.25v10.359h-5.4688v-8.875c0.007813-0.125 0.015625-0.25781 0.015625-0.40625 0.007812-0.14453 0.015625-0.34766 0.015625-0.60938 0-1.207-0.17969-2.082-0.53125-2.625-0.35547-0.53906-0.92969-0.8125-1.7188-0.8125-1.0312 0-1.8281 0.42969-2.3906 1.2812-0.5625 0.85547-0.85547 2.0859-0.875 3.6875v8.3594h-5.4688v-8.875c0-1.8828-0.16406-3.0977-0.48438-3.6406-0.32422-0.53906-0.90234-0.8125-1.7344-0.8125-1.043 0-1.8516 0.43359-2.4219 1.2969-0.5625 0.85547-0.84375 2.0742-0.84375 3.6562v8.375h-5.4688v-17.016h5.4688v2.5c0.66406-0.96875 1.4297-1.6914 2.2969-2.1719 0.875-0.48828 1.832-0.73438 2.875-0.73438 1.1758 0 2.2109 0.28906 3.1094 0.85938 0.90625 0.5625 1.5859 1.3555 2.0469 2.375z"/>
  </symbol>
  <symbol id="p" overflow="visible">
   <path d="m19.719-10.359v10.359h-5.4688v-7.9062c0-1.4766-0.039062-2.4922-0.10938-3.0469-0.0625-0.5625-0.17188-0.97656-0.32812-1.25-0.21875-0.35156-0.51172-0.62891-0.875-0.82812-0.36719-0.19531-0.77734-0.29688-1.2344-0.29688-1.1367 0-2.0312 0.44531-2.6875 1.3281-0.64844 0.875-0.96875 2.0859-0.96875 3.625v8.375h-5.4375v-23.641h5.4375v9.125c0.82031-1 1.6914-1.7344 2.6094-2.2031 0.92578-0.46875 1.9453-0.70312 3.0625-0.70312 1.957 0 3.4453 0.60547 4.4688 1.8125 1.0195 1.1992 1.5312 2.9492 1.5312 5.25z"/>
  </symbol>
  <symbol id="o" overflow="visible">
   <path d="m2.8594-22.672h6.5312l8.25 15.547v-15.547h5.5469v22.672h-6.5469l-8.2344-15.562v15.562h-5.5469z"/>
  </symbol>
  <symbol id="n" overflow="visible">
   <path d="m2.4375-6.625v-10.391h5.4688v1.7031c0 0.92969-0.007812 2.0898-0.015625 3.4844-0.011719 1.3867-0.015625 2.3125-0.015625 2.7812 0 1.3672 0.03125 2.3516 0.09375 2.9531 0.070312 0.60547 0.19531 1.043 0.375 1.3125 0.21875 0.35547 0.50391 0.63281 0.85938 0.82812 0.36328 0.1875 0.78125 0.28125 1.25 0.28125 1.1328 0 2.0234-0.42969 2.6719-1.2969 0.64453-0.875 0.96875-2.0859 0.96875-3.6406v-8.4062h5.4375v17.016h-5.4375v-2.4531c-0.82422 0.99219-1.6953 1.7188-2.6094 2.1875-0.91797 0.46875-1.9297 0.70312-3.0312 0.70312-1.9609 0-3.4531-0.59766-4.4844-1.7969-1.0234-1.207-1.5312-2.9609-1.5312-5.2656z"/>
  </symbol>
  <symbol id="m" overflow="visible">
   <path d="m19.719-10.359v10.359h-5.4688v-7.9219c0-1.4688-0.039062-2.4766-0.10938-3.0312-0.0625-0.5625-0.17188-0.97656-0.32812-1.25-0.21875-0.35156-0.51172-0.62891-0.875-0.82812-0.36719-0.19531-0.77734-0.29688-1.2344-0.29688-1.1367 0-2.0312 0.44531-2.6875 1.3281-0.64844 0.875-0.96875 2.0859-0.96875 3.625v8.375h-5.4375v-17.016h5.4375v2.5c0.82031-1 1.6914-1.7344 2.6094-2.2031 0.92578-0.46875 1.9453-0.70312 3.0625-0.70312 1.957 0 3.4453 0.60547 4.4688 1.8125 1.0195 1.1992 1.5312 2.9492 1.5312 5.25z"/>
  </symbol>
  <symbol id="l" overflow="visible">
   <path d="m2.8594-22.672h9.7031c2.8828 0 5.0977 0.64062 6.6406 1.9219 1.5508 1.2812 2.3281 3.1055 2.3281 5.4688 0 2.375-0.77734 4.2031-2.3281 5.4844-1.543 1.2812-3.7578 1.9219-6.6406 1.9219h-3.8594v7.875h-5.8438zm5.8438 4.2344v6.3281h3.2344c1.1328 0 2.0078-0.27344 2.625-0.82812 0.625-0.55078 0.9375-1.332 0.9375-2.3438 0-1.0078-0.3125-1.7852-0.9375-2.3281-0.61719-0.55078-1.4922-0.82812-2.625-0.82812z"/>
  </symbol>
  <symbol id="k" overflow="visible">
   <path d="m2.6094-17.016h5.4375v16.719c0 2.2695-0.54688 4.0039-1.6406 5.2031-1.0938 1.207-2.6797 1.8125-4.75 1.8125h-2.6875v-3.5781h0.9375c1.0312 0 1.7383-0.23438 2.125-0.70312 0.38281-0.46094 0.57812-1.3711 0.57812-2.7344zm0-6.625h5.4375v4.4375h-5.4375z"/>
  </symbol>
  <symbol id="j" overflow="visible">
   <path d="m16.359-16.484v4.4375c-0.74219-0.50781-1.4844-0.88281-2.2344-1.125-0.74219-0.23828-1.5117-0.35938-2.3125-0.35938-1.5117 0-2.6953 0.44531-3.5469 1.3281-0.84375 0.88672-1.2656 2.125-1.2656 3.7188 0 1.5859 0.42188 2.8203 1.2656 3.7031 0.85156 0.88672 2.0352 1.3281 3.5469 1.3281 0.85156 0 1.6602-0.125 2.4219-0.375 0.76953-0.25 1.4766-0.625 2.125-1.125v4.4531c-0.85547 0.3125-1.7188 0.54688-2.5938 0.70312s-1.75 0.23438-2.625 0.23438c-3.0742 0-5.4766-0.78516-7.2031-2.3594-1.7305-1.5703-2.5938-3.7578-2.5938-6.5625 0-2.8125 0.86328-5.0039 2.5938-6.5781 1.7266-1.5703 4.1289-2.3594 7.2031-2.3594 0.88281 0 1.7578 0.078125 2.625 0.23438 0.86328 0.15625 1.7266 0.39062 2.5938 0.70312z"/>
  </symbol>
 </defs>
 <g>
  <path d="m474.45 528.89h116.15c4.582 0 8.2969-3.7148 8.2969-8.2969 0-1.793-0.58594-3.5391-1.6602-4.9766l-23.23-30.973v-80.199c0-4.5781-3.7148-8.293-8.293-8.293-1.2891 0-2.5586 0.29688-3.707 0.87891l-9.1719 4.5859-12.887-25.766c-2.0469-4.1016-7.0312-5.7617-11.133-3.707-0.79688 0.39844-1.5234 0.92188-2.1523 1.5547l-8.457 8.457-11.441-22.891c-2.0469-4.1016-7.0312-5.7539-11.133-3.707-2.8125 1.4062-4.5859 4.2734-4.5859 7.418v121.68l-23.227 30.973c-2.75 3.6641-2.0039 8.8672 1.6602 11.617 1.4297 1.0547 3.1797 1.6406 4.9727 1.6406zm31.527-36.508c1.0781-1.4375 1.6602-3.1875 1.6602-4.9766v-89.297l0.87891 1.75c2.0469 4.1016 7.0312 5.7617 11.133 3.707 0.79688-0.39844 1.5234-0.92188 2.1523-1.5547l8.457-8.457 11.441 22.891c2.0469 4.1016 7.0312 5.7539 11.133 3.707l4.5859-2.2891v69.539c0 1.793 0.58594 3.5391 1.6602 4.9766l14.934 19.91-82.969 0.003907z"/>
  <path d="m109.41 528.89h265.48c4.5781 0 8.293-3.7148 8.293-8.293v-165.93c2.2031 0 4.3125-0.87109 5.8672-2.4258l5.8672-5.8672h13.16c4.5781 0 8.293-3.7148 8.293-8.293v-16.594c4.5781 0 8.293-3.7148 8.293-8.293 0-2.2031-0.87109-4.3125-2.4336-5.8672l-13.98-13.98c4.3047-4.8906 8.0273-10.262 11.094-16.012l18.059 2.2578 47.77 47.762c3.2422 3.2422 8.4922 3.2422 11.734 0 0.91016-0.91016 1.5977-2.0234 2.0039-3.2422l5.8672-17.602 25.73 6.4258c4.4414 1.1133 8.9492-1.5938 10.062-6.0352 0.16016-0.66016 0.25-1.332 0.25-2.0117v-5.5938l47.496 13.57c4.4062 1.2578 8.9961-1.293 10.254-5.6992 0.82813-2.8984 0.019532-6.0156-2.1094-8.1445l-87.812-87.809 3.9336-13.77c36.984-5.6953 61.418-42.238 61.418-75.074-0.042969-41.215-33.449-74.625-74.668-74.668-15.5 0-30.832 7.8711-40.918 14.43-25.004-20.859-49.672-31.023-75.23-31.023-64.352 0.082031-118.05 49.145-123.93 113.23l-11.238-11.238c-3.2422-3.2422-8.4922-3.2422-11.734 0l-132.73 132.74c-1.5625 1.5547-2.4336 3.6641-2.4336 5.8672v248.89c0 4.5781 3.7148 8.293 8.2969 8.293zm157.63-16.598h-49.777v-141.03c0-13.746 11.145-24.891 24.891-24.891s24.891 11.145 24.891 24.891zm132.74-199.11v16.594h-8.293c-2.2031 0-4.3125 0.87109-5.8672 2.4258l-2.4258 2.4336-15.562-15.562c10.367-2.8633 20.059-7.7461 28.535-14.375l4.5938 4.5938c-0.64844 1.1953-0.98047 2.5352-0.98047 3.8906zm162.31-25.07-27.289-7.7969c-4.4062-1.2617-8.9961 1.2891-10.262 5.6914-0.21094 0.75-0.31641 1.5156-0.31641 2.2852v5.9688l-22.879-5.7188c-4.207-1.0586-8.5117 1.3086-9.8828 5.4258l-4.0586 12.152-40.281-40.281c-1.3086-1.3086-3.0039-2.1328-4.8398-2.3633l-59.098-7.3867v-17.566h49.777c4.5781 0 8.293-3.7148 8.293-8.293 0-1.793-0.58594-3.5391-1.6602-4.9766l-20.57-27.426 14.715-14.715 27.426 20.57c3.6641 2.75 8.8672 2.0117 11.617-1.6602 0.60938-0.80859 1.0625-1.7227 1.3359-2.6953l13.844-48.465 18.082 9.0391-14.695 51.453c-0.82812 2.8984-0.019531 6.0156 2.1094 8.1445zm-178.91-240.41c23.316 0 45.293 9.8828 69.152 31.094 2.918 2.5938 7.25 2.8008 10.398 0.50391 6.1836-4.5117 22.133-15 36.594-15 32.059 0.039062 58.039 26.016 58.07 58.07 0 13.875-5.457 28.312-14.965 39.617-6.4727 7.8906-14.996 13.832-24.633 17.18l6.0898-21.324c1.0938-3.8398-0.69531-7.9141-4.2695-9.6992l-33.184-16.594c-4.1016-2.0469-9.0859-0.38672-11.133 3.707-0.23047 0.46094-0.41797 0.94141-0.55469 1.4297l-13.285 46.48-23.527-17.66c-3.3047-2.4766-7.9258-2.1484-10.844 0.77344l-24.891 24.891c-2.918 2.918-3.2461 7.543-0.77344 10.844l14.934 19.91h-41.473c-4.5781 0-8.293 3.7148-8.293 8.293v33.184c0 4.1797 3.1172 7.7148 7.2656 8.2305l27.52 3.4414c-11.816 17.684-32.168 29.812-51.383 29.812-32.059-0.039063-58.039-26.016-58.07-58.07 0-12.281 5.1328-18.238 5.7812-18.934 3.0664-2.7812 3.5039-7.4414 1-10.738-15.73-22.285-23.379-42.441-23.379-61.594 0.070313-59.535 48.316-107.78 107.85-107.85zm-265.48 227.43 124.45-124.45 17.492 17.492c2.4023 17.203 9.6953 34.871 22.113 53.562-1.4766 2.4766-2.6875 5.0977-3.6289 7.8203l-30.102-30.102c-3.2422-3.2422-8.4922-3.2422-11.734 0l-26.27 26.27-1.2461-5.6133c-0.99609-4.4727-5.4258-7.293-9.8984-6.3047-2.6055 0.57813-4.7773 2.375-5.832 4.8359l-18.043 42.086-57.301 57.301-0.003906-42.902zm88.043 7.9141-19.004-7.5977 11.398-26.602zm-88.043 58.457 54.184-54.184c0.26172 0.14453 0.52734 0.26562 0.80859 0.37891l41.484 16.594c4.2578 1.7031 9.0859-0.36719 10.781-4.625 0.62109-1.5508 0.75781-3.2539 0.39844-4.8789l-11.082-49.859 27.871-27.871 33.277 33.277c1.8672 38.441 32.609 69.184 71.051 71.051l20.117 20.117v170.79l-82.969 0.007813v-141.05c0-22.91-18.574-41.484-41.484-41.484-22.91 0-41.477 18.574-41.477 41.484v141.04h-82.961z"/>
  <path d="m473.81 407.62c0.85938-2.0664 0.83984-4.3867-0.039063-6.4453l-24.891-58.07c-1.8047-4.2109-6.6836-6.168-10.895-4.3633-2.3828 1.0195-4.1484 3.0977-4.7852 5.6133l-5.7852 23.152-7.3438-3.6719c-3.1914-1.5977-7.0508-0.96875-9.5742 1.5547l-8.293 8.293c-2.3477 2.3477-3.0664 5.8672-1.8359 8.9492l16.594 41.484c1.6992 4.25 6.5195 6.3203 10.77 4.6289 0.007812 0 0.007812-0.007813 0.011719-0.007813l41.484-16.594c2.082-0.82031 3.7305-2.457 4.582-4.5234zm-44.52 2.6328-11.48-28.695 0.19922-0.19922 11.242 5.6172c4.1016 2.0469 9.0859 0.38672 11.133-3.707 0.27344-0.54297 0.48047-1.1133 0.62891-1.6992l2.3203-9.2891 11.84 27.621z"/>
  <path d="m175.78 346.37h-33.184c-4.5781 0-8.293 3.7148-8.293 8.293v82.961c0 4.5781 3.7148 8.293 8.293 8.293l33.184 0.003906c4.5781 0 8.293-3.7148 8.293-8.293v-82.961c0-4.582-3.7148-8.2969-8.293-8.2969zm-8.293 82.961h-16.594v-66.371h16.594z"/>
  <path d="m308.52 445.93h33.184c4.5781 0 8.293-3.7148 8.293-8.293v-82.969c0-4.5781-3.7148-8.293-8.293-8.293h-33.184c-4.5781-0.003906-8.293 3.7109-8.293 8.293v82.961c0 4.5859 3.7148 8.3008 8.293 8.3008zm8.3008-82.969h16.594v66.371h-16.594z"/>
  <path d="m175.78 155.55c0.44922 0 0.89062-0.03125 1.3242-0.10547 2.6328-0.42969 4.8984-2.0898 6.0898-4.4805l16.594-33.184c2.0547-4.1016 0.39062-9.0859-3.707-11.133-0.79688-0.39844-1.6562-0.66406-2.5391-0.79688l-58.07-8.293c-4.5352-0.64844-8.7344 2.5-9.3906 7.0391-0.36719 2.5898 0.49609 5.1953 2.3477 7.043l41.484 41.484c1.5547 1.5547 3.6641 2.4258 5.8672 2.4258zm4.0273-34.895-6.2969 12.602-15.742-15.75z"/>
  <use x="70" y="653.332031" xlink:href="#u"/>
  <use x="92.832031" y="653.332031" xlink:href="#b"/>
  <use x="108.175781" y="653.332031" xlink:href="#a"/>
  <use x="129.273437" y="653.332031" xlink:href="#e"/>
  <use x="150.269531" y="653.332031" xlink:href="#d"/>
  <use x="165.140625" y="653.332031" xlink:href="#a"/>
  <use x="186.242188" y="653.332031" xlink:href="#i"/>
  <use x="219.34375" y="653.332031" xlink:href="#h"/>
  <use x="241.613281" y="653.332031" xlink:href="#g"/>
  <use x="272.722656" y="653.332031" xlink:href="#e"/>
  <use x="293.71875" y="653.332031" xlink:href="#b"/>
  <use x="309.058594" y="653.332031" xlink:href="#f"/>
  <use x="330.554688" y="653.332031" xlink:href="#t"/>
  <use x="341.21875" y="653.332031" xlink:href="#e"/>
  <use x="362.214844" y="653.332031" xlink:href="#s"/>
  <use x="380.730469" y="653.332031" xlink:href="#c"/>
  <use x="70" y="684.445312" xlink:href="#r"/>
  <use x="83.535156" y="684.445312" xlink:href="#b"/>
  <use x="98.878906" y="684.445312" xlink:href="#c"/>
  <use x="120.25" y="684.445312" xlink:href="#q"/>
  <use x="163.5" y="684.445312" xlink:href="#d"/>
  <use x="178.371094" y="684.445312" xlink:href="#p"/>
  <use x="200.519531" y="684.445312" xlink:href="#a"/>
  <use x="232.453125" y="684.445312" xlink:href="#o"/>
  <use x="258.488281" y="684.445312" xlink:href="#c"/>
  <use x="279.863281" y="684.445312" xlink:href="#n"/>
  <use x="302.011719" y="684.445312" xlink:href="#m"/>
  <use x="334.992188" y="684.445312" xlink:href="#l"/>
  <use x="357.792969" y="684.445312" xlink:href="#b"/>
  <use x="373.136719" y="684.445312" xlink:href="#c"/>
  <use x="394.507812" y="684.445312" xlink:href="#k"/>
  <use x="405.171875" y="684.445312" xlink:href="#a"/>
  <use x="426.273437" y="684.445312" xlink:href="#j"/>
  <use x="444.714844" y="684.445312" xlink:href="#d"/>
 </g>
</svg>
