<?xml version="1.0" encoding="UTF-8"?>
<svg width="700pt" height="700pt" version="1.1" viewBox="0 0 700 700" xmlns="http://www.w3.org/2000/svg" xmlns:xlink="http://www.w3.org/1999/xlink">
 <defs>
  <symbol id="v" overflow="visible">
   <path d="m18.766-1.125c-0.96875 0.5-1.9805 0.875-3.0312 1.125-1.043 0.25781-2.1367 0.39062-3.2812 0.39062-3.3984 0-6.0898-0.94531-8.0781-2.8438-1.9922-1.9062-2.9844-4.4844-2.9844-7.7344 0-3.2578 0.99219-5.8359 2.9844-7.7344 1.9883-1.9062 4.6797-2.8594 8.0781-2.8594 1.1445 0 2.2383 0.13281 3.2812 0.39062 1.0508 0.25 2.0625 0.625 3.0312 1.125v4.2188c-0.98047-0.65625-1.9453-1.1406-2.8906-1.4531-0.94922-0.3125-1.9492-0.46875-3-0.46875-1.875 0-3.3516 0.60547-4.4219 1.8125-1.0742 1.1992-1.6094 2.8555-1.6094 4.9688 0 2.1055 0.53516 3.7617 1.6094 4.9688 1.0703 1.1992 2.5469 1.7969 4.4219 1.7969 1.0508 0 2.0508-0.14844 3-0.45312 0.94531-0.3125 1.9102-0.80078 2.8906-1.4688z"/>
  </symbol>
  <symbol id="b" overflow="visible">
   <path d="m13.734-11.141c-0.4375-0.19531-0.87109-0.34375-1.2969-0.4375-0.41797-0.10156-0.83984-0.15625-1.2656-0.15625-1.2617 0-2.2305 0.40625-2.9062 1.2188-0.67969 0.80469-1.0156 1.9531-1.0156 3.4531v7.0625h-4.8906v-15.312h4.8906v2.5156c0.625-1 1.3438-1.7266 2.1562-2.1875 0.82031-0.46875 1.8008-0.70312 2.9375-0.70312 0.16406 0 0.34375 0.011719 0.53125 0.03125 0.19531 0.011719 0.47656 0.039062 0.84375 0.078125z"/>
  </symbol>
  <symbol id="a" overflow="visible">
   <path d="m17.641-7.7031v1.4062h-11.453c0.125 1.1484 0.53906 2.0078 1.25 2.5781 0.70703 0.57422 1.7031 0.85938 2.9844 0.85938 1.0312 0 2.082-0.14844 3.1562-0.45312 1.082-0.3125 2.1914-0.77344 3.3281-1.3906v3.7656c-1.1562 0.4375-2.3125 0.76562-3.4688 0.98438-1.1562 0.22656-2.3125 0.34375-3.4688 0.34375-2.7734 0-4.9297-0.70312-6.4688-2.1094-1.5312-1.4062-2.2969-3.3789-2.2969-5.9219 0-2.5 0.75391-4.4609 2.2656-5.8906 1.5078-1.4375 3.582-2.1562 6.2188-2.1562 2.4062 0 4.332 0.73047 5.7812 2.1875 1.4453 1.4492 2.1719 3.3828 2.1719 5.7969zm-5.0312-1.625c0-0.92578-0.27344-1.6719-0.8125-2.2344-0.54297-0.57031-1.25-0.85938-2.125-0.85938-0.94922 0-1.7188 0.26562-2.3125 0.79688s-0.96484 1.2969-1.1094 2.2969z"/>
  </symbol>
  <symbol id="f" overflow="visible">
   <path d="m9.2188-6.8906c-1.0234 0-1.793 0.17188-2.3125 0.51562-0.51172 0.34375-0.76562 0.85547-0.76562 1.5312 0 0.625 0.20703 1.1172 0.625 1.4688 0.41406 0.34375 0.98828 0.51562 1.7188 0.51562 0.92578 0 1.7031-0.32812 2.3281-0.98438 0.63281-0.66406 0.95312-1.4922 0.95312-2.4844v-0.5625zm7.4688-1.8438v8.7344h-4.9219v-2.2656c-0.65625 0.92969-1.3984 1.6055-2.2188 2.0312-0.82422 0.41406-1.8242 0.625-3 0.625-1.5859 0-2.8711-0.45703-3.8594-1.375-0.99219-0.92578-1.4844-2.1289-1.4844-3.6094 0-1.7891 0.61328-3.1016 1.8438-3.9375 1.2383-0.84375 3.1797-1.2656 5.8281-1.2656h2.8906v-0.39062c0-0.76953-0.30859-1.332-0.92188-1.6875-0.61719-0.36328-1.5703-0.54688-2.8594-0.54688-1.0547 0-2.0312 0.10547-2.9375 0.3125-0.89844 0.21094-1.7305 0.52344-2.5 0.9375v-3.7344c1.0391-0.25 2.0859-0.44141 3.1406-0.57812 1.0625-0.13281 2.125-0.20312 3.1875-0.20312 2.7578 0 4.75 0.54688 5.9688 1.6406 1.2266 1.0859 1.8438 2.8555 1.8438 5.3125z"/>
  </symbol>
  <symbol id="c" overflow="visible">
   <path d="m7.7031-19.656v4.3438h5.0469v3.5h-5.0469v6.5c0 0.71094 0.14062 1.1875 0.42188 1.4375s0.83594 0.375 1.6719 0.375h2.5156v3.5h-4.1875c-1.9375 0-3.3125-0.39844-4.125-1.2031-0.80469-0.8125-1.2031-2.1797-1.2031-4.1094v-6.5h-2.4219v-3.5h2.4219v-4.3438z"/>
  </symbol>
  <symbol id="k" overflow="visible">
   <path d="m12.766-13.078v-8.2031h4.9219v21.281h-4.9219v-2.2188c-0.66797 0.90625-1.4062 1.5703-2.2188 1.9844s-1.7578 0.625-2.8281 0.625c-1.8867 0-3.4336-0.75-4.6406-2.25-1.2109-1.5-1.8125-3.4258-1.8125-5.7812 0-2.3633 0.60156-4.2969 1.8125-5.7969 1.207-1.5 2.7539-2.25 4.6406-2.25 1.0625 0 2 0.21484 2.8125 0.64062 0.82031 0.42969 1.5664 1.0859 2.2344 1.9688zm-3.2188 9.9219c1.0391 0 1.8359-0.37891 2.3906-1.1406 0.55078-0.76953 0.82812-1.8828 0.82812-3.3438 0-1.457-0.27734-2.5664-0.82812-3.3281-0.55469-0.76953-1.3516-1.1562-2.3906-1.1562-1.043 0-1.8398 0.38672-2.3906 1.1562-0.55469 0.76172-0.82812 1.8711-0.82812 3.3281 0 1.4609 0.27344 2.5742 0.82812 3.3438 0.55078 0.76172 1.3477 1.1406 2.3906 1.1406z"/>
  </symbol>
  <symbol id="e" overflow="visible">
   <path d="m10.5-3.1562c1.0508 0 1.8516-0.37891 2.4062-1.1406 0.55078-0.76953 0.82812-1.8828 0.82812-3.3438 0-1.457-0.27734-2.5664-0.82812-3.3281-0.55469-0.76953-1.3555-1.1562-2.4062-1.1562-1.0547 0-1.8594 0.38672-2.4219 1.1562-0.55469 0.77344-0.82812 1.8828-0.82812 3.3281 0 1.4492 0.27344 2.5586 0.82812 3.3281 0.5625 0.77344 1.3672 1.1562 2.4219 1.1562zm-3.25-9.9219c0.67578-0.88281 1.4219-1.5391 2.2344-1.9688 0.82031-0.42578 1.7656-0.64062 2.8281-0.64062 1.8945 0 3.4453 0.75 4.6562 2.25 1.207 1.5 1.8125 3.4336 1.8125 5.7969 0 2.3555-0.60547 4.2812-1.8125 5.7812-1.2109 1.5-2.7617 2.25-4.6562 2.25-1.0625 0-2.0078-0.21094-2.8281-0.625-0.8125-0.42578-1.5586-1.0859-2.2344-1.9844v2.2188h-4.8906v-21.281h4.8906z"/>
  </symbol>
  <symbol id="j" overflow="visible">
   <path d="m0.34375-15.312h4.8906l4.125 10.391 3.5-10.391h4.8906l-6.4375 16.766c-0.64844 1.6953-1.4023 2.8828-2.2656 3.5625-0.86719 0.6875-2 1.0312-3.4062 1.0312h-2.8438v-3.2188h1.5312c0.83203 0 1.4375-0.13672 1.8125-0.40625 0.38281-0.26172 0.67969-0.73047 0.89062-1.4062l0.14062-0.42188z"/>
  </symbol>
  <symbol id="i" overflow="visible">
   <path d="m2.5781-20.406h5.25v16.422h9.25v3.9844h-14.5z"/>
  </symbol>
  <symbol id="h" overflow="visible">
   <path d="m14.312-14.828v3.7188c-1.043-0.4375-2.0547-0.76562-3.0312-0.98438-0.98047-0.21875-1.9023-0.32812-2.7656-0.32812-0.92969 0-1.6211 0.11719-2.0781 0.34375-0.44922 0.23047-0.67188 0.58984-0.67188 1.0781 0 0.38672 0.17188 0.68359 0.51562 0.89062 0.34375 0.21094 0.95703 0.36719 1.8438 0.46875l0.85938 0.125c2.5078 0.32422 4.1953 0.85156 5.0625 1.5781 0.86328 0.73047 1.2969 1.8711 1.2969 3.4219 0 1.6367-0.60547 2.8672-1.8125 3.6875-1.1992 0.8125-2.9922 1.2188-5.375 1.2188-1.0234 0-2.0742-0.078125-3.1562-0.23438-1.0742-0.15625-2.1797-0.39453-3.3125-0.71875v-3.7188c0.96875 0.48047 1.9609 0.83984 2.9844 1.0781 1.0312 0.23047 2.0781 0.34375 3.1406 0.34375 0.95703 0 1.6758-0.12891 2.1562-0.39062 0.47656-0.26953 0.71875-0.66406 0.71875-1.1875 0-0.4375-0.16797-0.75781-0.5-0.96875-0.33594-0.21875-0.99609-0.38281-1.9844-0.5l-0.85938-0.10938c-2.1797-0.26953-3.7031-0.77344-4.5781-1.5156-0.875-0.73828-1.3125-1.8594-1.3125-3.3594 0-1.625 0.55078-2.8281 1.6562-3.6094 1.1133-0.78906 2.8203-1.1875 5.125-1.1875 0.89453 0 1.8359 0.074219 2.8281 0.21875 1 0.13672 2.082 0.35156 3.25 0.64062z"/>
  </symbol>
  <symbol id="u" overflow="visible">
   <path d="m2.5781-20.406h6.6875l4.6562 10.922 4.6719-10.922h6.6875v20.406h-4.9844v-14.938l-4.7031 11.016h-3.3281l-4.7031-11.016v14.938h-4.9844z"/>
  </symbol>
  <symbol id="t" overflow="visible">
   <path d="m2.3594-15.312h4.8906v15.312h-4.8906zm0-5.9688h4.8906v4h-4.8906z"/>
  </symbol>
  <symbol id="d" overflow="visible">
   <path d="m9.6406-12.188c-1.0859 0-1.9141 0.39062-2.4844 1.1719-0.57422 0.78125-0.85938 1.9062-0.85938 3.375s0.28516 2.5938 0.85938 3.375c0.57031 0.77344 1.3984 1.1562 2.4844 1.1562 1.0625 0 1.875-0.38281 2.4375-1.1562 0.57031-0.78125 0.85938-1.9062 0.85938-3.375s-0.28906-2.5938-0.85938-3.375c-0.5625-0.78125-1.375-1.1719-2.4375-1.1719zm0-3.5c2.6328 0 4.6914 0.71484 6.1719 2.1406 1.4766 1.418 2.2188 3.3867 2.2188 5.9062 0 2.5117-0.74219 4.4805-2.2188 5.9062-1.4805 1.418-3.5391 2.125-6.1719 2.125-2.6484 0-4.7148-0.70703-6.2031-2.125-1.4922-1.4258-2.2344-3.3945-2.2344-5.9062 0-2.5195 0.74219-4.4883 2.2344-5.9062 1.4883-1.4258 3.5547-2.1406 6.2031-2.1406z"/>
  </symbol>
  <symbol id="g" overflow="visible">
   <path d="m17.75-9.3281v9.3281h-4.9219v-7.1406c0-1.3203-0.03125-2.2344-0.09375-2.7344s-0.16797-0.86719-0.3125-1.1094c-0.1875-0.3125-0.44922-0.55469-0.78125-0.73438-0.32422-0.17578-0.69531-0.26562-1.1094-0.26562-1.0234 0-1.8242 0.39844-2.4062 1.1875-0.58594 0.78125-0.875 1.8711-0.875 3.2656v7.5312h-4.8906v-15.312h4.8906v2.2344c0.73828-0.88281 1.5195-1.5391 2.3438-1.9688 0.83203-0.42578 1.75-0.64062 2.75-0.64062 1.7695 0 3.1133 0.54688 4.0312 1.6406 0.91406 1.0859 1.375 2.6562 1.375 4.7188z"/>
  </symbol>
  <symbol id="s" overflow="visible">
   <path d="m12.422-21.281v3.2188h-2.7031c-0.6875 0-1.1719 0.125-1.4531 0.375-0.27344 0.25-0.40625 0.6875-0.40625 1.3125v1.0625h4.1875v3.5h-4.1875v11.812h-4.8906v-11.812h-2.4375v-3.5h2.4375v-1.0625c0-1.6641 0.46094-2.8984 1.3906-3.7031 0.92578-0.80078 2.3672-1.2031 4.3281-1.2031z"/>
  </symbol>
  <symbol id="r" overflow="visible">
   <path d="m16.547-12.766c0.61328-0.94531 1.3477-1.6719 2.2031-2.1719 0.85156-0.5 1.7891-0.75 2.8125-0.75 1.7578 0 3.0977 0.54688 4.0156 1.6406 0.92578 1.0859 1.3906 2.6562 1.3906 4.7188v9.3281h-4.9219v-7.9844-0.35938c0.007813-0.13281 0.015625-0.32031 0.015625-0.5625 0-1.082-0.16406-1.8633-0.48438-2.3438-0.3125-0.48828-0.82422-0.73438-1.5312-0.73438-0.92969 0-1.6484 0.38672-2.1562 1.1562-0.51172 0.76172-0.77344 1.8672-0.78125 3.3125v7.5156h-4.9219v-7.9844c0-1.6953-0.14844-2.7852-0.4375-3.2656-0.29297-0.48828-0.8125-0.73438-1.5625-0.73438-0.9375 0-1.6641 0.38672-2.1719 1.1562-0.51172 0.76172-0.76562 1.8594-0.76562 3.2969v7.5312h-4.9219v-15.312h4.9219v2.2344c0.60156-0.86328 1.2891-1.5156 2.0625-1.9531 0.78125-0.4375 1.6406-0.65625 2.5781-0.65625 1.0625 0 2 0.25781 2.8125 0.76562 0.8125 0.51172 1.4258 1.2305 1.8438 2.1562z"/>
  </symbol>
  <symbol id="q" overflow="visible">
   <path d="m17.75-9.3281v9.3281h-4.9219v-7.1094c0-1.3438-0.03125-2.2656-0.09375-2.7656s-0.16797-0.86719-0.3125-1.1094c-0.1875-0.3125-0.44922-0.55469-0.78125-0.73438-0.32422-0.17578-0.69531-0.26562-1.1094-0.26562-1.0234 0-1.8242 0.39844-2.4062 1.1875-0.58594 0.78125-0.875 1.8711-0.875 3.2656v7.5312h-4.8906v-21.281h4.8906v8.2031c0.73828-0.88281 1.5195-1.5391 2.3438-1.9688 0.83203-0.42578 1.75-0.64062 2.75-0.64062 1.7695 0 3.1133 0.54688 4.0312 1.6406 0.91406 1.0859 1.375 2.6562 1.375 4.7188z"/>
  </symbol>
  <symbol id="p" overflow="visible">
   <path d="m2.5781-20.406h5.875l7.4219 14v-14h4.9844v20.406h-5.875l-7.4219-14v14h-4.9844z"/>
  </symbol>
  <symbol id="o" overflow="visible">
   <path d="m2.1875-5.9688v-9.3438h4.9219v1.5312c0 0.83594-0.007813 1.875-0.015625 3.125-0.011719 1.25-0.015625 2.0859-0.015625 2.5 0 1.2422 0.03125 2.1328 0.09375 2.6719 0.070313 0.54297 0.17969 0.93359 0.32812 1.1719 0.20703 0.32422 0.47266 0.57422 0.79688 0.75 0.32031 0.16797 0.69141 0.25 1.1094 0.25 1.0195 0 1.8203-0.39062 2.4062-1.1719 0.58203-0.78125 0.875-1.8672 0.875-3.2656v-7.5625h4.8906v15.312h-4.8906v-2.2188c-0.74219 0.89844-1.5234 1.5586-2.3438 1.9844-0.82422 0.41406-1.7344 0.625-2.7344 0.625-1.7617 0-3.1055-0.53906-4.0312-1.625-0.92969-1.082-1.3906-2.6602-1.3906-4.7344z"/>
  </symbol>
  <symbol id="n" overflow="visible">
   <path d="m2.5781-20.406h8.7344c2.5938 0 4.582 0.57812 5.9688 1.7344 1.3945 1.1484 2.0938 2.7891 2.0938 4.9219 0 2.1367-0.69922 3.7812-2.0938 4.9375-1.3867 1.1562-3.375 1.7344-5.9688 1.7344h-3.4844v7.0781h-5.25zm5.25 3.8125v5.7031h2.9219c1.0195 0 1.8047-0.25 2.3594-0.75 0.5625-0.5 0.84375-1.2031 0.84375-2.1094 0-0.91406-0.28125-1.6172-0.84375-2.1094-0.55469-0.48828-1.3398-0.73438-2.3594-0.73438z"/>
  </symbol>
  <symbol id="m" overflow="visible">
   <path d="m2.3594-15.312h4.8906v15.031c0 2.0508-0.49609 3.6172-1.4844 4.7031-0.98047 1.082-2.4062 1.625-4.2812 1.625h-2.4219v-3.2188h0.85938c0.92578 0 1.5625-0.21094 1.9062-0.625 0.35156-0.41797 0.53125-1.2461 0.53125-2.4844zm0-5.9688h4.8906v4h-4.8906z"/>
  </symbol>
  <symbol id="l" overflow="visible">
   <path d="m14.719-14.828v3.9844c-0.65625-0.45703-1.3242-0.79688-2-1.0156-0.66797-0.21875-1.3594-0.32812-2.0781-0.32812-1.3672 0-2.4336 0.40234-3.2031 1.2031-0.76172 0.79297-1.1406 1.9062-1.1406 3.3438 0 1.4297 0.37891 2.543 1.1406 3.3438 0.76953 0.79297 1.8359 1.1875 3.2031 1.1875 0.75781 0 1.4844-0.10938 2.1719-0.32812 0.6875-0.22656 1.3203-0.56641 1.9062-1.0156v4c-0.76172 0.28125-1.5391 0.48828-2.3281 0.625-0.78125 0.14453-1.5742 0.21875-2.375 0.21875-2.7617 0-4.9219-0.70703-6.4844-2.125-1.5547-1.4141-2.3281-3.3828-2.3281-5.9062 0-2.5312 0.77344-4.5039 2.3281-5.9219 1.5625-1.4141 3.7227-2.125 6.4844-2.125 0.80078 0 1.5938 0.074219 2.375 0.21875 0.78125 0.13672 1.5547 0.35156 2.3281 0.64062z"/>
  </symbol>
 </defs>
 <g>
  <path d="m495.6 46.871c-42.016-22.758-90.367-31.012-137.55-23.48-47.188 7.5273-90.566 30.422-123.41 65.125s-53.316 79.277-58.242 126.8c-30.801 17.766-55.406 44.559-70.484 76.762-15.082 32.203-19.91 68.262-13.832 103.3s22.77 67.359 47.816 92.598c25.047 25.242 57.238 42.184 92.227 48.535 34.984 6.3516 71.078 1.8047 103.4-13.023 32.32-14.828 59.305-39.223 77.309-69.887 23.188-2.3164 45.863-8.2695 67.199-17.641 9.2422-4.1172 18.184-8.8711 26.77-14.227 43.117-26.895 75.434-68.066 91.312-116.34 15.883-48.273 14.316-100.59-4.4141-147.83-18.734-47.242-53.449-86.414-98.098-110.69zm-232.96 34.496c30.148-24.945 66.859-40.656 105.72-45.246 38.863-4.5898 78.223 2.1367 113.35 19.375l-0.55859 0.78516c-5.1328 6.6641-9.6641 13.766-13.551 21.223-7.4492 15.566-3.0781 37.688 1.1758 59.078 3.4727 17.473 7.0547 35.559 3.0781 46.09-4.6484 11.984-43.457 52.527-75.824 63.281-2.0156 0.67188-3.9219 1.1211-5.6016 1.5664h0.003906c-5.5117-6.0156-11.445-11.629-17.754-16.801 4.1992-8.2305 10.359-18.09 14.223-24.246 15.734-25.145 31.977-51.129 16.016-63.727-10.078-7.9531-24.473-11.199-40.824-11.199-26.879 0-59.137 8.793-86.52 20.047-5.6016 2.1836-7.2227 0.72656-7.9531 0-3.0781-1.9062-11.758-13.441-5.1484-70.227zm-15.457 14.336c-3.8633 48.609 4.7031 61.602 11.871 67.199 3.1289 2.2578 6.8203 3.6016 10.664 3.8867 3.8438 0.28906 7.6953-0.49609 11.121-2.2617 50.008-20.496 95.535-24.809 113.34-10.754 6.1055 4.8164-9.7422 30.184-19.207 45.305-5.0391 8.0078-9.9102 15.902-13.719 23.184v0.003906c-24.621-16.902-53.195-27.152-82.945-29.75-29.75-2.6016-59.668 2.5352-86.848 14.91 6.3281-42.148 25.766-81.238 55.551-111.72zm16.016 429.74v0.003907c-42.387 0.042969-83.051-16.758-113.05-46.703-29.996-29.949-46.863-70.586-46.887-112.97-0.027344-42.387 16.793-83.043 46.754-113.03 29.961-29.98 70.609-46.828 112.99-46.836 42.387-0.003906 83.039 16.836 113.01 46.809 29.965 29.977 46.797 70.633 46.781 113.02-0.058593 42.352-16.914 82.949-46.863 112.89-29.953 29.938-70.555 46.777-112.91 46.824zm157.53-86.91c10.582-22.809 16.066-47.652 16.074-72.801-0.10547-9.8789-1.043-19.73-2.8008-29.453l1.793-0.67188c25.594-10.863 33.602 0.89453 38.641 8.2305-0.60938 1.5977-1.3984 3.1172-2.3555 4.5352-4.9844 8.3438-13.328 22.398-2.8555 49.617 3.4297 8.3203 9.8672 15.039 18.035 18.816-20.738 11.074-43.254 18.43-66.531 21.727zm81.648-30.574c-11.199-4.0312-17.473-8.6797-19.824-14.953-8.0625-20.945-2.5742-30.129 1.793-37.465 2.9102-4.8711 6.8867-11.594 2.0156-19.039-4.8711-7.4492-19.375-28.84-55.047-14.055-5.8867-22.945-16.406-44.441-30.914-63.168 37.91-12.543 78.793-56.727 84.336-71.625 5.543-14.895 1.5664-33.602-2.4648-53.703-3.8086-19.152-7.7266-39.199-2.2969-50.398l0.003906-0.003907c3.6172-6.6719 7.7773-13.043 12.43-19.039l1.625-2.2383c40.148 23.344 71.07 59.758 87.602 103.16 16.535 43.398 17.68 91.152 3.2461 135.29-14.438 44.141-43.578 81.996-82.559 107.24z"/>
  <path d="m518 194.88c1.457 28-36.566 49.84-36.961 50.062-17.586 10.695-24.473 18.93-23.238 27.496 1.793 11.762 17.414 15.734 39.199 21.281 13.281 2.9336 26.258 7.1172 38.754 12.488 4.6953 2.4531 9.8789 3.8281 15.176 4.0312 3.7461 0.0625 7.4219-1.0312 10.527-3.1328 14-9.6328 11.703-37.129 9.0703-69.047-1.2305-10.418-2.1289-21.34-2.1289-30.859-0.39063-19.488-7-34.105-18.258-40.152h0.003906c-3.1445-1.7812-6.7148-2.6875-10.332-2.6172-3.6133 0.066406-7.1445 1.1094-10.219 3.0117-8.1211 4.8711-12.266 14.949-11.594 27.438zm18.93-15.68c1.9531-1.2148 4.4258-1.2148 6.3828 0 5.0977 2.6875 10.586 11.535 11.199 28 0 10.137 1.1211 21.281 2.0156 32.031 1.793 21.672 4.2578 51.297-3.0781 56.336-1.9609 1.3984-6.1602 0.67188-11.703-2.0156h-0.003906c-13.336-5.7656-27.195-10.246-41.383-13.383-10.305-2.6328-25.648-6.5508-28.504-9.8555 0.55859-1.1758 3.2461-5.2656 16.406-13.328 3.1914-1.793 45.809-26.711 43.961-62.945-1.0469-5.4219 0.72266-11.008 4.707-14.84z"/>
  <path d="m306.04 244.5v-9.2969c0.007813-2.0938-0.92578-4.082-2.543-5.4141-1.6172-1.3359-3.7422-1.875-5.8008-1.4727-2.6875 0.55859-63.336 13.887-67.648 110.27-5.6016-5.6016-9.8008-15.398-8.793-37.574l0.003906-0.003906c0.14453-3.1445-1.8242-6-4.8164-6.9805-2.9922-0.98047-6.2695 0.15625-8.0078 2.7812-2.6875 3.9766-65.688 98.727-36.008 154.5 13.047 24.527 41.441 37.297 84.449 38.023h4.0312c58.352 0 82.488-22.398 92.457-41.215 16.352-30.688 8.2305-75.375-21.559-119.45-25.934-38.078-25.934-46.93-25.766-84.168zm-2.2383 204.29c-5.6016 13.273-20.832 22.398-45.695 26.488-6.1055-2.6875-27.273-13.215-31.527-31.137h-0.003906c-1.9219-10.465 0.63672-21.254 7.0586-29.738 2.2617 9.7148 8.7266 17.922 17.641 22.402 2.5312 1.0469 5.4414 0.52344 7.4453-1.3438 16.801-15.625 15.512-33.207 14.168-48.664-1.1406-7.4453-0.92969-15.031 0.61719-22.402 12.992 17.809 41.047 58.242 30.297 84.395zm37.238-7.0547v-0.003907c-7.6094 13.219-20.027 22.988-34.664 27.273 4.4492-4.1953 7.9766-9.2656 10.359-14.895 14.281-34.719-19.375-80.863-33.602-100.8-1.9609-2.6875-3.5273-4.8164-4.4805-6.2734h0.003906c-1.2305-1.918-3.3242-3.1094-5.6016-3.1914-2.1641 0-4.2148 0.96484-5.5977 2.6328-10.586 13.383-9.3516 28-8.2305 41.16 1.1211 13.16 2.0156 23.352-6.0469 33.602-6.2148-6.0469-7.9531-18.426-8.0625-23.465h-0.003907c0.23047-3.1445-1.6641-6.0508-4.6289-7.1094-2.9688-1.0586-6.2773-0.007812-8.0859 2.5703-17.191 18.93-23.801 37.184-19.656 54.266 2.6133 9.7383 8.0508 18.488 15.625 25.145-21.559-4.3672-36.289-13.664-43.848-28-18.426-34.664 7.3906-91.168 23.688-120.73v-0.003906c0.73438 7.3672 3.5 14.383 7.9883 20.266 4.4922 5.8828 10.527 10.402 17.438 13.055 2.1367 1.0039 4.6406 0.85938 6.6484-0.38281 2.0117-1.2422 3.2578-3.4141 3.3203-5.7773-0.33594-73.922 32.367-98.336 48.273-105.84 0 38.078 0 49.895 28 91.449 26.766 39.145 34.773 79.352 21.164 105.05z"/>
  <use x="70" y="644" xlink:href="#v"/>
  <use x="90.550781" y="644" xlink:href="#b"/>
  <use x="104.359375" y="644" xlink:href="#a"/>
  <use x="123.347656" y="644" xlink:href="#f"/>
  <use x="142.242188" y="644" xlink:href="#c"/>
  <use x="155.628906" y="644" xlink:href="#a"/>
  <use x="174.617188" y="644" xlink:href="#k"/>
  <use x="204.410156" y="644" xlink:href="#e"/>
  <use x="224.453125" y="644" xlink:href="#j"/>
  <use x="252.453125" y="644" xlink:href="#i"/>
  <use x="270.292969" y="644" xlink:href="#f"/>
  <use x="289.1875" y="644" xlink:href="#b"/>
  <use x="302.996094" y="644" xlink:href="#h"/>
  <use x="329.410156" y="644" xlink:href="#u"/>
  <use x="357.273438" y="644" xlink:href="#a"/>
  <use x="376.265625" y="644" xlink:href="#t"/>
  <use x="385.859375" y="644" xlink:href="#a"/>
  <use x="404.851562" y="644" xlink:href="#b"/>
  <use x="418.660156" y="644" xlink:href="#c"/>
  <use x="432.046875" y="644" xlink:href="#d"/>
  <use x="451.28125" y="644" xlink:href="#e"/>
  <use x="471.324219" y="644" xlink:href="#a"/>
  <use x="490.3125" y="644" xlink:href="#b"/>
  <use x="504.125" y="644" xlink:href="#a"/>
  <use x="523.113281" y="644" xlink:href="#g"/>
  <use x="543.046875" y="644" xlink:href="#h"/>
  <use x="70" y="672" xlink:href="#s"/>
  <use x="82.183594" y="672" xlink:href="#b"/>
  <use x="95.992188" y="672" xlink:href="#d"/>
  <use x="115.226562" y="672" xlink:href="#r"/>
  <use x="154.152344" y="672" xlink:href="#c"/>
  <use x="167.535156" y="672" xlink:href="#q"/>
  <use x="187.46875" y="672" xlink:href="#a"/>
  <use x="216.207031" y="672" xlink:href="#p"/>
  <use x="239.640625" y="672" xlink:href="#d"/>
  <use x="258.878906" y="672" xlink:href="#o"/>
  <use x="278.8125" y="672" xlink:href="#g"/>
  <use x="308.492188" y="672" xlink:href="#n"/>
  <use x="329.015625" y="672" xlink:href="#b"/>
  <use x="342.820312" y="672" xlink:href="#d"/>
  <use x="362.058594" y="672" xlink:href="#m"/>
  <use x="371.65625" y="672" xlink:href="#a"/>
  <use x="390.648438" y="672" xlink:href="#l"/>
  <use x="407.242188" y="672" xlink:href="#c"/>
 </g>
</svg>
