<?xml version="1.0" encoding="UTF-8"?>
<svg width="700pt" height="700pt" version="1.1" viewBox="0 0 700 700" xmlns="http://www.w3.org/2000/svg" xmlns:xlink="http://www.w3.org/1999/xlink">
 <defs>
  <symbol id="m" overflow="visible">
   <path d="m32.5-1.9375c-1.6797 0.86719-3.4219 1.5156-5.2344 1.9531-1.8125 0.44531-3.7109 0.67188-5.6875 0.67188-5.8867 0-10.555-1.6445-14-4.9375-3.4375-3.2891-5.1562-7.7578-5.1562-13.406 0-5.6445 1.7188-10.113 5.1562-13.406 3.4453-3.2891 8.1133-4.9375 14-4.9375 1.9766 0 3.875 0.21875 5.6875 0.65625s3.5547 1.0938 5.2344 1.9688v7.3125c-1.6875-1.1445-3.3555-1.9844-5-2.5156-1.6367-0.53906-3.3672-0.8125-5.1875-0.8125-3.25 0-5.8086 1.043-7.6719 3.125-1.8672 2.0859-2.7969 4.9531-2.7969 8.6094s0.92969 6.5273 2.7969 8.6094c1.8633 2.0859 4.4219 3.125 7.6719 3.125 1.8203 0 3.5508-0.26562 5.1875-0.79688 1.6445-0.53906 3.3125-1.3906 5-2.5469z"/>
  </symbol>
  <symbol id="h" overflow="visible">
   <path d="m23.781-19.312c-0.74219-0.34375-1.4805-0.59766-2.2188-0.76562-0.73047-0.16406-1.4648-0.25-2.2031-0.25-2.1875 0-3.8711 0.70312-5.0469 2.1094-1.168 1.3984-1.75 3.3984-1.75 6v12.219h-8.4844v-26.531h8.4844v4.3594c1.082-1.7383 2.332-3.0039 3.75-3.7969 1.4141-0.80078 3.1094-1.2031 5.0781-1.2031 0.28125 0 0.58594 0.015625 0.92188 0.046875 0.33203 0.023438 0.81641 0.070312 1.4531 0.14062z"/>
  </symbol>
  <symbol id="c" overflow="visible">
   <path d="m30.562-13.344v2.4219h-19.828c0.20703 1.9922 0.92578 3.4844 2.1562 4.4844 1.2266 0.99219 2.9453 1.4844 5.1562 1.4844 1.7891 0 3.6172-0.25781 5.4844-0.78125 1.875-0.53125 3.7969-1.3359 5.7656-2.4219v6.5469c-2 0.76172-4.0078 1.3359-6.0156 1.7188-2 0.38281-4.0078 0.57812-6.0156 0.57812-4.8047 0-8.5391-1.2188-11.203-3.6562-2.6562-2.4453-3.9844-5.875-3.9844-10.281 0-4.3203 1.3047-7.7227 3.9219-10.203 2.6133-2.4766 6.2109-3.7188 10.797-3.7188 4.1641 0 7.5 1.2578 10 3.7656 2.5078 2.5117 3.7656 5.8672 3.7656 10.062zm-8.7188-2.8125c0-1.6133-0.47656-2.9102-1.4219-3.8906-0.9375-0.98828-2.1641-1.4844-3.6719-1.4844-1.6484 0-2.9844 0.46484-4.0156 1.3906-1.0234 0.91797-1.6562 2.2461-1.9062 3.9844z"/>
  </symbol>
  <symbol id="b" overflow="visible">
   <path d="m15.969-11.938c-1.7734 0-3.1055 0.30469-4 0.90625-0.88672 0.59375-1.3281 1.4766-1.3281 2.6406 0 1.0742 0.35938 1.918 1.0781 2.5312 0.71875 0.60547 1.7188 0.90625 3 0.90625 1.5938 0 2.9297-0.57031 4.0156-1.7188 1.0938-1.1445 1.6406-2.5781 1.6406-4.2969v-0.96875zm12.953-3.2031v15.141h-8.5469v-3.9375c-1.1367 1.6172-2.418 2.793-3.8438 3.5312-1.418 0.72656-3.1484 1.0938-5.1875 1.0938-2.75 0-4.9844-0.80078-6.7031-2.4062-1.7109-1.6016-2.5625-3.6797-2.5625-6.2344 0-3.1133 1.0664-5.3945 3.2031-6.8438 2.1445-1.457 5.5078-2.1875 10.094-2.1875h5v-0.67188c0-1.332-0.53125-2.3125-1.5938-2.9375-1.0547-0.625-2.7031-0.9375-4.9531-0.9375-1.8125 0-3.5 0.18359-5.0625 0.54688-1.5625 0.36719-3.0156 0.90625-4.3594 1.625v-6.4688c1.8125-0.4375 3.6328-0.76953 5.4688-1 1.832-0.22656 3.6641-0.34375 5.5-0.34375 4.7812 0 8.2344 0.94531 10.359 2.8281 2.125 1.8867 3.1875 4.9531 3.1875 9.2031z"/>
  </symbol>
  <symbol id="g" overflow="visible">
   <path d="m13.344-34.062v7.5312h8.7344v6.0625h-8.7344v11.25c0 1.2305 0.24219 2.0625 0.73438 2.5 0.48828 0.4375 1.457 0.65625 2.9062 0.65625h4.3594v6.0625h-7.2656c-3.3555 0-5.7305-0.69531-7.125-2.0938-1.3984-1.3945-2.0938-3.7695-2.0938-7.125v-11.25h-4.2188v-6.0625h4.2188v-7.5312z"/>
  </symbol>
  <symbol id="f" overflow="visible">
   <path d="m22.125-22.641v-14.219h8.5312v36.859h-8.5312v-3.8438c-1.168 1.5625-2.4531 2.7109-3.8594 3.4375s-3.0312 1.0938-4.875 1.0938c-3.2734 0-5.9609-1.2969-8.0625-3.8906-2.1055-2.6016-3.1562-5.9531-3.1562-10.047 0-4.082 1.0508-7.4219 3.1562-10.016 2.1016-2.6016 4.7891-3.9062 8.0625-3.9062 1.8203 0 3.4414 0.37109 4.8594 1.1094 1.4141 0.73047 2.707 1.8711 3.875 3.4219zm-5.5938 17.172c1.8203 0 3.207-0.66016 4.1562-1.9844 0.95703-1.332 1.4375-3.2656 1.4375-5.7969 0-2.5195-0.48047-4.4414-1.4375-5.7656-0.94922-1.332-2.3359-2-4.1562-2-1.8047 0-3.1836 0.66797-4.1406 2-0.94922 1.3242-1.4219 3.2461-1.4219 5.7656 0 2.5312 0.47266 4.4648 1.4219 5.7969 0.95703 1.3242 2.3359 1.9844 4.1406 1.9844z"/>
  </symbol>
  <symbol id="e" overflow="visible">
   <path d="m18.188-5.4688c1.8203 0 3.207-0.66016 4.1562-1.9844 0.95703-1.332 1.4375-3.2656 1.4375-5.7969 0-2.5195-0.48047-4.4414-1.4375-5.7656-0.94922-1.332-2.3359-2-4.1562-2-1.8125 0-3.2031 0.66797-4.1719 2-0.96875 1.3359-1.4531 3.2578-1.4531 5.7656 0 2.5234 0.48438 4.4492 1.4531 5.7812 0.96875 1.3359 2.3594 2 4.1719 2zm-5.625-17.172c1.1641-1.5508 2.457-2.6914 3.875-3.4219 1.4258-0.73828 3.0625-1.1094 4.9062-1.1094 3.2695 0 5.9531 1.3047 8.0469 3.9062 2.1016 2.5938 3.1562 5.9336 3.1562 10.016 0 4.0938-1.0547 7.4453-3.1562 10.047-2.0938 2.5938-4.7773 3.8906-8.0469 3.8906-1.8438 0-3.4805-0.36719-4.9062-1.0938-1.418-0.73828-2.7109-1.8828-3.875-3.4375v3.8438h-8.4844v-36.859h8.4844z"/>
  </symbol>
  <symbol id="a" overflow="visible">
   <path d="m0.59375-26.531h8.4844l7.125 18 6.0625-18h8.4844l-11.156 29.047c-1.125 2.9453-2.4336 5.0078-3.9219 6.1875-1.4922 1.1758-3.4609 1.7656-5.9062 1.7656h-4.9062v-5.5625h2.6562c1.4375 0 2.4766-0.23047 3.125-0.6875 0.65625-0.46094 1.1641-1.2812 1.5312-2.4688l0.23438-0.73438z"/>
  </symbol>
  <symbol id="d" overflow="visible">
   <path d="m4.4531-35.375h24.609v6.9062h-15.484v6.5781h14.562v6.8906h-14.562v8.1094h16.016v6.8906h-25.141z"/>
  </symbol>
  <symbol id="l" overflow="visible">
   <path d="m3.7969-10.328v-16.203h8.5156v2.6562c0 1.4375-0.011719 3.2461-0.03125 5.4219-0.011719 2.168-0.015625 3.6094-0.015625 4.3281 0 2.1367 0.054687 3.6719 0.17188 4.6094 0.11328 0.9375 0.30078 1.6211 0.5625 2.0469 0.35156 0.55469 0.80469 0.98047 1.3594 1.2812 0.5625 0.30469 1.207 0.45312 1.9375 0.45312 1.7695 0 3.1602-0.67578 4.1719-2.0312 1.0078-1.3633 1.5156-3.2539 1.5156-5.6719v-13.094h8.4844v26.531h-8.4844v-3.8438c-1.2812 1.5547-2.6367 2.6992-4.0625 3.4375-1.4297 0.72656-3.0078 1.0938-4.7344 1.0938-3.0625 0-5.3984-0.9375-7-2.8125-1.5938-1.8828-2.3906-4.6172-2.3906-8.2031z"/>
  </symbol>
  <symbol id="k" overflow="visible">
   <path d="m25.516-25.703v6.9219c-1.1562-0.78906-2.3203-1.375-3.4844-1.75-1.1562-0.38281-2.3555-0.57812-3.5938-0.57812-2.375 0-4.2266 0.69531-5.5469 2.0781-1.3125 1.375-1.9688 3.3047-1.9688 5.7812 0 2.4922 0.65625 4.4297 1.9688 5.8125 1.3203 1.375 3.1719 2.0625 5.5469 2.0625 1.3203 0 2.5781-0.19531 3.7656-0.59375 1.1953-0.39453 2.3008-0.97656 3.3125-1.75v6.9375c-1.3242 0.49219-2.6719 0.85156-4.0469 1.0938-1.3672 0.25-2.7344 0.375-4.1094 0.375-4.7812 0-8.5273-1.2266-11.234-3.6875-2.6992-2.457-4.0469-5.875-4.0469-10.25 0-4.3633 1.3477-7.7734 4.0469-10.234 2.707-2.457 6.4531-3.6875 11.234-3.6875 1.3945 0 2.7656 0.125 4.1094 0.375 1.3516 0.24219 2.7031 0.60547 4.0469 1.0938z"/>
  </symbol>
  <symbol id="j" overflow="visible">
   <path d="m4.0781-36.859h8.4844v36.859h-8.4844z"/>
  </symbol>
  <symbol id="i" overflow="visible">
   <path d="m12.562-3.8438v13.938h-8.4844v-36.625h8.4844v3.8906c1.1641-1.5508 2.457-2.6914 3.875-3.4219 1.4258-0.73828 3.0625-1.1094 4.9062-1.1094 3.2695 0 5.9531 1.3047 8.0469 3.9062 2.1016 2.5938 3.1562 5.9336 3.1562 10.016 0 4.0938-1.0547 7.4453-3.1562 10.047-2.0938 2.5938-4.7773 3.8906-8.0469 3.8906-1.8438 0-3.4805-0.36719-4.9062-1.0938-1.418-0.73828-2.7109-1.8828-3.875-3.4375zm5.625-17.172c-1.8125 0-3.2031 0.66797-4.1719 2-0.96875 1.3359-1.4531 3.2578-1.4531 5.7656 0 2.5234 0.48438 4.4492 1.4531 5.7812 0.96875 1.3359 2.3594 2 4.1719 2 1.8203 0 3.207-0.66016 4.1562-1.9844 0.95703-1.332 1.4375-3.2656 1.4375-5.7969 0-2.5195-0.48047-4.4414-1.4375-5.7656-0.94922-1.332-2.3359-2-4.1562-2z"/>
  </symbol>
 </defs>
 <g>
  <path d="m163.73 229.38 18.02-18.02-30.469-38.094h-24.449v97.031h155.25v-97.031h-105.95l22.305 27.887 38.105-9.5195 32.988 32.992-13.719 13.719-25.227-25.219-30.875 7.7148-32.156 32.156-25.656-12.828 8.6758-17.359z"/>
  <path d="m68.613 486.04 266.43 72.363c1.6992 0.70703 3.4727 1.1367 5.25 1.582v-270.29h-271.68zm135.84-176.93c43.246 0 116.44 8.1797 116.44 38.812 0 11.246-9.9062 19.445-24.527 25.344 3.8984 4.8789 5.1211 9.6367 5.1211 13.469 0 11.324-9.1289 20.008-23.141 26.277 2.8438 4.625 3.7344 9.0195 3.7344 12.535 0 11.973-8.6953 21.23-21.84 27.723 1.5508 3.5625 2.4336 7.2773 2.4336 11.09 0 21.766-25.578 38.812-58.219 38.812s-58.219-17.047-58.219-38.812c0-3.8125 0.88281-7.5312 2.4336-11.09-13.145-6.4844-21.836-15.742-21.836-27.723 0-3.5117 0.89453-7.918 3.7344-12.535-14.012-6.2695-23.141-14.957-23.141-26.277 0-3.832 1.2227-8.5859 5.125-13.469-14.625-5.8984-24.531-14.098-24.531-25.344 0-30.633 73.188-38.812 116.43-38.812z"/>
  <path d="m333.88 1.9883-265.26 71.969v196.34h38.812v-97.031h-33.129l106.73-106.73c12.508-12.516 34.34-12.516 46.848 0l106.73 106.73h-33.129v97.031h38.812v-270.3c-1.7773 0.45703-3.5508 0.88281-5.2578 1.582z"/>
  <path d="m214.16 80.254c-5.1055-5.1055-14.301-5.1055-19.406 0l-73.605 73.605h166.62z"/>
  <path d="m258.49 419.59c-16.332 3.9961-35.445 5.957-54.035 5.957-18.59 0-37.707-1.9609-54.035-5.957-2.6328 2.1562-4.1836 4.3086-4.1836 5.9609 0 6.8398 22.102 19.406 58.219 19.406 36.113 0 58.219-12.566 58.219-19.406-0.003906-1.6523-1.5547-3.8047-4.1836-5.9609z"/>
  <path d="m273.94 379.92c-22.723 4.9961-49.332 6.8203-69.484 6.8203s-46.758-1.8242-69.484-6.8203c-6.625 3.5312-8.1367 6.3555-8.1367 6.8125 0 4.9883 26.684 19.406 77.625 19.406 50.941 0 77.625-14.418 77.625-19.406-0.003906-0.45703-1.5156-3.2812-8.1445-6.8125z"/>
  <path d="m204.45 464.36c-12.934 0-25.898-1.5312-37.453-4.4922-0.78516 1.3789-1.3555 2.8945-1.3555 4.4922 0 9.1602 16.594 19.406 38.812 19.406s38.812-10.246 38.812-19.406c0-1.6016-0.57422-3.1133-1.3594-4.4922-11.559 2.9609-24.52 4.4922-37.457 4.4922z"/>
  <path d="m485.84 454.66c0 5.3555 4.3555 9.7031 9.7031 9.7031s9.7031-4.3477 9.7031-9.7031c0-8.0156-5.5391-23.637-9.7031-28.285-4.1641 4.6562-9.7031 20.27-9.7031 28.285z"/>
  <path d="m204.45 367.33c57.512 0 92.984-12.402 96.895-19.406-3.9102-7.0039-39.383-19.406-96.895-19.406-58.645 0-94.383 12.895-97.09 19.812 2.7109 6.1055 38.445 19 97.09 19z"/>
  <path d="m457.82 112.57c3.4141-17.398 14.777-31.953 30.129-39.793-7.2383-4.0273-15.43-6.25-23.84-6.25h-28.422c-20.492 0-37.172 16.883-37.172 37.637 0 5.9961 4.793 10.879 10.684 10.879 2.832 0 5.5-1.1172 7.5195-3.1523l20.133-20.336 20.484 20.688c0.14453 0.13281 0.33984 0.19141 0.48437 0.32812z"/>
  <path d="m364.96 1.582c-1.707-0.69922-3.4805-1.125-5.2578-1.582v270.3h271.68v-196.34zm195.59 223.04c4.7656 4.7656 7.1016 6.8711 12.574 6.8711s7.8125-2.1055 12.574-6.8711c5.2969-5.2891 12.555-12.535 26.285-12.535v19.406c-5.4609 0-7.8125 2.1055-12.574 6.8711-5.2969 5.2891-12.555 12.535-26.285 12.535-13.73 0-20.988-7.25-26.285-12.535-4.7656-4.7656-7.1016-6.8711-12.574-6.8711-5.4531 0-7.7812 2.1055-12.535 6.8594-5.2969 5.2891-12.535 12.547-26.266 12.547-13.73 0-20.969-7.2578-26.266-12.547-4.7539-4.7539-7.082-6.8594-12.527-6.8594-5.4453 0-7.7734 2.1055-12.527 6.8594-5.2891 5.2891-12.535 12.547-26.258 12.547-13.719 0-20.969-7.2578-26.266-12.547-4.7539-4.7539-7.082-6.8594-12.535-6.8594v-19.406c13.719 0 20.969 7.2578 26.266 12.547 4.7539 4.7539 7.082 6.8594 12.535 6.8594 1.5625 0 2.832-0.22266 4.0156-0.58203l16.398-32.785c5.7148-11.422 8.7344-24.191 8.7344-36.941 0-14.527-3.9883-28.527-11.18-41.035l-5.3477 5.4062c-5.6875 5.7461-13.254 8.8984-21.309 8.8984-16.582 0-30.09-13.586-30.09-30.281 0-31.457 25.383-57.043 56.578-57.043h28.422c17.855 0 34.961 7.0938 47.75 19.504 0.64062-0.019531 1.2695-0.097657 1.9102-0.097657h28.703c38.328 0 69.504 31.176 69.504 69.504 0 20.328-8.8594 39.578-24.305 52.793l-34.32 29.379c2.8516 2.082 5.1797 4.3828 7.1992 6.4102z"/>
  <path d="m533.14 152.23c-4.2031-1.418-8.1016-3.668-11.332-6.8984l-6.8594-6.8594-6.5195 6.5195c-5.7148 5.7148-13.32 8.8672-21.414 8.8672-8.7148 0-16.516-3.7461-22.047-9.6562 0.94141 5.582 1.4648 11.25 1.4648 16.984 0 15.746-3.7266 31.523-10.762 45.605l-2.7656 5.5391c1.2109-0.125 2.4453-0.25391 3.7734-0.25391 39.336 0 70.23-35.988 76.461-59.848z"/>
  <path d="m466.78 458.05c-0.12891-1.125-0.33984-2.2305-0.33984-3.3945 0-11.293 9.0742-48.516 29.109-48.516s29.109 37.223 29.109 48.516c0 1.1641-0.21484 2.2695-0.33984 3.3945 18.145-8.3633 29.449-23.152 29.449-32.504 0-21.027-5.8516-28.816-12.613-37.84-6.6094-8.8008-13.961-18.621-15.973-38.441-8.7031 2.4102-19.93 9.1445-19.93 27.766v9.7031h-19.406v-29.109c0-15.582-5.4609-22.832-10.594-26.188-2.6094 17.348-10.539 27.09-18.25 36.582-10.125 12.426-19.672 24.168-19.672 57.527 0 9.3516 11.305 24.141 29.449 32.504z"/>
  <path d="m359.7 560c1.7656-0.45703 3.5508-0.88281 5.25-1.582l1.1836-0.39844 265.25-71.977v-196.34h-271.68zm82.242-204.23c8.5781-10.555 14.789-18.184 14.789-36.957v-9.7031h9.7031c10.934 0 29.816 6.7227 36.434 29.973 10.207-7.8789 22.84-10.566 31.484-10.566h9.7031v9.7031c0 21.027 5.8516 28.816 12.613 37.84 7.7344 10.312 16.496 21.996 16.496 49.484 0 26.371-34.621 58.219-77.625 58.219-43.004 0-77.625-31.844-77.625-58.219 0.003906-40.254 13.324-56.625 24.027-69.773z"/>
  <path d="m542.48 85.941h-28.703c-20.754 0-37.637 16.883-37.637 37.637 0 5.9961 4.8789 10.879 10.879 10.879 2.9102 0 5.6367-1.1367 7.6953-3.1836l20.238-20.242 20.582 20.582c1.832 1.832 4.2695 2.8438 6.8711 2.8438l1.6523-0.003906c5.3477 0 9.7031-4.3555 9.7031-9.7031h19.406c0 12.934-8.5391 23.793-20.223 27.574-4.7539 27.293-31.895 61.645-68 74.227 3.4844 3.3203 5.9297 4.9297 10.527 4.9297 5.4531 0 7.7812-2.1055 12.535-6.8594 4.7656-4.7656 11.16-11.062 22.375-12.285l44.684-38.25c11.125-9.5234 17.508-23.398 17.508-38.051 0-27.625-22.473-50.094-50.094-50.094z"/>
  <use x="68.613281" y="705.546875" xlink:href="#m"/>
  <use x="104.21875" y="705.546875" xlink:href="#h"/>
  <use x="128.144531" y="705.546875" xlink:href="#c"/>
  <use x="161.046875" y="705.546875" xlink:href="#b"/>
  <use x="193.785156" y="705.546875" xlink:href="#g"/>
  <use x="216.976562" y="705.546875" xlink:href="#c"/>
  <use x="249.878906" y="705.546875" xlink:href="#f"/>
  <use x="301.5" y="705.546875" xlink:href="#e"/>
  <use x="336.226562" y="705.546875" xlink:href="#a"/>
  <use x="384.742188" y="705.546875" xlink:href="#d"/>
  <use x="417.882812" y="705.546875" xlink:href="#l"/>
  <use x="452.421875" y="705.546875" xlink:href="#k"/>
  <use x="481.179688" y="705.546875" xlink:href="#b"/>
  <use x="513.917969" y="705.546875" xlink:href="#j"/>
  <use x="530.546875" y="705.546875" xlink:href="#a"/>
  <use x="562.171875" y="705.546875" xlink:href="#i"/>
 </g>
</svg>
