<?xml version="1.0" encoding="UTF-8"?>
<svg width="700pt" height="700pt" version="1.1" viewBox="0 0 700 700" xmlns="http://www.w3.org/2000/svg" xmlns:xlink="http://www.w3.org/1999/xlink">
 <defs>
  <symbol id="w" overflow="visible">
   <path d="m3.6562-0.21875c-0.1875 0.09375-0.38672 0.16797-0.59375 0.21875-0.19922 0.050781-0.40625 0.078125-0.625 0.078125-0.66797 0-1.1992-0.17969-1.5938-0.54688-0.38672-0.375-0.57812-0.87891-0.57812-1.5156 0-0.64453 0.19141-1.1484 0.57812-1.5156 0.39453-0.375 0.92578-0.5625 1.5938-0.5625 0.21875 0 0.42578 0.027344 0.625 0.078125 0.20703 0.054687 0.40625 0.125 0.59375 0.21875v0.82812c-0.1875-0.125-0.375-0.21875-0.5625-0.28125-0.17969-0.0625-0.37109-0.09375-0.57812-0.09375-0.36719 0-0.65625 0.12109-0.875 0.35938-0.21094 0.23047-0.3125 0.55469-0.3125 0.96875 0 0.40625 0.10156 0.73047 0.3125 0.96875 0.21875 0.23047 0.50781 0.34375 0.875 0.34375 0.20703 0 0.39844-0.023437 0.57812-0.078125 0.1875-0.0625 0.375-0.16016 0.5625-0.29688z"/>
  </symbol>
  <symbol id="b" overflow="visible">
   <path d="m2.6875-2.1719c-0.085938-0.039063-0.16797-0.070313-0.25-0.09375-0.085938-0.019531-0.16797-0.03125-0.25-0.03125-0.25 0-0.44531 0.085937-0.57812 0.25-0.125 0.15625-0.1875 0.38281-0.1875 0.67188v1.375h-0.96875v-2.9844h0.96875v0.48438c0.11328-0.19531 0.25-0.33594 0.40625-0.42188 0.16406-0.09375 0.35938-0.14062 0.57812-0.14062h0.10938c0.039063 0 0.09375 0.007812 0.15625 0.015625z"/>
  </symbol>
  <symbol id="a" overflow="visible">
   <path d="m3.4375-1.5v0.26562h-2.2344c0.03125 0.23047 0.11328 0.40234 0.25 0.51562 0.13281 0.10547 0.32812 0.15625 0.57812 0.15625 0.20703 0 0.41406-0.023438 0.625-0.078125 0.20703-0.0625 0.42188-0.15625 0.64062-0.28125v0.73438c-0.21875 0.09375-0.44531 0.16406-0.67188 0.20312-0.23047 0.039062-0.45312 0.0625-0.67188 0.0625-0.54297 0-0.96484-0.13281-1.2656-0.40625-0.30469-0.28125-0.45312-0.67188-0.45312-1.1719 0-0.47656 0.14453-0.85938 0.4375-1.1406 0.30078-0.28125 0.70703-0.42188 1.2188-0.42188 0.46875 0 0.84375 0.14062 1.125 0.42188s0.42188 0.66406 0.42188 1.1406zm-0.96875-0.32812c0-0.17578-0.058594-0.31641-0.17188-0.42188-0.10547-0.11328-0.24219-0.17188-0.40625-0.17188-0.1875 0-0.33984 0.054687-0.45312 0.15625-0.11719 0.10547-0.1875 0.25-0.21875 0.4375z"/>
  </symbol>
  <symbol id="l" overflow="visible">
   <path d="m1.7969-1.3438c-0.19922 0-0.35156 0.039062-0.45312 0.10938-0.09375 0.0625-0.14062 0.16406-0.14062 0.29688 0 0.11719 0.035156 0.21094 0.10938 0.28125 0.082031 0.0625 0.19531 0.09375 0.34375 0.09375 0.17578 0 0.32812-0.0625 0.45312-0.1875s0.1875-0.28516 0.1875-0.48438v-0.10938zm1.4688-0.35938v1.7031h-0.96875v-0.4375c-0.125 0.17969-0.27344 0.30859-0.4375 0.39062-0.15625 0.082031-0.35156 0.125-0.57812 0.125-0.3125 0-0.57031-0.085938-0.76562-0.26562-0.1875-0.1875-0.28125-0.42188-0.28125-0.70312 0-0.35156 0.11719-0.61328 0.35938-0.78125 0.23828-0.16406 0.61719-0.25 1.1406-0.25h0.5625v-0.0625c0-0.15625-0.0625-0.26562-0.1875-0.32812-0.11719-0.070312-0.29688-0.10938-0.54688-0.10938-0.21094 0-0.40234 0.023437-0.57812 0.0625-0.17969 0.042969-0.33984 0.10156-0.48438 0.17188v-0.71875c0.19531-0.050781 0.39844-0.085938 0.60938-0.10938 0.20703-0.03125 0.41406-0.046875 0.625-0.046875 0.53906 0 0.92969 0.10938 1.1719 0.32812 0.23828 0.21094 0.35938 0.55469 0.35938 1.0312z"/>
  </symbol>
  <symbol id="c" overflow="visible">
   <path d="m1.5-3.8438v0.85938h0.98438v0.67188h-0.98438v1.2812c0 0.13672 0.023438 0.23047 0.078125 0.28125 0.0625 0.042969 0.17578 0.0625 0.34375 0.0625h0.48438v0.6875h-0.8125c-0.38672 0-0.65625-0.078125-0.8125-0.23438s-0.23438-0.42188-0.23438-0.79688v-1.2812h-0.46875v-0.67188h0.46875v-0.85938z"/>
  </symbol>
  <symbol id="e" overflow="visible">
   <path d="m2.5-2.5469v-1.6094h0.95312v4.1562h-0.95312v-0.4375c-0.13672 0.17969-0.28125 0.30859-0.4375 0.39062-0.15625 0.082031-0.33984 0.125-0.54688 0.125-0.375 0-0.68359-0.14453-0.92188-0.4375-0.23047-0.28906-0.34375-0.67188-0.34375-1.1406 0-0.45703 0.11328-0.83203 0.34375-1.125 0.23828-0.28906 0.54688-0.4375 0.92188-0.4375 0.19531 0 0.375 0.042969 0.53125 0.125 0.16406 0.085938 0.31641 0.21484 0.45312 0.39062zm-0.64062 1.9375c0.20703 0 0.36328-0.070313 0.46875-0.21875 0.11328-0.15625 0.17188-0.37891 0.17188-0.67188 0-0.28125-0.058594-0.49219-0.17188-0.64062-0.10547-0.15625-0.26172-0.23438-0.46875-0.23438-0.19922 0-0.35547 0.078125-0.46875 0.23438-0.10547 0.14844-0.15625 0.35938-0.15625 0.64062 0 0.29297 0.050781 0.51562 0.15625 0.67188 0.11328 0.14844 0.26953 0.21875 0.46875 0.21875z"/>
  </symbol>
  <symbol id="k" overflow="visible">
   <path d="m2.0469-0.60938c0.20703 0 0.36328-0.070313 0.46875-0.21875 0.11328-0.15625 0.17188-0.37891 0.17188-0.67188 0-0.28125-0.058594-0.49219-0.17188-0.64062-0.10547-0.15625-0.26172-0.23438-0.46875-0.23438-0.19922 0-0.35547 0.078125-0.46875 0.23438-0.10547 0.14844-0.15625 0.35938-0.15625 0.64062 0 0.29297 0.050781 0.51562 0.15625 0.67188 0.11328 0.14844 0.26953 0.21875 0.46875 0.21875zm-0.625-1.9375c0.125-0.17578 0.26562-0.30469 0.42188-0.39062 0.16406-0.082031 0.35156-0.125 0.5625-0.125 0.36328 0 0.66406 0.14844 0.90625 0.4375 0.23828 0.29297 0.35938 0.66797 0.35938 1.125 0 0.46875-0.12109 0.85156-0.35938 1.1406-0.24219 0.29297-0.54297 0.4375-0.90625 0.4375-0.21094 0-0.39844-0.042969-0.5625-0.125-0.15625-0.082031-0.29688-0.21094-0.42188-0.39062v0.4375h-0.96875v-4.1562h0.96875z"/>
  </symbol>
  <symbol id="j" overflow="visible">
   <path d="m0.0625-2.9844h0.95312l0.8125 2.0156 0.6875-2.0156h0.95312l-1.2656 3.2656c-0.125 0.33203-0.27344 0.56641-0.4375 0.70312-0.16797 0.13281-0.39062 0.20312-0.67188 0.20312h-0.54688v-0.64062h0.29688c0.16406 0 0.28516-0.027344 0.35938-0.078125 0.070313-0.054688 0.12891-0.14062 0.17188-0.26562l0.03125-0.09375z"/>
  </symbol>
  <symbol id="i" overflow="visible">
   <path d="m2.9219-0.71875h-1.6094l-0.25 0.71875h-1.0312l1.4688-3.9844h1.2344l1.4688 3.9844h-1.0312zm-1.3594-0.75h1.0938l-0.53125-1.5781z"/>
  </symbol>
  <symbol id="h" overflow="visible">
   <path d="m3.4688-1.8281v1.8281h-0.96875v-1.3906c0-0.25781-0.007812-0.4375-0.015625-0.53125-0.011719-0.10156-0.03125-0.17578-0.0625-0.21875-0.03125-0.0625-0.085937-0.10938-0.15625-0.14062-0.0625-0.039062-0.13281-0.0625-0.20312-0.0625-0.21094 0-0.37109 0.078125-0.48438 0.23438-0.10547 0.15625-0.15625 0.37109-0.15625 0.64062v1.4688h-0.96875v-2.9844h0.96875v0.4375c0.13281-0.17578 0.28516-0.30469 0.45312-0.39062 0.16406-0.082031 0.34375-0.125 0.53125-0.125 0.34375 0 0.60156 0.10938 0.78125 0.32812 0.1875 0.21094 0.28125 0.51172 0.28125 0.90625z"/>
  </symbol>
  <symbol id="v" overflow="visible">
   <path d="m0.45312-2.9844h0.96875v2.9844h-0.96875zm0-1.1719h0.96875v0.78125h-0.96875z"/>
  </symbol>
  <symbol id="u" overflow="visible">
   <path d="m0.03125-3.9844h3.6719v0.78125h-1.3281v3.2031h-1.0312v-3.2031h-1.3125z"/>
  </symbol>
  <symbol id="g" overflow="visible">
   <path d="m3.4688-1.8281v1.8281h-0.96875v-1.3906c0-0.25781-0.007812-0.4375-0.015625-0.53125-0.011719-0.10156-0.03125-0.17578-0.0625-0.21875-0.03125-0.0625-0.085937-0.10938-0.15625-0.14062-0.0625-0.039062-0.13281-0.0625-0.20312-0.0625-0.21094 0-0.37109 0.078125-0.48438 0.23438-0.10547 0.15625-0.15625 0.37109-0.15625 0.64062v1.4688h-0.96875v-4.1562h0.96875v1.6094c0.13281-0.17578 0.28516-0.30469 0.45312-0.39062 0.16406-0.082031 0.34375-0.125 0.53125-0.125 0.34375 0 0.60156 0.10938 0.78125 0.32812 0.1875 0.21094 0.28125 0.51172 0.28125 0.90625z"/>
  </symbol>
  <symbol id="t" overflow="visible">
   <path d="m2.0938-2.4375c0.16406 0 0.28906-0.035156 0.375-0.10938 0.082031-0.070313 0.125-0.17578 0.125-0.3125 0-0.14453-0.042969-0.25-0.125-0.3125-0.085938-0.070313-0.21094-0.10938-0.375-0.10938h-0.5625v0.84375zm0.046875 1.7344c0.19531 0 0.34766-0.039063 0.45312-0.125 0.10156-0.09375 0.15625-0.22266 0.15625-0.39062 0-0.17578-0.054688-0.30469-0.15625-0.39062-0.09375-0.09375-0.24609-0.14062-0.45312-0.14062h-0.60938v1.0469zm0.95312-1.4375c0.21875 0.074219 0.38281 0.19922 0.5 0.375 0.125 0.16797 0.1875 0.375 0.1875 0.625 0 0.38672-0.13281 0.67188-0.39062 0.85938-0.26172 0.1875-0.65625 0.28125-1.1875 0.28125h-1.7031v-3.9844h1.5469c0.55078 0 0.95312 0.085937 1.2031 0.25 0.25 0.16797 0.375 0.43359 0.375 0.79688 0 0.19922-0.046875 0.36719-0.14062 0.5-0.09375 0.13672-0.22656 0.23438-0.39062 0.29688z"/>
  </symbol>
  <symbol id="s" overflow="visible">
   <path d="m0.45312-4.1562h0.96875v4.1562h-0.96875z"/>
  </symbol>
  <symbol id="f" overflow="visible">
   <path d="m0.42188-1.1719v-1.8125h0.96875v0.29688 0.60938 0.48438c0 0.24219 0.003906 0.41797 0.015625 0.53125 0.007812 0.10547 0.03125 0.17969 0.0625 0.21875 0.039062 0.0625 0.09375 0.11719 0.15625 0.15625 0.0625 0.03125 0.13281 0.046875 0.21875 0.046875 0.19531 0 0.35156-0.078125 0.46875-0.23438 0.11328-0.15625 0.17188-0.36719 0.17188-0.64062v-1.4688h0.95312v2.9844h-0.95312v-0.4375c-0.14844 0.17969-0.30469 0.30859-0.46875 0.39062-0.15625 0.082031-0.33594 0.125-0.53125 0.125-0.34375 0-0.60938-0.10156-0.79688-0.3125-0.17969-0.21875-0.26562-0.53125-0.26562-0.9375z"/>
  </symbol>
  <symbol id="r" overflow="visible">
   <path d="m2.4219-4.1562v0.625h-0.51562c-0.13672 0-0.23438 0.027344-0.29688 0.078125-0.054687 0.054687-0.078125 0.13672-0.078125 0.25v0.21875h0.82812v0.67188h-0.82812v2.3125h-0.95312v-2.3125h-0.46875v-0.67188h0.46875v-0.21875c0-0.32031 0.085937-0.5625 0.26562-0.71875 0.1875-0.15625 0.47266-0.23438 0.85938-0.23438z"/>
  </symbol>
  <symbol id="d" overflow="visible">
   <path d="m1.875-2.375c-0.21094 0-0.37109 0.078125-0.48438 0.23438-0.10547 0.14844-0.15625 0.35938-0.15625 0.64062 0 0.29297 0.050781 0.51562 0.15625 0.67188 0.11328 0.14844 0.27344 0.21875 0.48438 0.21875 0.20703 0 0.36719-0.070313 0.48438-0.21875 0.11328-0.15625 0.17188-0.37891 0.17188-0.67188 0-0.28125-0.058594-0.49219-0.17188-0.64062-0.11719-0.15625-0.27734-0.23438-0.48438-0.23438zm0-0.6875c0.51953 0 0.92188 0.14062 1.2031 0.42188 0.28906 0.27344 0.4375 0.65234 0.4375 1.1406 0 0.5-0.14844 0.89062-0.4375 1.1719-0.28125 0.27344-0.68359 0.40625-1.2031 0.40625-0.51172 0-0.91406-0.13281-1.2031-0.40625-0.29297-0.28125-0.4375-0.67188-0.4375-1.1719 0-0.48828 0.14453-0.86719 0.4375-1.1406 0.28906-0.28125 0.69141-0.42188 1.2031-0.42188z"/>
  </symbol>
  <symbol id="q" overflow="visible">
   <path d="m3.2344-2.5c0.11328-0.17578 0.25391-0.3125 0.42188-0.40625 0.16406-0.10156 0.35156-0.15625 0.5625-0.15625 0.33203 0 0.58594 0.10938 0.76562 0.32812 0.1875 0.21094 0.28125 0.51172 0.28125 0.90625v1.8281h-0.96875v-1.5625c0.007813-0.019531 0.015625-0.039062 0.015625-0.0625v-0.10938c0-0.21875-0.03125-0.375-0.09375-0.46875s-0.16406-0.14062-0.29688-0.14062c-0.1875 0-0.33594 0.078125-0.4375 0.23438-0.09375 0.14844-0.14062 0.35938-0.14062 0.64062v1.4688h-0.96875v-1.5625c0-0.33203-0.03125-0.54688-0.09375-0.64062-0.054688-0.09375-0.15234-0.14062-0.29688-0.14062-0.17969 0-0.32031 0.078125-0.42188 0.23438-0.09375 0.14844-0.14062 0.35938-0.14062 0.64062v1.4688h-0.96875v-2.9844h0.96875v0.4375c0.11328-0.17578 0.24219-0.30469 0.39062-0.39062 0.15625-0.082031 0.32812-0.125 0.51562-0.125 0.20703 0 0.39062 0.054688 0.54688 0.15625 0.15625 0.09375 0.27344 0.23047 0.35938 0.40625z"/>
  </symbol>
  <symbol id="p" overflow="visible">
   <path d="m0.5-3.9844h1.1562l1.4375 2.7344v-2.7344h0.98438v3.9844h-1.1562l-1.4375-2.7344v2.7344h-0.98438z"/>
  </symbol>
  <symbol id="o" overflow="visible">
   <path d="m0.5-3.9844h1.7031c0.50781 0 0.89844 0.11719 1.1719 0.34375 0.26953 0.21875 0.40625 0.53906 0.40625 0.95312 0 0.41797-0.13672 0.74219-0.40625 0.96875-0.27344 0.21875-0.66406 0.32812-1.1719 0.32812h-0.67188v1.3906h-1.0312zm1.0312 0.75v1.1094h0.5625c0.19531 0 0.34766-0.046875 0.45312-0.14062 0.11328-0.10156 0.17188-0.24219 0.17188-0.42188 0-0.17578-0.058594-0.3125-0.17188-0.40625-0.10547-0.09375-0.25781-0.14062-0.45312-0.14062z"/>
  </symbol>
  <symbol id="n" overflow="visible">
   <path d="m0.45312-2.9844h0.96875v2.9375c0 0.39453-0.10156 0.69531-0.29688 0.90625-0.1875 0.21875-0.46484 0.32812-0.82812 0.32812h-0.48438v-0.64062h0.17188c0.17578 0 0.29688-0.042969 0.35938-0.125 0.070312-0.074219 0.10938-0.23047 0.10938-0.46875zm0-1.1719h0.96875v0.78125h-0.96875z"/>
  </symbol>
  <symbol id="m" overflow="visible">
   <path d="m2.875-2.8906v0.76562c-0.125-0.082031-0.25781-0.14453-0.39062-0.1875-0.13672-0.039062-0.27344-0.0625-0.40625-0.0625-0.27344 0-0.48047 0.078125-0.625 0.23438-0.14844 0.15625-0.21875 0.37109-0.21875 0.64062 0 0.28125 0.070313 0.5 0.21875 0.65625 0.14453 0.15625 0.35156 0.23438 0.625 0.23438 0.14453 0 0.28516-0.019531 0.42188-0.0625 0.13281-0.039063 0.25781-0.10938 0.375-0.20312v0.78125c-0.14844 0.0625-0.29688 0.10156-0.45312 0.125-0.15625 0.03125-0.3125 0.046875-0.46875 0.046875-0.54297 0-0.96484-0.13281-1.2656-0.40625-0.30469-0.28125-0.45312-0.67188-0.45312-1.1719 0-0.48828 0.14844-0.86719 0.45312-1.1406 0.30078-0.28125 0.72266-0.42188 1.2656-0.42188 0.15625 0 0.3125 0.015625 0.46875 0.046875 0.15625 0.023437 0.30469 0.0625 0.45312 0.125z"/>
  </symbol>
 </defs>
 <g>
  <path d="m619.41 452.63c6.2461-9.1172 9.4961-20.137 9.4961-32.629v-12.086c0-11.555-3.0664-22.934-8.8633-32.895l-6.6094-11.391c-2.1992-3.7812-3.3594-8.0977-3.3594-12.48v-22.336c0.28125-9.0352-10.09-15.582-18.129-11.461l-8.4883 4.0273c-14.551 6.9023-22.527 22.754-19.395 38.555l1.1602 5.8672c0.8125 4.0117-5.5547 6.4883-6.8281 1.9102l-2.0234-7.8008c-2.8672-11.043-10.957-20.031-21.637-24.039l-7.1875-2.6992c-9.2773-3.8516-19.656 5.5898-16.715 15.199l3.1602 11.629c1.832 6.7305-0.20313 13.859-5.3086 18.609l-9.2031 8.5664c-7.4141 6.9102-11.668 16.68-11.668 26.805v6.0156c0 12.305 3.1797 23.207 9.2734 32.266h-26.77v-133.21l2.2852 1.9141c4.4219 3.7031 10.027 5.7383 15.789 5.7383 7.3125 0 14.191-3.2148 18.879-8.8164 4.2188-5.043 6.2227-11.422 5.6445-17.973-0.58203-6.5469-3.6758-12.477-8.7188-16.695l-25.164-21.062 15.934-19.316c11.391-13.812 17.664-31.277 17.664-49.18 0-17.645-6.1133-34.914-17.215-48.629l-9.9805-12.332c-2.25-2.7773-5.8398-4.1602-9.3672-3.5938-3.5312 0.5625-6.5156 2.9844-7.7891 6.3203l-8.4766 22.172c-3.3086 9.1719-17.641 3.832-14.203-5.2656l2.6719-7.4297c7.5625-21.02 3.9766-44.164-9.5859-61.914l-4.9727-6.5039c-5.0586-7.1172-17.168-3.8164-17.922 4.8789l-1.0977 9.0352c-1.2266 10.094-4.875 19.891-10.559 28.324-3.7344 5.543-6.0938 11.801-6.9492 18.355-6.7422-8.4102-10.402-18.781-10.402-29.711v-28.488c0.29688-8.6875-10.578-14.195-17.406-8.8203l-4.5469 3.332c-11.809 8.6562-21.223 20.293-27.23 33.645-4.3633 9.707-6.8125 19.992-7.3359 30.594l-15.414-12.902c-5.4648-4.5742-11.949-7.2539-18.613-8.0469l-0.19922-7.1367c-0.37109-13.223-3.3086-26.047-8.7344-38.109-7.0547-15.691-18.117-29.359-31.992-39.535l-5.4297-3.9805c-7.1641-5.6328-18.559 0.14453-18.25 9.25v34.004c0 14.699-5.3906 28.57-15.238 39.352-0.49219-8.9102-3.3633-17.469-8.3789-24.906-6.9219-10.277-11.371-22.207-12.863-34.504l-1.3086-10.781c-0.77734-9.0078-13.32-12.422-18.551-5.0508l-5.9336 7.7656c-15.863 20.754-20.055 47.82-11.211 72.402l3.1914 8.8672c4.8242 12.781-15.293 20.258-19.934 7.3945l-10.117-26.469c-2.5469-7.3203-13.074-8.9961-17.766-2.8242l-11.914 14.719c-13.023 16.09-20.195 36.348-20.195 57.047 0 21.004 7.3594 41.492 20.723 57.695l15.957 19.348-38.219 31.992c-5.0391 4.2188-8.1367 10.148-8.7188 16.695-0.58203 6.5469 1.4219 12.93 5.6406 17.969 4.668 5.6133 11.617 8.832 18.914 8.8164 5.7578 0 11.281-2 15.754-5.7383l2.2852-1.9141v70.324c0 4.5312 3.6719 8.2031 8.2031 8.2031s8.2031-3.6719 8.2031-8.2031v-84.059l161.88-135.5 161.88 135.5v114.14h-200.16v-76.016c0-7.5391-6.1328-13.672-13.672-13.672h-63.438c-7.5391 0-13.672 6.1328-13.672 13.672v76.016h-41.016c-4.5312 0-8.2031 3.6719-8.2031 8.2031v24.609h-30.078c-7.5391 0-13.672 6.1328-13.672 13.672v54.688c0 7.5391 6.1328 13.672 13.672 13.672h532.66c7.5391 0 13.672-6.1328 13.672-13.672v-54.688c0-6.4766-4.5312-11.906-10.59-13.309zm-272.84-312.8c0.26953-9.0391 2.2852-17.805 5.9922-26.055 4.1172-9.1562 10.223-17.312 17.812-23.84v17.445c0 17.102 6.6602 33.18 18.754 45.27 4.0508 4.0508 10.09 5.2539 15.383 3.0586 5.293-2.1914 8.7148-7.3125 8.7148-13.043 0-5.2812 1.5586-10.383 4.5078-14.762 5.8047-8.6133 9.918-18.355 12.074-28.512 6.6289 12.191 7.8125 26.652 3.0195 39.977l-2.6719 7.4297c-3.1484 8.7539-0.91016 18.633 5.707 25.176 5.7852 5.7148 13.984 8.1016 21.93 6.3828 7.9492-1.7188 14.426-7.2812 17.328-14.879l4.5234-11.832 3.0156 3.7227c8.7461 10.805 13.559 24.41 13.559 38.309 0 14.105-4.9414 27.863-13.914 38.742l-15.855 19.227-119.88-100.35zm-231.78 81.625c-10.945-13.27-16.973-30.055-16.973-47.254 0-16.953 5.875-33.547 16.539-46.727l5.332-6.5898 6.3828 16.703c3.2734 8.5625 10.578 14.832 19.539 16.773 8.9609 1.9375 18.203-0.75 24.723-7.1953 7.457-7.3711 9.9844-18.512 6.4336-28.379l-3.1914-8.8711c-6.3672-17.699-4.1328-37.035 5.875-52.695 2.2305 13.402 7.3594 26.316 14.953 37.586 3.6992 5.4922 5.6523 11.891 5.6523 18.512 0 6.1953 3.6992 11.73 9.4219 14.102 5.7227 2.3711 12.254 1.0742 16.633-3.3086 14.133-14.133 21.918-32.926 21.918-52.914v-24.195c10.457 8.2734 18.824 19 24.301 31.18 4.5312 10.078 6.9883 20.793 7.2969 31.84l0.23828 8.5703c-3.7969 1.3828-7.4102 3.4297-10.66 6.1523l-138.54 115.97zm177.24-69.867c-2.3672 0-4.7383 0.80859-6.668 2.4258l-184.43 154.38c-3.3203 2.9023-8.7969 2.4141-11.555-1.0273-2.9023-3.4688-2.4453-8.6523 1.0273-11.555l189.34-158.49c7.1211-5.957 17.453-5.957 24.57 0l189.34 158.49c3.4688 2.9023 3.9297 8.0859 1.0234 11.555-3.0508 3.3398-7.4961 4.1367-11.555 1.0273l-184.43-154.38c-1.9336-1.6211-4.3008-2.4297-6.6719-2.4297zm227.2 300.49c-9.9609-7.5391-15.012-18.328-15.012-32.07v-6.0156c0-5.5898 2.3477-10.984 6.4414-14.801l9.1953-8.5586c9.582-8.9102 13.402-22.293 9.9648-34.926l-1.2539-4.6133 0.39844 0.15234c5.6875 2.1328 9.9961 6.918 11.523 12.797l2.0273 7.8047c1.707 6.5508 6.5703 11.711 13.012 13.797 6.4414 2.0898 13.41 0.76562 18.691-3.5859l0.14062-0.11719c5.7266-4.6953 8.3906-12.102 6.957-19.316l-1.1602-5.8789c-1.668-8.4141 2.582-16.859 10.332-20.535l3.1797-1.5078v16.449c0 7.2773 1.9297 14.441 5.582 20.719l6.6133 11.395c4.3438 7.4648 6.6406 15.988 6.6406 24.652v12.086c0 13.879-5.1562 24.723-15.301 32.266h-77.695c-0.089843-0.066407-0.17969-0.12891-0.26953-0.19922zm-65.324-16.211v16.406h-200.16v-16.406zm-216.56-89.688v106.09h-57.969v-106.09zm-107.19 89.688h32.812v16.406h-32.812zm-43.75 82.031v-16.406h375.51c4.5312 0 8.2031-3.6719 8.2031-8.2031s-3.6719-8.2031-8.2031-8.2031h-375.51v-16.406h527.19v16.406h-113.39c-4.5312 0-8.2031 3.6719-8.2031 8.2031s3.6719 8.2031 8.2031 8.2031h113.39v16.406z"/>
  <path d="m270.16 343.44v45.938c0 7.5391 6.1328 13.672 13.672 13.672h140c7.5391 0 13.672-6.1328 13.672-13.672v-45.938c0-7.5391-6.1328-13.672-13.672-13.672h-140c-7.5391 0-13.672 6.1328-13.672 13.672zm65.625 43.203v-40.469h36.094v40.469zm85.312 0h-32.812v-40.469h32.812zm-134.53-40.469h32.812v40.469h-32.812z"/>
  <path d="m203.98 419.45c4.5312 0 8.2031-3.6719 8.2031-8.2031v-10.938c0-4.5312-3.6719-8.2031-8.2031-8.2031s-8.2031 3.6719-8.2031 8.2031v10.938c0 4.5312 3.6719 8.2031 8.2031 8.2031z"/>
  <path d="m292.03 214.92c-22.617 0-41.016 18.398-41.016 41.016s18.398 41.016 41.016 41.016 41.016-18.398 41.016-41.016-18.398-41.016-41.016-41.016zm0 65.625c-13.57 0-24.609-11.039-24.609-24.609s11.039-24.609 24.609-24.609 24.609 11.039 24.609 24.609-11.039 24.609-24.609 24.609z"/>
  <use x="70" y="576.40625" xlink:href="#w"/>
  <use x="74.011719" y="576.40625" xlink:href="#b"/>
  <use x="76.710938" y="576.40625" xlink:href="#a"/>
  <use x="80.417969" y="576.40625" xlink:href="#l"/>
  <use x="84.109375" y="576.40625" xlink:href="#c"/>
  <use x="86.722656" y="576.40625" xlink:href="#a"/>
  <use x="90.433594" y="576.40625" xlink:href="#e"/>
  <use x="96.25" y="576.40625" xlink:href="#k"/>
  <use x="100.167969" y="576.40625" xlink:href="#j"/>
  <use x="105.636719" y="576.40625" xlink:href="#i"/>
  <use x="109.867188" y="576.40625" xlink:href="#h"/>
  <use x="113.761719" y="576.40625" xlink:href="#e"/>
  <use x="117.675781" y="576.40625" xlink:href="#b"/>
  <use x="120.371094" y="576.40625" xlink:href="#v"/>
  <use x="124.152344" y="576.40625" xlink:href="#u"/>
  <use x="127.882812" y="576.40625" xlink:href="#g"/>
  <use x="131.773438" y="576.40625" xlink:href="#a"/>
  <use x="137.386719" y="576.40625" xlink:href="#t"/>
  <use x="141.554688" y="576.40625" xlink:href="#s"/>
  <use x="143.429688" y="576.40625" xlink:href="#f"/>
  <use x="147.324219" y="576.40625" xlink:href="#a"/>
  <use x="70" y="581.875" xlink:href="#r"/>
  <use x="72.378906" y="581.875" xlink:href="#b"/>
  <use x="75.078125" y="581.875" xlink:href="#d"/>
  <use x="78.832031" y="581.875" xlink:href="#q"/>
  <use x="86.4375" y="581.875" xlink:href="#c"/>
  <use x="89.050781" y="581.875" xlink:href="#g"/>
  <use x="92.941406" y="581.875" xlink:href="#a"/>
  <use x="98.554688" y="581.875" xlink:href="#p"/>
  <use x="103.132812" y="581.875" xlink:href="#d"/>
  <use x="106.890625" y="581.875" xlink:href="#f"/>
  <use x="110.785156" y="581.875" xlink:href="#h"/>
  <use x="116.582031" y="581.875" xlink:href="#o"/>
  <use x="120.589844" y="581.875" xlink:href="#b"/>
  <use x="123.285156" y="581.875" xlink:href="#d"/>
  <use x="127.042969" y="581.875" xlink:href="#n"/>
  <use x="128.917969" y="581.875" xlink:href="#a"/>
  <use x="132.625" y="581.875" xlink:href="#m"/>
  <use x="135.867188" y="581.875" xlink:href="#c"/>
 </g>
</svg>
