<?xml version="1.0" encoding="UTF-8"?>
<svg width="700pt" height="700pt" version="1.1" viewBox="0 0 700 700" xmlns="http://www.w3.org/2000/svg" xmlns:xlink="http://www.w3.org/1999/xlink">
 <defs>
  <symbol id="g" overflow="visible">
   <path d="m39.078-2.3281c-2.0117 1.043-4.1094 1.8281-6.2969 2.3594s-4.4648 0.79688-6.8281 0.79688c-7.0859 0-12.699-1.9766-16.844-5.9375-4.1367-3.957-6.2031-9.3281-6.2031-16.109 0-6.7891 2.0664-12.164 6.2031-16.125 4.1445-3.9688 9.7578-5.9531 16.844-5.9531 2.3633 0 4.6406 0.26562 6.8281 0.79688s4.2852 1.3242 6.2969 2.375v8.7969c-2.0312-1.3828-4.0391-2.3984-6.0156-3.0469-1.9688-0.64453-4.0469-0.96875-6.2344-0.96875-3.9062 0-6.9844 1.2578-9.2344 3.7656-2.2422 2.5-3.3594 5.9531-3.3594 10.359 0 4.3867 1.1172 7.8359 3.3594 10.344 2.25 2.5 5.3281 3.75 9.2344 3.75 2.1875 0 4.2656-0.32031 6.2344-0.96875 1.9766-0.64453 3.9844-1.6602 6.0156-3.0469z"/>
  </symbol>
  <symbol id="f" overflow="visible">
   <path d="m16.031-40.953v9.0625h10.516v7.2812h-10.516v13.531c0 1.4805 0.28906 2.4805 0.875 3 0.59375 0.52344 1.7656 0.78125 3.5156 0.78125h5.2344v7.2969h-8.7344c-4.0312 0-6.8867-0.83594-8.5625-2.5156-1.6797-1.6875-2.5156-4.5391-2.5156-8.5625v-13.531h-5.0781v-7.2812h5.0781v-9.0625z"/>
  </symbol>
  <symbol id="e" overflow="visible">
   <path d="m26.594-27.234v-17.078h10.266v44.312h-10.266v-4.6094c-1.3984 1.875-2.9453 3.25-4.6406 4.125-1.6875 0.875-3.6406 1.3125-5.8594 1.3125-3.9297 0-7.1562-1.5625-9.6875-4.6875-2.5234-3.125-3.7812-7.1445-3.7812-12.062 0-4.9141 1.2578-8.9375 3.7812-12.062 2.5312-3.125 5.7578-4.6875 9.6875-4.6875 2.1953 0 4.1445 0.44531 5.8438 1.3281 1.707 0.88672 3.2578 2.2578 4.6562 4.1094zm-6.7188 20.656c2.1875 0 3.8516-0.79688 5-2.3906 1.1445-1.5938 1.7188-3.9102 1.7188-6.9531 0-3.0391-0.57422-5.3594-1.7188-6.9531-1.1484-1.5938-2.8125-2.3906-5-2.3906-2.168 0-3.8242 0.79688-4.9688 2.3906-1.1484 1.5938-1.7188 3.9141-1.7188 6.9531 0 3.043 0.57031 5.3594 1.7188 6.9531 1.1445 1.5938 2.8008 2.3906 4.9688 2.3906z"/>
  </symbol>
  <symbol id="d" overflow="visible">
   <path d="m21.875-6.5781c2.1758 0 3.8359-0.79688 4.9844-2.3906 1.1562-1.5938 1.7344-3.9102 1.7344-6.9531 0-3.0391-0.57812-5.3594-1.7344-6.9531-1.1484-1.5938-2.8086-2.3906-4.9844-2.3906-2.1875 0-3.8672 0.80469-5.0312 2.4062-1.168 1.6055-1.75 3.918-1.75 6.9375 0 3.0234 0.58203 5.3359 1.75 6.9375 1.1641 1.6055 2.8438 2.4062 5.0312 2.4062zm-6.7812-20.656c1.4062-1.8516 2.9609-3.2227 4.6719-4.1094 1.707-0.88281 3.6719-1.3281 5.8906-1.3281 3.9375 0 7.1641 1.5625 9.6875 4.6875 2.5195 3.125 3.7812 7.1484 3.7812 12.062 0 4.918-1.2617 8.9375-3.7812 12.062-2.5234 3.125-5.75 4.6875-9.6875 4.6875-2.2188 0-4.1836-0.44531-5.8906-1.3281-1.7109-0.88281-3.2656-2.2539-4.6719-4.1094v4.6094h-10.188v-44.312h10.188z"/>
  </symbol>
  <symbol id="c" overflow="visible">
   <path d="m0.28125-42.516h39.188v8.2812h-14.094v34.234h-10.969v-34.234h-14.125z"/>
  </symbol>
  <symbol id="b" overflow="visible">
   <path d="m36.969-19.422v19.422h-10.25v-14.812c0-2.7891-0.0625-4.707-0.1875-5.75-0.125-1.0391-0.33984-1.8125-0.64062-2.3125-0.39844-0.65625-0.9375-1.1719-1.625-1.5469s-1.4648-0.5625-2.3281-0.5625c-2.1367 0-3.8125 0.82422-5.0312 2.4688-1.2109 1.6484-1.8125 3.9219-1.8125 6.8281v15.688h-10.188v-44.312h10.188v17.078c1.5391-1.8516 3.1719-3.2227 4.8906-4.1094 1.7266-0.88281 3.6406-1.3281 5.7344-1.3281 3.6875 0 6.4844 1.1328 8.3906 3.3906 1.9062 2.2617 2.8594 5.5469 2.8594 9.8594z"/>
  </symbol>
  <symbol id="a" overflow="visible">
   <path d="m5.3594-42.516h10.953v42.516h-10.953z"/>
  </symbol>
 </defs>
 <g>
  <path d="m583.74 425.61c2.6172 0.003907 4.9141-1.7344 5.625-4.2539 0.70703-2.5195-0.34766-5.2031-2.582-6.5625-10.18-8.6602-18.586-19.211-24.754-31.07h14.594c2.6367-0.003906 4.9453-1.7773 5.625-4.3281 0.67969-2.5469-0.43359-5.2344-2.7188-6.5547-11.363-7.6797-20.836-17.84-27.699-29.715h5.6836c2.3594 0 4.4883-1.4258 5.3906-3.6055 0.89844-2.1797 0.39844-4.6914-1.2734-6.3594-9.4375-9.5273-16.855-20.863-21.805-33.332h5.5312c2.3867 0.007813 4.5352-1.4453 5.4258-3.6602s0.33984-4.75-1.3906-6.3945c-10.945-12.379-19.754-26.488-26.074-41.754-0.90234-2.1836-3.0312-3.6055-5.3906-3.6055-2.3633 0.007812-4.4844 1.4414-5.3789 3.6289-6.2656 15.277-15.074 29.391-26.051 41.73-1.7344 1.6406-2.293 4.1758-1.4062 6.3945 0.88281 2.2188 3.0312 3.6758 5.418 3.6719h5.6484c-3.1758 8.0273-7.3672 15.617-12.473 22.578-10.059-39.363-20.395-62.906-35.746-62.906-18.34 0-29.539 33.543-41.637 87.641l-0.69922 3.125c-4.3398 19.309-2.9883 33.016 4.1289 41.918 8.5391 8.5625 20.367 13 32.434 12.168v46.27h-101.04v-48.371h59.934c2.6211 0.007813 4.9258-1.7344 5.6328-4.2578 0.70703-2.5273-0.35547-5.2109-2.6016-6.5664-10.184-8.6094-18.598-19.117-24.77-30.941h14.609c2.6406 0 4.9492-1.7734 5.6328-4.3242 0.68359-2.5508-0.42969-5.2422-2.7188-6.5625-11.352-7.707-20.832-17.871-27.73-29.738h5.6367c2.3633 0.007812 4.4922-1.4141 5.3984-3.5977 0.90234-2.1836 0.40234-4.6953-1.2695-6.3633-9.418-9.5664-16.82-20.93-21.758-33.414h5.6016-0.003907c2.3867-0.003906 4.5312-1.4609 5.4141-3.6797 0.87891-2.2148 0.32031-4.7461-1.4102-6.3867-10.992-12.336-19.809-26.453-26.062-41.746-1.0391-2.0273-3.125-3.3047-5.4023-3.3047s-4.3633 1.2773-5.4023 3.3047c-6.2461 15.273-15.043 29.375-26.016 41.699-1.7344 1.6406-2.293 4.1719-1.4102 6.3867 0.88281 2.2188 3.0234 3.6758 5.4102 3.6797h5.5781c-4.9375 12.484-12.34 23.848-21.758 33.414-1.6719 1.668-2.1758 4.1758-1.2734 6.3594 0.90234 2.1797 3.0312 3.6016 5.3906 3.6016h5.6602-0.003906c-6.9062 11.863-16.379 22.023-27.73 29.738-2.2852 1.3203-3.3984 4.0117-2.7188 6.5625 0.68359 2.5508 2.9961 4.3242 5.6367 4.3242h14.605c-6.1641 11.84-14.578 22.363-24.77 30.988-2.2422 1.3516-3.3047 4.0352-2.6016 6.5586s3.0039 4.2695 5.625 4.2656h59.977v48.371h-99.094v-90.707c13.297 0.99219 26.367-3.832 35.828-13.23 7.7461-9.6719 9.2031-24.629 4.4805-45.758l-0.93359-4.1523c-10.898-48.359-23.332-95.574-45.254-95.574-15.027 0-26.684 20.707-39.223 70.441l-0.003906 0.003906c-3.25-5.8242-9.1953-9.6406-15.844-10.176-18.34 0-29.527 33.543-41.625 87.652l-0.71094 3.1016c-4.3398 19.309-2.9766 33.016 4.1406 41.918v0.003906c8.5117 8.5547 20.32 12.996 32.363 12.168v44.332h-47.332c-3.2227 0-5.832 2.6133-5.832 5.832 0 3.2227 2.6094 5.8359 5.832 5.8359h466.67c3.2227 0 5.832-2.6133 5.832-5.8359 0-3.2188-2.6094-5.832-5.832-5.832h-59.094v-25.047zm-277.36-68.32c0.92969-1.8125 0.85156-3.9766-0.20703-5.7109-1.0625-1.7383-2.9492-2.7969-4.9844-2.7969h-7.6758c9.2852-9.5352 17.129-20.379 23.273-32.188 0.90234-1.8047 0.80078-3.9492-0.25781-5.668-1.0625-1.7188-2.9375-2.7656-4.957-2.7656h-2.8359c8.4414-10.754 14.727-23.031 18.516-36.168 0.42578-1.7383 0.027344-3.582-1.0781-4.9883-1.1055-1.4102-2.8008-2.2344-4.5938-2.2344h-0.83984c5.543-7.5508 10.414-15.574 14.562-23.973 4.1484 8.418 9.0195 16.457 14.559 24.031h-0.85156c-1.7891 0.003907-3.4805 0.82812-4.582 2.2383-1.1055 1.4062-1.5 3.2461-1.0742 4.9844 3.7734 13.141 10.062 25.422 18.512 36.168h-2.8359 0.003906c-2.0195 0-3.8945 1.0469-4.957 2.7656-1.0625 1.7148-1.1602 3.8594-0.25781 5.668 6.1445 11.805 13.984 22.645 23.273 32.176h-7.6758c-2.0352 0.003907-3.918 1.0625-4.9766 2.8008-1.0586 1.7344-1.1367 3.8984-0.20312 5.707 6.1016 11.824 13.414 22.984 21.816 33.309h-101.5c8.4023-10.34 15.719-21.516 21.828-33.355zm202.49-66.887h-0.003907c-1.1016-1.4023-2.7852-2.2227-4.5703-2.2266h-0.93359c5.5703-7.5781 10.473-15.629 14.641-24.059 4.1641 8.4102 9.0312 16.457 14.547 24.047h-0.83984c-1.7891 0-3.4805 0.82422-4.582 2.2344-1.1055 1.4102-1.5 3.2461-1.0742 4.9844 3.7734 13.109 10.062 25.355 18.516 36.062h-2.8359c-2.0195 0.003906-3.8945 1.0508-4.957 2.7656-1.0625 1.7188-1.1602 3.8633-0.25781 5.6719 6.1133 11.805 13.938 22.641 23.215 32.164h-7.6055c-2.0352 0-3.918 1.0625-4.9766 2.7969-1.0586 1.7383-1.1328 3.8984-0.20313 5.707 6.1016 11.848 13.414 23.035 21.816 33.379h-101.5c4.0312-4.8203 7.7656-9.8867 11.176-15.168 2.9766-1.6602 5.6055-3.8789 7.7461-6.5312 7.0547-11.414 8.7852-25.332 4.75-38.129 3.1328-4.5391 5.9922-9.2656 8.5625-14.152 0.90625-1.8047 0.8125-3.9531-0.25-5.6758s-2.9414-2.7695-4.9648-2.7695h-2.7773c8.4297-10.719 14.703-22.969 18.48-36.074 0.42578-1.7578 0.015625-3.6172-1.1211-5.0273zm-55.035 113.96c2.2148-0.09375 4.4219-0.26953 6.6133-0.5l0.003907-0.003907c-2.0273 2.5938-4.2383 5.0352-6.6172 7.3047zm-35-19.461c-4.668-5.832-5.3203-16.66-1.8555-32.07l0.69922-3.125c14.523-64.902 24.5-78.527 30.25-78.527s15.727 13.625 30.25 78.527l0.69922 3.125c3.5 15.41 2.8477 26.191-1.8438 32.07h0.007812c-6.293 5.7969-14.762 8.6289-23.277 7.7812v-16.918l10.348-10.348h0.003906c1.125-1.0859 1.7656-2.5781 1.7773-4.1445 0.015625-1.5625-0.60156-3.0664-1.707-4.1758-1.1055-1.1055-2.6094-1.7227-4.1758-1.707-1.5625 0.011719-3.0586 0.65625-4.1445 1.7812l-2.1016 2.1016v-31.734c0-3.2227-2.6094-5.8359-5.832-5.8359-3.2227 0-5.832 2.6133-5.832 5.8359v13.125c-2.3867-1.7344-5.6914-1.4141-7.7031 0.74609-2.0078 2.1602-2.0859 5.4805-0.18359 7.7344l7.8867 7.8867v35.652c-8.5117 0.84766-16.977-1.9844-23.266-7.7812zm-194.34-172.02c9.5547 0 21 29.098 33.832 86.473l0.94531 4.1523c3.8516 17.184 3.1016 29.262-2.2031 35.887-7.2188 6.6602-16.961 9.8828-26.727 8.8438v-23.836l10.348-10.359c2.2109-2.2891 2.1797-5.9258-0.070313-8.1758s-5.8906-2.2812-8.1797-0.070313l-2.1016 2.1016v-31.734l0.003907-0.003906c0-3.2188-2.6133-5.832-5.8359-5.832-3.2188 0-5.832 2.6133-5.832 5.832v13.172c-2.3867-1.7578-5.7109-1.4453-7.7266 0.72266-2.0195 2.168-2.0938 5.5039-0.17188 7.7617l7.8984 7.8984v42.512c-2.918-0.12891-5.6133-0.35156-8.0156-0.67578-4.1289-20.508-9.8789-40.652-17.195-60.246 15.656-67.062 26.914-74.422 31.031-74.422zm-84.16 173.98c-4.668-5.832-5.3203-16.66-1.8438-32.059l0.69922-3.125c14.512-64.902 24.5-78.527 30.238-78.527s15.738 13.625 30.25 78.527l0.47656 2.1484v0.25781l0.16406 0.72266c3.5 15.398 2.8477 26.191-1.8438 32.059l0.003906-0.003906c-6.2891 5.8008-14.762 8.6328-23.273 7.7812v-35.652l7.9688-7.8281c2.2773-2.2773 2.2773-5.9727 0-8.25-2.1719-2.1211-5.6055-2.2227-7.8984-0.23438v-13.184c0-3.2188-2.6133-5.832-5.8359-5.832-3.2188 0-5.832 2.6133-5.832 5.832v31.746l-2.1016-2.1133v0.003907c-1.0859-1.1289-2.5781-1.7695-4.1445-1.7812-1.5625-0.015625-3.0664 0.60156-4.1758 1.707-1.1055 1.1055-1.7188 2.6094-1.707 4.1758 0.011719 1.5664 0.65625 3.0586 1.7812 4.1445l10.348 10.359v16.906c-8.5156 0.85156-16.984-1.9805-23.273-7.7812zm34.93 19.461c12.055 0.83594 23.883-3.6055 32.41-12.168 6.5391-10.285 8.4688-22.844 5.3203-34.617 1.75 0.15234 3.8047 0.21094 5.75 0.28125v90.812h-43.48zm336.9 44.332h-58.332l-0.003907-25.047h58.332zm-400.98-160.01c-0.039063-1.5508 0.54297-3.0508 1.6133-4.1719 1.0703-1.1211 2.543-1.7695 4.0898-1.8008 9.0195-0.22266 15.285-11.188 15.926-21.234 0.17188-6.2812-0.28906-12.562-1.375-18.75-1.0195-6.1406-1.5469-12.355-1.5742-18.582-0.49219-7.6641 1.6641-15.258 6.0977-21.523 4.4336-6.2656 10.883-10.82 18.273-12.906 2.5977-0.40234 5.1445 0.98828 6.2148 3.3867 1.0703 2.4023 0.40234 5.2266-1.6289 6.8906-0.91797 1.0352-1.2188 2.4766-0.79688 3.793 0.42969 2.3281 2.0508 4.2578 4.2734 5.0742 5.5664 0.46094 10.762-2.8359 12.715-8.0742 2.2344-6.6953 2.3516-13.918 0.33984-20.684-0.46484-2.1133-0.98047-4.2227-1.5039-6.3242h-0.003907c-1.7344-6.1562-2.8125-12.48-3.2188-18.863-0.83203-10.266 3.4609-20.277 11.469-26.754 2.1445-1.5352 5.0547-1.4414 7.0938 0.23047 2.0391 1.6719 2.707 4.5039 1.6211 6.9102-0.71484 2.0469-0.4375 4.3086 0.74609 6.125 1.3242 2.3789 3.6797 4.0078 6.3711 4.4102 5.8164-0.24219 10.648-4.5703 11.527-10.324 0.19922-3.2188-0.49219-6.4258-1.9961-9.2773-1.5078-2.8477-3.7734-5.2266-6.5469-6.8711-2.1172-1.3164-3.1641-3.8398-2.5977-6.2695 0.5625-2.4336 2.6133-4.2344 5.0977-4.4844 9.0859-0.58203 18.012 2.5938 24.691 8.7773 6.6836 6.1875 10.535 14.844 10.656 23.945-0.30859 5.0195-1.2734 9.9805-2.8711 14.746-0.71094 2.4258-1.4102 4.8633-1.8906 7.3281h0.003906c-1.5 4.8398-0.30859 10.109 3.125 13.836 4.4219 2.0039 9.6367 0.87891 12.832-2.7773 4.1406-5.0898 7.1016-11.035 8.668-17.406 0.62891-1.8867 2.1719-3.3242 4.0977-3.8125 1.9219-0.50781 3.9648 0.015625 5.4141 1.375 10.062 9.6172 14.648 23.629 12.227 37.332-1.0664 4.8555-2.6094 9.5938-4.6094 14.141-1.6758 3.7852-2.9922 7.7188-3.9336 11.75-1.2383 6.3477 1.168 14.293 6.125 15.398 1.8438 0.375 3.7539-0.074219 5.2383-1.2227 4.1758-3.5 6.8555-8.4648 7.4922-13.875 0.38672-2.918 0.52344-5.9141 0.67578-8.9023v0.003906c-0.32031-8.4609 1.6172-16.852 5.6133-24.316 4.9102-6.625 11.406-11.922 18.887-15.398 5.832-2.582 10.844-6.7109 14.5-11.934 1.2852-2.4727 1.5508-5.3516 0.73828-8.0156-0.35547-1.3555-1.2695-2.4922-2.5117-3.1406-2.3125-1.082-3.6523-3.543-3.3008-6.0742 0.34766-2.5312 2.3008-4.543 4.8203-4.9609 6.0469-0.79297 12.121 1.2422 16.473 5.5195 5.7461 4.9688 8.9922 12.234 8.8555 19.832-0.65625 5.5898-2.3594 11.008-5.0156 15.973-1.9961 3.668-3.3438 7.6562-3.9805 11.781-0.23438 4.3281 1.3477 8.5547 4.3633 11.668 1.0898 1.2109 2.7188 1.7852 4.3281 1.5273 7-1.168 7.1758-15.867 7.1406-18.809v0.003906c-0.035156-2.6289 1.6953-4.957 4.2227-5.6836 2.5312-0.69922 5.2188 0.35547 6.5938 2.5898 8.4609 10.648 11.93 24.426 9.5195 37.812-1.0234 2.9727-2.3398 5.832-3.9336 8.5391-1.4023 2.3008-2.5 4.7773-3.2656 7.3633-0.72656 4.0703 0.65625 8.2344 3.6758 11.059 3.7734 4.1172 9.3086 6.1562 14.852 5.4727 5.332-1.5195 10.055-4.668 13.508-9.0039 3.457-4.3359 5.4727-9.6445 5.7656-15.18 0.26562-4.6719 0.12109-9.3555-0.43359-14-0.80469-6.2852-0.82812-12.645-0.070312-18.938 1.3906-8.5625 6.3594-16.133 13.664-20.812 4.8164-3.0508 10.758-3.7578 16.156-1.9258 1.8125 0.63672 3.1914 2.1172 3.6992 3.9688 0.50391 1.8477 0.070313 3.8281-1.168 5.2969-1.4844 1.9766-2.1016 4.4766-1.7031 6.9219 0.39844 2.4414 1.7773 4.6172 3.8164 6.0234 2.0352 1.4023 4.5586 1.9141 6.9844 1.4141 2.4258-0.49609 4.543-1.9648 5.8594-4.0586 2.0703-5.4922 1.6914-11.605-1.0391-16.801l-1.4336-3.7109c-2.9492-6.2773-4.5391-13.105-4.668-20.043 0.32813-6.1914 3.1562-11.988 7.8398-16.051 3.4453-3 8-4.3945 12.531-3.8398 2.5078 0.33594 4.5117 2.25 4.9609 4.7383 0.45312 2.4883-0.75 4.9844-2.9766 6.1797-0.63281 1.793-0.25781 3.7891 0.98047 5.2305 3.3594 2.4609 7.2891 4.0352 11.422 4.5703l1.2617 0.30469h-0.003906c7.1641 1.0352 13.617 4.8867 17.934 10.699 2.0547 4.0586 2.9375 8.6094 2.5547 13.141-0.38672 4.5352-2.0273 8.8711-4.7383 12.523-1.168 1.8438-2.332 3.6289-3.5703 5.4141-2.5859 3.3281-4.6055 7.0547-5.9844 11.039-0.64844 2.5703-0.27734 5.293 1.0391 7.5938 0.46875 0.91406 1.3281 1.5625 2.332 1.7617 2.418-0.066407 4.6016-1.4492 5.6953-3.6055 1.7109-3.5312 2.7227-7.3633 2.9727-11.281 0.42969-3.1875 3.3594-5.4258 6.5469-5.0039 6.3594 0.99219 12.164 4.207 16.375 9.0781 4.2109 4.8672 6.5625 11.07 6.6328 17.508-0.082031 2.3477-0.33203 4.6875-0.74609 7-0.57031 2.4414-0.71094 4.9648-0.41016 7.457 0.79297 3.5 2.7188 4.082 3.3477 4.2578 3.7422 0.48438 7.4648-1.0273 9.8125-3.9805 7.375-6.75 12.117-15.898 13.383-25.816-0.097657-2.2031 1.0547-4.2734 2.9805-5.3516 1.9258-1.0742 4.293-0.97266 6.1172 0.26562 10.242 10.605 15.191 25.242 13.488 39.887-0.91406 3.9727-2.1289 7.8672-3.6289 11.656-2.2812 5.082-3.5586 10.555-3.7695 16.121 1.4414 6.3086 4.4375 12.156 8.7148 17.012 2.4258 3.1836 4.9219 6.4766 2.332 10.266h0.003906c-1.0859 1.6133-2.9023 2.5781-4.8438 2.5781-2.5703 0.003906-4.8398-1.6797-5.5859-4.1406-0.31641-0.44141-0.73437-0.99219-1.2383-1.6328-5.6523-6.5117-9.4609-14.422-11.023-22.902-0.10547-7.3047 1.3828-14.547 4.3633-21.223 1.2773-3.2773 2.3203-6.6484 3.1133-10.078 0.46875-6.1484-0.45703-12.32-2.707-18.062-3.3555 7.1289-7.8477 13.66-13.301 19.344-2.5898 3.0156-5.9453 5.2734-9.7148 6.5352-3.7695 1.2656-7.8086 1.4844-11.691 0.64062-2.9531-0.87109-5.6016-2.5508-7.6484-4.8477-2.0508-2.2969-3.418-5.1172-3.9492-8.1484-0.67188-3.918-0.58203-7.9258 0.26953-11.809 0.33594-1.7383 0.53516-3.5 0.60547-5.2695-0.16797-5.293-2.9883-10.141-7.5-12.906-0.64844 3.0742-1.7852 6.0234-3.3633 8.7383-1.7031 3.1016-4.2969 5.625-7.4414 7.2461-3.1484 1.6211-6.7031 2.2656-10.219 1.8555-4.2266-0.78125-7.918-3.3281-10.152-7-3.0977-5.0508-4.0039-11.148-2.5078-16.883 1.6719-5.2969 4.2617-10.254 7.6523-14.652 1.0977-1.5977 2.2031-3.1953 3.1836-4.8281l0.003907-0.003906c2.9531-3.8516 3.7969-8.918 2.25-13.52-2.8086-3.0312-6.5977-4.9688-10.699-5.4727l-1.2383-0.28125h0.003906c-6.2383-0.90234-12.094-3.543-16.906-7.6172-1.4414-1.4336-2.6055-3.1211-3.4297-4.9805-0.042968 0.30078-0.070312 0.60547-0.082031 0.91016 0.25 5.2969 1.5742 10.488 3.8867 15.258l1.5156 3.9336c4.0898 8.3555 4.1914 18.113 0.28125 26.555-2.7852 5.168-7.6445 8.8984-13.359 10.25-5.7109 1.3516-11.73 0.19531-16.535-3.1758-4.8047-3.375-7.9375-8.6406-8.6055-14.473-0.25781-1.8164-0.28125-3.6602-0.070313-5.4844-3.9453 2.9648-6.6055 7.3281-7.4336 12.191-0.58984 5.3516-0.53516 10.754 0.16406 16.09 0.63281 5.3516 0.77734 10.746 0.43359 16.125-0.49219 8.0938-3.5625 15.82-8.7578 22.047-5.1953 6.2266-12.242 10.629-20.117 12.566-9.4062 1.4102-18.895-1.9375-25.328-8.9375-5.75-5.6367-8.2344-13.816-6.5938-21.699 0.98438-3.6367 2.4688-7.1172 4.4102-10.348 1.207-2.0391 2.2188-4.1875 3.0234-6.418 1.125-4.1992 0.92187-8.6484-0.58594-12.727-1.0547 3.0117-2.8867 5.6914-5.3125 7.7695-2.4258 2.0742-5.3594 3.4727-8.5 4.0469-5.0977 0.78516-10.273-0.84375-14-4.4102-5.6523-5.4727-8.6367-13.145-8.168-21 0.67188-5.5703 2.375-10.965 5.0195-15.914 1.9961-3.6797 3.3398-7.6797 3.9766-11.816 0.042969-1.4609-0.21875-2.918-0.76953-4.2695-0.33203 2.5781-1.1211 5.0742-2.332 7.3711-4.5703 7.1797-11.105 12.887-18.832 16.453-5.8633 2.6055-11.016 6.5898-15.016 11.605-2.8203 5.8047-4.1328 12.223-3.8242 18.668-0.16406 3.3359-0.33984 6.6602-0.78125 9.9062-1.0547 8.6445-5.5039 16.516-12.367 21.875-4.1562 3.0352-9.418 4.1445-14.445 3.043-5.7109-2.043-10.438-6.1719-13.23-11.555-2.7891-5.3867-3.4414-11.625-1.8203-17.473 1.082-4.7578 2.6133-9.4023 4.5742-13.871 1.7031-3.8438 3.0312-7.8438 3.9688-11.945 1.1523-6.4688 0.125-13.141-2.9297-18.961-1.8398 4.3984-4.4727 8.418-7.7578 11.867-3.4531 3.7617-8.0938 6.2227-13.145 6.9688-5.0547 0.74609-10.207-0.26953-14.598-2.875-3.6836-3.0391-6.3906-7.0859-7.7969-11.648-1.4023-4.5625-1.4375-9.4336-0.10156-14.016 0.54688-2.8125 1.3398-5.5898 2.1484-8.3516l-0.003907-0.003907c1.2969-3.8125 2.1055-7.7695 2.4141-11.781-0.035156-5.7891-2.5469-11.285-6.9062-15.098l-0.29297-0.26953h0.003906c1.2266 3.6562 1.625 7.5352 1.1641 11.363-0.76562 5.7852-3.6523 11.078-8.0977 14.855-4.4492 3.7734-10.137 5.7656-15.969 5.5859-5.7734-0.56641-11.008-3.6328-14.328-8.3906-0.28516 1.8164-0.39844 3.6602-0.33594 5.4961 0.38281 5.5586 1.3516 11.059 2.8789 16.414 0.54688 2.2148 1.0977 4.4336 1.5742 6.6602v0.003906c2.5 9.125 2.1484 18.797-1 27.719-2.0078 5.1133-5.7188 9.3828-10.504 12.082-4.7852 2.7031-10.355 3.6719-15.77 2.7461-3.0469-0.85547-5.8125-2.4961-8.0234-4.7578s-3.7852-5.0703-4.5664-8.1328c-3.4766 5.0273-5.3867 10.969-5.4961 17.078 0.039063 5.6094 0.52734 11.203 1.4609 16.73 1.2109 6.9727 1.7031 14.047 1.4688 21.117-0.94531 15.516-11.445 31.781-27.301 32.152-3.1523-0.078125-5.7344-2.5352-5.9727-5.6797zm277.43-158.95v-0.003906c0.95703 1.3438 1.7422 2.8008 2.332 4.3438 0.42578 2.9844 0.12109 6.0312-0.88672 8.875l-0.74609 3.3008v0.003906c-1.1562 3.5664-1.1758 7.4023-0.054688 10.98 1.1172 3.5781 3.3242 6.7227 6.3086 8.9922 0.92969 0.58203 2.0039 0.88672 3.1016 0.88672 1.5469 0 3.0312-0.61719 4.125-1.7109s1.7109-2.5781 1.7109-4.125c0.074218-3.8672 1.707-7.543 4.5273-10.195 0.73437-0.64063 1.4922-1.2734 2.2617-1.8906 4.0742-2.7695 7.1953-6.7227 8.9492-11.328 1.4375-5.8594 0.21094-12.055-3.3477-16.926-0.74609-1.168-1.5742-2.3906-2.332-3.5586h-0.003907c-1.5-1.9727-2.7617-4.1133-3.7539-6.3828-0.83203-1.6836-0.71094-3.6836 0.32422-5.25 2.2148-1.8047 2.8008-4.9492 1.3789-7.4258-1.4219-2.4805-4.4297-3.5625-7.1055-2.5625-5.0781 1.6094-9.8203 4.1211-14 7.4219-2.6172 2.0938-4.6328 4.8398-5.8477 7.9609-1.2188 3.1211-1.5898 6.5078-1.082 9.8203 0.78516 3.168 2.1953 6.1484 4.1406 8.7695zm10.395-17.699c0.20703 1.0312 0.49219 2.043 0.85156 3.0312 1.3203 3.1836 3.0352 6.1914 5.0977 8.9492 0.69922 1.0156 1.4102 2.0312 2.0664 3.0664v0.003906c1.6484 2.0938 2.3984 4.7578 2.0859 7.4062-1.207 2.2969-2.9883 4.2461-5.168 5.6602-0.52344 0.42188-1.0391 0.83984-1.5391 1.2734v-0.003907c0.78516-3.5234 0.70312-7.1875-0.23438-10.676-0.88672-2.6367-2.1641-5.125-3.7891-7.3828-1.0625-1.4141-1.8867-2.9883-2.4375-4.668-0.15625-2.5938 0.99609-5.0938 3.0664-6.6602z"/>
  <use x="70" y="735" xlink:href="#g"/>
  <use x="220.503906" y="735" xlink:href="#f"/>
  <use x="287.953125" y="735" xlink:href="#e"/>
  <use x="350.015625" y="735" xlink:href="#d"/>
  <use x="450.105469" y="735" xlink:href="#c"/>
  <use x="489.898437" y="735" xlink:href="#b"/>
  <use x="591.296875" y="735" xlink:href="#a"/>
 </g>
</svg>
