<?xml version="1.0" encoding="UTF-8"?>
<svg width="700pt" height="700pt" version="1.1" viewBox="0 0 700 700" xmlns="http://www.w3.org/2000/svg" xmlns:xlink="http://www.w3.org/1999/xlink">
 <defs>
  <symbol id="h" overflow="visible">
   <path d="m3.6562-0.21875c-0.1875 0.09375-0.38672 0.16797-0.59375 0.21875-0.19922 0.050781-0.40625 0.078125-0.625 0.078125-0.66797 0-1.1992-0.17969-1.5938-0.54688-0.38672-0.375-0.57812-0.87891-0.57812-1.5156 0-0.64453 0.19141-1.1484 0.57812-1.5156 0.39453-0.375 0.92578-0.5625 1.5938-0.5625 0.21875 0 0.42578 0.027344 0.625 0.078125 0.20703 0.054687 0.40625 0.125 0.59375 0.21875v0.82812c-0.1875-0.125-0.375-0.21875-0.5625-0.28125-0.17969-0.0625-0.37109-0.09375-0.57812-0.09375-0.36719 0-0.65625 0.12109-0.875 0.35938-0.21094 0.23047-0.3125 0.55469-0.3125 0.96875 0 0.40625 0.10156 0.73047 0.3125 0.96875 0.21875 0.23047 0.50781 0.34375 0.875 0.34375 0.20703 0 0.39844-0.023437 0.57812-0.078125 0.1875-0.0625 0.375-0.16016 0.5625-0.29688z"/>
  </symbol>
  <symbol id="d" overflow="visible">
   <path d="m2.6875-2.1719c-0.085938-0.039063-0.16797-0.070313-0.25-0.09375-0.085938-0.019531-0.16797-0.03125-0.25-0.03125-0.25 0-0.44531 0.085937-0.57812 0.25-0.125 0.15625-0.1875 0.38281-0.1875 0.67188v1.375h-0.96875v-2.9844h0.96875v0.48438c0.11328-0.19531 0.25-0.33594 0.40625-0.42188 0.16406-0.09375 0.35938-0.14062 0.57812-0.14062h0.10938c0.039063 0 0.09375 0.007812 0.15625 0.015625z"/>
  </symbol>
  <symbol id="c" overflow="visible">
   <path d="m3.4375-1.5v0.26562h-2.2344c0.03125 0.23047 0.11328 0.40234 0.25 0.51562 0.13281 0.10547 0.32812 0.15625 0.57812 0.15625 0.20703 0 0.41406-0.023438 0.625-0.078125 0.20703-0.0625 0.42188-0.15625 0.64062-0.28125v0.73438c-0.21875 0.09375-0.44531 0.16406-0.67188 0.20312-0.23047 0.039062-0.45312 0.0625-0.67188 0.0625-0.54297 0-0.96484-0.13281-1.2656-0.40625-0.30469-0.28125-0.45312-0.67188-0.45312-1.1719 0-0.47656 0.14453-0.85938 0.4375-1.1406 0.30078-0.28125 0.70703-0.42188 1.2188-0.42188 0.46875 0 0.84375 0.14062 1.125 0.42188s0.42188 0.66406 0.42188 1.1406zm-0.96875-0.32812c0-0.17578-0.058594-0.31641-0.17188-0.42188-0.10547-0.11328-0.24219-0.17188-0.40625-0.17188-0.1875 0-0.33984 0.054687-0.45312 0.15625-0.11719 0.10547-0.1875 0.25-0.21875 0.4375z"/>
  </symbol>
  <symbol id="e" overflow="visible">
   <path d="m1.7969-1.3438c-0.19922 0-0.35156 0.039062-0.45312 0.10938-0.09375 0.0625-0.14062 0.16406-0.14062 0.29688 0 0.11719 0.035156 0.21094 0.10938 0.28125 0.082031 0.0625 0.19531 0.09375 0.34375 0.09375 0.17578 0 0.32812-0.0625 0.45312-0.1875s0.1875-0.28516 0.1875-0.48438v-0.10938zm1.4688-0.35938v1.7031h-0.96875v-0.4375c-0.125 0.17969-0.27344 0.30859-0.4375 0.39062-0.15625 0.082031-0.35156 0.125-0.57812 0.125-0.3125 0-0.57031-0.085938-0.76562-0.26562-0.1875-0.1875-0.28125-0.42188-0.28125-0.70312 0-0.35156 0.11719-0.61328 0.35938-0.78125 0.23828-0.16406 0.61719-0.25 1.1406-0.25h0.5625v-0.0625c0-0.15625-0.0625-0.26562-0.1875-0.32812-0.11719-0.070312-0.29688-0.10938-0.54688-0.10938-0.21094 0-0.40234 0.023437-0.57812 0.0625-0.17969 0.042969-0.33984 0.10156-0.48438 0.17188v-0.71875c0.19531-0.050781 0.39844-0.085938 0.60938-0.10938 0.20703-0.03125 0.41406-0.046875 0.625-0.046875 0.53906 0 0.92969 0.10938 1.1719 0.32812 0.23828 0.21094 0.35938 0.55469 0.35938 1.0312z"/>
  </symbol>
  <symbol id="b" overflow="visible">
   <path d="m1.5-3.8438v0.85938h0.98438v0.67188h-0.98438v1.2812c0 0.13672 0.023438 0.23047 0.078125 0.28125 0.0625 0.042969 0.17578 0.0625 0.34375 0.0625h0.48438v0.6875h-0.8125c-0.38672 0-0.65625-0.078125-0.8125-0.23438s-0.23438-0.42188-0.23438-0.79688v-1.2812h-0.46875v-0.67188h0.46875v-0.85938z"/>
  </symbol>
  <symbol id="l" overflow="visible">
   <path d="m2.5-2.5469v-1.6094h0.95312v4.1562h-0.95312v-0.4375c-0.13672 0.17969-0.28125 0.30859-0.4375 0.39062-0.15625 0.082031-0.33984 0.125-0.54688 0.125-0.375 0-0.68359-0.14453-0.92188-0.4375-0.23047-0.28906-0.34375-0.67188-0.34375-1.1406 0-0.45703 0.11328-0.83203 0.34375-1.125 0.23828-0.28906 0.54688-0.4375 0.92188-0.4375 0.19531 0 0.375 0.042969 0.53125 0.125 0.16406 0.085938 0.31641 0.21484 0.45312 0.39062zm-0.64062 1.9375c0.20703 0 0.36328-0.070313 0.46875-0.21875 0.11328-0.15625 0.17188-0.37891 0.17188-0.67188 0-0.28125-0.058594-0.49219-0.17188-0.64062-0.10547-0.15625-0.26172-0.23438-0.46875-0.23438-0.19922 0-0.35547 0.078125-0.46875 0.23438-0.10547 0.14844-0.15625 0.35938-0.15625 0.64062 0 0.29297 0.050781 0.51562 0.15625 0.67188 0.11328 0.14844 0.26953 0.21875 0.46875 0.21875z"/>
  </symbol>
  <symbol id="k" overflow="visible">
   <path d="m2.0469-0.60938c0.20703 0 0.36328-0.070313 0.46875-0.21875 0.11328-0.15625 0.17188-0.37891 0.17188-0.67188 0-0.28125-0.058594-0.49219-0.17188-0.64062-0.10547-0.15625-0.26172-0.23438-0.46875-0.23438-0.19922 0-0.35547 0.078125-0.46875 0.23438-0.10547 0.14844-0.15625 0.35938-0.15625 0.64062 0 0.29297 0.050781 0.51562 0.15625 0.67188 0.11328 0.14844 0.26953 0.21875 0.46875 0.21875zm-0.625-1.9375c0.125-0.17578 0.26562-0.30469 0.42188-0.39062 0.16406-0.082031 0.35156-0.125 0.5625-0.125 0.36328 0 0.66406 0.14844 0.90625 0.4375 0.23828 0.29297 0.35938 0.66797 0.35938 1.125 0 0.46875-0.12109 0.85156-0.35938 1.1406-0.24219 0.29297-0.54297 0.4375-0.90625 0.4375-0.21094 0-0.39844-0.042969-0.5625-0.125-0.15625-0.082031-0.29688-0.21094-0.42188-0.39062v0.4375h-0.96875v-4.1562h0.96875z"/>
  </symbol>
  <symbol id="j" overflow="visible">
   <path d="m0.0625-2.9844h0.95312l0.8125 2.0156 0.6875-2.0156h0.95312l-1.2656 3.2656c-0.125 0.33203-0.27344 0.56641-0.4375 0.70312-0.16797 0.13281-0.39062 0.20312-0.67188 0.20312h-0.54688v-0.64062h0.29688c0.16406 0 0.28516-0.027344 0.35938-0.078125 0.070313-0.054688 0.12891-0.14062 0.17188-0.26562l0.03125-0.09375z"/>
  </symbol>
  <symbol id="i" overflow="visible">
   <path d="m0.5-3.9844h2.7812v0.78125h-1.75v0.73438h1.6406v0.78125h-1.6406v1.6875h-1.0312z"/>
  </symbol>
  <symbol id="g" overflow="visible">
   <path d="m3.4688-1.8281v1.8281h-0.96875v-1.3906c0-0.25781-0.007812-0.4375-0.015625-0.53125-0.011719-0.10156-0.03125-0.17578-0.0625-0.21875-0.03125-0.0625-0.085937-0.10938-0.15625-0.14062-0.0625-0.039062-0.13281-0.0625-0.20312-0.0625-0.21094 0-0.37109 0.078125-0.48438 0.23438-0.10547 0.15625-0.15625 0.37109-0.15625 0.64062v1.4688h-0.96875v-2.9844h0.96875v0.4375c0.13281-0.17578 0.28516-0.30469 0.45312-0.39062 0.16406-0.082031 0.34375-0.125 0.53125-0.125 0.34375 0 0.60156 0.10938 0.78125 0.32812 0.1875 0.21094 0.28125 0.51172 0.28125 0.90625z"/>
  </symbol>
  <symbol id="a" overflow="visible">
   <path d="m1.875-2.375c-0.21094 0-0.37109 0.078125-0.48438 0.23438-0.10547 0.14844-0.15625 0.35938-0.15625 0.64062 0 0.29297 0.050781 0.51562 0.15625 0.67188 0.11328 0.14844 0.27344 0.21875 0.48438 0.21875 0.20703 0 0.36719-0.070313 0.48438-0.21875 0.11328-0.15625 0.17188-0.37891 0.17188-0.67188 0-0.28125-0.058594-0.49219-0.17188-0.64062-0.11719-0.15625-0.27734-0.23438-0.48438-0.23438zm0-0.6875c0.51953 0 0.92188 0.14062 1.2031 0.42188 0.28906 0.27344 0.4375 0.65234 0.4375 1.1406 0 0.5-0.14844 0.89062-0.4375 1.1719-0.28125 0.27344-0.68359 0.40625-1.2031 0.40625-0.51172 0-0.91406-0.13281-1.2031-0.40625-0.29297-0.28125-0.4375-0.67188-0.4375-1.1719 0-0.48828 0.14453-0.86719 0.4375-1.1406 0.28906-0.28125 0.69141-0.42188 1.2031-0.42188z"/>
  </symbol>
  <symbol id="f" overflow="visible">
   <path d="m0.42188-1.1719v-1.8125h0.96875v0.29688 0.60938 0.48438c0 0.24219 0.003906 0.41797 0.015625 0.53125 0.007812 0.10547 0.03125 0.17969 0.0625 0.21875 0.039062 0.0625 0.09375 0.11719 0.15625 0.15625 0.0625 0.03125 0.13281 0.046875 0.21875 0.046875 0.19531 0 0.35156-0.078125 0.46875-0.23438 0.11328-0.15625 0.17188-0.36719 0.17188-0.64062v-1.4688h0.95312v2.9844h-0.95312v-0.4375c-0.14844 0.17969-0.30469 0.30859-0.46875 0.39062-0.15625 0.082031-0.33594 0.125-0.53125 0.125-0.34375 0-0.60938-0.10156-0.79688-0.3125-0.17969-0.21875-0.26562-0.53125-0.26562-0.9375z"/>
  </symbol>
  <symbol id="s" overflow="visible">
   <path d="m2.4219-4.1562v0.625h-0.51562c-0.13672 0-0.23438 0.027344-0.29688 0.078125-0.054687 0.054687-0.078125 0.13672-0.078125 0.25v0.21875h0.82812v0.67188h-0.82812v2.3125h-0.95312v-2.3125h-0.46875v-0.67188h0.46875v-0.21875c0-0.32031 0.085937-0.5625 0.26562-0.71875 0.1875-0.15625 0.47266-0.23438 0.85938-0.23438z"/>
  </symbol>
  <symbol id="r" overflow="visible">
   <path d="m3.2344-2.5c0.11328-0.17578 0.25391-0.3125 0.42188-0.40625 0.16406-0.10156 0.35156-0.15625 0.5625-0.15625 0.33203 0 0.58594 0.10938 0.76562 0.32812 0.1875 0.21094 0.28125 0.51172 0.28125 0.90625v1.8281h-0.96875v-1.5625c0.007813-0.019531 0.015625-0.039062 0.015625-0.0625v-0.10938c0-0.21875-0.03125-0.375-0.09375-0.46875s-0.16406-0.14062-0.29688-0.14062c-0.1875 0-0.33594 0.078125-0.4375 0.23438-0.09375 0.14844-0.14062 0.35938-0.14062 0.64062v1.4688h-0.96875v-1.5625c0-0.33203-0.03125-0.54688-0.09375-0.64062-0.054688-0.09375-0.15234-0.14062-0.29688-0.14062-0.17969 0-0.32031 0.078125-0.42188 0.23438-0.09375 0.14844-0.14062 0.35938-0.14062 0.64062v1.4688h-0.96875v-2.9844h0.96875v0.4375c0.11328-0.17578 0.24219-0.30469 0.39062-0.39062 0.15625-0.082031 0.32812-0.125 0.51562-0.125 0.20703 0 0.39062 0.054688 0.54688 0.15625 0.15625 0.09375 0.27344 0.23047 0.35938 0.40625z"/>
  </symbol>
  <symbol id="q" overflow="visible">
   <path d="m3.4688-1.8281v1.8281h-0.96875v-1.3906c0-0.25781-0.007812-0.4375-0.015625-0.53125-0.011719-0.10156-0.03125-0.17578-0.0625-0.21875-0.03125-0.0625-0.085937-0.10938-0.15625-0.14062-0.0625-0.039062-0.13281-0.0625-0.20312-0.0625-0.21094 0-0.37109 0.078125-0.48438 0.23438-0.10547 0.15625-0.15625 0.37109-0.15625 0.64062v1.4688h-0.96875v-4.1562h0.96875v1.6094c0.13281-0.17578 0.28516-0.30469 0.45312-0.39062 0.16406-0.082031 0.34375-0.125 0.53125-0.125 0.34375 0 0.60156 0.10938 0.78125 0.32812 0.1875 0.21094 0.28125 0.51172 0.28125 0.90625z"/>
  </symbol>
  <symbol id="p" overflow="visible">
   <path d="m0.5-3.9844h1.1562l1.4375 2.7344v-2.7344h0.98438v3.9844h-1.1562l-1.4375-2.7344v2.7344h-0.98438z"/>
  </symbol>
  <symbol id="o" overflow="visible">
   <path d="m0.5-3.9844h1.7031c0.50781 0 0.89844 0.11719 1.1719 0.34375 0.26953 0.21875 0.40625 0.53906 0.40625 0.95312 0 0.41797-0.13672 0.74219-0.40625 0.96875-0.27344 0.21875-0.66406 0.32812-1.1719 0.32812h-0.67188v1.3906h-1.0312zm1.0312 0.75v1.1094h0.5625c0.19531 0 0.34766-0.046875 0.45312-0.14062 0.11328-0.10156 0.17188-0.24219 0.17188-0.42188 0-0.17578-0.058594-0.3125-0.17188-0.40625-0.10547-0.09375-0.25781-0.14062-0.45312-0.14062z"/>
  </symbol>
  <symbol id="n" overflow="visible">
   <path d="m0.45312-2.9844h0.96875v2.9375c0 0.39453-0.10156 0.69531-0.29688 0.90625-0.1875 0.21875-0.46484 0.32812-0.82812 0.32812h-0.48438v-0.64062h0.17188c0.17578 0 0.29688-0.042969 0.35938-0.125 0.070312-0.074219 0.10938-0.23047 0.10938-0.46875zm0-1.1719h0.96875v0.78125h-0.96875z"/>
  </symbol>
  <symbol id="m" overflow="visible">
   <path d="m2.875-2.8906v0.76562c-0.125-0.082031-0.25781-0.14453-0.39062-0.1875-0.13672-0.039062-0.27344-0.0625-0.40625-0.0625-0.27344 0-0.48047 0.078125-0.625 0.23438-0.14844 0.15625-0.21875 0.37109-0.21875 0.64062 0 0.28125 0.070313 0.5 0.21875 0.65625 0.14453 0.15625 0.35156 0.23438 0.625 0.23438 0.14453 0 0.28516-0.019531 0.42188-0.0625 0.13281-0.039063 0.25781-0.10938 0.375-0.20312v0.78125c-0.14844 0.0625-0.29688 0.10156-0.45312 0.125-0.15625 0.03125-0.3125 0.046875-0.46875 0.046875-0.54297 0-0.96484-0.13281-1.2656-0.40625-0.30469-0.28125-0.45312-0.67188-0.45312-1.1719 0-0.48828 0.14844-0.86719 0.45312-1.1406 0.30078-0.28125 0.72266-0.42188 1.2656-0.42188 0.15625 0 0.3125 0.015625 0.46875 0.046875 0.15625 0.023437 0.30469 0.0625 0.45312 0.125z"/>
  </symbol>
 </defs>
 <g>
  <path d="m345.73 314.23c2.4062 0 4.7031-1.3125 5.7969-3.3906l19.359-35.875c1.75-3.0625 0.4375-7.3281-2.625-8.8594l-30.953-16.734c-3.1719-1.75-7.2188-0.54688-8.8594 2.625l-19.359 35.875c-1.75 3.1719-0.54688 7.2188 2.625 8.8594l30.953 16.734c0.875 0.4375 1.9688 0.76562 3.0625 0.76562zm-8.9688-50.312 19.469 10.5-13.125 24.281-19.469-10.5z"/>
  <path d="m586.69 410.92c-3.6094-5.4688-8.6406-9.4062-13.125-12.906-1.9688-1.5312-5.5781-4.2656-10.391-4.0469-2.8438 0.21875-5.1406 1.4219-6.6719 2.2969l-9.2969 5.1406c-4.1562-7.3281-11.594-9.8438-19.25-10.391-2.8438-0.32812-5.4688-0.54688-7-1.5312-2.4062-1.5312-3.9375-5.5781-5.3594-9.5156-1.3125-3.5-3.0625-9.1875-8.6406-14l25.266-46.812s2.0781 0.21875 4.2656 0.4375c3.1719 0.21875 4.375 0.54688 5.4688 0.54688 4.5938 0.10938 7.9844-5.0312 6.0156-9.1875l-45.172-102.59c-0.875-2.0781-2.8438-3.5-5.0312-3.8281l-72.516-10.938c-0.54688-0.10938-1.2031-0.10938-1.8594 0-0.21875 0-0.32812 0-0.54688 0.10938l-25.703 5.3594 6.3438-11.703c0.875-1.5312 0.98438-3.2812 0.54688-5.0312-0.54688-1.6406-1.6406-3.0625-3.1719-3.9375l-19.688-10.609c-3.1719-1.75-7.2188-0.54688-8.8594 2.625l-20.562 38.062c-9.5156 2.0781-31.719 6.6719-41.125 8.3125-3.6094 0.65625-5.9062 4.0469-5.25 7.6562s4.1562 5.9062 7.6562 5.25l1.6406-0.32812-14.766 27.344c-12.141-12.906-31.719-18.375-48.781-13.891-0.98438-2.625-2.7344-5.25-4.9219-7.5469-2.625-2.8438-6.6719-5.5781-8.5312-8.6406-0.65625-1.0938-1.2031-2.5156-1.75-4.0469-1.0938-3.2812-2.625-7.2188-6.0156-10.391-1.0938-0.98438-2.4062-1.8594-3.6094-2.5156l4.9219-11.484 8.2031 8.4219c1.5312 1.5312 3.7188 2.2969 5.7969 1.8594 2.0781-0.32812 3.9375-1.75 4.8125-3.7188l15.094-33.141 10.5 7.7656c1.6406 1.2031 3.8281 1.6406 5.7969 0.98438 1.9688-0.54688 3.6094-2.0781 4.2656-3.9375l20.016-52.281c1.5312-3.7188-1.0938-8.3125-5.1406-8.8594 0 0-55.344-8.6406-55.344-8.6406-2.0781-0.32812-4.0469 0.32812-5.5781 1.75s-2.1875 3.5-1.9688 5.4688l1.5312 13.016-36.312-3.2812c-2.1875-0.21875-4.2656 0.65625-5.6875 2.2969s-1.8594 3.9375-1.3125 6.0156l3.1719 11.375-41.125-4.7031c-4.4844-0.65625-8.3125 3.9375-7.1094 8.2031 0.21875 0.98438 6.2344 23.078 17.719 42.875l-3.7188 1.8594c-3.9375-0.32812-9.625 0.21875-12.688-1.5312-2.5156-1.4219-4.375-4.9219-6.2344-9.0781-5.6875-12.469-11.594-25.375-14-38.609-0.875-4.5938-3.5-18.703-15.422-19.141-3.6094-0.21875-6.6719 2.625-6.8906 6.2344-0.10938 3.6094 2.625 6.6719 6.2344 6.7812 0.10938 0 1.75 0.98438 3.0625 8.5312 2.7344 14.875 8.9688 28.547 14.984 41.672 2.0781 4.5938 5.25 11.484 11.703 15.094 4.9219 2.7344 10.172 2.9531 14.328 3.0625 6.8906 0.21875 14.219 0.54688 21 0.76562 2.8438 0.21875 12.797-0.10938 13.891 1.6406 0.98438 1.75 1.5312 3.8281 2.9531 5.7969 4.0469 5.7969 10.5 6.6719 15.641 7.4375 2.2969 0.32812 5.5781 0.65625 7.1094 1.9688 0.98438 0.875 1.75 2.9531 2.4062 5.0312 0.65625 1.9688 1.5312 4.1562 2.7344 6.3438 2.8438 4.8125 6.7812 7.4375 10.281 11.047 2.0781 2.1875 2.8438 4.375 2.5156 5.1406-1.0938 2.5156-0.54688 5.4688 1.5312 7.4375 2.0781 1.8594 5.0312 2.2969 7.5469 0.98438 14.766-7.6562 35.438-2.2969 44.953 11.266l-19.141 35.438c-9.1875-8.4219-21.984-13.016-34.344-11.812-3.6094 0.32812-6.2344 3.6094-5.9062 7.2188s3.6094 6.2344 7.2188 5.9062c11.047-1.0938 22.641 4.375 28.766 13.672 6.5625 11.703 13.562 14.109 26.141 12.141 0.65625-0.10938 1.2031-0.10938 1.8594-0.21875 4.0469-0.4375 6.6719 0.4375 7.1094 1.2031 0.10938 0.21875 0.32812 0.76562 0.4375 1.3125 2.1875 8.75 8.9688 10.719 16.516 8.9688-0.54688 25.156 32.266 20.234 47.359 10.5 1.4219-0.875 3.2812-0.54688 4.1562 0.76562 3.2812 4.9219 6.7812 8.4219 10.828 10.938 2.625 1.6406 5.1406 2.7344 7.7656 3.7188 3.2812 1.5312 6.6719 2.5156 8.4219 5.4688l-13.234 1.75c-1.9688 0.21875-3.7188 1.4219-4.8125 3.0625l-6.8906 11.156c-2.7344 4.1562 0.65625 10.172 5.5781 9.9531 2.1875 0 4.375-1.0938 5.5781-3.1719l5.25-8.5312 12.469-1.6406c5.3594 0.98438 11.812 0.32812 16.953-0.54688s8.9688-1.4219 14.656 0.65625c2.1875 0.76562 4.5938 0.4375 6.3438-0.98438 3.7188-2.9531 8.4219-4.2656 13.891-5.7969l1.6406-0.4375c1.3125-0.32812 3.2812 0.54688 3.8281 1.6406 1.6406 4.0469 19.359 26.25 21.219 30.953-0.4375 13.562 0 27.344 1.4219 41.016 0.32812 3.3906 3.1719 5.9062 6.5625 5.9062 3.8281 0 7-3.3906 6.5625-7.2188-1.4219-13.234-1.8594-26.797-1.3125-40.031 0.10938-2.625-0.875-5.5781-6.5625-13.781l11.156-20.562c4.2656 7.1094 4.9219 17.172 13.562 22.531 4.1562 2.625 8.6406 3.0625 12.688 3.5 2.7344 0.32812 5.3594 0.54688 7 1.5312 2.0781 1.2031 3.6094 4.1562 4.9219 9.1875 1.6406 6.5625 5.3594 24.828 15.969 18.156 2.8438-2.2969 3.2812-6.3438 1.0938-9.1875-1.8594-2.4062-2.7344-6.0156-3.7188-9.8438 0.54688-0.32812 11.812-6.5625 12.031-6.6719 4.375 3.1719 9.0781 6.7812 11.922 10.828 1.2031 1.8594 1.3125 3.0625 1.2031 3.2812-1.3125 3.3906 0.32812 7.2188 3.7188 8.5312 3.2812 1.3125 7.2188-0.32812 8.5312-3.7188 2.0781-4.4844 1.2031-9.9531-2.1875-15.203zm-378.55-207.48c-4.0469-10.938-14.875-10.938-22.641-11.047-0.65625-1.2031-1.2031-2.4062-1.8594-3.5-7.9844-11.922-13.781-26.469-16.953-35.766l40.797 4.7031c2.1875 0.21875 4.375-0.54688 5.7969-2.2969 1.4219-1.6406 1.9688-3.9375 1.3125-6.0156l-3.2812-11.594 34.891 3.1719c1.9688 0.21875 3.9375-0.54688 5.3594-1.9688s2.0781-3.3906 1.8594-5.3594l-1.5312-12.469 38.719 6.0156-14 36.641-10.062-7.4375c-1.6406-1.2031-3.6094-1.6406-5.5781-1.0938s-3.5 1.8594-4.375 3.6094l-14.547 31.828-8.4219-8.6406c-1.5312-1.5312-3.7188-2.2969-5.9062-1.8594s-3.9375 1.8594-4.8125 3.8281l-9.625 22.531c-3.0625-0.54688-4.2656-0.76562-5.1406-3.2812zm284.05 13.562 39.047 88.812-2.0781-0.21875-59.172-6.6719-35.547-90.562zm-111.45-34.453 8.0938 4.375-8.4219 15.641-11.812 2.5156zm-39.156 166.03c-3.7188 0-6.2344-0.98438-6.4531-1.8594-0.21875-0.54688-0.32812-1.8594-0.32812-2.9531-0.10938-10.281-6.4531-15.641-17.062-13.125-2.1875-8.8594-10.391-13.125-21.656-11.922-3.5 0.4375-8.75 1.4219-10.938 0-0.76562-0.54688-1.5312-1.5312-2.2969-2.625l48.453-89.688c21.109-4.375 68.359-14.328 89.031-18.703l33.141 84.656-41.453 76.781c-2.0781-4.1562-5.5781-7.4375-9.625-9.5156l16.297-30.297c1.75-3.1719 0.54688-7.2188-2.625-8.8594l-37.188-20.125c-1.5312-0.875-3.2812-0.98438-5.0312-0.54688-1.6406 0.54688-3.0625 1.6406-3.9375 3.1719l-24.391 45.172c-1.3125 0.32812-2.625 0.32812-3.9375 0.4375zm22.422-7.1094 14.328-26.469 25.594 13.891-13.562 25.047c-2.2969-1.5312-4.2656-3.7188-6.4531-6.8906-4.375-6.4531-12.797-8.75-19.906-5.5781zm90.016 26.141c-5.7969 1.6406-11.594 3.0625-17.172 6.4531-4.5938-1.3125-8.5312-1.3125-12.141-1.0938l35-64.75c0.98438 1.75 2.8438 2.9531 4.9219 3.2812l53.484 6.0156-37.516 69.344c-2.7344-3.6094-6.6719-8.9688-7.3281-10.281-3.0625-7.1094-11.594-11.156-19.25-8.9688z"/>
  <path d="m179.48 313.58c9.2969 4.8125 11.375 15.422 13.125 25.266 0.65625 3.6094 4.1562 5.9062 7.6562 5.25 3.6094-0.65625 5.9062-4.0469 5.25-7.6562-0.76562-4.375-1.6406-8.9688-3.0625-13.344 5.3594-11.047 10.172-22.422 15.312-33.578 0.98438-2.1875 2.4062-5.25 2.4062-8.8594-0.21875-5.4688-2.2969-8.3125-4.1562-12.578-3.9375-8.8594-11.922-16.297-21.219-15.641-1.75 0-3.5 0.54688-5.0312 0.65625-0.54688-0.10938-1.8594-1.3125-2.5156-1.8594-2.4062-2.1875-4.9219-4.375-7.3281-6.6719-1.5312-1.4219-4.375-3.9375-8.3125-4.2656-3.3906-0.32812-6.125 1.0938-7.7656 1.8594-10.172 5.1406-18.484 9.5156-28 14.766-3.8281-6.0156-8.8594-11.156-14.656-14.984-3.0625-1.9688-7.1094-1.2031-9.0781 1.8594s-1.2031 7.1094 1.8594 9.0781c9.1875 6.0156 15.75 17.062 16.625 28 0.32812 3.5 3.2812 6.125 6.6719 6.0156 8.9688-0.4375 22.531 0.4375 26.797 7.2188 2.625 4.0469 3.7188 8.8594 7.3281 12.906 2.625 2.9531 5.4688 4.8125 8.0938 6.5625zm-31.281-39.484c-1.75-0.10938-3.6094-0.21875-5.25-0.21875-0.32812-1.6406-0.76562-3.2812-1.3125-4.9219 9.8438-5.4688 18.484-10.062 28.984-15.312 2.7344 2.4062 5.3594 4.8125 8.0938 7.3281 1.9688 1.75 4.9219 4.4844 9.1875 5.1406 3.1719 0.54688 5.3594-0.21875 7.875-0.54688 3.9375 0.10938 6.7812 4.1562 8.6406 8.3125 0.875 1.9688 2.5156 4.9219 2.7344 6.8906 0 0.76562-0.65625 2.2969-1.2031 3.3906-3.7188 8.2031-7.4375 16.516-11.156 24.719-3.5-4.2656-9.625-6.6719-13.234-10.281-2.625-3.2812-3.7188-8.0938-6.5625-11.812-5.3594-7.5469-14.109-11.703-26.797-12.688z"/>
  <path d="m380.62 464.3c-1.3125-0.98438-2.9531-1.3125-4.4844-1.2031-0.54688-0.65625-1.0938-1.3125-1.9688-1.9688-3.2812-2.7344-7.1094-3.0625-9.2969-3.1719-4.2656-0.32812-8.5312-0.54688-13.016-0.65625l-2.1875-22.75c-1.0938-11.047-10.281-19.578-21.328-19.688-4.1562-0.10938-8.4219-0.10938-12.688-0.10938 1.0938-5.7969 1.75-11.703 2.0781-17.609 0.10938-1.75 0.32812-5.1406-1.5312-8.2031-1.5312-2.625-3.7188-3.9375-5.25-4.8125l-13.453-8.2031c-6.4531-3.9375-14.547-8.8594-24.062-8.8594-8.4219 0-15.969 3.9375-21.875 7.1094-8.3125 4.375-16.734 8.75-25.047 13.234-5.5781-4.2656-11.812-6.8906-17.391-9.1875-9.9531-4.1562-21.109-8.8594-33.359-9.5156-3.6094-0.10938-6.6719 2.625-6.8906 6.2344s2.625 6.6719 6.2344 6.8906c9.9531 0.54688 20.125 4.8125 28.984 8.5312 9.0781 3.6094 22.312 9.8438 21.875 20.672-0.21875 3.3906 2.1875 6.4531 5.5781 7 8.8594 1.4219 17.828 3.0625 26.578 5.1406 5.25 1.2031 10.609 2.625 13.781 5.9062 3.3906 3.7188 5.25 9.4062 8.6406 13.562 5.4688 7.1094 14.219 11.156 22.969 11.266l1.75 12.469c0.4375 3.3906 3.5 5.9062 7 5.6875 16.516-1.0938 36.75-2.625 53.812-0.65625 3.6094 5.9062 11.703 8.2031 16.297 2.1875 1.9688-3.0625 1.2031-7.2188-1.75-9.2969zm-65.078-18.594c-0.4375-3.7188-4.375-6.4531-8.0938-5.4688-6.0156 1.5312-12.906-0.875-16.734-5.7969-3.3906-4.5938-5.1406-10.172-9.625-14.766-5.5781-5.6875-13.344-7.875-20.125-9.5156-7.3281-1.75-14.875-3.1719-22.312-4.4844-0.54688-2.8438-1.6406-5.6875-3.1719-8.4219 7.3281-3.9375 14.766-7.7656 22.094-11.703 4.9219-2.625 10.5-5.5781 15.75-5.5781 5.4688 0 10.828 2.9531 17.281 6.8906l13.453 8.2031c0.10938 0.10938 0.32812 0.21875 0.54688 0.32812-0.32812 8.0938-1.5312 16.188-3.5 24.172-1.0938 4.0469 2.2969 8.3125 6.4531 8.0938 7-0.10938 13.891 0 20.562 0.10938 4.375 0.10938 8.0938 3.3906 8.5312 7.875l2.0781 21.547c-7.3281 0.21875-14.656 0.65625-21.547 1.0938z"/>
  <use x="70" y="576.40625" xlink:href="#h"/>
  <use x="74.011719" y="576.40625" xlink:href="#d"/>
  <use x="76.710938" y="576.40625" xlink:href="#c"/>
  <use x="80.417969" y="576.40625" xlink:href="#e"/>
  <use x="84.109375" y="576.40625" xlink:href="#b"/>
  <use x="86.722656" y="576.40625" xlink:href="#c"/>
  <use x="90.433594" y="576.40625" xlink:href="#l"/>
  <use x="96.25" y="576.40625" xlink:href="#k"/>
  <use x="100.167969" y="576.40625" xlink:href="#j"/>
  <use x="105.636719" y="576.40625" xlink:href="#i"/>
  <use x="109.371094" y="576.40625" xlink:href="#d"/>
  <use x="112.066406" y="576.40625" xlink:href="#e"/>
  <use x="115.757812" y="576.40625" xlink:href="#g"/>
  <use x="121.554688" y="576.40625" xlink:href="#h"/>
  <use x="125.570312" y="576.40625" xlink:href="#a"/>
  <use x="129.324219" y="576.40625" xlink:href="#f"/>
  <use x="133.21875" y="576.40625" xlink:href="#b"/>
  <use x="135.832031" y="576.40625" xlink:href="#a"/>
  <use x="70" y="581.875" xlink:href="#s"/>
  <use x="72.378906" y="581.875" xlink:href="#d"/>
  <use x="75.078125" y="581.875" xlink:href="#a"/>
  <use x="78.832031" y="581.875" xlink:href="#r"/>
  <use x="86.4375" y="581.875" xlink:href="#b"/>
  <use x="89.050781" y="581.875" xlink:href="#q"/>
  <use x="92.941406" y="581.875" xlink:href="#c"/>
  <use x="98.554688" y="581.875" xlink:href="#p"/>
  <use x="103.132812" y="581.875" xlink:href="#a"/>
  <use x="106.890625" y="581.875" xlink:href="#f"/>
  <use x="110.785156" y="581.875" xlink:href="#g"/>
  <use x="116.582031" y="581.875" xlink:href="#o"/>
  <use x="120.589844" y="581.875" xlink:href="#d"/>
  <use x="123.285156" y="581.875" xlink:href="#a"/>
  <use x="127.042969" y="581.875" xlink:href="#n"/>
  <use x="128.917969" y="581.875" xlink:href="#c"/>
  <use x="132.625" y="581.875" xlink:href="#m"/>
  <use x="135.867188" y="581.875" xlink:href="#b"/>
 </g>
</svg>
