<?xml version="1.0" encoding="UTF-8"?>
<svg width="700pt" height="700pt" version="1.1" viewBox="0 0 700 700" xmlns="http://www.w3.org/2000/svg" xmlns:xlink="http://www.w3.org/1999/xlink">
 <defs>
  <symbol id="m" overflow="visible">
   <path d="m29.312-1.75c-1.5117 0.78125-3.0898 1.3711-4.7344 1.7656-1.6367 0.40625-3.3398 0.60938-5.1094 0.60938-5.3125 0-9.5273-1.4844-12.641-4.4531-3.1055-2.9688-4.6562-7-4.6562-12.094s1.5508-9.125 4.6562-12.094c3.1133-2.9688 7.3281-4.4531 12.641-4.4531 1.7695 0 3.4727 0.19922 5.1094 0.59375 1.6445 0.39844 3.2227 0.99219 4.7344 1.7812v6.5938c-1.5312-1.0391-3.0391-1.8008-4.5156-2.2812-1.4805-0.48828-3.0391-0.73438-4.6719-0.73438-2.9375 0-5.2461 0.94531-6.9219 2.8281-1.6797 1.875-2.5156 4.4648-2.5156 7.7656 0 3.293 0.83594 5.8828 2.5156 7.7656 1.6758 1.875 3.9844 2.8125 6.9219 2.8125 1.6328 0 3.1914-0.23828 4.6719-0.71875 1.4766-0.48828 2.9844-1.2539 4.5156-2.2969z"/>
  </symbol>
  <symbol id="d" overflow="visible">
   <path d="m21.453-17.406c-0.67969-0.3125-1.3516-0.53906-2.0156-0.6875-0.65625-0.15625-1.3203-0.23438-1.9844-0.23438-1.9688 0-3.4844 0.63281-4.5469 1.8906-1.0547 1.2617-1.5781 3.0703-1.5781 5.4219v11.016h-7.6562v-23.922h7.6562v3.9219c0.97656-1.5625 2.1016-2.7031 3.375-3.4219 1.2812-0.71875 2.8125-1.0781 4.5938-1.0781 0.25 0 0.52344 0.011719 0.82812 0.03125 0.30078 0.023438 0.73438 0.070312 1.2969 0.14062z"/>
  </symbol>
  <symbol id="a" overflow="visible">
   <path d="m27.562-12.031v2.1875h-17.891c0.1875 1.793 0.83203 3.1367 1.9375 4.0312 1.1133 0.89844 2.6719 1.3438 4.6719 1.3438 1.6016 0 3.25-0.23438 4.9375-0.70312 1.6875-0.47656 3.4219-1.2031 5.2031-2.1719v5.8906c-1.8047 0.6875-3.6094 1.2031-5.4219 1.5469-1.8125 0.35156-3.6211 0.53125-5.4219 0.53125-4.3359 0-7.7031-1.0977-10.109-3.2969-2.3984-2.207-3.5938-5.2969-3.5938-9.2656 0-3.9062 1.1758-6.9727 3.5312-9.2031 2.3633-2.2383 5.6094-3.3594 9.7344-3.3594 3.7578 0 6.7695 1.1367 9.0312 3.4062 2.2578 2.2617 3.3906 5.2812 3.3906 9.0625zm-7.8594-2.5312c0-1.457-0.42969-2.6289-1.2812-3.5156-0.84375-0.89453-1.9492-1.3438-3.3125-1.3438-1.4922 0-2.6992 0.41797-3.625 1.25-0.91797 0.83594-1.4922 2.0391-1.7188 3.6094z"/>
  </symbol>
  <symbol id="c" overflow="visible">
   <path d="m14.391-10.766c-1.5938 0-2.793 0.27344-3.5938 0.8125-0.80469 0.54297-1.2031 1.3398-1.2031 2.3906 0 0.96875 0.32031 1.7305 0.96875 2.2812 0.64453 0.54297 1.5469 0.8125 2.7031 0.8125 1.4375 0 2.6445-0.51562 3.625-1.5469 0.98828-1.0312 1.4844-2.3203 1.4844-3.875v-0.875zm11.688-2.8906v13.656h-7.7031v-3.5469c-1.0312 1.4492-2.1875 2.5078-3.4688 3.1719s-2.8398 1-4.6719 1c-2.4805 0-4.4961-0.72266-6.0469-2.1719-1.543-1.4453-2.3125-3.3203-2.3125-5.625 0-2.8125 0.96094-4.8672 2.8906-6.1719 1.9375-1.3125 4.9688-1.9688 9.0938-1.9688h4.5156v-0.60938c0-1.207-0.48047-2.0938-1.4375-2.6562-0.94922-0.5625-2.4375-0.84375-4.4688-0.84375-1.6367 0-3.1562 0.16797-4.5625 0.5-1.4062 0.32422-2.7188 0.8125-3.9375 1.4688v-5.8281c1.6445-0.40625 3.2891-0.70703 4.9375-0.90625 1.6562-0.20703 3.3047-0.3125 4.9531-0.3125 4.3203 0 7.4375 0.85547 9.3438 2.5625 1.9141 1.6992 2.875 4.4609 2.875 8.2812z"/>
  </symbol>
  <symbol id="b" overflow="visible">
   <path d="m12.031-30.719v6.7969h7.875v5.4688h-7.875v10.141c0 1.1172 0.21875 1.8711 0.65625 2.2656 0.4375 0.38672 1.3125 0.57812 2.625 0.57812h3.9375v5.4688h-6.5625c-3.0234 0-5.1641-0.62891-6.4219-1.8906-1.2617-1.2578-1.8906-3.3984-1.8906-6.4219v-10.141h-3.7969v-5.4688h3.7969v-6.7969z"/>
  </symbol>
  <symbol id="i" overflow="visible">
   <path d="m19.953-20.422v-12.812h7.6875v33.234h-7.6875v-3.4531c-1.0547 1.4062-2.2148 2.4375-3.4844 3.0938-1.2734 0.65625-2.7422 0.98438-4.4062 0.98438-2.9492 0-5.3711-1.1719-7.2656-3.5156-1.8867-2.3438-2.8281-5.3594-2.8281-9.0469s0.94141-6.7031 2.8281-9.0469c1.8945-2.3438 4.3164-3.5156 7.2656-3.5156 1.6562 0 3.1172 0.33594 4.3906 1 1.2812 0.65625 2.4453 1.6836 3.5 3.0781zm-5.0469 15.484c1.6445 0 2.8945-0.59766 3.75-1.7969 0.86328-1.1953 1.2969-2.9297 1.2969-5.2031 0-2.2812-0.43359-4.0195-1.2969-5.2188-0.85547-1.1953-2.1055-1.7969-3.75-1.7969-1.625 0-2.8711 0.60156-3.7344 1.7969-0.85547 1.1992-1.2812 2.9375-1.2812 5.2188 0 2.2734 0.42578 4.0078 1.2812 5.2031 0.86328 1.1992 2.1094 1.7969 3.7344 1.7969z"/>
  </symbol>
  <symbol id="h" overflow="visible">
   <path d="m16.406-4.9375c1.6328 0 2.8828-0.59766 3.75-1.7969 0.86328-1.1953 1.2969-2.9297 1.2969-5.2031 0-2.2812-0.43359-4.0195-1.2969-5.2188-0.86719-1.1953-2.1172-1.7969-3.75-1.7969-1.6367 0-2.8906 0.60547-3.7656 1.8125-0.875 1.1992-1.3125 2.9336-1.3125 5.2031 0 2.2617 0.4375 3.9961 1.3125 5.2031 0.875 1.1992 2.1289 1.7969 3.7656 1.7969zm-5.0781-15.484c1.0508-1.3945 2.2188-2.4219 3.5-3.0781 1.2812-0.66406 2.7539-1 4.4219-1 2.9453 0 5.3672 1.1719 7.2656 3.5156 1.8945 2.3438 2.8438 5.3594 2.8438 9.0469s-0.94922 6.7031-2.8438 9.0469c-1.8984 2.3438-4.3203 3.5156-7.2656 3.5156-1.668 0-3.1406-0.33594-4.4219-1s-2.4492-1.6914-3.5-3.0781v3.4531h-7.6562v-33.234h7.6562z"/>
  </symbol>
  <symbol id="g" overflow="visible">
   <path d="m0.53125-23.922h7.6562l6.4219 16.234 5.4688-16.234h7.6562l-10.062 26.188c-1.0117 2.6641-2.1953 4.5234-3.5469 5.5781-1.3438 1.0625-3.1211 1.5938-5.3281 1.5938h-4.4219v-5.0156h2.3906c1.3008 0 2.2422-0.21094 2.8281-0.625 0.59375-0.40625 1.0547-1.1484 1.3906-2.2188l0.20312-0.65625z"/>
  </symbol>
  <symbol id="f" overflow="visible">
   <path d="m0.21875-31.891h8.2656l8.4531 23.531 8.4375-23.531h8.2656l-11.812 31.891h-9.7969z"/>
  </symbol>
  <symbol id="e" overflow="visible">
   <path d="m23-23.172v6.2344c-1.0312-0.71875-2.0742-1.2422-3.125-1.5781-1.043-0.34375-2.125-0.51562-3.25-0.51562-2.1367 0-3.8047 0.625-5 1.875-1.1875 1.2422-1.7812 2.9805-1.7812 5.2188 0 2.2305 0.59375 3.9688 1.7812 5.2188 1.1953 1.25 2.8633 1.875 5 1.875 1.1953 0 2.332-0.17578 3.4062-0.53125 1.0703-0.36328 2.0625-0.89453 2.9688-1.5938v6.2656c-1.1875 0.4375-2.4023 0.76562-3.6406 0.98438-1.2305 0.22656-2.4648 0.34375-3.7031 0.34375-4.3125 0-7.6875-1.1094-10.125-3.3281s-3.6562-5.2969-3.6562-9.2344c0-3.9453 1.2188-7.0234 3.6562-9.2344 2.4375-2.2188 5.8125-3.3281 10.125-3.3281 1.25 0 2.4844 0.10938 3.7031 0.32812s2.4297 0.55469 3.6406 1z"/>
  </symbol>
  <symbol id="l" overflow="visible">
   <path d="m15.062-19.031c-1.6992 0-2.9961 0.60938-3.8906 1.8281-0.88672 1.2188-1.3281 2.9766-1.3281 5.2656 0 2.293 0.44141 4.0469 1.3281 5.2656 0.89453 1.2188 2.1914 1.8281 3.8906 1.8281 1.6641 0 2.9375-0.60938 3.8125-1.8281 0.88281-1.2188 1.3281-2.9727 1.3281-5.2656 0-2.2891-0.44531-4.0469-1.3281-5.2656-0.875-1.2188-2.1484-1.8281-3.8125-1.8281zm0-5.4688c4.1133 0 7.3281 1.1094 9.6406 3.3281s3.4688 5.2969 3.4688 9.2344c0 3.9297-1.1562 7.0078-3.4688 9.2344-2.3125 2.2188-5.5273 3.3281-9.6406 3.3281-4.1367 0-7.3711-1.1094-9.7031-3.3281-2.3242-2.2266-3.4844-5.3047-3.4844-9.2344 0-3.9375 1.1602-7.0156 3.4844-9.2344 2.332-2.2188 5.5664-3.3281 9.7031-3.3281z"/>
  </symbol>
  <symbol id="k" overflow="visible">
   <path d="m4.0156-31.891h13.656c4.0508 0 7.1602 0.90234 9.3281 2.7031 2.1758 1.8047 3.2656 4.3711 3.2656 7.7031 0 3.3438-1.0898 5.918-3.2656 7.7188-2.168 1.8047-5.2773 2.7031-9.3281 2.7031h-5.4375v11.062h-8.2188zm8.2188 5.9531v8.9062h4.5625c1.5938 0 2.8203-0.38281 3.6875-1.1562 0.875-0.78125 1.3125-1.8789 1.3125-3.2969 0-1.4258-0.4375-2.5234-1.3125-3.2969-0.86719-0.76953-2.0938-1.1562-3.6875-1.1562z"/>
  </symbol>
  <symbol id="j" overflow="visible">
   <path d="m3.6719-33.234h7.6562v33.234h-7.6562z"/>
  </symbol>
 </defs>
 <g>
  <path d="m312.9 461.12c-3.0391-0.011719-5.8555-1.6016-7.4375-4.1992-32.113-52.5-41.738-102.99-28.613-148.75 20.652-71.926 88.203-107.45 91.09-108.94 3.0273-1.5547 6.6758-1.2109 9.3633 0.875 16.449 12.863 29.836 18.637 37.973 15.223 4.8203-2.5586 8.2266-7.1562 9.2773-12.512 0.58984-3.1719 2.875-5.7578 5.9492-6.7383 3.0664-0.98828 6.4258-0.21484 8.75 2.0156 5.8867 7.0195 14.551 11.113 23.711 11.199 4.6289-0.99219 8.7539-3.5977 11.641-7.3516-60.199-81.461-123.55-86.801-166.25-76.648-70.613 16.801-135.1 89.949-146.82 166.25-7.8789 49.086-39.027 69.738-68.777 83.562-4.375 2.0508-9.582 0.17188-11.637-4.1992-2.0547-4.375-0.17188-9.5859 4.1992-11.641 36.574-17.5 53.551-37.273 58.539-70 12.949-84.613 81.812-162.4 160.12-180.95 69.301-16.449 136.15 14.961 188.39 88.461v0.003906c1.7578 2.5938 1.9883 5.9336 0.61328 8.75-5.6094 10.57-15.547 18.172-27.215 20.824-10.344 1.3359-20.797-1.5-29.051-7.875-3.4766 5.8711-8.7969 10.422-15.137 12.949-13.387 5.0742-30.273 0-50.312-14.176-15.051 8.75-62.301 41.039-77.613 95.199-11.637 41.301-2.625 86.711 26.773 135.1h0.003906c1.2188 1.9922 1.5898 4.3906 1.0312 6.6562-0.55859 2.2695-2.0039 4.2188-4.0078 5.418-1.3477 0.91016-2.9219 1.4258-4.5508 1.4883z"/>
  <path d="m216.56 396.29h-0.875c-4.8086-0.46094-8.332-4.7305-7.875-9.5391 8.75-96.25 36.312-157.5 80.762-182.88 26.742-14.781 58.766-16.555 86.977-4.8125 4.3984 2.0312 6.3164 7.2383 4.2852 11.637-2.0273 4.3984-7.2383 6.3164-11.637 4.2891-23.117-9.4922-49.297-7.9453-71.137 4.1992-38.586 22.312-63.438 80.852-71.836 169.14-0.40625 4.4883-4.1562 7.9375-8.6641 7.9648z"/>
  <path d="m372.84 459.02c-4.832 0-8.75-3.9141-8.75-8.75v-101.15c0-4.832 3.918-8.75 8.75-8.75 4.8359 0 8.75 3.918 8.75 8.75v101.15c0 2.3203-0.92188 4.5469-2.5625 6.1875-1.6406 1.6406-3.8672 2.5625-6.1875 2.5625z"/>
  <path d="m540.93 502.25h-76.652c-4.832 0-8.75-3.918-8.75-8.75s3.918-8.75 8.75-8.75h67.898l0.003906-135.62c0-4.832 3.918-8.75 8.75-8.75s8.75 3.918 8.75 8.75v144.38c0 2.3203-0.92188 4.5469-2.5625 6.1875s-3.8672 2.5625-6.1875 2.5625z"/>
  <path d="m343.26 382.29c-3.6367-0.007812-6.8906-2.2617-8.1719-5.6641-1.2852-3.4023-0.32812-7.2461 2.3984-9.6484l113.14-98.789c3.3047-2.9023 8.2461-2.9023 11.551 0l113.75 98.699c1.8359 1.4961 2.9844 3.6719 3.1875 6.0312 0.20703 2.3594-0.55469 4.6992-2.1055 6.4883-1.5508 1.7852-3.7617 2.8711-6.125 3-2.3633 0.13281-4.6797-0.69922-6.4219-2.3047l-107.97-93.715-107.45 93.715c-1.5977 1.4062-3.6484 2.1836-5.7773 2.1875z"/>
  <path d="m148.75 502.25h-59.762c-4.832 0-8.75-3.918-8.75-8.75s3.918-8.75 8.75-8.75h59.762c4.832 0 8.75 3.918 8.75 8.75s-3.918 8.75-8.75 8.75z"/>
  <path d="m249.81 502.25h-49.438c-4.832 0-8.75-3.918-8.75-8.75s3.918-8.75 8.75-8.75h49.438c4.832 0 8.75 3.918 8.75 8.75s-3.918 8.75-8.75 8.75z"/>
  <path d="m464.27 502.25h-119.61c-4.8359 0-8.75-3.918-8.75-8.75s3.9141-8.75 8.75-8.75h93.625c-11.648-7.2305-23.918-13.41-36.664-18.461-38.938-15.574-86.363-5.4258-86.801-5.3359v-0.003906c-4.832 1.0391-9.5898-2.0352-10.629-6.8672-1.0391-4.832 2.0352-9.5938 6.8672-10.633 2.1016-0.52344 53.023-11.375 97.039 6.2109v0.003906c23.109 8.2109 44.371 20.91 62.562 37.359 2.4219 2.543 3.0898 6.2852 1.6992 9.5078-1.3945 3.2227-4.5781 5.3047-8.0898 5.2812z"/>
  <path d="m208.95 429.98c-1.4805-0.046874-2.9258-0.46875-4.1992-1.2266-34.172-20.387-76.473-21.578-111.74-3.1484-4.2734 2.0273-9.3867 0.28906-11.539-3.9258-2.1562-4.2109-0.57031-9.375 3.5781-11.652 40.375-21.227 88.879-19.969 128.1 3.3281 3.5352 1.9062 5.3164 5.9727 4.3242 9.8633-0.99219 3.8906-4.5078 6.6055-8.5234 6.5859z"/>
  <path d="m317.54 364.79c-4.8359 0-8.75-3.918-8.75-8.75 0.25391-8.5469 1.1602-17.059 2.7109-25.465 0.87109-4.832 5.4922-8.043 10.324-7.1758 4.832 0.87109 8.0469 5.4922 7.1758 10.328-1.3359 7.6055-2.1562 15.293-2.4492 23.012-0.37109 4.6602-4.3398 8.2031-9.0117 8.0508z"/>
  <path d="m333.02 302.57c-1.4336-0.007813-2.8477-0.36719-4.1094-1.0508-2.0625-1.0938-3.6016-2.9648-4.2734-5.1992-0.67578-2.2344-0.42969-4.6484 0.68359-6.6992 10.102-19.902 26.805-35.68 47.25-44.625 4.4375-1.2656 9.0938 1.1328 10.641 5.4766 1.5508 4.3477-0.54297 9.1484-4.7773 10.973-16.332 7.5977-29.617 20.484-37.711 36.574-1.5391 2.8164-4.4961 4.5586-7.7031 4.5508z"/>
  <path d="m571.46 148.14h-75.25c-12.715 0.23047-24.805-5.5117-32.66-15.516-7.8594-10-10.574-23.105-7.3359-35.406 3.2344-12.301 12.047-22.375 23.809-27.215 2.4492-7.668 7.2852-14.352 13.801-19.078 6.5195-4.7227 14.375-7.2344 22.426-7.1719 10.852 0.003906 21.188 4.6172 28.438 12.688 3.8281-1.7148 7.9688-2.6094 12.164-2.625 7.625 0.0625 14.938 3.0586 20.414 8.3711 5.4727 5.3125 8.6914 12.531 8.9844 20.152 9.0625 4.8672 15.523 13.473 17.672 23.531 2.1484 10.059-0.23828 20.555-6.5234 28.695-6.2852 8.1406-15.836 13.105-26.109 13.574zm-55.211-86.887c-4.9102-0.007812-9.6602 1.7578-13.375 4.9727-3.7148 3.2188-6.1406 7.6641-6.8359 12.527-0.54687 3.3359-2.9648 6.0625-6.2148 7-7.1562 2.1289-12.848 7.5703-15.297 14.621-2.4492 7.0547-1.3516 14.852 2.9492 20.957 4.2969 6.1016 11.27 9.7617 18.734 9.8359h75.25c5.2539-0.65625 9.9297-3.6523 12.715-8.1562 2.7891-4.5 3.3867-10.023 1.6328-15.016-1.7578-4.9961-5.6797-8.9258-10.672-10.691-2.2891-0.51953-4.2773-1.9375-5.5117-3.9375-1.3125-2.1562-1.6328-4.7695-0.875-7.1758 0.10938-0.96094 0.10938-1.9297 0-2.8867 0.03125-4.8633-2.8594-9.2695-7.3281-11.18-4.4727-1.9102-9.6523-0.95312-13.148 2.4297-1.9883 1.9375-4.7812 2.8125-7.5234 2.3633-2.7461-0.44531-5.1172-2.168-6.3867-4.6406-1.7188-3.3203-4.3164-6.1055-7.5117-8.0508-3.1953-1.9453-6.8633-2.9727-10.602-2.9727z"/>
  <path d="m467.25 101.94h-15.836c-11.449 0.37109-22.402-4.6641-29.57-13.594s-9.7188-20.715-6.8789-31.809 10.734-20.207 21.309-24.598c3.7773-11.48 13.328-20.121 25.129-22.727 11.805-2.6016 24.105 1.2109 32.359 10.039 3.2578-1.2773 6.7422-1.875 10.238-1.75 7.1484 0 14.004 2.8398 19.055 7.8945 5.0547 5.0547 7.8945 11.906 7.8945 19.055-0.007813 2.1602-0.30078 4.3086-0.875 6.3867-1.1641 4.6875-5.8984 7.5469-10.586 6.3906-4.6875-1.1641-7.543-5.9023-6.3867-10.59 0.10547-0.72266 0.10547-1.4609 0-2.1875 0-5.0859-4.0195-9.2617-9.1016-9.4492-2.4336 0.011719-4.7617 0.98828-6.4766 2.7109-2.0039 1.9062-4.7969 2.75-7.5234 2.2773-2.8164-0.51953-5.2031-2.3789-6.3867-4.9883-2.1641-4.1797-5.9844-7.2539-10.531-8.4688s-9.3945-0.45703-13.352 2.0898c-3.9609 2.543-6.6602 6.6406-7.4414 11.277-0.54687 3.3398-2.9648 6.0664-6.2148 7-5.8711 1.7461-10.539 6.2188-12.539 12.008-1.9961 5.793-1.0781 12.191 2.4688 17.184 3.5469 4.9961 9.2812 7.9727 15.41 7.9961h15.836c4.832 0 8.75 3.918 8.75 8.75 0 4.8359-3.918 8.75-8.75 8.75z"/>
  <path d="m508.02 190.14c-3.4883 0.011719-6.6523-2.0508-8.0469-5.25l-3.9375-8.75c-0.9375-2.1328-0.98437-4.5508-0.12891-6.7227 0.85547-2.168 2.5391-3.9023 4.6758-4.8281 4.4219-1.8906 9.543 0.14062 11.465 4.5508l3.9375 8.75c0.94141 2.125 1 4.5352 0.16406 6.6992-0.83984 2.168-2.5039 3.9141-4.6289 4.8516-1.1055 0.47266-2.2969 0.71094-3.5 0.69922z"/>
  <path d="m522.64 226.19c-3.4375-0.007812-6.5508-2.0273-7.9609-5.1641l-3.9375-8.75c-1.957-4.4219 0.039063-9.5898 4.4609-11.547 4.4219-1.957 9.5938 0.039063 11.551 4.4609l3.9375 8.75c0.9375 2.1328 0.98047 4.5547 0.12891 6.7227-0.85547 2.168-2.5391 3.9062-4.6797 4.8281-1.1133 0.44922-2.3008 0.6875-3.5 0.69922z"/>
  <path d="m537.34 262.5c-3.4883 0.011719-6.6523-2.0508-8.0469-5.25l-3.9375-8.75c-1.957-4.4219 0.039063-9.5938 4.4609-11.551s9.5938 0.042969 11.551 4.4648l3.9375 8.75c0.94141 2.1211 1 4.5312 0.16406 6.6992-0.83984 2.1641-2.5039 3.9102-4.6289 4.8477-1.1094 0.47266-2.293 0.74219-3.5 0.78906z"/>
  <path d="m544.86 190.14c-3.4922 0.011719-6.6562-2.0508-8.0508-5.25l-3.9375-8.75c-0.9375-2.1328-0.98047-4.5508-0.12891-6.7227 0.85547-2.168 2.5391-3.9023 4.6797-4.8281 4.4219-1.8906 9.5391 0.14062 11.461 4.5508l3.9375 8.75c0.94141 2.125 1 4.5352 0.16406 6.6992-0.83594 2.168-2.5 3.9141-4.625 4.8516-1.1055 0.47266-2.2969 0.71094-3.5 0.69922z"/>
  <path d="m559.48 226.19c-3.4375-0.007812-6.5547-2.0273-7.9648-5.1641l-3.9375-8.75c-1.957-4.4219 0.042969-9.5898 4.4648-11.547 4.4219-1.957 9.5898 0.039063 11.547 4.4609l3.9375 8.75c0.9375 2.1328 0.98437 4.5547 0.12891 6.7227-0.85547 2.168-2.5391 3.9062-4.6758 4.8281-1.1133 0.44922-2.3008 0.6875-3.5 0.69922z"/>
  <path d="m574.18 262.5c-3.4922 0.011719-6.6562-2.0508-8.0508-5.25l-3.9375-8.75c-1.957-4.4219 0.039062-9.5938 4.4609-11.551 4.4219-1.957 9.5938 0.042969 11.551 4.4648l3.9375 8.75c1.8828 4.4453-0.19531 9.5742-4.6367 11.461-1.0508 0.48047-2.1758 0.77734-3.3242 0.875z"/>
  <path d="m581.7 190.14c-3.4883 0.011719-6.6523-2.0508-8.0508-5.25l-3.9375-8.75c-0.93359-2.1328-0.98047-4.5508-0.125-6.7227 0.85156-2.168 2.5352-3.9023 4.6758-4.8281 4.4219-1.8906 9.543 0.14062 11.465 4.5508l3.9375 8.75c0.94141 2.125 1 4.5352 0.16016 6.6992-0.83594 2.168-2.5 3.9141-4.625 4.8516-1.1055 0.47266-2.2969 0.71094-3.5 0.69922z"/>
  <path d="m596.31 226.19c-3.4375-0.007812-6.5547-2.0273-7.9609-5.1641l-3.9375-8.75c-1.957-4.4219 0.039063-9.5898 4.4609-11.547 4.4219-1.957 9.5938 0.039063 11.551 4.4609l3.9375 8.75c0.93359 2.1328 0.98047 4.5547 0.12891 6.7227-0.85547 2.168-2.5391 3.9062-4.6797 4.8281-1.1133 0.44922-2.3008 0.6875-3.5 0.69922z"/>
  <path d="m611.01 262.5c-3.4883 0.011719-6.6523-2.0508-8.0508-5.25l-3.9375-8.75c-1.957-4.4219 0.042968-9.5938 4.4648-11.551s9.5938 0.042969 11.551 4.4648l3.9375 8.75c0.94141 2.1211 1 4.5312 0.16016 6.6992-0.83594 2.1641-2.5 3.9102-4.625 4.8477-1.1094 0.47266-2.293 0.74219-3.5 0.78906z"/>
  <path d="m489.12 502.16c-4.832 0-8.75-3.918-8.75-8.75v-68.688c0.39453-6.4805-1.9023-12.836-6.3516-17.562-4.4453-4.7305-10.652-7.4102-17.141-7.4102-6.4922 0-12.695 2.6797-17.145 7.4102-4.4492 4.7266-6.7461 11.082-6.3516 17.562v42.352-0.003906c0 4.832-3.918 8.75-8.75 8.75s-8.75-3.918-8.75-8.75v-42.348c-0.51562-11.203 3.5703-22.125 11.312-30.234 7.7461-8.1094 18.469-12.699 29.684-12.699 11.211 0 21.934 4.5898 29.68 12.699 7.7422 8.1094 11.832 19.031 11.312 30.234v68.688c0 2.3203-0.92188 4.543-2.5625 6.1875-1.6406 1.6406-3.8672 2.5625-6.1875 2.5625z"/>
  <path d="m607.07 502.25h-66.148c-4.832 0-8.75-3.918-8.75-8.75s3.918-8.75 8.75-8.75h66.148c4.832 0 8.75 3.918 8.75 8.75s-3.918 8.75-8.75 8.75z"/>
  <path d="m350 551.25h-90.125c-4.832 0-8.75-3.918-8.75-8.75s3.918-8.75 8.75-8.75h90.125c4.832 0 8.75 3.918 8.75 8.75s-3.918 8.75-8.75 8.75z"/>
  <path d="m456.84 551.25h-44.973c-4.832 0-8.75-3.918-8.75-8.75s3.918-8.75 8.75-8.75h44.977-0.003906c4.8359 0 8.75 3.918 8.75 8.75s-3.9141 8.75-8.75 8.75z"/>
  <path d="m558.34 551.25h-22.484c-4.8359 0-8.75-3.918-8.75-8.75s3.9141-8.75 8.75-8.75h22.488-0.003906c4.8359 0 8.75 3.918 8.75 8.75s-3.9141 8.75-8.75 8.75z"/>
  <path d="m173.25 551.25h-21.176c-4.832 0-8.75-3.918-8.75-8.75s3.918-8.75 8.75-8.75h21.176c4.832 0 8.75 3.918 8.75 8.75s-3.918 8.75-8.75 8.75z"/>
  <use x="70" y="691.25" xlink:href="#m"/>
  <use x="102.109375" y="691.25" xlink:href="#d"/>
  <use x="123.683594" y="691.25" xlink:href="#a"/>
  <use x="153.355469" y="691.25" xlink:href="#c"/>
  <use x="182.878906" y="691.25" xlink:href="#b"/>
  <use x="203.792969" y="691.25" xlink:href="#a"/>
  <use x="233.464844" y="691.25" xlink:href="#i"/>
  <use x="280.011719" y="691.25" xlink:href="#h"/>
  <use x="311.328125" y="691.25" xlink:href="#g"/>
  <use x="355.078125" y="691.25" xlink:href="#f"/>
  <use x="388.9375" y="691.25" xlink:href="#a"/>
  <use x="418.613281" y="691.25" xlink:href="#e"/>
  <use x="444.546875" y="691.25" xlink:href="#b"/>
  <use x="465.460938" y="691.25" xlink:href="#l"/>
  <use x="495.515625" y="691.25" xlink:href="#d"/>
  <use x="532.324219" y="691.25" xlink:href="#k"/>
  <use x="564.386719" y="691.25" xlink:href="#j"/>
  <use x="579.382812" y="691.25" xlink:href="#c"/>
  <use x="608.90625" y="691.25" xlink:href="#e"/>
  <use x="634.839844" y="691.25" xlink:href="#a"/>
 </g>
</svg>
