<?xml version="1.0" encoding="UTF-8"?>
<svg width="700pt" height="700pt" version="1.1" viewBox="0 0 700 700" xmlns="http://www.w3.org/2000/svg" xmlns:xlink="http://www.w3.org/1999/xlink">
 <defs>
  <symbol id="p" overflow="visible">
   <path d="m29.312-1.75c-1.5117 0.78125-3.0898 1.3711-4.7344 1.7656-1.6367 0.40625-3.3398 0.60938-5.1094 0.60938-5.3125 0-9.5273-1.4844-12.641-4.4531-3.1055-2.9688-4.6562-7-4.6562-12.094s1.5508-9.125 4.6562-12.094c3.1133-2.9688 7.3281-4.4531 12.641-4.4531 1.7695 0 3.4727 0.19922 5.1094 0.59375 1.6445 0.39844 3.2227 0.99219 4.7344 1.7812v6.5938c-1.5312-1.0391-3.0391-1.8008-4.5156-2.2812-1.4805-0.48828-3.0391-0.73438-4.6719-0.73438-2.9375 0-5.2461 0.94531-6.9219 2.8281-1.6797 1.875-2.5156 4.4648-2.5156 7.7656 0 3.293 0.83594 5.8828 2.5156 7.7656 1.6758 1.875 3.9844 2.8125 6.9219 2.8125 1.6328 0 3.1914-0.23828 4.6719-0.71875 1.4766-0.48828 2.9844-1.2539 4.5156-2.2969z"/>
  </symbol>
  <symbol id="d" overflow="visible">
   <path d="m21.453-17.406c-0.67969-0.3125-1.3516-0.53906-2.0156-0.6875-0.65625-0.15625-1.3203-0.23438-1.9844-0.23438-1.9688 0-3.4844 0.63281-4.5469 1.8906-1.0547 1.2617-1.5781 3.0703-1.5781 5.4219v11.016h-7.6562v-23.922h7.6562v3.9219c0.97656-1.5625 2.1016-2.7031 3.375-3.4219 1.2812-0.71875 2.8125-1.0781 4.5938-1.0781 0.25 0 0.52344 0.011719 0.82812 0.03125 0.30078 0.023438 0.73438 0.070312 1.2969 0.14062z"/>
  </symbol>
  <symbol id="c" overflow="visible">
   <path d="m27.562-12.031v2.1875h-17.891c0.1875 1.793 0.83203 3.1367 1.9375 4.0312 1.1133 0.89844 2.6719 1.3438 4.6719 1.3438 1.6016 0 3.25-0.23438 4.9375-0.70312 1.6875-0.47656 3.4219-1.2031 5.2031-2.1719v5.8906c-1.8047 0.6875-3.6094 1.2031-5.4219 1.5469-1.8125 0.35156-3.6211 0.53125-5.4219 0.53125-4.3359 0-7.7031-1.0977-10.109-3.2969-2.3984-2.207-3.5938-5.2969-3.5938-9.2656 0-3.9062 1.1758-6.9727 3.5312-9.2031 2.3633-2.2383 5.6094-3.3594 9.7344-3.3594 3.7578 0 6.7695 1.1367 9.0312 3.4062 2.2578 2.2617 3.3906 5.2812 3.3906 9.0625zm-7.8594-2.5312c0-1.457-0.42969-2.6289-1.2812-3.5156-0.84375-0.89453-1.9492-1.3438-3.3125-1.3438-1.4922 0-2.6992 0.41797-3.625 1.25-0.91797 0.83594-1.4922 2.0391-1.7188 3.6094z"/>
  </symbol>
  <symbol id="b" overflow="visible">
   <path d="m14.391-10.766c-1.5938 0-2.793 0.27344-3.5938 0.8125-0.80469 0.54297-1.2031 1.3398-1.2031 2.3906 0 0.96875 0.32031 1.7305 0.96875 2.2812 0.64453 0.54297 1.5469 0.8125 2.7031 0.8125 1.4375 0 2.6445-0.51562 3.625-1.5469 0.98828-1.0312 1.4844-2.3203 1.4844-3.875v-0.875zm11.688-2.8906v13.656h-7.7031v-3.5469c-1.0312 1.4492-2.1875 2.5078-3.4688 3.1719s-2.8398 1-4.6719 1c-2.4805 0-4.4961-0.72266-6.0469-2.1719-1.543-1.4453-2.3125-3.3203-2.3125-5.625 0-2.8125 0.96094-4.8672 2.8906-6.1719 1.9375-1.3125 4.9688-1.9688 9.0938-1.9688h4.5156v-0.60938c0-1.207-0.48047-2.0938-1.4375-2.6562-0.94922-0.5625-2.4375-0.84375-4.4688-0.84375-1.6367 0-3.1562 0.16797-4.5625 0.5-1.4062 0.32422-2.7188 0.8125-3.9375 1.4688v-5.8281c1.6445-0.40625 3.2891-0.70703 4.9375-0.90625 1.6562-0.20703 3.3047-0.3125 4.9531-0.3125 4.3203 0 7.4375 0.85547 9.3438 2.5625 1.9141 1.6992 2.875 4.4609 2.875 8.2812z"/>
  </symbol>
  <symbol id="i" overflow="visible">
   <path d="m12.031-30.719v6.7969h7.875v5.4688h-7.875v10.141c0 1.1172 0.21875 1.8711 0.65625 2.2656 0.4375 0.38672 1.3125 0.57812 2.625 0.57812h3.9375v5.4688h-6.5625c-3.0234 0-5.1641-0.62891-6.4219-1.8906-1.2617-1.2578-1.8906-3.3984-1.8906-6.4219v-10.141h-3.7969v-5.4688h3.7969v-6.7969z"/>
  </symbol>
  <symbol id="a" overflow="visible">
   <path d="m19.953-20.422v-12.812h7.6875v33.234h-7.6875v-3.4531c-1.0547 1.4062-2.2148 2.4375-3.4844 3.0938-1.2734 0.65625-2.7422 0.98438-4.4062 0.98438-2.9492 0-5.3711-1.1719-7.2656-3.5156-1.8867-2.3438-2.8281-5.3594-2.8281-9.0469s0.94141-6.7031 2.8281-9.0469c1.8945-2.3438 4.3164-3.5156 7.2656-3.5156 1.6562 0 3.1172 0.33594 4.3906 1 1.2812 0.65625 2.4453 1.6836 3.5 3.0781zm-5.0469 15.484c1.6445 0 2.8945-0.59766 3.75-1.7969 0.86328-1.1953 1.2969-2.9297 1.2969-5.2031 0-2.2812-0.43359-4.0195-1.2969-5.2188-0.85547-1.1953-2.1055-1.7969-3.75-1.7969-1.625 0-2.8711 0.60156-3.7344 1.7969-0.85547 1.1992-1.2812 2.9375-1.2812 5.2188 0 2.2734 0.42578 4.0078 1.2812 5.2031 0.86328 1.1992 2.1094 1.7969 3.7344 1.7969z"/>
  </symbol>
  <symbol id="h" overflow="visible">
   <path d="m16.406-4.9375c1.6328 0 2.8828-0.59766 3.75-1.7969 0.86328-1.1953 1.2969-2.9297 1.2969-5.2031 0-2.2812-0.43359-4.0195-1.2969-5.2188-0.86719-1.1953-2.1172-1.7969-3.75-1.7969-1.6367 0-2.8906 0.60547-3.7656 1.8125-0.875 1.1992-1.3125 2.9336-1.3125 5.2031 0 2.2617 0.4375 3.9961 1.3125 5.2031 0.875 1.1992 2.1289 1.7969 3.7656 1.7969zm-5.0781-15.484c1.0508-1.3945 2.2188-2.4219 3.5-3.0781 1.2812-0.66406 2.7539-1 4.4219-1 2.9453 0 5.3672 1.1719 7.2656 3.5156 1.8945 2.3438 2.8438 5.3594 2.8438 9.0469s-0.94922 6.7031-2.8438 9.0469c-1.8984 2.3438-4.3203 3.5156-7.2656 3.5156-1.668 0-3.1406-0.33594-4.4219-1s-2.4492-1.6914-3.5-3.0781v3.4531h-7.6562v-33.234h7.6562z"/>
  </symbol>
  <symbol id="g" overflow="visible">
   <path d="m0.53125-23.922h7.6562l6.4219 16.234 5.4688-16.234h7.6562l-10.062 26.188c-1.0117 2.6641-2.1953 4.5234-3.5469 5.5781-1.3438 1.0625-3.1211 1.5938-5.3281 1.5938h-4.4219v-5.0156h2.3906c1.3008 0 2.2422-0.21094 2.8281-0.625 0.59375-0.40625 1.0547-1.1484 1.3906-2.2188l0.20312-0.65625z"/>
  </symbol>
  <symbol id="f" overflow="visible">
   <path d="m4.0156-31.891h10.469l7.2656 17.062 7.2969-17.062h10.453v31.891h-7.7812v-23.328l-7.3438 17.203h-5.2188l-7.3438-17.203v23.328h-7.7969z"/>
  </symbol>
  <symbol id="o" overflow="visible">
   <path d="m4.4688-8.2656h7.6875v8.2656h-7.6875z"/>
  </symbol>
  <symbol id="e" overflow="visible">
   <path d="m18.578-26.516c-2.5 0-4.4453 0.92969-5.8281 2.7812-1.375 1.8555-2.0625 4.4609-2.0625 7.8125 0 3.3555 0.6875 5.9609 2.0625 7.8125 1.3828 1.8438 3.3281 2.7656 5.8281 2.7656 2.5195 0 4.4727-0.92188 5.8594-2.7656 1.3828-1.8516 2.0781-4.457 2.0781-7.8125 0-3.3516-0.69531-5.957-2.0781-7.8125-1.3867-1.8516-3.3398-2.7812-5.8594-2.7812zm0-5.9531c5.1328 0 9.1484 1.4688 12.047 4.4062 2.9062 2.9297 4.3594 6.9766 4.3594 12.141 0 5.1562-1.4531 9.2031-4.3594 12.141-2.8984 2.9375-6.9141 4.4062-12.047 4.4062-5.1055 0-9.1172-1.4688-12.031-4.4062-2.918-2.9375-4.375-6.9844-4.375-12.141 0-5.1641 1.457-9.2109 4.375-12.141 2.9141-2.9375 6.9258-4.4062 12.031-4.4062z"/>
  </symbol>
  <symbol id="n" overflow="visible">
   <path d="m3.6719-33.234h7.6562v18.094l8.7969-8.7812h8.8906l-11.688 10.969 12.594 12.953h-9.2656l-9.3281-9.9688v9.9688h-7.6562z"/>
  </symbol>
  <symbol id="m" overflow="visible">
   <path d="m3.6719-23.922h7.6562v23.922h-7.6562zm0-9.3125h7.6562v6.2344h-7.6562z"/>
  </symbol>
  <symbol id="l" overflow="visible">
   <path d="m3.6719-33.234h7.6562v33.234h-7.6562z"/>
  </symbol>
  <symbol id="k" overflow="visible">
   <path d="m27.734-14.562v14.562h-7.7031v-11.156c0-2.0625-0.046875-3.4844-0.14062-4.2656-0.085937-0.78125-0.24219-1.3594-0.46875-1.7344-0.30469-0.5-0.71094-0.88281-1.2188-1.1562-0.51172-0.28125-1.0938-0.42188-1.75-0.42188-1.5938 0-2.8516 0.61719-3.7656 1.8438-0.90625 1.2305-1.3594 2.9375-1.3594 5.125v11.766h-7.6562v-23.922h7.6562v3.5c1.1445-1.3945 2.3633-2.4219 3.6562-3.0781 1.3008-0.66406 2.7383-1 4.3125-1 2.7578 0 4.8516 0.85156 6.2812 2.5469 1.4375 1.6875 2.1562 4.1523 2.1562 7.3906z"/>
  </symbol>
  <symbol id="j" overflow="visible">
   <path d="m15.062-19.031c-1.6992 0-2.9961 0.60938-3.8906 1.8281-0.88672 1.2188-1.3281 2.9766-1.3281 5.2656 0 2.293 0.44141 4.0469 1.3281 5.2656 0.89453 1.2188 2.1914 1.8281 3.8906 1.8281 1.6641 0 2.9375-0.60938 3.8125-1.8281 0.88281-1.2188 1.3281-2.9727 1.3281-5.2656 0-2.2891-0.44531-4.0469-1.3281-5.2656-0.875-1.2188-2.1484-1.8281-3.8125-1.8281zm0-5.4688c4.1133 0 7.3281 1.1094 9.6406 3.3281s3.4688 5.2969 3.4688 9.2344c0 3.9297-1.1562 7.0078-3.4688 9.2344-2.3125 2.2188-5.5273 3.3281-9.6406 3.3281-4.1367 0-7.3711-1.1094-9.7031-3.3281-2.3242-2.2266-3.4844-5.3047-3.4844-9.2344 0-3.9375 1.1602-7.0156 3.4844-9.2344 2.332-2.2188 5.5664-3.3281 9.7031-3.3281z"/>
  </symbol>
 </defs>
 <g>
  <path d="m594.91 516.25h-17.5v-105h17.5c0.0625 0 0.11328-0.007812 0.17578 0 4.8281 0 8.75-3.9102 8.75-8.75 0-3.4492-1.9961-6.4219-4.8828-7.8477l-86.527-60.566c-3.0117-2.1016-7.0273-2.1016-10.027 0l-87.5 61.25c-3.1328 2.1875-4.4805 6.1602-3.3242 9.8008 1.1328 3.6367 4.5195 6.1133 8.3359 6.1133h17.5v105h-22.391c-10.922-12.547-56.359-71.066-56.359-175 0-40.469-10.344-47.75-77.613-95.121-13.57-9.5547-29.594-20.844-48.52-34.477-13.52-9.7461-57.617-46.855-57.617-115.4 0-28.297-4.9688-51.406-67.551-69.648-4.6211-1.3477-9.4961 1.3125-10.852 5.9492s1.3125 9.5 5.9492 10.848c54.953 16.023 54.953 33.086 54.953 52.852 0 76.852 49.664 118.63 64.891 129.61 18.98 13.676 35.062 25 48.676 34.59 67.559 47.57 70.184 50.59 70.184 80.805 0 124.69 61.207 187.33 63.812 189.94 1.6445 1.6445 3.8672 2.5625 6.1875 2.5625h183.75c4.8281 0 8.75-3.9102 8.75-8.75s-3.9219-8.75-8.75-8.75zm-87.5-164.32 59.742 41.816h-119.48zm-17.5 164.32v-70h35v70zm52.5 0v-78.75c0-4.8398-3.9219-8.75-8.75-8.75h-52.5c-4.8281 0-8.75 3.9102-8.75 8.75v78.75h-17.5v-105h105v105z"/>
  <path d="m196.22 156.83c-0.96094 10.613 7.918 23.406 16.215 27.344 4.543 2.1445 12.531 4.4609 19.32 4.4609 5.6602 0 10.078-1.5742 13.125-4.6562 7.4375-7.5156 8.0156-28.234 4.1289-36.48-3.7188-7.8594-14.91-19.152-25.566-17.211-8.2969 1.4727-26.129 14.676-27.223 26.543zm29.953-9.1719c1.8008 0.70703 5.4844 4.0703 7.0156 7.3047 1.3281 2.9062 0.82422 12.836-0.47266 16.125-0.24609 0.027343-0.55859 0.042968-0.95312 0.042968-3.6758 0-9.0117-1.4453-11.828-2.7734-2.5742-1.2266-6.5-7.4453-6.3594-9.4688 1.0117-3.0156 9.0156-9.7852 12.598-11.23z"/>
  <path d="m377.75 362.82c5.1641 3.332 16.355 8.9766 25.578 8.9766 3.2305 0 6.1172-0.66406 8.5742-1.9766 4.4727-2.3711 6.2461-7.0078 7.543-10.395 0.16797-0.4375 0.32422-0.88281 0.48047-1.2969 0.51562-0.070312 1.0586-0.13281 1.6094-0.20312 3.2812-0.4375 6.6758-0.89062 9.4922-2.5898 9.3789-5.6367 17.344-22.102 13.258-33.32-5.0234-13.746-30.379-25.348-43.645-25.348-14.105 0-31.352 12.082-36.191 25.348-4.9688 13.645 1.375 33.094 13.301 40.805zm3.1406-34.801c2.1094-5.793 12.461-13.852 19.75-13.852 8.6875 0 25.516 9.2031 27.188 13.797 0.69141 2.5742-2.7227 10.516-5.1367 12.039-0.91797 0.30469-2.2148 0.41016-3.4648 0.57031-2.8086 0.375-5.7148 0.76953-8.1992 1.9844-4.7422 2.3281-6.5703 7.1133-7.918 10.605-0.14062 0.36719-0.26953 0.74219-0.41016 1.1016-4.1406-0.29688-11.086-3.332-15.453-6.1523-5.4883-3.5469-8.332-14.688-6.3555-20.094z"/>
  <path d="m324.89 267.01c1.2148 0 2.3789-0.12109 3.4922-0.33984 17.414-3.5078 19.109-35.918 18.594-43.758-0.90234-13.676-19.059-43.758-36.34-43.758-0.26172 0-1.1562 0.035156-1.418 0.0625-5.9766 0.54297-11.418 4.2773-16.195 11.121-7.5156 10.754-13.484 30.117-10.379 41.781 3.6758 13.766 26.977 34.891 42.246 34.891zm-14.367-70.367c5.5117 0.83984 18.473 19.539 18.988 27.414 0.54297 8.25-2.3086 22.023-5.1289 25.418-6.8867-0.69922-22.906-14.691-24.816-21.875-2.1602-8.0586 6.5469-29.305 10.957-30.957z"/>
  <path d="m198.88 84.594c0.4375 0 1.6172-0.085938 2.0547-0.15625 8.8281-1.3398 12.355-11.48 11.961-17.922-0.47266-7.4219-10.543-17.633-19.441-16.887-4.6289 0.35156-9.0742 3.3242-12.207 8.1641-1.4961 2.3086-4.7422 8.3047-2.6602 14.105 2.418 6.7188 13.355 12.695 20.293 12.695z"/>
  <path d="m398.56 269.98c0.4375 0.070312 1.6172 0.15625 2.0664 0.15625 6.9297 0 17.867-5.9766 20.273-12.68 2.0898-5.8086-1.1562-11.812-2.6523-14.113-3.1328-4.8398-7.5781-7.8125-12.188-8.1641-9.1094-0.69922-18.988 9.4688-19.461 16.914-0.39453 6.418 3.1406 16.547 11.961 17.887z"/>
  <path d="m457.65 288.9c0.66406 0.16797 2.1094 0.33203 2.793 0.33203 3.6836 0 6.957-1.75 8.9844-4.8203 4.5234-6.8438 0.29687-16.93 0.11328-17.352-2.5977-6.0898-16.09-20.047-24.266-22.531-6.0977-1.8828-12.391 0.70703-15.418 6.2656-2.9062 5.3477-2.5742 12.73 0.80469 17.945 3.6953 5.707 19.016 18.305 26.988 20.16z"/>
  <use x="70" y="691.25" xlink:href="#p"/>
  <use x="102.109375" y="691.25" xlink:href="#d"/>
  <use x="123.683594" y="691.25" xlink:href="#c"/>
  <use x="153.355469" y="691.25" xlink:href="#b"/>
  <use x="182.878906" y="691.25" xlink:href="#i"/>
  <use x="203.792969" y="691.25" xlink:href="#c"/>
  <use x="233.464844" y="691.25" xlink:href="#a"/>
  <use x="280.011719" y="691.25" xlink:href="#h"/>
  <use x="311.328125" y="691.25" xlink:href="#g"/>
  <use x="355.078125" y="691.25" xlink:href="#f"/>
  <use x="398.617188" y="691.25" xlink:href="#o"/>
  <use x="430.46875" y="691.25" xlink:href="#e"/>
  <use x="467.660156" y="691.25" xlink:href="#n"/>
  <use x="496.753906" y="691.25" xlink:href="#m"/>
  <use x="526.984375" y="691.25" xlink:href="#e"/>
  <use x="564.175781" y="691.25" xlink:href="#d"/>
  <use x="585.75" y="691.25" xlink:href="#l"/>
  <use x="600.746094" y="691.25" xlink:href="#b"/>
  <use x="630.269531" y="691.25" xlink:href="#k"/>
  <use x="661.414062" y="691.25" xlink:href="#a"/>
  <use x="692.734375" y="691.25" xlink:href="#j"/>
 </g>
</svg>
