<?xml version="1.0" encoding="UTF-8"?>
<svg width="700pt" height="700pt" version="1.1" viewBox="0 0 700 700" xmlns="http://www.w3.org/2000/svg" xmlns:xlink="http://www.w3.org/1999/xlink">
 <defs>
  <symbol id="s" overflow="visible">
   <path d="m3.8125-0.23438c-0.19922 0.10547-0.40625 0.18359-0.625 0.23438-0.21094 0.050781-0.42969 0.078125-0.65625 0.078125-0.6875 0-1.2344-0.19141-1.6406-0.57812-0.40625-0.38281-0.60938-0.90625-0.60938-1.5625 0-0.66406 0.20312-1.1914 0.60938-1.5781 0.40625-0.38281 0.95312-0.57812 1.6406-0.57812 0.22656 0 0.44531 0.027344 0.65625 0.078125 0.21875 0.054687 0.42578 0.13281 0.625 0.23438v0.84375c-0.19922-0.125-0.39844-0.21875-0.59375-0.28125-0.1875-0.070312-0.39062-0.10938-0.60938-0.10938-0.375 0-0.67188 0.125-0.89062 0.375-0.21875 0.24219-0.32812 0.57812-0.32812 1.0156 0 0.42969 0.10938 0.76562 0.32812 1.0156 0.21875 0.24219 0.51562 0.35938 0.89062 0.35938 0.21875 0 0.42188-0.03125 0.60938-0.09375 0.19531-0.070312 0.39453-0.17188 0.59375-0.29688z"/>
  </symbol>
  <symbol id="e" overflow="visible">
   <path d="m2.7812-2.2656c-0.085938-0.039063-0.16797-0.066406-0.25-0.078125-0.085938-0.019531-0.17188-0.03125-0.26562-0.03125-0.25 0-0.44922 0.085938-0.59375 0.25-0.13672 0.15625-0.20312 0.38672-0.20312 0.6875v1.4375h-0.98438v-3.1094h0.98438v0.51562c0.125-0.20703 0.26953-0.35938 0.4375-0.45312 0.16406-0.09375 0.36328-0.14062 0.59375-0.14062 0.039062 0 0.078125 0.007812 0.10938 0.015625 0.039063 0 0.097656 0.007813 0.17188 0.015625z"/>
  </symbol>
  <symbol id="a" overflow="visible">
   <path d="m3.5781-1.5625v0.28125h-2.3125c0.019531 0.23047 0.10156 0.40625 0.25 0.53125 0.14453 0.11719 0.34375 0.17188 0.59375 0.17188 0.21875 0 0.4375-0.03125 0.65625-0.09375s0.44141-0.15625 0.67188-0.28125v0.76562c-0.24219 0.085938-0.48047 0.14844-0.71875 0.1875-0.23047 0.050781-0.46094 0.078125-0.6875 0.078125-0.5625 0-1-0.14062-1.3125-0.42188-0.3125-0.28906-0.46875-0.69141-0.46875-1.2031 0-0.50781 0.14844-0.91016 0.45312-1.2031 0.30078-0.28906 0.72266-0.4375 1.2656-0.4375 0.48828 0 0.87891 0.15234 1.1719 0.45312 0.28906 0.29297 0.4375 0.68359 0.4375 1.1719zm-1.0156-0.32812c0-0.1875-0.058594-0.33594-0.17188-0.45312-0.10547-0.125-0.24609-0.1875-0.42188-0.1875-0.19922 0-0.35938 0.058594-0.48438 0.17188-0.11719 0.10547-0.1875 0.26172-0.21875 0.46875z"/>
  </symbol>
  <symbol id="l" overflow="visible">
   <path d="m1.875-1.4062c-0.21094 0-0.36719 0.039062-0.46875 0.10938-0.10547 0.074219-0.15625 0.17969-0.15625 0.3125 0 0.125 0.039062 0.22656 0.125 0.29688 0.082031 0.074219 0.19531 0.10938 0.34375 0.10938 0.1875 0 0.34375-0.066406 0.46875-0.20312 0.13281-0.13281 0.20312-0.30078 0.20312-0.5v-0.125zm1.5156-0.375v1.7812h-1v-0.46875c-0.13672 0.19922-0.28906 0.33984-0.45312 0.42188-0.16797 0.082031-0.37109 0.125-0.60938 0.125-0.32422 0-0.58594-0.09375-0.78125-0.28125-0.19922-0.1875-0.29688-0.42969-0.29688-0.73438 0-0.36328 0.125-0.62891 0.375-0.79688 0.25-0.16406 0.64062-0.25 1.1719-0.25h0.59375v-0.078125c0-0.16406-0.0625-0.28516-0.1875-0.35938-0.125-0.070313-0.32031-0.10938-0.57812-0.10938-0.21875 0-0.42188 0.027344-0.60938 0.078125-0.17969 0.042969-0.34375 0.10547-0.5 0.1875v-0.76562c0.20703-0.050781 0.42188-0.085938 0.64062-0.10938 0.21875-0.03125 0.42969-0.046875 0.64062-0.046875 0.5625 0 0.96875 0.11719 1.2188 0.34375 0.25 0.21875 0.375 0.57422 0.375 1.0625z"/>
  </symbol>
  <symbol id="d" overflow="visible">
   <path d="m1.5625-4v0.89062h1.0312v0.70312h-1.0312v1.3281c0 0.14844 0.023438 0.24609 0.078125 0.29688 0.0625 0.042969 0.17578 0.0625 0.34375 0.0625h0.51562v0.71875h-0.84375c-0.39844 0-0.67969-0.078125-0.84375-0.23438-0.16797-0.16406-0.25-0.44531-0.25-0.84375v-1.3281h-0.48438v-0.70312h0.48438v-0.89062z"/>
  </symbol>
  <symbol id="k" overflow="visible">
   <path d="m2.5938-2.6562v-1.6719h1v4.3281h-1v-0.45312c-0.13672 0.1875-0.28906 0.32422-0.45312 0.40625-0.16797 0.082031-0.35938 0.125-0.57812 0.125-0.375 0-0.6875-0.14844-0.9375-0.45312-0.25-0.30078-0.375-0.69141-0.375-1.1719 0-0.47656 0.125-0.86719 0.375-1.1719 0.25-0.3125 0.5625-0.46875 0.9375-0.46875 0.21875 0 0.41016 0.046875 0.57812 0.14062 0.16406 0.085937 0.31641 0.21484 0.45312 0.39062zm-0.65625 2.0156c0.20703 0 0.36719-0.078125 0.48438-0.23438 0.11328-0.15625 0.17188-0.37891 0.17188-0.67188 0-0.30078-0.058594-0.53125-0.17188-0.6875-0.11719-0.15625-0.27734-0.23438-0.48438-0.23438-0.21094 0-0.37109 0.078125-0.48438 0.23438-0.11719 0.15625-0.17188 0.38672-0.17188 0.6875 0 0.29297 0.054688 0.51562 0.17188 0.67188 0.11328 0.15625 0.27344 0.23438 0.48438 0.23438z"/>
  </symbol>
  <symbol id="g" overflow="visible">
   <path d="m2.1406-0.64062c0.20703 0 0.36328-0.078125 0.46875-0.23438 0.11328-0.15625 0.17188-0.37891 0.17188-0.67188 0-0.30078-0.058594-0.53125-0.17188-0.6875-0.10547-0.15625-0.26172-0.23438-0.46875-0.23438-0.21875 0-0.38672 0.078125-0.5 0.23438-0.11719 0.15625-0.17188 0.38672-0.17188 0.6875 0 0.29297 0.054688 0.51562 0.17188 0.67188 0.11328 0.15625 0.28125 0.23438 0.5 0.23438zm-0.67188-2.0156c0.13281-0.17578 0.28516-0.30469 0.45312-0.39062 0.16406-0.09375 0.35938-0.14062 0.57812-0.14062 0.38281 0 0.69531 0.15625 0.9375 0.46875 0.25 0.30469 0.375 0.69531 0.375 1.1719 0 0.48047-0.125 0.87109-0.375 1.1719-0.24219 0.30469-0.55469 0.45312-0.9375 0.45312-0.21875 0-0.41406-0.042969-0.57812-0.125-0.16797-0.082031-0.32031-0.21875-0.45312-0.40625v0.45312h-0.98438v-4.3281h0.98438z"/>
  </symbol>
  <symbol id="f" overflow="visible">
   <path d="m0.0625-3.1094h1l0.84375 2.1094 0.70312-2.1094h1l-1.3125 3.4062c-0.13672 0.34375-0.29297 0.58203-0.46875 0.71875-0.16797 0.14453-0.39844 0.21875-0.6875 0.21875h-0.57812v-0.65625h0.3125c0.17578 0 0.30078-0.03125 0.375-0.09375 0.070312-0.054687 0.12891-0.14844 0.17188-0.28125l0.03125-0.078125z"/>
  </symbol>
  <symbol id="j" overflow="visible">
   <path d="m0.51562-4.1406h1.0781v4.1406h-1.0781z"/>
  </symbol>
  <symbol id="i" overflow="visible">
   <path d="m2.9844-3.0156v0.8125c-0.13672-0.09375-0.27344-0.16016-0.40625-0.20312-0.13672-0.039062-0.27734-0.0625-0.42188-0.0625-0.27344 0-0.48438 0.085938-0.64062 0.25-0.15625 0.15625-0.23438 0.38281-0.23438 0.67188 0 0.29297 0.078125 0.52344 0.23438 0.6875 0.15625 0.15625 0.36719 0.23438 0.64062 0.23438 0.15625 0 0.30078-0.019531 0.4375-0.0625 0.14453-0.050781 0.27344-0.125 0.39062-0.21875v0.8125c-0.15625 0.0625-0.3125 0.10156-0.46875 0.125-0.15625 0.03125-0.32031 0.046875-0.48438 0.046875-0.5625 0-1-0.14062-1.3125-0.42188-0.3125-0.28906-0.46875-0.69141-0.46875-1.2031 0-0.51953 0.15625-0.92188 0.46875-1.2031 0.3125-0.28906 0.75-0.4375 1.3125-0.4375 0.16406 0 0.32812 0.015625 0.48438 0.046875s0.3125 0.074219 0.46875 0.125z"/>
  </symbol>
  <symbol id="c" overflow="visible">
   <path d="m1.9531-2.4688c-0.21875 0-0.38672 0.078125-0.5 0.23438-0.11719 0.15625-0.17188 0.38672-0.17188 0.6875 0 0.29297 0.054688 0.52344 0.17188 0.6875 0.11328 0.15625 0.28125 0.23438 0.5 0.23438s0.38281-0.078125 0.5-0.23438c0.11328-0.16406 0.17188-0.39453 0.17188-0.6875 0-0.30078-0.058594-0.53125-0.17188-0.6875-0.11719-0.15625-0.28125-0.23438-0.5-0.23438zm0-0.71875c0.53906 0 0.95703 0.14844 1.25 0.4375 0.30078 0.29297 0.45312 0.69531 0.45312 1.2031 0 0.51172-0.15234 0.91406-0.45312 1.2031-0.29297 0.28125-0.71094 0.42188-1.25 0.42188-0.53125 0-0.94922-0.14062-1.25-0.42188-0.30469-0.28906-0.45312-0.69141-0.45312-1.2031 0-0.50781 0.14844-0.91016 0.45312-1.2031 0.30078-0.28906 0.71875-0.4375 1.25-0.4375z"/>
  </symbol>
  <symbol id="b" overflow="visible">
   <path d="m3.6094-1.8906v1.8906h-1v-1.4531c0-0.26953-0.011719-0.45312-0.03125-0.54688-0.011719-0.10156-0.027344-0.17969-0.046875-0.23438-0.042969-0.0625-0.10156-0.10938-0.17188-0.14062-0.0625-0.039062-0.13672-0.0625-0.21875-0.0625-0.21094 0-0.375 0.085938-0.5 0.25-0.11719 0.15625-0.17188 0.375-0.17188 0.65625v1.5312h-0.98438v-3.1094h0.98438v0.45312c0.15625-0.17578 0.31641-0.30469 0.48438-0.39062 0.16406-0.09375 0.34766-0.14062 0.54688-0.14062 0.36328 0 0.64062 0.10938 0.82812 0.32812s0.28125 0.54297 0.28125 0.96875z"/>
  </symbol>
  <symbol id="h" overflow="visible">
   <path d="m0.4375-1.2031v-1.9062h1v0.3125 0.64062 0.5c0 0.25 0.003906 0.43359 0.015625 0.54688 0.019531 0.10547 0.046875 0.18359 0.078125 0.23438 0.03125 0.0625 0.078125 0.11719 0.14062 0.15625 0.070313 0.03125 0.14844 0.046875 0.23438 0.046875 0.20703 0 0.36719-0.078125 0.48438-0.23438 0.125-0.16406 0.1875-0.39062 0.1875-0.67188v-1.5312h1v3.1094h-1v-0.45312c-0.14844 0.1875-0.30859 0.32422-0.48438 0.40625-0.16797 0.082031-0.35156 0.125-0.54688 0.125-0.35547 0-0.63281-0.10938-0.82812-0.32812-0.1875-0.21875-0.28125-0.53516-0.28125-0.95312z"/>
  </symbol>
  <symbol id="r" overflow="visible">
   <path d="m2.5312-4.3281v0.65625h-0.5625c-0.13672 0-0.23438 0.027344-0.29688 0.078125-0.054687 0.054688-0.078125 0.14062-0.078125 0.26562v0.21875h0.85938v0.70312h-0.85938v2.4062h-0.98438v-2.4062h-0.5v-0.70312h0.5v-0.21875c0-0.33203 0.09375-0.58203 0.28125-0.75 0.1875-0.16406 0.47656-0.25 0.875-0.25z"/>
  </symbol>
  <symbol id="q" overflow="visible">
   <path d="m3.3594-2.5938c0.125-0.1875 0.26953-0.33203 0.4375-0.4375 0.17578-0.10156 0.36719-0.15625 0.57812-0.15625 0.36328 0 0.63281 0.10938 0.8125 0.32812 0.1875 0.21875 0.28125 0.54297 0.28125 0.96875v1.8906h-0.98438v-1.625-0.0625-0.125c0-0.21875-0.039063-0.375-0.10938-0.46875-0.0625-0.10156-0.16406-0.15625-0.29688-0.15625-0.19922 0-0.35156 0.078125-0.45312 0.23438-0.09375 0.15625-0.14844 0.38281-0.15625 0.67188v1.5312h-1v-1.625c0-0.34375-0.03125-0.5625-0.09375-0.65625-0.054688-0.10156-0.15625-0.15625-0.3125-0.15625-0.1875 0-0.33594 0.078125-0.4375 0.23438-0.10547 0.15625-0.15625 0.38281-0.15625 0.67188v1.5312h-1v-3.1094h1v0.45312c0.125-0.17578 0.26562-0.30469 0.42188-0.39062 0.15625-0.09375 0.33203-0.14062 0.53125-0.14062 0.20703 0 0.39453 0.054688 0.5625 0.15625 0.16406 0.10547 0.28906 0.25 0.375 0.4375z"/>
  </symbol>
  <symbol id="p" overflow="visible">
   <path d="m3.6094-1.8906v1.8906h-1v-1.4375c0-0.28125-0.011719-0.46875-0.03125-0.5625-0.011719-0.10156-0.027344-0.17969-0.046875-0.23438-0.042969-0.0625-0.10156-0.10938-0.17188-0.14062-0.0625-0.039062-0.13672-0.0625-0.21875-0.0625-0.21094 0-0.375 0.085938-0.5 0.25-0.11719 0.15625-0.17188 0.375-0.17188 0.65625v1.5312h-0.98438v-4.3281h0.98438v1.6719c0.15625-0.17578 0.31641-0.30469 0.48438-0.39062 0.16406-0.09375 0.34766-0.14062 0.54688-0.14062 0.36328 0 0.64062 0.10938 0.82812 0.32812s0.28125 0.54297 0.28125 0.96875z"/>
  </symbol>
  <symbol id="o" overflow="visible">
   <path d="m0.51562-4.1406h1.2031l1.5 2.8438v-2.8438h1.0156v4.1406h-1.1875l-1.5156-2.8438v2.8438h-1.0156z"/>
  </symbol>
  <symbol id="n" overflow="visible">
   <path d="m0.51562-4.1406h1.7812c0.53125 0 0.9375 0.12109 1.2188 0.35938 0.28125 0.23047 0.42188 0.55859 0.42188 0.98438 0 0.4375-0.14062 0.77734-0.42188 1.0156-0.28125 0.23047-0.6875 0.34375-1.2188 0.34375h-0.70312v1.4375h-1.0781zm1.0781 0.76562v1.1562h0.59375c0.20703 0 0.36328-0.046875 0.46875-0.14062 0.11328-0.10156 0.17188-0.25 0.17188-0.4375s-0.058594-0.32812-0.17188-0.42188c-0.10547-0.10156-0.26172-0.15625-0.46875-0.15625z"/>
  </symbol>
  <symbol id="m" overflow="visible">
   <path d="m0.48438-3.1094h0.98438v3.0469c0 0.41406-0.10156 0.73438-0.29688 0.95312-0.19922 0.22656-0.49219 0.34375-0.875 0.34375h-0.48438v-0.65625h0.17188c0.1875 0 0.31641-0.046875 0.39062-0.14062 0.070312-0.085938 0.10938-0.25 0.10938-0.5zm0-1.2188h0.98438v0.8125h-0.98438z"/>
  </symbol>
 </defs>
 <g>
  <path d="m231.97 356.71c-3.4141 0-6.2617-2.6172-6.4883-6.0312l-5.5781-68.18c-0.33984-3.6406 2.3906-6.8281 6.0312-7.0586 3.6406-0.33984 6.8281 2.3906 7.0586 6.0312l5.5781 68.18c0.33984 3.6406-2.3906 6.8281-6.0312 7.0586h-0.57031z" fill-rule="evenodd"/>
  <path d="m355.92 325.53c-3.4141 0-6.2617-2.6172-6.4883-6.0312l-3.8711-47.348c-0.33984-3.6406 2.3906-6.8281 6.0312-7.0586 3.6406-0.33984 6.8281 2.3906 7.0586 6.0312l3.8711 47.348c0.33984 3.6406-2.3906 6.8281-6.0312 7.0586h-0.57031z" fill-rule="evenodd"/>
  <path d="m196.57 291.04c-2.5039 0-4.7812-1.4805-5.918-3.7578-1.1367-2.5039-0.68359-5.3477 1.1367-7.3984l85.934-90.031c2.2773-2.3906 6.0312-2.7305 8.6523-0.68359l49.969 37.562c2.8438 2.1641 3.5273 6.2617 1.2539 9.2188-2.1641 2.8438-6.2617 3.5273-9.2188 1.2539l-45.301-34.031-70 73.301 151.04-12.406-13.316-10.016c-1.4805-1.1367-2.5039-2.7305-2.6172-4.7812-0.33984-3.6406 2.3906-6.8281 6.0312-7.0586 1.5938-0.11328 3.1875 0.33984 4.4375 1.2539l27.203 20.375c2.1641 1.5938 3.0742 4.4375 2.3906 7.0586-0.79688 2.6172-3.0742 4.4375-5.8047 4.668l-185.41 15.254c-0.11719 0.21875-0.34375 0.21875-0.45703 0.21875z" fill-rule="evenodd"/>
  <path d="m354.78 255.41c-0.45703 0-0.79688 0-1.2539-0.11328l-29.707-5.6914c-2.1641-0.45703-3.9844-1.8203-4.7812-3.8711-0.79687-2.0469-0.68359-4.3242 0.57031-6.1445l7.2852-11.156c1.9336-3.0742 6.0312-3.8711 9.1055-1.9336 3.0742 1.9336 3.8711 6.0312 1.9336 9.1055l-1.9336 2.9609 20.145 3.8711c3.5273 0.68359 5.918 4.0977 5.2344 7.625-0.67969 3.1875-3.5234 5.3477-6.5977 5.3477z" fill-rule="evenodd"/>
  <path d="m255.3 330.77c-0.33984 0-0.68359 0-1.0234-0.11328-3.5273-0.57031-6.0312-3.8711-5.4648-7.3984l1.3672-9.1055-3.9844-0.91016c-3.4141-0.79688-5.6914-4.0977-5.0078-7.625l1.4805-7.8555c0.68359-3.5273 4.0977-5.918 7.625-5.2344 3.5273 0.68359 5.918 4.0977 5.2344 7.625l-0.33984 1.5938 3.7578 0.79687c3.4141 0.79688 5.5781 3.9844 5.0078 7.3984l-2.2773 15.137c-0.34375 3.4141-3.1875 5.6914-6.375 5.6914z" fill-rule="evenodd"/>
  <path d="m286.49 263.84c-4.8945 0-9.4453-1.707-13.203-4.8945-4.2109-3.5273-6.7148-8.5352-7.1719-14s1.2539-10.812 4.7812-14.91c3.5273-4.0977 8.5352-6.7148 14-7.1719 5.4648-0.45703 10.812 1.2539 14.91 4.7812 4.0977 3.5273 6.7148 8.5352 7.1719 14 0.45703 5.4648-1.2539 10.812-4.7812 14.91-3.5273 4.0977-8.5352 6.7148-14 7.1719-0.57031 0.11328-1.1367 0.11328-1.707 0.11328zm0-27.883h-0.57031c-1.9336 0.11328-3.7578 1.0234-5.0078 2.6172-1.2539 1.4805-1.9336 3.4141-1.707 5.3477 0.33984 4.0977 3.8711 7.0586 7.9688 6.7148 4.0977-0.33984 7.0586-3.8711 6.7148-7.9688-0.11328-1.9336-1.0234-3.7578-2.6172-5.0078-1.3672-1.1367-2.9609-1.7031-4.7812-1.7031z" fill-rule="evenodd"/>
  <path d="m278.41 353.07c-3.4141 0-6.2617-2.7305-6.4883-6.1445l-2.5039-30.844c-0.11328-1.707 0.45703-3.4141 1.4805-4.7812 1.1367-1.3672 2.7305-2.1641 4.4375-2.2773l32.895-2.7305c3.6406-0.33984 6.8281 2.3906 7.0586 6.0312l2.0469 25.383c0.33984 3.6406-2.3906 6.8281-6.0312 7.0586-3.6406 0.33984-6.8281-2.3906-7.0586-6.0312l-1.5938-18.895-19.805 1.5938 2.0469 24.359v0.57031c0.11719 3.7461-2.8438 6.707-6.4844 6.707z" fill-rule="evenodd"/>
  <path d="m330.42 317.68c-1.2539 0-2.6172-0.33984-3.7578-1.1367-2.9609-2.0469-3.6406-6.1445-1.5938-9.1055l5.4648-7.8555c2.0469-2.9609 6.1445-3.6406 9.1055-1.5938s3.6406 6.1445 1.5938 9.1055l-5.4648 7.8555c-1.25 1.707-3.2969 2.7305-5.3477 2.7305z" fill-rule="evenodd"/>
  <path d="m181.66 328.26c-0.45703 0-0.91016 0-1.4805-0.11328l-16.961-3.7578c-3.5273-0.79688-5.8047-4.3242-5.0078-7.8555 0.79687-3.5273 4.3242-5.8047 7.8555-5.0078l16.961 3.7578c3.5273 0.79688 5.8047 4.3242 5.0078 7.8555-0.6875 3.0703-3.418 5.1211-6.375 5.1211z" fill-rule="evenodd"/>
  <path d="m195.32 355.12c-2.3906 0-4.668-1.2539-5.8047-3.5273l-13.66-26.746v-0.11328l-12.973-25.387c-1.5938-3.1875-0.33984-7.1719 2.8438-8.8789 3.1875-1.707 7.1719-0.33984 8.8789 2.8438l12.863 25.156c0.11328 0.11328 0.11328 0.22656 0.11328 0.33984l13.66 26.746c1.5938 3.1875 0.33984 7.1719-2.8438 8.8789-1.0273 0.46094-2.0547 0.6875-3.0781 0.6875z" fill-rule="evenodd"/>
  <path d="m189.86 344.31c-1.1367 0-2.2773-0.22656-3.3008-0.91016-3.1875-1.8203-4.2109-5.8047-2.3906-8.9922l14-24.242c1.8203-3.1875 5.8047-4.2109 8.9922-2.3906 3.1875 1.8203 4.2109 5.8047 2.3906 8.9922l-14 24.242c-1.2539 2.0508-3.5312 3.3008-5.6914 3.3008z" fill-rule="evenodd"/>
  <path d="m177.9 363.32c-5.6914 0-11.039-2.2773-15.023-6.375-1.4805-1.4805-3.4141-2.3906-5.5781-2.3906-2.1641 0-4.0977 0.79688-5.5781 2.3906-2.5039 2.6172-6.6016 2.7305-9.2188 0.22656-2.6172-2.5039-2.7305-6.6016-0.22656-9.2188 3.9844-4.0977 9.332-6.375 15.023-6.375 5.6914 0 11.039 2.2773 15.023 6.375 1.4805 1.4805 3.4141 2.3906 5.5781 2.3906 2.1641 0 4.0977-0.79688 5.5781-2.3906l0.11328-0.11328c3.9844-4.0977 9.2188-6.2617 14.91-6.2617s11.039 2.2773 15.023 6.375l0.11328 0.11328c1.4805 1.4805 3.4141 2.2773 5.4648 2.2773 2.1641 0 4.0977-0.79688 5.5781-2.3906l0.11328-0.11328c5.918-6.1445 15.254-7.9688 23.105-4.668 1.9336 0.79688 4.0977 1.1367 6.0312 0.91016 13.316-1.707 39.496-6.0312 66.016-15.594 31.871-11.383 54.18-26.633 66.242-45.074 11.27-17.188 13.66-37.676 7.0586-60.668-7.9688-27.773-23.105-47.348-45.074-57.934-25.609-12.406-56.34-10.586-77.625-6.9414-23.562 3.9844-41.09 11.156-41.203 11.27-2.9609 1.2539-6.4883 0.11328-8.1953-2.7305-1.707-2.8438-1.0234-6.375 1.5938-8.4219 0.11328-0.11328 4.0977-3.3008 11.156-7.7383 14.91-9.4453 30.844-16.73 47.348-21.738 15.82-4.7812 32.211-7.5117 48.715-7.9688 31.871-0.91016 63.855 6.375 92.652 20.941 28.91 14.684 53.609 36.422 71.707 62.828 9.332 13.66 16.844 28.57 22.309 44.277 5.6914 16.277 9.1055 33.578 10.242 51.219 0.11328 1.2539 0.11328 2.5039 0.22656 3.7578 0.79688 16.617 10.473 31.871 25.156 39.953l4.5547 2.5039c3.1875 1.707 4.3242 5.6914 2.6172 8.8789-1.707 3.1875-5.6914 4.3242-8.8789 2.6172l-4.5547-2.5039c-9.2188-5.0078-17.074-12.293-22.652-21.172s-8.8789-19.121-9.332-29.594c-0.11328-1.1367-0.11328-2.3906-0.22656-3.5273-4.0977-63.512-40.406-118.6-97.09-147.51-44.387-22.77-94.238-25.727-139.54-9.793 11.27-1.4805 22.195-1.9336 32.324-1.2539 16.504 0.91016 31.301 4.5547 44.164 10.699 25.496 12.293 43.023 34.488 52.016 66.129 7.7383 26.863 4.7812 50.992-8.6523 71.48-13.773 20.941-38.242 37.902-72.844 50.309-27.66 9.9023-54.863 14.457-68.746 16.164-4.3242 0.57031-8.7656-0.11328-12.863-1.8203-2.9609-1.2539-6.375-0.57031-8.5352 1.707l-0.11328 0.11328c-3.9844 4.0977-9.2188 6.2617-14.91 6.2617s-11.039-2.2773-15.023-6.375l-0.11328-0.11328c-1.4805-1.4805-3.4141-2.2773-5.4648-2.2773-2.1641 0-4.0977 0.79688-5.5781 2.3906l-0.11328 0.11328c-3.7617 4.0977-9.1094 6.375-14.801 6.375z" fill-rule="evenodd"/>
  <path d="m361.04 347.72c-2.8438 0-5.4648-1.8203-6.2617-4.668-1.0234-3.5273 0.91016-7.1719 4.4375-8.1953 28.227-8.3086 47.234-25.953 56.57-52.473 7.1719-20.262 5.6914-38.359 5.6914-38.473-0.33984-3.6406 2.3906-6.8281 5.918-7.0586 3.6406-0.33984 6.8281 2.3906 7.0586 5.918 0.11328 0.79687 1.707 20.715-6.1445 43.48-4.668 13.543-11.723 25.27-21.059 34.941-11.609 12.066-26.52 20.941-44.391 26.18-0.56641 0.34766-1.1367 0.34766-1.8203 0.34766z" fill-rule="evenodd"/>
  <path d="m478.62 400.99c-6.375 0-12.406-3.0742-16.047-8.3086-1.2539-1.707-3.1875-2.7305-5.3477-2.7305-2.1641 0-4.0977 1.0234-5.3477 2.7305-3.6406 5.2344-9.6758 8.3086-16.047 8.3086-6.375 0-12.406-3.0742-16.047-8.3086-1.2539-1.707-3.1875-2.7305-5.3477-2.7305-2.1641 0-4.0977 1.0234-5.3477 2.7305-3.6406 5.2344-9.6758 8.3086-16.047 8.3086-6.375 0-12.406-3.0742-16.047-8.3086-1.2539-1.707-3.1875-2.7305-5.3477-2.7305-2.1641 0-4.0977 1.0234-5.3477 2.7305-3.6406 5.2344-9.6758 8.3086-16.047 8.3086-6.375 0-12.406-3.0742-16.047-8.3086-1.2539-1.707-3.1875-2.7305-5.3477-2.7305-2.1641 0-4.0977 1.0234-5.3477 2.7305-3.6406 5.2344-9.6758 8.3086-16.047 8.3086-6.375 0-12.406-3.0742-16.047-8.3086-1.2539-1.707-3.1875-2.7305-5.3477-2.7305-2.1641 0-4.0977 1.0234-5.3477 2.7305-3.6406 5.2344-9.6758 8.3086-16.047 8.3086-6.375 0-12.406-3.0742-16.047-8.3086-1.2539-1.707-3.1875-2.7305-5.3477-2.7305-2.1641 0-4.0977 1.0234-5.3477 2.7305-3.6406 5.2344-9.6758 8.3086-16.047 8.3086-6.375 0-12.406-3.0742-16.047-8.3086-1.2539-1.707-3.1875-2.7305-5.3477-2.7305-2.1641 0-4.0977 1.0234-5.3477 2.7305-3.6406 5.2344-9.6758 8.3086-16.047 8.3086-6.375 0-12.406-3.0742-16.047-8.3086-1.2539-1.707-3.1875-2.7305-5.3477-2.7305-2.1641 0-4.0977 1.0234-5.3477 2.7305-2.0469 2.9609-6.1445 3.6406-9.1055 1.4805-2.9609-2.0469-3.6406-6.1445-1.5938-9.1055 3.6406-5.2344 9.6758-8.3086 16.047-8.3086 6.375 0 12.406 3.0742 16.047 8.3086 1.2539 1.707 3.1875 2.7305 5.3477 2.7305 2.1641 0 4.0977-1.0234 5.3477-2.7305 3.6406-5.2344 9.6758-8.3086 16.047-8.3086 6.375 0 12.406 3.0742 16.047 8.3086 1.2539 1.707 3.1875 2.7305 5.3477 2.7305 2.1641 0 4.0977-1.0234 5.3477-2.7305 3.6406-5.2344 9.6758-8.3086 16.047-8.3086 6.375 0 12.406 3.0742 16.047 8.3086 1.2539 1.707 3.1875 2.7305 5.3477 2.7305 2.1641 0 4.0977-1.0234 5.3477-2.7305 3.6406-5.2344 9.6758-8.3086 16.047-8.3086 6.375 0 12.406 3.0742 16.047 8.3086 1.2539 1.707 3.1875 2.7305 5.3477 2.7305 2.1641 0 4.0977-1.0234 5.3477-2.7305 3.6406-5.2344 9.6758-8.3086 16.047-8.3086 6.375 0 12.406 3.0742 16.047 8.3086 1.2539 1.707 3.1875 2.7305 5.3477 2.7305 2.1641 0 4.0977-1.0234 5.3477-2.7305 3.6406-5.2344 9.6758-8.3086 16.047-8.3086 6.375 0 12.406 3.0742 16.047 8.3086 1.2539 1.707 3.1875 2.7305 5.3477 2.7305 2.1641 0 4.0977-1.0234 5.3477-2.7305 3.6406-5.2344 9.6758-8.3086 16.047-8.3086 6.375 0 12.406 3.0742 16.047 8.3086 1.2539 1.707 3.1875 2.7305 5.3477 2.7305 2.1641 0 4.0977-1.0234 5.3477-2.7305 3.6406-5.2344 9.6758-8.3086 16.047-8.3086 6.375 0 12.406 3.0742 16.047 8.3086 1.2539 1.707 3.1875 2.7305 5.3477 2.7305 2.1641 0 4.0977-1.0234 5.3477-2.7305 3.6406-5.2344 9.6758-8.3086 16.047-8.3086 6.375 0 12.406 3.0742 16.047 8.3086 1.2539 1.707 3.1875 2.7305 5.3477 2.7305 2.1641 0 4.0977-1.0234 5.3477-2.7305 3.6406-5.2344 9.6758-8.3086 16.047-8.3086 6.375 0 12.406 3.0742 16.047 8.3086 2.0469 2.9609 1.3672 7.0586-1.5938 9.1055-2.9609 2.0469-7.0586 1.4805-9.1055-1.4805-1.2539-1.707-3.1875-2.7305-5.3477-2.7305-2.1641 0-4.0977 1.0234-5.3477 2.7305-3.6406 5.2344-9.6758 8.3086-16.047 8.3086-6.375 0-12.406-3.0742-16.047-8.3086-1.2539-1.707-3.1875-2.7305-5.3477-2.7305-2.1641 0-4.0977 1.0234-5.3477 2.7305-3.6406 5.2344-9.6719 8.3086-16.047 8.3086z" fill-rule="evenodd"/>
  <path d="m478.62 441.4c-6.375 0-12.406-3.0742-16.047-8.3086-1.2539-1.707-3.1875-2.7305-5.3477-2.7305-2.1641 0-4.0977 1.0234-5.3477 2.7305-3.6406 5.2344-9.6758 8.3086-16.047 8.3086-6.375 0-12.406-3.0742-16.047-8.3086-1.2539-1.707-3.1875-2.7305-5.3477-2.7305-2.1641 0-4.0977 1.0234-5.3477 2.7305-3.6406 5.2344-9.6758 8.3086-16.047 8.3086-6.375 0-12.406-3.0742-16.047-8.3086-1.2539-1.707-3.1875-2.7305-5.3477-2.7305-2.1641 0-4.0977 1.0234-5.3477 2.7305-3.6406 5.2344-9.6758 8.3086-16.047 8.3086-6.375 0-12.406-3.0742-16.047-8.3086-1.2539-1.707-3.1875-2.7305-5.3477-2.7305-2.1641 0-4.0977 1.0234-5.3477 2.7305-3.6406 5.2344-9.6758 8.3086-16.047 8.3086-6.375 0-12.406-3.0742-16.047-8.3086-1.2539-1.707-3.1875-2.7305-5.3477-2.7305-2.1641 0-4.0977 1.0234-5.3477 2.7305-3.6406 5.2344-9.6758 8.3086-16.047 8.3086-6.375 0-12.406-3.0742-16.047-8.3086-1.2539-1.707-3.1875-2.7305-5.3477-2.7305-2.1641 0-4.0977 1.0234-5.3477 2.7305-3.6406 5.2344-9.6758 8.3086-16.047 8.3086-6.375 0-12.406-3.0742-16.047-8.3086-1.2539-1.707-3.1875-2.7305-5.3477-2.7305-2.1641 0-4.0977 1.0234-5.3477 2.7305l-0.11328 0.11328c-2.1641 2.8438-6.2617 3.5273-9.2188 1.3672-2.8438-2.1641-3.4141-6.1445-1.3672-8.9922 3.6406-5.2344 9.6758-8.3086 16.047-8.3086 6.375 0 12.406 3.0742 16.047 8.3086 1.2539 1.707 3.1875 2.7305 5.3477 2.7305 2.1641 0 4.0977-1.0234 5.3477-2.7305 3.6406-5.2344 9.6758-8.3086 16.047-8.3086 6.375 0 12.406 3.0742 16.047 8.3086 1.2539 1.707 3.1875 2.7305 5.3477 2.7305 2.1641 0 4.0977-1.0234 5.3477-2.7305 3.6406-5.2344 9.6758-8.3086 16.047-8.3086 6.375 0 12.406 3.0742 16.047 8.3086 1.2539 1.707 3.1875 2.7305 5.3477 2.7305 2.1641 0 4.0977-1.0234 5.3477-2.7305 3.6406-5.2344 9.6758-8.3086 16.047-8.3086 6.375 0 12.406 3.0742 16.047 8.3086 1.2539 1.707 3.1875 2.7305 5.3477 2.7305 2.1641 0 4.0977-1.0234 5.3477-2.7305 3.6406-5.2344 9.6758-8.3086 16.047-8.3086 6.375 0 12.406 3.0742 16.047 8.3086 1.2539 1.707 3.1875 2.7305 5.3477 2.7305 2.1641 0 4.0977-1.0234 5.3477-2.7305 3.6406-5.2344 9.6758-8.3086 16.047-8.3086 6.375 0 12.406 3.0742 16.047 8.3086 1.2539 1.707 3.1875 2.7305 5.3477 2.7305 2.1641 0 4.0977-1.0234 5.3477-2.7305 3.6406-5.2344 9.6758-8.3086 16.047-8.3086 6.375 0 12.406 3.0742 16.047 8.3086 1.2539 1.707 3.1875 2.7305 5.3477 2.7305 2.1641 0 4.0977-1.0234 5.3477-2.7305 3.6406-5.2344 9.6758-8.3086 16.047-8.3086 6.375 0 12.406 3.0742 16.047 8.3086 2.0469 2.9609 1.3672 6.9414-1.4805 9.1055-2.9609 2.1641-7.0586 1.4805-9.1055-1.4805 0 0 0-0.11328-0.11328-0.11328-1.2539-1.707-3.1875-2.7305-5.3477-2.7305-2.1641 0-4.0977 1.0234-5.3477 2.7305-3.6406 5.2344-9.6719 8.3086-16.047 8.3086z" fill-rule="evenodd"/>
  <path d="m504.8 353.07c-1.8203 0-3.7578-0.79688-5.0078-2.3906-14.797-17.641-14.113-42.684-14.113-43.82 0.11328-3.6406 3.1875-6.4883 6.8281-6.2617 3.6406 0.11328 6.4883 3.1875 6.375 6.8281 0 0.22656-0.57031 21.172 11.039 34.941 2.2773 2.7305 1.9336 6.9414-0.79688 9.2188-1.3633 1.0273-2.8438 1.4844-4.3242 1.4844z" fill-rule="evenodd"/>
  <use x="70" y="577.074219" xlink:href="#s"/>
  <use x="74.175781" y="577.074219" xlink:href="#e"/>
  <use x="76.984375" y="577.074219" xlink:href="#a"/>
  <use x="80.84375" y="577.074219" xlink:href="#l"/>
  <use x="84.683594" y="577.074219" xlink:href="#d"/>
  <use x="87.402344" y="577.074219" xlink:href="#a"/>
  <use x="91.261719" y="577.074219" xlink:href="#k"/>
  <use x="97.320312" y="577.074219" xlink:href="#g"/>
  <use x="101.390625" y="577.074219" xlink:href="#f"/>
  <use x="107.082031" y="577.074219" xlink:href="#j"/>
  <use x="109.199219" y="577.074219" xlink:href="#i"/>
  <use x="112.574219" y="577.074219" xlink:href="#c"/>
  <use x="116.484375" y="577.074219" xlink:href="#b"/>
  <use x="120.535156" y="577.074219" xlink:href="#g"/>
  <use x="124.609375" y="577.074219" xlink:href="#h"/>
  <use x="128.660156" y="577.074219" xlink:href="#b"/>
  <use x="132.710938" y="577.074219" xlink:href="#b"/>
  <use x="136.765625" y="577.074219" xlink:href="#f"/>
  <use x="70" y="582.765625" xlink:href="#r"/>
  <use x="72.476562" y="582.765625" xlink:href="#e"/>
  <use x="75.28125" y="582.765625" xlink:href="#c"/>
  <use x="79.191406" y="582.765625" xlink:href="#q"/>
  <use x="87.105469" y="582.765625" xlink:href="#d"/>
  <use x="89.824219" y="582.765625" xlink:href="#p"/>
  <use x="93.875" y="582.765625" xlink:href="#a"/>
  <use x="99.71875" y="582.765625" xlink:href="#o"/>
  <use x="104.480469" y="582.765625" xlink:href="#c"/>
  <use x="108.390625" y="582.765625" xlink:href="#h"/>
  <use x="112.441406" y="582.765625" xlink:href="#b"/>
  <use x="118.472656" y="582.765625" xlink:href="#n"/>
  <use x="122.644531" y="582.765625" xlink:href="#e"/>
  <use x="125.453125" y="582.765625" xlink:href="#c"/>
  <use x="129.363281" y="582.765625" xlink:href="#m"/>
  <use x="131.3125" y="582.765625" xlink:href="#a"/>
  <use x="135.171875" y="582.765625" xlink:href="#i"/>
  <use x="138.546875" y="582.765625" xlink:href="#d"/>
 </g>
</svg>
