<?xml version="1.0" encoding="UTF-8"?>
<svg width="700pt" height="700pt" version="1.1" viewBox="0 0 700 700" xmlns="http://www.w3.org/2000/svg" xmlns:xlink="http://www.w3.org/1999/xlink">
 <defs>
  <symbol id="m" overflow="visible">
   <path d="m30.25-1.8125c-1.5625 0.8125-3.1875 1.4219-4.875 1.8281-1.6875 0.41406-3.4492 0.625-5.2812 0.625-5.4922 0-9.8398-1.5312-13.047-4.5938-3.1992-3.0703-4.7969-7.2266-4.7969-12.469 0-5.2578 1.5977-9.4219 4.7969-12.484 3.207-3.0703 7.5547-4.6094 13.047-4.6094 1.832 0 3.5938 0.21094 5.2812 0.625 1.6875 0.40625 3.3125 1.0156 4.875 1.8281v6.8125c-1.5742-1.0703-3.125-1.8594-4.6562-2.3594-1.5234-0.5-3.1328-0.75-4.8281-0.75-3.0234 0-5.4023 0.96875-7.1406 2.9062-1.7305 1.9375-2.5938 4.6172-2.5938 8.0312 0 3.3984 0.86328 6.0625 2.5938 8 1.7383 1.9375 4.1172 2.9062 7.1406 2.9062 1.6953 0 3.3047-0.25 4.8281-0.75 1.5312-0.5 3.082-1.2852 4.6562-2.3594z"/>
  </symbol>
  <symbol id="h" overflow="visible">
   <path d="m22.141-17.969c-0.69922-0.32031-1.3906-0.5625-2.0781-0.71875-0.67969-0.15625-1.3594-0.23438-2.0469-0.23438-2.0312 0-3.5938 0.65234-4.6875 1.9531-1.0938 1.3047-1.6406 3.168-1.6406 5.5938v11.375h-7.8906v-24.688h7.8906v4.0469c1.0078-1.6133 2.1719-2.7891 3.4844-3.5312 1.3203-0.75 2.8984-1.125 4.7344-1.125 0.26953 0 0.55469 0.015625 0.85938 0.046875 0.3125 0.023438 0.75781 0.070312 1.3438 0.14062z"/>
  </symbol>
  <symbol id="c" overflow="visible">
   <path d="m28.438-12.406v2.2344h-18.453c0.19531 1.8555 0.86719 3.2461 2.0156 4.1719 1.1445 0.92969 2.7422 1.3906 4.7969 1.3906 1.6641 0 3.3672-0.24219 5.1094-0.73438 1.7383-0.48828 3.5312-1.2344 5.375-2.2344v6.0781c-1.875 0.71094-3.7461 1.2422-5.6094 1.5938-1.8672 0.36328-3.7305 0.54688-5.5938 0.54688-4.4688 0-7.9453-1.1328-10.422-3.4062-2.4805-2.2695-3.7188-5.457-3.7188-9.5625 0-4.0195 1.2109-7.1875 3.6406-9.5 2.4375-2.3125 5.7852-3.4688 10.047-3.4688 3.8828 0 6.9883 1.1719 9.3125 3.5156 2.332 2.3359 3.5 5.4609 3.5 9.375zm-8.1094-2.625c0-1.5-0.4375-2.707-1.3125-3.625-0.875-0.92578-2.0156-1.3906-3.4219-1.3906-1.5312 0-2.7773 0.43359-3.7344 1.2969-0.96094 0.85547-1.5547 2.0938-1.7812 3.7188z"/>
  </symbol>
  <symbol id="b" overflow="visible">
   <path d="m14.859-11.109c-1.6484 0-2.8867 0.28125-3.7188 0.84375-0.82422 0.55469-1.2344 1.3711-1.2344 2.4531 0 1 0.33203 1.7891 1 2.3594 0.66406 0.5625 1.5938 0.84375 2.7812 0.84375 1.4883 0 2.7383-0.53125 3.75-1.5938 1.0195-1.0703 1.5312-2.4062 1.5312-4v-0.90625zm12.062-2.9844v14.094h-7.9531v-3.6562c-1.0625 1.5-2.2578 2.5938-3.5781 3.2812-1.3242 0.67578-2.9336 1.0156-4.8281 1.0156-2.5625 0-4.6406-0.74219-6.2344-2.2344-1.5938-1.5-2.3906-3.4375-2.3906-5.8125 0-2.8945 0.99219-5.0195 2.9844-6.375 2-1.3516 5.1289-2.0312 9.3906-2.0312h4.6562v-0.60938c0-1.25-0.49609-2.1641-1.4844-2.75-0.99219-0.58203-2.5273-0.875-4.6094-0.875-1.6875 0-3.2617 0.17188-4.7188 0.51562-1.4609 0.33594-2.8125 0.83984-4.0625 1.5156v-6.0156c1.6953-0.41406 3.3945-0.72656 5.0938-0.9375 1.707-0.21875 3.4141-0.32812 5.125-0.32812 4.4453 0 7.6602 0.88281 9.6406 2.6406 1.9766 1.7617 2.9688 4.6172 2.9688 8.5625z"/>
  </symbol>
  <symbol id="g" overflow="visible">
   <path d="m12.406-31.703v7.0156h8.1406v5.6406h-8.1406v10.469c0 1.1484 0.22656 1.9219 0.6875 2.3281 0.45703 0.40625 1.3633 0.60938 2.7188 0.60938h4.0469v5.6406h-6.7656c-3.1172 0-5.3242-0.64844-6.625-1.9531-1.3047-1.3008-1.9531-3.5078-1.9531-6.625v-10.469h-3.9219v-5.6406h3.9219v-7.0156z"/>
  </symbol>
  <symbol id="f" overflow="visible">
   <path d="m20.594-21.078v-13.234h7.9375v34.312h-7.9375v-3.5781c-1.0859 1.4609-2.2812 2.5273-3.5938 3.2031s-2.8281 1.0156-4.5469 1.0156c-3.043 0-5.543-1.207-7.5-3.625-1.9492-2.4141-2.9219-5.5312-2.9219-9.3438 0-3.8008 0.97266-6.9102 2.9219-9.3281 1.957-2.4258 4.457-3.6406 7.5-3.6406 1.707 0 3.2188 0.34375 4.5312 1.0312 1.3203 0.6875 2.5234 1.75 3.6094 3.1875zm-5.2031 15.984c1.6875 0 2.9727-0.61328 3.8594-1.8438 0.89453-1.2383 1.3438-3.0352 1.3438-5.3906 0-2.3516-0.44922-4.1445-1.3438-5.375-0.88672-1.2383-2.1719-1.8594-3.8594-1.8594-1.6797 0-2.9648 0.62109-3.8594 1.8594-0.88672 1.2305-1.3281 3.0234-1.3281 5.375 0 2.3555 0.44141 4.1523 1.3281 5.3906 0.89453 1.2305 2.1797 1.8438 3.8594 1.8438z"/>
  </symbol>
  <symbol id="e" overflow="visible">
   <path d="m16.938-5.0938c1.6875 0 2.9727-0.61328 3.8594-1.8438 0.89453-1.2383 1.3438-3.0352 1.3438-5.3906 0-2.3516-0.44922-4.1445-1.3438-5.375-0.88672-1.2383-2.1719-1.8594-3.8594-1.8594-1.6992 0-3 0.625-3.9062 1.875-0.89844 1.2422-1.3438 3.0273-1.3438 5.3594 0 2.3438 0.44531 4.1367 1.3438 5.375 0.90625 1.2422 2.207 1.8594 3.9062 1.8594zm-5.25-15.984c1.082-1.4375 2.2852-2.5 3.6094-3.1875 1.3203-0.6875 2.8438-1.0312 4.5625-1.0312 3.0508 0 5.5508 1.2148 7.5 3.6406 1.957 2.418 2.9375 5.5273 2.9375 9.3281 0 3.8125-0.98047 6.9297-2.9375 9.3438-1.9492 2.418-4.4492 3.625-7.5 3.625-1.7188 0-3.2422-0.33984-4.5625-1.0156-1.3242-0.6875-2.5273-1.7539-3.6094-3.2031v3.5781h-7.8906v-34.312h7.8906z"/>
  </symbol>
  <symbol id="a" overflow="visible">
   <path d="m0.54688-24.688h7.8906l6.6406 16.75 5.6406-16.75h7.9062l-10.391 27.031c-1.043 2.7383-2.2617 4.6562-3.6562 5.75-1.3867 1.1016-3.2188 1.6562-5.5 1.6562h-4.5625v-5.1875h2.4688c1.3438 0 2.3164-0.21484 2.9219-0.64062 0.61328-0.42969 1.0859-1.1953 1.4219-2.2969l0.21875-0.67188z"/>
  </symbol>
  <symbol id="d" overflow="visible">
   <path d="m4.1406-32.922h22.906v6.4219h-14.406v6.125h13.547v6.4219h-13.547v7.5312h14.906v6.4219h-23.406z"/>
  </symbol>
  <symbol id="l" overflow="visible">
   <path d="m3.5312-9.6094v-15.078h7.9375v2.4688c0 1.3359-0.011719 3.0117-0.03125 5.0312-0.011719 2.0234-0.015625 3.3711-0.015625 4.0469 0 1.9805 0.050781 3.4062 0.15625 4.2812 0.10156 0.875 0.28125 1.5117 0.53125 1.9062 0.32031 0.52344 0.74219 0.92188 1.2656 1.2031 0.51953 0.28125 1.1172 0.42188 1.7969 0.42188 1.6445 0 2.9375-0.62891 3.875-1.8906 0.94531-1.2695 1.4219-3.0312 1.4219-5.2812v-12.188h7.8906v24.688h-7.8906v-3.5781c-1.1992 1.4492-2.4648 2.5156-3.7969 3.2031-1.3242 0.67578-2.7891 1.0156-4.3906 1.0156-2.8555 0-5.0273-0.875-6.5156-2.625-1.4922-1.75-2.2344-4.2891-2.2344-7.625z"/>
  </symbol>
  <symbol id="k" overflow="visible">
   <path d="m23.75-23.922v6.4375c-1.0742-0.73828-2.1523-1.2812-3.2344-1.625-1.0859-0.35156-2.2031-0.53125-3.3594-0.53125-2.2109 0-3.9297 0.64844-5.1562 1.9375-1.2188 1.2812-1.8281 3.0742-1.8281 5.375 0 2.3125 0.60938 4.1172 1.8281 5.4062 1.2266 1.2812 2.9453 1.9219 5.1562 1.9219 1.2266 0 2.3945-0.17969 3.5-0.54688 1.1133-0.375 2.1445-0.92188 3.0938-1.6406v6.4531c-1.2422 0.46094-2.4961 0.80078-3.7656 1.0312-1.2734 0.22656-2.5469 0.34375-3.8281 0.34375-4.4492 0-7.9336-1.1406-10.453-3.4219-2.5117-2.2891-3.7656-5.4727-3.7656-9.5469 0-4.0703 1.2539-7.25 3.7656-9.5312 2.5195-2.2891 6.0039-3.4375 10.453-3.4375 1.3008 0 2.5781 0.11719 3.8281 0.34375 1.2578 0.23047 2.5156 0.57422 3.7656 1.0312z"/>
  </symbol>
  <symbol id="j" overflow="visible">
   <path d="m3.7969-34.312h7.8906v34.312h-7.8906z"/>
  </symbol>
  <symbol id="i" overflow="visible">
   <path d="m11.688-3.5781v12.969h-7.8906v-34.078h7.8906v3.6094c1.082-1.4375 2.2852-2.5 3.6094-3.1875 1.3203-0.6875 2.8438-1.0312 4.5625-1.0312 3.0508 0 5.5508 1.2148 7.5 3.6406 1.957 2.418 2.9375 5.5273 2.9375 9.3281 0 3.8125-0.98047 6.9297-2.9375 9.3438-1.9492 2.418-4.4492 3.625-7.5 3.625-1.7188 0-3.2422-0.33984-4.5625-1.0156-1.3242-0.6875-2.5273-1.7539-3.6094-3.2031zm5.25-15.984c-1.6992 0-3 0.625-3.9062 1.875-0.89844 1.2422-1.3438 3.0273-1.3438 5.3594 0 2.3438 0.44531 4.1367 1.3438 5.375 0.90625 1.2422 2.207 1.8594 3.9062 1.8594 1.6875 0 2.9727-0.61328 3.8594-1.8438 0.89453-1.2383 1.3438-3.0352 1.3438-5.3906 0-2.3516-0.44922-4.1445-1.3438-5.375-0.88672-1.2383-2.1719-1.8594-3.8594-1.8594z"/>
  </symbol>
 </defs>
 <g>
  <path d="m370.28 3.8945c-12.945-5.1953-27.613-5.1953-40.547 0l-259.74 70.48v411.24l259.73 70.473c6.4688 2.6016 13.285 3.9219 20.277 3.9219s13.812-1.3203 20.277-3.9219l259.73-70.473v-411.24zm241.67 84.289v182.77h-252.91v-251.62c1.6523 0.42578 3.3047 0.82031 4.8945 1.4727zm-276.96-66.992 1.0938-0.37891c1.5781-0.65234 3.2344-1.0508 4.8867-1.4727v251.62h-36.129v-90.324h30.836l-99.359-99.359c-11.645-11.652-31.965-11.652-43.609 0l-99.359 99.359 30.84-0.003907v90.324h-36.133v-182.77zm-198.03 141.38 68.523-68.52c4.75-4.75 13.312-4.75 18.066 0l68.52 68.52zm28.055 18.066 28.371 35.461-16.773 16.773-12.238-6.125-8.0859 16.16 23.891 11.941 29.934-29.934 28.75-7.1914 23.484 23.484 12.773-12.773-30.711-30.711-35.473 8.8594-20.766-25.961 98.605 0.007812v90.324h-144.52v-90.324h22.762zm-76.957 291.17v-182.78h252.91v251.62c-1.6445-0.42578-3.3047-0.82031-4.8867-1.4727zm276.96 66.996-1.1016 0.37109c-1.582 0.66016-3.2344 1.0586-4.8867 1.4727v-251.62h252.91v182.77z"/>
  <path d="m214.51 307.09c-40.258 0-108.39 7.6133-108.39 36.129 0 10.469 9.2227 18.102 22.836 23.594-3.6328 4.543-4.7695 8.9688-4.7695 12.535 0 10.539 8.5 18.625 21.543 24.461-2.6484 4.3086-3.4805 8.4023-3.4805 11.672 0 11.145 8.0938 19.762 20.332 25.805-1.4453 3.3242-2.2656 6.7734-2.2656 10.324 0 20.262 23.809 36.129 54.195 36.129s54.195-15.871 54.195-36.129c0-3.5508-0.82031-7.0078-2.2656-10.324 12.238-6.0352 20.332-14.652 20.332-25.805 0-3.2695-0.83203-7.3711-3.4766-11.672 13.039-5.8359 21.539-13.918 21.539-24.461 0-3.5664-1.1367-7.9922-4.7695-12.539 13.613-5.4883 22.836-13.121 22.836-23.59 0-28.516-68.133-36.129-108.39-36.129zm36.129 144.52c0 8.5273-15.445 18.066-36.129 18.066-20.684 0-36.129-9.5391-36.129-18.066 0-1.4922 0.53125-2.8984 1.2656-4.1836 10.758 2.7539 22.816 4.1836 34.867 4.1836s24.109-1.4258 34.867-4.1836c0.72656 1.2852 1.2578 2.6914 1.2578 4.1836zm18.066-36.129c0 6.3672-20.574 18.066-54.195 18.066-33.621 0-54.195-11.695-54.195-18.066 0-1.5352 1.4453-3.5391 3.8945-5.5469 15.203 3.7227 32.996 5.5469 50.301 5.5469 17.305 0 35.102-1.8242 50.301-5.5469 2.4492 2.0039 3.8945 4.0117 3.8945 5.5469zm18.066-36.133c0 4.6445-24.84 18.066-72.262 18.066s-72.262-13.422-72.262-18.066c0-0.42578 1.4102-3.0547 7.5781-6.3516 21.152 4.6523 45.922 6.3516 64.684 6.3516s43.527-1.6992 64.684-6.3516c6.168 3.3008 7.5781 5.9297 7.5781 6.3516zm-72.262-18.062c-54.594 0-87.859-12.004-90.379-17.688 2.5195-6.4414 35.785-18.445 90.379-18.445 53.535 0 86.559 11.543 90.199 18.066-3.6406 6.5234-36.664 18.066-90.199 18.066z"/>
  <path d="m530.65 334.19v-9.0312h-9.0312c-8.0586 0-19.809 2.5039-29.312 9.8359-6.1602-21.641-23.738-27.902-33.918-27.902h-9.0312v9.0312c0 17.477-5.7812 24.578-13.766 34.406-9.9648 12.238-22.367 27.477-22.367 64.953 0 24.551 32.227 54.195 72.262 54.195 40.031 0 72.262-29.645 72.262-54.195 0-25.59-8.1562-36.465-15.355-46.066-6.2969-8.4023-11.742-15.652-11.742-35.227zm-54.195 108.39c0-7.4609 5.1562-22.004 9.0312-26.328 3.875 4.3281 9.0312 18.867 9.0312 26.328 0 4.9844-4.0547 9.0312-9.0312 9.0312-4.9766 0-9.0312-4.0469-9.0312-9.0312zm35.812 3.1602c0.125-1.0469 0.31641-2.0781 0.31641-3.1602 0-10.516-8.4453-45.164-27.098-45.164-18.652 0-27.098 34.648-27.098 45.164 0 1.082 0.19922 2.1133 0.31641 3.1602-16.891-7.7852-27.414-21.543-27.414-30.258 0-31.055 8.8867-41.984 18.309-53.562 7.1797-8.832 14.57-17.895 16.988-34.051 4.7812 3.1406 9.8672 9.8789 9.8672 24.383v27.098h18.066v-9.0312c0-17.332 10.449-23.602 18.555-25.852 1.8711 18.453 8.7148 27.594 14.867 35.785 6.2969 8.4102 11.742 15.652 11.742 35.227-0.003906 8.7188-10.527 22.477-27.418 30.262z"/>
  <path d="m413.21 252.89c12.773 0 19.512-6.7578 24.441-11.68 4.4258-4.4258 6.5938-6.3867 11.66-6.3867s7.2344 1.9609 11.66 6.3867c4.9219 4.9219 11.672 11.68 24.449 11.68 12.781 0 19.52-6.7578 24.449-11.68 4.4258-4.4258 6.5938-6.3867 11.672-6.3867 5.0859 0 7.2695 1.9609 11.707 6.3945 4.9336 4.9219 11.688 11.672 24.469 11.672s19.539-6.7461 24.469-11.672c4.4336-4.4336 6.6133-6.3945 11.707-6.3945v-18.066c-12.781 0-19.539 6.7461-24.469 11.672-4.4336 4.4336-6.6133 6.3945-11.707 6.3945s-7.2695-1.9609-11.707-6.3945c-1.8867-1.8789-4.0469-4.0273-6.6914-5.9609l31.949-27.352c14.363-12.301 22.609-30.215 22.609-49.145 0-35.68-29.023-64.699-64.699-64.699h-26.719c-0.60547 0-1.1836 0.070312-1.7812 0.089844-11.906-11.551-27.828-18.156-44.449-18.156h-26.457c-29.047 0-52.676 23.816-52.676 53.102 0 15.547 12.562 28.191 28.012 28.191 7.4961 0 14.535-2.9453 19.836-8.2812l4.9766-5.0312c6.6914 11.641 10.402 24.676 10.402 38.195 0 11.867-2.8086 23.754-8.1094 34.379l-15.266 30.52c-1.1016 0.33594-2.2852 0.54297-3.7383 0.54297-5.0781 0-7.2422-1.9609-11.672-6.3867-4.9336-4.9219-11.672-11.68-24.449-11.68v18.066c5.0781 0 7.2422 1.9609 11.672 6.3867 4.9297 4.9297 11.676 11.68 24.449 11.68zm32.578-35.898 2.5742-5.1562c6.5586-13.117 10.016-27.793 10.016-42.453 0-5.3398-0.48828-10.613-1.3633-15.809 5.1484 5.5 12.41 8.9883 20.523 8.9883 7.5312 0 14.613-2.9375 19.934-8.2539l6.082-6.0703 6.3867 6.3867c3.0078 3.0078 6.6289 5.1133 10.551 6.4219-5.8008 22.211-34.559 55.711-71.176 55.711-1.25 0-2.3867 0.11719-3.5273 0.23438zm130.02-71.02c0 13.641-5.9453 26.547-16.312 35.426l-41.594 35.605c-10.441 1.1367-16.395 7.0078-20.828 11.434-4.4258 4.4258-6.5938 6.3867-11.672 6.3867-4.2734 0-6.5586-1.5-9.8008-4.5898 33.609-11.715 58.875-43.691 63.301-69.098 10.895-3.5117 18.844-13.629 18.844-25.672h-18.066c0 4.9766-4.0547 9.0312-9.0312 9.0312h-1.543c-2.4102 0-4.6875-0.9375-6.3945-2.6484l-19.16-19.152-18.844 18.844c-1.9141 1.9062-4.4531 2.9609-7.1641 2.9609-5.582 0-10.125-4.543-10.125-10.125 0-19.32 15.715-35.039 35.039-35.039h26.719c25.715 0 46.633 20.918 46.633 46.637zm-163.7-22.473c-1.8789 1.8984-4.3633 2.9375-7 2.9375-5.4844 0-9.9453-4.543-9.9453-10.125 0-19.32 15.527-35.039 34.605-35.039h26.457c7.832 0 15.453 2.0703 22.191 5.8164-14.289 7.2969-24.867 20.84-28.047 37.043-0.13672-0.125-0.31641-0.17188-0.45312-0.30859l-19.066-19.258z"/>
  <use x="69.992188" y="695.488281" xlink:href="#m"/>
  <use x="103.136719" y="695.488281" xlink:href="#h"/>
  <use x="125.40625" y="695.488281" xlink:href="#c"/>
  <use x="156.039062" y="695.488281" xlink:href="#b"/>
  <use x="186.515625" y="695.488281" xlink:href="#g"/>
  <use x="208.101563" y="695.488281" xlink:href="#c"/>
  <use x="238.734375" y="695.488281" xlink:href="#f"/>
  <use x="286.785156" y="695.488281" xlink:href="#e"/>
  <use x="319.113281" y="695.488281" xlink:href="#a"/>
  <use x="364.277344" y="695.488281" xlink:href="#d"/>
  <use x="395.128906" y="695.488281" xlink:href="#l"/>
  <use x="427.28125" y="695.488281" xlink:href="#k"/>
  <use x="454.050781" y="695.488281" xlink:href="#b"/>
  <use x="484.527344" y="695.488281" xlink:href="#j"/>
  <use x="500.007812" y="695.488281" xlink:href="#a"/>
  <use x="529.445312" y="695.488281" xlink:href="#i"/>
 </g>
</svg>
