<?xml version="1.0" encoding="UTF-8"?>
<svg width="700pt" height="700pt" version="1.1" viewBox="0 0 700 700" xmlns="http://www.w3.org/2000/svg" xmlns:xlink="http://www.w3.org/1999/xlink">
 <defs>
  <symbol id="t" overflow="visible">
   <path d="m19.547-1.1719c-1.0117 0.52344-2.0625 0.91406-3.1562 1.1719-1.0938 0.26953-2.2344 0.40625-3.4219 0.40625-3.543 0-6.3516-0.98828-8.4219-2.9688-2.0625-1.9766-3.0938-4.6602-3.0938-8.0469 0-3.4062 1.0312-6.0977 3.0938-8.0781 2.0703-1.9766 4.8789-2.9688 8.4219-2.9688 1.1875 0 2.3281 0.13672 3.4219 0.40625 1.0938 0.26172 2.1445 0.65625 3.1562 1.1875v4.3906c-1.0234-0.6875-2.0273-1.1914-3.0156-1.5156-0.98047-0.32031-2.0156-0.48438-3.1094-0.48438-1.9609 0-3.5 0.625-4.625 1.875-1.1172 1.25-1.6719 2.9805-1.6719 5.1875 0 2.1875 0.55469 3.9141 1.6719 5.1719 1.125 1.25 2.6641 1.875 4.625 1.875 1.0938 0 2.1289-0.16016 3.1094-0.48438 0.98828-0.32031 1.9922-0.82812 3.0156-1.5156z"/>
  </symbol>
  <symbol id="a" overflow="visible">
   <path d="m14.297-11.609c-0.44922-0.20703-0.89062-0.35938-1.3281-0.45312-0.4375-0.10156-0.88281-0.15625-1.3281-0.15625-1.3125 0-2.3242 0.42188-3.0312 1.2656-0.71094 0.83594-1.0625 2.0391-1.0625 3.6094v7.3438h-5.0938v-15.953h5.0938v2.625c0.65625-1.0508 1.4062-1.8164 2.25-2.2969 0.85156-0.47656 1.875-0.71875 3.0625-0.71875 0.17578 0 0.36328 0.011719 0.5625 0.03125 0.19531 0.011719 0.48438 0.042969 0.85938 0.09375z"/>
  </symbol>
  <symbol id="c" overflow="visible">
   <path d="m18.375-8.0156v1.4531h-11.922c0.125 1.1992 0.55469 2.0938 1.2969 2.6875 0.73828 0.59375 1.7734 0.89062 3.1094 0.89062 1.0703 0 2.1719-0.15625 3.2969-0.46875 1.125-0.32031 2.2812-0.80469 3.4688-1.4531v3.9375c-1.2109 0.46094-2.418 0.80469-3.625 1.0312-1.2109 0.22656-2.4141 0.34375-3.6094 0.34375-2.8984 0-5.1484-0.72656-6.75-2.1875-1.5938-1.4688-2.3906-3.5312-2.3906-6.1875 0-2.5938 0.78516-4.6328 2.3594-6.125 1.5703-1.5 3.7344-2.25 6.4844-2.25 2.5078 0 4.5156 0.75781 6.0156 2.2656 1.5078 1.5117 2.2656 3.5312 2.2656 6.0625zm-5.2344-1.7031c0-0.96875-0.28906-1.75-0.85938-2.3438-0.5625-0.59375-1.2969-0.89062-2.2031-0.89062-0.99219 0-1.7969 0.28125-2.4219 0.84375-0.61719 0.55469-0.99609 1.3516-1.1406 2.3906z"/>
  </symbol>
  <symbol id="b" overflow="visible">
   <path d="m9.5938-7.1719c-1.0625 0-1.8672 0.18359-2.4062 0.54688-0.53125 0.35547-0.79688 0.88281-0.79688 1.5781 0 0.64844 0.21094 1.1523 0.64062 1.5156 0.4375 0.36719 1.0391 0.54688 1.8125 0.54688 0.95703 0 1.7656-0.34375 2.4219-1.0312s0.98438-1.5469 0.98438-2.5781v-0.57812zm7.7969-1.9375v9.1094h-5.1406v-2.3594c-0.6875 0.96875-1.4609 1.6719-2.3125 2.1094-0.85547 0.4375-1.8906 0.65625-3.1094 0.65625-1.6562 0-3-0.47656-4.0312-1.4375-1.0312-0.96875-1.5469-2.2188-1.5469-3.75 0-1.875 0.64062-3.25 1.9219-4.125 1.2891-0.875 3.3164-1.3125 6.0781-1.3125h3v-0.39062c0-0.8125-0.32031-1.4062-0.95312-1.7812-0.63672-0.375-1.6328-0.5625-2.9844-0.5625-1.0859 0-2.1016 0.10938-3.0469 0.32812-0.9375 0.21875-1.8086 0.54688-2.6094 0.98438v-3.8906c1.082-0.25781 2.1758-0.45703 3.2812-0.59375 1.1016-0.14453 2.207-0.21875 3.3125-0.21875 2.875 0 4.9453 0.57031 6.2188 1.7031 1.2812 1.1367 1.9219 2.9805 1.9219 5.5312z"/>
  </symbol>
  <symbol id="e" overflow="visible">
   <path d="m8.0156-20.484v4.5312h5.2656v3.6406h-5.2656v6.7656c0 0.74219 0.14453 1.2461 0.4375 1.5156 0.30078 0.26172 0.89062 0.39062 1.7656 0.39062h2.6094v3.6406h-4.3594c-2.0234 0-3.4531-0.41406-4.2969-1.25-0.83594-0.84375-1.25-2.2734-1.25-4.2969v-6.7656h-2.5312v-3.6406h2.5312v-4.5312z"/>
  </symbol>
  <symbol id="l" overflow="visible">
   <path d="m13.297-13.625v-8.5312h5.1406v22.156h-5.1406v-2.3125c-0.69922 0.94922-1.4688 1.6406-2.3125 2.0781-0.84375 0.42578-1.8242 0.64062-2.9375 0.64062-1.9688 0-3.5859-0.77344-4.8438-2.3281-1.2617-1.5625-1.8906-3.5781-1.8906-6.0469 0-2.457 0.62891-4.4688 1.8906-6.0312 1.2578-1.5625 2.875-2.3438 4.8438-2.3438 1.1016 0 2.0781 0.22656 2.9219 0.67188 0.85156 0.4375 1.6289 1.1211 2.3281 2.0469zm-3.3594 10.328c1.0938 0 1.9258-0.39453 2.5-1.1875 0.57031-0.80078 0.85938-1.9609 0.85938-3.4844 0-1.5078-0.28906-2.6641-0.85938-3.4688-0.57422-0.80078-1.4062-1.2031-2.5-1.2031-1.0859 0-1.9141 0.40234-2.4844 1.2031-0.57422 0.80469-0.85938 1.9609-0.85938 3.4688 0 1.5234 0.28516 2.6836 0.85938 3.4844 0.57031 0.79297 1.3984 1.1875 2.4844 1.1875z"/>
  </symbol>
  <symbol id="k" overflow="visible">
   <path d="m10.938-3.2969c1.0938 0 1.9258-0.39453 2.5-1.1875 0.57031-0.80078 0.85938-1.9609 0.85938-3.4844 0-1.5078-0.28906-2.6641-0.85938-3.4688-0.57422-0.80078-1.4062-1.2031-2.5-1.2031s-1.9336 0.40234-2.5156 1.2031c-0.58594 0.80469-0.875 1.9609-0.875 3.4688 0 1.5117 0.28906 2.668 0.875 3.4688 0.58203 0.80469 1.4219 1.2031 2.5156 1.2031zm-3.3906-10.328c0.70703-0.92578 1.4883-1.6094 2.3438-2.0469 0.85156-0.44531 1.832-0.67188 2.9375-0.67188 1.9688 0 3.582 0.78125 4.8438 2.3438 1.2695 1.5625 1.9062 3.5742 1.9062 6.0312 0 2.4688-0.63672 4.4844-1.9062 6.0469-1.2617 1.5547-2.875 2.3281-4.8438 2.3281-1.1055 0-2.0859-0.21875-2.9375-0.65625-0.85547-0.4375-1.6367-1.125-2.3438-2.0625v2.3125h-5.0938v-22.156h5.0938z"/>
  </symbol>
  <symbol id="j" overflow="visible">
   <path d="m0.35938-15.953h5.0938l4.2969 10.828 3.6406-10.828h5.0938l-6.7031 17.469c-0.67969 1.7695-1.4648 3.0078-2.3594 3.7188-0.89844 0.70703-2.0781 1.0625-3.5469 1.0625h-2.9531v-3.3438h1.5938c0.86328 0 1.4922-0.14062 1.8906-0.42188 0.39453-0.27344 0.70312-0.76562 0.92188-1.4844l0.14062-0.4375z"/>
  </symbol>
  <symbol id="i" overflow="visible">
   <path d="m13.297-2.7031c-0.69922 0.92969-1.4688 1.6094-2.3125 2.0469s-1.8242 0.65625-2.9375 0.65625c-1.9492 0-3.5586-0.76562-4.8281-2.2969-1.2734-1.5312-1.9062-3.4844-1.9062-5.8594 0-2.3828 0.63281-4.3359 1.9062-5.8594 1.2695-1.5312 2.8789-2.2969 4.8281-2.2969 1.1133 0 2.0938 0.21875 2.9375 0.65625s1.6133 1.125 2.3125 2.0625v-2.3594h5.1406v14.344c0 2.5625-0.8125 4.5195-2.4375 5.875-1.6172 1.3516-3.9648 2.0312-7.0469 2.0312-0.99219 0-1.9531-0.078125-2.8906-0.23438-0.92969-0.14844-1.8594-0.375-2.7969-0.6875v-3.9844c0.88281 0.51953 1.7539 0.90625 2.6094 1.1562 0.86328 0.25 1.7266 0.375 2.5938 0.375 1.6641 0 2.8828-0.37109 3.6562-1.1094 0.78125-0.73047 1.1719-1.8672 1.1719-3.4219zm-3.3594-9.9375c-1.0547 0-1.875 0.39062-2.4688 1.1719-0.58594 0.78125-0.875 1.8867-0.875 3.3125 0 1.4609 0.28125 2.5703 0.84375 3.3281 0.57031 0.75 1.4062 1.125 2.5 1.125 1.0625 0 1.8828-0.39062 2.4688-1.1719 0.59375-0.78125 0.89062-1.875 0.89062-3.2812 0-1.4258-0.29688-2.5312-0.89062-3.3125-0.58594-0.78125-1.4062-1.1719-2.4688-1.1719z"/>
  </symbol>
  <symbol id="h" overflow="visible">
   <path d="m2.2812-6.2031v-9.75h5.125v1.5938c0 0.86719-0.007812 1.9531-0.015625 3.2656-0.011719 1.3047-0.015625 2.1719-0.015625 2.6094 0 1.2812 0.03125 2.2031 0.09375 2.7656 0.070312 0.5625 0.1875 0.97656 0.34375 1.2344 0.21875 0.33594 0.49219 0.58984 0.82812 0.76562 0.33203 0.17969 0.71875 0.26562 1.1562 0.26562 1.0625 0 1.8945-0.40625 2.5-1.2188 0.61328-0.8125 0.92188-1.9453 0.92188-3.4062v-7.875h5.0938v15.953h-5.0938v-2.3125c-0.77344 0.9375-1.5898 1.625-2.4531 2.0625-0.85547 0.4375-1.7969 0.65625-2.8281 0.65625-1.8438 0-3.25-0.5625-4.2188-1.6875-0.96094-1.1328-1.4375-2.7734-1.4375-4.9219z"/>
  </symbol>
  <symbol id="s" overflow="visible">
   <path d="m14.906-15.453v3.875c-1.0859-0.45703-2.1367-0.80078-3.1562-1.0312-1.0117-0.22656-1.9688-0.34375-2.875-0.34375-0.96875 0-1.6875 0.125-2.1562 0.375-0.46875 0.24219-0.70312 0.60938-0.70312 1.1094 0 0.40625 0.17578 0.71875 0.53125 0.9375 0.35156 0.21875 0.99219 0.38281 1.9219 0.48438l0.89062 0.14062c2.6133 0.32422 4.3672 0.86719 5.2656 1.625 0.90625 0.76172 1.3594 1.9531 1.3594 3.5781 0 1.6992-0.63281 2.9766-1.8906 3.8281-1.25 0.85547-3.1211 1.2812-5.6094 1.2812-1.0547 0-2.1406-0.085938-3.2656-0.25-1.125-0.15625-2.2812-0.39844-3.4688-0.73438v-3.875c1.0195 0.49219 2.0625 0.85938 3.125 1.1094 1.0703 0.24219 2.1602 0.35938 3.2656 0.35938 0.98828 0 1.7344-0.13281 2.2344-0.40625 0.50781-0.26953 0.76562-0.67578 0.76562-1.2188 0-0.45703-0.17969-0.79688-0.53125-1.0156-0.34375-0.22656-1.0312-0.40625-2.0625-0.53125l-0.89062-0.10938c-2.2734-0.28125-3.8672-0.80469-4.7812-1.5781-0.90625-0.76953-1.3594-1.9414-1.3594-3.5156 0-1.6875 0.57812-2.9375 1.7344-3.75 1.1562-0.82031 2.9297-1.2344 5.3281-1.2344 0.9375 0 1.9219 0.074219 2.9531 0.21875 1.0391 0.14844 2.1641 0.37109 3.375 0.67188z"/>
  </symbol>
  <symbol id="g" overflow="visible">
   <path d="m18.484-9.7188v9.7188h-5.125v-7.4062c0-1.3945-0.03125-2.3516-0.09375-2.875-0.0625-0.51953-0.16797-0.90625-0.3125-1.1562-0.19922-0.33203-0.46875-0.58594-0.8125-0.76562-0.34375-0.1875-0.73438-0.28125-1.1719-0.28125-1.0625 0-1.9023 0.41406-2.5156 1.2344-0.60547 0.8125-0.90625 1.9492-0.90625 3.4062v7.8438h-5.0938v-22.156h5.0938v8.5312c0.76953-0.92578 1.5859-1.6094 2.4531-2.0469 0.86328-0.44531 1.8164-0.67188 2.8594-0.67188 1.8438 0 3.2383 0.57031 4.1875 1.7031 0.95703 1.125 1.4375 2.7656 1.4375 4.9219z"/>
  </symbol>
  <symbol id="f" overflow="visible">
   <path d="m2.4531-15.953h5.0938v15.672c0 2.1328-0.51562 3.7656-1.5469 4.8906-1.0234 1.125-2.5078 1.6875-4.4531 1.6875h-2.5156v-3.3438h0.89062c0.96875 0 1.6289-0.21875 1.9844-0.65625 0.36328-0.4375 0.54688-1.2969 0.54688-2.5781zm0-6.2031h5.0938v4.1562h-5.0938z"/>
  </symbol>
  <symbol id="d" overflow="visible">
   <path d="m10.047-12.688c-1.1367 0-2 0.40625-2.5938 1.2188s-0.89062 1.9805-0.89062 3.5c0 1.5312 0.29688 2.7031 0.89062 3.5156s1.457 1.2188 2.5938 1.2188c1.1016 0 1.9453-0.40625 2.5312-1.2188 0.59375-0.8125 0.89062-1.9844 0.89062-3.5156 0-1.5195-0.29688-2.6875-0.89062-3.5-0.58594-0.8125-1.4297-1.2188-2.5312-1.2188zm0-3.6562c2.7383 0 4.8789 0.74609 6.4219 2.2344 1.5391 1.4805 2.3125 3.5273 2.3125 6.1406 0 2.625-0.77344 4.6797-2.3125 6.1562-1.543 1.4805-3.6836 2.2188-6.4219 2.2188-2.7617 0-4.918-0.73828-6.4688-2.2188-1.5547-1.4766-2.3281-3.5312-2.3281-6.1562 0-2.6133 0.77344-4.6602 2.3281-6.1406 1.5508-1.4883 3.707-2.2344 6.4688-2.2344z"/>
  </symbol>
  <symbol id="r" overflow="visible">
   <path d="m12.953-22.156v3.3438h-2.8281c-0.71875 0-1.2266 0.13281-1.5156 0.39062-0.28125 0.26172-0.42188 0.71484-0.42188 1.3594v1.1094h4.3594v3.6406h-4.3594v12.312h-5.0938v-12.312h-2.5312v-3.6406h2.5312v-1.1094c0-1.7383 0.48438-3.0195 1.4531-3.8438 0.96875-0.83203 2.4688-1.25 4.5-1.25z"/>
  </symbol>
  <symbol id="q" overflow="visible">
   <path d="m17.234-13.297c0.64453-0.98828 1.4102-1.7422 2.2969-2.2656 0.89453-0.51953 1.875-0.78125 2.9375-0.78125 1.832 0 3.2266 0.57031 4.1875 1.7031 0.95703 1.125 1.4375 2.7656 1.4375 4.9219v9.7188h-5.125v-8.3125-0.39062c0.007812-0.13281 0.015625-0.32031 0.015625-0.5625 0-1.1328-0.16797-1.9531-0.5-2.4531-0.32422-0.50781-0.85938-0.76562-1.6094-0.76562-0.96875 0-1.7188 0.40234-2.25 1.2031-0.52344 0.79297-0.79297 1.9453-0.8125 3.4531v7.8281h-5.125v-8.3125c0-1.7695-0.15234-2.9062-0.45312-3.4062-0.30469-0.50781-0.84375-0.76562-1.625-0.76562-0.98047 0-1.7344 0.40234-2.2656 1.2031-0.53125 0.80469-0.79688 1.9492-0.79688 3.4375v7.8438h-5.125v-15.953h5.125v2.3281c0.625-0.89453 1.3438-1.5703 2.1562-2.0312 0.8125-0.45703 1.707-0.6875 2.6875-0.6875 1.1016 0 2.0781 0.26562 2.9219 0.79688s1.4844 1.2812 1.9219 2.25z"/>
  </symbol>
  <symbol id="p" overflow="visible">
   <path d="m2.6719-21.266h6.125l7.7344 14.578v-14.578h5.2031v21.266h-6.125l-7.7344-14.594v14.594h-5.2031z"/>
  </symbol>
  <symbol id="o" overflow="visible">
   <path d="m18.484-9.7188v9.7188h-5.125v-7.4375c0-1.375-0.03125-2.3203-0.09375-2.8438-0.0625-0.51953-0.16797-0.90625-0.3125-1.1562-0.19922-0.33203-0.46875-0.58594-0.8125-0.76562-0.34375-0.1875-0.73438-0.28125-1.1719-0.28125-1.0625 0-1.9023 0.41406-2.5156 1.2344-0.60547 0.8125-0.90625 1.9492-0.90625 3.4062v7.8438h-5.0938v-15.953h5.0938v2.3281c0.76953-0.92578 1.5859-1.6094 2.4531-2.0469 0.86328-0.44531 1.8164-0.67188 2.8594-0.67188 1.8438 0 3.2383 0.57031 4.1875 1.7031 0.95703 1.125 1.4375 2.7656 1.4375 4.9219z"/>
  </symbol>
  <symbol id="n" overflow="visible">
   <path d="m2.6719-21.266h9.1094c2.707 0 4.7852 0.60547 6.2344 1.8125 1.4453 1.1992 2.1719 2.9062 2.1719 5.125 0 2.2305-0.72656 3.9492-2.1719 5.1562-1.4492 1.1992-3.5273 1.7969-6.2344 1.7969h-3.625v7.375h-5.4844zm5.4844 3.9688v5.9375h3.0469c1.0625 0 1.8789-0.25391 2.4531-0.76562 0.58203-0.51953 0.875-1.2539 0.875-2.2031 0-0.94531-0.29297-1.6758-0.875-2.1875-0.57422-0.51953-1.3906-0.78125-2.4531-0.78125z"/>
  </symbol>
  <symbol id="m" overflow="visible">
   <path d="m15.344-15.453v4.1562c-0.69922-0.46875-1.3984-0.81641-2.0938-1.0469-0.69922-0.22656-1.4219-0.34375-2.1719-0.34375-1.4297 0-2.5391 0.41797-3.3281 1.25-0.79297 0.82422-1.1875 1.9805-1.1875 3.4688 0 1.5 0.39453 2.668 1.1875 3.5 0.78906 0.82422 1.8984 1.2344 3.3281 1.2344 0.80078 0 1.5547-0.11719 2.2656-0.35938 0.71875-0.23828 1.3828-0.58594 2-1.0469v4.1719c-0.80469 0.29297-1.6172 0.50781-2.4375 0.65625-0.8125 0.14453-1.6367 0.21875-2.4688 0.21875-2.875 0-5.125-0.73438-6.75-2.2031-1.625-1.4766-2.4375-3.5352-2.4375-6.1719 0-2.625 0.8125-4.6758 2.4375-6.1562 1.625-1.4766 3.875-2.2188 6.75-2.2188 0.83203 0 1.6562 0.078125 2.4688 0.23438 0.8125 0.14844 1.625 0.36719 2.4375 0.65625z"/>
  </symbol>
 </defs>
 <g>
  <path d="m621.25 378.7c-0.003906-13.969-5.9805-27.27-16.426-36.543-10.445-9.2773-24.359-13.641-38.234-11.988-6.0938-12.086-15.715-22.031-27.59-28.527 1.2148-4.4297 1.8398-8.9961 1.8672-13.59 0-25.434-21.059-88.258-52.5-88.258-7.3516 0-8.2852 6.1836-12.773 43.633-0.58203 4.668-1.2266 9.9766-1.8672 14.992-2.4492-10.207-3.8516-14-7.6406-15.574l-0.003907-0.003906c-1.918-0.74219-4.0781-0.55078-5.832 0.52734-13.492 8.3984-22.453 22.461-24.367 38.238-1.918 15.777 3.418 31.574 14.508 42.961-2.8633 4.3086-5.2305 8.9258-7.0586 13.766h-3.1484c-14.254-0.003906-27.844 6.0234-37.406 16.598-9.5586 10.57-14.195 24.695-12.762 38.879h-90.648c-2.0469-10.723-8.3633-20.156-17.5-26.133 0.91797-5.0117 3.4844-9.5703 7.293-12.949l43.984-38.035h-0.003906c3.5039-3.0352 5.375-7.5391 5.0586-12.16-0.32031-4.625-2.7891-8.832-6.6719-11.359-3.8828-2.5273-8.7305-3.0859-13.086-1.5039l-37.918 14.176v-26.602c5.6641 1.793 11.562 2.7188 17.5 2.7422 14.496 0.066406 28.473-5.3828 39.098-15.242 10.625-9.8555 17.109-23.383 18.129-37.844 1.5234-19.973-7.4727-39.293-23.742-50.98 2.0312-5.9531 3.0547-12.203 3.0352-18.492 0.074219-19.695-9.9727-38.043-26.602-48.594 1.8633-6.6133 2.5156-13.512 1.9258-20.355-1.5352-14.355-8.3008-27.641-19.004-37.324-10.707-9.6836-24.602-15.086-39.039-15.176-5.9492 0.089844-11.852 1.0938-17.5 2.9727-1.4688 0.49609-2.6836 1.5547-3.3711 2.9453-0.6875 1.3867-0.79688 2.9922-0.30469 4.4648 1.0312 3.0586 4.3477 4.7031 7.4102 3.6758 4.5117-1.5273 9.2383-2.3359 14-2.3945h0.58203c11.43 0.18359 22.395 4.5586 30.812 12.289 8.418 7.7305 13.707 18.281 14.863 29.652 0.57031 6.7734-0.36719 13.586-2.7422 19.953-1.0469 2.7539 0.13281 5.8594 2.7422 7.2305 10.316 5.3594 18.207 14.441 22.074 25.402 3.8672 10.965 3.4219 22.988-1.25 33.633-1.1836 2.6875-0.18359 5.8359 2.3359 7.3477 7.3359 4.3477 13.305 10.664 17.234 18.23 3.9297 7.5703 5.6562 16.086 4.9883 24.586-0.93359 10.289-5.2539 19.977-12.285 27.547-7.0273 7.5703-16.371 12.59-26.562 14.281-10.969 1.6797-22.172-0.70703-31.5-6.7109-6.2773-3.9961-13.562-6.1211-21-6.1211-7.4414 0-14.727 2.125-21 6.1211-9.332 6.0078-20.535 8.3945-31.5 6.7109-10.191-1.6914-19.535-6.7109-26.566-14.281-7.0312-7.5703-11.352-17.258-12.285-27.547-0.51172-6.8906 0.54297-13.812 3.0898-20.238 5.3477 1.7578 10.941 2.6641 16.57 2.6836 29.168 0 59.266-17.5 59.266-47.133 0-2.1602 0-5.832 0.41016-9.8008 0.81641-14.934 2.1016-37.566-2.1602-49.059-0.82031-2.4648-2.9258-4.2812-5.4844-4.7266-5.0156-0.69922-8.2266 3.6172-13.418 10.793-1.6914 2.2734-4.375 5.832-6.4766 8.2266l0.003906-0.003907c-0.87891-7.9258-0.87891-15.93 0-23.855 0.99219-13.941-21.641-31.09-30.801-35.582-2.043-0.99219-7.4648-3.6172-11.316 0v-0.003906c-2.2148 2.0547-2.8945 5.2812-1.6914 8.0508 7.4102 20.477 2.9766 50.75-1.3984 67.082 0-0.99219-0.41016-1.9258-0.64062-2.8008-3.0352-12.832-4.2578-17.5-8.457-19.074h-0.003906c-1.9219-0.74609-4.0781-0.55078-5.832 0.52734-15.637 9.6875-25.062 26.848-24.848 45.242 0.21484 18.391 10.039 35.328 25.895 44.648-5.3086 13.098-5.582 27.695-0.76953 40.98 4.8086 13.289 14.367 24.328 26.832 30.988 12.465 6.6602 26.953 8.4727 40.672 5.0898l0.875 1.457c5.0469 8.3633 7.7109 17.945 7.6992 27.711v51.918-0.003907c-7.8242-8.832-18.066-15.18-29.457-18.258v-3.1484c0-23.742-18.84-69.418-44.625-69.418-9.8008 0-12.426 12.891-15.398 27.824-0.90625 5.4922-2.332 10.883-4.2617 16.102-0.90234-0.45312-1.7812-0.95703-2.625-1.5156-3.3789-2.9023-8.0664-3.75-12.25-2.2188-5.4805 2.8008-8.2227 10.383-10.09 28.758-1.0586 11.016 2.6602 21.953 10.207 30.043 2.4688 2.6914 5.25 5.082 8.2852 7.1172-2.4922 5.5586-4.1445 11.457-4.9023 17.5h-27.648c-4.6406 0-9.0938 1.8438-12.375 5.125s-5.125 7.7344-5.125 12.375v134.17c0 1.5469 0.61328 3.0273 1.707 4.1211 1.0938 1.0977 2.5781 1.7109 4.125 1.7109h530.84c1.5469 0 3.0312-0.61328 4.125-1.7109 1.0938-1.0938 1.707-2.5742 1.707-4.1211v-136.68c0.003906-3.8945-1.5039-7.6367-4.1992-10.441 2.7617-6.207 4.1914-12.926 4.1992-19.719zm-481.83-221.2c-0.046875-11.906 5.1094-23.242 14.117-31.035 0.64062 2.4492 1.2852 5.3086 1.8086 7.582 3.1484 13.301 4.6094 18.141 8.3398 20.359v0.003906c1.5859 0.92969 3.4844 1.1602 5.25 0.64062 2.3984-0.92578 4.3008-2.8047 5.25-5.1914 9.3281-24.43 12.18-50.852 8.2812-76.711 8.168 5.832 18.84 15.867 18.492 20.766-1.75 25.258 0 35 7.293 37.742s14.117-5.832 20.301-14.41l0.29297-0.41016-0.003906 0.003906c0.75391 11.973 0.65625 23.98-0.28906 35.934 0 4.4336-0.41016 8.0508-0.41016 10.383 0 22.168-24.207 35.465-47.602 35.465l0.003907 0.003906c-5.75 0-11.438-1.2109-16.684-3.5586h-0.52734c-7.168-3.3086-13.234-8.6094-17.473-15.273-4.2422-6.6602-6.4766-14.398-6.4414-22.293zm321.41 99.516c0.64062 2.4492 1.2852 5.3086 1.8672 7.582 3.0898 13.301 4.5508 18.141 8.2852 20.359 1.5859 0.93359 3.4844 1.1641 5.25 0.64453 5.25-1.5156 5.832-4.957 10.383-40.832 1.2852-10.793 3.1484-26.191 4.668-32.84 18.898 5.1914 37.684 50.867 37.684 76.125l-0.003906-0.003907c-0.003906 13.984-7.1172 27.008-18.879 34.57-11.766 7.5625-26.562 8.6328-39.289 2.8359s-21.637-17.664-23.652-31.504c-2.0117-13.84 3.1445-27.754 13.688-36.938zm-59.09 136.21c-1.3594-11.039 2.1328-22.125 9.5664-30.395 8.7578-9.7539 21.855-14.414 34.805-12.391 12.953 2.0234 24 10.465 29.363 22.426 0.78516 1.7656 2.3984 3.0273 4.3047 3.3672 1.9023 0.33984 3.8516-0.28906 5.2031-1.6758 5.25-5.7852 12.605-9.2266 20.41-9.543 7.8086-0.31641 15.418 2.5117 21.121 7.8516 2.4336 2.1094 6.1133 1.8477 8.2266-0.58203 2.1094-2.4336 1.8477-6.1172-0.58203-8.2266-6.918-6.4297-15.887-10.195-25.316-10.633-9.4336-0.4375-18.715 2.4805-26.195 8.2422-6.4062-10.109-16.211-17.598-27.648-21.117 1.125-2.9102 2.4883-5.7188 4.082-8.4023 12.43 8.3164 27.812 10.934 42.293 7.2031 14.477-3.7305 26.68-13.457 33.543-26.742 10.41 6.0234 18.594 15.25 23.332 26.309 1.0859 2.5781 3.8516 4.0234 6.5898 3.4414 11.004-2.4023 22.5 0.30859 31.27 7.3672 8.7734 7.0625 13.875 17.715 13.883 28.973-0.039063 5.1758-1.1719 10.285-3.3242 14.992h-204.87s-0.058593-0.35156-0.058593-0.46484zm-164.21-120.23c4.375-2.7266 9.4258-4.168 14.582-4.168s10.207 1.4414 14.582 4.168l1.9258 0.99219v31.793c0.10547 3.6836 1.9531 7.1055 4.9727 9.2188 3.0234 2.1172 6.8672 2.6758 10.367 1.5117l38.266-13.941h0.003906c0.92969-0.38281 1.9922-0.25 2.8008 0.35156 0.85156 0.54688 1.3594 1.4961 1.3398 2.5078-0.011719 0.89062-0.39062 1.7344-1.0508 2.332l-43.984 38.035c-5.082 4.4141-8.7344 10.242-10.5 16.742-3.6836-1.0312-7.4883-1.5586-11.316-1.5781-6.875 0.019531-13.633 1.8281-19.598 5.25l0.52344-6.707v-50.34c-0.039063-11.641-3.1797-23.055-9.0977-33.078 2.1289-0.88281 4.1953-1.9141 6.1836-3.0898zm-112.23 49c0.41016 0 0.75781 0.46484 1.1094 0.64062 4.4453 3.9258 10.973 4.3828 15.922 1.1094 4.4336-3.3828 5.832-10.676 8.6328-23.332 0.94922-6.3398 2.6328-12.543 5.0195-18.492 15.984 1.6328 31.91 37.508 31.91 57.75h-0.003906c0 2.1328-0.21484 4.2656-0.64062 6.3594-0.023438 0.11328-0.023438 0.23438 0 0.34766-1.5977 7.3594-5.6602 13.949-11.516 18.684-5.8555 4.7305-13.156 7.3203-20.684 7.332-9.7461 0.15234-19.121-3.7305-25.902-10.73-5.3633-5.7266-8-13.484-7.2305-21.293 0.32422-6.2461 1.4609-12.422 3.3828-18.375zm13.883 59.617c5.0508 1.832 10.379 2.7812 15.75 2.8008 9.2617-0.007813 18.297-2.8984 25.844-8.2734 7.5469-5.3711 13.234-12.961 16.273-21.711 13.906 3.9023 25.348 13.805 31.207 27.008 0.82031 1.8242 2.5156 3.0977 4.4922 3.3828 1.9922 0.30078 4-0.44922 5.3086-1.9844 4.4766-5.3398 10.762-8.8516 17.656-9.8711 6.8945-1.0156 13.926 0.53125 19.758 4.3477 5.8281 3.8203 10.055 9.6484 11.879 16.375h-151.67c0.63281-4.1602 1.8086-8.2227 3.5-12.074zm-42.934 23.742h509.83c1.9336 0 3.5 1.5664 3.5 3.5v8.168l-519.16-0.003906v-5.832c0-3.2227 2.6094-5.832 5.832-5.832zm-5.832 134.17v-110.83h519.17v110.83zm110.83-482.59v-0.003906c4.4883 0 8.7891-1.7812 11.961-4.9531 3.1719-3.1758 4.957-7.4766 4.957-11.965 0-3.1484-3.6758-31.324-16.918-31.324s-16.918 28.176-16.918 31.324c-0.015625 4.5391 1.793 8.8906 5.0156 12.086 3.2266 3.1914 7.5977 4.9531 12.137 4.8906zm0-35v-0.003906c2.9062 5.7344 4.6875 11.973 5.25 18.375 0 2.8984-2.3516 5.25-5.25 5.25s-5.25-2.3516-5.25-5.25c0.60547-6.5 2.4688-12.82 5.4844-18.609zm297.5 160.24v-0.003907c5.8984-0.042969 11.332-3.2148 14.262-8.332 2.9336-5.1211 2.9219-11.41-0.027344-16.52l-10.324-17.5c-2.5078-4.2578-7.5547-6.3125-12.324-5.0195-4.7695 1.2969-8.082 5.6211-8.0938 10.562v20.359c0.074218 4.3242 1.8477 8.4492 4.9375 11.484 3.0859 3.0312 7.2422 4.7305 11.57 4.7305zm4.1406-18.957v-0.007812c0.83984 1.5 0.83203 3.3242-0.015625 4.8164-0.84375 1.4922-2.4102 2.4297-4.125 2.4766-2.6758 0-4.8398-2.168-4.8398-4.8398v-18.027zm-381.03 274.69c-4.6406 0-9.0938 1.8438-12.375 5.125s-5.125 7.7305-5.125 12.375c0 4.6406 1.8438 9.0898 5.125 12.371 3.2812 3.2852 7.7344 5.1289 12.375 5.1289s9.0898-1.8438 12.375-5.1289c3.2812-3.2812 5.125-7.7305 5.125-12.371 0-4.6445-1.8438-9.0938-5.125-12.375-3.2852-3.2812-7.7344-5.125-12.375-5.125zm0 23.332c-2.3594 0-4.4883-1.4219-5.3906-3.6016s-0.40234-4.6875 1.2656-6.3555c1.668-1.6719 4.1758-2.168 6.3555-1.2656 2.1797 0.90234 3.6016 3.0312 3.6016 5.3906 0 1.5469-0.61328 3.0273-1.707 4.1211-1.0938 1.0977-2.5781 1.7109-4.125 1.7109zm439.71 32.84h-11.668 0.003906c-5.6094 0-10.789 2.9922-13.59 7.8477-2.8047 4.8555-2.8047 10.836 0 15.691 2.8008 4.8555 7.9805 7.8438 13.59 7.8438h11.668-0.003906c5.6055 0 10.789-2.9883 13.59-7.8438 2.8047-4.8555 2.8047-10.836 0-15.691-2.8008-4.8555-7.9844-7.8477-13.59-7.8477zm0 19.715h-11.668l0.003906 0.003906c-2.2266 0-4.0273-1.8047-4.0273-4.0273 0-2.2227 1.8008-4.0234 4.0273-4.0234h11.668-0.003906c2.2227 0 4.0273 1.8008 4.0273 4.0234 0 2.2227-1.8047 4.0273-4.0273 4.0273zm-362.43-15.398c0 2.3594-1.418 4.4883-3.5977 5.3906-2.1797 0.90234-4.6914 0.40234-6.3594-1.2656-1.668-1.668-2.168-4.1758-1.2656-6.3555 0.90625-2.1797 3.0312-3.6016 5.3906-3.6016 1.5469 0 3.0312 0.61328 4.125 1.707 1.0938 1.0977 1.707 2.5781 1.707 4.125zm-23.332 0c0 2.3594-1.4219 4.4883-3.6016 5.3906-2.1797 0.90234-4.6875 0.40234-6.3555-1.2656-1.668-1.668-2.168-4.1758-1.2656-6.3555 0.90234-2.1797 3.0312-3.6016 5.3906-3.6016 1.5469 0 3.0312 0.61328 4.125 1.707 1.0938 1.0977 1.707 2.5781 1.707 4.125zm-23.332 0c0 2.3594-1.4219 4.4883-3.6016 5.3906-2.1797 0.90234-4.6875 0.40234-6.3594-1.2656-1.668-1.668-2.1641-4.1758-1.2617-6.3555 0.90234-2.1797 3.0273-3.6016 5.3867-3.6016 1.5469 0 3.0312 0.61328 4.125 1.707 1.0938 1.0977 1.7109 2.5781 1.7109 4.125zm35 22.75c0 3.2227-2.6133 5.8359-5.8359 5.8359-3.2188 0-5.832-2.6133-5.832-5.8359 0-3.2188 2.6133-5.832 5.832-5.832 3.2227 0 5.8359 2.6133 5.8359 5.832zm-23.332 0h-0.003906c0 3.2227-2.6094 5.8359-5.832 5.8359s-5.832-2.6133-5.832-5.8359c0-3.2188 2.6094-5.832 5.832-5.832s5.832 2.6133 5.832 5.832zm360.85-54.191c0 2.3594-1.4219 4.4883-3.6016 5.3906-2.1797 0.90234-4.6875 0.40234-6.3555-1.2656s-2.168-4.1758-1.2656-6.3555c0.90234-2.1797 3.0312-3.6016 5.3906-3.6016 1.5469 0 3.0312 0.61328 4.125 1.707s1.707 2.5781 1.707 4.125zm-46.668 0c0 2.3594-1.4219 4.4883-3.6016 5.3906-2.1797 0.90234-4.6875 0.40234-6.3555-1.2656s-2.168-4.1758-1.2656-6.3555c0.90234-2.1797 3.0312-3.6016 5.3906-3.6016 1.5469 0 3.0312 0.61328 4.125 1.707s1.707 2.5781 1.707 4.125zm23.332 0h0.003907c0 2.3594-1.4219 4.4883-3.6016 5.3906-2.1797 0.90234-4.6914 0.40234-6.3594-1.2656s-2.1641-4.1758-1.2617-6.3555c0.90234-2.1797 3.0273-3.6016 5.3867-3.6016 1.5469 0 3.0312 0.61328 4.125 1.707s1.7109 2.5781 1.7109 4.125zm-382.61-177.57c1.5625-0.003906 3.1133-0.23828 4.6094-0.69922 2.6836-0.78906 5.1016-2.293 7-4.3477 1.9023-2.0508 3.2109-4.582 3.7891-7.3203 1.6328-7.1172 0.8125-14.582-2.332-21.172l-9.625-19.66c-1.0078-2.1172-3.1797-3.4258-5.5195-3.3203-2.3438 0.10156-4.3945 1.5938-5.2148 3.7891l-8.9258 24.441c-1.5391 4.082-1.8438 8.5312-0.86719 12.785 0.97656 4.2539 3.1836 8.125 6.3516 11.129 2.8789 2.793 6.7266 4.3594 10.734 4.375zm-5.3086-24.207 4.3164-11.668 3.5586 7.4102c1.9883 4.2188 2.5 8.9844 1.457 13.531-0.32422 1.4062-1.3633 2.5391-2.7422 2.9766-1.2812 0.35156-2.6602 0.046875-3.6719-0.81641-3.1836-2.8789-4.332-7.3828-2.918-11.434zm26.25 88.668c-1.3047-2.9492 0.027344-6.3984 2.9766-7.7031 2.9453-1.3047 6.3945 0.027343 7.6992 2.9766 1.0039 1.8477 3.0508 2.8711 5.1328 2.5664 5.0156 0 10.793-2.3906 11.199-15.984 0-3.2188 2.6133-5.832 5.832-5.832 1.5508 0 3.0312 0.61328 4.125 1.707s1.7109 2.5781 1.7109 4.125c-0.69922 23.332-15.691 26.891-22.168 27.301h-1.168c-3.1602 0.09375-6.2852-0.71875-9.0039-2.3438-2.7188-1.6211-4.9141-3.9844-6.3359-6.8125z"/>
  <use x="70" y="647.5" xlink:href="#t"/>
  <use x="91.40625" y="647.5" xlink:href="#a"/>
  <use x="105.789062" y="647.5" xlink:href="#c"/>
  <use x="125.570312" y="647.5" xlink:href="#b"/>
  <use x="145.253906" y="647.5" xlink:href="#e"/>
  <use x="159.195312" y="647.5" xlink:href="#c"/>
  <use x="178.976562" y="647.5" xlink:href="#l"/>
  <use x="210.007812" y="647.5" xlink:href="#k"/>
  <use x="230.886719" y="647.5" xlink:href="#j"/>
  <use x="260.054688" y="647.5" xlink:href="#b"/>
  <use x="279.734375" y="647.5" xlink:href="#i"/>
  <use x="300.613281" y="647.5" xlink:href="#h"/>
  <use x="321.378906" y="647.5" xlink:href="#s"/>
  <use x="348.890625" y="647.5" xlink:href="#a"/>
  <use x="363.277344" y="647.5" xlink:href="#b"/>
  <use x="382.957031" y="647.5" xlink:href="#g"/>
  <use x="403.722656" y="647.5" xlink:href="#b"/>
  <use x="423.402344" y="647.5" xlink:href="#a"/>
  <use x="437.789062" y="647.5" xlink:href="#f"/>
  <use x="447.785156" y="647.5" xlink:href="#d"/>
  <use x="70" y="676.667969" xlink:href="#r"/>
  <use x="82.6875" y="676.667969" xlink:href="#a"/>
  <use x="97.074219" y="676.667969" xlink:href="#d"/>
  <use x="117.109375" y="676.667969" xlink:href="#q"/>
  <use x="157.65625" y="676.667969" xlink:href="#e"/>
  <use x="171.597656" y="676.667969" xlink:href="#g"/>
  <use x="192.363281" y="676.667969" xlink:href="#c"/>
  <use x="222.300781" y="676.667969" xlink:href="#p"/>
  <use x="246.710938" y="676.667969" xlink:href="#d"/>
  <use x="266.746094" y="676.667969" xlink:href="#h"/>
  <use x="287.511719" y="676.667969" xlink:href="#o"/>
  <use x="318.429688" y="676.667969" xlink:href="#n"/>
  <use x="339.804688" y="676.667969" xlink:href="#a"/>
  <use x="354.191406" y="676.667969" xlink:href="#d"/>
  <use x="374.226562" y="676.667969" xlink:href="#f"/>
  <use x="384.226562" y="676.667969" xlink:href="#c"/>
  <use x="404.007812" y="676.667969" xlink:href="#m"/>
  <use x="421.296875" y="676.667969" xlink:href="#e"/>
 </g>
</svg>
