<?xml version="1.0" encoding="UTF-8"?>
<svg width="700pt" height="700pt" version="1.1" viewBox="0 0 700 700" xmlns="http://www.w3.org/2000/svg" xmlns:xlink="http://www.w3.org/1999/xlink">
 <defs>
  <symbol id="o" overflow="visible">
   <path d="m29.312-1.75c-1.5117 0.78125-3.0898 1.3711-4.7344 1.7656-1.6367 0.40625-3.3398 0.60938-5.1094 0.60938-5.3125 0-9.5273-1.4844-12.641-4.4531-3.1055-2.9688-4.6562-7-4.6562-12.094s1.5508-9.125 4.6562-12.094c3.1133-2.9688 7.3281-4.4531 12.641-4.4531 1.7695 0 3.4727 0.19922 5.1094 0.59375 1.6445 0.39844 3.2227 0.99219 4.7344 1.7812v6.5938c-1.5312-1.0391-3.0391-1.8008-4.5156-2.2812-1.4805-0.48828-3.0391-0.73438-4.6719-0.73438-2.9375 0-5.2461 0.94531-6.9219 2.8281-1.6797 1.875-2.5156 4.4648-2.5156 7.7656 0 3.293 0.83594 5.8828 2.5156 7.7656 1.6758 1.875 3.9844 2.8125 6.9219 2.8125 1.6328 0 3.1914-0.23828 4.6719-0.71875 1.4766-0.48828 2.9844-1.2539 4.5156-2.2969z"/>
  </symbol>
  <symbol id="b" overflow="visible">
   <path d="m21.453-17.406c-0.67969-0.3125-1.3516-0.53906-2.0156-0.6875-0.65625-0.15625-1.3203-0.23438-1.9844-0.23438-1.9688 0-3.4844 0.63281-4.5469 1.8906-1.0547 1.2617-1.5781 3.0703-1.5781 5.4219v11.016h-7.6562v-23.922h7.6562v3.9219c0.97656-1.5625 2.1016-2.7031 3.375-3.4219 1.2812-0.71875 2.8125-1.0781 4.5938-1.0781 0.25 0 0.52344 0.011719 0.82812 0.03125 0.30078 0.023438 0.73438 0.070312 1.2969 0.14062z"/>
  </symbol>
  <symbol id="c" overflow="visible">
   <path d="m27.562-12.031v2.1875h-17.891c0.1875 1.793 0.83203 3.1367 1.9375 4.0312 1.1133 0.89844 2.6719 1.3438 4.6719 1.3438 1.6016 0 3.25-0.23438 4.9375-0.70312 1.6875-0.47656 3.4219-1.2031 5.2031-2.1719v5.8906c-1.8047 0.6875-3.6094 1.2031-5.4219 1.5469-1.8125 0.35156-3.6211 0.53125-5.4219 0.53125-4.3359 0-7.7031-1.0977-10.109-3.2969-2.3984-2.207-3.5938-5.2969-3.5938-9.2656 0-3.9062 1.1758-6.9727 3.5312-9.2031 2.3633-2.2383 5.6094-3.3594 9.7344-3.3594 3.7578 0 6.7695 1.1367 9.0312 3.4062 2.2578 2.2617 3.3906 5.2812 3.3906 9.0625zm-7.8594-2.5312c0-1.457-0.42969-2.6289-1.2812-3.5156-0.84375-0.89453-1.9492-1.3438-3.3125-1.3438-1.4922 0-2.6992 0.41797-3.625 1.25-0.91797 0.83594-1.4922 2.0391-1.7188 3.6094z"/>
  </symbol>
  <symbol id="a" overflow="visible">
   <path d="m14.391-10.766c-1.5938 0-2.793 0.27344-3.5938 0.8125-0.80469 0.54297-1.2031 1.3398-1.2031 2.3906 0 0.96875 0.32031 1.7305 0.96875 2.2812 0.64453 0.54297 1.5469 0.8125 2.7031 0.8125 1.4375 0 2.6445-0.51562 3.625-1.5469 0.98828-1.0312 1.4844-2.3203 1.4844-3.875v-0.875zm11.688-2.8906v13.656h-7.7031v-3.5469c-1.0312 1.4492-2.1875 2.5078-3.4688 3.1719s-2.8398 1-4.6719 1c-2.4805 0-4.4961-0.72266-6.0469-2.1719-1.543-1.4453-2.3125-3.3203-2.3125-5.625 0-2.8125 0.96094-4.8672 2.8906-6.1719 1.9375-1.3125 4.9688-1.9688 9.0938-1.9688h4.5156v-0.60938c0-1.207-0.48047-2.0938-1.4375-2.6562-0.94922-0.5625-2.4375-0.84375-4.4688-0.84375-1.6367 0-3.1562 0.16797-4.5625 0.5-1.4062 0.32422-2.7188 0.8125-3.9375 1.4688v-5.8281c1.6445-0.40625 3.2891-0.70703 4.9375-0.90625 1.6562-0.20703 3.3047-0.3125 4.9531-0.3125 4.3203 0 7.4375 0.85547 9.3438 2.5625 1.9141 1.6992 2.875 4.4609 2.875 8.2812z"/>
  </symbol>
  <symbol id="h" overflow="visible">
   <path d="m12.031-30.719v6.7969h7.875v5.4688h-7.875v10.141c0 1.1172 0.21875 1.8711 0.65625 2.2656 0.4375 0.38672 1.3125 0.57812 2.625 0.57812h3.9375v5.4688h-6.5625c-3.0234 0-5.1641-0.62891-6.4219-1.8906-1.2617-1.2578-1.8906-3.3984-1.8906-6.4219v-10.141h-3.7969v-5.4688h3.7969v-6.7969z"/>
  </symbol>
  <symbol id="g" overflow="visible">
   <path d="m19.953-20.422v-12.812h7.6875v33.234h-7.6875v-3.4531c-1.0547 1.4062-2.2148 2.4375-3.4844 3.0938-1.2734 0.65625-2.7422 0.98438-4.4062 0.98438-2.9492 0-5.3711-1.1719-7.2656-3.5156-1.8867-2.3438-2.8281-5.3594-2.8281-9.0469s0.94141-6.7031 2.8281-9.0469c1.8945-2.3438 4.3164-3.5156 7.2656-3.5156 1.6562 0 3.1172 0.33594 4.3906 1 1.2812 0.65625 2.4453 1.6836 3.5 3.0781zm-5.0469 15.484c1.6445 0 2.8945-0.59766 3.75-1.7969 0.86328-1.1953 1.2969-2.9297 1.2969-5.2031 0-2.2812-0.43359-4.0195-1.2969-5.2188-0.85547-1.1953-2.1055-1.7969-3.75-1.7969-1.625 0-2.8711 0.60156-3.7344 1.7969-0.85547 1.1992-1.2812 2.9375-1.2812 5.2188 0 2.2734 0.42578 4.0078 1.2812 5.2031 0.86328 1.1992 2.1094 1.7969 3.7344 1.7969z"/>
  </symbol>
  <symbol id="f" overflow="visible">
   <path d="m16.406-4.9375c1.6328 0 2.8828-0.59766 3.75-1.7969 0.86328-1.1953 1.2969-2.9297 1.2969-5.2031 0-2.2812-0.43359-4.0195-1.2969-5.2188-0.86719-1.1953-2.1172-1.7969-3.75-1.7969-1.6367 0-2.8906 0.60547-3.7656 1.8125-0.875 1.1992-1.3125 2.9336-1.3125 5.2031 0 2.2617 0.4375 3.9961 1.3125 5.2031 0.875 1.1992 2.1289 1.7969 3.7656 1.7969zm-5.0781-15.484c1.0508-1.3945 2.2188-2.4219 3.5-3.0781 1.2812-0.66406 2.7539-1 4.4219-1 2.9453 0 5.3672 1.1719 7.2656 3.5156 1.8945 2.3438 2.8438 5.3594 2.8438 9.0469s-0.94922 6.7031-2.8438 9.0469c-1.8984 2.3438-4.3203 3.5156-7.2656 3.5156-1.668 0-3.1406-0.33594-4.4219-1s-2.4492-1.6914-3.5-3.0781v3.4531h-7.6562v-33.234h7.6562z"/>
  </symbol>
  <symbol id="e" overflow="visible">
   <path d="m0.53125-23.922h7.6562l6.4219 16.234 5.4688-16.234h7.6562l-10.062 26.188c-1.0117 2.6641-2.1953 4.5234-3.5469 5.5781-1.3438 1.0625-3.1211 1.5938-5.3281 1.5938h-4.4219v-5.0156h2.3906c1.3008 0 2.2422-0.21094 2.8281-0.625 0.59375-0.40625 1.0547-1.1484 1.3906-2.2188l0.20312-0.65625z"/>
  </symbol>
  <symbol id="d" overflow="visible">
   <path d="m4.0156-31.891h22.203v6.2188h-13.984v5.9375h13.141v6.2188h-13.141v13.516h-8.2188z"/>
  </symbol>
  <symbol id="n" overflow="visible">
   <path d="m2.5-23.922h20.875v5.3438l-12.609 13.109h12.609v5.4688h-21.406v-5.3438l12.594-13.109h-12.062z"/>
  </symbol>
  <symbol id="m" overflow="visible">
   <path d="m3.6719-23.922h7.6562v23.922h-7.6562zm0-9.3125h7.6562v6.2344h-7.6562z"/>
  </symbol>
  <symbol id="l" overflow="visible">
   <path d="m27.734-14.562v14.562h-7.7031v-11.156c0-2.0625-0.046875-3.4844-0.14062-4.2656-0.085937-0.78125-0.24219-1.3594-0.46875-1.7344-0.30469-0.5-0.71094-0.88281-1.2188-1.1562-0.51172-0.28125-1.0938-0.42188-1.75-0.42188-1.5938 0-2.8516 0.61719-3.7656 1.8438-0.90625 1.2305-1.3594 2.9375-1.3594 5.125v11.766h-7.6562v-23.922h7.6562v3.5c1.1445-1.3945 2.3633-2.4219 3.6562-3.0781 1.3008-0.66406 2.7383-1 4.3125-1 2.7578 0 4.8516 0.85156 6.2812 2.5469 1.4375 1.6875 2.1562 4.1523 2.1562 7.3906z"/>
  </symbol>
  <symbol id="k" overflow="visible">
   <path d="m2.4531-31.891h26.812v4.9688l-17.109 20.703h17.594v6.2188h-27.781v-4.9844l17.109-20.688h-16.625z"/>
  </symbol>
  <symbol id="j" overflow="visible">
   <path d="m27.734-14.562v14.562h-7.7031v-11.109c0-2.0938-0.046875-3.5312-0.14062-4.3125-0.085937-0.78125-0.24219-1.3594-0.46875-1.7344-0.30469-0.5-0.71094-0.88281-1.2188-1.1562-0.51172-0.28125-1.0938-0.42188-1.75-0.42188-1.5938 0-2.8516 0.61719-3.7656 1.8438-0.90625 1.2305-1.3594 2.9375-1.3594 5.125v11.766h-7.6562v-33.234h7.6562v12.812c1.1445-1.3945 2.3633-2.4219 3.6562-3.0781 1.3008-0.66406 2.7383-1 4.3125-1 2.7578 0 4.8516 0.85156 6.2812 2.5469 1.4375 1.6875 2.1562 4.1523 2.1562 7.3906z"/>
  </symbol>
  <symbol id="i" overflow="visible">
   <path d="m1.5312-23.922h7.4375l4.0156 16.484 4.0469-16.484h6.375l4.0156 16.312 4.0469-16.312h7.4375l-6.3125 23.922h-8.3438l-4.0469-16.453-4.0156 16.453h-8.3438z"/>
  </symbol>
 </defs>
 <g>
  <path d="m293.12 61.25c47.609-0.52734 92.828 20.832 122.66 57.941 3.0156 3.7539 8.4961 4.3711 12.266 1.375s4.4141-8.4727 1.4375-12.258c-16.355-20.387-37.129-36.789-60.75-47.973-23.621-11.184-49.477-16.855-75.609-16.586-123.27 0-156.85 86.703-165.9 138.38-4.668 28.199-19.738 53.629-42.238 71.258l-2.8281 2.1797h0.003906c-2.9688 2.2852-4.1484 6.2031-2.9414 9.75 1.207 3.543 4.5312 5.9297 8.2773 5.9297 1.9336 0.007812 3.8125-0.63281 5.3359-1.8203l2.8359-2.1797c25.961-20.297 43.367-49.586 48.789-82.09 9.8984-56.535 43.715-123.91 148.66-123.91z"/>
  <path d="m336.39 401.03c4.0195 2.6797 9.4531 1.5938 12.137-2.4258 2.6797-4.0195 1.5938-9.4531-2.4258-12.137l-12.293-8.1992c-11.137-7.4102-25.203-8.875-37.625-3.918l-11.523 4.6211c-7.5039 2.9688-16.012 1.8398-22.488-2.9766l-20.766-15.574c-66.668-48.484-57.18-167.5-26.879-211.01 13.293-19.039 22.594-12.914 25.219-11.164l18.453 13.844c6.2773 4.7305 13.824 7.4727 21.672 7.8789s15.637-1.5469 22.367-5.6055l8.2773-4.9805v0.003906c3.7461-2.2578 8.0781-3.3438 12.445-3.1172 4.3633 0.22656 8.5625 1.7539 12.055 4.3828 0.60547 0.44531 1.2695 0.76953 1.8906 1.1797-25.094 44.852-17.035 116.97 7.9805 160.41 17.5 30.406 41.844 46.805 69.047 46.805 2.2852 0 4.5859-0.12109 6.9141-0.35156l-0.003906 0.003906c4.8086-0.48438 8.3164-4.7734 7.832-9.582-0.48438-4.8086-4.7734-8.3164-9.582-7.832-30.625 3.0352-50.145-22.355-59.047-37.781-25.305-43.934-27.816-109.99-6.4141-145.4h0.003906c10.191 1.3633 20.516-1.3047 28.77-7.4375l1.3555-1.0156c3.2656-2.4648 7.1562-3.9648 11.23-4.332 4.0742-0.36719 8.1719 0.41016 11.828 2.25l5.1523 2.625c10.539 5.2539 22.938 5.2539 33.477 0l3.6914-1.8359v-0.003907c3.7422-1.8711 7.9805-2.5195 12.113-1.8477 4.1289 0.67188 7.9453 2.625 10.902 5.5859l2.8789 2.8789c3.4336 3.3164 8.8906 3.2695 12.266-0.10547s3.4219-8.8359 0.10547-12.266l-2.8789-2.8789c-5.5508-5.5625-12.715-9.2305-20.473-10.488-7.7539-1.2539-15.711-0.035157-22.734 3.4883l-3.6914 1.8359c-5.6133 2.8008-12.215 2.8008-17.824 0l-5.1641-2.582c-6.5508-3.3008-13.898-4.7031-21.207-4.0469s-14.285 3.3477-20.145 7.7656l-1.3633 1.0156h-0.003907c-3.8164 2.8398-8.4453 4.3711-13.203 4.3711-4.7539 0-9.3867-1.5312-13.203-4.3711-6.2734-4.7305-13.824-7.4766-21.672-7.8789-7.8477-0.40625-15.637 1.5469-22.367 5.6055l-8.2773 4.9805v-0.003906c-3.7422 2.2578-8.0781 3.3398-12.445 3.1133-4.3633-0.22266-8.5625-1.75-12.055-4.3828l-18.848-14.121c-16.625-11.086-35.227-5.3203-49.699 15.453-34.527 49.516-45.012 179.85 30.844 235.02l20.66 15.488c11.359 8.4766 26.305 10.465 39.488 5.25l11.516-4.6094v-0.003906c7.0781-2.8359 15.102-2.0039 21.445 2.2344z"/>
  <path d="m247.33 327.88c-3.2812 3.5469-3.0664 9.082 0.48047 12.363 2.9531 2.7227 6.0508 5.3477 9.3008 7.875 3.8086 2.9766 9.3086 2.3047 12.285-1.5039 1.4297-1.8281 2.0742-4.1484 1.793-6.4531-0.28125-2.3047-1.4688-4.4023-3.2969-5.832-2.8594-2.2383-5.5898-4.5742-8.1992-7-1.7109-1.5664-3.9766-2.3867-6.2969-2.2852-2.3164 0.10547-4.5 1.125-6.0664 2.8359z"/>
  <path d="m219.18 236.25c-2.3242-0.13672-4.6055 0.66797-6.332 2.2305-1.7266 1.5625-2.7539 3.7539-2.8477 6.082-1.9297 26.012 4.7383 51.934 18.969 73.789 2.7227 3.9219 8.0859 4.9336 12.055 2.2812 3.9648-2.6562 5.0742-8 2.4883-12.012-12.199-18.699-17.832-40.93-16.012-63.184 0.11719-2.3242-0.69141-4.5977-2.2539-6.3203-1.5625-1.7266-3.7422-2.7578-6.0664-2.8672z"/>
  <path d="m287.47 166.25c-4.8203-0.28906-8.9609 3.3789-9.2578 8.1992-0.83203 9.7852-0.11719 19.645 2.125 29.207 1.0742 3.7539 4.5039 6.3438 8.4102 6.3438 0.82031-0.003906 1.6367-0.11719 2.4219-0.33984 2.2305-0.64453 4.1172-2.1445 5.2383-4.1797 1.1211-2.0312 1.3906-4.4258 0.75-6.6523-1.6719-7.6445-2.1719-15.5-1.4805-23.293 0.14453-2.3203-0.63672-4.6055-2.1758-6.3477-1.5391-1.7422-3.7109-2.7969-6.0312-2.9375z"/>
  <path d="m612.5 385c-2.9297-0.003906-5.8594 0.23438-8.75 0.70703v-96.957h8.75c3.6211 0 6.8672-2.2344 8.168-5.6133 1.2969-3.3828 0.375-7.2148-2.3125-9.6367l-87.5-78.75c-3.3281-2.9961-8.3828-2.9961-11.711 0l-87.5 78.75c-2.6875 2.4219-3.6094 6.2539-2.3125 9.6367 1.3008 3.3789 4.5469 5.6133 8.168 5.6133h8.75v103.75c-7.793-5.0938-16.945-7.707-26.25-7.5-4.832 0-8.75 3.918-8.75 8.75s3.918 8.75 8.75 8.75c6.9727-0.15625 13.785 2.0742 19.32 6.3164 8.4258 5.9141 18.473 9.082 28.766 9.082 10.293 0 20.336-3.168 28.766-9.082 5.6172-4.1055 12.395-6.3203 19.355-6.3203 6.957 0 13.738 2.2148 19.355 6.3203 8.3711 6.0625 18.48 9.25 28.812 9.082 1.5234 0 2.9414-0.085938 4.3242-0.19141h0.21094-0.003906c8.7422-0.69141 17.129-3.7617 24.258-8.8711 5.5352-4.25 12.355-6.4844 19.336-6.3359 4.832 0 8.75-3.918 8.75-8.75s-3.918-8.75-8.75-8.75zm-78.75 3.0469v-42.422c-0.41797-3.4414 0.72266-6.8906 3.1094-9.4062 2.3906-2.5156 5.7773-3.8281 9.2383-3.5859 3.5938-0.23437 7.125 1.0312 9.7578 3.4922 2.6328 2.457 4.1328 5.8984 4.1445 9.5v54.434c-5.4297-0.69141-10.598-2.75-15.016-5.9844-3.5234-2.3984-7.2891-4.418-11.234-6.0273zm43.75 9.5625v-51.984c-0.23047-7.9453-3.4648-15.508-9.0508-21.164-5.5859-5.6523-13.109-8.9766-21.051-9.3008-7.9453-0.32422-15.715 2.375-21.742 7.5586-6.3164 5.9062-9.75 14.266-9.4062 22.906v39.375h-0.050781c-10.324-0.16406-20.422 3.0195-28.781 9.082-5.5391 4.2422-12.359 6.4727-19.336 6.3164-1.4492-0.023438-2.8984-0.13672-4.332-0.33984v-111.31h20.441c4.832 0 8.75-3.918 8.75-8.75s-3.918-8.75-8.75-8.75h-23.887l64.695-58.223 64.699 58.223h-65.625c-4.8359 0-8.75 3.918-8.75 8.75s3.9141 8.75 8.75 8.75h62.176v103.72c-0.875 0.54297-1.75 1.0859-2.5391 1.6016-1.9961 1.3047-4.0703 2.4844-6.2109 3.5352z"/>
  <path d="m192.5 420c0-2.3203-0.92188-4.5469-2.5625-6.1875s-3.8672-2.5625-6.1875-2.5625h-70c-4.832 0-8.75 3.918-8.75 8.75s3.918 8.75 8.75 8.75h70c2.3203 0 4.5469-0.92188 6.1875-2.5625s2.5625-3.8672 2.5625-6.1875z"/>
  <path d="m227.5 428.75c4.832 0 8.75-3.918 8.75-8.75s-3.918-8.75-8.75-8.75h-8.75c-4.832 0-8.75 3.918-8.75 8.75s3.918 8.75 8.75 8.75z"/>
  <path d="m257.64 456.47-8.75 5.8438v0.003906c-4.0273 2.6836-8.6953 4.2617-13.523 4.5703-4.832 0.30469-9.6602-0.66797-13.996-2.8203-12.676-6.3008-27.574-6.3008-40.25 0-4.332 2.1602-9.1562 3.1406-13.988 2.8398s-9.5-1.8672-13.531-4.5469l-8.75-5.8438c-1.9297-1.2891-4.293-1.7578-6.5703-1.3047-2.2734 0.45703-4.2773 1.7969-5.5664 3.7266-2.6797 4.0195-1.5938 9.4531 2.4258 12.137l8.75 5.8438c6.6016 4.3828 14.242 6.9492 22.152 7.4414 7.9062 0.48828 15.805-1.1094 22.902-4.6406 7.7383-3.8398 16.828-3.8398 24.566 0 7.0977 3.5352 15 5.1406 22.91 4.6445 7.9102-0.49219 15.555-3.0625 22.152-7.4531l8.75-5.8438c4.0234-2.6836 5.1094-8.1172 2.4258-12.137-2.6836-4.0234-8.1172-5.1055-12.137-2.4258z"/>
  <path d="m586.25 466.55c-4.582 0.17188-9.1172-0.95703-13.082-3.2656-4.1719-2.4375-9.5312-1.0352-11.973 3.1367-2.4414 4.1758-1.0352 9.5352 3.1367 11.977 6.6445 3.8672 14.23 5.8242 21.918 5.6523 4.832 0 8.75-3.918 8.75-8.75s-3.918-8.75-8.75-8.75z"/>
  <path d="m544.03 446.98c-2.8164-0.49219-5.6719-0.73437-8.5312-0.72656-11.449-0.070312-22.488 4.2461-30.852 12.066-4.3086 4.207-9.8086 6.9883-15.75 7.9727-4.582 0.58203-7.9219 4.6211-7.6289 9.2305s4.1133 8.1953 8.7305 8.1992c0.37891-0.003906 0.75391-0.027344 1.1289-0.070312 9.125-1.3594 17.633-5.4258 24.422-11.672 5.2656-5.3242 12.461-8.293 19.949-8.2266 1.8477-0.007812 3.6914 0.14453 5.5117 0.45312 4.7148 0.75391 9.1602-2.4141 9.9922-7.1133 0.83203-4.6992-2.2539-9.1992-6.9375-10.113z"/>
  <path d="m464.78 458.32c-8.3906-7.7617-19.402-12.074-30.832-12.074-11.434 0-22.445 4.3125-30.836 12.074-5.2812 5.2695-12.434 8.2266-19.891 8.2266-7.457 0-14.609-2.957-19.887-8.2266-8.3555-7.8242-19.391-12.145-30.836-12.074-4.832 0-8.75 3.918-8.75 8.75s3.918 8.75 8.75 8.75c7.4727-0.058594 14.648 2.9062 19.898 8.2266 8.3867 7.7617 19.395 12.074 30.824 12.074 11.43 0 22.438-4.3125 30.828-12.074 5.2812-5.2695 12.441-8.2305 19.902-8.2305s14.617 2.9609 19.902 8.2305c1.5664 1.25 3.1328 2.5117 4.7852 3.6914 1.8789 1.4102 4.25 2.0078 6.5742 1.6523 2.3242-0.35547 4.4062-1.6289 5.7812-3.5391 1.375-1.9062 1.9219-4.2891 1.5195-6.6055-0.40234-2.3164-1.7188-4.375-3.6562-5.7109-1.3984-1.0039-2.7383-2.0898-4.0781-3.1406z"/>
  <use x="70" y="691.25" xlink:href="#o"/>
  <use x="102.109375" y="691.25" xlink:href="#b"/>
  <use x="123.683594" y="691.25" xlink:href="#c"/>
  <use x="153.355469" y="691.25" xlink:href="#a"/>
  <use x="182.878906" y="691.25" xlink:href="#h"/>
  <use x="203.792969" y="691.25" xlink:href="#c"/>
  <use x="233.464844" y="691.25" xlink:href="#g"/>
  <use x="280.011719" y="691.25" xlink:href="#f"/>
  <use x="311.328125" y="691.25" xlink:href="#e"/>
  <use x="355.078125" y="691.25" xlink:href="#d"/>
  <use x="384.964844" y="691.25" xlink:href="#a"/>
  <use x="414.488281" y="691.25" xlink:href="#n"/>
  <use x="439.953125" y="691.25" xlink:href="#b"/>
  <use x="461.527344" y="691.25" xlink:href="#m"/>
  <use x="476.523437" y="691.25" xlink:href="#a"/>
  <use x="506.046875" y="691.25" xlink:href="#l"/>
  <use x="552.425781" y="691.25" xlink:href="#k"/>
  <use x="584.148438" y="691.25" xlink:href="#a"/>
  <use x="613.671875" y="691.25" xlink:href="#j"/>
  <use x="644.816406" y="691.25" xlink:href="#b"/>
  <use x="666.394531" y="691.25" xlink:href="#a"/>
  <use x="695.914062" y="691.25" xlink:href="#i"/>
 </g>
</svg>
