<?xml version="1.0" encoding="UTF-8"?>
<svg width="700pt" height="700pt" version="1.1" viewBox="0 0 700 700" xmlns="http://www.w3.org/2000/svg" xmlns:xlink="http://www.w3.org/1999/xlink">
 <defs>
  <symbol id="h" overflow="visible">
   <path d="m3.6562-0.21875c-0.1875 0.09375-0.38672 0.16797-0.59375 0.21875-0.19922 0.050781-0.40625 0.078125-0.625 0.078125-0.66797 0-1.1992-0.17969-1.5938-0.54688-0.38672-0.375-0.57812-0.87891-0.57812-1.5156 0-0.64453 0.19141-1.1484 0.57812-1.5156 0.39453-0.375 0.92578-0.5625 1.5938-0.5625 0.21875 0 0.42578 0.027344 0.625 0.078125 0.20703 0.054687 0.40625 0.125 0.59375 0.21875v0.82812c-0.1875-0.125-0.375-0.21875-0.5625-0.28125-0.17969-0.0625-0.37109-0.09375-0.57812-0.09375-0.36719 0-0.65625 0.12109-0.875 0.35938-0.21094 0.23047-0.3125 0.55469-0.3125 0.96875 0 0.40625 0.10156 0.73047 0.3125 0.96875 0.21875 0.23047 0.50781 0.34375 0.875 0.34375 0.20703 0 0.39844-0.023437 0.57812-0.078125 0.1875-0.0625 0.375-0.16016 0.5625-0.29688z"/>
  </symbol>
  <symbol id="d" overflow="visible">
   <path d="m2.6875-2.1719c-0.085938-0.039063-0.16797-0.070313-0.25-0.09375-0.085938-0.019531-0.16797-0.03125-0.25-0.03125-0.25 0-0.44531 0.085937-0.57812 0.25-0.125 0.15625-0.1875 0.38281-0.1875 0.67188v1.375h-0.96875v-2.9844h0.96875v0.48438c0.11328-0.19531 0.25-0.33594 0.40625-0.42188 0.16406-0.09375 0.35938-0.14062 0.57812-0.14062h0.10938c0.039063 0 0.09375 0.007812 0.15625 0.015625z"/>
  </symbol>
  <symbol id="c" overflow="visible">
   <path d="m3.4375-1.5v0.26562h-2.2344c0.03125 0.23047 0.11328 0.40234 0.25 0.51562 0.13281 0.10547 0.32812 0.15625 0.57812 0.15625 0.20703 0 0.41406-0.023438 0.625-0.078125 0.20703-0.0625 0.42188-0.15625 0.64062-0.28125v0.73438c-0.21875 0.09375-0.44531 0.16406-0.67188 0.20312-0.23047 0.039062-0.45312 0.0625-0.67188 0.0625-0.54297 0-0.96484-0.13281-1.2656-0.40625-0.30469-0.28125-0.45312-0.67188-0.45312-1.1719 0-0.47656 0.14453-0.85938 0.4375-1.1406 0.30078-0.28125 0.70703-0.42188 1.2188-0.42188 0.46875 0 0.84375 0.14062 1.125 0.42188s0.42188 0.66406 0.42188 1.1406zm-0.96875-0.32812c0-0.17578-0.058594-0.31641-0.17188-0.42188-0.10547-0.11328-0.24219-0.17188-0.40625-0.17188-0.1875 0-0.33984 0.054687-0.45312 0.15625-0.11719 0.10547-0.1875 0.25-0.21875 0.4375z"/>
  </symbol>
  <symbol id="e" overflow="visible">
   <path d="m1.7969-1.3438c-0.19922 0-0.35156 0.039062-0.45312 0.10938-0.09375 0.0625-0.14062 0.16406-0.14062 0.29688 0 0.11719 0.035156 0.21094 0.10938 0.28125 0.082031 0.0625 0.19531 0.09375 0.34375 0.09375 0.17578 0 0.32812-0.0625 0.45312-0.1875s0.1875-0.28516 0.1875-0.48438v-0.10938zm1.4688-0.35938v1.7031h-0.96875v-0.4375c-0.125 0.17969-0.27344 0.30859-0.4375 0.39062-0.15625 0.082031-0.35156 0.125-0.57812 0.125-0.3125 0-0.57031-0.085938-0.76562-0.26562-0.1875-0.1875-0.28125-0.42188-0.28125-0.70312 0-0.35156 0.11719-0.61328 0.35938-0.78125 0.23828-0.16406 0.61719-0.25 1.1406-0.25h0.5625v-0.0625c0-0.15625-0.0625-0.26562-0.1875-0.32812-0.11719-0.070312-0.29688-0.10938-0.54688-0.10938-0.21094 0-0.40234 0.023437-0.57812 0.0625-0.17969 0.042969-0.33984 0.10156-0.48438 0.17188v-0.71875c0.19531-0.050781 0.39844-0.085938 0.60938-0.10938 0.20703-0.03125 0.41406-0.046875 0.625-0.046875 0.53906 0 0.92969 0.10938 1.1719 0.32812 0.23828 0.21094 0.35938 0.55469 0.35938 1.0312z"/>
  </symbol>
  <symbol id="b" overflow="visible">
   <path d="m1.5-3.8438v0.85938h0.98438v0.67188h-0.98438v1.2812c0 0.13672 0.023438 0.23047 0.078125 0.28125 0.0625 0.042969 0.17578 0.0625 0.34375 0.0625h0.48438v0.6875h-0.8125c-0.38672 0-0.65625-0.078125-0.8125-0.23438s-0.23438-0.42188-0.23438-0.79688v-1.2812h-0.46875v-0.67188h0.46875v-0.85938z"/>
  </symbol>
  <symbol id="l" overflow="visible">
   <path d="m2.5-2.5469v-1.6094h0.95312v4.1562h-0.95312v-0.4375c-0.13672 0.17969-0.28125 0.30859-0.4375 0.39062-0.15625 0.082031-0.33984 0.125-0.54688 0.125-0.375 0-0.68359-0.14453-0.92188-0.4375-0.23047-0.28906-0.34375-0.67188-0.34375-1.1406 0-0.45703 0.11328-0.83203 0.34375-1.125 0.23828-0.28906 0.54688-0.4375 0.92188-0.4375 0.19531 0 0.375 0.042969 0.53125 0.125 0.16406 0.085938 0.31641 0.21484 0.45312 0.39062zm-0.64062 1.9375c0.20703 0 0.36328-0.070313 0.46875-0.21875 0.11328-0.15625 0.17188-0.37891 0.17188-0.67188 0-0.28125-0.058594-0.49219-0.17188-0.64062-0.10547-0.15625-0.26172-0.23438-0.46875-0.23438-0.19922 0-0.35547 0.078125-0.46875 0.23438-0.10547 0.14844-0.15625 0.35938-0.15625 0.64062 0 0.29297 0.050781 0.51562 0.15625 0.67188 0.11328 0.14844 0.26953 0.21875 0.46875 0.21875z"/>
  </symbol>
  <symbol id="k" overflow="visible">
   <path d="m2.0469-0.60938c0.20703 0 0.36328-0.070313 0.46875-0.21875 0.11328-0.15625 0.17188-0.37891 0.17188-0.67188 0-0.28125-0.058594-0.49219-0.17188-0.64062-0.10547-0.15625-0.26172-0.23438-0.46875-0.23438-0.19922 0-0.35547 0.078125-0.46875 0.23438-0.10547 0.14844-0.15625 0.35938-0.15625 0.64062 0 0.29297 0.050781 0.51562 0.15625 0.67188 0.11328 0.14844 0.26953 0.21875 0.46875 0.21875zm-0.625-1.9375c0.125-0.17578 0.26562-0.30469 0.42188-0.39062 0.16406-0.082031 0.35156-0.125 0.5625-0.125 0.36328 0 0.66406 0.14844 0.90625 0.4375 0.23828 0.29297 0.35938 0.66797 0.35938 1.125 0 0.46875-0.12109 0.85156-0.35938 1.1406-0.24219 0.29297-0.54297 0.4375-0.90625 0.4375-0.21094 0-0.39844-0.042969-0.5625-0.125-0.15625-0.082031-0.29688-0.21094-0.42188-0.39062v0.4375h-0.96875v-4.1562h0.96875z"/>
  </symbol>
  <symbol id="j" overflow="visible">
   <path d="m0.0625-2.9844h0.95312l0.8125 2.0156 0.6875-2.0156h0.95312l-1.2656 3.2656c-0.125 0.33203-0.27344 0.56641-0.4375 0.70312-0.16797 0.13281-0.39062 0.20312-0.67188 0.20312h-0.54688v-0.64062h0.29688c0.16406 0 0.28516-0.027344 0.35938-0.078125 0.070313-0.054688 0.12891-0.14062 0.17188-0.26562l0.03125-0.09375z"/>
  </symbol>
  <symbol id="i" overflow="visible">
   <path d="m0.5-3.9844h2.7812v0.78125h-1.75v0.73438h1.6406v0.78125h-1.6406v1.6875h-1.0312z"/>
  </symbol>
  <symbol id="g" overflow="visible">
   <path d="m3.4688-1.8281v1.8281h-0.96875v-1.3906c0-0.25781-0.007812-0.4375-0.015625-0.53125-0.011719-0.10156-0.03125-0.17578-0.0625-0.21875-0.03125-0.0625-0.085937-0.10938-0.15625-0.14062-0.0625-0.039062-0.13281-0.0625-0.20312-0.0625-0.21094 0-0.37109 0.078125-0.48438 0.23438-0.10547 0.15625-0.15625 0.37109-0.15625 0.64062v1.4688h-0.96875v-2.9844h0.96875v0.4375c0.13281-0.17578 0.28516-0.30469 0.45312-0.39062 0.16406-0.082031 0.34375-0.125 0.53125-0.125 0.34375 0 0.60156 0.10938 0.78125 0.32812 0.1875 0.21094 0.28125 0.51172 0.28125 0.90625z"/>
  </symbol>
  <symbol id="a" overflow="visible">
   <path d="m1.875-2.375c-0.21094 0-0.37109 0.078125-0.48438 0.23438-0.10547 0.14844-0.15625 0.35938-0.15625 0.64062 0 0.29297 0.050781 0.51562 0.15625 0.67188 0.11328 0.14844 0.27344 0.21875 0.48438 0.21875 0.20703 0 0.36719-0.070313 0.48438-0.21875 0.11328-0.15625 0.17188-0.37891 0.17188-0.67188 0-0.28125-0.058594-0.49219-0.17188-0.64062-0.11719-0.15625-0.27734-0.23438-0.48438-0.23438zm0-0.6875c0.51953 0 0.92188 0.14062 1.2031 0.42188 0.28906 0.27344 0.4375 0.65234 0.4375 1.1406 0 0.5-0.14844 0.89062-0.4375 1.1719-0.28125 0.27344-0.68359 0.40625-1.2031 0.40625-0.51172 0-0.91406-0.13281-1.2031-0.40625-0.29297-0.28125-0.4375-0.67188-0.4375-1.1719 0-0.48828 0.14453-0.86719 0.4375-1.1406 0.28906-0.28125 0.69141-0.42188 1.2031-0.42188z"/>
  </symbol>
  <symbol id="f" overflow="visible">
   <path d="m0.42188-1.1719v-1.8125h0.96875v0.29688 0.60938 0.48438c0 0.24219 0.003906 0.41797 0.015625 0.53125 0.007812 0.10547 0.03125 0.17969 0.0625 0.21875 0.039062 0.0625 0.09375 0.11719 0.15625 0.15625 0.0625 0.03125 0.13281 0.046875 0.21875 0.046875 0.19531 0 0.35156-0.078125 0.46875-0.23438 0.11328-0.15625 0.17188-0.36719 0.17188-0.64062v-1.4688h0.95312v2.9844h-0.95312v-0.4375c-0.14844 0.17969-0.30469 0.30859-0.46875 0.39062-0.15625 0.082031-0.33594 0.125-0.53125 0.125-0.34375 0-0.60938-0.10156-0.79688-0.3125-0.17969-0.21875-0.26562-0.53125-0.26562-0.9375z"/>
  </symbol>
  <symbol id="s" overflow="visible">
   <path d="m2.4219-4.1562v0.625h-0.51562c-0.13672 0-0.23438 0.027344-0.29688 0.078125-0.054687 0.054687-0.078125 0.13672-0.078125 0.25v0.21875h0.82812v0.67188h-0.82812v2.3125h-0.95312v-2.3125h-0.46875v-0.67188h0.46875v-0.21875c0-0.32031 0.085937-0.5625 0.26562-0.71875 0.1875-0.15625 0.47266-0.23438 0.85938-0.23438z"/>
  </symbol>
  <symbol id="r" overflow="visible">
   <path d="m3.2344-2.5c0.11328-0.17578 0.25391-0.3125 0.42188-0.40625 0.16406-0.10156 0.35156-0.15625 0.5625-0.15625 0.33203 0 0.58594 0.10938 0.76562 0.32812 0.1875 0.21094 0.28125 0.51172 0.28125 0.90625v1.8281h-0.96875v-1.5625c0.007813-0.019531 0.015625-0.039062 0.015625-0.0625v-0.10938c0-0.21875-0.03125-0.375-0.09375-0.46875s-0.16406-0.14062-0.29688-0.14062c-0.1875 0-0.33594 0.078125-0.4375 0.23438-0.09375 0.14844-0.14062 0.35938-0.14062 0.64062v1.4688h-0.96875v-1.5625c0-0.33203-0.03125-0.54688-0.09375-0.64062-0.054688-0.09375-0.15234-0.14062-0.29688-0.14062-0.17969 0-0.32031 0.078125-0.42188 0.23438-0.09375 0.14844-0.14062 0.35938-0.14062 0.64062v1.4688h-0.96875v-2.9844h0.96875v0.4375c0.11328-0.17578 0.24219-0.30469 0.39062-0.39062 0.15625-0.082031 0.32812-0.125 0.51562-0.125 0.20703 0 0.39062 0.054688 0.54688 0.15625 0.15625 0.09375 0.27344 0.23047 0.35938 0.40625z"/>
  </symbol>
  <symbol id="q" overflow="visible">
   <path d="m3.4688-1.8281v1.8281h-0.96875v-1.3906c0-0.25781-0.007812-0.4375-0.015625-0.53125-0.011719-0.10156-0.03125-0.17578-0.0625-0.21875-0.03125-0.0625-0.085937-0.10938-0.15625-0.14062-0.0625-0.039062-0.13281-0.0625-0.20312-0.0625-0.21094 0-0.37109 0.078125-0.48438 0.23438-0.10547 0.15625-0.15625 0.37109-0.15625 0.64062v1.4688h-0.96875v-4.1562h0.96875v1.6094c0.13281-0.17578 0.28516-0.30469 0.45312-0.39062 0.16406-0.082031 0.34375-0.125 0.53125-0.125 0.34375 0 0.60156 0.10938 0.78125 0.32812 0.1875 0.21094 0.28125 0.51172 0.28125 0.90625z"/>
  </symbol>
  <symbol id="p" overflow="visible">
   <path d="m0.5-3.9844h1.1562l1.4375 2.7344v-2.7344h0.98438v3.9844h-1.1562l-1.4375-2.7344v2.7344h-0.98438z"/>
  </symbol>
  <symbol id="o" overflow="visible">
   <path d="m0.5-3.9844h1.7031c0.50781 0 0.89844 0.11719 1.1719 0.34375 0.26953 0.21875 0.40625 0.53906 0.40625 0.95312 0 0.41797-0.13672 0.74219-0.40625 0.96875-0.27344 0.21875-0.66406 0.32812-1.1719 0.32812h-0.67188v1.3906h-1.0312zm1.0312 0.75v1.1094h0.5625c0.19531 0 0.34766-0.046875 0.45312-0.14062 0.11328-0.10156 0.17188-0.24219 0.17188-0.42188 0-0.17578-0.058594-0.3125-0.17188-0.40625-0.10547-0.09375-0.25781-0.14062-0.45312-0.14062z"/>
  </symbol>
  <symbol id="n" overflow="visible">
   <path d="m0.45312-2.9844h0.96875v2.9375c0 0.39453-0.10156 0.69531-0.29688 0.90625-0.1875 0.21875-0.46484 0.32812-0.82812 0.32812h-0.48438v-0.64062h0.17188c0.17578 0 0.29688-0.042969 0.35938-0.125 0.070312-0.074219 0.10938-0.23047 0.10938-0.46875zm0-1.1719h0.96875v0.78125h-0.96875z"/>
  </symbol>
  <symbol id="m" overflow="visible">
   <path d="m2.875-2.8906v0.76562c-0.125-0.082031-0.25781-0.14453-0.39062-0.1875-0.13672-0.039062-0.27344-0.0625-0.40625-0.0625-0.27344 0-0.48047 0.078125-0.625 0.23438-0.14844 0.15625-0.21875 0.37109-0.21875 0.64062 0 0.28125 0.070313 0.5 0.21875 0.65625 0.14453 0.15625 0.35156 0.23438 0.625 0.23438 0.14453 0 0.28516-0.019531 0.42188-0.0625 0.13281-0.039063 0.25781-0.10938 0.375-0.20312v0.78125c-0.14844 0.0625-0.29688 0.10156-0.45312 0.125-0.15625 0.03125-0.3125 0.046875-0.46875 0.046875-0.54297 0-0.96484-0.13281-1.2656-0.40625-0.30469-0.28125-0.45312-0.67188-0.45312-1.1719 0-0.48828 0.14844-0.86719 0.45312-1.1406 0.30078-0.28125 0.72266-0.42188 1.2656-0.42188 0.15625 0 0.3125 0.015625 0.46875 0.046875 0.15625 0.023437 0.30469 0.0625 0.45312 0.125z"/>
  </symbol>
 </defs>
 <g>
  <path d="m571.81 292.69-13.016-39.047c-0.65625-1.8594-2.0781-3.3906-3.9375-4.0469s-3.9375-0.54688-5.6875 0.4375l-20.891 12.359s-12.578-21-12.578-21c-0.98438-1.75-2.7344-2.8438-4.7031-3.1719s-3.9375 0.32812-5.3594 1.6406l-28.766 26.797c-3.1719 2.7344-2.625 8.3125 1.0938 10.391l5.6875 3.5-15.859 16.734c-3.1719 3.1719-1.9688 8.9688 2.2969 10.609l4.9219 2.0781-18.375 18.484c-1.5312 1.5312-2.1875 3.7188-1.75 5.9062s1.8594 3.9375 3.8281 4.8125c0.65625 0.21875 14.219 6.125 29.422 8.6406l-7 28.438-42.547-2.1875c-2.7344-0.10938-5.3594 1.4219-6.3438 4.0469l-4.4844 10.5-26.688 5.25 4.0469-7.6562 3.8281-1.0938c8.3125-2.625 4.8125-14.766-3.6094-12.578l-5.7969 1.6406-6.7812 0.4375c0-0.54688-6.8906-175.77-6.8906-176.2-1.2031-11.703-11.156-21.547-22.75-22.969l-0.98438-20.453c-0.10938-1.8594-0.875-3.5-2.2969-4.7031s-3.1719-1.75-5.0312-1.5312l-36.094 4.1562-1.6406-14.109c-0.21875-1.75-1.0938-3.2812-2.4062-4.375s-3.0625-1.5312-4.8125-1.4219l-24.938 2.8438-1.2031-10.172c-0.4375-3.6094-3.7188-6.2344-7.3281-5.7969s-6.2344 3.7188-5.7969 7.3281l1.2031 10.172-3.9375 0.4375-4.375-37.953c-0.4375-3.6094-3.7188-6.2344-7.3281-5.7969s-6.125 3.7188-5.7969 7.3281l4.375 37.953-14.875 1.75c-3.5 0.32812-6.2344 3.8281-5.7969 7.3281l1.6406 14.109-36.203 4.1562c-1.8594 0.21875-3.5 1.2031-4.4844 2.625s-1.5312 3.2812-1.2031 5.1406l3.7188 20.016c-11.156 4.2656-18.375 15.531-17.062 27.672 0 0.32812 31.391 162.2 31.5 162.64l-12.141 0.65625c-4.5938 0.10938-7.6562 5.4688-5.4688 9.5156l9.8438 19.141-18.156 12.469c-2.625 1.8594-3.6094 5.3594-2.1875 8.3125l14.109 29.312c4.0469 7.6562 15.312 2.2969 11.812-5.6875l-11.703-24.172 18.266-12.578c2.7344-1.8594 3.6094-5.4688 2.0781-8.4219l-7.875-15.312 178.61-10.172-15.969 30.406c-1.6406 3.0625-0.65625 6.7812 2.2969 8.5312l14.984 9.625-24.828 48.125c-3.7188 7.7656 7.4375 13.672 11.703 6.0156 0 0 27.562-53.594 27.562-53.594 1.5312-2.9531 0.54688-6.6719-2.2969-8.5312l-14.984-9.625 5.3594-10.281 28.328-5.5781-3.6094 8.6406c-1.0938 2.625-0.4375 5.5781 1.6406 7.4375l10.391 9.1875-12.688 7.3281c-2.8438 1.6406-4.0469 5.0312-2.8438 8.0938l2.8438 7.2188-35.766 39.375c-5.5781 6.5625 3.6094 15.094 9.7344 8.8594 0 0 38.5-42.328 38.5-42.328 1.6406-1.8594 2.1875-4.4844 1.2031-6.7812l-2.1875-5.6875 15.641-9.0781c1.8594-1.0938 3.0625-2.9531 3.2812-5.0312s-0.54688-4.1562-2.1875-5.5781l-13.672-12.141c2.5156-5.9062 8.2031-19.359 10.609-25.156l118.67 6.2344c8.75 0.10938 9.2969-12.359 0.65625-13.125l-39.375-2.0781 3.3906-15.641c13.562 4.1562 26.031 5.3594 26.578 5.3594 2.1875 0.21875 4.2656-0.65625 5.6875-2.4062 1.4219-1.6406 1.8594-3.9375 1.2031-6.0156l-7.6562-26.688 6.0156 0.65625c4.375 0.65625 8.3125-3.9375 7.1094-8.2031l-6.2344-23.734 7.4375-0.32812c4.375-0.10938 7.5469-4.7031 6.125-8.6406zm-204.2-101.83c2.7344 2.0781 4.4844 5.1406 4.9219 8.5312l6.8906 175.66-7.3281 0.4375-8.6406-186.81c1.5312 0.54688 2.9531 1.2031 4.1562 2.1875zm-105-39.375c0.10938 0 41.891-4.8125 42-4.9219l0.875 7.5469-56.875 6.5625-0.875-7.5469zm-18.922 23.078c23.516-2.7344 82.797-9.625 105.55-12.25l9.8438 213.83-24.609 1.4219-4.8125-41.781c-0.21875-1.75-1.0938-3.2812-2.4062-4.375s-3.0625-1.5312-4.8125-1.4219l-49.656 5.7969c-3.6094 0.4375-6.125 3.7188-5.7969 7.3281l4.375 38.172-25.156 1.4219-38.172-203.88zm65.625 204.53-3.9375-33.797 11.812-1.4219 4.0469 34.562zm-24.938 1.4219-3.7188-32.375 11.812-1.3125 3.8281 33.031zm-90.891-160.34c-0.54688-5.1406 2.1875-9.9531 6.4531-12.578l32.922 175.77-7.7656 0.4375zm297.72 92.094c3.2812-3.0625 2.0781-9.0781-2.1875-10.719l-5.1406-2.1875 14.875-15.75c2.8438-2.8438 2.1875-8.0938-1.3125-10.172l-5.25-3.1719 16.406-15.312 11.484 19.25-6.0156 1.6406c-3.9375 0.98438-6.125 5.7969-4.1562 9.2969l9.9531 19.25-5.5781 0.54688c-4.4844 0.32812-7.3281 5.7969-5.0312 9.625l12.25 22.531c-6.8906 0.21875-16.297-0.10938-24.719-1.8594-8.0938-0.65625-17.391-3.0625-23.734-5.1406zm3.1719 64.531 5.9062-23.953c4.5938 2.1875 8.9688 3.9375 13.125 5.25l-4.1562 19.469zm55.344-87.938c-4.0469 0.10938-7.2188 4.375-6.0156 8.2031l5.9062 22.422-6.2344-0.65625c-4.4844-0.65625-8.4219 4.0469-7 8.3125l7.5469 26.359c-4.1562-0.76562-9.1875-1.8594-14.328-3.3906 2.0781-0.21875 3.2812-0.32812 3.5-0.32812 4.4844-0.4375 7.2188-5.7969 4.9219-9.625l-12.469-22.859 5.25-0.54688c4.4844-0.32812 7.3281-5.5781 5.1406-9.5156l-10.609-20.562 6.4531-1.75c4.1562-0.98438 6.2344-6.125 3.9375-9.7344l-0.875-1.4219 13.891-8.2031 7.6562 23.078z"/>
  <path d="m232.53 203.33 98.438-11.375c3.6094-0.4375 6.2344-3.7188 5.7969-7.3281s-3.7188-6.2344-7.3281-5.7969l-98.438 11.375c-8.6406 1.4219-7.2188 13.891 1.5312 13.125z"/>
  <path d="m237.45 228.16 94.281-10.938c3.6094-0.4375 6.2344-3.7188 5.7969-7.3281s-3.7188-6.2344-7.3281-5.7969l-94.281 10.938c-8.5312 1.4219-7.1094 13.781 1.5312 13.125z"/>
  <path d="m242.38 252.98 90.344-10.5c8.5312-1.3125 7.2188-13.781-1.5312-13.016l-90.344 10.5c-8.6406 1.2031-7.2188 13.672 1.5312 13.016z"/>
  <path d="m247.3 277.81 86.188-9.9531c3.6094-0.4375 6.125-3.7188 5.7969-7.3281-0.4375-3.6094-3.7188-6.125-7.3281-5.7969 0 0-86.188 9.9531-86.188 9.9531-8.5312 1.3125-7.1094 13.781 1.5312 13.125z"/>
  <path d="m251.45 302.53c0.875 0 82.141-9.5156 83.016-9.625 8.5312-1.3125 7.2188-13.781-1.5312-13.016 0 0-82.25 9.5156-82.25 9.5156-8.0938 1.2031-7.4375 12.906 0.76562 13.125z"/>
  <path d="m333.81 305.16-78.203 9.0781c-3.6094 0.4375-6.2344 3.7188-5.7969 7.3281s3.7188 6.2344 7.3281 5.7969c0 0 78.203-9.0781 78.203-9.0781 8.5312-1.3125 7.1094-13.781-1.5312-13.125z"/>
  <path d="m189.77 417.92c5.25 0.10938 8.5312-6.2344 5.25-10.391l-12.578-17.281c-1.3125-1.8594-3.5-2.8438-5.7969-2.625l-19.797 1.4219-4.7031-28.984c15.641-5.9062 13.016-21.984 11.484-31.062-10.828-53.375-52.062-46.594-45.281 7.4375 1.5312 9.0781 4.1562 25.156 20.781 25.812l4.5938 27.891-11.812 0.875-4.1562-17.062c-0.875-3.5-4.375-5.6875-7.9844-4.8125-3.5 0.875-5.6875 4.375-4.8125 7.9844l3.6094 14.984c-4.1562-0.10938-7.6562 2.8438-7.3281 7.1094 0.21875 3.6094 3.3906 6.3438 7 6.0156l55.562-4.0469 10.5 14.328c1.5312 1.4219 3.5 2.4062 5.4688 2.4062zm-58.406-83.781c-1.0938-6.7812-0.76562-14.547 0.875-20.781 1.5312-5.9062 3.7188-8.0938 4.375-8.2031 0.54688 0 3.0625 0.98438 6.6719 6.3438 3.5 5.3594 6.3438 12.688 7.4375 19.469 2.5156 15.312 0.10938 16.516-7.1094 17.719-7.1094 1.2031-9.7344 0.875-12.25-14.547z"/>
  <use x="70" y="576.40625" xlink:href="#h"/>
  <use x="74.011719" y="576.40625" xlink:href="#d"/>
  <use x="76.710938" y="576.40625" xlink:href="#c"/>
  <use x="80.417969" y="576.40625" xlink:href="#e"/>
  <use x="84.109375" y="576.40625" xlink:href="#b"/>
  <use x="86.722656" y="576.40625" xlink:href="#c"/>
  <use x="90.433594" y="576.40625" xlink:href="#l"/>
  <use x="96.25" y="576.40625" xlink:href="#k"/>
  <use x="100.167969" y="576.40625" xlink:href="#j"/>
  <use x="105.636719" y="576.40625" xlink:href="#i"/>
  <use x="109.371094" y="576.40625" xlink:href="#d"/>
  <use x="112.066406" y="576.40625" xlink:href="#e"/>
  <use x="115.757812" y="576.40625" xlink:href="#g"/>
  <use x="121.554688" y="576.40625" xlink:href="#h"/>
  <use x="125.570312" y="576.40625" xlink:href="#a"/>
  <use x="129.324219" y="576.40625" xlink:href="#f"/>
  <use x="133.21875" y="576.40625" xlink:href="#b"/>
  <use x="135.832031" y="576.40625" xlink:href="#a"/>
  <use x="70" y="581.875" xlink:href="#s"/>
  <use x="72.378906" y="581.875" xlink:href="#d"/>
  <use x="75.078125" y="581.875" xlink:href="#a"/>
  <use x="78.832031" y="581.875" xlink:href="#r"/>
  <use x="86.4375" y="581.875" xlink:href="#b"/>
  <use x="89.050781" y="581.875" xlink:href="#q"/>
  <use x="92.941406" y="581.875" xlink:href="#c"/>
  <use x="98.554688" y="581.875" xlink:href="#p"/>
  <use x="103.132812" y="581.875" xlink:href="#a"/>
  <use x="106.890625" y="581.875" xlink:href="#f"/>
  <use x="110.785156" y="581.875" xlink:href="#g"/>
  <use x="116.582031" y="581.875" xlink:href="#o"/>
  <use x="120.589844" y="581.875" xlink:href="#d"/>
  <use x="123.285156" y="581.875" xlink:href="#a"/>
  <use x="127.042969" y="581.875" xlink:href="#n"/>
  <use x="128.917969" y="581.875" xlink:href="#c"/>
  <use x="132.625" y="581.875" xlink:href="#m"/>
  <use x="135.867188" y="581.875" xlink:href="#b"/>
 </g>
</svg>
