<?xml version="1.0" encoding="UTF-8"?>
<svg width="700pt" height="700pt" version="1.1" viewBox="0 0 700 700" xmlns="http://www.w3.org/2000/svg" xmlns:xlink="http://www.w3.org/1999/xlink">
 <defs>
  <symbol id="l" overflow="visible">
   <path d="m29.312-1.75c-1.5117 0.78125-3.0898 1.3711-4.7344 1.7656-1.6367 0.40625-3.3398 0.60938-5.1094 0.60938-5.3125 0-9.5273-1.4844-12.641-4.4531-3.1055-2.9688-4.6562-7-4.6562-12.094s1.5508-9.125 4.6562-12.094c3.1133-2.9688 7.3281-4.4531 12.641-4.4531 1.7695 0 3.4727 0.19922 5.1094 0.59375 1.6445 0.39844 3.2227 0.99219 4.7344 1.7812v6.5938c-1.5312-1.0391-3.0391-1.8008-4.5156-2.2812-1.4805-0.48828-3.0391-0.73438-4.6719-0.73438-2.9375 0-5.2461 0.94531-6.9219 2.8281-1.6797 1.875-2.5156 4.4648-2.5156 7.7656 0 3.293 0.83594 5.8828 2.5156 7.7656 1.6758 1.875 3.9844 2.8125 6.9219 2.8125 1.6328 0 3.1914-0.23828 4.6719-0.71875 1.4766-0.48828 2.9844-1.2539 4.5156-2.2969z"/>
  </symbol>
  <symbol id="f" overflow="visible">
   <path d="m21.453-17.406c-0.67969-0.3125-1.3516-0.53906-2.0156-0.6875-0.65625-0.15625-1.3203-0.23438-1.9844-0.23438-1.9688 0-3.4844 0.63281-4.5469 1.8906-1.0547 1.2617-1.5781 3.0703-1.5781 5.4219v11.016h-7.6562v-23.922h7.6562v3.9219c0.97656-1.5625 2.1016-2.7031 3.375-3.4219 1.2812-0.71875 2.8125-1.0781 4.5938-1.0781 0.25 0 0.52344 0.011719 0.82812 0.03125 0.30078 0.023438 0.73438 0.070312 1.2969 0.14062z"/>
  </symbol>
  <symbol id="e" overflow="visible">
   <path d="m27.562-12.031v2.1875h-17.891c0.1875 1.793 0.83203 3.1367 1.9375 4.0312 1.1133 0.89844 2.6719 1.3438 4.6719 1.3438 1.6016 0 3.25-0.23438 4.9375-0.70312 1.6875-0.47656 3.4219-1.2031 5.2031-2.1719v5.8906c-1.8047 0.6875-3.6094 1.2031-5.4219 1.5469-1.8125 0.35156-3.6211 0.53125-5.4219 0.53125-4.3359 0-7.7031-1.0977-10.109-3.2969-2.3984-2.207-3.5938-5.2969-3.5938-9.2656 0-3.9062 1.1758-6.9727 3.5312-9.2031 2.3633-2.2383 5.6094-3.3594 9.7344-3.3594 3.7578 0 6.7695 1.1367 9.0312 3.4062 2.2578 2.2617 3.3906 5.2812 3.3906 9.0625zm-7.8594-2.5312c0-1.457-0.42969-2.6289-1.2812-3.5156-0.84375-0.89453-1.9492-1.3438-3.3125-1.3438-1.4922 0-2.6992 0.41797-3.625 1.25-0.91797 0.83594-1.4922 2.0391-1.7188 3.6094z"/>
  </symbol>
  <symbol id="b" overflow="visible">
   <path d="m14.391-10.766c-1.5938 0-2.793 0.27344-3.5938 0.8125-0.80469 0.54297-1.2031 1.3398-1.2031 2.3906 0 0.96875 0.32031 1.7305 0.96875 2.2812 0.64453 0.54297 1.5469 0.8125 2.7031 0.8125 1.4375 0 2.6445-0.51562 3.625-1.5469 0.98828-1.0312 1.4844-2.3203 1.4844-3.875v-0.875zm11.688-2.8906v13.656h-7.7031v-3.5469c-1.0312 1.4492-2.1875 2.5078-3.4688 3.1719s-2.8398 1-4.6719 1c-2.4805 0-4.4961-0.72266-6.0469-2.1719-1.543-1.4453-2.3125-3.3203-2.3125-5.625 0-2.8125 0.96094-4.8672 2.8906-6.1719 1.9375-1.3125 4.9688-1.9688 9.0938-1.9688h4.5156v-0.60938c0-1.207-0.48047-2.0938-1.4375-2.6562-0.94922-0.5625-2.4375-0.84375-4.4688-0.84375-1.6367 0-3.1562 0.16797-4.5625 0.5-1.4062 0.32422-2.7188 0.8125-3.9375 1.4688v-5.8281c1.6445-0.40625 3.2891-0.70703 4.9375-0.90625 1.6562-0.20703 3.3047-0.3125 4.9531-0.3125 4.3203 0 7.4375 0.85547 9.3438 2.5625 1.9141 1.6992 2.875 4.4609 2.875 8.2812z"/>
  </symbol>
  <symbol id="d" overflow="visible">
   <path d="m12.031-30.719v6.7969h7.875v5.4688h-7.875v10.141c0 1.1172 0.21875 1.8711 0.65625 2.2656 0.4375 0.38672 1.3125 0.57812 2.625 0.57812h3.9375v5.4688h-6.5625c-3.0234 0-5.1641-0.62891-6.4219-1.8906-1.2617-1.2578-1.8906-3.3984-1.8906-6.4219v-10.141h-3.7969v-5.4688h3.7969v-6.7969z"/>
  </symbol>
  <symbol id="j" overflow="visible">
   <path d="m19.953-20.422v-12.812h7.6875v33.234h-7.6875v-3.4531c-1.0547 1.4062-2.2148 2.4375-3.4844 3.0938-1.2734 0.65625-2.7422 0.98438-4.4062 0.98438-2.9492 0-5.3711-1.1719-7.2656-3.5156-1.8867-2.3438-2.8281-5.3594-2.8281-9.0469s0.94141-6.7031 2.8281-9.0469c1.8945-2.3438 4.3164-3.5156 7.2656-3.5156 1.6562 0 3.1172 0.33594 4.3906 1 1.2812 0.65625 2.4453 1.6836 3.5 3.0781zm-5.0469 15.484c1.6445 0 2.8945-0.59766 3.75-1.7969 0.86328-1.1953 1.2969-2.9297 1.2969-5.2031 0-2.2812-0.43359-4.0195-1.2969-5.2188-0.85547-1.1953-2.1055-1.7969-3.75-1.7969-1.625 0-2.8711 0.60156-3.7344 1.7969-0.85547 1.1992-1.2812 2.9375-1.2812 5.2188 0 2.2734 0.42578 4.0078 1.2812 5.2031 0.86328 1.1992 2.1094 1.7969 3.7344 1.7969z"/>
  </symbol>
  <symbol id="a" overflow="visible">
   <path d="m16.406-4.9375c1.6328 0 2.8828-0.59766 3.75-1.7969 0.86328-1.1953 1.2969-2.9297 1.2969-5.2031 0-2.2812-0.43359-4.0195-1.2969-5.2188-0.86719-1.1953-2.1172-1.7969-3.75-1.7969-1.6367 0-2.8906 0.60547-3.7656 1.8125-0.875 1.1992-1.3125 2.9336-1.3125 5.2031 0 2.2617 0.4375 3.9961 1.3125 5.2031 0.875 1.1992 2.1289 1.7969 3.7656 1.7969zm-5.0781-15.484c1.0508-1.3945 2.2188-2.4219 3.5-3.0781 1.2812-0.66406 2.7539-1 4.4219-1 2.9453 0 5.3672 1.1719 7.2656 3.5156 1.8945 2.3438 2.8438 5.3594 2.8438 9.0469s-0.94922 6.7031-2.8438 9.0469c-1.8984 2.3438-4.3203 3.5156-7.2656 3.5156-1.668 0-3.1406-0.33594-4.4219-1s-2.4492-1.6914-3.5-3.0781v3.4531h-7.6562v-33.234h7.6562z"/>
  </symbol>
  <symbol id="i" overflow="visible">
   <path d="m0.53125-23.922h7.6562l6.4219 16.234 5.4688-16.234h7.6562l-10.062 26.188c-1.0117 2.6641-2.1953 4.5234-3.5469 5.5781-1.3438 1.0625-3.1211 1.5938-5.3281 1.5938h-4.4219v-5.0156h2.3906c1.3008 0 2.2422-0.21094 2.8281-0.625 0.59375-0.40625 1.0547-1.1484 1.3906-2.2188l0.20312-0.65625z"/>
  </symbol>
  <symbol id="h" overflow="visible">
   <path d="m22.359-23.172v5.7969c-1.6367-0.67578-3.2148-1.1875-4.7344-1.5312-1.5234-0.34375-2.9609-0.51562-4.3125-0.51562-1.4609 0-2.543 0.18359-3.25 0.54688-0.69922 0.36719-1.0469 0.92188-1.0469 1.6719 0 0.61719 0.26562 1.0898 0.79688 1.4219 0.53125 0.32422 1.4883 0.5625 2.875 0.71875l1.3438 0.1875c3.9141 0.5 6.5508 1.3242 7.9062 2.4688 1.3516 1.1367 2.0312 2.9219 2.0312 5.3594 0 2.5547-0.94531 4.4688-2.8281 5.75-1.875 1.2812-4.6797 1.9219-8.4062 1.9219-1.5859 0-3.2188-0.125-4.9062-0.375s-3.4219-0.625-5.2031-1.125v-5.8125c1.5195 0.74219 3.082 1.2969 4.6875 1.6719 1.6016 0.36719 3.2344 0.54688 4.8906 0.54688 1.4883 0 2.6094-0.20312 3.3594-0.60938 0.75781-0.41406 1.1406-1.0312 1.1406-1.8438 0-0.6875-0.26172-1.1953-0.78125-1.5312-0.52344-0.33203-1.5586-0.59375-3.1094-0.78125l-1.3438-0.17188c-3.4062-0.42578-5.793-1.2109-7.1562-2.3594-1.3672-1.1562-2.0469-2.9102-2.0469-5.2656 0-2.5312 0.86719-4.4062 2.6094-5.625 1.7383-1.2266 4.3984-1.8438 7.9844-1.8438 1.4062 0 2.8828 0.10938 4.4375 0.32812 1.5508 0.21094 3.2383 0.54297 5.0625 1z"/>
  </symbol>
  <symbol id="c" overflow="visible">
   <path d="m3.6719-23.922h7.6562v23.922h-7.6562zm0-9.3125h7.6562v6.2344h-7.6562z"/>
  </symbol>
  <symbol id="g" overflow="visible">
   <path d="m27.734-14.562v14.562h-7.7031v-11.109c0-2.0938-0.046875-3.5312-0.14062-4.3125-0.085937-0.78125-0.24219-1.3594-0.46875-1.7344-0.30469-0.5-0.71094-0.88281-1.2188-1.1562-0.51172-0.28125-1.0938-0.42188-1.75-0.42188-1.5938 0-2.8516 0.61719-3.7656 1.8438-0.90625 1.2305-1.3594 2.9375-1.3594 5.125v11.766h-7.6562v-33.234h7.6562v12.812c1.1445-1.3945 2.3633-2.4219 3.6562-3.0781 1.3008-0.66406 2.7383-1 4.3125-1 2.7578 0 4.8516 0.85156 6.2812 2.5469 1.4375 1.6875 2.1562 4.1523 2.1562 7.3906z"/>
  </symbol>
  <symbol id="k" overflow="visible">
   <path d="m25.844-19.953c0.96875-1.4766 2.1172-2.6016 3.4531-3.375 1.332-0.78125 2.7969-1.1719 4.3906-1.1719 2.75 0 4.8438 0.85156 6.2812 2.5469 1.4375 1.6875 2.1562 4.1523 2.1562 7.3906v14.562h-7.6875v-12.469c0.007812-0.1875 0.019531-0.37891 0.03125-0.57812 0.007812-0.19531 0.015625-0.48438 0.015625-0.85938 0-1.6953-0.25-2.9258-0.75-3.6875-0.5-0.75781-1.3086-1.1406-2.4219-1.1406-1.4492 0-2.5703 0.60156-3.3594 1.7969-0.79297 1.1992-1.2031 2.9297-1.2344 5.1875v11.75h-7.6875v-12.469c0-2.6562-0.23047-4.3633-0.6875-5.125-0.44922-0.75781-1.2578-1.1406-2.4219-1.1406-1.4688 0-2.6055 0.60547-3.4062 1.8125-0.79297 1.1992-1.1875 2.918-1.1875 5.1562v11.766h-7.7031v-23.922h7.7031v3.5c0.9375-1.3516 2.0156-2.3672 3.2344-3.0469 1.2188-0.6875 2.5547-1.0312 4.0156-1.0312 1.6562 0 3.1133 0.40234 4.375 1.2031 1.2695 0.79297 2.2344 1.9062 2.8906 3.3438z"/>
  </symbol>
 </defs>
 <g>
  <path d="m464.02 425.71h-289.87c-3.375 0-6.4766-1.8477-8.0859-4.8125-1.6055-2.9688-1.457-6.5742 0.38672-9.4023l77.863-119.4c1.1094-2.0586 1.9023-5.0586 1.9375-8.0859l0.38281-31.094c0.011719-1.2031 0.26562-2.3867 0.73438-3.4922 3.25-7.625 10.711-12.555 19-12.555 0.35156 0 0.69922 0.019531 1.0469 0.058594l24.062 2.7578c4.2031 0.48437 7.5312 3.7656 8.0703 7.9648l3.6797 28.637 15.586 87.391 10.465-74.477c0.33984-2.4414 1.6562-4.6445 3.6406-6.1133l14.469-10.691 3.1836-24.746c0.53906-4.1953 3.8711-7.4766 8.0703-7.9648l24.062-2.7578c0.34375-0.039063 0.69531-0.058594 1.0469-0.058594 8.2852 0 15.742 4.9258 18.996 12.547 0.47656 1.1094 0.72656 2.2969 0.74219 3.5l0.38281 31.098c0.035156 3.0195 0.82422 6.0117 2.2891 8.6602l65.91 119.4c1.5703 2.8516 1.5234 6.3164-0.12891 9.1172-1.6602 2.8008-4.668 4.5195-7.9219 4.5195zm-272.91-18.387h257.33l-58.383-105.77c-2.9219-5.293-4.5078-11.285-4.5781-17.328l-0.34766-28.504c-0.30469-0.23438-0.66797-0.39062-1.0586-0.44922l-16.188 1.8555-2.7656 21.496c-0.32031 2.4883-1.6367 4.7305-3.6523 6.2227l-14.516 10.727-12.488 88.879c-0.46094 3.3008-2.6758 6.0859-5.7773 7.2891-3.0977 1.2109-6.6211 0.63672-9.1875-1.4844l-14.551-12.043c-1.6758-1.3867-2.8047-3.3281-3.1875-5.4727l-16.695-93.676-2.8281-21.938-16.191-1.8555c-0.39062 0.058593-0.75391 0.21094-1.0586 0.44531l-0.35156 28.516c-0.078124 6.0508-1.6602 12.039-4.5781 17.32z"/>
  <path d="m282.79 215.29c-8.0273 0-15.648-2.7109-21.742-7.5273-5.875 4.2539-13.043 6.6445-20.492 6.6445-19.355 0-35.102-15.746-35.102-35.102 0-14 8.0703-26.227 20.32-31.82 2.6133-25.043 23.84-44.629 49.562-44.629 15.953 0 30.379 6.3164 39.75 16.656 9.2344-11.215 23.211-18.07 38.418-18.07 24.527 0 44.98 17.754 49.145 41.062 16.758 2.6445 29.613 17.188 29.613 34.676 0 19.305-15.746 35.012-35.102 35.012-5.8945 0-11.629-1.4805-16.727-4.25-12.133 8.1914-29.82 7.4414-41.215-1.5938-1.4023 1.0195-2.8828 1.9375-4.4258 2.75-10.617 5.3086-22.422 5.0586-32.098-0.035156-5.7617 4.0625-12.629 6.2266-19.906 6.2266zm-21.473-29.828h0.17188c3.0117 0.058594 5.8047 1.5859 7.4766 4.0898 5.4688 8.1953 18.445 9.4727 25.07 2.8594 0.03125-0.03125 0.75391-0.71484 0.78516-0.74609 3.4062-3.4062 9.4844-4.2734 13.133-1.125 2.1484 1.8555 5.7578 4.0625 10.766 4.0625 2.6211 0 5.2109-0.62891 7.6953-1.8672 2.1562-1.1328 4.1523-2.8516 5.6172-4.8789 1.7734-2.4609 4.6914-3.9805 7.6797-3.8047 2.9805 0.070312 5.7383 1.5859 7.3984 4.0508 0.14844 0.18359 0.29297 0.36719 0.42969 0.56641 5.6289 8.0078 18.93 8.8438 25.469 1.543 1.6289-1.8164 3.918-2.9141 6.3555-3.043 2.5273-0.089844 4.8359 0.71875 6.6484 2.3516 3.0664 2.7695 7.0234 4.293 11.145 4.293 9.2148 0 16.715-7.4609 16.715-16.625 0-9.9219-8.9297-17.52-18.809-16.582-2.5625 0.24219-5.1289-0.62109-7.0352-2.3594-1.9141-1.7422-3-4.207-3-6.793 0-17.516-14.145-31.617-31.527-31.617-13.449 0-25.352 8.4766-29.621 21.082-1.625 4.8086-6.832 7.3984-11.656 5.7578-3.4531-1.1719-5.7539-4.1914-6.1758-7.582-4.3438-10.727-16.504-17.848-30.711-17.848-17.34 0-31.445 14.105-31.445 31.445 1 4.9102-2.207 9.2969-7.1016 10.391-7.6211 1.7031-12.949 8.375-12.949 16.227 0 9.2148 7.5 16.715 16.715 16.715 5.2773 0 10.258-2.5234 13.309-6.7461 1.7305-2.4023 4.5039-3.8164 7.4531-3.8164z"/>
  <path d="m262.73 254.09c-5.0781 0-9.1914-4.1172-9.1914-9.1914v-36.938c0-5.0781 4.1172-9.1914 9.1914-9.1914 5.0781 0 9.1914 4.1172 9.1914 9.1914v36.938c0 5.0742-4.1172 9.1914-9.1914 9.1914z"/>
  <path d="m380.7 230.67c-5.0781 0-9.1914-4.1172-9.1914-9.1914v-16.582c0-5.0781 4.1172-9.1914 9.1914-9.1914 5.0781 0 9.1914 4.1172 9.1914 9.1914v16.582c0 5.0742-4.1133 9.1914-9.1914 9.1914z"/>
  <path d="m550.08 458.56h-397.14c-5.0781 0-9.1914-4.1172-9.1914-9.1914v-31.082c0-5.0781 4.1172-9.1914 9.1914-9.1914h397.14c5.0781 0 9.1914 4.1172 9.1914 9.1914v31.082c0.003907 5.0742-4.1133 9.1914-9.1914 9.1914zm-387.95-18.387h378.75v-12.695h-378.75z"/>
  <path d="m515.13 421.45c-0.94141 0-1.9062-0.14844-2.8555-0.45703-4.8242-1.5781-7.4609-6.7695-5.8867-11.594 4.5156-13.812 3.9922-25.41-1.5469-34.469-1.3438-2.1992-1.707-4.8555-0.99609-7.332s2.4258-4.5391 4.7266-5.6914c14.707-7.3516 31.449-3.0586 43.715 11.199 3.3125 3.8477 2.8789 9.6523-0.96875 12.965-3.8555 3.3164-9.6523 2.8828-12.965-0.96875-2.6445-3.0703-7.1328-7.2148-12.695-8.1602 3.3203 11.32 2.7422 24.293-1.793 38.168-1.2617 3.875-4.8633 6.332-8.7344 6.3398z"/>
  <path d="m512.67 379.32c-1.6797 0-3.3789-0.45703-4.9023-1.4219-4.293-2.7109-5.5703-8.3906-2.8594-12.68 11.848-18.742 19.824-25.051 41.113-22.898 5.0508 0.50391 8.7383 5.0039 8.2383 10.059-0.50391 5.0469-4.9492 8.7344-10.059 8.2383-11.566-1.1523-14.066-0.88281-23.75 14.422-1.75 2.7695-4.7305 4.2812-7.7812 4.2812z"/>
  <path d="m478.34 389.04c-2.125 0-4.2539-0.73047-5.9922-2.2266-3.8477-3.3125-4.2812-9.1172-0.96875-12.965 5.5039-6.3984 11.398-11.016 17.402-13.777-2.4453-0.22266-5.3555 0.082032-9.3203 0.47266-5.1289 0.49219-9.5625-3.1914-10.059-8.2383-0.50391-5.0547 3.1875-9.5547 8.2383-10.059 19.527-1.9219 28.207 0.86328 41.113 21.258 2.2031 3.4883 1.8164 8.0195-0.95312 11.082-2.7617 3.0586-7.2188 3.9102-10.93 2.0547-8.2852-4.1367-17.062 3.9805-21.559 9.1992-1.8203 2.1172-4.3867 3.1992-6.9727 3.1992z"/>
  <path d="m468.89 229.19h-18.926c-5.0781 0-9.1914-4.1172-9.1914-9.1914 0-5.0781 4.1172-9.1914 9.1914-9.1914h18.926c5.0781 0 9.1914 4.1172 9.1914 9.1914 0 5.0781-4.1172 9.1914-9.1914 9.1914z"/>
  <path d="m445.41 255.98h-18.926c-5.0781 0-9.1914-4.1172-9.1914-9.1914 0-5.0781 4.1172-9.1914 9.1914-9.1914h18.926c5.0781 0 9.1914 4.1172 9.1914 9.1914 0 5.0781-4.1172 9.1914-9.1914 9.1914z"/>
  <path d="m499.11 255.93h-18.926c-5.0781 0-9.1914-4.1172-9.1914-9.1914 0-5.0781 4.1172-9.1914 9.1914-9.1914h18.926c5.0781 0 9.1914 4.1172 9.1914 9.1914 0 5.0742-4.1172 9.1914-9.1914 9.1914z"/>
  <path d="m192.33 229.19h-18.926c-5.0781 0-9.1914-4.1172-9.1914-9.1914 0-5.0781 4.1172-9.1914 9.1914-9.1914h18.926c5.0781 0 9.1914 4.1172 9.1914 9.1914 0 5.0781-4.1172 9.1914-9.1914 9.1914z"/>
  <path d="m168.85 255.98h-18.926c-5.0781 0-9.1914-4.1172-9.1914-9.1914 0-5.0781 4.1172-9.1914 9.1914-9.1914h18.926c5.0781 0 9.1914 4.1172 9.1914 9.1914 0 5.0781-4.1172 9.1914-9.1914 9.1914z"/>
  <path d="m222.55 255.93h-18.926c-5.0781 0-9.1914-4.1172-9.1914-9.1914 0-5.0781 4.1172-9.1914 9.1914-9.1914h18.926c5.0781 0 9.1914 4.1172 9.1914 9.1914 0 5.0742-4.1172 9.1914-9.1914 9.1914z"/>
  <use x="70" y="691.25" xlink:href="#l"/>
  <use x="102.109375" y="691.25" xlink:href="#f"/>
  <use x="123.683594" y="691.25" xlink:href="#e"/>
  <use x="153.355469" y="691.25" xlink:href="#b"/>
  <use x="182.878906" y="691.25" xlink:href="#d"/>
  <use x="203.792969" y="691.25" xlink:href="#e"/>
  <use x="233.464844" y="691.25" xlink:href="#j"/>
  <use x="280.011719" y="691.25" xlink:href="#a"/>
  <use x="311.328125" y="691.25" xlink:href="#i"/>
  <use x="355.078125" y="691.25" xlink:href="#a"/>
  <use x="386.398438" y="691.25" xlink:href="#b"/>
  <use x="415.917969" y="691.25" xlink:href="#h"/>
  <use x="441.960938" y="691.25" xlink:href="#c"/>
  <use x="456.957031" y="691.25" xlink:href="#d"/>
  <use x="477.871094" y="691.25" xlink:href="#g"/>
  <use x="524.25" y="691.25" xlink:href="#c"/>
  <use x="539.246094" y="691.25" xlink:href="#a"/>
  <use x="570.5625" y="691.25" xlink:href="#f"/>
  <use x="592.136719" y="691.25" xlink:href="#b"/>
  <use x="621.660156" y="691.25" xlink:href="#g"/>
  <use x="652.804688" y="691.25" xlink:href="#c"/>
  <use x="667.804688" y="691.25" xlink:href="#k"/>
 </g>
</svg>
