<?xml version="1.0" encoding="UTF-8"?>
<svg width="700pt" height="700pt" version="1.1" viewBox="0 0 700 700" xmlns="http://www.w3.org/2000/svg" xmlns:xlink="http://www.w3.org/1999/xlink">
 <defs>
  <symbol id="y" overflow="visible">
   <path d="m4.1719-0.25c-0.21875 0.11719-0.44922 0.19922-0.6875 0.25-0.23047 0.0625-0.46875 0.09375-0.71875 0.09375-0.75 0-1.3516-0.20703-1.7969-0.625-0.4375-0.42578-0.65625-1.0039-0.65625-1.7344 0-0.71875 0.21875-1.2852 0.65625-1.7031 0.44531-0.42578 1.0469-0.64062 1.7969-0.64062 0.25 0 0.48828 0.027344 0.71875 0.078125 0.23828 0.054688 0.46875 0.13672 0.6875 0.25v0.9375c-0.21875-0.14453-0.4375-0.25-0.65625-0.3125-0.21094-0.070312-0.42969-0.10938-0.65625-0.10938-0.41797 0-0.74609 0.13672-0.98438 0.40625-0.24219 0.26172-0.35938 0.625-0.35938 1.0938s0.11719 0.83984 0.35938 1.1094c0.23828 0.26172 0.56641 0.39062 0.98438 0.39062 0.22656 0 0.44531-0.03125 0.65625-0.09375 0.21875-0.070313 0.4375-0.17969 0.65625-0.32812z"/>
  </symbol>
  <symbol id="c" overflow="visible">
   <path d="m3.0469-2.4688c-0.09375-0.050781-0.1875-0.085938-0.28125-0.10938-0.09375-0.019531-0.1875-0.03125-0.28125-0.03125-0.28125 0-0.5 0.09375-0.65625 0.28125-0.14844 0.17969-0.21875 0.43359-0.21875 0.76562v1.5625h-1.0938v-3.4062h1.0938v0.5625c0.13281-0.21875 0.28906-0.37891 0.46875-0.48438 0.1875-0.10156 0.40625-0.15625 0.65625-0.15625 0.039063 0 0.082031 0.007813 0.125 0.015625 0.039063 0 0.10156 0.007812 0.1875 0.015625z"/>
  </symbol>
  <symbol id="a" overflow="visible">
   <path d="m3.9219-1.7031v0.29688h-2.5469c0.03125 0.26172 0.125 0.45312 0.28125 0.57812s0.375 0.1875 0.65625 0.1875c0.22656 0 0.46094-0.03125 0.70312-0.09375 0.23828-0.070313 0.48438-0.17578 0.73438-0.3125v0.84375c-0.25 0.09375-0.50781 0.16797-0.76562 0.21875-0.26172 0.050781-0.51562 0.078125-0.76562 0.078125-0.61719 0-1.0938-0.15625-1.4375-0.46875s-0.51562-0.75391-0.51562-1.3281c0-0.55078 0.16406-0.98438 0.5-1.2969 0.33203-0.32031 0.79688-0.48438 1.3906-0.48438 0.53125 0 0.95703 0.16406 1.2812 0.48438 0.32031 0.32422 0.48438 0.75781 0.48438 1.2969zm-1.125-0.375c0-0.19531-0.0625-0.35938-0.1875-0.48438-0.11719-0.13281-0.27344-0.20312-0.46875-0.20312-0.21094 0-0.38281 0.0625-0.51562 0.1875-0.125 0.11719-0.20312 0.28125-0.23438 0.5z"/>
  </symbol>
  <symbol id="k" overflow="visible">
   <path d="m2.0469-1.5312c-0.23047 0-0.40234 0.042969-0.51562 0.125-0.11719 0.074219-0.17188 0.18359-0.17188 0.32812 0 0.13672 0.046875 0.24609 0.14062 0.32812 0.09375 0.074219 0.22266 0.10938 0.39062 0.10938 0.19531 0 0.36328-0.070313 0.5-0.21875 0.14453-0.14453 0.21875-0.32812 0.21875-0.54688v-0.125zm1.6562-0.40625v1.9375h-1.0938v-0.5c-0.14844 0.21094-0.3125 0.35938-0.5 0.45312-0.17969 0.09375-0.39844 0.14062-0.65625 0.14062-0.35547 0-0.64062-0.10156-0.85938-0.3125-0.21875-0.20703-0.32812-0.47266-0.32812-0.79688 0-0.40625 0.13281-0.69531 0.40625-0.875 0.28125-0.1875 0.71094-0.28125 1.2969-0.28125h0.64062v-0.09375c0-0.16406-0.070313-0.28906-0.20312-0.375-0.13672-0.082031-0.35156-0.125-0.64062-0.125-0.23047 0-0.44531 0.027344-0.64062 0.078125-0.19922 0.042969-0.38672 0.10938-0.5625 0.20312v-0.82812c0.22656-0.050781 0.46094-0.09375 0.70312-0.125 0.23828-0.03125 0.47266-0.046875 0.70312-0.046875 0.61328 0 1.0547 0.125 1.3281 0.375 0.26953 0.24219 0.40625 0.63281 0.40625 1.1719z"/>
  </symbol>
  <symbol id="b" overflow="visible">
   <path d="m1.7031-4.3594v0.95312h1.125v0.78125h-1.125v1.4375c0 0.16797 0.03125 0.27734 0.09375 0.32812 0.0625 0.054687 0.1875 0.078125 0.375 0.078125h0.5625v0.78125h-0.9375c-0.42969 0-0.73047-0.085938-0.90625-0.26562-0.17969-0.17578-0.26562-0.48438-0.26562-0.92188v-1.4375h-0.54688v-0.78125h0.54688v-0.95312z"/>
  </symbol>
  <symbol id="j" overflow="visible">
   <path d="m2.8438-2.9062v-1.8125h1.0781v4.7188h-1.0781v-0.48438c-0.15625 0.19922-0.32422 0.34375-0.5 0.4375-0.17969 0.09375-0.38672 0.14062-0.625 0.14062-0.41797 0-0.76172-0.16406-1.0312-0.5-0.27344-0.33203-0.40625-0.76562-0.40625-1.2969 0-0.51953 0.13281-0.94531 0.40625-1.2812 0.26953-0.33203 0.61328-0.5 1.0312-0.5 0.22656 0 0.42969 0.046875 0.60938 0.14062 0.1875 0.09375 0.35938 0.24219 0.51562 0.4375zm-0.71875 2.2031c0.22656 0 0.40625-0.082031 0.53125-0.25 0.125-0.17578 0.1875-0.42578 0.1875-0.75 0-0.32031-0.0625-0.56641-0.1875-0.73438-0.125-0.16406-0.30469-0.25-0.53125-0.25-0.24219 0-0.42188 0.085938-0.54688 0.25-0.11719 0.16797-0.17188 0.41406-0.17188 0.73438 0 0.32422 0.054688 0.57422 0.17188 0.75 0.125 0.16797 0.30469 0.25 0.54688 0.25z"/>
  </symbol>
  <symbol id="i" overflow="visible">
   <path d="m2.3281-0.70312c0.23828 0 0.41406-0.082031 0.53125-0.25 0.125-0.17578 0.1875-0.42578 0.1875-0.75 0-0.32031-0.0625-0.56641-0.1875-0.73438-0.11719-0.16406-0.29297-0.25-0.53125-0.25-0.23047 0-0.40625 0.085938-0.53125 0.25-0.125 0.16797-0.1875 0.41406-0.1875 0.73438 0 0.32422 0.0625 0.57422 0.1875 0.75 0.125 0.16797 0.30078 0.25 0.53125 0.25zm-0.71875-2.2031c0.14453-0.19531 0.30469-0.34375 0.48438-0.4375 0.1875-0.09375 0.39844-0.14062 0.64062-0.14062 0.41406 0 0.75781 0.16797 1.0312 0.5 0.26953 0.33594 0.40625 0.76172 0.40625 1.2812 0 0.53125-0.13672 0.96484-0.40625 1.2969-0.27344 0.33594-0.61719 0.5-1.0312 0.5-0.24219 0-0.45312-0.046875-0.64062-0.14062-0.17969-0.09375-0.33984-0.23828-0.48438-0.4375v0.48438h-1.0938v-4.7188h1.0938z"/>
  </symbol>
  <symbol id="h" overflow="visible">
   <path d="m0.078125-3.4062h1.0781l0.92188 2.3125 0.78125-2.3125h1.0781l-1.4219 3.7344c-0.14844 0.375-0.32031 0.63281-0.51562 0.78125-0.1875 0.15625-0.4375 0.23438-0.75 0.23438h-0.625v-0.71875h0.34375c0.17578 0 0.30469-0.03125 0.39062-0.09375 0.082031-0.054688 0.14844-0.15625 0.20312-0.3125l0.03125-0.09375z"/>
  </symbol>
  <symbol id="g" overflow="visible">
   <path d="m3.7188-4.3906v0.95312c-0.24219-0.10156-0.48047-0.17969-0.71875-0.23438-0.24219-0.0625-0.46484-0.09375-0.67188-0.09375-0.28125 0-0.49219 0.042969-0.625 0.125-0.13672 0.074219-0.20312 0.1875-0.20312 0.34375 0 0.125 0.046875 0.22656 0.14062 0.29688 0.09375 0.0625 0.25391 0.11719 0.48438 0.15625l0.5 0.10938c0.50781 0.10547 0.86719 0.26172 1.0781 0.46875 0.20703 0.19922 0.3125 0.49219 0.3125 0.875 0 0.5-0.14844 0.875-0.4375 1.125-0.29297 0.24219-0.74609 0.35938-1.3594 0.35938-0.29297 0-0.58594-0.03125-0.875-0.09375-0.28125-0.050781-0.57031-0.12891-0.85938-0.23438v-0.98438c0.28906 0.14844 0.57031 0.26172 0.84375 0.34375 0.26953 0.074219 0.53125 0.10938 0.78125 0.10938s0.44141-0.039063 0.57812-0.125c0.13281-0.082031 0.20312-0.20312 0.20312-0.35938 0-0.14453-0.046875-0.25391-0.14062-0.32812-0.085938-0.070313-0.26562-0.14062-0.54688-0.20312l-0.45312-0.10938c-0.44922-0.09375-0.77734-0.24219-0.98438-0.45312-0.21094-0.21875-0.3125-0.50391-0.3125-0.85938 0-0.45703 0.14453-0.80469 0.4375-1.0469 0.28906-0.23828 0.70703-0.35938 1.25-0.35938 0.25 0 0.50391 0.023437 0.76562 0.0625 0.25781 0.03125 0.53125 0.085937 0.8125 0.15625z"/>
  </symbol>
  <symbol id="x" overflow="visible">
   <path d="m3.3281-0.82812h-1.8281l-0.29688 0.82812h-1.1719l1.6719-4.5312h1.4062l1.6719 4.5312h-1.1719zm-1.5469-0.84375h1.25l-0.625-1.7969z"/>
  </symbol>
  <symbol id="w" overflow="visible">
   <path d="m0.57812-4.5312h1.4844l1.0312 2.4219 1.0312-2.4219h1.4844v4.5312h-1.0938v-3.3125l-1.0469 2.4375h-0.75l-1.0469-2.4375v3.3125h-1.0938z"/>
  </symbol>
  <symbol id="v" overflow="visible">
   <path d="m1.7344-3.6562v2.7656h0.42188c0.47656 0 0.84375-0.11328 1.0938-0.34375 0.25-0.23828 0.375-0.58203 0.375-1.0312 0-0.45703-0.125-0.80078-0.375-1.0312-0.25-0.23828-0.61719-0.35938-1.0938-0.35938zm-1.1562-0.875h1.2188c0.69531 0 1.2109 0.054688 1.5469 0.15625 0.33203 0.09375 0.61719 0.25781 0.85938 0.48438 0.21875 0.21094 0.37891 0.44922 0.48438 0.71875 0.10156 0.26172 0.15625 0.5625 0.15625 0.90625 0 0.33594-0.054688 0.63672-0.15625 0.90625-0.10547 0.27344-0.26562 0.51172-0.48438 0.71875-0.24219 0.23047-0.53125 0.39844-0.875 0.5-0.33594 0.09375-0.84375 0.14062-1.5312 0.14062h-1.2188z"/>
  </symbol>
  <symbol id="f" overflow="visible">
   <path d="m3.1719-3.2969v0.82812c-0.23047-0.09375-0.45312-0.16406-0.67188-0.21875-0.21094-0.050781-0.41406-0.078125-0.60938-0.078125-0.21094 0-0.36719 0.027344-0.46875 0.078125-0.09375 0.054688-0.14062 0.13672-0.14062 0.25 0 0.085938 0.035156 0.15234 0.10938 0.20312 0.082031 0.042969 0.21875 0.074219 0.40625 0.09375l0.20312 0.03125c0.55078 0.074219 0.92188 0.19531 1.1094 0.35938 0.19531 0.15625 0.29688 0.40625 0.29688 0.75 0 0.36719-0.13672 0.64062-0.40625 0.82812-0.26172 0.17578-0.65625 0.26562-1.1875 0.26562-0.23047 0-0.46484-0.023438-0.70312-0.0625-0.24219-0.03125-0.48438-0.082031-0.73438-0.15625v-0.82812c0.21875 0.10547 0.4375 0.18359 0.65625 0.23438 0.22656 0.054688 0.46094 0.078125 0.70312 0.078125 0.20703 0 0.36328-0.023437 0.46875-0.078125 0.11328-0.0625 0.17188-0.14844 0.17188-0.26562 0-0.09375-0.039062-0.16016-0.10938-0.20312-0.074219-0.050781-0.21875-0.09375-0.4375-0.125l-0.20312-0.03125c-0.48047-0.050781-0.82031-0.16016-1.0156-0.32812-0.1875-0.16406-0.28125-0.41406-0.28125-0.75 0-0.35156 0.11719-0.61719 0.35938-0.79688 0.25-0.17578 0.62891-0.26562 1.1406-0.26562 0.19531 0 0.40625 0.015625 0.625 0.046875 0.22656 0.03125 0.46875 0.078125 0.71875 0.14062z"/>
  </symbol>
  <symbol id="u" overflow="visible">
   <path d="m0.51562-3.4062h1.0938v3.4062h-1.0938zm0-1.3125h1.0938v0.875h-1.0938z"/>
  </symbol>
  <symbol id="t" overflow="visible">
   <path d="m2.8438-0.57812c-0.15625 0.19922-0.32422 0.34375-0.5 0.4375-0.17969 0.09375-0.38672 0.14062-0.625 0.14062-0.41797 0-0.76172-0.16016-1.0312-0.48438-0.27344-0.33203-0.40625-0.75-0.40625-1.25 0-0.50781 0.13281-0.92578 0.40625-1.25 0.26953-0.33203 0.61328-0.5 1.0312-0.5 0.23828 0 0.44531 0.046875 0.625 0.14062 0.17578 0.09375 0.34375 0.24609 0.5 0.45312v-0.51562h1.0781v3.0625c0 0.55078-0.17188 0.96875-0.51562 1.25-0.34375 0.28906-0.84375 0.4375-1.5 0.4375-0.21094 0-0.41406-0.015625-0.60938-0.046875-0.19922-0.03125-0.39844-0.085937-0.59375-0.15625v-0.84375c0.1875 0.11328 0.36719 0.19531 0.54688 0.25 0.1875 0.050781 0.36719 0.078125 0.54688 0.078125 0.36328 0 0.62891-0.078125 0.79688-0.23438 0.16406-0.15625 0.25-0.39844 0.25-0.73438zm-0.71875-2.1094c-0.23047 0-0.40625 0.085938-0.53125 0.25-0.125 0.15625-0.1875 0.39062-0.1875 0.70312s0.054688 0.54688 0.17188 0.70312c0.125 0.15625 0.30469 0.23438 0.54688 0.23438 0.21875 0 0.39062-0.078125 0.51562-0.23438 0.13281-0.16406 0.20312-0.39844 0.20312-0.70312 0-0.3125-0.070312-0.54688-0.20312-0.70312-0.125-0.16406-0.29688-0.25-0.51562-0.25z"/>
  </symbol>
  <symbol id="e" overflow="visible">
   <path d="m3.9375-2.0781v2.0781h-1.0938v-1.5781c0-0.30078-0.007812-0.50391-0.015625-0.60938-0.011719-0.11328-0.03125-0.19531-0.0625-0.25-0.042969-0.070312-0.10156-0.125-0.17188-0.15625-0.074219-0.039062-0.15625-0.0625-0.25-0.0625-0.23047 0-0.41406 0.089844-0.54688 0.26562-0.125 0.16797-0.1875 0.40625-0.1875 0.71875v1.6719h-1.0938v-3.4062h1.0938v0.5c0.16406-0.19531 0.33594-0.34375 0.51562-0.4375 0.1875-0.09375 0.39062-0.14062 0.60938-0.14062 0.39453 0 0.69141 0.12109 0.89062 0.35938 0.20703 0.24219 0.3125 0.58984 0.3125 1.0469z"/>
  </symbol>
  <symbol id="s" overflow="visible">
   <path d="m2.7656-4.7188v0.70312h-0.60938c-0.15625 0-0.26562 0.03125-0.32812 0.09375-0.054687 0.054687-0.078125 0.14844-0.078125 0.28125v0.23438h0.92188v0.78125h-0.92188v2.625h-1.0938v-2.625h-0.53125v-0.78125h0.53125v-0.23438c0-0.36328 0.10156-0.63281 0.3125-0.8125 0.20703-0.17578 0.52344-0.26562 0.95312-0.26562z"/>
  </symbol>
  <symbol id="d" overflow="visible">
   <path d="m2.1406-2.7031c-0.24219 0-0.42188 0.089844-0.54688 0.26562-0.125 0.16797-0.1875 0.41406-0.1875 0.73438 0 0.33594 0.0625 0.58984 0.1875 0.76562 0.125 0.16797 0.30469 0.25 0.54688 0.25 0.23828 0 0.42188-0.082031 0.54688-0.25 0.125-0.17578 0.1875-0.42969 0.1875-0.76562 0-0.32031-0.0625-0.56641-0.1875-0.73438-0.125-0.17578-0.30859-0.26562-0.54688-0.26562zm0-0.78125c0.58203 0 1.0352 0.16406 1.3594 0.48438 0.33203 0.3125 0.5 0.74609 0.5 1.2969 0 0.5625-0.16797 1.0078-0.5 1.3281-0.32422 0.3125-0.77734 0.46875-1.3594 0.46875-0.58594 0-1.043-0.15625-1.375-0.46875-0.33594-0.32031-0.5-0.76562-0.5-1.3281 0-0.55078 0.16406-0.98438 0.5-1.2969 0.33203-0.32031 0.78906-0.48438 1.375-0.48438z"/>
  </symbol>
  <symbol id="r" overflow="visible">
   <path d="m3.6719-2.8438c0.13281-0.20703 0.29688-0.36328 0.48438-0.46875 0.19531-0.11328 0.40625-0.17188 0.625-0.17188 0.39453 0 0.69141 0.12109 0.89062 0.35938 0.20703 0.24219 0.3125 0.58984 0.3125 1.0469v2.0781h-1.0938v-1.7656-0.078125c0.007813-0.03125 0.015625-0.078125 0.015625-0.14062 0-0.23828-0.039062-0.41016-0.10938-0.51562-0.074219-0.10156-0.1875-0.15625-0.34375-0.15625-0.21094 0-0.37109 0.085938-0.48438 0.25-0.10547 0.16797-0.16406 0.41406-0.17188 0.73438v1.6719h-1.0938v-1.7656c0-0.38281-0.03125-0.62891-0.09375-0.73438-0.0625-0.10156-0.17969-0.15625-0.34375-0.15625-0.21094 0-0.37109 0.085938-0.48438 0.25-0.11719 0.16797-0.17188 0.41406-0.17188 0.73438v1.6719h-1.0938v-3.4062h1.0938v0.5c0.13281-0.1875 0.28516-0.32812 0.45312-0.42188 0.17578-0.10156 0.36719-0.15625 0.57812-0.15625 0.23828 0 0.44531 0.058594 0.625 0.17188 0.17578 0.11719 0.3125 0.27344 0.40625 0.46875z"/>
  </symbol>
  <symbol id="q" overflow="visible">
   <path d="m3.9375-2.0781v2.0781h-1.0938v-1.5781c0-0.30078-0.007812-0.50391-0.015625-0.60938-0.011719-0.11328-0.03125-0.19531-0.0625-0.25-0.042969-0.070312-0.10156-0.125-0.17188-0.15625-0.074219-0.039062-0.15625-0.0625-0.25-0.0625-0.23047 0-0.41406 0.089844-0.54688 0.26562-0.125 0.16797-0.1875 0.40625-0.1875 0.71875v1.6719h-1.0938v-4.7188h1.0938v1.8125c0.16406-0.19531 0.33594-0.34375 0.51562-0.4375 0.1875-0.09375 0.39062-0.14062 0.60938-0.14062 0.39453 0 0.69141 0.12109 0.89062 0.35938 0.20703 0.24219 0.3125 0.58984 0.3125 1.0469z"/>
  </symbol>
  <symbol id="p" overflow="visible">
   <path d="m0.57812-4.5312h1.2969l1.6562 3.1094v-3.1094h1.1094v4.5312h-1.3125l-1.6562-3.1094v3.1094h-1.0938z"/>
  </symbol>
  <symbol id="o" overflow="visible">
   <path d="m0.48438-1.3281v-2.0781h1.0938v0.34375 0.70312 0.54688c0 0.27344 0.003906 0.46875 0.015625 0.59375 0.007812 0.125 0.035156 0.21484 0.078125 0.26562 0.039063 0.074219 0.097656 0.13281 0.17188 0.17188 0.070312 0.03125 0.15625 0.046875 0.25 0.046875 0.21875 0 0.39062-0.082031 0.51562-0.25 0.13281-0.17578 0.20312-0.42188 0.20312-0.73438v-1.6875h1.0938v3.4062h-1.0938v-0.48438c-0.15625 0.19922-0.32812 0.34375-0.51562 0.4375s-0.39062 0.14062-0.60938 0.14062c-0.38672 0-0.68359-0.11719-0.89062-0.35938-0.21094-0.25-0.3125-0.60156-0.3125-1.0625z"/>
  </symbol>
  <symbol id="n" overflow="visible">
   <path d="m0.57812-4.5312h1.9375c0.57031 0 1.0078 0.13281 1.3125 0.39062 0.3125 0.25 0.46875 0.60938 0.46875 1.0781 0 0.48047-0.15625 0.85156-0.46875 1.1094-0.30469 0.25-0.74219 0.375-1.3125 0.375h-0.78125v1.5781h-1.1562zm1.1562 0.84375v1.2656h0.65625c0.22656 0 0.39844-0.050781 0.51562-0.15625 0.125-0.11328 0.1875-0.27344 0.1875-0.48438 0-0.19531-0.0625-0.34766-0.1875-0.45312-0.11719-0.11328-0.28906-0.17188-0.51562-0.17188z"/>
  </symbol>
  <symbol id="m" overflow="visible">
   <path d="m0.51562-3.4062h1.0938v3.3438c0 0.45703-0.10938 0.80469-0.32812 1.0469-0.21875 0.23828-0.53906 0.35938-0.95312 0.35938h-0.53125v-0.71875h0.1875c0.20703 0 0.34766-0.046875 0.42188-0.14062 0.070312-0.09375 0.10938-0.27734 0.10938-0.54688zm0-1.3125h1.0938v0.875h-1.0938z"/>
  </symbol>
  <symbol id="l" overflow="visible">
   <path d="m3.2656-3.2969v0.89062c-0.14844-0.10156-0.29297-0.17578-0.4375-0.21875-0.14844-0.050781-0.30469-0.078125-0.46875-0.078125-0.30469 0-0.53906 0.089844-0.70312 0.26562-0.16797 0.17969-0.25 0.42188-0.25 0.73438 0 0.32422 0.082031 0.57422 0.25 0.75 0.16406 0.17969 0.39844 0.26562 0.70312 0.26562 0.17578 0 0.33594-0.023438 0.48438-0.078125 0.15625-0.050781 0.29688-0.125 0.42188-0.21875v0.89062c-0.16797 0.0625-0.33984 0.10938-0.51562 0.14062-0.17969 0.03125-0.35547 0.046875-0.53125 0.046875-0.60547 0-1.0859-0.15625-1.4375-0.46875-0.34375-0.32031-0.51562-0.76562-0.51562-1.3281 0-0.55078 0.17188-0.98438 0.51562-1.2969 0.35156-0.32031 0.83203-0.48438 1.4375-0.48438 0.1875 0 0.36328 0.015625 0.53125 0.046875 0.17578 0.03125 0.34766 0.078125 0.51562 0.14062z"/>
  </symbol>
 </defs>
 <g>
  <path d="m610.93 492.97h-411.46c-3.4336 0-6.2227-2.7891-6.2227-6.2227 0-0.42188 0-43.27 0.125-85.543 0.074219-24.84 0.16016-44.637 0.27344-58.836 0.074218-8.4492 0.14844-14.996 0.23828-19.449 0.050781-2.4023 0.097656-4.2812 0.14844-5.5625 0.21094-5.2383 2.3633-7.8906 6.3828-7.8906 1.6172 0 3.1719 0.63281 4.332 1.7539l39.586 38.441 58.59-37.855c2.7617-1.793 6.4453-1.1094 8.3867 1.543l28.785 39.211c1.8164 2.4766 1.5547 5.9102-0.60938 8.0781l-15.195 15.195 36.09 20.734c1.793 1.0312 2.9609 2.8867 3.1094 4.9531 0.14844 2.0664-0.74609 4.0703-2.375 5.3516l-14.621 11.41 54.234 19.465-24.965-34.734c-1.1953-1.668-1.4922-3.8086-0.79688-5.7383l9.457-26.297-23.457-6.1211c-1.7305-0.44922-3.1875-1.6289-3.9961-3.2344s-0.87109-3.4727-0.19922-5.1289l19.613-48.32c1.2812-3.1602 4.8516-4.6914 8.0273-3.4609l113.73 44.391c2.6523 1.0312 4.2695 3.7461 3.9062 6.5586l-6.2344 50.102 17.922 28.176 3.4844-17.496c0.57422-2.9102 3.1367-5.0039 6.0977-5.0039h19.027l-18.777-25.375c-0.91016-1.2188-1.332-2.7383-1.1953-4.2578l2.5898-28.711c0.19922-2.2148 1.582-4.168 3.5977-5.1016l79.77-36.625c1.9297-0.88281 4.168-0.72266 5.9609 0.41016 1.7812 1.1445 2.8633 3.125 2.8633 5.2383v169.73c0 3.4375-2.7852 6.2227-6.2227 6.2227zm-405.24-12.441h399.02l-0.003906-153.8-67.672 31.074-2.0547 22.762 24.715 33.387c1.3945 1.8906 1.6172 4.4062 0.55859 6.5078-1.0586 2.1016-3.2109 3.4219-5.5508 3.4219h-26.27l-5.5117 27.703c-0.49609 2.4883-2.4648 4.4297-4.9531 4.9023-2.5 0.46094-5.0273-0.63281-6.3945-2.7734l-27.453-43.145c-0.77344-1.2188-1.1094-2.6758-0.92188-4.1055l5.9102-47.512-103.5-40.395-14.633 36.062 23.184 6.0469c1.6914 0.4375 3.125 1.582 3.9336 3.125s0.94531 3.3594 0.34766 5.0039l-10.652 29.629 34.719 48.32c1.5938 2.2148 1.5547 5.2031-0.085938 7.3789-1.6445 2.1797-4.5039 3.0234-7.0703 2.1172l-83.688-30.039c-2.1289-0.75781-3.6836-2.625-4.043-4.8789-0.35938-2.2383 0.53516-4.4922 2.3164-5.8867l16.227-12.668-35.117-20.172c-1.6797-0.95703-2.8125-2.6641-3.0742-4.5781-0.26172-1.918 0.39844-3.8438 1.7656-5.2148l17.16-17.16-22.152-30.191-57.816 37.371c-2.4375 1.582-5.625 1.2578-7.7148-0.75781l-33.004-32.043c-0.35938 29.012-0.50781 98.676-0.51953 150.51z"/>
  <path d="m243.56 363.8c-0.4375 0-0.87109-0.050781-1.3203-0.13672-3.3594-0.72266-5.5-4.0312-4.7656-7.3906l45.246-209.96c0.72266-3.3594 4.0312-5.5 7.3906-4.7656 3.3594 0.72266 5.5 4.0312 4.7656 7.3906l-45.246 209.96c-0.62109 2.8984-3.207 4.9023-6.0703 4.9023z"/>
  <path d="m272.59 229.03c-1.8281 0-3.6328-0.79688-4.8672-2.3398l-35.527-44.488c-2.1406-2.6875-1.7031-6.5938 0.98438-8.75 2.6875-2.1406 6.5938-1.7031 8.75 0.98438l35.527 44.488c2.1406 2.6875 1.7031 6.5938-0.98438 8.75-1.1445 0.90625-2.5117 1.3555-3.8828 1.3555z"/>
  <path d="m266.19 258.82c-2.1289 0-4.1953-1.082-5.3516-3.0508-1.7539-2.9492-0.78516-6.7695 2.1641-8.5234l59.734-35.516c2.9609-1.7539 6.7695-0.78516 8.5234 2.1641 1.7539 2.9492 0.78516 6.7695-2.1641 8.5234l-59.734 35.516c-0.99609 0.60156-2.0898 0.88672-3.1719 0.88672z"/>
  <path d="m320.68 300.43c-0.3125 0-0.60938-0.023438-0.91016-0.0625-2.75-0.41016-5.5508-0.87109-8.3008-1.3828-54.207-10.004-95.09-36.859-112.15-73.695-14.137-30.527-10.926-65.285 9.2969-100.53 33.188-57.84 115.37-67.637 172.46-43.543 5.4492 2.3008 22.027 9.2969 21.129 21.863-0.94531 13.242-20.684 20.359-32.355 23.406l-26.992 7.0703c-7.7148 2.0273-10.105 4.5156-10.414 5.2148 0.52344 1.582 6.6328 5.9727 18.23 5.5234l42.559-1.6172c30.039-1.1445 53.984 9.4453 55.664 24.629 0.59766 5.4141-1.2188 18.617-31.051 24.129-3.7227 0.68359-8.6484 1.3086-13.863 1.9648-8.8242 1.1211-18.828 2.375-25.723 4.2695-11.312 3.0977-21.727 10.066-22 13.379-0.039062 0.39844 0.96875 2.4023 6.4844 4.9531 4.9297 2.2773 10.367 3.6719 16.141 4.1328 18.457 1.4688 24.664 10.094 24.328 17.684-0.44922 10.043-12.754 20.098-35.418 20.098h-0.75781c-1.5938-0.011719-3.7695-0.11328-6.5352-0.22266-6.793-0.28516-17.051-0.72266-26.059-0.21094-11.027 0.62109-14.785 2.3516-15.902 3.0977 0.49609 1.082 2.3164 3.9219 8.7617 8.8594 8.8242 6.7812 12.434 13.066 11.027 19.215-1.9805 8.6367-12.793 10.902-16.352 11.648-0.4375 0.074218-0.87109 0.125-1.2969 0.125zm-2.4609-219.17c-39.586 0-79.059 15.281-98.797 49.691-18.133 31.586-21.168 62.395-8.7969 89.102 15.344 33.129 52.926 57.43 103.11 66.691 2.2266 0.41016 4.4922 0.79688 6.7344 1.1328 3.3984-0.80859 4.9141-1.6562 5.5234-2.0898-0.48438-1.0195-2.1172-3.2734-6.2852-6.4844-7.207-5.5391-16.414-13.949-13.129-22.949 4.0195-11.051 23.012-12.434 54.457-11.09 2.5391 0.11328 4.7305 0.19922 6.1211 0.21094 16.141 0.13672 23.52-5.8867 23.633-8.1992 0.039062-0.80859-2.9609-3.9219-12.879-4.7148-7.2422-0.58594-14.086-2.3398-20.359-5.2383-12.02-5.5508-14.074-12.457-13.676-17.273 1.0586-12.816 20.809-21.527 31.109-24.355 7.7539-2.1289 18.219-3.4453 27.453-4.6172 5.0391-0.63281 9.793-1.2305 13.168-1.8672 15.781-2.9102 21.219-8 20.945-10.516-0.58594-5.2773-15.793-14.586-42.82-13.562l-42.559 1.6172c-16.5 0.59766-29.555-6.1836-31.035-16.203-0.59766-4.0195 0.125-13.914 19.586-19.016l26.992-7.0703c16.004-4.1953 22.934-10.055 23.098-12.27 0.074219-0.95703-2.2773-4.7539-13.551-9.5078-17.652-7.4375-37.875-11.422-58.047-11.422z"/>
  <path d="m483.79 356.41c-0.4375 0-0.87109-0.050781-1.3203-0.13672-3.3594-0.72266-5.5-4.0312-4.7656-7.3906l29.531-137.07c0.72266-3.3594 4.0312-5.5 7.3906-4.7773s5.5 4.0312 4.7656 7.3906l-29.531 137.07c-0.63281 2.9219-3.207 4.9141-6.0703 4.9141z"/>
  <path d="m502.37 270.12c-1.8281 0-3.6328-0.79688-4.8672-2.3398l-23.992-30.039c-2.1406-2.6875-1.7031-6.5938 0.98438-8.75 2.6758-2.1406 6.5938-1.7031 8.75 0.98438l23.992 30.039c2.1406 2.6875 1.7031 6.5938-0.98438 8.75-1.1445 0.91016-2.5156 1.3555-3.8828 1.3555z"/>
  <path d="m498.04 290.23c-2.1289 0-4.1953-1.082-5.3516-3.0508-1.7539-2.9492-0.78516-6.7695 2.1641-8.5234l40.344-23.98c2.9492-1.7539 6.7695-0.78516 8.5234 2.1641 1.7539 2.9492 0.78516 6.7695-2.1641 8.5234l-40.344 23.98c-0.99219 0.61328-2.0898 0.88672-3.1719 0.88672z"/>
  <path d="m534.84 318.34c-0.29688 0-0.60938-0.023438-0.91016-0.0625-1.8906-0.28516-3.7969-0.59766-5.6758-0.94531-37.258-6.8711-65.395-25.426-77.207-50.91-9.832-21.23-7.6406-45.348 6.3594-69.738 22.973-40.02 79.656-46.867 119.01-30.254 4.0078 1.6914 16.203 6.8438 15.492 16.773-0.73438 10.203-14.945 15.418-23.359 17.621l-18.23 4.7773c-2.0781 0.54688-3.4961 1.1328-4.418 1.6172 1.6445 0.85938 4.7148 1.8281 9.1094 1.668l23.27-0.88281c22.09-0.83203 45.148 4.1172 46.953 17.086 0.84766 6.0586-2.6523 14.375-24.078 19.574-3.2617 0.78516-7.6172 1.3203-12.219 1.8789-5.3125 0.64844-10.828 1.3086-14.684 2.375-6.0859 1.668-11.473 4.9766-13.043 6.8945 0.47266 0.38672 1.332 0.98438 2.875 1.6914 3.1094 1.4297 6.5469 2.3164 10.219 2.6133 13.887 1.1094 18.555 7.9766 18.281 14.039-0.34766 7.7539-9.3711 15.504-25.945 15.504h-0.52344c-1.0586-0.011718-2.6016-0.074218-4.4805-0.14844-14.82-0.63281-21.863-0.050781-25.113 0.79688 0.79688 0.84766 2.0391 2.0039 4.0078 3.5234 6.5586 5.0391 9.3086 10.094 8.1875 15.031-1.0703 4.7031-5.3125 7.8633-12.594 9.3945-0.42188 0.035157-0.84375 0.082032-1.2812 0.082032zm-1.7148-148.02c-26.047 0-51.969 10.004-64.91 32.566-11.898 20.734-13.926 40.906-5.8633 58.316 10.078 21.766 34.93 37.77 68.16 43.902 1.3555 0.25 2.7266 0.48438 4.0938 0.69531 0.22266-0.0625 0.4375-0.11328 0.62109-0.17578-0.53516-0.53516-1.2695-1.1953-2.2773-1.9648-3.4219-2.625-12.508-9.6211-9.5312-17.781 3.4727-9.5312 19.613-9.6328 38.766-8.8242 1.7031 0.074219 3.0977 0.13672 4.0703 0.14844 7.543 0.125 11.773-1.918 13.34-3.2461-1.0195-0.52344-2.9883-1.1836-6.2578-1.4453-5.1289-0.41016-9.9805-1.6562-14.438-3.707-9.1836-4.2305-10.727-9.7695-10.402-13.664 1.0078-12.207 21.617-17.996 22.488-18.23 4.7422-1.293 10.715-2.0273 16.477-2.7266 4.2305-0.51172 8.2383-0.99609 10.789-1.6172 9.8203-2.375 13.266-4.9297 14.336-5.9844-2.3906-2.3008-12.941-6.9297-33.801-6.1367l-23.27 0.88281c-12.184 0.44922-21.879-4.8672-23.035-12.668-0.48437-3.2461-0.011718-11.227 14.723-15.094l18.23-4.7773c8.2773-2.1641 12.582-4.9648 13.84-6.3477-0.67188-0.74609-2.6016-2.4023-7.6523-4.543-11.73-4.9414-25.133-7.5781-38.496-7.5781zm33.859 24.477h0.011719z"/>
  <path d="m191.32 110.48h-62.73c-3.4336 0-6.2227-2.7891-6.2227-6.2227 0-3.4336 2.7891-6.2227 6.2227-6.2227h62.734c3.4336 0 6.2227 2.7891 6.2227 6.2227-0.003906 3.4375-2.793 6.2227-6.2266 6.2227z"/>
  <path d="m144.26 165.38h-62.734c-3.4336 0-6.2227-2.7891-6.2227-6.2227s2.7891-6.2227 6.2227-6.2227h62.734c3.4336 0 6.2227 2.7891 6.2227 6.2227-0.003907 3.4336-2.7891 6.2227-6.2227 6.2227z"/>
  <path d="m144.26 220.27h-62.734c-3.4336 0-6.2227-2.7891-6.2227-6.2227 0-3.4336 2.7891-6.2227 6.2227-6.2227h62.734c3.4336 0 6.2227 2.7891 6.2227 6.2227-0.003907 3.4375-2.7891 6.2227-6.2227 6.2227z"/>
  <path d="m191.32 275.17h-62.73c-3.4336 0-6.2227-2.7891-6.2227-6.2227 0-3.4336 2.7891-6.2227 6.2227-6.2227h62.734c3.4336 0 6.2227 2.7891 6.2227 6.2227-0.003906 3.4336-2.793 6.2227-6.2266 6.2227z"/>
  <path d="m519.64 86.926h-62.734c-3.4336 0-6.2227-2.7891-6.2227-6.2227s2.7891-6.2227 6.2227-6.2227h62.734c3.4336 0 6.2227 2.7891 6.2227 6.2227-0.003907 3.4336-2.7891 6.2227-6.2227 6.2227z"/>
  <path d="m519.64 141.82h-62.734c-3.4336 0-6.2227-2.7891-6.2227-6.2227s2.7891-6.2227 6.2227-6.2227h62.734c3.4336 0 6.2227 2.7891 6.2227 6.2227-0.003907 3.4375-2.7891 6.2227-6.2227 6.2227z"/>
  <path d="m199.55 425.18c-2.8867 0-5.4648-2.0156-6.0859-4.9414-0.71094-3.3594 1.4453-6.6562 4.8047-7.3672l64.848-13.641c3.3594-0.71094 6.6562 1.4453 7.3672 4.8047 0.71094 3.3594-1.4453 6.6562-4.8047 7.3672l-64.848 13.641c-0.43359 0.10156-0.85938 0.13672-1.2812 0.13672z"/>
  <path d="m276.84 450.05c-1.6055 0-3.2109-0.62109-4.4297-1.8398l-33.648-34.047c-2.4141-2.4375-2.3906-6.3828 0.050781-8.7969 2.4375-2.4141 6.3828-2.3906 8.7969 0.050781l33.648 34.047c2.4141 2.4375 2.3906 6.3828-0.050781 8.7969-1.207 1.1914-2.7891 1.7891-4.3672 1.7891z"/>
  <use x="70" y="578.667969" xlink:href="#y"/>
  <use x="74.566406" y="578.667969" xlink:href="#c"/>
  <use x="77.636719" y="578.667969" xlink:href="#a"/>
  <use x="81.855469" y="578.667969" xlink:href="#k"/>
  <use x="86.054688" y="578.667969" xlink:href="#b"/>
  <use x="89.027344" y="578.667969" xlink:href="#a"/>
  <use x="93.25" y="578.667969" xlink:href="#j"/>
  <use x="99.867188" y="578.667969" xlink:href="#i"/>
  <use x="104.324219" y="578.667969" xlink:href="#h"/>
  <use x="110.542969" y="578.667969" xlink:href="#g"/>
  <use x="115.027344" y="578.667969" xlink:href="#x"/>
  <use x="119.839844" y="578.667969" xlink:href="#w"/>
  <use x="128.199219" y="578.667969" xlink:href="#v"/>
  <use x="133.363281" y="578.667969" xlink:href="#a"/>
  <use x="137.585938" y="578.667969" xlink:href="#f"/>
  <use x="141.289062" y="578.667969" xlink:href="#u"/>
  <use x="143.421875" y="578.667969" xlink:href="#t"/>
  <use x="147.875" y="578.667969" xlink:href="#e"/>
  <use x="152.304688" y="578.667969" xlink:href="#f"/>
  <use x="70" y="584.890625" xlink:href="#s"/>
  <use x="72.707031" y="584.890625" xlink:href="#c"/>
  <use x="75.777344" y="584.890625" xlink:href="#d"/>
  <use x="80.050781" y="584.890625" xlink:href="#r"/>
  <use x="88.699219" y="584.890625" xlink:href="#b"/>
  <use x="91.675781" y="584.890625" xlink:href="#q"/>
  <use x="96.105469" y="584.890625" xlink:href="#a"/>
  <use x="102.492188" y="584.890625" xlink:href="#p"/>
  <use x="107.699219" y="584.890625" xlink:href="#d"/>
  <use x="111.972656" y="584.890625" xlink:href="#o"/>
  <use x="116.402344" y="584.890625" xlink:href="#e"/>
  <use x="123" y="584.890625" xlink:href="#n"/>
  <use x="127.558594" y="584.890625" xlink:href="#c"/>
  <use x="130.628906" y="584.890625" xlink:href="#d"/>
  <use x="134.902344" y="584.890625" xlink:href="#m"/>
  <use x="137.035156" y="584.890625" xlink:href="#a"/>
  <use x="141.253906" y="584.890625" xlink:href="#l"/>
  <use x="144.941406" y="584.890625" xlink:href="#b"/>
 </g>
</svg>
