<?xml version="1.0" encoding="UTF-8"?>
<svg width="700pt" height="700pt" version="1.1" viewBox="0 0 700 700" xmlns="http://www.w3.org/2000/svg" xmlns:xlink="http://www.w3.org/1999/xlink">
 <defs>
  <symbol id="s" overflow="visible">
   <path d="m23.453-1.4062c-1.2109 0.625-2.4688 1.1016-3.7812 1.4219s-2.6836 0.48438-4.1094 0.48438c-4.25 0-7.6172-1.1875-10.094-3.5625-2.4805-2.375-3.7188-5.5977-3.7188-9.6719 0-4.0703 1.2383-7.2969 3.7188-9.6719 2.4766-2.3828 5.8438-3.5781 10.094-3.5781 1.4258 0 2.7969 0.16406 4.1094 0.48438 1.3125 0.32422 2.5703 0.79688 3.7812 1.4219v5.2812c-1.2188-0.83203-2.4219-1.4414-3.6094-1.8281-1.1875-0.38281-2.4375-0.57812-3.75-0.57812-2.3438 0-4.1875 0.75-5.5312 2.25s-2.0156 3.5742-2.0156 6.2188c0 2.6367 0.67188 4.7109 2.0156 6.2188 1.3438 1.5 3.1875 2.25 5.5312 2.25 1.3125 0 2.5625-0.19141 3.75-0.57812 1.1875-0.39453 2.3906-1.0078 3.6094-1.8438z"/>
  </symbol>
  <symbol id="e" overflow="visible">
   <path d="m17.156-13.922c-0.53125-0.25-1.0625-0.42969-1.5938-0.54688-0.53125-0.125-1.0625-0.1875-1.5938-0.1875-1.5742 0-2.7891 0.50781-3.6406 1.5156-0.84375 1-1.2656 2.4453-1.2656 4.3281v8.8125h-6.125v-19.141h6.125v3.1406c0.78125-1.25 1.6797-2.1602 2.7031-2.7344 1.0195-0.58203 2.2422-0.875 3.6719-0.875 0.19531 0 0.41406 0.011719 0.65625 0.03125 0.23828 0.023437 0.58594 0.058594 1.0469 0.10938z"/>
  </symbol>
  <symbol id="c" overflow="visible">
   <path d="m22.047-9.625v1.75h-14.312c0.15625 1.4375 0.67578 2.5156 1.5625 3.2344 0.88281 0.71094 2.125 1.0625 3.7188 1.0625 1.2891 0 2.6094-0.1875 3.9531-0.5625 1.3516-0.38281 2.7422-0.96094 4.1719-1.7344v4.7188c-1.4492 0.54297-2.8984 0.95312-4.3438 1.2344-1.4492 0.28125-2.8984 0.42188-4.3438 0.42188-3.4609 0-6.1523-0.87891-8.0781-2.6406-1.918-1.7578-2.875-4.2266-2.875-7.4062 0-3.125 0.94141-5.582 2.8281-7.375 1.8828-1.7891 4.4766-2.6875 7.7812-2.6875 3.0078 0 5.4141 0.90625 7.2188 2.7188 1.8125 1.8125 2.7188 4.2344 2.7188 7.2656zm-6.2969-2.0312c0-1.1641-0.33984-2.1016-1.0156-2.8125-0.67969-0.70703-1.5625-1.0625-2.6562-1.0625-1.1797 0-2.1406 0.33594-2.8906 1-0.74219 0.66797-1.1992 1.625-1.375 2.875z"/>
  </symbol>
  <symbol id="a" overflow="visible">
   <path d="m11.516-8.6094c-1.2734 0-2.2305 0.21875-2.875 0.65625-0.64844 0.42969-0.96875 1.0625-0.96875 1.9062 0 0.77344 0.25781 1.375 0.78125 1.8125 0.51953 0.4375 1.2383 0.65625 2.1562 0.65625 1.1562 0 2.125-0.41016 2.9062-1.2344 0.78906-0.82031 1.1875-1.8516 1.1875-3.0938v-0.70312zm9.3438-2.3125v10.922h-6.1562v-2.8438c-0.82422 1.168-1.75 2.0156-2.7812 2.5469-1.0234 0.53125-2.2656 0.79688-3.7344 0.79688-1.9805 0-3.5898-0.57812-4.8281-1.7344-1.2422-1.1562-1.8594-2.6602-1.8594-4.5156 0-2.2383 0.76953-3.8789 2.3125-4.9219 1.5508-1.0508 3.9766-1.5781 7.2812-1.5781h3.6094v-0.48438c0-0.96875-0.38672-1.6758-1.1562-2.125-0.76172-0.44531-1.9492-0.67188-3.5625-0.67188-1.3125 0-2.5391 0.13281-3.6719 0.39062-1.125 0.26172-2.1719 0.65234-3.1406 1.1719v-4.6562c1.3125-0.32031 2.6289-0.56641 3.9531-0.73438 1.3203-0.16406 2.6445-0.25 3.9688-0.25 3.4453 0 5.9375 0.68359 7.4688 2.0469 1.5312 1.3672 2.2969 3.5781 2.2969 6.6406z"/>
  </symbol>
  <symbol id="b" overflow="visible">
   <path d="m9.625-24.578v5.4375h6.2969v4.375h-6.2969v8.125c0 0.88672 0.17578 1.4844 0.53125 1.7969 0.35156 0.3125 1.0508 0.46875 2.0938 0.46875h3.1406v4.375h-5.2344c-2.418 0-4.1328-0.50391-5.1406-1.5156-1.0117-1.0078-1.5156-2.7188-1.5156-5.125v-8.125h-3.0312v-4.375h3.0312v-5.4375z"/>
  </symbol>
  <symbol id="l" overflow="visible">
   <path d="m15.969-16.344v-10.25h6.1406v26.594h-6.1406v-2.7656c-0.84375 1.125-1.7773 1.9531-2.7969 2.4844-1.0117 0.51953-2.1836 0.78125-3.5156 0.78125-2.3555 0-4.293-0.9375-5.8125-2.8125-1.5117-1.875-2.2656-4.2852-2.2656-7.2344 0-2.957 0.75391-5.375 2.2656-7.25 1.5195-1.875 3.457-2.8125 5.8125-2.8125 1.3203 0 2.4922 0.26562 3.5156 0.79688 1.0195 0.53125 1.9531 1.3555 2.7969 2.4688zm-4.0469 12.391c1.3125 0 2.3125-0.47266 3-1.4219 0.69531-0.95703 1.0469-2.3477 1.0469-4.1719 0-1.8203-0.35156-3.2109-1.0469-4.1719-0.6875-0.95703-1.6875-1.4375-3-1.4375-1.293 0-2.2891 0.48047-2.9844 1.4375-0.6875 0.96094-1.0312 2.3516-1.0312 4.1719 0 1.8242 0.34375 3.2148 1.0312 4.1719 0.69531 0.94922 1.6914 1.4219 2.9844 1.4219z"/>
  </symbol>
  <symbol id="k" overflow="visible">
   <path d="m13.125-3.9531c1.3125 0 2.3125-0.47266 3-1.4219 0.6875-0.95703 1.0312-2.3477 1.0312-4.1719 0-1.8203-0.34375-3.2109-1.0312-4.1719-0.6875-0.95703-1.6875-1.4375-3-1.4375s-2.3203 0.48438-3.0156 1.4531c-0.69922 0.96094-1.0469 2.3438-1.0469 4.1562 0 1.8047 0.34766 3.1875 1.0469 4.1562 0.69531 0.96094 1.7031 1.4375 3.0156 1.4375zm-4.0625-12.391c0.84375-1.1133 1.7734-1.9375 2.7969-2.4688 1.0312-0.53125 2.207-0.79688 3.5312-0.79688 2.3633 0 4.3008 0.9375 5.8125 2.8125 1.5195 1.875 2.2812 4.293 2.2812 7.25 0 2.9492-0.76172 5.3594-2.2812 7.2344-1.5117 1.875-3.4492 2.8125-5.8125 2.8125-1.3242 0-2.5-0.26562-3.5312-0.79688-1.0234-0.53125-1.9531-1.3516-2.7969-2.4688v2.7656h-6.125v-26.594h6.125z"/>
  </symbol>
  <symbol id="j" overflow="visible">
   <path d="m0.42188-19.141h6.125l5.1406 12.984 4.375-12.984h6.125l-8.0469 20.953c-0.8125 2.125-1.7617 3.6094-2.8438 4.4531-1.0742 0.85156-2.4922 1.2812-4.25 1.2812h-3.5469v-4.0156h1.9219c1.0312 0 1.7812-0.16797 2.25-0.5 0.47656-0.32422 0.84766-0.91406 1.1094-1.7656l0.17188-0.53125z"/>
  </symbol>
  <symbol id="g" overflow="visible">
   <path d="m2.9375-19.141h6.125v18.797c0 2.5625-0.62109 4.5156-1.8594 5.8594-1.2305 1.3516-3.0117 2.0312-5.3438 2.0312h-3.0156v-4.0156h1.0469c1.1641 0 1.9609-0.26172 2.3906-0.78125 0.4375-0.52344 0.65625-1.5547 0.65625-3.0938zm0-7.4531h6.125v4.9844h-6.125z"/>
  </symbol>
  <symbol id="d" overflow="visible">
   <path d="m12.047-15.234c-1.3555 0-2.3906 0.49219-3.1094 1.4688-0.71094 0.96875-1.0625 2.375-1.0625 4.2188 0 1.8359 0.35156 3.2422 1.0625 4.2188 0.71875 0.96875 1.7539 1.4531 3.1094 1.4531 1.332 0 2.3516-0.48438 3.0625-1.4531 0.70703-0.97656 1.0625-2.3828 1.0625-4.2188 0-1.8438-0.35547-3.25-1.0625-4.2188-0.71094-0.97656-1.7305-1.4688-3.0625-1.4688zm0-4.375c3.2891 0 5.8633 0.89062 7.7188 2.6719 1.8516 1.7812 2.7812 4.2461 2.7812 7.3906 0 3.1367-0.92969 5.5938-2.7812 7.375-1.8555 1.7812-4.4297 2.6719-7.7188 2.6719-3.3047 0-5.8867-0.89062-7.75-2.6719-1.8672-1.7812-2.7969-4.2383-2.7969-7.375 0-3.1445 0.92969-5.6094 2.7969-7.3906 1.8633-1.7812 4.4453-2.6719 7.75-2.6719z"/>
  </symbol>
  <symbol id="f" overflow="visible">
   <path d="m22.188-11.656v11.656h-6.1562v-8.9219c0-1.6562-0.039062-2.7969-0.10938-3.4219-0.074219-0.625-0.20312-1.082-0.39062-1.375-0.24219-0.40625-0.5625-0.71875-0.96875-0.9375s-0.875-0.32812-1.4062-0.32812c-1.2734 0-2.2734 0.49609-3 1.4844-0.73047 0.98047-1.0938 2.3398-1.0938 4.0781v9.4219h-6.125v-19.141h6.125v2.7969c0.91406-1.1133 1.8906-1.9375 2.9219-2.4688 1.0391-0.53125 2.1914-0.79688 3.4531-0.79688 2.207 0 3.8828 0.68359 5.0312 2.0469 1.1445 1.3555 1.7188 3.3242 1.7188 5.9062z"/>
  </symbol>
  <symbol id="i" overflow="visible">
   <path d="m22.188-11.656v11.656h-6.1562v-8.8906c0-1.6758-0.039062-2.8281-0.10938-3.4531-0.074219-0.625-0.20312-1.082-0.39062-1.375-0.24219-0.40625-0.5625-0.71875-0.96875-0.9375s-0.875-0.32812-1.4062-0.32812c-1.2734 0-2.2734 0.49609-3 1.4844-0.73047 0.98047-1.0938 2.3398-1.0938 4.0781v9.4219h-6.125v-26.594h6.125v10.25c0.91406-1.1133 1.8906-1.9375 2.9219-2.4688 1.0391-0.53125 2.1914-0.79688 3.4531-0.79688 2.207 0 3.8828 0.68359 5.0312 2.0469 1.1445 1.3555 1.7188 3.3242 1.7188 5.9062z"/>
  </symbol>
  <symbol id="h" overflow="visible">
   <path d="m15.969-3.25c-0.84375 1.1172-1.7773 1.9375-2.7969 2.4688-1.0117 0.52344-2.1836 0.78125-3.5156 0.78125-2.3359 0-4.2656-0.91406-5.7969-2.75-1.5234-1.8438-2.2812-4.1914-2.2812-7.0469 0-2.8516 0.75781-5.1914 2.2812-7.0156 1.5312-1.832 3.4609-2.75 5.7969-2.75 1.332 0 2.5039 0.26172 3.5156 0.78125 1.0195 0.52344 1.9531 1.3516 2.7969 2.4844v-2.8438h6.1406v17.203c0 3.082-0.97656 5.4297-2.9219 7.0469-1.9375 1.625-4.75 2.4375-8.4375 2.4375-1.1992 0-2.3555-0.09375-3.4688-0.28125-1.1172-0.17969-2.2422-0.45312-3.375-0.82812v-4.7656c1.0703 0.61328 2.1172 1.0703 3.1406 1.375 1.0312 0.30078 2.0664 0.45312 3.1094 0.45312 2 0 3.4688-0.4375 4.4062-1.3125s1.4062-2.25 1.4062-4.125zm-4.0469-11.906c-1.2617 0-2.2461 0.46875-2.9531 1.4062-0.71094 0.92969-1.0625 2.2461-1.0625 3.9531 0 1.7617 0.34375 3.0938 1.0312 4s1.6797 1.3594 2.9844 1.3594c1.2812 0 2.2734-0.46875 2.9844-1.4062 0.70703-0.9375 1.0625-2.2539 1.0625-3.9531 0-1.707-0.35547-3.0234-1.0625-3.9531-0.71094-0.9375-1.7031-1.4062-2.9844-1.4062z"/>
  </symbol>
  <symbol id="r" overflow="visible">
   <path d="m15.531-26.594v4.0156h-3.375c-0.86719 0-1.4688 0.15625-1.8125 0.46875s-0.51562 0.85938-0.51562 1.6406v1.3281h5.2344v4.375h-5.2344v14.766h-6.125v-14.766h-3.0312v-4.375h3.0312v-1.3281c0-2.082 0.57812-3.625 1.7344-4.625 1.1641-1 2.9727-1.5 5.4219-1.5z"/>
  </symbol>
  <symbol id="q" overflow="visible">
   <path d="m20.672-15.969c0.78125-1.1758 1.7031-2.0781 2.7656-2.7031s2.2344-0.9375 3.5156-0.9375c2.1953 0 3.8672 0.68359 5.0156 2.0469 1.1562 1.3555 1.7344 3.3242 1.7344 5.9062v11.656h-6.1562v-9.9844c0.007813-0.14453 0.015625-0.29688 0.015625-0.45312 0.007812-0.16406 0.015625-0.39453 0.015625-0.6875 0-1.3516-0.19922-2.332-0.59375-2.9375-0.39844-0.61328-1.043-0.92188-1.9375-0.92188-1.1562 0-2.0547 0.48047-2.6875 1.4375-0.63672 0.96094-0.96484 2.3398-0.98438 4.1406v9.4062h-6.1406v-9.9844c0-2.1133-0.18359-3.4727-0.54688-4.0781-0.36719-0.61328-1.0156-0.92188-1.9531-0.92188-1.1797 0-2.0859 0.48438-2.7188 1.4531-0.63672 0.96094-0.95312 2.3281-0.95312 4.1094v9.4219h-6.1562v-19.141h6.1562v2.7969c0.75-1.082 1.6094-1.8945 2.5781-2.4375 0.97656-0.55078 2.0547-0.82812 3.2344-0.82812 1.3125 0 2.4727 0.32422 3.4844 0.96875 1.0195 0.63672 1.7891 1.5273 2.3125 2.6719z"/>
  </symbol>
  <symbol id="p" overflow="visible">
   <path d="m3.2188-25.516h7.3438l9.2812 17.5v-17.5h6.2344v25.516h-7.3438l-9.2812-17.5v17.5h-6.2344z"/>
  </symbol>
  <symbol id="o" overflow="visible">
   <path d="m2.7344-7.4531v-11.688h6.1562v1.9062c0 1.043-0.007813 2.3516-0.015625 3.9219-0.011719 1.5625-0.015625 2.6055-0.015625 3.125 0 1.543 0.035156 2.6523 0.10938 3.3281 0.082031 0.67969 0.21875 1.168 0.40625 1.4688 0.25781 0.40625 0.58594 0.71875 0.98438 0.9375 0.40625 0.21094 0.875 0.3125 1.4062 0.3125 1.2695 0 2.2695-0.48828 3-1.4688 0.72656-0.97656 1.0938-2.3359 1.0938-4.0781v-9.4531h6.125v19.141h-6.125v-2.7656c-0.92969 1.1172-1.9062 1.9375-2.9375 2.4688s-2.168 0.79688-3.4062 0.79688c-2.2109 0-3.8906-0.67578-5.0469-2.0312-1.1562-1.3633-1.7344-3.3359-1.7344-5.9219z"/>
  </symbol>
  <symbol id="n" overflow="visible">
   <path d="m3.2188-25.516h10.922c3.2383 0 5.7266 0.72656 7.4688 2.1719 1.7383 1.4375 2.6094 3.4922 2.6094 6.1562 0 2.6797-0.87109 4.7344-2.6094 6.1719-1.7422 1.4375-4.2305 2.1562-7.4688 2.1562h-4.3438v8.8594h-6.5781zm6.5781 4.7656v7.125h3.6406c1.2695 0 2.2539-0.30469 2.9531-0.92188 0.69531-0.625 1.0469-1.5039 1.0469-2.6406 0-1.1445-0.35156-2.0234-1.0469-2.6406-0.69922-0.61328-1.6836-0.92188-2.9531-0.92188z"/>
  </symbol>
  <symbol id="m" overflow="visible">
   <path d="m18.406-18.547v5c-0.83594-0.57031-1.6719-0.99219-2.5156-1.2656-0.83594-0.28125-1.6992-0.42188-2.5938-0.42188-1.7109 0-3.043 0.5-4 1.5-0.94922 1-1.4219 2.3984-1.4219 4.1875 0 1.7812 0.47266 3.1719 1.4219 4.1719 0.95703 1 2.2891 1.5 4 1.5 0.95703 0 1.8633-0.14062 2.7188-0.42188 0.86328-0.28906 1.6602-0.71875 2.3906-1.2812v5.0156c-0.96094 0.35547-1.9336 0.61719-2.9219 0.79688-0.98047 0.17578-1.9648 0.26562-2.9531 0.26562-3.4609 0-6.1641-0.88281-8.1094-2.6562-1.9492-1.7695-2.9219-4.2344-2.9219-7.3906s0.97266-5.6172 2.9219-7.3906c1.9453-1.7812 4.6484-2.6719 8.1094-2.6719 1 0 1.9844 0.089844 2.9531 0.26562 0.97656 0.17969 1.9531 0.44531 2.9219 0.79688z"/>
  </symbol>
 </defs>
 <g>
  <path d="m479.31 367.6c-2.7812-0.8125-5.707 0.72266-6.5547 3.4922-0.83984 2.7773 0.71875 5.707 3.4922 6.5547 36.395 11.102 58.121 27.051 58.121 42.664 0 27.891-69.617 57.75-173.25 57.75-103.63 0-173.25-29.859-173.25-57.75 0-12.75 14.785-26.051 40.566-36.488 2.6875-1.0859 3.9844-4.1484 2.8984-6.8359-1.0938-2.6914-4.1758-3.9844-6.8359-2.8984-30.832 12.488-47.129 28.473-47.129 46.223 0 38.273 80.711 68.25 183.75 68.25 103.04 0 183.75-29.977 183.75-68.25-0.003907-21.098-23.285-39.812-65.559-52.711z"/>
  <path d="m224.62 353.73c0.5 0.14453 0.99609 0.21094 1.4844 0.21094 2.2695 0 4.3633-1.4844 5.0312-3.7656 0.82031-2.7812-0.76562-5.6992-3.5469-6.5195-0.50391-0.15234-51.012-15.375-60.91-45.273-4-12.086-0.64453-25.387 9.9805-39.531 0.26562-0.34766 0.48438-0.73438 0.64844-1.1406 0.74609-1.7812 16.27-40.438-8.6328-78.387 8.1953 2.0078 16.031 4.9023 18 8.1055 1.5195 2.4727 4.7461 3.2422 7.2266 1.7188 2.4688-1.5195 3.2344-4.7539 1.7148-7.2227-6.8281-11.09-33.516-14.82-38.793-15.457-2.1953-0.22656-4.2734 0.85156-5.2852 2.7812-1.0117 1.9336-0.71875 4.293 0.73828 5.9219 30.508 34.238 17.574 72.617 15.559 77.953-12.477 16.859-16.215 33.203-11.113 48.578 11.648 35.109 65.609 51.352 67.898 52.027z"/>
  <path d="m545.96 267.15c-1.9336-0.86719-4.1758-0.5-5.7305 0.93359-11.82 10.941-32.395 25.828-41.035 24.586-0.019531 0-0.042969 0-0.0625-0.007813 11.801-20.984 61.477-117 7.6758-158.15-0.28516-0.1875-28.957-19.145-26.898-54.68 0.13672-2.3438-1.3047-4.4961-3.5195-5.2617-2.2148-0.76172-4.6836 0.03125-6.0234 1.9531-0.91016 1.293-22.051 31.98-12.129 57.09 1.0586 2.6953 4.1445 4.0234 6.8086 2.9492 2.6992-1.0625 4.0195-4.1133 2.9531-6.8125-4.0273-10.188-1.0742-22.293 2.7773-31.695 6.1133 29.27 29.113 44.484 29.988 45.039 51.535 39.43-12.262 147.02-12.914 148.1-1.0039 1.6758-1.0039 3.7656 0.007812 5.4336 2.1992 3.6172 5.6133 5.8438 9.8789 6.4453 11.484 1.5664 28.48-9.8242 39.496-18.609-8.7148 45.977-57.195 60.879-59.434 61.535-2.7773 0.82812-4.3672 3.7461-3.5469 6.5195 0.66797 2.2852 2.7617 3.7656 5.0312 3.7656 0.48438 0 0.98438-0.066406 1.4766-0.21094 0.66797-0.19922 66.816-20.336 68.285-84.016 0.054688-2.1094-1.1641-4.0469-3.0859-4.9102z"/>
  <path d="m211.38 182.82c0.99609 1.5898 2.707 2.4648 4.457 2.4648 0.94922 0 1.9141-0.25781 2.7773-0.80078 2.4609-1.5391 3.207-4.7734 1.668-7.2344-0.15234-0.23828-14.793-24.512 14.383-53.062 0.66406-0.79688 16.125-19.777 13.168-38.336-0.054687-0.33984-0.11719-0.66797-0.17578-1.0039 13.496 9.3438 28.535 25.059 23.961 47.047-0.58984 2.8398 1.2305 5.6211 4.0742 6.2109 2.7891 0.59766 5.6211-1.2305 6.207-4.0703 7.7461-37.254-28.949-61.594-49.438-69.262-2.5039-0.94141-5.3477 0.17188-6.543 2.582-1.1953 2.4102-0.375 5.3359 1.9023 6.7734 5.6133 3.543 8.7617 7.9102 9.6367 13.352 2.2227 13.742-10.555 29.613-10.508 29.609v-0.003906c-34.777 33.984-15.766 65.418-15.57 65.734z"/>
  <path d="m357.81 120.09c2.8008-0.74609 4.4727-3.6211 3.7266-6.4219-0.019531-0.070312-1.8477-7.6719 3.1836-13.871 4.1016-5.0469 11.801-8.1094 22.574-9.0547-2.7148 3.3945-4.9336 7.4609-5.2422 11.898-0.26172 3.5977 0.64844 8.9102 6.418 13.82 0.23047 0.19531 0.48047 0.37109 0.73828 0.52734 14.48 8.5195 42.371 30.121 36.184 42.48-1.3008 2.5898-0.24609 5.7461 2.3438 7.043 0.75781 0.375 1.5586 0.55469 2.3438 0.55469 1.9258 0 3.7812-1.0625 4.7031-2.9023 11.941-23.871-32.75-51.758-39.82-55.973-2.332-2.1055-2.5156-3.7383-2.4414-4.8008 0.33984-4.9883 7.8633-11.32 11.441-13.605 1.9258-1.2266 2.8438-3.5586 2.2617-5.7656-0.58203-2.207-2.5156-3.7891-4.8008-3.9102-21.773-1.1523-36.879 3.2461-44.855 13.066-8.4414 10.398-5.3164 22.664-5.1836 23.184 0.75391 2.8047 3.625 4.4766 6.4258 3.7305z"/>
  <path d="m308.13 281.18c0-2.8984-2.3516-5.25-5.25-5.25h-16.832c-2.8984 0-5.25 2.3516-5.25 5.25 0 2.8984 2.3516 5.25 5.25 5.25h11.582v7.4688c0 2.8984 2.3516 5.25 5.25 5.25 2.8984 0 5.25-2.3516 5.25-5.25z"/>
  <path d="m344.58 281.18c0-2.8984-2.3516-5.25-5.25-5.25h-16.832c-2.8984 0-5.25 2.3516-5.25 5.25 0 2.8984 2.3516 5.25 5.25 5.25h11.582v7.4688c0 2.8984 2.3516 5.25 5.25 5.25s5.25-2.3516 5.25-5.25z"/>
  <path d="m308.13 312.66c0-2.8984-2.3516-5.25-5.25-5.25h-16.832c-2.8984 0-5.25 2.3516-5.25 5.25 0 2.8984 2.3516 5.25 5.25 5.25h11.582v7.4648c0 2.8984 2.3516 5.25 5.25 5.25 2.8984 0 5.25-2.3516 5.25-5.25z"/>
  <path d="m339.33 362.11c2.8984 0 5.25-2.3516 5.25-5.25v-12.723c0-2.8984-2.3516-5.25-5.25-5.25h-16.832c-2.8984 0-5.25 2.3516-5.25 5.25s2.3516 5.25 5.25 5.25h11.582v7.4727c0 2.8984 2.3516 5.25 5.25 5.25z"/>
  <path d="m302.88 393.59c2.8984 0 5.25-2.3516 5.25-5.25v-12.723c0-2.8984-2.3516-5.25-5.25-5.25h-16.832c-2.8984 0-5.25 2.3516-5.25 5.25 0 2.8984 2.3516 5.25 5.25 5.25h11.582v7.4727c0 2.8984 2.3516 5.25 5.25 5.25z"/>
  <path d="m448.05 219.51c0-2.8984-2.3516-5.25-5.25-5.25h-62.488c-2.8984 0-5.25 2.3516-5.25 5.25 0 2.8984 2.3516 5.25 5.25 5.25h57.238v2.9688c0 2.8984 2.3516 5.25 5.25 5.25s5.25-2.3516 5.25-5.25z"/>
  <path d="m448.05 248.56c0-2.8984-2.3516-5.25-5.25-5.25h-62.488c-2.8984 0-5.25 2.3516-5.25 5.25s2.3516 5.25 5.25 5.25h57.238v2.9688c0 2.8984 2.3516 5.25 5.25 5.25s5.25-2.3516 5.25-5.25z"/>
  <path d="m448.05 306.66c0-2.8984-2.3516-5.25-5.25-5.25h-62.488c-2.8984 0-5.25 2.3516-5.25 5.25 0 2.8984 2.3516 5.25 5.25 5.25h57.238v2.9648c0 2.8984 2.3516 5.25 5.25 5.25s5.25-2.3516 5.25-5.25z"/>
  <path d="m442.8 378.23c2.8984 0 5.25-2.3516 5.25-5.25v-8.2227c0-2.8984-2.3516-5.25-5.25-5.25h-62.488c-2.8984 0-5.25 2.3516-5.25 5.25 0 2.8984 2.3516 5.25 5.25 5.25h57.238v2.9727c0 2.8984 2.3516 5.25 5.25 5.25z"/>
  <path d="m237.04 171v198.69c0 2.8984 2.3516 5.25 5.25 5.25 2.8984 0 5.25-2.3516 5.25-5.25v-194.91l78.129-26.043v69.207l-62.719 33.801c-1.7031 0.91797-2.7617 2.6914-2.7617 4.6211v160.57c0 2.8984 2.3516 5.25 5.25 5.25 2.8984 0 5.25-2.3516 5.25-5.25v-157.43l87.207-46.992v204.43c0 2.8984 2.3516 5.25 5.25 5.25s5.25-2.3516 5.25-5.25l-0.003906-213.22v-39.07l87.215 42.359v209.93c0 2.8984 2.3516 5.25 5.25 5.25 2.8984 0 5.25-2.3516 5.25-5.25v-213.22c0-2.0117-1.1484-3.8438-2.9531-4.7227l-97.715-47.457c-1.6328-0.78516-3.543-0.68359-5.0859 0.27344-1.5312 0.96094-2.4609 2.6406-2.4609 4.4492v44.324l-21.723 11.707v-67.051l5.2695-1.7578c2.7461-0.91797 4.2383-3.8906 3.3242-6.6406-0.92187-2.7461-3.8633-4.2539-6.6445-3.3203l-97.488 32.5c-2.1406 0.71484-3.5898 2.7188-3.5898 4.9805z"/>
  <path d="m314.29 197.92c2.8984 0 5.25-2.3516 5.25-5.25v-5.6328c0-2.8984-2.3516-5.25-5.25-5.25h-48.855c-2.8984 0-5.25 2.3516-5.25 5.25 0 2.8984 2.3516 5.25 5.25 5.25h43.605v0.38281c0 2.8984 2.3516 5.25 5.25 5.25z"/>
  <use x="70" y="665" xlink:href="#s"/>
  <use x="95.6875" y="665" xlink:href="#e"/>
  <use x="112.945312" y="665" xlink:href="#c"/>
  <use x="136.683594" y="665" xlink:href="#a"/>
  <use x="160.304688" y="665" xlink:href="#b"/>
  <use x="177.035156" y="665" xlink:href="#c"/>
  <use x="200.773438" y="665" xlink:href="#l"/>
  <use x="238.011719" y="665" xlink:href="#k"/>
  <use x="263.0625" y="665" xlink:href="#j"/>
  <use x="298.0625" y="665" xlink:href="#g"/>
  <use x="310.0625" y="665" xlink:href="#d"/>
  <use x="334.105469" y="665" xlink:href="#f"/>
  <use x="359.023438" y="665" xlink:href="#a"/>
  <use x="382.640625" y="665" xlink:href="#b"/>
  <use x="399.371094" y="665" xlink:href="#a"/>
  <use x="435.175781" y="665" xlink:href="#i"/>
  <use x="460.09375" y="665" xlink:href="#a"/>
  <use x="483.710938" y="665" xlink:href="#f"/>
  <use x="508.628906" y="665" xlink:href="#h"/>
  <use x="533.679688" y="665" xlink:href="#h"/>
  <use x="558.734375" y="665" xlink:href="#a"/>
  <use x="70" y="700" xlink:href="#r"/>
  <use x="85.226562" y="700" xlink:href="#e"/>
  <use x="102.488281" y="700" xlink:href="#d"/>
  <use x="126.53125" y="700" xlink:href="#q"/>
  <use x="175.1875" y="700" xlink:href="#b"/>
  <use x="191.917969" y="700" xlink:href="#i"/>
  <use x="216.835938" y="700" xlink:href="#c"/>
  <use x="252.757812" y="700" xlink:href="#p"/>
  <use x="282.050781" y="700" xlink:href="#d"/>
  <use x="306.097656" y="700" xlink:href="#o"/>
  <use x="331.011719" y="700" xlink:href="#f"/>
  <use x="368.117188" y="700" xlink:href="#n"/>
  <use x="393.765625" y="700" xlink:href="#e"/>
  <use x="411.027344" y="700" xlink:href="#d"/>
  <use x="435.074219" y="700" xlink:href="#g"/>
  <use x="447.070312" y="700" xlink:href="#c"/>
  <use x="470.808594" y="700" xlink:href="#m"/>
  <use x="491.554687" y="700" xlink:href="#b"/>
 </g>
</svg>
