<?xml version="1.0" encoding="UTF-8"?>
<svg width="700pt" height="700pt" version="1.1" viewBox="0 0 700 700" xmlns="http://www.w3.org/2000/svg" xmlns:xlink="http://www.w3.org/1999/xlink">
 <defs>
  <symbol id="u" overflow="visible">
   <path d="m18.766-1.125c-0.96875 0.5-1.9805 0.875-3.0312 1.125-1.043 0.25781-2.1367 0.39062-3.2812 0.39062-3.3984 0-6.0898-0.94531-8.0781-2.8438-1.9922-1.9062-2.9844-4.4844-2.9844-7.7344 0-3.2578 0.99219-5.8359 2.9844-7.7344 1.9883-1.9062 4.6797-2.8594 8.0781-2.8594 1.1445 0 2.2383 0.13281 3.2812 0.39062 1.0508 0.25 2.0625 0.625 3.0312 1.125v4.2188c-0.98047-0.65625-1.9453-1.1406-2.8906-1.4531-0.94922-0.3125-1.9492-0.46875-3-0.46875-1.875 0-3.3516 0.60547-4.4219 1.8125-1.0742 1.1992-1.6094 2.8555-1.6094 4.9688 0 2.1055 0.53516 3.7617 1.6094 4.9688 1.0703 1.1992 2.5469 1.7969 4.4219 1.7969 1.0508 0 2.0508-0.14844 3-0.45312 0.94531-0.3125 1.9102-0.80078 2.8906-1.4688z"/>
  </symbol>
  <symbol id="b" overflow="visible">
   <path d="m13.734-11.141c-0.4375-0.19531-0.87109-0.34375-1.2969-0.4375-0.41797-0.10156-0.83984-0.15625-1.2656-0.15625-1.2617 0-2.2305 0.40625-2.9062 1.2188-0.67969 0.80469-1.0156 1.9531-1.0156 3.4531v7.0625h-4.8906v-15.312h4.8906v2.5156c0.625-1 1.3438-1.7266 2.1562-2.1875 0.82031-0.46875 1.8008-0.70312 2.9375-0.70312 0.16406 0 0.34375 0.011719 0.53125 0.03125 0.19531 0.011719 0.47656 0.039062 0.84375 0.078125z"/>
  </symbol>
  <symbol id="a" overflow="visible">
   <path d="m17.641-7.7031v1.4062h-11.453c0.125 1.1484 0.53906 2.0078 1.25 2.5781 0.70703 0.57422 1.7031 0.85938 2.9844 0.85938 1.0312 0 2.082-0.14844 3.1562-0.45312 1.082-0.3125 2.1914-0.77344 3.3281-1.3906v3.7656c-1.1562 0.4375-2.3125 0.76562-3.4688 0.98438-1.1562 0.22656-2.3125 0.34375-3.4688 0.34375-2.7734 0-4.9297-0.70312-6.4688-2.1094-1.5312-1.4062-2.2969-3.3789-2.2969-5.9219 0-2.5 0.75391-4.4609 2.2656-5.8906 1.5078-1.4375 3.582-2.1562 6.2188-2.1562 2.4062 0 4.332 0.73047 5.7812 2.1875 1.4453 1.4492 2.1719 3.3828 2.1719 5.7969zm-5.0312-1.625c0-0.92578-0.27344-1.6719-0.8125-2.2344-0.54297-0.57031-1.25-0.85938-2.125-0.85938-0.94922 0-1.7188 0.26562-2.3125 0.79688s-0.96484 1.2969-1.1094 2.2969z"/>
  </symbol>
  <symbol id="e" overflow="visible">
   <path d="m9.2188-6.8906c-1.0234 0-1.793 0.17188-2.3125 0.51562-0.51172 0.34375-0.76562 0.85547-0.76562 1.5312 0 0.625 0.20703 1.1172 0.625 1.4688 0.41406 0.34375 0.98828 0.51562 1.7188 0.51562 0.92578 0 1.7031-0.32812 2.3281-0.98438 0.63281-0.66406 0.95312-1.4922 0.95312-2.4844v-0.5625zm7.4688-1.8438v8.7344h-4.9219v-2.2656c-0.65625 0.92969-1.3984 1.6055-2.2188 2.0312-0.82422 0.41406-1.8242 0.625-3 0.625-1.5859 0-2.8711-0.45703-3.8594-1.375-0.99219-0.92578-1.4844-2.1289-1.4844-3.6094 0-1.7891 0.61328-3.1016 1.8438-3.9375 1.2383-0.84375 3.1797-1.2656 5.8281-1.2656h2.8906v-0.39062c0-0.76953-0.30859-1.332-0.92188-1.6875-0.61719-0.36328-1.5703-0.54688-2.8594-0.54688-1.0547 0-2.0312 0.10547-2.9375 0.3125-0.89844 0.21094-1.7305 0.52344-2.5 0.9375v-3.7344c1.0391-0.25 2.0859-0.44141 3.1406-0.57812 1.0625-0.13281 2.125-0.20312 3.1875-0.20312 2.7578 0 4.75 0.54688 5.9688 1.6406 1.2266 1.0859 1.8438 2.8555 1.8438 5.3125z"/>
  </symbol>
  <symbol id="c" overflow="visible">
   <path d="m7.7031-19.656v4.3438h5.0469v3.5h-5.0469v6.5c0 0.71094 0.14062 1.1875 0.42188 1.4375s0.83594 0.375 1.6719 0.375h2.5156v3.5h-4.1875c-1.9375 0-3.3125-0.39844-4.125-1.2031-0.80469-0.8125-1.2031-2.1797-1.2031-4.1094v-6.5h-2.4219v-3.5h2.4219v-4.3438z"/>
  </symbol>
  <symbol id="l" overflow="visible">
   <path d="m12.766-13.078v-8.2031h4.9219v21.281h-4.9219v-2.2188c-0.66797 0.90625-1.4062 1.5703-2.2188 1.9844s-1.7578 0.625-2.8281 0.625c-1.8867 0-3.4336-0.75-4.6406-2.25-1.2109-1.5-1.8125-3.4258-1.8125-5.7812 0-2.3633 0.60156-4.2969 1.8125-5.7969 1.207-1.5 2.7539-2.25 4.6406-2.25 1.0625 0 2 0.21484 2.8125 0.64062 0.82031 0.42969 1.5664 1.0859 2.2344 1.9688zm-3.2188 9.9219c1.0391 0 1.8359-0.37891 2.3906-1.1406 0.55078-0.76953 0.82812-1.8828 0.82812-3.3438 0-1.457-0.27734-2.5664-0.82812-3.3281-0.55469-0.76953-1.3516-1.1562-2.3906-1.1562-1.043 0-1.8398 0.38672-2.3906 1.1562-0.55469 0.76172-0.82812 1.8711-0.82812 3.3281 0 1.4609 0.27344 2.5742 0.82812 3.3438 0.55078 0.76172 1.3477 1.1406 2.3906 1.1406z"/>
  </symbol>
  <symbol id="k" overflow="visible">
   <path d="m10.5-3.1562c1.0508 0 1.8516-0.37891 2.4062-1.1406 0.55078-0.76953 0.82812-1.8828 0.82812-3.3438 0-1.457-0.27734-2.5664-0.82812-3.3281-0.55469-0.76953-1.3555-1.1562-2.4062-1.1562-1.0547 0-1.8594 0.38672-2.4219 1.1562-0.55469 0.77344-0.82812 1.8828-0.82812 3.3281 0 1.4492 0.27344 2.5586 0.82812 3.3281 0.5625 0.77344 1.3672 1.1562 2.4219 1.1562zm-3.25-9.9219c0.67578-0.88281 1.4219-1.5391 2.2344-1.9688 0.82031-0.42578 1.7656-0.64062 2.8281-0.64062 1.8945 0 3.4453 0.75 4.6562 2.25 1.207 1.5 1.8125 3.4336 1.8125 5.7969 0 2.3555-0.60547 4.2812-1.8125 5.7812-1.2109 1.5-2.7617 2.25-4.6562 2.25-1.0625 0-2.0078-0.21094-2.8281-0.625-0.8125-0.42578-1.5586-1.0859-2.2344-1.9844v2.2188h-4.8906v-21.281h4.8906z"/>
  </symbol>
  <symbol id="j" overflow="visible">
   <path d="m0.34375-15.312h4.8906l4.125 10.391 3.5-10.391h4.8906l-6.4375 16.766c-0.64844 1.6953-1.4023 2.8828-2.2656 3.5625-0.86719 0.6875-2 1.0312-3.4062 1.0312h-2.8438v-3.2188h1.5312c0.83203 0 1.4375-0.13672 1.8125-0.40625 0.38281-0.26172 0.67969-0.73047 0.89062-1.4062l0.14062-0.42188z"/>
  </symbol>
  <symbol id="i" overflow="visible">
   <path d="m11.891-16.969c-1.6055 0-2.8516 0.59375-3.7344 1.7812-0.875 1.1875-1.3125 2.8555-1.3125 5 0 2.1484 0.4375 3.8125 1.3125 5 0.88281 1.1797 2.1289 1.7656 3.7344 1.7656 1.6133 0 2.8633-0.58594 3.75-1.7656 0.88281-1.1875 1.3281-2.8516 1.3281-5 0-2.1445-0.44531-3.8125-1.3281-5-0.88672-1.1875-2.1367-1.7812-3.75-1.7812zm0-3.8125c3.2812 0 5.8477 0.9375 7.7031 2.8125 1.8633 1.875 2.7969 4.4688 2.7969 7.7812 0 3.3047-0.93359 5.8906-2.7969 7.7656-1.8555 1.875-4.4219 2.8125-7.7031 2.8125-3.2734 0-5.8398-0.9375-7.7031-2.8125-1.8672-1.875-2.7969-4.4609-2.7969-7.7656 0-3.3125 0.92969-5.9062 2.7969-7.7812 1.8633-1.875 4.4297-2.8125 7.7031-2.8125z"/>
  </symbol>
  <symbol id="h" overflow="visible">
   <path d="m17.75-9.3281v9.3281h-4.9219v-7.1406c0-1.3203-0.03125-2.2344-0.09375-2.7344s-0.16797-0.86719-0.3125-1.1094c-0.1875-0.3125-0.44922-0.55469-0.78125-0.73438-0.32422-0.17578-0.69531-0.26562-1.1094-0.26562-1.0234 0-1.8242 0.39844-2.4062 1.1875-0.58594 0.78125-0.875 1.8711-0.875 3.2656v7.5312h-4.8906v-15.312h4.8906v2.2344c0.73828-0.88281 1.5195-1.5391 2.3438-1.9688 0.83203-0.42578 1.75-0.64062 2.75-0.64062 1.7695 0 3.1133 0.54688 4.0312 1.6406 0.91406 1.0859 1.375 2.6562 1.375 4.7188z"/>
  </symbol>
  <symbol id="g" overflow="visible">
   <path d="m2.5781-20.406h8.7344c2.5938 0 4.582 0.57812 5.9688 1.7344 1.3945 1.1484 2.0938 2.7891 2.0938 4.9219 0 2.1367-0.69922 3.7812-2.0938 4.9375-1.3867 1.1562-3.375 1.7344-5.9688 1.7344h-3.4844v7.0781h-5.25zm5.25 3.8125v5.7031h2.9219c1.0195 0 1.8047-0.25 2.3594-0.75 0.5625-0.5 0.84375-1.2031 0.84375-2.1094 0-0.91406-0.28125-1.6172-0.84375-2.1094-0.55469-0.48828-1.3398-0.73438-2.3594-0.73438z"/>
  </symbol>
  <symbol id="t" overflow="visible">
   <path d="m2.3594-21.281h4.8906v21.281h-4.8906z"/>
  </symbol>
  <symbol id="s" overflow="visible">
   <path d="m14.312-14.828v3.7188c-1.043-0.4375-2.0547-0.76562-3.0312-0.98438-0.98047-0.21875-1.9023-0.32812-2.7656-0.32812-0.92969 0-1.6211 0.11719-2.0781 0.34375-0.44922 0.23047-0.67188 0.58984-0.67188 1.0781 0 0.38672 0.17188 0.68359 0.51562 0.89062 0.34375 0.21094 0.95703 0.36719 1.8438 0.46875l0.85938 0.125c2.5078 0.32422 4.1953 0.85156 5.0625 1.5781 0.86328 0.73047 1.2969 1.8711 1.2969 3.4219 0 1.6367-0.60547 2.8672-1.8125 3.6875-1.1992 0.8125-2.9922 1.2188-5.375 1.2188-1.0234 0-2.0742-0.078125-3.1562-0.23438-1.0742-0.15625-2.1797-0.39453-3.3125-0.71875v-3.7188c0.96875 0.48047 1.9609 0.83984 2.9844 1.0781 1.0312 0.23047 2.0781 0.34375 3.1406 0.34375 0.95703 0 1.6758-0.12891 2.1562-0.39062 0.47656-0.26953 0.71875-0.66406 0.71875-1.1875 0-0.4375-0.16797-0.75781-0.5-0.96875-0.33594-0.21875-0.99609-0.38281-1.9844-0.5l-0.85938-0.10938c-2.1797-0.26953-3.7031-0.77344-4.5781-1.5156-0.875-0.73828-1.3125-1.8594-1.3125-3.3594 0-1.625 0.55078-2.8281 1.6562-3.6094 1.1133-0.78906 2.8203-1.1875 5.125-1.1875 0.89453 0 1.8359 0.074219 2.8281 0.21875 1 0.13672 2.082 0.35156 3.25 0.64062z"/>
  </symbol>
  <symbol id="f" overflow="visible">
   <path d="m2.1875-5.9688v-9.3438h4.9219v1.5312c0 0.83594-0.007813 1.875-0.015625 3.125-0.011719 1.25-0.015625 2.0859-0.015625 2.5 0 1.2422 0.03125 2.1328 0.09375 2.6719 0.070313 0.54297 0.17969 0.93359 0.32812 1.1719 0.20703 0.32422 0.47266 0.57422 0.79688 0.75 0.32031 0.16797 0.69141 0.25 1.1094 0.25 1.0195 0 1.8203-0.39062 2.4062-1.1719 0.58203-0.78125 0.875-1.8672 0.875-3.2656v-7.5625h4.8906v15.312h-4.8906v-2.2188c-0.74219 0.89844-1.5234 1.5586-2.3438 1.9844-0.82422 0.41406-1.7344 0.625-2.7344 0.625-1.7617 0-3.1055-0.53906-4.0312-1.625-0.92969-1.082-1.3906-2.6602-1.3906-4.7344z"/>
  </symbol>
  <symbol id="r" overflow="visible">
   <path d="m12.422-21.281v3.2188h-2.7031c-0.6875 0-1.1719 0.125-1.4531 0.375-0.27344 0.25-0.40625 0.6875-0.40625 1.3125v1.0625h4.1875v3.5h-4.1875v11.812h-4.8906v-11.812h-2.4375v-3.5h2.4375v-1.0625c0-1.6641 0.46094-2.8984 1.3906-3.7031 0.92578-0.80078 2.3672-1.2031 4.3281-1.2031z"/>
  </symbol>
  <symbol id="d" overflow="visible">
   <path d="m9.6406-12.188c-1.0859 0-1.9141 0.39062-2.4844 1.1719-0.57422 0.78125-0.85938 1.9062-0.85938 3.375s0.28516 2.5938 0.85938 3.375c0.57031 0.77344 1.3984 1.1562 2.4844 1.1562 1.0625 0 1.875-0.38281 2.4375-1.1562 0.57031-0.78125 0.85938-1.9062 0.85938-3.375s-0.28906-2.5938-0.85938-3.375c-0.5625-0.78125-1.375-1.1719-2.4375-1.1719zm0-3.5c2.6328 0 4.6914 0.71484 6.1719 2.1406 1.4766 1.418 2.2188 3.3867 2.2188 5.9062 0 2.5117-0.74219 4.4805-2.2188 5.9062-1.4805 1.418-3.5391 2.125-6.1719 2.125-2.6484 0-4.7148-0.70703-6.2031-2.125-1.4922-1.4258-2.2344-3.3945-2.2344-5.9062 0-2.5195 0.74219-4.4883 2.2344-5.9062 1.4883-1.4258 3.5547-2.1406 6.2031-2.1406z"/>
  </symbol>
  <symbol id="q" overflow="visible">
   <path d="m16.547-12.766c0.61328-0.94531 1.3477-1.6719 2.2031-2.1719 0.85156-0.5 1.7891-0.75 2.8125-0.75 1.7578 0 3.0977 0.54688 4.0156 1.6406 0.92578 1.0859 1.3906 2.6562 1.3906 4.7188v9.3281h-4.9219v-7.9844-0.35938c0.007813-0.13281 0.015625-0.32031 0.015625-0.5625 0-1.082-0.16406-1.8633-0.48438-2.3438-0.3125-0.48828-0.82422-0.73438-1.5312-0.73438-0.92969 0-1.6484 0.38672-2.1562 1.1562-0.51172 0.76172-0.77344 1.8672-0.78125 3.3125v7.5156h-4.9219v-7.9844c0-1.6953-0.14844-2.7852-0.4375-3.2656-0.29297-0.48828-0.8125-0.73438-1.5625-0.73438-0.9375 0-1.6641 0.38672-2.1719 1.1562-0.51172 0.76172-0.76562 1.8594-0.76562 3.2969v7.5312h-4.9219v-15.312h4.9219v2.2344c0.60156-0.86328 1.2891-1.5156 2.0625-1.9531 0.78125-0.4375 1.6406-0.65625 2.5781-0.65625 1.0625 0 2 0.25781 2.8125 0.76562 0.8125 0.51172 1.4258 1.2305 1.8438 2.1562z"/>
  </symbol>
  <symbol id="p" overflow="visible">
   <path d="m17.75-9.3281v9.3281h-4.9219v-7.1094c0-1.3438-0.03125-2.2656-0.09375-2.7656s-0.16797-0.86719-0.3125-1.1094c-0.1875-0.3125-0.44922-0.55469-0.78125-0.73438-0.32422-0.17578-0.69531-0.26562-1.1094-0.26562-1.0234 0-1.8242 0.39844-2.4062 1.1875-0.58594 0.78125-0.875 1.8711-0.875 3.2656v7.5312h-4.8906v-21.281h4.8906v8.2031c0.73828-0.88281 1.5195-1.5391 2.3438-1.9688 0.83203-0.42578 1.75-0.64062 2.75-0.64062 1.7695 0 3.1133 0.54688 4.0312 1.6406 0.91406 1.0859 1.375 2.6562 1.375 4.7188z"/>
  </symbol>
  <symbol id="o" overflow="visible">
   <path d="m2.5781-20.406h5.875l7.4219 14v-14h4.9844v20.406h-5.875l-7.4219-14v14h-4.9844z"/>
  </symbol>
  <symbol id="n" overflow="visible">
   <path d="m2.3594-15.312h4.8906v15.031c0 2.0508-0.49609 3.6172-1.4844 4.7031-0.98047 1.082-2.4062 1.625-4.2812 1.625h-2.4219v-3.2188h0.85938c0.92578 0 1.5625-0.21094 1.9062-0.625 0.35156-0.41797 0.53125-1.2461 0.53125-2.4844zm0-5.9688h4.8906v4h-4.8906z"/>
  </symbol>
  <symbol id="m" overflow="visible">
   <path d="m14.719-14.828v3.9844c-0.65625-0.45703-1.3242-0.79688-2-1.0156-0.66797-0.21875-1.3594-0.32812-2.0781-0.32812-1.3672 0-2.4336 0.40234-3.2031 1.2031-0.76172 0.79297-1.1406 1.9062-1.1406 3.3438 0 1.4297 0.37891 2.543 1.1406 3.3438 0.76953 0.79297 1.8359 1.1875 3.2031 1.1875 0.75781 0 1.4844-0.10938 2.1719-0.32812 0.6875-0.22656 1.3203-0.56641 1.9062-1.0156v4c-0.76172 0.28125-1.5391 0.48828-2.3281 0.625-0.78125 0.14453-1.5742 0.21875-2.375 0.21875-2.7617 0-4.9219-0.70703-6.4844-2.125-1.5547-1.4141-2.3281-3.3828-2.3281-5.9062 0-2.5312 0.77344-4.5039 2.3281-5.9219 1.5625-1.4141 3.7227-2.125 6.4844-2.125 0.80078 0 1.5938 0.074219 2.375 0.21875 0.78125 0.13672 1.5547 0.35156 2.3281 0.64062z"/>
  </symbol>
 </defs>
 <g>
  <path d="m588 477.26h-27.004c-20.199-21.75-75.008-83.934-85.062-128.65v-0.003906c-0.86328-3.832-4.2695-6.5586-8.1992-6.5547h-56.965c-3.9297 0-7.3359 2.7266-8.1953 6.5625-2.8672 11.34-7.1953 22.258-12.883 32.48-1.1133 1.9766-1.3789 4.3164-0.74219 6.4922 0.64062 2.1758 2.1328 4.0039 4.1406 5.0625 2.0039 1.0586 4.3516 1.2617 6.5117 0.5625 2.1562-0.70312 3.9414-2.2422 4.9414-4.2773 5.2148-9.5938 9.4648-19.68 12.695-30.113h43.996c2.7773 8.957 6.3359 17.648 10.637 25.98-4.4805 4.3242-8.6758 12.117-8.4375 26.23 0.18359 4.207 0.12109 8.4219-0.19141 12.621-0.039063 1.2656-1.0273 2.293-2.2891 2.3789-1.168 0.32422-2.3789-0.33594-2.7383-1.4922-3.4375-9.3359-5.6797-19.07-6.6719-28.969-0.31641-3.0195-1.4258-5.8984-3.2148-8.3477-1.7891-2.4492-4.1953-4.3789-6.9766-5.5977-7.7266-3.1797-19.254-2.1719-30.301 20.719-1.7539 4.1289 0.046875 8.9062 4.0898 10.852 4.0391 1.9453 8.8945 0.375 11.031-3.5703 1.7305-4.7812 4.7188-9.0117 8.6445-12.242 0 0.0625 0 0.12891 0.039063 0.20703 1.168 11.363 3.7773 22.535 7.7734 33.238 1.3945 3.5625 3.8359 6.6172 7.0039 8.7656 3.168 2.1484 6.9102 3.2891 10.738 3.2656 1.0508 0 2.0977-0.082031 3.1367-0.23828 4.3438-0.60547 8.3477-2.6797 11.348-5.8789 2.9961-3.1992 4.8047-7.332 5.125-11.707 0.375-4.8438 0.44922-9.707 0.23047-14.559-0.10938-2.9844 0.19531-5.9727 0.91406-8.8711 16.766 26.867 35.898 52.188 57.168 75.652h-81.086c-16.496-17.695-111.44-121.98-127.17-194.61-0.83594-3.8633-4.2539-6.6211-8.207-6.6211h-78.078c-3.9492 0.003906-7.3633 2.7578-8.2031 6.6211-17.188 79.184-128.49 196-129.61 197.19-2.3281 2.4297-2.9805 6.0156-1.6602 9.1094 1.3203 3.0938 4.3594 5.1016 7.7266 5.1016h476c4.6406 0 8.3984-3.7578 8.3984-8.3984s-3.7578-8.3984-8.3984-8.3984zm-337.64-184.43h64.867c3.2695 11.598 7.5195 22.895 12.707 33.766-3.6953 1.418-7.0156 3.6602-9.7148 6.5547-10.457 11.469-8.625 29.512-8.3984 31.121 0.27344 3.8711 0.63672 7.6719 0.98438 11.324v-0.003906c1.207 7.4922 1.3477 15.117 0.42578 22.652-1.125 3.9961-4.8008 6.7383-8.9531 6.6719-4.1523-0.0625-7.7383-2.918-8.7383-6.9453-1.6016-7.4766-2.6055-15.07-2.9961-22.703-0.019531-0.55078-0.097656-1.0938-0.22266-1.6289-3.6914-15.551-9.6094-33.48-22.715-34.16-12.426-0.77344-19.938 15.535-22.625 23.055-4.2461 8.7539-10.98 19.156-19.324 20.027v-0.003906c-5.8789-0.1875-11.441-2.6992-15.469-6.9805 17.785-27.523 33.137-56.488 40.172-82.746zm-119.18 184.43c24.977-27.711 48.207-56.945 69.551-87.539 7.1875 6.6445 16.758 10.102 26.535 9.5742 13.055-1.3086 24.164-11.367 33.039-29.887 0.13281-0.27344 0.25391-0.55859 0.35937-0.85156 1.3945-4.0664 3.418-7.8906 5.9961-11.328 3.4727 6.0547 5.8828 12.66 7.1172 19.531 0.46094 8.3789 1.5859 16.703 3.3594 24.902 1.2266 5.6484 4.3398 10.711 8.8242 14.355 4.4844 3.6406 10.078 5.6484 15.855 5.6875h0.58203c5.7031 0.070313 11.266-1.7656 15.801-5.2227 4.5352-3.4531 7.7812-8.3281 9.2266-13.844 1.6211-9.4727 1.6445-19.152 0.074219-28.633-0.33594-3.5234-0.6875-7.1797-0.98047-11.289-0.82031-6.3867 0.64453-12.859 4.1367-18.27 1.2656-1.3828 2.9336-2.3359 4.7656-2.7188 28.895 54.582 76.074 110.08 98.969 135.52z"/>
  <path d="m341.72 229.25c-2.8633 4.2344-6.9766 7.4648-11.77 9.2383-4.7891 1.7773-10.016 2.0078-14.945 0.66406-4.4844-1.2188-9.1055 1.4258-10.328 5.9102-1.2188 4.4844 1.4258 9.1094 5.9102 10.328 3.5508 0.96094 7.2109 1.4492 10.887 1.4531 11.723-0.015625 22.879-5.0391 30.668-13.801 11.52 2.3594 23.504-0.042968 33.23-6.6562 9.7227-6.6133 16.363-16.875 18.402-28.457 2.043-11.582-0.68359-23.496-7.5625-33.039-6.875-9.5391-17.32-15.891-28.953-17.617 1.6406-15.828-3.2188-31.645-13.461-43.824-10.242-12.176-24.992-19.676-40.867-20.777-15.875-1.1016-31.516 4.293-43.34 14.941-15.543-5.2031-32.637-2.7031-46.039 6.7305-13.406 9.4336-21.527 24.68-21.879 41.066-1.625-0.19141-3.2578-0.28906-4.8945-0.29297-11.879-0.039062-23.211 4.9805-31.164 13.805s-11.773 20.617-10.504 32.426c1.2695 11.812 7.5117 22.523 17.156 29.453 9.6484 6.9297 21.789 9.4258 33.391 6.8633 4.6641 7.2969 11.477 12.969 19.5 16.238 8.0234 3.2656 16.863 3.9648 25.297 2 4.4531-1.1094 7.1953-5.582 6.1562-10.051-1.0352-4.4688-5.4688-7.2812-9.9531-6.3125-8.3203 1.9219-17.047-0.5-23.188-6.4375-6.1367-5.9375-8.8555-14.578-7.2148-22.957 0.76562-4.4844-2.1797-8.7578-6.6367-9.6484-4.4609-0.88672-8.8164 1.9336-9.832 6.3672-0.98438 4.8438-1.0703 9.8281-0.24609 14.703-0.91406 0.14453-1.8359 0.23438-2.7617 0.27734-8.8281-0.13281-16.93-4.9219-21.309-12.59-4.375-7.668-4.375-17.078 0-24.746 4.3789-7.6719 12.48-12.457 21.309-12.59 2.6133 0.042969 5.1992 0.5 7.668 1.3555 3.75 10.984 11.113 20.367 20.887 26.621 3.9023 2.4766 9.0664 1.3398 11.566-2.5469 2.5-3.8828 1.3906-9.0586-2.4766-11.582-7.3984-4.7109-12.727-12.062-14.902-20.562-0.066406-0.35156-0.16016-0.69531-0.27344-1.0352-0.54688-2.5195-0.82422-5.0898-0.82812-7.668-0.054688-10.059 4.2734-19.645 11.859-26.254 7.582-6.6133 17.672-9.5898 27.629-8.1641-4.1016 7.1016-6.6523 14.992-7.4844 23.152-0.39844 4.5703 2.9453 8.6172 7.5117 9.0859 4.5625 0.46875 8.6602-2.8164 9.1992-7.3711 0.89453-8.9102 4.6523-17.289 10.707-23.887 8.1328-9.0742 19.812-14.156 31.996-13.918 12.184 0.23828 23.66 5.7734 31.434 15.156 7.7734 9.3867 11.07 21.691 9.0312 33.707-6.5742 1.6016-12.68 4.7266-17.824 9.1211-1.7305 1.4375-2.8125 3.5039-3.0039 5.7461-0.19141 2.2383 0.51953 4.4609 1.9805 6.1719 1.457 1.7109 3.5391 2.7617 5.7812 2.9258 2.2422 0.16016 4.457-0.58203 6.1445-2.0625 4.2031-3.5859 9.4141-5.7773 14.914-6.2656 0.82422-0.089844 1.6484-0.13281 2.4766-0.125 9.4961 0.085937 18.238 5.1836 22.988 13.406 4.7461 8.2266 4.7969 18.348 0.125 26.613-4.6719 8.2695-13.367 13.449-22.863 13.625 2.3242-7.8359 2.2539-16.188-0.19922-23.98-1.3945-4.4258-6.1094-6.8867-10.535-5.4922-4.4258 1.3906-6.8867 6.1055-5.4922 10.531 2.2188 7.0781 1.1016 14.781-3.0352 20.938z"/>
  <path d="m257.09 210.16v51.793c0 4.6406 3.7578 8.3984 8.3984 8.3984s8.4023-3.7578 8.4023-8.3984v-51.793c0-4.6406-3.7617-8.4023-8.4023-8.4023s-8.3984 3.7617-8.3984 8.4023z"/>
  <path d="m285.55 210.16v51.793c0 4.6406 3.7578 8.3984 8.3984 8.3984s8.3984-3.7578 8.3984-8.3984v-51.793c0-4.6406-3.7578-8.4023-8.3984-8.4023s-8.3984 3.7617-8.3984 8.4023z"/>
  <path d="m166.63 117.07c0 7.3477-5.9531 13.301-13.301 13.301-7.3438 0-13.297-5.9531-13.297-13.301 0-7.3438 5.9531-13.297 13.297-13.297 7.3477 0 13.301 5.9531 13.301 13.297"/>
  <path d="m211.89 87.641c0 7.3438-5.957 13.301-13.301 13.301-7.3477 0-13.301-5.957-13.301-13.301 0-7.3477 5.9531-13.301 13.301-13.301 7.3438 0 13.301 5.9531 13.301 13.301"/>
  <path d="m425.14 117.07c0 7.3477-5.9531 13.301-13.297 13.301-7.3477 0-13.301-5.9531-13.301-13.301 0-7.3438 5.9531-13.297 13.301-13.297 7.3438 0 13.297 5.9531 13.297 13.297"/>
  <path d="m451.74 153.1c0-5.3789-3.2383-10.23-8.2109-12.293-4.9688-2.0586-10.691-0.92188-14.496 2.8828-3.8047 3.8047-4.9414 9.5273-2.8828 14.496 2.0625 4.9727 6.9141 8.2109 12.293 8.2109 7.3438 0 13.297-5.9531 13.297-13.297z"/>
  <path d="m432.85 265.79c5.3789 0 10.227-3.2422 12.285-8.2109 2.0586-4.9727 0.92188-10.691-2.8828-14.496-3.8047-3.8047-9.5234-4.9414-14.492-2.8828-4.9727 2.0586-8.2109 6.9102-8.2109 12.289 0 7.3438 5.9531 13.301 13.301 13.301z"/>
  <path d="m160.77 296.8c0 5.3789 3.2422 10.23 8.2109 12.289 4.9727 2.0547 10.691 0.91797 14.496-2.8867 3.8047-3.8047 4.9414-9.5273 2.8789-14.496-2.0586-4.9688-6.9102-8.2109-12.289-8.207-3.5273 0-6.9102 1.4023-9.4023 3.8945-2.4961 2.4961-3.8945 5.8789-3.8945 9.4062z"/>
  <use x="70" y="644" xlink:href="#u"/>
  <use x="90.550781" y="644" xlink:href="#b"/>
  <use x="104.359375" y="644" xlink:href="#a"/>
  <use x="123.347656" y="644" xlink:href="#e"/>
  <use x="142.242188" y="644" xlink:href="#c"/>
  <use x="155.628906" y="644" xlink:href="#a"/>
  <use x="174.617188" y="644" xlink:href="#l"/>
  <use x="204.410156" y="644" xlink:href="#k"/>
  <use x="224.453125" y="644" xlink:href="#j"/>
  <use x="252.453125" y="644" xlink:href="#i"/>
  <use x="276.253906" y="644" xlink:href="#h"/>
  <use x="296.1875" y="644" xlink:href="#a"/>
  <use x="324.925781" y="644" xlink:href="#g"/>
  <use x="345.445312" y="644" xlink:href="#t"/>
  <use x="355.046875" y="644" xlink:href="#a"/>
  <use x="374.035156" y="644" xlink:href="#e"/>
  <use x="392.929688" y="644" xlink:href="#s"/>
  <use x="409.59375" y="644" xlink:href="#f"/>
  <use x="429.53125" y="644" xlink:href="#b"/>
  <use x="443.335937" y="644" xlink:href="#a"/>
  <use x="70" y="672" xlink:href="#r"/>
  <use x="82.183594" y="672" xlink:href="#b"/>
  <use x="95.992188" y="672" xlink:href="#d"/>
  <use x="115.226562" y="672" xlink:href="#q"/>
  <use x="154.152344" y="672" xlink:href="#c"/>
  <use x="167.535156" y="672" xlink:href="#p"/>
  <use x="187.46875" y="672" xlink:href="#a"/>
  <use x="216.207031" y="672" xlink:href="#o"/>
  <use x="239.640625" y="672" xlink:href="#d"/>
  <use x="258.878906" y="672" xlink:href="#f"/>
  <use x="278.8125" y="672" xlink:href="#h"/>
  <use x="308.492188" y="672" xlink:href="#g"/>
  <use x="329.015625" y="672" xlink:href="#b"/>
  <use x="342.820312" y="672" xlink:href="#d"/>
  <use x="362.058594" y="672" xlink:href="#n"/>
  <use x="371.65625" y="672" xlink:href="#a"/>
  <use x="390.648438" y="672" xlink:href="#m"/>
  <use x="407.242188" y="672" xlink:href="#c"/>
 </g>
</svg>
