<?xml version="1.0" encoding="UTF-8"?>
<svg width="700pt" height="700pt" version="1.1" viewBox="0 0 700 700" xmlns="http://www.w3.org/2000/svg" xmlns:xlink="http://www.w3.org/1999/xlink">
 <defs>
  <symbol id="v" overflow="visible">
   <path d="m3.6562-0.21875c-0.1875 0.09375-0.38672 0.16797-0.59375 0.21875-0.19922 0.050781-0.40625 0.078125-0.625 0.078125-0.66797 0-1.1992-0.17969-1.5938-0.54688-0.38672-0.375-0.57812-0.87891-0.57812-1.5156 0-0.64453 0.19141-1.1484 0.57812-1.5156 0.39453-0.375 0.92578-0.5625 1.5938-0.5625 0.21875 0 0.42578 0.027344 0.625 0.078125 0.20703 0.054687 0.40625 0.125 0.59375 0.21875v0.82812c-0.1875-0.125-0.375-0.21875-0.5625-0.28125-0.17969-0.0625-0.37109-0.09375-0.57812-0.09375-0.36719 0-0.65625 0.12109-0.875 0.35938-0.21094 0.23047-0.3125 0.55469-0.3125 0.96875 0 0.40625 0.10156 0.73047 0.3125 0.96875 0.21875 0.23047 0.50781 0.34375 0.875 0.34375 0.20703 0 0.39844-0.023437 0.57812-0.078125 0.1875-0.0625 0.375-0.16016 0.5625-0.29688z"/>
  </symbol>
  <symbol id="c" overflow="visible">
   <path d="m2.6875-2.1719c-0.085938-0.039063-0.16797-0.070313-0.25-0.09375-0.085938-0.019531-0.16797-0.03125-0.25-0.03125-0.25 0-0.44531 0.085937-0.57812 0.25-0.125 0.15625-0.1875 0.38281-0.1875 0.67188v1.375h-0.96875v-2.9844h0.96875v0.48438c0.11328-0.19531 0.25-0.33594 0.40625-0.42188 0.16406-0.09375 0.35938-0.14062 0.57812-0.14062h0.10938c0.039063 0 0.09375 0.007812 0.15625 0.015625z"/>
  </symbol>
  <symbol id="b" overflow="visible">
   <path d="m3.4375-1.5v0.26562h-2.2344c0.03125 0.23047 0.11328 0.40234 0.25 0.51562 0.13281 0.10547 0.32812 0.15625 0.57812 0.15625 0.20703 0 0.41406-0.023438 0.625-0.078125 0.20703-0.0625 0.42188-0.15625 0.64062-0.28125v0.73438c-0.21875 0.09375-0.44531 0.16406-0.67188 0.20312-0.23047 0.039062-0.45312 0.0625-0.67188 0.0625-0.54297 0-0.96484-0.13281-1.2656-0.40625-0.30469-0.28125-0.45312-0.67188-0.45312-1.1719 0-0.47656 0.14453-0.85938 0.4375-1.1406 0.30078-0.28125 0.70703-0.42188 1.2188-0.42188 0.46875 0 0.84375 0.14062 1.125 0.42188s0.42188 0.66406 0.42188 1.1406zm-0.96875-0.32812c0-0.17578-0.058594-0.31641-0.17188-0.42188-0.10547-0.11328-0.24219-0.17188-0.40625-0.17188-0.1875 0-0.33984 0.054687-0.45312 0.15625-0.11719 0.10547-0.1875 0.25-0.21875 0.4375z"/>
  </symbol>
  <symbol id="f" overflow="visible">
   <path d="m1.7969-1.3438c-0.19922 0-0.35156 0.039062-0.45312 0.10938-0.09375 0.0625-0.14062 0.16406-0.14062 0.29688 0 0.11719 0.035156 0.21094 0.10938 0.28125 0.082031 0.0625 0.19531 0.09375 0.34375 0.09375 0.17578 0 0.32812-0.0625 0.45312-0.1875s0.1875-0.28516 0.1875-0.48438v-0.10938zm1.4688-0.35938v1.7031h-0.96875v-0.4375c-0.125 0.17969-0.27344 0.30859-0.4375 0.39062-0.15625 0.082031-0.35156 0.125-0.57812 0.125-0.3125 0-0.57031-0.085938-0.76562-0.26562-0.1875-0.1875-0.28125-0.42188-0.28125-0.70312 0-0.35156 0.11719-0.61328 0.35938-0.78125 0.23828-0.16406 0.61719-0.25 1.1406-0.25h0.5625v-0.0625c0-0.15625-0.0625-0.26562-0.1875-0.32812-0.11719-0.070312-0.29688-0.10938-0.54688-0.10938-0.21094 0-0.40234 0.023437-0.57812 0.0625-0.17969 0.042969-0.33984 0.10156-0.48438 0.17188v-0.71875c0.19531-0.050781 0.39844-0.085938 0.60938-0.10938 0.20703-0.03125 0.41406-0.046875 0.625-0.046875 0.53906 0 0.92969 0.10938 1.1719 0.32812 0.23828 0.21094 0.35938 0.55469 0.35938 1.0312z"/>
  </symbol>
  <symbol id="d" overflow="visible">
   <path d="m1.5-3.8438v0.85938h0.98438v0.67188h-0.98438v1.2812c0 0.13672 0.023438 0.23047 0.078125 0.28125 0.0625 0.042969 0.17578 0.0625 0.34375 0.0625h0.48438v0.6875h-0.8125c-0.38672 0-0.65625-0.078125-0.8125-0.23438s-0.23438-0.42188-0.23438-0.79688v-1.2812h-0.46875v-0.67188h0.46875v-0.85938z"/>
  </symbol>
  <symbol id="j" overflow="visible">
   <path d="m2.5-2.5469v-1.6094h0.95312v4.1562h-0.95312v-0.4375c-0.13672 0.17969-0.28125 0.30859-0.4375 0.39062-0.15625 0.082031-0.33984 0.125-0.54688 0.125-0.375 0-0.68359-0.14453-0.92188-0.4375-0.23047-0.28906-0.34375-0.67188-0.34375-1.1406 0-0.45703 0.11328-0.83203 0.34375-1.125 0.23828-0.28906 0.54688-0.4375 0.92188-0.4375 0.19531 0 0.375 0.042969 0.53125 0.125 0.16406 0.085938 0.31641 0.21484 0.45312 0.39062zm-0.64062 1.9375c0.20703 0 0.36328-0.070313 0.46875-0.21875 0.11328-0.15625 0.17188-0.37891 0.17188-0.67188 0-0.28125-0.058594-0.49219-0.17188-0.64062-0.10547-0.15625-0.26172-0.23438-0.46875-0.23438-0.19922 0-0.35547 0.078125-0.46875 0.23438-0.10547 0.14844-0.15625 0.35938-0.15625 0.64062 0 0.29297 0.050781 0.51562 0.15625 0.67188 0.11328 0.14844 0.26953 0.21875 0.46875 0.21875z"/>
  </symbol>
  <symbol id="i" overflow="visible">
   <path d="m2.0469-0.60938c0.20703 0 0.36328-0.070313 0.46875-0.21875 0.11328-0.15625 0.17188-0.37891 0.17188-0.67188 0-0.28125-0.058594-0.49219-0.17188-0.64062-0.10547-0.15625-0.26172-0.23438-0.46875-0.23438-0.19922 0-0.35547 0.078125-0.46875 0.23438-0.10547 0.14844-0.15625 0.35938-0.15625 0.64062 0 0.29297 0.050781 0.51562 0.15625 0.67188 0.11328 0.14844 0.26953 0.21875 0.46875 0.21875zm-0.625-1.9375c0.125-0.17578 0.26562-0.30469 0.42188-0.39062 0.16406-0.082031 0.35156-0.125 0.5625-0.125 0.36328 0 0.66406 0.14844 0.90625 0.4375 0.23828 0.29297 0.35938 0.66797 0.35938 1.125 0 0.46875-0.12109 0.85156-0.35938 1.1406-0.24219 0.29297-0.54297 0.4375-0.90625 0.4375-0.21094 0-0.39844-0.042969-0.5625-0.125-0.15625-0.082031-0.29688-0.21094-0.42188-0.39062v0.4375h-0.96875v-4.1562h0.96875z"/>
  </symbol>
  <symbol id="h" overflow="visible">
   <path d="m0.0625-2.9844h0.95312l0.8125 2.0156 0.6875-2.0156h0.95312l-1.2656 3.2656c-0.125 0.33203-0.27344 0.56641-0.4375 0.70312-0.16797 0.13281-0.39062 0.20312-0.67188 0.20312h-0.54688v-0.64062h0.29688c0.16406 0 0.28516-0.027344 0.35938-0.078125 0.070313-0.054688 0.12891-0.14062 0.17188-0.26562l0.03125-0.09375z"/>
  </symbol>
  <symbol id="g" overflow="visible">
   <path d="m1.4219-0.4375v1.5781h-0.96875v-4.125h0.96875v0.4375c0.125-0.17578 0.26562-0.30469 0.42188-0.39062 0.16406-0.082031 0.35156-0.125 0.5625-0.125 0.36328 0 0.66406 0.14844 0.90625 0.4375 0.23828 0.29297 0.35938 0.66797 0.35938 1.125 0 0.46875-0.12109 0.85156-0.35938 1.1406-0.24219 0.29297-0.54297 0.4375-0.90625 0.4375-0.21094 0-0.39844-0.042969-0.5625-0.125-0.15625-0.082031-0.29688-0.21094-0.42188-0.39062zm0.625-1.9375c-0.19922 0-0.35547 0.078125-0.46875 0.23438-0.10547 0.14844-0.15625 0.35938-0.15625 0.64062 0 0.29297 0.050781 0.51562 0.15625 0.67188 0.11328 0.14844 0.26953 0.21875 0.46875 0.21875 0.20703 0 0.36328-0.070313 0.46875-0.21875 0.11328-0.15625 0.17188-0.37891 0.17188-0.67188 0-0.28125-0.058594-0.49219-0.17188-0.64062-0.10547-0.15625-0.26172-0.23438-0.46875-0.23438z"/>
  </symbol>
  <symbol id="a" overflow="visible">
   <path d="m1.875-2.375c-0.21094 0-0.37109 0.078125-0.48438 0.23438-0.10547 0.14844-0.15625 0.35938-0.15625 0.64062 0 0.29297 0.050781 0.51562 0.15625 0.67188 0.11328 0.14844 0.27344 0.21875 0.48438 0.21875 0.20703 0 0.36719-0.070313 0.48438-0.21875 0.11328-0.15625 0.17188-0.37891 0.17188-0.67188 0-0.28125-0.058594-0.49219-0.17188-0.64062-0.11719-0.15625-0.27734-0.23438-0.48438-0.23438zm0-0.6875c0.51953 0 0.92188 0.14062 1.2031 0.42188 0.28906 0.27344 0.4375 0.65234 0.4375 1.1406 0 0.5-0.14844 0.89062-0.4375 1.1719-0.28125 0.27344-0.68359 0.40625-1.2031 0.40625-0.51172 0-0.91406-0.13281-1.2031-0.40625-0.29297-0.28125-0.4375-0.67188-0.4375-1.1719 0-0.48828 0.14453-0.86719 0.4375-1.1406 0.28906-0.28125 0.69141-0.42188 1.2031-0.42188z"/>
  </symbol>
  <symbol id="e" overflow="visible">
   <path d="m3.4688-1.8281v1.8281h-0.96875v-1.3906c0-0.25781-0.007812-0.4375-0.015625-0.53125-0.011719-0.10156-0.03125-0.17578-0.0625-0.21875-0.03125-0.0625-0.085937-0.10938-0.15625-0.14062-0.0625-0.039062-0.13281-0.0625-0.20312-0.0625-0.21094 0-0.37109 0.078125-0.48438 0.23438-0.10547 0.15625-0.15625 0.37109-0.15625 0.64062v1.4688h-0.96875v-2.9844h0.96875v0.4375c0.13281-0.17578 0.28516-0.30469 0.45312-0.39062 0.16406-0.082031 0.34375-0.125 0.53125-0.125 0.34375 0 0.60156 0.10938 0.78125 0.32812 0.1875 0.21094 0.28125 0.51172 0.28125 0.90625z"/>
  </symbol>
  <symbol id="u" overflow="visible">
   <path d="m2.5-0.5c-0.13672 0.16797-0.28125 0.29297-0.4375 0.375-0.15625 0.085938-0.33984 0.125-0.54688 0.125-0.36719 0-0.66797-0.14062-0.90625-0.42188-0.24219-0.28906-0.35938-0.66016-0.35938-1.1094 0-0.44531 0.11719-0.8125 0.35938-1.0938 0.23828-0.28906 0.53906-0.4375 0.90625-0.4375 0.20703 0 0.39062 0.042969 0.54688 0.125 0.15625 0.085938 0.30078 0.21484 0.4375 0.39062v-0.4375h0.95312v2.6875c0 0.47656-0.15234 0.84375-0.45312 1.0938-0.30469 0.25781-0.74609 0.39062-1.3281 0.39062-0.17969 0-0.35547-0.015625-0.53125-0.046875-0.17969-0.03125-0.35547-0.078125-0.53125-0.14062v-0.73438c0.16406 0.09375 0.32812 0.16016 0.48438 0.20312 0.16406 0.050781 0.33203 0.078125 0.5 0.078125 0.3125 0 0.53906-0.070313 0.6875-0.20312 0.14453-0.13672 0.21875-0.34766 0.21875-0.64062zm-0.64062-1.875c-0.19922 0-0.35547 0.074219-0.46875 0.21875-0.10547 0.14844-0.15625 0.35547-0.15625 0.625 0 0.27344 0.050781 0.48047 0.15625 0.625 0.11328 0.14844 0.26953 0.21875 0.46875 0.21875 0.19531 0 0.35156-0.070312 0.46875-0.21875 0.11328-0.14453 0.17188-0.35156 0.17188-0.625 0-0.26953-0.058594-0.47656-0.17188-0.625-0.11719-0.14453-0.27344-0.21875-0.46875-0.21875z"/>
  </symbol>
  <symbol id="t" overflow="visible">
   <path d="m2.7969-2.8906v0.71875c-0.21094-0.082031-0.40625-0.14453-0.59375-0.1875-0.1875-0.039063-0.37109-0.0625-0.54688-0.0625-0.17969 0-0.3125 0.023437-0.40625 0.0625-0.085938 0.042969-0.125 0.10938-0.125 0.20312 0 0.085938 0.03125 0.14844 0.09375 0.1875 0.070312 0.042969 0.19531 0.074219 0.375 0.09375l0.15625 0.015625c0.48828 0.0625 0.81641 0.16797 0.98438 0.3125 0.17578 0.13672 0.26562 0.35938 0.26562 0.67188s-0.12109 0.55469-0.35938 0.71875c-0.23047 0.15625-0.57812 0.23438-1.0469 0.23438-0.19922 0-0.40625-0.015625-0.625-0.046875-0.21094-0.03125-0.42188-0.078125-0.64062-0.14062v-0.71875c0.1875 0.085937 0.37891 0.15234 0.57812 0.20312 0.20703 0.042969 0.41406 0.0625 0.625 0.0625 0.1875 0 0.32812-0.023438 0.42188-0.078125 0.09375-0.050781 0.14062-0.125 0.14062-0.21875s-0.039062-0.16016-0.10938-0.20312c-0.0625-0.039062-0.1875-0.070312-0.375-0.09375l-0.17188-0.015625c-0.42969-0.050781-0.73047-0.14844-0.90625-0.29688-0.16797-0.14453-0.25-0.36328-0.25-0.65625 0-0.32031 0.10938-0.55469 0.32812-0.70312 0.21875-0.15625 0.55078-0.23438 1-0.23438 0.17578 0 0.35938 0.015625 0.54688 0.046875 0.19531 0.023437 0.41016 0.0625 0.64062 0.125z"/>
  </symbol>
  <symbol id="s" overflow="visible">
   <path d="m0.45312-4.1562h0.96875v2.2656l1.0938-1.0938h1.1094l-1.4531 1.3594 1.5625 1.625h-1.1562l-1.1562-1.25v1.25h-0.96875z"/>
  </symbol>
  <symbol id="r" overflow="visible">
   <path d="m2.4219-4.1562v0.625h-0.51562c-0.13672 0-0.23438 0.027344-0.29688 0.078125-0.054687 0.054687-0.078125 0.13672-0.078125 0.25v0.21875h0.82812v0.67188h-0.82812v2.3125h-0.95312v-2.3125h-0.46875v-0.67188h0.46875v-0.21875c0-0.32031 0.085937-0.5625 0.26562-0.71875 0.1875-0.15625 0.47266-0.23438 0.85938-0.23438z"/>
  </symbol>
  <symbol id="q" overflow="visible">
   <path d="m3.2344-2.5c0.11328-0.17578 0.25391-0.3125 0.42188-0.40625 0.16406-0.10156 0.35156-0.15625 0.5625-0.15625 0.33203 0 0.58594 0.10938 0.76562 0.32812 0.1875 0.21094 0.28125 0.51172 0.28125 0.90625v1.8281h-0.96875v-1.5625c0.007813-0.019531 0.015625-0.039062 0.015625-0.0625v-0.10938c0-0.21875-0.03125-0.375-0.09375-0.46875s-0.16406-0.14062-0.29688-0.14062c-0.1875 0-0.33594 0.078125-0.4375 0.23438-0.09375 0.14844-0.14062 0.35938-0.14062 0.64062v1.4688h-0.96875v-1.5625c0-0.33203-0.03125-0.54688-0.09375-0.64062-0.054688-0.09375-0.15234-0.14062-0.29688-0.14062-0.17969 0-0.32031 0.078125-0.42188 0.23438-0.09375 0.14844-0.14062 0.35938-0.14062 0.64062v1.4688h-0.96875v-2.9844h0.96875v0.4375c0.11328-0.17578 0.24219-0.30469 0.39062-0.39062 0.15625-0.082031 0.32812-0.125 0.51562-0.125 0.20703 0 0.39062 0.054688 0.54688 0.15625 0.15625 0.09375 0.27344 0.23047 0.35938 0.40625z"/>
  </symbol>
  <symbol id="p" overflow="visible">
   <path d="m3.4688-1.8281v1.8281h-0.96875v-1.3906c0-0.25781-0.007812-0.4375-0.015625-0.53125-0.011719-0.10156-0.03125-0.17578-0.0625-0.21875-0.03125-0.0625-0.085937-0.10938-0.15625-0.14062-0.0625-0.039062-0.13281-0.0625-0.20312-0.0625-0.21094 0-0.37109 0.078125-0.48438 0.23438-0.10547 0.15625-0.15625 0.37109-0.15625 0.64062v1.4688h-0.96875v-4.1562h0.96875v1.6094c0.13281-0.17578 0.28516-0.30469 0.45312-0.39062 0.16406-0.082031 0.34375-0.125 0.53125-0.125 0.34375 0 0.60156 0.10938 0.78125 0.32812 0.1875 0.21094 0.28125 0.51172 0.28125 0.90625z"/>
  </symbol>
  <symbol id="o" overflow="visible">
   <path d="m0.5-3.9844h1.1562l1.4375 2.7344v-2.7344h0.98438v3.9844h-1.1562l-1.4375-2.7344v2.7344h-0.98438z"/>
  </symbol>
  <symbol id="n" overflow="visible">
   <path d="m0.42188-1.1719v-1.8125h0.96875v0.29688 0.60938 0.48438c0 0.24219 0.003906 0.41797 0.015625 0.53125 0.007812 0.10547 0.03125 0.17969 0.0625 0.21875 0.039062 0.0625 0.09375 0.11719 0.15625 0.15625 0.0625 0.03125 0.13281 0.046875 0.21875 0.046875 0.19531 0 0.35156-0.078125 0.46875-0.23438 0.11328-0.15625 0.17188-0.36719 0.17188-0.64062v-1.4688h0.95312v2.9844h-0.95312v-0.4375c-0.14844 0.17969-0.30469 0.30859-0.46875 0.39062-0.15625 0.082031-0.33594 0.125-0.53125 0.125-0.34375 0-0.60938-0.10156-0.79688-0.3125-0.17969-0.21875-0.26562-0.53125-0.26562-0.9375z"/>
  </symbol>
  <symbol id="m" overflow="visible">
   <path d="m0.5-3.9844h1.7031c0.50781 0 0.89844 0.11719 1.1719 0.34375 0.26953 0.21875 0.40625 0.53906 0.40625 0.95312 0 0.41797-0.13672 0.74219-0.40625 0.96875-0.27344 0.21875-0.66406 0.32812-1.1719 0.32812h-0.67188v1.3906h-1.0312zm1.0312 0.75v1.1094h0.5625c0.19531 0 0.34766-0.046875 0.45312-0.14062 0.11328-0.10156 0.17188-0.24219 0.17188-0.42188 0-0.17578-0.058594-0.3125-0.17188-0.40625-0.10547-0.09375-0.25781-0.14062-0.45312-0.14062z"/>
  </symbol>
  <symbol id="l" overflow="visible">
   <path d="m0.45312-2.9844h0.96875v2.9375c0 0.39453-0.10156 0.69531-0.29688 0.90625-0.1875 0.21875-0.46484 0.32812-0.82812 0.32812h-0.48438v-0.64062h0.17188c0.17578 0 0.29688-0.042969 0.35938-0.125 0.070312-0.074219 0.10938-0.23047 0.10938-0.46875zm0-1.1719h0.96875v0.78125h-0.96875z"/>
  </symbol>
  <symbol id="k" overflow="visible">
   <path d="m2.875-2.8906v0.76562c-0.125-0.082031-0.25781-0.14453-0.39062-0.1875-0.13672-0.039062-0.27344-0.0625-0.40625-0.0625-0.27344 0-0.48047 0.078125-0.625 0.23438-0.14844 0.15625-0.21875 0.37109-0.21875 0.64062 0 0.28125 0.070313 0.5 0.21875 0.65625 0.14453 0.15625 0.35156 0.23438 0.625 0.23438 0.14453 0 0.28516-0.019531 0.42188-0.0625 0.13281-0.039063 0.25781-0.10938 0.375-0.20312v0.78125c-0.14844 0.0625-0.29688 0.10156-0.45312 0.125-0.15625 0.03125-0.3125 0.046875-0.46875 0.046875-0.54297 0-0.96484-0.13281-1.2656-0.40625-0.30469-0.28125-0.45312-0.67188-0.45312-1.1719 0-0.48828 0.14844-0.86719 0.45312-1.1406 0.30078-0.28125 0.72266-0.42188 1.2656-0.42188 0.15625 0 0.3125 0.015625 0.46875 0.046875 0.15625 0.023437 0.30469 0.0625 0.45312 0.125z"/>
  </symbol>
 </defs>
 <g>
  <path d="m590.5 86.398c2.1367-1.1875 3.6797-3.2109 4.2539-5.5859 0.57422-2.375 0.13281-4.8828-1.2227-6.918-23.457-35.266-63.023-56.441-105.38-56.395h-6.9023c-2.6562 0-5.1719 1.207-6.832 3.2812l-16.051 20.066c-40.617-18.359-85.234-26.094-129.66-22.484-44.426 3.6133-87.203 18.453-124.32 43.129-13.578-9.168-30.656-11.477-46.18-6.2344-15.523 5.2383-27.711 17.426-32.949 32.949-5.2422 15.523-2.9336 32.602 6.2344 46.18-27.305 41.055-42.512 88.961-43.891 138.25-1.375 49.285 11.137 97.969 36.109 140.48l15.074-8.8867c-26.168-44.543-37.594-96.215-32.641-147.64 4.9492-51.422 26.023-99.965 60.211-138.7 34.188-38.73 79.738-65.668 130.15-76.965s103.1-6.3789 150.55 14.059l-18.301 22.875v-7.8672c-0.007812-6.9609-2.7773-13.633-7.6953-18.555-4.9219-4.918-11.594-7.6875-18.555-7.6953h-70c-9.3789 0-18.043 5.0039-22.734 13.125-4.6875 8.1211-4.6875 18.129 0 26.25 4.6914 8.1211 13.355 13.125 22.734 13.125h17.5v8.75c0.007812 5.3828 1.6641 10.637 4.75 15.047 3.0898 4.4102 7.4531 7.7656 12.512 9.6172l-7.5859 15.172c-1.1367 2.2695-1.2305 4.918-0.26172 7.2617 0.97266 2.3438 2.9141 4.1523 5.3203 4.9531l12.82 4.2734-16.238 16.238 12.375 12.375 26.25-26.25h-0.003906c2.1445-2.1445 3.0273-5.2461 2.3281-8.1992-0.69531-2.9492-2.8711-5.332-5.75-6.2891l-16.68-5.5586 6.1953-12.391h24.184l16.355 32.715-47.176 39.312 11.203 13.445 52.5-43.75h0.003906c3.1211-2.6016 4.0391-7.0039 2.2227-10.637l-15.555-31.113c7.1094-0.26953 13.805-3.418 18.551-8.7227 4.7422-5.3047 7.1289-12.305 6.6094-19.402-0.51953-7.0977-3.8984-13.68-9.3633-18.234l34.562-43.203c16.758 25.117 43.699 41.605 73.691 45.098l-50.566 28.094v-0.003906c-4.0938 2.2773-5.6719 7.3711-3.5781 11.562l13.832 27.66-97.918 57.121 8.8164 15.117 105-61.25h0.003906c3.9844-2.3242 5.4805-7.3438 3.4141-11.473l-13.754-27.508 14.656-8.1445 0.003907 0.003906c17.301 19.574 31.359 41.793 41.629 65.812h-67.859c-9.2227-0.007812-17.77 4.8281-22.52 12.73-4.75 7.9062-5.0039 17.723-0.66797 25.863 4.3359 8.1367 12.625 13.402 21.836 13.871-2.7031 8.5469-9.168 15.387-17.551 18.559l-45.422 17.035 6.1445 16.383 45.422-17.031c15.191-5.7578 26.32-18.965 29.418-34.91h19.707c0.64453 7.5781-0.75391 15.191-4.0469 22.051-3.2969 6.8555-8.3672 12.703-14.691 16.93l-20.277 13.52h-41.102c-2.3203-0.003906-4.5469 0.91797-6.1875 2.5625l-35 35c-2.5039 2.5039-3.25 6.2656-1.8984 9.5352 1.3555 3.2695 4.5469 5.4023 8.0859 5.4023h8.75v39.941c-2.2461 1.375-4.3242 3.0078-6.1875 4.8711-3.0039 2.9961-7.0703 4.6758-11.312 4.6758s-8.3086-1.6797-11.312-4.6758l-1.9062-1.9062c-5.8086-5.8125-13.555-9.2852-21.762-9.7578-8.207-0.47266-16.297 2.0898-22.738 7.1953l-17.719 14.047 10.871 13.715 17.719-14.051c3.0781-2.4375 6.9414-3.6602 10.859-3.4336 3.918 0.22656 7.6172 1.8828 10.395 4.6562l1.9062 1.9062v0.003906c6.2852 6.2695 14.805 9.793 23.688 9.793 8.8789 0 17.398-3.5234 23.688-9.793 3-3 7.0703-4.6797 11.312-4.6797s8.3086 1.6797 11.312 4.6797c6.2852 6.2695 14.805 9.793 23.688 9.793 8.8789 0 17.398-3.5234 23.688-9.793 3-2.9961 7.0703-4.6797 11.312-4.6797s8.3086 1.6836 11.312 4.6797c0.32812 0.32422 0.67969 0.625 1.0547 0.89844l18.594 13.461c-7.0352 10.863-14.918 21.156-23.574 30.781l-2.8672-1.9102c-6.5273-4.3438-14.242-6.5586-22.082-6.3438-7.8398 0.21875-15.422 2.8594-21.699 7.5586l-0.99219 0.74219c-3.5391 2.6367-7.8359 4.0586-12.25 4.0586-4.4141 0-8.707-1.4219-12.25-4.0586-6.5742-4.8906-14.555-7.5352-22.75-7.5352-8.1953 0-16.172 2.6445-22.75 7.5352l-17.5 13.125 10.5 14 17.5-13.125c3.543-2.6367 7.8359-4.0586 12.25-4.0586 4.4141 0 8.7109 1.4219 12.25 4.0586 6.5781 4.8945 14.555 7.5352 22.75 7.5352 8.1953 0 16.176-2.6406 22.75-7.5352l0.99219-0.74219c3.3828-2.5312 7.4609-3.9531 11.684-4.0703s8.375 1.0742 11.891 3.4141l0.21875 0.14453c-36.684 35.359-83.473 58.406-133.86 65.934-50.391 7.5312-101.88-0.83203-147.29-23.926 14.891 1.7773 29.832-2.9102 41.039-12.875 11.207-9.9648 17.609-24.258 17.586-39.254 0.0625-14.953-6.3125-29.211-17.5-39.137v-48.363c0-12.504-6.6719-24.059-17.5-30.312-10.828-6.25-24.172-6.25-35 0-10.828 6.2539-17.5 17.809-17.5 30.312v48.363c-9.2305 8.25-15.246 19.5-16.98 31.758-1.7383 12.258 0.92188 24.734 7.5 35.219-18.668-14.398-35.18-31.395-49.035-50.473l-14.168 10.273c24.316 33.652 56.281 61.047 93.258 79.93 36.977 18.883 77.906 28.711 119.43 28.68 67.281 0.003906 132-25.832 180.78-72.168 48.785-46.336 77.914-109.64 81.371-176.83 3.4609-67.191-19.016-133.15-62.785-184.25zm-426.11 7.9844h-0.003907c-7.6797 7.6758-14.883 15.812-21.57 24.367-3.6797-8.6172-3.7539-18.355-0.19922-27.027 3.5547-8.6719 10.441-15.555 19.113-19.109 8.6719-3.5547 18.406-3.4844 27.023 0.19922-8.5508 6.6875-16.691 13.891-24.367 21.57zm264.36 19.367h-33.969l6.793-13.586-15.652-7.8281-10.676 21.352h0.003906c-4.4141-0.51172-7.7422-4.2461-7.75-8.6875v-17.5c0-2.3203-0.92188-4.5469-2.5625-6.1875s-3.8672-2.5625-6.1875-2.5625h-26.25c-4.832 0-8.75-3.918-8.75-8.75s3.918-8.75 8.75-8.75h70c4.832 0.003906 8.7461 3.918 8.75 8.75v17.5c0 2.3203 0.92188 4.5469 2.5625 6.1875s3.8672 2.5625 6.1875 2.5625h8.75c4.832 0 8.75 3.918 8.75 8.75s-3.918 8.75-8.75 8.75zm68.332-78.383c27.227 2.2031 52.629 14.566 71.164 34.633h-2.0508c-27.23 0.097656-52.891-12.762-69.113-34.633zm-287.08 410.88c-0.039062-11.027 5.1562-21.418 14.004-28 2.2031-1.6523 3.4961-4.2461 3.4961-7v-52.5c0-6.2539 3.3359-12.031 8.75-15.156s12.086-3.125 17.5 0 8.75 8.9023 8.75 15.156v52.5c0 2.7539 1.293 5.3477 3.4961 7 9.7031 7.2773 14.949 19.062 13.863 31.145-1.0898 12.082-8.3555 22.738-19.207 28.164-10.848 5.4258-23.734 4.8477-34.055-1.5312-10.32-6.3789-16.598-17.645-16.598-29.777zm239.88-122.5 13.875-13.875 13.875 13.875zm40.125 66.988c-4.2422 0.007813-8.3164-1.6758-11.312-4.6758-6.2773-6.2891-14.805-9.8125-23.688-9.7969v-35.016h35zm35-14.469v0.003907c-6.1758-0.003907-12.23 1.6992-17.5 4.9219v-39.945h17.5zm-22.625-52.52-17.5-17.5h27.75l17.5 17.5zm90.133-78.75h-15.008c-0.042969 20.82-6.793 41.07-19.25 57.75l-5.25 7 14 10.5 5.25-7c11.84-15.859 19.367-34.516 21.852-54.152 0.58594 6.9219 0.89844 13.891 0.89844 20.902 0.089844 41.145-10.238 81.641-30.023 117.72l-16.824-12.18c-1.7227-1.6484-3.6172-3.1055-5.6523-4.3516v-39.938h8.75c3.5391 0 6.7305-2.1328 8.0859-5.4023 1.3516-3.2695 0.60547-7.0312-1.8984-9.5352l-30.953-30.953 8.3516-5.5664c17.73-11.867 27.844-32.246 26.566-53.543h16.098v-17.5h-70c-4.832 0-8.75-3.918-8.75-8.75s3.918-8.75 8.75-8.75h74.559c4.8242 14.23 8.3203 28.875 10.449 43.75z"/>
  <path d="m262.5 446.25c-0.007812-6.2422-3.3438-12.012-8.75-15.133v-72.367h-17.5v72.367c-5.4102 3.1289-8.7383 8.9062-8.7344 15.156 0.007813 6.2461 3.3438 12.02 8.7578 15.137 5.4141 3.1211 12.082 3.1172 17.488-0.007812 5.4102-3.1289 8.7422-8.9023 8.7383-15.152z"/>
  <path d="m107.56 49.938 12.375-12.375 17.5 17.5-12.375 12.375z"/>
  <path d="m166.25 17.5h17.5v17.5h-17.5z"/>
  <path d="m87.5 96.25h17.5v17.5h-17.5z"/>
  <path d="m359.2 469.73-8.75 26.25c-0.73438 2.1992-0.5625 4.6016 0.47266 6.6797 1.0391 2.0742 2.8594 3.6523 5.0625 4.3867l26.25 8.75c3.1445 1.0508 6.6094 0.23047 8.9531-2.1133l17.5-17.5c1.9883-1.9883 2.8984-4.8125 2.4492-7.5898-0.44922-2.7734-2.207-5.1641-4.7227-6.4219l-35-17.5c-2.2695-1.1367-4.918-1.2305-7.2617-0.25781-2.3438 0.96875-4.1523 2.9102-4.9531 5.3164zm13.41 15.105 15.117 7.5586-5.0938 5.0938-12.82-4.2734z"/>
  <path d="m367.5 420h17.5v17.5h-17.5z"/>
  <path d="m451.09 412.18 17.5-8.75 7.8281 15.652-17.5 8.75z"/>
  <path d="m433.59 489.07 7.8281-15.652 17.5 8.75-7.8281 15.652z"/>
  <path d="m354.84 235.33 7.8281-15.652 17.5 8.75-7.8281 15.652z"/>
  <path d="m393.75 236.25h17.5v17.5h-17.5z"/>
  <path d="m287.98 333.02 10.445 20.891 15.652-7.8281-10.445-20.891c-1.4453-2.9062-2.1055-6.1445-1.9023-9.3867 0.20313-3.2422 1.2578-6.375 3.0547-9.0781 3.5039-5.2734 5.5586-11.379 5.9531-17.699 0.39062-6.3203-0.88672-12.633-3.7109-18.305l-10.445-20.891-15.652 7.8281 10.445 20.891c1.4453 2.9062 2.1055 6.1445 1.9023 9.3867-0.20313 3.2422-1.2578 6.375-3.0547 9.0781-3.5039 5.2773-5.5586 11.379-5.9531 17.703-0.39062 6.3203 0.88672 12.633 3.7109 18.301z"/>
  <path d="m350.77 279.48-10.445-20.891-15.652 7.8281 10.445 20.891c1.4453 2.9062 2.1055 6.1445 1.9023 9.3867-0.20313 3.2422-1.2578 6.375-3.0547 9.0781-3.5039 5.2734-5.5586 11.379-5.9531 17.699-0.39062 6.3203 0.88672 12.633 3.7109 18.305l10.445 20.891 15.652-7.8281-10.445-20.891c-1.4453-2.9062-2.1055-6.1445-1.9023-9.3867 0.20313-3.2422 1.2578-6.375 3.0547-9.0781 3.5039-5.2773 5.5586-11.379 5.9531-17.703 0.39062-6.3203-0.88672-12.633-3.7109-18.301z"/>
  <path d="m122.59 354.84 15.652 7.8281 10.445-20.891c2.8242-5.668 4.1055-11.98 3.7109-18.301-0.39062-6.3242-2.4453-12.43-5.9531-17.703-1.7969-2.7031-2.8516-5.8359-3.0508-9.0781-0.20312-3.2422 0.45312-6.4805 1.9023-9.3867l10.445-20.891-15.652-7.8242-10.445 20.891c-2.8242 5.668-4.1055 11.98-3.7109 18.301 0.39453 6.3203 2.4453 12.426 5.9531 17.699 1.7969 2.707 2.8516 5.8359 3.0547 9.0781 0.19922 3.2422-0.45703 6.4805-1.9062 9.3867z"/>
  <path d="m199.49 257.66-15.652-7.8242-10.445 20.891v-0.003907c-2.8242 5.668-4.1055 11.984-3.7109 18.305 0.39453 6.3203 2.4453 12.426 5.9531 17.699 1.7969 2.7031 2.8516 5.8359 3.0547 9.0781 0.19922 3.2422-0.45703 6.4805-1.9062 9.3867l-10.445 20.891 15.652 7.8281 10.445-20.891c2.8242-5.668 4.1055-11.98 3.7109-18.301-0.39062-6.3242-2.4453-12.43-5.9531-17.703-1.7969-2.7031-2.8516-5.8359-3.0508-9.0781-0.20312-3.2422 0.45312-6.4805 1.9023-9.3867z"/>
  <path d="m271.25 131.25v70h-16.438c-9.5703 0.027344-18.754-3.7773-25.5-10.562-10.023-10.078-23.66-15.727-37.875-15.688h-10.25c-11.586 0.023438-22.855 3.7812-32.137 10.711l-23.051 17.289 10.5 14 23.051-17.289c6.25-4.6641 13.836-7.1953 21.637-7.2109h10.25c9.5703-0.027344 18.754 3.7773 25.5 10.562 10.023 10.078 23.66 15.727 37.875 15.688h60.188v-17.5h-26.25v-17.5h26.25c2.3203 0 4.5469-0.92188 6.1875-2.5625s2.5625-3.8672 2.5625-6.1875v-26.25h-17.5v17.5h-17.5v-35z"/>
  <use x="70" y="576.40625" xlink:href="#v"/>
  <use x="74.011719" y="576.40625" xlink:href="#c"/>
  <use x="76.710938" y="576.40625" xlink:href="#b"/>
  <use x="80.417969" y="576.40625" xlink:href="#f"/>
  <use x="84.109375" y="576.40625" xlink:href="#d"/>
  <use x="86.722656" y="576.40625" xlink:href="#b"/>
  <use x="90.433594" y="576.40625" xlink:href="#j"/>
  <use x="96.25" y="576.40625" xlink:href="#i"/>
  <use x="100.167969" y="576.40625" xlink:href="#h"/>
  <use x="105.636719" y="576.40625" xlink:href="#g"/>
  <use x="109.550781" y="576.40625" xlink:href="#a"/>
  <use x="113.308594" y="576.40625" xlink:href="#e"/>
  <use x="117.199219" y="576.40625" xlink:href="#u"/>
  <use x="121.113281" y="576.40625" xlink:href="#t"/>
  <use x="124.371094" y="576.40625" xlink:href="#f"/>
  <use x="128.058594" y="576.40625" xlink:href="#s"/>
  <use x="131.695312" y="576.40625" xlink:href="#a"/>
  <use x="135.453125" y="576.40625" xlink:href="#c"/>
  <use x="138.152344" y="576.40625" xlink:href="#e"/>
  <use x="70" y="581.875" xlink:href="#r"/>
  <use x="72.378906" y="581.875" xlink:href="#c"/>
  <use x="75.078125" y="581.875" xlink:href="#a"/>
  <use x="78.832031" y="581.875" xlink:href="#q"/>
  <use x="86.4375" y="581.875" xlink:href="#d"/>
  <use x="89.050781" y="581.875" xlink:href="#p"/>
  <use x="92.941406" y="581.875" xlink:href="#b"/>
  <use x="98.554688" y="581.875" xlink:href="#o"/>
  <use x="103.132812" y="581.875" xlink:href="#a"/>
  <use x="106.890625" y="581.875" xlink:href="#n"/>
  <use x="110.785156" y="581.875" xlink:href="#e"/>
  <use x="116.582031" y="581.875" xlink:href="#m"/>
  <use x="120.589844" y="581.875" xlink:href="#c"/>
  <use x="123.285156" y="581.875" xlink:href="#a"/>
  <use x="127.042969" y="581.875" xlink:href="#l"/>
  <use x="128.917969" y="581.875" xlink:href="#b"/>
  <use x="132.625" y="581.875" xlink:href="#k"/>
  <use x="135.867188" y="581.875" xlink:href="#d"/>
 </g>
</svg>
