<?xml version="1.0" encoding="UTF-8"?>
<svg width="700pt" height="700pt" version="1.1" viewBox="0 0 700 700" xmlns="http://www.w3.org/2000/svg" xmlns:xlink="http://www.w3.org/1999/xlink">
 <defs>
  <symbol id="l" overflow="visible">
   <path d="m29.312-1.75c-1.5117 0.78125-3.0898 1.3711-4.7344 1.7656-1.6367 0.40625-3.3398 0.60938-5.1094 0.60938-5.3125 0-9.5273-1.4844-12.641-4.4531-3.1055-2.9688-4.6562-7-4.6562-12.094s1.5508-9.125 4.6562-12.094c3.1133-2.9688 7.3281-4.4531 12.641-4.4531 1.7695 0 3.4727 0.19922 5.1094 0.59375 1.6445 0.39844 3.2227 0.99219 4.7344 1.7812v6.5938c-1.5312-1.0391-3.0391-1.8008-4.5156-2.2812-1.4805-0.48828-3.0391-0.73438-4.6719-0.73438-2.9375 0-5.2461 0.94531-6.9219 2.8281-1.6797 1.875-2.5156 4.4648-2.5156 7.7656 0 3.293 0.83594 5.8828 2.5156 7.7656 1.6758 1.875 3.9844 2.8125 6.9219 2.8125 1.6328 0 3.1914-0.23828 4.6719-0.71875 1.4766-0.48828 2.9844-1.2539 4.5156-2.2969z"/>
  </symbol>
  <symbol id="f" overflow="visible">
   <path d="m21.453-17.406c-0.67969-0.3125-1.3516-0.53906-2.0156-0.6875-0.65625-0.15625-1.3203-0.23438-1.9844-0.23438-1.9688 0-3.4844 0.63281-4.5469 1.8906-1.0547 1.2617-1.5781 3.0703-1.5781 5.4219v11.016h-7.6562v-23.922h7.6562v3.9219c0.97656-1.5625 2.1016-2.7031 3.375-3.4219 1.2812-0.71875 2.8125-1.0781 4.5938-1.0781 0.25 0 0.52344 0.011719 0.82812 0.03125 0.30078 0.023438 0.73438 0.070312 1.2969 0.14062z"/>
  </symbol>
  <symbol id="e" overflow="visible">
   <path d="m27.562-12.031v2.1875h-17.891c0.1875 1.793 0.83203 3.1367 1.9375 4.0312 1.1133 0.89844 2.6719 1.3438 4.6719 1.3438 1.6016 0 3.25-0.23438 4.9375-0.70312 1.6875-0.47656 3.4219-1.2031 5.2031-2.1719v5.8906c-1.8047 0.6875-3.6094 1.2031-5.4219 1.5469-1.8125 0.35156-3.6211 0.53125-5.4219 0.53125-4.3359 0-7.7031-1.0977-10.109-3.2969-2.3984-2.207-3.5938-5.2969-3.5938-9.2656 0-3.9062 1.1758-6.9727 3.5312-9.2031 2.3633-2.2383 5.6094-3.3594 9.7344-3.3594 3.7578 0 6.7695 1.1367 9.0312 3.4062 2.2578 2.2617 3.3906 5.2812 3.3906 9.0625zm-7.8594-2.5312c0-1.457-0.42969-2.6289-1.2812-3.5156-0.84375-0.89453-1.9492-1.3438-3.3125-1.3438-1.4922 0-2.6992 0.41797-3.625 1.25-0.91797 0.83594-1.4922 2.0391-1.7188 3.6094z"/>
  </symbol>
  <symbol id="b" overflow="visible">
   <path d="m14.391-10.766c-1.5938 0-2.793 0.27344-3.5938 0.8125-0.80469 0.54297-1.2031 1.3398-1.2031 2.3906 0 0.96875 0.32031 1.7305 0.96875 2.2812 0.64453 0.54297 1.5469 0.8125 2.7031 0.8125 1.4375 0 2.6445-0.51562 3.625-1.5469 0.98828-1.0312 1.4844-2.3203 1.4844-3.875v-0.875zm11.688-2.8906v13.656h-7.7031v-3.5469c-1.0312 1.4492-2.1875 2.5078-3.4688 3.1719s-2.8398 1-4.6719 1c-2.4805 0-4.4961-0.72266-6.0469-2.1719-1.543-1.4453-2.3125-3.3203-2.3125-5.625 0-2.8125 0.96094-4.8672 2.8906-6.1719 1.9375-1.3125 4.9688-1.9688 9.0938-1.9688h4.5156v-0.60938c0-1.207-0.48047-2.0938-1.4375-2.6562-0.94922-0.5625-2.4375-0.84375-4.4688-0.84375-1.6367 0-3.1562 0.16797-4.5625 0.5-1.4062 0.32422-2.7188 0.8125-3.9375 1.4688v-5.8281c1.6445-0.40625 3.2891-0.70703 4.9375-0.90625 1.6562-0.20703 3.3047-0.3125 4.9531-0.3125 4.3203 0 7.4375 0.85547 9.3438 2.5625 1.9141 1.6992 2.875 4.4609 2.875 8.2812z"/>
  </symbol>
  <symbol id="d" overflow="visible">
   <path d="m12.031-30.719v6.7969h7.875v5.4688h-7.875v10.141c0 1.1172 0.21875 1.8711 0.65625 2.2656 0.4375 0.38672 1.3125 0.57812 2.625 0.57812h3.9375v5.4688h-6.5625c-3.0234 0-5.1641-0.62891-6.4219-1.8906-1.2617-1.2578-1.8906-3.3984-1.8906-6.4219v-10.141h-3.7969v-5.4688h3.7969v-6.7969z"/>
  </symbol>
  <symbol id="j" overflow="visible">
   <path d="m19.953-20.422v-12.812h7.6875v33.234h-7.6875v-3.4531c-1.0547 1.4062-2.2148 2.4375-3.4844 3.0938-1.2734 0.65625-2.7422 0.98438-4.4062 0.98438-2.9492 0-5.3711-1.1719-7.2656-3.5156-1.8867-2.3438-2.8281-5.3594-2.8281-9.0469s0.94141-6.7031 2.8281-9.0469c1.8945-2.3438 4.3164-3.5156 7.2656-3.5156 1.6562 0 3.1172 0.33594 4.3906 1 1.2812 0.65625 2.4453 1.6836 3.5 3.0781zm-5.0469 15.484c1.6445 0 2.8945-0.59766 3.75-1.7969 0.86328-1.1953 1.2969-2.9297 1.2969-5.2031 0-2.2812-0.43359-4.0195-1.2969-5.2188-0.85547-1.1953-2.1055-1.7969-3.75-1.7969-1.625 0-2.8711 0.60156-3.7344 1.7969-0.85547 1.1992-1.2812 2.9375-1.2812 5.2188 0 2.2734 0.42578 4.0078 1.2812 5.2031 0.86328 1.1992 2.1094 1.7969 3.7344 1.7969z"/>
  </symbol>
  <symbol id="a" overflow="visible">
   <path d="m16.406-4.9375c1.6328 0 2.8828-0.59766 3.75-1.7969 0.86328-1.1953 1.2969-2.9297 1.2969-5.2031 0-2.2812-0.43359-4.0195-1.2969-5.2188-0.86719-1.1953-2.1172-1.7969-3.75-1.7969-1.6367 0-2.8906 0.60547-3.7656 1.8125-0.875 1.1992-1.3125 2.9336-1.3125 5.2031 0 2.2617 0.4375 3.9961 1.3125 5.2031 0.875 1.1992 2.1289 1.7969 3.7656 1.7969zm-5.0781-15.484c1.0508-1.3945 2.2188-2.4219 3.5-3.0781 1.2812-0.66406 2.7539-1 4.4219-1 2.9453 0 5.3672 1.1719 7.2656 3.5156 1.8945 2.3438 2.8438 5.3594 2.8438 9.0469s-0.94922 6.7031-2.8438 9.0469c-1.8984 2.3438-4.3203 3.5156-7.2656 3.5156-1.668 0-3.1406-0.33594-4.4219-1s-2.4492-1.6914-3.5-3.0781v3.4531h-7.6562v-33.234h7.6562z"/>
  </symbol>
  <symbol id="i" overflow="visible">
   <path d="m0.53125-23.922h7.6562l6.4219 16.234 5.4688-16.234h7.6562l-10.062 26.188c-1.0117 2.6641-2.1953 4.5234-3.5469 5.5781-1.3438 1.0625-3.1211 1.5938-5.3281 1.5938h-4.4219v-5.0156h2.3906c1.3008 0 2.2422-0.21094 2.8281-0.625 0.59375-0.40625 1.0547-1.1484 1.3906-2.2188l0.20312-0.65625z"/>
  </symbol>
  <symbol id="h" overflow="visible">
   <path d="m22.359-23.172v5.7969c-1.6367-0.67578-3.2148-1.1875-4.7344-1.5312-1.5234-0.34375-2.9609-0.51562-4.3125-0.51562-1.4609 0-2.543 0.18359-3.25 0.54688-0.69922 0.36719-1.0469 0.92188-1.0469 1.6719 0 0.61719 0.26562 1.0898 0.79688 1.4219 0.53125 0.32422 1.4883 0.5625 2.875 0.71875l1.3438 0.1875c3.9141 0.5 6.5508 1.3242 7.9062 2.4688 1.3516 1.1367 2.0312 2.9219 2.0312 5.3594 0 2.5547-0.94531 4.4688-2.8281 5.75-1.875 1.2812-4.6797 1.9219-8.4062 1.9219-1.5859 0-3.2188-0.125-4.9062-0.375s-3.4219-0.625-5.2031-1.125v-5.8125c1.5195 0.74219 3.082 1.2969 4.6875 1.6719 1.6016 0.36719 3.2344 0.54688 4.8906 0.54688 1.4883 0 2.6094-0.20312 3.3594-0.60938 0.75781-0.41406 1.1406-1.0312 1.1406-1.8438 0-0.6875-0.26172-1.1953-0.78125-1.5312-0.52344-0.33203-1.5586-0.59375-3.1094-0.78125l-1.3438-0.17188c-3.4062-0.42578-5.793-1.2109-7.1562-2.3594-1.3672-1.1562-2.0469-2.9102-2.0469-5.2656 0-2.5312 0.86719-4.4062 2.6094-5.625 1.7383-1.2266 4.3984-1.8438 7.9844-1.8438 1.4062 0 2.8828 0.10938 4.4375 0.32812 1.5508 0.21094 3.2383 0.54297 5.0625 1z"/>
  </symbol>
  <symbol id="c" overflow="visible">
   <path d="m3.6719-23.922h7.6562v23.922h-7.6562zm0-9.3125h7.6562v6.2344h-7.6562z"/>
  </symbol>
  <symbol id="g" overflow="visible">
   <path d="m27.734-14.562v14.562h-7.7031v-11.109c0-2.0938-0.046875-3.5312-0.14062-4.3125-0.085937-0.78125-0.24219-1.3594-0.46875-1.7344-0.30469-0.5-0.71094-0.88281-1.2188-1.1562-0.51172-0.28125-1.0938-0.42188-1.75-0.42188-1.5938 0-2.8516 0.61719-3.7656 1.8438-0.90625 1.2305-1.3594 2.9375-1.3594 5.125v11.766h-7.6562v-33.234h7.6562v12.812c1.1445-1.3945 2.3633-2.4219 3.6562-3.0781 1.3008-0.66406 2.7383-1 4.3125-1 2.7578 0 4.8516 0.85156 6.2812 2.5469 1.4375 1.6875 2.1562 4.1523 2.1562 7.3906z"/>
  </symbol>
  <symbol id="k" overflow="visible">
   <path d="m25.844-19.953c0.96875-1.4766 2.1172-2.6016 3.4531-3.375 1.332-0.78125 2.7969-1.1719 4.3906-1.1719 2.75 0 4.8438 0.85156 6.2812 2.5469 1.4375 1.6875 2.1562 4.1523 2.1562 7.3906v14.562h-7.6875v-12.469c0.007812-0.1875 0.019531-0.37891 0.03125-0.57812 0.007812-0.19531 0.015625-0.48438 0.015625-0.85938 0-1.6953-0.25-2.9258-0.75-3.6875-0.5-0.75781-1.3086-1.1406-2.4219-1.1406-1.4492 0-2.5703 0.60156-3.3594 1.7969-0.79297 1.1992-1.2031 2.9297-1.2344 5.1875v11.75h-7.6875v-12.469c0-2.6562-0.23047-4.3633-0.6875-5.125-0.44922-0.75781-1.2578-1.1406-2.4219-1.1406-1.4688 0-2.6055 0.60547-3.4062 1.8125-0.79297 1.1992-1.1875 2.918-1.1875 5.1562v11.766h-7.7031v-23.922h7.7031v3.5c0.9375-1.3516 2.0156-2.3672 3.2344-3.0469 1.2188-0.6875 2.5547-1.0312 4.0156-1.0312 1.6562 0 3.1133 0.40234 4.375 1.2031 1.2695 0.79297 2.2344 1.9062 2.8906 3.3438z"/>
  </symbol>
 </defs>
 <g>
  <path d="m253.23 228.76c-26.785 0-48.582-23.344-48.582-52.027 0-28.691 21.797-52.035 48.582-52.035 26.785 0 48.582 23.344 48.582 52.035-0.003906 28.684-21.797 52.027-48.582 52.027zm0-85.648c-16.633 0-30.168 15.082-30.168 33.621 0 18.535 13.531 33.613 30.168 33.613 16.633 0 30.168-15.078 30.168-33.613-0.003907-18.539-13.535-33.621-30.168-33.621z"/>
  <path d="m253.38 113.29c-5.0898 0-9.207-4.1211-9.207-9.207l-0.003907-23.383c0-5.0859 4.1172-9.207 9.207-9.207s9.207 4.1211 9.207 9.207v23.383c0.003906 5.082-4.1172 9.207-9.2031 9.207z"/>
  <path d="m287.86 122.08c-1.4727 0-2.9766-0.35547-4.3594-1.1055-4.4766-2.4141-6.1484-7.9961-3.7305-12.477l11.105-20.578c2.4102-4.4688 8.0195-6.1445 12.473-3.7266 4.4766 2.4141 6.1484 7.9961 3.7305 12.477l-11.105 20.578c-1.668 3.082-4.8398 4.832-8.1133 4.832z"/>
  <path d="m314.05 146.2c-3.0039 0-5.9453-1.4609-7.707-4.1523-2.7891-4.2539-1.6094-9.9609 2.6445-12.75l19.547-12.828c4.2422-2.7969 9.9727-1.6094 12.75 2.6445 2.7891 4.2539 1.6094 9.9609-2.6445 12.75l-19.547 12.828c-1.5547 1.0234-3.3086 1.5078-5.043 1.5078z"/>
  <path d="m325.61 179.86c-4.7305 0-8.75-3.6172-9.1641-8.418-0.44141-5.0664 3.3164-9.5273 8.3789-9.9609l23.297-2.0039c5.1602-0.55469 9.5234 3.3164 9.9609 8.3789 0.44141 5.0664-3.3164 9.5273-8.3789 9.9609l-23.297 2.0039c-0.26562 0.03125-0.53516 0.039063-0.79688 0.039063z"/>
  <path d="m341.27 224.28c-1.2148 0-2.4648-0.24609-3.6523-0.76562l-21.453-9.3008c-4.668-2.0234-6.8047-7.4453-4.793-12.113 2.0234-4.6562 7.4375-6.8203 12.113-4.7852l21.453 9.3008c4.668 2.0234 6.8047 7.4453 4.793 12.113-1.5117 3.4727-4.9023 5.5508-8.4609 5.5508z"/>
  <path d="m312.5 261.49c-2.7344 0-5.4297-1.2031-7.2461-3.5156l-14.457-18.375c-3.1367-3.9922-2.4531-9.7812 1.5469-12.926 3.9922-3.1641 9.8008-2.4453 12.93 1.543l14.457 18.375c3.1367 3.9922 2.4531 9.7812-1.5469 12.926-1.6797 1.332-3.6953 1.9727-5.6836 1.9727z"/>
  <path d="m269.48 280.58c-4.3984 0-8.2891-3.1562-9.0625-7.6328l-3.9922-23.039c-0.87109-5.0117 2.4922-9.7773 7.5-10.645 5-0.83203 9.7812 2.4922 10.645 7.5l3.9922 23.039c0.87109 5.0117-2.4922 9.7773-7.5 10.645-0.53125 0.085938-1.0586 0.13281-1.582 0.13281z"/>
  <path d="m222.58 276.95c-0.97266 0-1.9609-0.15625-2.9297-0.48047-4.8203-1.6172-7.418-6.8398-5.8008-11.656l7.4375-22.172c1.6289-4.8203 6.8438-7.3906 11.66-5.8047 4.8203 1.6172 7.418 6.8398 5.8008 11.656l-7.4375 22.172c-1.2969 3.8516-4.8828 6.2852-8.7305 6.2852z"/>
  <path d="m183.03 251.45c-2.4531 0-4.9102-0.98047-6.7266-2.9141-3.4727-3.7148-3.2812-9.5391 0.42969-13.016l17.066-15.977c3.7227-3.4727 9.5391-3.2852 13.02 0.42578 3.4727 3.7148 3.2812 9.5391-0.42969 13.016l-17.066 15.977c-1.7773 1.668-4.0352 2.4883-6.293 2.4883z"/>
  <path d="m160.32 210.25c-4.0742 0-7.8047-2.7305-8.8906-6.8594-1.293-4.918 1.6367-9.9531 6.5547-11.25l22.613-5.957c4.9102-1.293 9.9531 1.6328 11.25 6.5547 1.293 4.918-1.6367 9.9531-6.5547 11.25l-22.613 5.957c-0.79688 0.20703-1.5781 0.30469-2.3594 0.30469z"/>
  <path d="m182.67 168.7c-0.71875 0-1.4492-0.082031-2.1758-0.26172l-22.73-5.5c-4.9453-1.1992-7.9766-6.1758-6.7812-11.117 1.1875-4.9414 6.1953-7.9883 11.113-6.7812l22.73 5.5c4.9453 1.1992 7.9766 6.1758 6.7812 11.117-1.0156 4.2148-4.7812 7.043-8.9375 7.043z"/>
  <path d="m199.32 137.25c-2.1953 0-4.3984-0.77734-6.1602-2.3594l-17.379-15.637c-3.7773-3.4023-4.0898-9.2266-0.68359-13.008 3.4062-3.7734 9.2148-4.0781 13-0.6875l17.379 15.637c3.7773 3.4023 4.0898 9.2266 0.68359 13.008-1.8125 2.0156-4.3242 3.0469-6.8398 3.0469z"/>
  <path d="m223 117.48c-3.7852 0-7.3281-2.3477-8.668-6.1133l-7.8672-22.02c-1.7188-4.7891 0.78125-10.059 5.5664-11.77 4.8008-1.7031 10.07 0.78516 11.77 5.5742l7.8672 22.02c1.7188 4.7891-0.78125 10.059-5.5664 11.77-1.0234 0.36328-2.0781 0.53906-3.1016 0.53906z"/>
  <path d="m350.03 395.9h-0.035156l-198.41-0.67969c-5.082-0.019531-9.1875-4.1523-9.1719-9.2383 0.019531-5.0742 4.1367-9.1758 9.207-9.1758h0.035156l196.82 0.67578 79.375-27.777c1.1602-0.39844 2.4023-0.55859 3.6133-0.5l117.47 7.3633c5.0703 0.32031 8.9297 4.6875 8.6133 9.7656-0.32422 5.0742-4.7461 8.9023-9.7656 8.6133l-115.61-7.25-79.117 27.684c-0.97266 0.34375-2.0039 0.51953-3.0391 0.51953z"/>
  <path d="m510.69 452.92c-1.5547 0-3.1367-0.39453-4.5859-1.2266l-45.648-26.277c-3.3359-1.9258-5.125-5.7188-4.4883-9.5156l7.9023-46.676c0.85547-5.0117 5.6016-8.3984 10.617-7.5391 5.0156 0.85156 8.3906 5.6016 7.543 10.613l-6.832 40.355 40.094 23.082c4.4062 2.5352 5.9258 8.1641 3.3789 12.574-1.6953 2.9531-4.7969 4.6094-7.9805 4.6094z"/>
  <path d="m466.88 467.08c-1.4648 0-2.9492-0.35156-4.332-1.0898-4.4883-2.3945-6.1758-7.9766-3.7773-12.461l15.293-28.602c2.3906-4.4805 7.9648-6.1719 12.461-3.7773 4.4883 2.3945 6.1758 7.9766 3.7773 12.461l-15.293 28.602c-1.6523 3.1055-4.8359 4.8672-8.1289 4.8672z"/>
  <path d="m176.77 445.58c-3.7422 0-7.2656-2.3008-8.6406-6.0234-1.7539-4.7695 0.68359-10.062 5.4492-11.824l48.977-18.086-9.7383-17.922c-2.4258-4.4688-0.77344-10.062 3.6953-12.488 4.4609-2.4141 10.051-0.77344 12.488 3.6953l14.816 27.27c1.2773 2.3516 1.4648 5.1328 0.52344 7.6367-0.93359 2.5-2.9141 4.4688-5.4219 5.3945l-58.957 21.77c-1.0508 0.39062-2.1289 0.57812-3.1914 0.57812z"/>
  <path d="m285.59 452.02c-1.6094 0-3.2109-0.42188-4.6406-1.2539l-45.254-26.371c-4.3867-2.5586-5.8711-8.1953-3.3164-12.59 2.582-4.3906 8.1992-5.8633 12.598-3.3164l41.254 24.043 35.742-15.23-5.1328-28.328c-0.89844-5.0039 2.418-9.7969 7.4258-10.699 4.9805-0.94531 9.793 2.418 10.699 7.418l6.4375 35.559c0.76562 4.2305-1.5 8.4258-5.4492 10.109l-46.746 19.926c-1.1641 0.49219-2.3945 0.73438-3.6172 0.73438z"/>
  <path d="m275.3 488.5h-35.371c-5.0898 0-9.207-4.1211-9.207-9.207s4.1172-9.207 9.207-9.207h28.449l8.3633-28.938c1.4219-4.8789 6.5195-7.707 11.402-6.2852 4.8906 1.4102 7.707 6.5156 6.293 11.402l-10.289 35.586c-1.1445 3.9375-4.75 6.6484-8.8477 6.6484z"/>
  <path d="m366.43 484.83c-0.89844 0-1.8086-0.13672-2.7148-0.41406-4.8555-1.5-7.5781-6.6523-6.0781-11.512l6.3125-20.457-30.078-18.348c-4.3438-2.6484-5.7188-8.3125-3.0664-12.652 2.6523-4.3477 8.3242-5.7148 12.652-3.0664l36.191 22.074c3.5977 2.1953 5.25 6.5469 4 10.574l-8.4258 27.301c-1.2148 3.9609-4.8555 6.5-8.793 6.5z"/>
  <path d="m380.12 452.92c-3.2188 0-6.3398-1.6875-8.0312-4.6875-2.5-4.4336-0.92578-10.047 3.5078-12.543l30.555-17.199-26.227-28.617c-3.4336-3.75-3.1836-9.5742 0.56641-13.012 3.7578-3.4336 9.5742-3.1836 13.012 0.56641l34.07 37.172c1.8984 2.0742 2.7422 4.8945 2.3008 7.668-0.44141 2.7773-2.1211 5.1953-4.5781 6.5781l-40.668 22.891c-1.4258 0.80078-2.9805 1.1836-4.5078 1.1836z"/>
  <path d="m420.77 430.02c-4.7656 0-8.8008-3.6719-9.1719-8.5078-0.38672-5.0703 3.4062-9.4961 8.4805-9.8828l44.273-3.3867c4.9648-0.42188 9.4961 3.4062 9.8828 8.4805 0.38672 5.0703-3.4062 9.4961-8.4805 9.8828l-44.273 3.3867c-0.23437 0.019531-0.47656 0.027344-0.71094 0.027344z"/>
  <path d="m442.54 366.24c-5.0898 0-9.207-4.1211-9.207-9.207v-99.934c0-19.895 15.348-35.477 34.949-35.477 19.277 0 34.957 15.5 34.957 34.555v9.1562c0 5.0859-4.1172 9.207-9.207 9.207s-9.207-4.1211-9.207-9.207v-9.1562c0-8.9023-7.418-16.141-16.543-16.141-9.2695 0-16.535 7.4961-16.535 17.062l0.003906 99.934c0 5.0859-4.1211 9.207-9.2109 9.207z"/>
  <path d="m499.84 326.35c-3.0859 0-5.9883-1.5469-7.707-4.168l-16.824-25.727c-6.0352-9.2383-5.0273-21.332 2.4453-29.41l1.1133-1.2109c7.5352-8.1367 19.504-10.051 29.168-4.6289 10.117 5.6719 14.711 17.758 10.926 28.742l-10.422 30.203c-1.1523 3.3242-4.082 5.6992-7.5703 6.1328-0.375 0.046875-0.75391 0.066406-1.1289 0.066406zm-3.4531-49.781c-1.4648 0-2.9141 0.59766-3.9727 1.7461l-1.1133 1.2148c-1.7539 1.8945-1.9766 4.7031-0.57422 6.8516l6.5469 10.004 4.2891-12.441c0.88281-2.5547-0.17969-5.3633-2.5273-6.6797-0.84375-0.46875-1.75-0.69531-2.6484-0.69531z"/>
  <path d="m393.56 352.06c-3.0859 0-5.9883-1.5469-7.707-4.168l-14.484-22.156c-5.5195-8.4414-4.5938-19.496 2.2383-26.891l0.98047-1.0547c6.8789-7.4453 17.84-9.1719 26.66-4.2266 0.007812 0 0.007812 0.003906 0.007812 0.003906 9.2617 5.1953 13.453 16.258 9.9805 26.297l-8.9727 25.988c-1.1523 3.3242-4.082 5.6992-7.5703 6.1328-0.375 0.054687-0.75391 0.074219-1.1328 0.074219zm-2.9648-42.859c-0.91797 0-1.8164 0.37891-2.4805 1.0898l-0.98047 1.0664c-1.0977 1.1836-1.2422 2.9531-0.35156 4.3086l4.207 6.4336 2.8398-8.2422c0.55859-1.6172-0.10938-3.3906-1.582-4.2227-0.51953-0.29297-1.0859-0.43359-1.6523-0.43359z"/>
  <path d="m418.01 141.57h-21.48c-5.0898 0-9.207-4.1211-9.207-9.207s4.1172-9.207 9.207-9.207h21.48c5.0898 0 9.207 4.1211 9.207 9.207 0 5.082-4.1172 9.207-9.207 9.207z"/>
  <path d="m478.14 141.57h-21.48c-5.0898 0-9.207-4.1211-9.207-9.207s4.1172-9.207 9.207-9.207h21.48c5.0898 0 9.207 4.1211 9.207 9.207 0 5.082-4.1172 9.207-9.207 9.207z"/>
  <path d="m436.61 111.46h-21.488c-5.0898 0-9.207-4.1211-9.207-9.207 0-5.0859 4.1172-9.207 9.207-9.207h21.488c5.0898 0 9.207 4.1211 9.207 9.207 0 5.0859-4.1172 9.207-9.207 9.207z"/>
  <path d="m507.79 108.7h-21.48c-5.0898 0-9.207-4.1211-9.207-9.207 0-5.0859 4.1172-9.207 9.207-9.207h21.48c5.0898 0 9.207 4.1211 9.207 9.207 0.003906 5.0859-4.1172 9.207-9.207 9.207z"/>
  <path d="m466.89 175.18h-21.488c-5.0898 0-9.207-4.1211-9.207-9.207 0-5.0859 4.1172-9.207 9.207-9.207h21.488c5.0898 0 9.207 4.1211 9.207 9.207 0 5.0859-4.1211 9.207-9.207 9.207z"/>
  <path d="m522.22 189.75h-21.488c-5.0898 0-9.207-4.1211-9.207-9.207 0-5.0859 4.1172-9.207 9.207-9.207h21.488c5.0898 0 9.207 4.1211 9.207 9.207 0 5.0859-4.1172 9.207-9.207 9.207z"/>
  <path d="m540.12 141.57h-21.488c-5.0898 0-9.207-4.1211-9.207-9.207s4.1172-9.207 9.207-9.207h21.488c5.0898 0 9.207 4.1211 9.207 9.207 0 5.082-4.1172 9.207-9.207 9.207z"/>
  <path d="m439.34 263.36c-1.6992 0-3.418-0.46875-4.9531-1.4531l-22.441-14.355c-4.2812-2.7383-5.5312-8.4336-2.7969-12.719 2.7422-4.2891 8.4336-5.5391 12.723-2.793l22.441 14.355c4.2812 2.7383 5.5312 8.4336 2.7969 12.719-1.7656 2.75-4.7305 4.2461-7.7695 4.2461z"/>
  <path d="m345.71 394.37c-5.0898 0-9.207-4.1211-9.207-9.207v-81.23c0-17.133 13.164-30.559 29.977-30.559 14.871 0 27.324 10.594 29.617 25.184 0.78125 5.0234-2.6523 9.7344-7.668 10.52-5.0898 0.83594-9.7305-2.6484-10.527-7.668-0.85547-5.4844-5.7617-9.6211-11.418-9.6211-6.5898 0-11.562 5.2188-11.562 12.145v81.23c-0.003906 5.082-4.1211 9.207-9.2109 9.207z"/>
  <path d="m343.12 310.74c-1.707 0-3.4336-0.47266-4.9805-1.4688l-18.109-11.672c-4.2695-2.75-5.5039-8.4531-2.75-12.723 2.7617-4.2773 8.4414-5.5078 12.73-2.75l18.109 11.672c4.2695 2.75 5.5039 8.4531 2.75 12.723-1.7617 2.7344-4.7266 4.2188-7.75 4.2188z"/>
  <use x="70" y="691.25" xlink:href="#l"/>
  <use x="102.109375" y="691.25" xlink:href="#f"/>
  <use x="123.683594" y="691.25" xlink:href="#e"/>
  <use x="153.355469" y="691.25" xlink:href="#b"/>
  <use x="182.878906" y="691.25" xlink:href="#d"/>
  <use x="203.792969" y="691.25" xlink:href="#e"/>
  <use x="233.464844" y="691.25" xlink:href="#j"/>
  <use x="280.011719" y="691.25" xlink:href="#a"/>
  <use x="311.328125" y="691.25" xlink:href="#i"/>
  <use x="355.078125" y="691.25" xlink:href="#a"/>
  <use x="386.398438" y="691.25" xlink:href="#b"/>
  <use x="415.917969" y="691.25" xlink:href="#h"/>
  <use x="441.960938" y="691.25" xlink:href="#c"/>
  <use x="456.957031" y="691.25" xlink:href="#d"/>
  <use x="477.871094" y="691.25" xlink:href="#g"/>
  <use x="524.25" y="691.25" xlink:href="#c"/>
  <use x="539.246094" y="691.25" xlink:href="#a"/>
  <use x="570.5625" y="691.25" xlink:href="#f"/>
  <use x="592.136719" y="691.25" xlink:href="#b"/>
  <use x="621.660156" y="691.25" xlink:href="#g"/>
  <use x="652.804688" y="691.25" xlink:href="#c"/>
  <use x="667.804688" y="691.25" xlink:href="#k"/>
 </g>
</svg>
