<?xml version="1.0" encoding="UTF-8"?>
<svg width="700pt" height="700pt" version="1.1" viewBox="0 0 700 700" xmlns="http://www.w3.org/2000/svg" xmlns:xlink="http://www.w3.org/1999/xlink">
 <defs>
  <symbol id="m" overflow="visible">
   <path d="m29.312-1.75c-1.5117 0.78125-3.0898 1.3711-4.7344 1.7656-1.6367 0.40625-3.3398 0.60938-5.1094 0.60938-5.3125 0-9.5273-1.4844-12.641-4.4531-3.1055-2.9688-4.6562-7-4.6562-12.094s1.5508-9.125 4.6562-12.094c3.1133-2.9688 7.3281-4.4531 12.641-4.4531 1.7695 0 3.4727 0.19922 5.1094 0.59375 1.6445 0.39844 3.2227 0.99219 4.7344 1.7812v6.5938c-1.5312-1.0391-3.0391-1.8008-4.5156-2.2812-1.4805-0.48828-3.0391-0.73438-4.6719-0.73438-2.9375 0-5.2461 0.94531-6.9219 2.8281-1.6797 1.875-2.5156 4.4648-2.5156 7.7656 0 3.293 0.83594 5.8828 2.5156 7.7656 1.6758 1.875 3.9844 2.8125 6.9219 2.8125 1.6328 0 3.1914-0.23828 4.6719-0.71875 1.4766-0.48828 2.9844-1.2539 4.5156-2.2969z"/>
  </symbol>
  <symbol id="b" overflow="visible">
   <path d="m21.453-17.406c-0.67969-0.3125-1.3516-0.53906-2.0156-0.6875-0.65625-0.15625-1.3203-0.23438-1.9844-0.23438-1.9688 0-3.4844 0.63281-4.5469 1.8906-1.0547 1.2617-1.5781 3.0703-1.5781 5.4219v11.016h-7.6562v-23.922h7.6562v3.9219c0.97656-1.5625 2.1016-2.7031 3.375-3.4219 1.2812-0.71875 2.8125-1.0781 4.5938-1.0781 0.25 0 0.52344 0.011719 0.82812 0.03125 0.30078 0.023438 0.73438 0.070312 1.2969 0.14062z"/>
  </symbol>
  <symbol id="a" overflow="visible">
   <path d="m27.562-12.031v2.1875h-17.891c0.1875 1.793 0.83203 3.1367 1.9375 4.0312 1.1133 0.89844 2.6719 1.3438 4.6719 1.3438 1.6016 0 3.25-0.23438 4.9375-0.70312 1.6875-0.47656 3.4219-1.2031 5.2031-2.1719v5.8906c-1.8047 0.6875-3.6094 1.2031-5.4219 1.5469-1.8125 0.35156-3.6211 0.53125-5.4219 0.53125-4.3359 0-7.7031-1.0977-10.109-3.2969-2.3984-2.207-3.5938-5.2969-3.5938-9.2656 0-3.9062 1.1758-6.9727 3.5312-9.2031 2.3633-2.2383 5.6094-3.3594 9.7344-3.3594 3.7578 0 6.7695 1.1367 9.0312 3.4062 2.2578 2.2617 3.3906 5.2812 3.3906 9.0625zm-7.8594-2.5312c0-1.457-0.42969-2.6289-1.2812-3.5156-0.84375-0.89453-1.9492-1.3438-3.3125-1.3438-1.4922 0-2.6992 0.41797-3.625 1.25-0.91797 0.83594-1.4922 2.0391-1.7188 3.6094z"/>
  </symbol>
  <symbol id="i" overflow="visible">
   <path d="m14.391-10.766c-1.5938 0-2.793 0.27344-3.5938 0.8125-0.80469 0.54297-1.2031 1.3398-1.2031 2.3906 0 0.96875 0.32031 1.7305 0.96875 2.2812 0.64453 0.54297 1.5469 0.8125 2.7031 0.8125 1.4375 0 2.6445-0.51562 3.625-1.5469 0.98828-1.0312 1.4844-2.3203 1.4844-3.875v-0.875zm11.688-2.8906v13.656h-7.7031v-3.5469c-1.0312 1.4492-2.1875 2.5078-3.4688 3.1719s-2.8398 1-4.6719 1c-2.4805 0-4.4961-0.72266-6.0469-2.1719-1.543-1.4453-2.3125-3.3203-2.3125-5.625 0-2.8125 0.96094-4.8672 2.8906-6.1719 1.9375-1.3125 4.9688-1.9688 9.0938-1.9688h4.5156v-0.60938c0-1.207-0.48047-2.0938-1.4375-2.6562-0.94922-0.5625-2.4375-0.84375-4.4688-0.84375-1.6367 0-3.1562 0.16797-4.5625 0.5-1.4062 0.32422-2.7188 0.8125-3.9375 1.4688v-5.8281c1.6445-0.40625 3.2891-0.70703 4.9375-0.90625 1.6562-0.20703 3.3047-0.3125 4.9531-0.3125 4.3203 0 7.4375 0.85547 9.3438 2.5625 1.9141 1.6992 2.875 4.4609 2.875 8.2812z"/>
  </symbol>
  <symbol id="h" overflow="visible">
   <path d="m12.031-30.719v6.7969h7.875v5.4688h-7.875v10.141c0 1.1172 0.21875 1.8711 0.65625 2.2656 0.4375 0.38672 1.3125 0.57812 2.625 0.57812h3.9375v5.4688h-6.5625c-3.0234 0-5.1641-0.62891-6.4219-1.8906-1.2617-1.2578-1.8906-3.3984-1.8906-6.4219v-10.141h-3.7969v-5.4688h3.7969v-6.7969z"/>
  </symbol>
  <symbol id="g" overflow="visible">
   <path d="m19.953-20.422v-12.812h7.6875v33.234h-7.6875v-3.4531c-1.0547 1.4062-2.2148 2.4375-3.4844 3.0938-1.2734 0.65625-2.7422 0.98438-4.4062 0.98438-2.9492 0-5.3711-1.1719-7.2656-3.5156-1.8867-2.3438-2.8281-5.3594-2.8281-9.0469s0.94141-6.7031 2.8281-9.0469c1.8945-2.3438 4.3164-3.5156 7.2656-3.5156 1.6562 0 3.1172 0.33594 4.3906 1 1.2812 0.65625 2.4453 1.6836 3.5 3.0781zm-5.0469 15.484c1.6445 0 2.8945-0.59766 3.75-1.7969 0.86328-1.1953 1.2969-2.9297 1.2969-5.2031 0-2.2812-0.43359-4.0195-1.2969-5.2188-0.85547-1.1953-2.1055-1.7969-3.75-1.7969-1.625 0-2.8711 0.60156-3.7344 1.7969-0.85547 1.1992-1.2812 2.9375-1.2812 5.2188 0 2.2734 0.42578 4.0078 1.2812 5.2031 0.86328 1.1992 2.1094 1.7969 3.7344 1.7969z"/>
  </symbol>
  <symbol id="f" overflow="visible">
   <path d="m16.406-4.9375c1.6328 0 2.8828-0.59766 3.75-1.7969 0.86328-1.1953 1.2969-2.9297 1.2969-5.2031 0-2.2812-0.43359-4.0195-1.2969-5.2188-0.86719-1.1953-2.1172-1.7969-3.75-1.7969-1.6367 0-2.8906 0.60547-3.7656 1.8125-0.875 1.1992-1.3125 2.9336-1.3125 5.2031 0 2.2617 0.4375 3.9961 1.3125 5.2031 0.875 1.1992 2.1289 1.7969 3.7656 1.7969zm-5.0781-15.484c1.0508-1.3945 2.2188-2.4219 3.5-3.0781 1.2812-0.66406 2.7539-1 4.4219-1 2.9453 0 5.3672 1.1719 7.2656 3.5156 1.8945 2.3438 2.8438 5.3594 2.8438 9.0469s-0.94922 6.7031-2.8438 9.0469c-1.8984 2.3438-4.3203 3.5156-7.2656 3.5156-1.668 0-3.1406-0.33594-4.4219-1s-2.4492-1.6914-3.5-3.0781v3.4531h-7.6562v-33.234h7.6562z"/>
  </symbol>
  <symbol id="c" overflow="visible">
   <path d="m0.53125-23.922h7.6562l6.4219 16.234 5.4688-16.234h7.6562l-10.062 26.188c-1.0117 2.6641-2.1953 4.5234-3.5469 5.5781-1.3438 1.0625-3.1211 1.5938-5.3281 1.5938h-4.4219v-5.0156h2.3906c1.3008 0 2.2422-0.21094 2.8281-0.625 0.59375-0.40625 1.0547-1.1484 1.3906-2.2188l0.20312-0.65625z"/>
  </symbol>
  <symbol id="e" overflow="visible">
   <path d="m0.65625-23.922h7.6562l5.9531 16.531 5.9375-16.531h7.6719l-9.4219 23.922h-8.3906z"/>
  </symbol>
  <symbol id="l" overflow="visible">
   <path d="m11.328-3.4531v12.547h-7.6562v-33.016h7.6562v3.5c1.0508-1.3945 2.2188-2.4219 3.5-3.0781 1.2812-0.66406 2.7539-1 4.4219-1 2.9453 0 5.3672 1.1719 7.2656 3.5156 1.8945 2.3438 2.8438 5.3594 2.8438 9.0469s-0.94922 6.7031-2.8438 9.0469c-1.8984 2.3438-4.3203 3.5156-7.2656 3.5156-1.668 0-3.1406-0.33594-4.4219-1s-2.4492-1.6914-3.5-3.0781zm5.0781-15.5c-1.6367 0-2.8906 0.60547-3.7656 1.8125-0.875 1.1992-1.3125 2.9336-1.3125 5.2031 0 2.2617 0.4375 3.9961 1.3125 5.2031 0.875 1.1992 2.1289 1.7969 3.7656 1.7969 1.6328 0 2.8828-0.59766 3.75-1.7969 0.86328-1.1953 1.2969-2.9297 1.2969-5.2031 0-2.2812-0.43359-4.0195-1.2969-5.2188-0.86719-1.1953-2.1172-1.7969-3.75-1.7969z"/>
  </symbol>
  <symbol id="d" overflow="visible">
   <path d="m15.062-19.031c-1.6992 0-2.9961 0.60938-3.8906 1.8281-0.88672 1.2188-1.3281 2.9766-1.3281 5.2656 0 2.293 0.44141 4.0469 1.3281 5.2656 0.89453 1.2188 2.1914 1.8281 3.8906 1.8281 1.6641 0 2.9375-0.60938 3.8125-1.8281 0.88281-1.2188 1.3281-2.9727 1.3281-5.2656 0-2.2891-0.44531-4.0469-1.3281-5.2656-0.875-1.2188-2.1484-1.8281-3.8125-1.8281zm0-5.4688c4.1133 0 7.3281 1.1094 9.6406 3.3281s3.4688 5.2969 3.4688 9.2344c0 3.9297-1.1562 7.0078-3.4688 9.2344-2.3125 2.2188-5.5273 3.3281-9.6406 3.3281-4.1367 0-7.3711-1.1094-9.7031-3.3281-2.3242-2.2266-3.4844-5.3047-3.4844-9.2344 0-3.9375 1.1602-7.0156 3.4844-9.2344 2.332-2.2188 5.5664-3.3281 9.7031-3.3281z"/>
  </symbol>
  <symbol id="k" overflow="visible">
   <path d="m27.734-14.562v14.562h-7.7031v-11.156c0-2.0625-0.046875-3.4844-0.14062-4.2656-0.085937-0.78125-0.24219-1.3594-0.46875-1.7344-0.30469-0.5-0.71094-0.88281-1.2188-1.1562-0.51172-0.28125-1.0938-0.42188-1.75-0.42188-1.5938 0-2.8516 0.61719-3.7656 1.8438-0.90625 1.2305-1.3594 2.9375-1.3594 5.125v11.766h-7.6562v-23.922h7.6562v3.5c1.1445-1.3945 2.3633-2.4219 3.6562-3.0781 1.3008-0.66406 2.7383-1 4.3125-1 2.7578 0 4.8516 0.85156 6.2812 2.5469 1.4375 1.6875 2.1562 4.1523 2.1562 7.3906z"/>
  </symbol>
  <symbol id="j" overflow="visible">
   <path d="m25.844-19.953c0.96875-1.4766 2.1172-2.6016 3.4531-3.375 1.332-0.78125 2.7969-1.1719 4.3906-1.1719 2.75 0 4.8438 0.85156 6.2812 2.5469 1.4375 1.6875 2.1562 4.1523 2.1562 7.3906v14.562h-7.6875v-12.469c0.007812-0.1875 0.019531-0.37891 0.03125-0.57812 0.007812-0.19531 0.015625-0.48438 0.015625-0.85938 0-1.6953-0.25-2.9258-0.75-3.6875-0.5-0.75781-1.3086-1.1406-2.4219-1.1406-1.4492 0-2.5703 0.60156-3.3594 1.7969-0.79297 1.1992-1.2031 2.9297-1.2344 5.1875v11.75h-7.6875v-12.469c0-2.6562-0.23047-4.3633-0.6875-5.125-0.44922-0.75781-1.2578-1.1406-2.4219-1.1406-1.4688 0-2.6055 0.60547-3.4062 1.8125-0.79297 1.1992-1.1875 2.918-1.1875 5.1562v11.766h-7.7031v-23.922h7.7031v3.5c0.9375-1.3516 2.0156-2.3672 3.2344-3.0469 1.2188-0.6875 2.5547-1.0312 4.0156-1.0312 1.6562 0 3.1133 0.40234 4.375 1.2031 1.2695 0.79297 2.2344 1.9062 2.8906 3.3438z"/>
  </symbol>
 </defs>
 <g>
  <path d="m413.87 190.12c-1.9766-5.3008-3.1953-11.219-3.1953-17.57 0-21.27 25-37.625 26.066-38.309 1.4453-0.92578 3.2969-0.92578 4.7422 0 1.0664 0.69141 26.066 17.035 26.066 38.309 0 6.8242-1.3984 13.141-3.6484 18.734 22.609-8.0508 36.617-19.922 41.547-35.445 8.2773-26.074-10.816-55.535-16.469-63.453-10.316 2.3711-21.402 11.602-21.523 11.707-1.4102 1.1719-3.4023 1.3555-4.9883 0.44531-1.582-0.91016-2.4414-2.7227-2.1445-4.5234 5.5664-32.812-13.16-59.578-20.43-68.52-51.504 46.961-74.875 85.75-69.457 115.35 4.6172 25.23 29.59 37.602 43.434 43.273zm15.074-110.93c1.8125-1.5938 4.5664-1.4102 6.168 0.41016 1.5938 1.8203 1.4102 4.5781-0.40234 6.168-0.31641 0.26953-30.852 27.641-27.555 70.016 0.18359 2.4062-1.6172 4.5156-4.0234 4.6992-0.11328 0.007813-0.22656 0.007813-0.33984 0.007813-2.2656 0-4.1836-1.7422-4.3594-4.0352-3.6484-46.84 29.121-76.047 30.512-77.266z"/>
  <path d="m251.77 176.18c0 8.8008 4.5586 16.238 9.9492 16.238s9.9492-7.4375 9.9492-16.238c0-6.0117-5.8984-12.004-9.9414-15.207-4.043 3.2227-9.957 9.2305-9.957 15.207z"/>
  <path d="m439.14 143.27c-5.6875 4.2422-19.715 16.074-19.715 29.285 0 16.406 9.0117 30.258 19.688 30.258 10.676 0 19.688-13.852 19.688-30.258 0-12.199-12.555-24.027-19.66-29.285z"/>
  <path d="m558.48 211.5c-1.8281-24.43-21.227-45.535-44.152-48.055-0.83984-0.097657-1.5391-0.47266-2.1602-0.95312-7.4531 17.945-25.141 31.246-52.859 39.516 1.582 0.88281 2.5469 2.6523 2.2148 4.5312-0.28125 1.6367-0.48828 3.2812-0.61328 4.9609l-9.6406 128.26c-0.95312 12.695 3.125 24.656 11.488 33.672 8.3633 9.0117 19.984 13.984 32.715 13.984h5.4688v94.84h8.75v-94.84h14.219c12.73 0 24.352-4.9609 32.715-13.984 8.3633-9.0117 12.441-20.973 11.488-33.672zm-37.617 98.676-10.395 3.832c-0.5 0.18359-1.0078 0.26953-1.5156 0.26953-1.7852 0-3.457-1.0938-4.1055-2.8594-0.72656-1.9766 0.0625-4.1406 1.7773-5.2148l-5.6875-2.0195c-1.75-0.62109-2.9141-2.2656-2.9141-4.1211v-6.9492l-3.7266 3.168c-1.043 0.89062-2.4414 1.2344-3.7812 0.9375-1.3398-0.29688-2.457-1.207-3.0273-2.4492l-1.3203-2.8867-1.4688 4.5859c-0.57812 1.8125-2.2656 3.0352-4.1641 3.0352h-2.3789l3.0625 3.832c1.5039 1.8906 1.1992 4.6367-0.68359 6.1523-1.8906 1.5156-4.6367 1.1914-6.1523-0.68359l-8.75-10.938c-1.0508-1.3125-1.25-3.1133-0.52344-4.6289 0.72656-1.5156 2.2578-2.4766 3.9453-2.4766h8.2969l3.9453-12.277c0.55078-1.7227 2.1016-2.9219 3.9023-3.0273 1.9062-0.085938 3.4844 0.91016 4.2344 2.5469l3.6055 7.875 6.5352-5.5547c1.2969-1.1211 3.1055-1.3633 4.6719-0.64062 1.5469 0.71875 2.5391 2.2656 2.5391 3.9727v13.316l14.035 4.9805c1.7422 0.61328 2.9062 2.2578 2.9141 4.0938 0.007812 1.8359-1.1367 3.4883-2.8711 4.1289zm29.438-55.066c-1.5039 1.8828-4.2539 2.2031-6.1523 0.68359-1.8828-1.5156-2.1875-4.2617-0.68359-6.1523l3.0625-3.832h-2.3789c-1.8984 0-3.5859-1.2266-4.1641-3.0352l-1.4688-4.5859-1.3203 2.8867c-0.57031 1.2422-1.6875 2.1523-3.0273 2.4492-1.3477 0.28906-2.7383-0.050782-3.7812-0.9375l-3.7266-3.168v6.9492c0 1.8555-1.1641 3.5-2.9141 4.1211l-5.6875 2.0195c1.7148 1.0781 2.5039 3.2383 1.7773 5.2148-0.65625 1.7656-2.3281 2.8594-4.1055 2.8594-0.50781 0-1.0156-0.085938-1.5156-0.26953l-10.395-3.832c-1.7344-0.64062-2.8789-2.293-2.8594-4.1289 0.015625-1.8359 1.1719-3.4844 2.9141-4.0938l14.035-4.9805v-13.316c0-1.707 0.98828-3.2539 2.5391-3.9727 1.5469-0.72656 3.3672-0.47266 4.6719 0.64062l6.5352 5.5547 3.6055-7.875c0.75391-1.6367 2.4219-2.6328 4.2344-2.5469 1.8008 0.10547 3.3516 1.3047 3.9023 3.0273l3.9453 12.277 8.2852 0.003907c1.6797 0 3.2109 0.96094 3.9453 2.4766 0.72656 1.5156 0.52344 3.3164-0.52344 4.6289z"/>
  <path d="m243.9 183.48c-0.51563-2.3203-0.875-4.7344-0.875-7.2969 0-13.613 15.664-23.859 16.328-24.289 1.4453-0.92578 3.2969-0.92578 4.7422 0 0.66406 0.42969 16.328 10.676 16.328 24.289 0 2.8789-0.42188 5.582-1.0664 8.1367 10.859-4.5234 17.676-10.746 20.168-18.609 4.3906-13.852-4.9961-29.566-8.8555-35.211-4.4453 1.3906-9.2383 4.8555-10.938 6.2812-1.4102 1.1719-3.4141 1.3555-4.9883 0.45312-1.5938-0.91016-2.4492-2.7227-2.1445-4.5312 2.9414-17.359-5.9219-31.719-10.613-37.895-28.797 26.59-42.41 49.27-39.391 65.746 2.2188 12.25 13.219 19.172 21.305 22.926zm10.594-64.199c1.8203-1.6016 4.5781-1.3984 6.1602 0.41016 1.5938 1.8125 1.418 4.5781-0.39453 6.168-0.18359 0.15625-17.703 15.926-15.801 40.215 0.18359 2.4062-1.6094 4.5156-4.0156 4.707-0.11328 0.007812-0.22656 0.007812-0.35156 0.007812-2.2578 0-4.1836-1.7422-4.3594-4.0352-2.2461-28.766 17.906-46.723 18.762-47.473z"/>
  <path d="m299.42 183.23c-0.39453 1.9609-0.66406 3.9648-0.8125 5.9922l-10.582 140.66c-0.95313 12.695 3.125 24.648 11.488 33.66 8.3633 9.0117 19.984 13.984 32.715 13.984h13.387v104.75h8.75l0.003907-95.996v-8.75h13.387c12.738 0 24.359-4.9609 32.715-13.984 8.3633-9.0117 12.441-20.965 11.488-33.66l-1.9258-25.645c-0.26953 0.17578-0.4375 0.46484-0.74219 0.57812l-10.395 3.832c-0.5 0.18359-1.0078 0.26953-1.5156 0.26953-1.7852 0-3.457-1.0938-4.1055-2.8594-0.72656-1.9766 0.0625-4.1406 1.7773-5.2148l-5.6875-2.0195c-1.75-0.62109-2.9141-2.2656-2.9141-4.1211v-6.9492l-3.7266 3.168c-1.0508 0.88281-2.4336 1.2266-3.7812 0.9375-1.3398-0.29687-2.457-1.207-3.0273-2.4492l-1.3203-2.8867-1.4688 4.5859c-0.57812 1.8125-2.2656 3.0352-4.1641 3.0352h-2.3789l3.0625 3.832c1.5039 1.8906 1.1992 4.6367-0.68359 6.1523-1.8906 1.5039-4.6445 1.1992-6.1523-0.68359l-8.75-10.938c-1.0508-1.3125-1.25-3.1133-0.52344-4.6289 0.72656-1.5156 2.2578-2.4766 3.9453-2.4766h8.2969l3.9453-12.277c0.55078-1.7227 2.1016-2.9219 3.9023-3.0273 1.9414-0.078125 3.4844 0.91016 4.2344 2.5469l3.6055 7.875 6.5352-5.5547c1.2969-1.1094 3.1055-1.3555 4.6719-0.64062 1.5469 0.71875 2.5391 2.2656 2.5391 3.9727v13.316l14.035 4.9805c0.097656 0.035156 0.14062 0.14062 0.22656 0.17578l-7.6992-102.52c-15.207-7.5352-35.5-21.473-39.953-45.832-0.35937-1.9766-0.59375-3.9805-0.73437-6.0195-19.059-4.4727-39.602 3.2969-51.957 19.609-0.22656 2.1172-0.60547 4.2422-1.2773 6.3516-1.6094 5.0586-4.4609 9.5391-8.4531 13.465 0.070312 0.44922 0.10547 0.92188 0.019531 1.4062zm14.848 49.996 14.035-4.9805v-13.316c0-1.707 0.98828-3.2539 2.5391-3.9727 1.5469-0.72656 3.3672-0.47266 4.6719 0.64062l6.5352 5.5547 3.6055-7.875c0.75391-1.6367 2.3438-2.6328 4.2344-2.5469 1.8008 0.10547 3.3516 1.3047 3.9023 3.0273l3.9453 12.277h8.2969c1.6797 0 3.2109 0.96094 3.9453 2.4766 0.72656 1.5156 0.52344 3.3164-0.52344 4.6289l-8.75 10.938c-1.5039 1.8828-4.2617 2.2031-6.1523 0.68359-1.8828-1.5156-2.1875-4.2617-0.68359-6.1523l3.0625-3.832h-2.3789c-1.8984 0-3.5859-1.2266-4.1641-3.0352l-1.4688-4.5859-1.3203 2.8867c-0.57031 1.2422-1.6875 2.1523-3.0273 2.4492-1.3555 0.28906-2.7383-0.050781-3.7812-0.9375l-3.7266-3.168v6.9492c0 1.8555-1.1641 3.5-2.9141 4.1211l-5.6875 2.0195c1.7148 1.0781 2.5039 3.2383 1.7773 5.2148-0.65625 1.7656-2.3281 2.8594-4.1055 2.8594-0.50781 0-1.0156-0.085937-1.5156-0.26953l-10.395-3.832c-1.7344-0.64062-2.8789-2.293-2.8594-4.1289 0.015625-1.8359 1.1602-3.4805 2.9023-4.0938z"/>
  <path d="m180.47 382.63h9.8438v99.629h8.75v-99.629h9.8438c12.73 0 24.352-4.9609 32.715-13.984 8.3633-9.0117 12.441-20.973 11.488-33.672l-9.6406-128.26c-0.40234-5.3359-1.7148-10.535-3.7031-15.523-9.2227-4.3906-22.172-12.863-25.48-28.035-6.2305-3.0703-12.934-4.75-19.555-4.75h-0.042969c-24.902 0-46.797 21.672-48.789 48.309l-9.6328 128.27c-0.95312 12.695 3.125 24.656 11.488 33.672 8.3633 9.0117 19.984 13.973 32.715 13.973zm6.0273-143.08c0.72656-1.5156 2.2578-2.4766 3.9453-2.4766h8.2969l3.9453-12.277c0.55078-1.7227 2.1016-2.9219 3.9023-3.0273 1.8633-0.10547 3.4844 0.91016 4.2344 2.5469l3.6055 7.875 6.5352-5.5547c1.2969-1.1094 3.1133-1.3633 4.6719-0.64062 1.5469 0.71875 2.5391 2.2656 2.5391 3.9727v13.316l14.035 4.9805c1.7422 0.61328 2.9062 2.2578 2.9141 4.0938 0.007812 1.8359-1.1289 3.4922-2.8594 4.1289l-10.387 3.8281c-0.5 0.18359-1.0078 0.26953-1.5156 0.26953-1.7852 0-3.457-1.0938-4.1055-2.8594-0.72656-1.9766 0.0625-4.1406 1.7773-5.2148l-5.6875-2.0195c-1.75-0.62109-2.9141-2.2656-2.9141-4.1211v-6.9492l-3.7266 3.168c-1.0508 0.89062-2.4219 1.2344-3.7812 0.9375-1.3398-0.29688-2.457-1.207-3.0273-2.4492l-1.3203-2.8867-1.4688 4.5859c-0.57812 1.8125-2.2656 3.0352-4.1641 3.0352h-2.3789l3.0625 3.832c1.5039 1.8906 1.1992 4.6367-0.68359 6.1523-1.8906 1.5156-4.6367 1.1992-6.1523-0.68359l-8.75-10.938c-1.0664-1.3086-1.2695-3.1094-0.54297-4.625zm-46.496 61.121c0.007812-1.8359 1.1719-3.4844 2.9141-4.0938l14.035-4.9805v-13.316c0-1.707 0.98828-3.2539 2.5391-3.9727 1.5469-0.71875 3.3672-0.47266 4.6719 0.64062l6.5352 5.5547 3.6055-7.875c0.75391-1.6367 2.3711-2.6172 4.2344-2.5469 1.8008 0.10547 3.3516 1.3047 3.9023 3.0273l3.9453 12.277h8.2969c1.6797 0 3.2109 0.96094 3.9453 2.4766 0.72656 1.5156 0.52344 3.3164-0.52344 4.6289l-8.75 10.938c-1.5156 1.8828-4.2617 2.1953-6.1523 0.68359-1.8828-1.5156-2.1875-4.2617-0.68359-6.1523l3.0625-3.832h-2.3789c-1.8984 0-3.5859-1.2266-4.1641-3.0352l-1.4688-4.5859-1.3203 2.8867c-0.57031 1.2422-1.6875 2.1523-3.0273 2.4492-1.3477 0.28125-2.7383-0.050782-3.7812-0.9375l-3.7266-3.168v6.9492c0 1.8555-1.1641 3.5-2.9141 4.1211l-5.6875 2.0195c1.7148 1.0781 2.5039 3.2383 1.7773 5.2148-0.65625 1.7656-2.3281 2.8594-4.1055 2.8594-0.50781 0-1.0156-0.085938-1.5156-0.26953l-10.395-3.832c-1.7422-0.62891-2.8789-2.2812-2.8711-4.1289z"/>
  <path d="m536.67 491.01h-373.34c-10.859 0-19.688 8.8281-19.688 19.688 0 10.859 8.8281 19.688 19.688 19.688h373.34c10.859 0 19.688-8.8281 19.688-19.688 0-10.859-8.8281-19.688-19.688-19.688z"/>
  <path d="m382.63 57.883c1.375 0 2.7227-0.64062 3.5781-1.8477l15.496-21.875c1.3984-1.9766 0.92578-4.707-1.043-6.0977-1.9766-1.3984-4.6992-0.9375-6.0977 1.043l-15.496 21.875c-1.3984 1.9766-0.92578 4.707 1.043 6.0977 0.76172 0.53906 1.6445 0.80469 2.5195 0.80469z"/>
  <path d="m289.03 90.039c0.65625 1.7578 2.3281 2.8438 4.0938 2.8438 0.50781 0 1.0312-0.085937 1.5312-0.28125 2.2656-0.84766 3.4141-3.3672 2.5625-5.6367l-6.957-18.586c-0.84766-2.2578-3.3672-3.4141-5.6367-2.5625-2.2656 0.84766-3.4141 3.3672-2.5625 5.6367z"/>
  <use x="70" y="691.25" xlink:href="#m"/>
  <use x="102.109375" y="691.25" xlink:href="#b"/>
  <use x="123.683594" y="691.25" xlink:href="#a"/>
  <use x="153.355469" y="691.25" xlink:href="#i"/>
  <use x="182.878906" y="691.25" xlink:href="#h"/>
  <use x="203.792969" y="691.25" xlink:href="#a"/>
  <use x="233.464844" y="691.25" xlink:href="#g"/>
  <use x="280.011719" y="691.25" xlink:href="#f"/>
  <use x="311.328125" y="691.25" xlink:href="#c"/>
  <use x="355.078125" y="691.25" xlink:href="#e"/>
  <use x="383.597656" y="691.25" xlink:href="#a"/>
  <use x="413.269531" y="691.25" xlink:href="#b"/>
  <use x="434.847656" y="691.25" xlink:href="#b"/>
  <use x="456.421875" y="691.25" xlink:href="#c"/>
  <use x="500.171875" y="691.25" xlink:href="#l"/>
  <use x="531.488281" y="691.25" xlink:href="#d"/>
  <use x="561.546875" y="691.25" xlink:href="#a"/>
  <use x="591.21875" y="691.25" xlink:href="#b"/>
  <use x="612.792969" y="691.25" xlink:href="#k"/>
  <use x="643.941406" y="691.25" xlink:href="#d"/>
  <use x="673.996094" y="691.25" xlink:href="#j"/>
 </g>
</svg>
