<?xml version="1.0" encoding="UTF-8"?>
<svg width="700pt" height="700pt" version="1.1" viewBox="0 0 700 700" xmlns="http://www.w3.org/2000/svg" xmlns:xlink="http://www.w3.org/1999/xlink">
 <defs>
  <symbol id="h" overflow="visible">
   <path d="m3.6562-0.21875c-0.1875 0.09375-0.38672 0.16797-0.59375 0.21875-0.19922 0.050781-0.40625 0.078125-0.625 0.078125-0.66797 0-1.1992-0.17969-1.5938-0.54688-0.38672-0.375-0.57812-0.87891-0.57812-1.5156 0-0.64453 0.19141-1.1484 0.57812-1.5156 0.39453-0.375 0.92578-0.5625 1.5938-0.5625 0.21875 0 0.42578 0.027344 0.625 0.078125 0.20703 0.054687 0.40625 0.125 0.59375 0.21875v0.82812c-0.1875-0.125-0.375-0.21875-0.5625-0.28125-0.17969-0.0625-0.37109-0.09375-0.57812-0.09375-0.36719 0-0.65625 0.12109-0.875 0.35938-0.21094 0.23047-0.3125 0.55469-0.3125 0.96875 0 0.40625 0.10156 0.73047 0.3125 0.96875 0.21875 0.23047 0.50781 0.34375 0.875 0.34375 0.20703 0 0.39844-0.023437 0.57812-0.078125 0.1875-0.0625 0.375-0.16016 0.5625-0.29688z"/>
  </symbol>
  <symbol id="d" overflow="visible">
   <path d="m2.6875-2.1719c-0.085938-0.039063-0.16797-0.070313-0.25-0.09375-0.085938-0.019531-0.16797-0.03125-0.25-0.03125-0.25 0-0.44531 0.085937-0.57812 0.25-0.125 0.15625-0.1875 0.38281-0.1875 0.67188v1.375h-0.96875v-2.9844h0.96875v0.48438c0.11328-0.19531 0.25-0.33594 0.40625-0.42188 0.16406-0.09375 0.35938-0.14062 0.57812-0.14062h0.10938c0.039063 0 0.09375 0.007812 0.15625 0.015625z"/>
  </symbol>
  <symbol id="c" overflow="visible">
   <path d="m3.4375-1.5v0.26562h-2.2344c0.03125 0.23047 0.11328 0.40234 0.25 0.51562 0.13281 0.10547 0.32812 0.15625 0.57812 0.15625 0.20703 0 0.41406-0.023438 0.625-0.078125 0.20703-0.0625 0.42188-0.15625 0.64062-0.28125v0.73438c-0.21875 0.09375-0.44531 0.16406-0.67188 0.20312-0.23047 0.039062-0.45312 0.0625-0.67188 0.0625-0.54297 0-0.96484-0.13281-1.2656-0.40625-0.30469-0.28125-0.45312-0.67188-0.45312-1.1719 0-0.47656 0.14453-0.85938 0.4375-1.1406 0.30078-0.28125 0.70703-0.42188 1.2188-0.42188 0.46875 0 0.84375 0.14062 1.125 0.42188s0.42188 0.66406 0.42188 1.1406zm-0.96875-0.32812c0-0.17578-0.058594-0.31641-0.17188-0.42188-0.10547-0.11328-0.24219-0.17188-0.40625-0.17188-0.1875 0-0.33984 0.054687-0.45312 0.15625-0.11719 0.10547-0.1875 0.25-0.21875 0.4375z"/>
  </symbol>
  <symbol id="e" overflow="visible">
   <path d="m1.7969-1.3438c-0.19922 0-0.35156 0.039062-0.45312 0.10938-0.09375 0.0625-0.14062 0.16406-0.14062 0.29688 0 0.11719 0.035156 0.21094 0.10938 0.28125 0.082031 0.0625 0.19531 0.09375 0.34375 0.09375 0.17578 0 0.32812-0.0625 0.45312-0.1875s0.1875-0.28516 0.1875-0.48438v-0.10938zm1.4688-0.35938v1.7031h-0.96875v-0.4375c-0.125 0.17969-0.27344 0.30859-0.4375 0.39062-0.15625 0.082031-0.35156 0.125-0.57812 0.125-0.3125 0-0.57031-0.085938-0.76562-0.26562-0.1875-0.1875-0.28125-0.42188-0.28125-0.70312 0-0.35156 0.11719-0.61328 0.35938-0.78125 0.23828-0.16406 0.61719-0.25 1.1406-0.25h0.5625v-0.0625c0-0.15625-0.0625-0.26562-0.1875-0.32812-0.11719-0.070312-0.29688-0.10938-0.54688-0.10938-0.21094 0-0.40234 0.023437-0.57812 0.0625-0.17969 0.042969-0.33984 0.10156-0.48438 0.17188v-0.71875c0.19531-0.050781 0.39844-0.085938 0.60938-0.10938 0.20703-0.03125 0.41406-0.046875 0.625-0.046875 0.53906 0 0.92969 0.10938 1.1719 0.32812 0.23828 0.21094 0.35938 0.55469 0.35938 1.0312z"/>
  </symbol>
  <symbol id="b" overflow="visible">
   <path d="m1.5-3.8438v0.85938h0.98438v0.67188h-0.98438v1.2812c0 0.13672 0.023438 0.23047 0.078125 0.28125 0.0625 0.042969 0.17578 0.0625 0.34375 0.0625h0.48438v0.6875h-0.8125c-0.38672 0-0.65625-0.078125-0.8125-0.23438s-0.23438-0.42188-0.23438-0.79688v-1.2812h-0.46875v-0.67188h0.46875v-0.85938z"/>
  </symbol>
  <symbol id="l" overflow="visible">
   <path d="m2.5-2.5469v-1.6094h0.95312v4.1562h-0.95312v-0.4375c-0.13672 0.17969-0.28125 0.30859-0.4375 0.39062-0.15625 0.082031-0.33984 0.125-0.54688 0.125-0.375 0-0.68359-0.14453-0.92188-0.4375-0.23047-0.28906-0.34375-0.67188-0.34375-1.1406 0-0.45703 0.11328-0.83203 0.34375-1.125 0.23828-0.28906 0.54688-0.4375 0.92188-0.4375 0.19531 0 0.375 0.042969 0.53125 0.125 0.16406 0.085938 0.31641 0.21484 0.45312 0.39062zm-0.64062 1.9375c0.20703 0 0.36328-0.070313 0.46875-0.21875 0.11328-0.15625 0.17188-0.37891 0.17188-0.67188 0-0.28125-0.058594-0.49219-0.17188-0.64062-0.10547-0.15625-0.26172-0.23438-0.46875-0.23438-0.19922 0-0.35547 0.078125-0.46875 0.23438-0.10547 0.14844-0.15625 0.35938-0.15625 0.64062 0 0.29297 0.050781 0.51562 0.15625 0.67188 0.11328 0.14844 0.26953 0.21875 0.46875 0.21875z"/>
  </symbol>
  <symbol id="k" overflow="visible">
   <path d="m2.0469-0.60938c0.20703 0 0.36328-0.070313 0.46875-0.21875 0.11328-0.15625 0.17188-0.37891 0.17188-0.67188 0-0.28125-0.058594-0.49219-0.17188-0.64062-0.10547-0.15625-0.26172-0.23438-0.46875-0.23438-0.19922 0-0.35547 0.078125-0.46875 0.23438-0.10547 0.14844-0.15625 0.35938-0.15625 0.64062 0 0.29297 0.050781 0.51562 0.15625 0.67188 0.11328 0.14844 0.26953 0.21875 0.46875 0.21875zm-0.625-1.9375c0.125-0.17578 0.26562-0.30469 0.42188-0.39062 0.16406-0.082031 0.35156-0.125 0.5625-0.125 0.36328 0 0.66406 0.14844 0.90625 0.4375 0.23828 0.29297 0.35938 0.66797 0.35938 1.125 0 0.46875-0.12109 0.85156-0.35938 1.1406-0.24219 0.29297-0.54297 0.4375-0.90625 0.4375-0.21094 0-0.39844-0.042969-0.5625-0.125-0.15625-0.082031-0.29688-0.21094-0.42188-0.39062v0.4375h-0.96875v-4.1562h0.96875z"/>
  </symbol>
  <symbol id="j" overflow="visible">
   <path d="m0.0625-2.9844h0.95312l0.8125 2.0156 0.6875-2.0156h0.95312l-1.2656 3.2656c-0.125 0.33203-0.27344 0.56641-0.4375 0.70312-0.16797 0.13281-0.39062 0.20312-0.67188 0.20312h-0.54688v-0.64062h0.29688c0.16406 0 0.28516-0.027344 0.35938-0.078125 0.070313-0.054688 0.12891-0.14062 0.17188-0.26562l0.03125-0.09375z"/>
  </symbol>
  <symbol id="i" overflow="visible">
   <path d="m0.5-3.9844h2.7812v0.78125h-1.75v0.73438h1.6406v0.78125h-1.6406v1.6875h-1.0312z"/>
  </symbol>
  <symbol id="g" overflow="visible">
   <path d="m3.4688-1.8281v1.8281h-0.96875v-1.3906c0-0.25781-0.007812-0.4375-0.015625-0.53125-0.011719-0.10156-0.03125-0.17578-0.0625-0.21875-0.03125-0.0625-0.085937-0.10938-0.15625-0.14062-0.0625-0.039062-0.13281-0.0625-0.20312-0.0625-0.21094 0-0.37109 0.078125-0.48438 0.23438-0.10547 0.15625-0.15625 0.37109-0.15625 0.64062v1.4688h-0.96875v-2.9844h0.96875v0.4375c0.13281-0.17578 0.28516-0.30469 0.45312-0.39062 0.16406-0.082031 0.34375-0.125 0.53125-0.125 0.34375 0 0.60156 0.10938 0.78125 0.32812 0.1875 0.21094 0.28125 0.51172 0.28125 0.90625z"/>
  </symbol>
  <symbol id="a" overflow="visible">
   <path d="m1.875-2.375c-0.21094 0-0.37109 0.078125-0.48438 0.23438-0.10547 0.14844-0.15625 0.35938-0.15625 0.64062 0 0.29297 0.050781 0.51562 0.15625 0.67188 0.11328 0.14844 0.27344 0.21875 0.48438 0.21875 0.20703 0 0.36719-0.070313 0.48438-0.21875 0.11328-0.15625 0.17188-0.37891 0.17188-0.67188 0-0.28125-0.058594-0.49219-0.17188-0.64062-0.11719-0.15625-0.27734-0.23438-0.48438-0.23438zm0-0.6875c0.51953 0 0.92188 0.14062 1.2031 0.42188 0.28906 0.27344 0.4375 0.65234 0.4375 1.1406 0 0.5-0.14844 0.89062-0.4375 1.1719-0.28125 0.27344-0.68359 0.40625-1.2031 0.40625-0.51172 0-0.91406-0.13281-1.2031-0.40625-0.29297-0.28125-0.4375-0.67188-0.4375-1.1719 0-0.48828 0.14453-0.86719 0.4375-1.1406 0.28906-0.28125 0.69141-0.42188 1.2031-0.42188z"/>
  </symbol>
  <symbol id="f" overflow="visible">
   <path d="m0.42188-1.1719v-1.8125h0.96875v0.29688 0.60938 0.48438c0 0.24219 0.003906 0.41797 0.015625 0.53125 0.007812 0.10547 0.03125 0.17969 0.0625 0.21875 0.039062 0.0625 0.09375 0.11719 0.15625 0.15625 0.0625 0.03125 0.13281 0.046875 0.21875 0.046875 0.19531 0 0.35156-0.078125 0.46875-0.23438 0.11328-0.15625 0.17188-0.36719 0.17188-0.64062v-1.4688h0.95312v2.9844h-0.95312v-0.4375c-0.14844 0.17969-0.30469 0.30859-0.46875 0.39062-0.15625 0.082031-0.33594 0.125-0.53125 0.125-0.34375 0-0.60938-0.10156-0.79688-0.3125-0.17969-0.21875-0.26562-0.53125-0.26562-0.9375z"/>
  </symbol>
  <symbol id="s" overflow="visible">
   <path d="m2.4219-4.1562v0.625h-0.51562c-0.13672 0-0.23438 0.027344-0.29688 0.078125-0.054687 0.054687-0.078125 0.13672-0.078125 0.25v0.21875h0.82812v0.67188h-0.82812v2.3125h-0.95312v-2.3125h-0.46875v-0.67188h0.46875v-0.21875c0-0.32031 0.085937-0.5625 0.26562-0.71875 0.1875-0.15625 0.47266-0.23438 0.85938-0.23438z"/>
  </symbol>
  <symbol id="r" overflow="visible">
   <path d="m3.2344-2.5c0.11328-0.17578 0.25391-0.3125 0.42188-0.40625 0.16406-0.10156 0.35156-0.15625 0.5625-0.15625 0.33203 0 0.58594 0.10938 0.76562 0.32812 0.1875 0.21094 0.28125 0.51172 0.28125 0.90625v1.8281h-0.96875v-1.5625c0.007813-0.019531 0.015625-0.039062 0.015625-0.0625v-0.10938c0-0.21875-0.03125-0.375-0.09375-0.46875s-0.16406-0.14062-0.29688-0.14062c-0.1875 0-0.33594 0.078125-0.4375 0.23438-0.09375 0.14844-0.14062 0.35938-0.14062 0.64062v1.4688h-0.96875v-1.5625c0-0.33203-0.03125-0.54688-0.09375-0.64062-0.054688-0.09375-0.15234-0.14062-0.29688-0.14062-0.17969 0-0.32031 0.078125-0.42188 0.23438-0.09375 0.14844-0.14062 0.35938-0.14062 0.64062v1.4688h-0.96875v-2.9844h0.96875v0.4375c0.11328-0.17578 0.24219-0.30469 0.39062-0.39062 0.15625-0.082031 0.32812-0.125 0.51562-0.125 0.20703 0 0.39062 0.054688 0.54688 0.15625 0.15625 0.09375 0.27344 0.23047 0.35938 0.40625z"/>
  </symbol>
  <symbol id="q" overflow="visible">
   <path d="m3.4688-1.8281v1.8281h-0.96875v-1.3906c0-0.25781-0.007812-0.4375-0.015625-0.53125-0.011719-0.10156-0.03125-0.17578-0.0625-0.21875-0.03125-0.0625-0.085937-0.10938-0.15625-0.14062-0.0625-0.039062-0.13281-0.0625-0.20312-0.0625-0.21094 0-0.37109 0.078125-0.48438 0.23438-0.10547 0.15625-0.15625 0.37109-0.15625 0.64062v1.4688h-0.96875v-4.1562h0.96875v1.6094c0.13281-0.17578 0.28516-0.30469 0.45312-0.39062 0.16406-0.082031 0.34375-0.125 0.53125-0.125 0.34375 0 0.60156 0.10938 0.78125 0.32812 0.1875 0.21094 0.28125 0.51172 0.28125 0.90625z"/>
  </symbol>
  <symbol id="p" overflow="visible">
   <path d="m0.5-3.9844h1.1562l1.4375 2.7344v-2.7344h0.98438v3.9844h-1.1562l-1.4375-2.7344v2.7344h-0.98438z"/>
  </symbol>
  <symbol id="o" overflow="visible">
   <path d="m0.5-3.9844h1.7031c0.50781 0 0.89844 0.11719 1.1719 0.34375 0.26953 0.21875 0.40625 0.53906 0.40625 0.95312 0 0.41797-0.13672 0.74219-0.40625 0.96875-0.27344 0.21875-0.66406 0.32812-1.1719 0.32812h-0.67188v1.3906h-1.0312zm1.0312 0.75v1.1094h0.5625c0.19531 0 0.34766-0.046875 0.45312-0.14062 0.11328-0.10156 0.17188-0.24219 0.17188-0.42188 0-0.17578-0.058594-0.3125-0.17188-0.40625-0.10547-0.09375-0.25781-0.14062-0.45312-0.14062z"/>
  </symbol>
  <symbol id="n" overflow="visible">
   <path d="m0.45312-2.9844h0.96875v2.9375c0 0.39453-0.10156 0.69531-0.29688 0.90625-0.1875 0.21875-0.46484 0.32812-0.82812 0.32812h-0.48438v-0.64062h0.17188c0.17578 0 0.29688-0.042969 0.35938-0.125 0.070312-0.074219 0.10938-0.23047 0.10938-0.46875zm0-1.1719h0.96875v0.78125h-0.96875z"/>
  </symbol>
  <symbol id="m" overflow="visible">
   <path d="m2.875-2.8906v0.76562c-0.125-0.082031-0.25781-0.14453-0.39062-0.1875-0.13672-0.039062-0.27344-0.0625-0.40625-0.0625-0.27344 0-0.48047 0.078125-0.625 0.23438-0.14844 0.15625-0.21875 0.37109-0.21875 0.64062 0 0.28125 0.070313 0.5 0.21875 0.65625 0.14453 0.15625 0.35156 0.23438 0.625 0.23438 0.14453 0 0.28516-0.019531 0.42188-0.0625 0.13281-0.039063 0.25781-0.10938 0.375-0.20312v0.78125c-0.14844 0.0625-0.29688 0.10156-0.45312 0.125-0.15625 0.03125-0.3125 0.046875-0.46875 0.046875-0.54297 0-0.96484-0.13281-1.2656-0.40625-0.30469-0.28125-0.45312-0.67188-0.45312-1.1719 0-0.48828 0.14844-0.86719 0.45312-1.1406 0.30078-0.28125 0.72266-0.42188 1.2656-0.42188 0.15625 0 0.3125 0.015625 0.46875 0.046875 0.15625 0.023437 0.30469 0.0625 0.45312 0.125z"/>
  </symbol>
 </defs>
 <g>
  <path d="m307.89 153.23 65.406 19.578c0.65625 0.10938 1.2031 0.21875 1.8594 0.32812 0.32812 0 0.76562 0 1.0938-0.10938 0 0 34.016-5.7969 34.016-5.7969 2.5156-0.4375 4.4844-2.1875 5.1406-4.5938l13.672-45.938 1.6406-0.10938c4.9219-0.32812 7.6562-6.4531 4.7031-10.391 0 0-29.203-41.016-29.203-41.016-1.3125-1.8594-3.5-2.8438-5.6875-2.7344l-32.922 1.8594c-0.65625 0.10938-1.2031 0.10938-1.75 0.32812-0.10938 0-0.32812 0.10938-0.4375 0.21875l-10.281 4.4844 1.9688-6.5625c2.1875-8.4219-9.8438-12.031-12.578-3.7188l-5.1406 17.172-14.984 6.5625-6.3438 2.625c-5.1406 2.0781-5.4688 9.5156-0.4375 11.922l-14.328 47.906c-0.76562 3.2812 1.2031 6.8906 4.5938 7.9844zm24.719-59.828 33.141-14.438 19.797 30.297-14.656 49.109-52.828-15.75zm71.531 61.469-19.578 3.3906 11.484-38.5h0.4375l18.703-1.75zm-6.3438-79.297 20.562 28.766-19.141 1.8594c-0.10938-0.21875-1.0938-1.75-1.2031-1.8594 0 0-18.047-27.672-18.047-27.672z"/>
  <path d="m465.83 207.48c1.5312-2.625 0.875-6.125-1.4219-8.0938-17.172-14.875-25.047-21.547-45.172-29.969-3.3906-1.4219-7.2188 0.21875-8.6406 3.5-1.4219 3.3906 0.21875 7.2188 3.5 8.6406 12.25 5.1406 19.469 9.5156 27.891 16.297-44.625-2.2969-89.906-10.5-124.25-34.125-14.984-10.172-22.859-19.688-24.719-29.859-0.76562-4.4844-6.3438-6.8906-10.062-4.2656-70.656 45.281-85.75 146.89-31.281 210.77 9.2969 11.156 20.234 20.672 30.844 29.969 18.703 16.953 38.281 31.938 47.25 60.484 6.125 22.312-2.8438 40.906-13.672 48.781-2.9531 2.0781-3.6094 6.2344-1.5312 9.1875s6.2344 3.6094 9.1875 1.5312c17.719-12.688 25.484-38.609 18.703-62.891-14.766-46.703-53.047-62.344-80.719-95.484-32.594-38.828-39.703-97.125-15.641-142.08 8.5312 8.75 18.703 15.75 29.969 20.562 3.2812 1.4219 7.2188-0.10938 8.6406-3.3906s-0.10938-7.2188-3.3906-8.6406c-10.719-4.5938-20.453-11.703-28.219-20.344 8.0938-12.469 18.375-23.516 30.188-32.594 5.9062 13.125 18.047 22.641 27.344 28.984 38.172 25.922 86.625 34.672 136.17 36.531-40.906 46.375-97.016 18.375-137.38 55.891-14.656 0.76562-29.75-2.8438-41.344-12.25-2.8438-2.2969-7-1.75-9.1875 1.0938-2.2969 2.8438-1.75 7 1.0938 9.1875 11.156 8.8594 25.156 14.109 39.484 14.984-9.9531 18.484-6.6719 37.078 6.6719 55.125-3.1719 5.3594-7.5469 9.9531-12.797 13.234-5.5781 3.5-2.9531 12.141 3.5 12.141 1.2031 0 2.4062-0.32812 3.5-0.98438 5.7969-3.6094 10.828-8.4219 14.766-14 0.875 0.875 1.75 1.75 2.7344 2.625-1.6406 1.9688-3.3906 3.7188-5.4688 5.25-2.8438 2.1875-3.5 6.3438-1.3125 9.1875 2.1875 2.9531 6.3438 3.5 9.1875 1.3125 2.7344-2.0781 5.1406-4.375 7.3281-7 4.7031 4.0469 9.625 8.2031 14 12.359-2.9531 3.3906-6.6719 6.125-10.938 7.6562-6.7812 2.625-4.9219 12.688 2.2969 12.688 0.76562 0 1.5312-0.10938 2.2969-0.4375 5.7969-2.1875 11.047-5.7969 15.312-10.281 24.609 31.828 11.703 72.297-12.25 105.44-3.0625 4.1562 0.21875 10.5 5.3594 10.391 2.0781 0 4.0469-0.98438 5.3594-2.7344 25.375-35 38.172-76.344 18.047-112.22-9.625-16.516-24.938-27.016-38.391-39.484-27.344-24.5-30.297-52.391-0.32812-71.312 14.328-8.5312 31.828-10.938 48.344-13.234 36.312-3.6094 68.141-15.859 89.141-48.125z"/>
  <path d="m386.09 226.08c8.6406-0.32812 8.6406-12.797 0-13.125-33.359 0.10938-66.828-12.359-91.875-34.453-2.7344-2.4062-6.8906-2.0781-9.2969 0.54688-2.4062 2.7344-2.0781 6.8906 0.54688 9.2969 27.453 24.172 64.094 37.844 100.62 37.734z"/>
  <path d="m318.17 413.33c-0.76562-3.5-4.2656-5.7969-7.875-5.0312l-4.2656 0.98438c-8.4219 2.1875-5.6875 14.438 2.8438 12.797 0 0 4.2656-0.98438 4.2656-0.98438 3.6094-0.65625 5.7969-4.1562 5.0312-7.7656z"/>
  <path d="m280.33 392.66-6.6719 0.4375c-8.6406 0.875-7.7656 13.453 0.875 13.125l6.6719-0.4375c8.75-0.98438 7.875-13.453-0.875-13.125z"/>
  <path d="m383.36 348.14c-1.5312-3.2812-5.4688-4.7031-8.75-3.1719-2.4062 1.0938-4.7031 2.1875-7.1094 3.2812-7.7656 3.9375-2.4062 15.312 5.4688 11.922 2.4062-1.0938 4.8125-2.1875 7.2188-3.3906 3.3906-1.4219 4.7031-5.3594 3.1719-8.6406z"/>
  <path d="m400.42 322c-2.2969 0.875-4.7031 1.2031-7.1094 0.98438-3.6094-0.32812-6.7812 2.4062-7.1094 6.0156s2.4062 6.7812 6.0156 7.1094c4.375 0.32812 8.75-0.32812 12.906-1.8594 7.875-3.3906 3.5-15.094-4.7031-12.25z"/>
  <path d="m395.72 414.75c-2.0781 1.0938-4.4844 1.5312-6.7812 1.2031-3.6094-0.54688-7 1.8594-7.5469 5.4688-0.875 10.828 14.438 8.4219 20.562 4.9219 7.5469-4.4844 1.6406-15.531-6.2344-11.594z"/>
  <path d="m424.81 259.77c-3.1719-0.32812-6.2344-1.3125-9.1875-2.7344-7.875-3.7188-13.562 7.4375-6.0156 11.703 4.4844 2.2969 9.4062 3.8281 14.438 4.1562 8.2031-0.21875 8.9688-11.922 0.76562-13.125z"/>
  <path d="m492.3 227.61c-1.5312-2.4062-3.6094-3.8281-5.0312-4.8125-5.3594-3.7188-12.359 1.9688-9.7344 7.9844-4.8125 0.10938-9.625-0.4375-14.328-1.5312-8.5312-1.6406-11.375 10.5-2.9531 12.797 7.6562 1.75 15.531 2.2969 23.297 1.5312 1.6406-0.21875 6.0156-0.65625 8.6406-4.2656 2.4062-3.5 2.4062-8.0938 0.10938-11.703z"/>
  <path d="m246.64 148.09c8.5312 1.4219 11.047-10.938 2.5156-12.906-9.8438-1.8594-18.703-9.1875-22.531-18.484 1.0938 0 2.625 0.4375 4.1562 0.875 3.5 0.98438 7.1094-1.0938 8.0938-4.5938s-1.0938-7.1094-4.5938-8.0938c-2.7344-0.76562-6.125-1.6406-9.8438-1.0938-5.4688 0.76562-9.8438 4.4844-10.938 9.4062-0.76562 3.5 0.21875 6.5625 1.2031 8.75 5.4688 13.453 17.719 23.406 31.938 26.141z"/>
  <path d="m216.56 195.12c8.5312-0.32812 8.75-12.688 0.10938-13.125-3.6094-0.10938-7.1094-1.2031-10.172-3.0625 7.5469-1.2031 7.4375-12.031-0.21875-13.016-6.2344-0.76562-12.578 1.8594-16.516 6.6719-1.8594 2.2969-1.9688 5.4688-0.32812 7.875 6.0156 8.8594 16.406 14.438 27.125 14.656z"/>
  <path d="m210.88 291.16c-3.0625 2.5156-7 4.0469-10.938 4.2656-3.6094 0.21875-6.3438 3.2812-6.125 7 0.21875 3.6094 3.3906 6.3438 7 6.125 6.6719-0.4375 13.344-2.9531 18.484-7.2188 6.4531-5.7969-1.4219-15.531-8.4219-10.172z"/>
  <use x="70" y="576.40625" xlink:href="#h"/>
  <use x="74.011719" y="576.40625" xlink:href="#d"/>
  <use x="76.710938" y="576.40625" xlink:href="#c"/>
  <use x="80.417969" y="576.40625" xlink:href="#e"/>
  <use x="84.109375" y="576.40625" xlink:href="#b"/>
  <use x="86.722656" y="576.40625" xlink:href="#c"/>
  <use x="90.433594" y="576.40625" xlink:href="#l"/>
  <use x="96.25" y="576.40625" xlink:href="#k"/>
  <use x="100.167969" y="576.40625" xlink:href="#j"/>
  <use x="105.636719" y="576.40625" xlink:href="#i"/>
  <use x="109.371094" y="576.40625" xlink:href="#d"/>
  <use x="112.066406" y="576.40625" xlink:href="#e"/>
  <use x="115.757812" y="576.40625" xlink:href="#g"/>
  <use x="121.554688" y="576.40625" xlink:href="#h"/>
  <use x="125.570312" y="576.40625" xlink:href="#a"/>
  <use x="129.324219" y="576.40625" xlink:href="#f"/>
  <use x="133.21875" y="576.40625" xlink:href="#b"/>
  <use x="135.832031" y="576.40625" xlink:href="#a"/>
  <use x="70" y="581.875" xlink:href="#s"/>
  <use x="72.378906" y="581.875" xlink:href="#d"/>
  <use x="75.078125" y="581.875" xlink:href="#a"/>
  <use x="78.832031" y="581.875" xlink:href="#r"/>
  <use x="86.4375" y="581.875" xlink:href="#b"/>
  <use x="89.050781" y="581.875" xlink:href="#q"/>
  <use x="92.941406" y="581.875" xlink:href="#c"/>
  <use x="98.554688" y="581.875" xlink:href="#p"/>
  <use x="103.132812" y="581.875" xlink:href="#a"/>
  <use x="106.890625" y="581.875" xlink:href="#f"/>
  <use x="110.785156" y="581.875" xlink:href="#g"/>
  <use x="116.582031" y="581.875" xlink:href="#o"/>
  <use x="120.589844" y="581.875" xlink:href="#d"/>
  <use x="123.285156" y="581.875" xlink:href="#a"/>
  <use x="127.042969" y="581.875" xlink:href="#n"/>
  <use x="128.917969" y="581.875" xlink:href="#c"/>
  <use x="132.625" y="581.875" xlink:href="#m"/>
  <use x="135.867188" y="581.875" xlink:href="#b"/>
 </g>
</svg>
