<?xml version="1.0" encoding="UTF-8"?>
<svg width="700pt" height="700pt" version="1.1" viewBox="0 0 700 700" xmlns="http://www.w3.org/2000/svg" xmlns:xlink="http://www.w3.org/1999/xlink">
 <defs>
  <symbol id="m" overflow="visible">
   <path d="m29.312-1.75c-1.5117 0.78125-3.0898 1.3711-4.7344 1.7656-1.6367 0.40625-3.3398 0.60938-5.1094 0.60938-5.3125 0-9.5273-1.4844-12.641-4.4531-3.1055-2.9688-4.6562-7-4.6562-12.094s1.5508-9.125 4.6562-12.094c3.1133-2.9688 7.3281-4.4531 12.641-4.4531 1.7695 0 3.4727 0.19922 5.1094 0.59375 1.6445 0.39844 3.2227 0.99219 4.7344 1.7812v6.5938c-1.5312-1.0391-3.0391-1.8008-4.5156-2.2812-1.4805-0.48828-3.0391-0.73438-4.6719-0.73438-2.9375 0-5.2461 0.94531-6.9219 2.8281-1.6797 1.875-2.5156 4.4648-2.5156 7.7656 0 3.293 0.83594 5.8828 2.5156 7.7656 1.6758 1.875 3.9844 2.8125 6.9219 2.8125 1.6328 0 3.1914-0.23828 4.6719-0.71875 1.4766-0.48828 2.9844-1.2539 4.5156-2.2969z"/>
  </symbol>
  <symbol id="b" overflow="visible">
   <path d="m21.453-17.406c-0.67969-0.3125-1.3516-0.53906-2.0156-0.6875-0.65625-0.15625-1.3203-0.23438-1.9844-0.23438-1.9688 0-3.4844 0.63281-4.5469 1.8906-1.0547 1.2617-1.5781 3.0703-1.5781 5.4219v11.016h-7.6562v-23.922h7.6562v3.9219c0.97656-1.5625 2.1016-2.7031 3.375-3.4219 1.2812-0.71875 2.8125-1.0781 4.5938-1.0781 0.25 0 0.52344 0.011719 0.82812 0.03125 0.30078 0.023438 0.73438 0.070312 1.2969 0.14062z"/>
  </symbol>
  <symbol id="a" overflow="visible">
   <path d="m27.562-12.031v2.1875h-17.891c0.1875 1.793 0.83203 3.1367 1.9375 4.0312 1.1133 0.89844 2.6719 1.3438 4.6719 1.3438 1.6016 0 3.25-0.23438 4.9375-0.70312 1.6875-0.47656 3.4219-1.2031 5.2031-2.1719v5.8906c-1.8047 0.6875-3.6094 1.2031-5.4219 1.5469-1.8125 0.35156-3.6211 0.53125-5.4219 0.53125-4.3359 0-7.7031-1.0977-10.109-3.2969-2.3984-2.207-3.5938-5.2969-3.5938-9.2656 0-3.9062 1.1758-6.9727 3.5312-9.2031 2.3633-2.2383 5.6094-3.3594 9.7344-3.3594 3.7578 0 6.7695 1.1367 9.0312 3.4062 2.2578 2.2617 3.3906 5.2812 3.3906 9.0625zm-7.8594-2.5312c0-1.457-0.42969-2.6289-1.2812-3.5156-0.84375-0.89453-1.9492-1.3438-3.3125-1.3438-1.4922 0-2.6992 0.41797-3.625 1.25-0.91797 0.83594-1.4922 2.0391-1.7188 3.6094z"/>
  </symbol>
  <symbol id="i" overflow="visible">
   <path d="m14.391-10.766c-1.5938 0-2.793 0.27344-3.5938 0.8125-0.80469 0.54297-1.2031 1.3398-1.2031 2.3906 0 0.96875 0.32031 1.7305 0.96875 2.2812 0.64453 0.54297 1.5469 0.8125 2.7031 0.8125 1.4375 0 2.6445-0.51562 3.625-1.5469 0.98828-1.0312 1.4844-2.3203 1.4844-3.875v-0.875zm11.688-2.8906v13.656h-7.7031v-3.5469c-1.0312 1.4492-2.1875 2.5078-3.4688 3.1719s-2.8398 1-4.6719 1c-2.4805 0-4.4961-0.72266-6.0469-2.1719-1.543-1.4453-2.3125-3.3203-2.3125-5.625 0-2.8125 0.96094-4.8672 2.8906-6.1719 1.9375-1.3125 4.9688-1.9688 9.0938-1.9688h4.5156v-0.60938c0-1.207-0.48047-2.0938-1.4375-2.6562-0.94922-0.5625-2.4375-0.84375-4.4688-0.84375-1.6367 0-3.1562 0.16797-4.5625 0.5-1.4062 0.32422-2.7188 0.8125-3.9375 1.4688v-5.8281c1.6445-0.40625 3.2891-0.70703 4.9375-0.90625 1.6562-0.20703 3.3047-0.3125 4.9531-0.3125 4.3203 0 7.4375 0.85547 9.3438 2.5625 1.9141 1.6992 2.875 4.4609 2.875 8.2812z"/>
  </symbol>
  <symbol id="h" overflow="visible">
   <path d="m12.031-30.719v6.7969h7.875v5.4688h-7.875v10.141c0 1.1172 0.21875 1.8711 0.65625 2.2656 0.4375 0.38672 1.3125 0.57812 2.625 0.57812h3.9375v5.4688h-6.5625c-3.0234 0-5.1641-0.62891-6.4219-1.8906-1.2617-1.2578-1.8906-3.3984-1.8906-6.4219v-10.141h-3.7969v-5.4688h3.7969v-6.7969z"/>
  </symbol>
  <symbol id="g" overflow="visible">
   <path d="m19.953-20.422v-12.812h7.6875v33.234h-7.6875v-3.4531c-1.0547 1.4062-2.2148 2.4375-3.4844 3.0938-1.2734 0.65625-2.7422 0.98438-4.4062 0.98438-2.9492 0-5.3711-1.1719-7.2656-3.5156-1.8867-2.3438-2.8281-5.3594-2.8281-9.0469s0.94141-6.7031 2.8281-9.0469c1.8945-2.3438 4.3164-3.5156 7.2656-3.5156 1.6562 0 3.1172 0.33594 4.3906 1 1.2812 0.65625 2.4453 1.6836 3.5 3.0781zm-5.0469 15.484c1.6445 0 2.8945-0.59766 3.75-1.7969 0.86328-1.1953 1.2969-2.9297 1.2969-5.2031 0-2.2812-0.43359-4.0195-1.2969-5.2188-0.85547-1.1953-2.1055-1.7969-3.75-1.7969-1.625 0-2.8711 0.60156-3.7344 1.7969-0.85547 1.1992-1.2812 2.9375-1.2812 5.2188 0 2.2734 0.42578 4.0078 1.2812 5.2031 0.86328 1.1992 2.1094 1.7969 3.7344 1.7969z"/>
  </symbol>
  <symbol id="f" overflow="visible">
   <path d="m16.406-4.9375c1.6328 0 2.8828-0.59766 3.75-1.7969 0.86328-1.1953 1.2969-2.9297 1.2969-5.2031 0-2.2812-0.43359-4.0195-1.2969-5.2188-0.86719-1.1953-2.1172-1.7969-3.75-1.7969-1.6367 0-2.8906 0.60547-3.7656 1.8125-0.875 1.1992-1.3125 2.9336-1.3125 5.2031 0 2.2617 0.4375 3.9961 1.3125 5.2031 0.875 1.1992 2.1289 1.7969 3.7656 1.7969zm-5.0781-15.484c1.0508-1.3945 2.2188-2.4219 3.5-3.0781 1.2812-0.66406 2.7539-1 4.4219-1 2.9453 0 5.3672 1.1719 7.2656 3.5156 1.8945 2.3438 2.8438 5.3594 2.8438 9.0469s-0.94922 6.7031-2.8438 9.0469c-1.8984 2.3438-4.3203 3.5156-7.2656 3.5156-1.668 0-3.1406-0.33594-4.4219-1s-2.4492-1.6914-3.5-3.0781v3.4531h-7.6562v-33.234h7.6562z"/>
  </symbol>
  <symbol id="c" overflow="visible">
   <path d="m0.53125-23.922h7.6562l6.4219 16.234 5.4688-16.234h7.6562l-10.062 26.188c-1.0117 2.6641-2.1953 4.5234-3.5469 5.5781-1.3438 1.0625-3.1211 1.5938-5.3281 1.5938h-4.4219v-5.0156h2.3906c1.3008 0 2.2422-0.21094 2.8281-0.625 0.59375-0.40625 1.0547-1.1484 1.3906-2.2188l0.20312-0.65625z"/>
  </symbol>
  <symbol id="e" overflow="visible">
   <path d="m0.65625-23.922h7.6562l5.9531 16.531 5.9375-16.531h7.6719l-9.4219 23.922h-8.3906z"/>
  </symbol>
  <symbol id="l" overflow="visible">
   <path d="m11.328-3.4531v12.547h-7.6562v-33.016h7.6562v3.5c1.0508-1.3945 2.2188-2.4219 3.5-3.0781 1.2812-0.66406 2.7539-1 4.4219-1 2.9453 0 5.3672 1.1719 7.2656 3.5156 1.8945 2.3438 2.8438 5.3594 2.8438 9.0469s-0.94922 6.7031-2.8438 9.0469c-1.8984 2.3438-4.3203 3.5156-7.2656 3.5156-1.668 0-3.1406-0.33594-4.4219-1s-2.4492-1.6914-3.5-3.0781zm5.0781-15.5c-1.6367 0-2.8906 0.60547-3.7656 1.8125-0.875 1.1992-1.3125 2.9336-1.3125 5.2031 0 2.2617 0.4375 3.9961 1.3125 5.2031 0.875 1.1992 2.1289 1.7969 3.7656 1.7969 1.6328 0 2.8828-0.59766 3.75-1.7969 0.86328-1.1953 1.2969-2.9297 1.2969-5.2031 0-2.2812-0.43359-4.0195-1.2969-5.2188-0.86719-1.1953-2.1172-1.7969-3.75-1.7969z"/>
  </symbol>
  <symbol id="d" overflow="visible">
   <path d="m15.062-19.031c-1.6992 0-2.9961 0.60938-3.8906 1.8281-0.88672 1.2188-1.3281 2.9766-1.3281 5.2656 0 2.293 0.44141 4.0469 1.3281 5.2656 0.89453 1.2188 2.1914 1.8281 3.8906 1.8281 1.6641 0 2.9375-0.60938 3.8125-1.8281 0.88281-1.2188 1.3281-2.9727 1.3281-5.2656 0-2.2891-0.44531-4.0469-1.3281-5.2656-0.875-1.2188-2.1484-1.8281-3.8125-1.8281zm0-5.4688c4.1133 0 7.3281 1.1094 9.6406 3.3281s3.4688 5.2969 3.4688 9.2344c0 3.9297-1.1562 7.0078-3.4688 9.2344-2.3125 2.2188-5.5273 3.3281-9.6406 3.3281-4.1367 0-7.3711-1.1094-9.7031-3.3281-2.3242-2.2266-3.4844-5.3047-3.4844-9.2344 0-3.9375 1.1602-7.0156 3.4844-9.2344 2.332-2.2188 5.5664-3.3281 9.7031-3.3281z"/>
  </symbol>
  <symbol id="k" overflow="visible">
   <path d="m27.734-14.562v14.562h-7.7031v-11.156c0-2.0625-0.046875-3.4844-0.14062-4.2656-0.085937-0.78125-0.24219-1.3594-0.46875-1.7344-0.30469-0.5-0.71094-0.88281-1.2188-1.1562-0.51172-0.28125-1.0938-0.42188-1.75-0.42188-1.5938 0-2.8516 0.61719-3.7656 1.8438-0.90625 1.2305-1.3594 2.9375-1.3594 5.125v11.766h-7.6562v-23.922h7.6562v3.5c1.1445-1.3945 2.3633-2.4219 3.6562-3.0781 1.3008-0.66406 2.7383-1 4.3125-1 2.7578 0 4.8516 0.85156 6.2812 2.5469 1.4375 1.6875 2.1562 4.1523 2.1562 7.3906z"/>
  </symbol>
  <symbol id="j" overflow="visible">
   <path d="m25.844-19.953c0.96875-1.4766 2.1172-2.6016 3.4531-3.375 1.332-0.78125 2.7969-1.1719 4.3906-1.1719 2.75 0 4.8438 0.85156 6.2812 2.5469 1.4375 1.6875 2.1562 4.1523 2.1562 7.3906v14.562h-7.6875v-12.469c0.007812-0.1875 0.019531-0.37891 0.03125-0.57812 0.007812-0.19531 0.015625-0.48438 0.015625-0.85938 0-1.6953-0.25-2.9258-0.75-3.6875-0.5-0.75781-1.3086-1.1406-2.4219-1.1406-1.4492 0-2.5703 0.60156-3.3594 1.7969-0.79297 1.1992-1.2031 2.9297-1.2344 5.1875v11.75h-7.6875v-12.469c0-2.6562-0.23047-4.3633-0.6875-5.125-0.44922-0.75781-1.2578-1.1406-2.4219-1.1406-1.4688 0-2.6055 0.60547-3.4062 1.8125-0.79297 1.1992-1.1875 2.918-1.1875 5.1562v11.766h-7.7031v-23.922h7.7031v3.5c0.9375-1.3516 2.0156-2.3672 3.2344-3.0469 1.2188-0.6875 2.5547-1.0312 4.0156-1.0312 1.6562 0 3.1133 0.40234 4.375 1.2031 1.2695 0.79297 2.2344 1.9062 2.8906 3.3438z"/>
  </symbol>
 </defs>
 <g>
  <path d="m499.15 245.44h-26.984c-2.4141 0-4.375-1.9609-4.375-4.375s1.9609-4.375 4.375-4.375h26.984c4.1836 0 7.5859-3.4023 7.5859-7.5859 0-4.1836-3.4023-7.5781-7.5859-7.5781-2.4141 0-4.375-1.9609-4.375-4.375 0-2.4141 1.9609-4.375 4.375-4.375 9.0117 0 16.336 7.3242 16.336 16.328 0.007813 9.0117-7.3242 16.336-16.336 16.336z"/>
  <path d="m543.23 191.37h-26.977c-2.4141 0-4.375-1.9609-4.375-4.375 0-2.4141 1.9609-4.375 4.375-4.375h26.984c4.1836 0 7.5859-3.4023 7.5859-7.5859s-3.4023-7.5781-7.5859-7.5781c-2.4141 0-4.375-1.9609-4.375-4.375 0-2.4141 1.9609-4.375 4.375-4.375 9.0117 0 16.336 7.3242 16.336 16.328s-7.332 16.336-16.344 16.336z"/>
  <path d="m384.91 426.41c-5.3359 0-10.344-2.3555-14.473-6.8086-7.7617-8.375-11.664-23.031-10.449-39.207 1.6523-21.988 10.945-45.359 24.922-45.359 13.973 0 23.266 23.371 24.922 45.359 1.2148 16.188-2.6875 30.844-10.449 39.207-4.1406 4.4531-9.1367 6.8086-14.473 6.8086zm0-82.629c-5.4609 0-14.48 14.516-16.195 37.266-1.0234 13.598 2.1016 26.082 8.1445 32.602 4.9258 5.3125 11.172 5.3125 16.109 0 6.0469-6.5195 9.1602-19.004 8.1445-32.602-1.7227-22.746-10.746-37.266-16.203-37.266z"/>
  <path d="m384.91 449.95c-2.4141 0-4.375-1.9609-4.375-4.375v-44.504c0-2.4141 1.9609-4.375 4.375-4.375 2.4141 0 4.375 1.9609 4.375 4.375v44.504c0 2.4219-1.9609 4.375-4.375 4.375z"/>
  <path d="m570.57 344.66c-0.0625-0.007812-0.11328 0-0.17578 0h-157.5c-1.3828 0-2.6758-0.64844-3.5078-1.7578-0.82422-1.1016-1.0859-2.5391-0.69141-3.8594l17.5-59.062c0.55078-1.8555 2.2578-3.1328 4.1914-3.1328h122.5c1.9336 0 3.6484 1.2773 4.1914 3.1328l17.168 57.961c0.42969 0.67188 0.68359 1.4805 0.68359 2.3438 0.015624 2.4219-1.9531 4.375-4.3594 4.375zm-151.82-8.75h145.79l-14.91-50.312h-115.96z"/>
  <path d="m432.21 449.95c-2.4141 0-4.375-1.9609-4.375-4.375v-105.29c0-2.4141 1.9609-4.375 4.375-4.375 2.4141 0 4.375 1.9609 4.375 4.375v105.29c0 2.4219-1.9609 4.375-4.375 4.375z"/>
  <path d="m551.07 449.95c-2.4141 0-4.375-1.9609-4.375-4.375v-105.29c0-2.4141 1.9609-4.375 4.375-4.375 2.4141 0 4.375 1.9609 4.375 4.375v105.29c0 2.4219-1.9531 4.375-4.375 4.375z"/>
  <path d="m514.97 449.95h-46.664c-2.4141 0-4.375-1.9609-4.375-4.375v-64.461c0-2.4141 1.9609-4.375 4.375-4.375h46.664c2.4141 0 4.375 1.9609 4.375 4.375v64.461c0 2.4219-1.9531 4.375-4.375 4.375zm-42.289-8.75h37.914v-55.711h-37.914z"/>
  <path d="m308.99 191.74c-53.262 0-107.19-10.273-107.19-29.898s53.926-29.891 107.19-29.891 107.19 10.266 107.19 29.891-53.926 29.898-107.19 29.898zm0-51.039c-64.629 0-98.438 13.766-98.438 21.141s33.809 21.148 98.438 21.148c64.629 0 98.438-13.773 98.438-21.148s-33.809-21.141-98.438-21.141z"/>
  <path d="m233.88 450.54c-1.1289 0-2.25-0.4375-3.0977-1.2773-36.27-36.27-53.609-70.691-51.555-102.31 2.0742-31.91 23.363-48.633 24.273-49.332 20.633-18.059 31.457-38.465 31.973-60.461 0.92578-39.707-32.008-71.836-32.34-72.16-1.7422-1.6719-1.793-4.4453-0.12109-6.1875 1.6719-1.7422 4.4375-1.8008 6.1875-0.12109 1.4688 1.418 36.043 35.156 35.016 78.672-0.57031 24.551-12.406 47.094-35.176 67.016-0.39453 0.31641-19.355 15.375-21.105 43.32-1.6172 26.031 11.543 54.59 39.156 85.031-2.7109-25.945 0.35938-79.449 65.031-103.62 0.69922-0.32422 94.621-42.891 117.97-104.91 7.6211-20.258 6.8594-40.625-2.2852-60.523-1.0078-2.1953-0.042969-4.7969 2.1523-5.8008 2.1875-0.99609 4.7852-0.042969 5.8008 2.1523 10.148 22.102 11 44.738 2.5117 67.27-24.648 65.441-118.83 108.11-122.83 109.91-79.195 29.609-58.309 104.56-57.375 107.74 0.55859 1.918-0.25391 3.9727-1.9688 4.9883-0.68359 0.41406-1.4531 0.61719-2.2148 0.61719z"/>
  <path d="m319.56 266.84c-40.73 0-117.76-5.6445-117.76-26.984 0-5.9062 5.3906-10.762 16.477-14.848 2.2656-0.83203 4.7852 0.32422 5.6172 2.5898s-0.33203 4.7852-2.5898 5.6172c-8.9336 3.2812-10.754 6.0742-10.754 6.6328 0 6.1953 38.473 18.234 109.01 18.234s109.01-12.039 109.01-18.234c0-0.015625-0.26953-1.9531-6.3945-4.8477-2.1875-1.0312-3.1133-3.6406-2.0898-5.8281 1.0312-2.1875 3.6406-3.1328 5.8281-2.0898 2.8281 1.3281 11.418 5.3906 11.418 12.758-0.011719 21.355-77.047 27-117.77 27z"/>
  <path d="m279.54 163.17c-40.504 0-117.12-5.6094-117.12-26.844 0-21.246 76.605-26.855 117.12-26.855 40.512 0 117.12 5.6172 117.12 26.855 0 7.918-9.9492 14.078-30.391 18.855-2.3555 0.53516-4.707-0.91016-5.2578-3.2656-0.55078-2.3555 0.91016-4.707 3.2656-5.2578 19.617-4.5781 23.633-9.3203 23.633-10.344 0-5.4062-36.871-18.105-108.37-18.105s-108.37 12.695-108.37 18.105c0 5.4062 36.871 18.094 108.37 18.094 13.754 0 27.223-0.5 40.023-1.4688 2.4766-0.14844 4.5156 1.6172 4.6992 4.0234 0.18359 2.4062-1.6172 4.5156-4.0234 4.6992-13.031 1-26.723 1.5078-40.699 1.5078z"/>
  <path d="m292.46 337.46c-8.418 0-17.148-0.26172-26.039-0.80469-51.215-3.1055-105.79-15.277-104.62-34.641 0.48047-7.9102 9.3555-13.684 27.133-17.648 2.3555-0.53516 4.6992 0.95312 5.2227 3.3164 0.53516 2.3633-0.95312 4.6992-3.3164 5.2227-15.812 3.5352-20.195 7.8477-20.309 9.6406-0.39453 6.5977 33.277 21.543 96.418 25.375 26.914 1.6445 52.316 0.71875 71.523-2.5547 22.051-3.7617 27.152-9.2148 27.258-10.988 0.070313-1.2266-1.6875-3.7109-6.9141-6.7109-2.1016-1.1992-2.8281-3.875-1.6172-5.9688 1.1992-2.1016 3.875-2.8359 5.9688-1.6172 7.8242 4.4883 11.629 9.4766 11.297 14.824-0.53516 8.8477-12.145 15.27-34.52 19.094-13.453 2.2891-29.781 3.4609-47.48 3.4609z"/>
  <path d="m230.2 397.77c-4.9336 0-10.055-0.15625-15.27-0.47266-23.688-1.4336-63.535-7.707-62.668-22.109 0.45313-7.4883 10.867-10.309 14.289-11.234 2.3555-0.64844 4.7422 0.74219 5.3633 3.0781 0.62891 2.3359-0.74219 4.7344-3.0781 5.3633-5.6875 1.5391-7.6484 3.1484-7.918 3.6406 1.5312 2.9844 21.016 10.5 54.531 12.539 33.188 2.0117 53.375-2.9766 55.633-6.3945 0.14844 0.12109-1.9062-2.0469-9.1445-4.707-2.2656-0.83203-3.4297-3.3438-2.5977-5.6172 0.83203-2.2734 3.3594-3.4219 5.6172-2.5977 10.316 3.7891 15.172 8.2617 14.848 13.66-0.36719 6.2031-7.4453 10.395-21.629 12.82-7.9219 1.3398-17.547 2.0312-27.977 2.0312z"/>
  <path d="m270.76 430.59c-1.6016 0-2.6172-0.042969-2.8711-0.0625-2.4062-0.13281-4.2539-2.1875-4.1289-4.6016 0.13281-2.4062 2.1875-4.0703 4.6016-4.1406 0.38672 0.027344 37.266 1.707 47.199-20.395 0.99609-2.1953 3.5703-3.1758 5.7852-2.1953 2.2031 0.98828 3.1836 3.5781 2.1953 5.7852-10.66 23.738-42.879 25.609-52.781 25.609z"/>
  <path d="m173 432.28c-11.078 0-28.438-4.4375-46.75-26.277-1.5469-1.8477-1.3047-4.6094 0.54297-6.168 1.8633-1.5391 4.6094-1.3047 6.168 0.54297 25.777 30.746 47.863 22.164 48.789 21.789 2.2305-0.90234 4.7773 0.14063 5.7031 2.3555 0.92578 2.2148-0.085937 4.75-2.293 5.7031-0.45312 0.19141-4.9844 2.0547-12.16 2.0547z"/>
  <path d="m570.39 450.54h-440.78c-2.4141 0-4.375-1.9609-4.375-4.375 0-2.4141 1.9609-4.375 4.375-4.375h440.78c2.4141 0 4.375 1.9609 4.375 4.375 0 2.4141-1.9609 4.375-4.375 4.375z"/>
  <use x="70" y="691.25" xlink:href="#m"/>
  <use x="102.109375" y="691.25" xlink:href="#b"/>
  <use x="123.683594" y="691.25" xlink:href="#a"/>
  <use x="153.355469" y="691.25" xlink:href="#i"/>
  <use x="182.878906" y="691.25" xlink:href="#h"/>
  <use x="203.792969" y="691.25" xlink:href="#a"/>
  <use x="233.464844" y="691.25" xlink:href="#g"/>
  <use x="280.011719" y="691.25" xlink:href="#f"/>
  <use x="311.328125" y="691.25" xlink:href="#c"/>
  <use x="355.078125" y="691.25" xlink:href="#e"/>
  <use x="383.597656" y="691.25" xlink:href="#a"/>
  <use x="413.269531" y="691.25" xlink:href="#b"/>
  <use x="434.847656" y="691.25" xlink:href="#b"/>
  <use x="456.421875" y="691.25" xlink:href="#c"/>
  <use x="500.171875" y="691.25" xlink:href="#l"/>
  <use x="531.488281" y="691.25" xlink:href="#d"/>
  <use x="561.546875" y="691.25" xlink:href="#a"/>
  <use x="591.21875" y="691.25" xlink:href="#b"/>
  <use x="612.792969" y="691.25" xlink:href="#k"/>
  <use x="643.941406" y="691.25" xlink:href="#d"/>
  <use x="673.996094" y="691.25" xlink:href="#j"/>
 </g>
</svg>
