<?xml version="1.0" encoding="UTF-8"?>
<svg width="700pt" height="700pt" version="1.1" viewBox="0 0 700 700" xmlns="http://www.w3.org/2000/svg" xmlns:xlink="http://www.w3.org/1999/xlink">
 <defs>
  <symbol id="m" overflow="visible">
   <path d="m29.312-1.75c-1.5117 0.78125-3.0898 1.3711-4.7344 1.7656-1.6367 0.40625-3.3398 0.60938-5.1094 0.60938-5.3125 0-9.5273-1.4844-12.641-4.4531-3.1055-2.9688-4.6562-7-4.6562-12.094s1.5508-9.125 4.6562-12.094c3.1133-2.9688 7.3281-4.4531 12.641-4.4531 1.7695 0 3.4727 0.19922 5.1094 0.59375 1.6445 0.39844 3.2227 0.99219 4.7344 1.7812v6.5938c-1.5312-1.0391-3.0391-1.8008-4.5156-2.2812-1.4805-0.48828-3.0391-0.73438-4.6719-0.73438-2.9375 0-5.2461 0.94531-6.9219 2.8281-1.6797 1.875-2.5156 4.4648-2.5156 7.7656 0 3.293 0.83594 5.8828 2.5156 7.7656 1.6758 1.875 3.9844 2.8125 6.9219 2.8125 1.6328 0 3.1914-0.23828 4.6719-0.71875 1.4766-0.48828 2.9844-1.2539 4.5156-2.2969z"/>
  </symbol>
  <symbol id="k" overflow="visible">
   <path d="m21.453-17.406c-0.67969-0.3125-1.3516-0.53906-2.0156-0.6875-0.65625-0.15625-1.3203-0.23438-1.9844-0.23438-1.9688 0-3.4844 0.63281-4.5469 1.8906-1.0547 1.2617-1.5781 3.0703-1.5781 5.4219v11.016h-7.6562v-23.922h7.6562v3.9219c0.97656-1.5625 2.1016-2.7031 3.375-3.4219 1.2812-0.71875 2.8125-1.0781 4.5938-1.0781 0.25 0 0.52344 0.011719 0.82812 0.03125 0.30078 0.023438 0.73438 0.070312 1.2969 0.14062z"/>
  </symbol>
  <symbol id="c" overflow="visible">
   <path d="m27.562-12.031v2.1875h-17.891c0.1875 1.793 0.83203 3.1367 1.9375 4.0312 1.1133 0.89844 2.6719 1.3438 4.6719 1.3438 1.6016 0 3.25-0.23438 4.9375-0.70312 1.6875-0.47656 3.4219-1.2031 5.2031-2.1719v5.8906c-1.8047 0.6875-3.6094 1.2031-5.4219 1.5469-1.8125 0.35156-3.6211 0.53125-5.4219 0.53125-4.3359 0-7.7031-1.0977-10.109-3.2969-2.3984-2.207-3.5938-5.2969-3.5938-9.2656 0-3.9062 1.1758-6.9727 3.5312-9.2031 2.3633-2.2383 5.6094-3.3594 9.7344-3.3594 3.7578 0 6.7695 1.1367 9.0312 3.4062 2.2578 2.2617 3.3906 5.2812 3.3906 9.0625zm-7.8594-2.5312c0-1.457-0.42969-2.6289-1.2812-3.5156-0.84375-0.89453-1.9492-1.3438-3.3125-1.3438-1.4922 0-2.6992 0.41797-3.625 1.25-0.91797 0.83594-1.4922 2.0391-1.7188 3.6094z"/>
  </symbol>
  <symbol id="a" overflow="visible">
   <path d="m14.391-10.766c-1.5938 0-2.793 0.27344-3.5938 0.8125-0.80469 0.54297-1.2031 1.3398-1.2031 2.3906 0 0.96875 0.32031 1.7305 0.96875 2.2812 0.64453 0.54297 1.5469 0.8125 2.7031 0.8125 1.4375 0 2.6445-0.51562 3.625-1.5469 0.98828-1.0312 1.4844-2.3203 1.4844-3.875v-0.875zm11.688-2.8906v13.656h-7.7031v-3.5469c-1.0312 1.4492-2.1875 2.5078-3.4688 3.1719s-2.8398 1-4.6719 1c-2.4805 0-4.4961-0.72266-6.0469-2.1719-1.543-1.4453-2.3125-3.3203-2.3125-5.625 0-2.8125 0.96094-4.8672 2.8906-6.1719 1.9375-1.3125 4.9688-1.9688 9.0938-1.9688h4.5156v-0.60938c0-1.207-0.48047-2.0938-1.4375-2.6562-0.94922-0.5625-2.4375-0.84375-4.4688-0.84375-1.6367 0-3.1562 0.16797-4.5625 0.5-1.4062 0.32422-2.7188 0.8125-3.9375 1.4688v-5.8281c1.6445-0.40625 3.2891-0.70703 4.9375-0.90625 1.6562-0.20703 3.3047-0.3125 4.9531-0.3125 4.3203 0 7.4375 0.85547 9.3438 2.5625 1.9141 1.6992 2.875 4.4609 2.875 8.2812z"/>
  </symbol>
  <symbol id="b" overflow="visible">
   <path d="m12.031-30.719v6.7969h7.875v5.4688h-7.875v10.141c0 1.1172 0.21875 1.8711 0.65625 2.2656 0.4375 0.38672 1.3125 0.57812 2.625 0.57812h3.9375v5.4688h-6.5625c-3.0234 0-5.1641-0.62891-6.4219-1.8906-1.2617-1.2578-1.8906-3.3984-1.8906-6.4219v-10.141h-3.7969v-5.4688h3.7969v-6.7969z"/>
  </symbol>
  <symbol id="j" overflow="visible">
   <path d="m19.953-20.422v-12.812h7.6875v33.234h-7.6875v-3.4531c-1.0547 1.4062-2.2148 2.4375-3.4844 3.0938-1.2734 0.65625-2.7422 0.98438-4.4062 0.98438-2.9492 0-5.3711-1.1719-7.2656-3.5156-1.8867-2.3438-2.8281-5.3594-2.8281-9.0469s0.94141-6.7031 2.8281-9.0469c1.8945-2.3438 4.3164-3.5156 7.2656-3.5156 1.6562 0 3.1172 0.33594 4.3906 1 1.2812 0.65625 2.4453 1.6836 3.5 3.0781zm-5.0469 15.484c1.6445 0 2.8945-0.59766 3.75-1.7969 0.86328-1.1953 1.2969-2.9297 1.2969-5.2031 0-2.2812-0.43359-4.0195-1.2969-5.2188-0.85547-1.1953-2.1055-1.7969-3.75-1.7969-1.625 0-2.8711 0.60156-3.7344 1.7969-0.85547 1.1992-1.2812 2.9375-1.2812 5.2188 0 2.2734 0.42578 4.0078 1.2812 5.2031 0.86328 1.1992 2.1094 1.7969 3.7344 1.7969z"/>
  </symbol>
  <symbol id="i" overflow="visible">
   <path d="m16.406-4.9375c1.6328 0 2.8828-0.59766 3.75-1.7969 0.86328-1.1953 1.2969-2.9297 1.2969-5.2031 0-2.2812-0.43359-4.0195-1.2969-5.2188-0.86719-1.1953-2.1172-1.7969-3.75-1.7969-1.6367 0-2.8906 0.60547-3.7656 1.8125-0.875 1.1992-1.3125 2.9336-1.3125 5.2031 0 2.2617 0.4375 3.9961 1.3125 5.2031 0.875 1.1992 2.1289 1.7969 3.7656 1.7969zm-5.0781-15.484c1.0508-1.3945 2.2188-2.4219 3.5-3.0781 1.2812-0.66406 2.7539-1 4.4219-1 2.9453 0 5.3672 1.1719 7.2656 3.5156 1.8945 2.3438 2.8438 5.3594 2.8438 9.0469s-0.94922 6.7031-2.8438 9.0469c-1.8984 2.3438-4.3203 3.5156-7.2656 3.5156-1.668 0-3.1406-0.33594-4.4219-1s-2.4492-1.6914-3.5-3.0781v3.4531h-7.6562v-33.234h7.6562z"/>
  </symbol>
  <symbol id="h" overflow="visible">
   <path d="m0.53125-23.922h7.6562l6.4219 16.234 5.4688-16.234h7.6562l-10.062 26.188c-1.0117 2.6641-2.1953 4.5234-3.5469 5.5781-1.3438 1.0625-3.1211 1.5938-5.3281 1.5938h-4.4219v-5.0156h2.3906c1.3008 0 2.2422-0.21094 2.8281-0.625 0.59375-0.40625 1.0547-1.1484 1.3906-2.2188l0.20312-0.65625z"/>
  </symbol>
  <symbol id="g" overflow="visible">
   <path d="m4.0156-31.891h9.1875l11.594 21.875v-21.875h7.7969v31.891h-9.1875l-11.594-21.875v21.875h-7.7969z"/>
  </symbol>
  <symbol id="f" overflow="visible">
   <path d="m3.6719-23.922h7.6562v23.922h-7.6562zm0-9.3125h7.6562v6.2344h-7.6562z"/>
  </symbol>
  <symbol id="e" overflow="visible">
   <path d="m27.734-14.562v14.562h-7.7031v-11.109c0-2.0938-0.046875-3.5312-0.14062-4.3125-0.085937-0.78125-0.24219-1.3594-0.46875-1.7344-0.30469-0.5-0.71094-0.88281-1.2188-1.1562-0.51172-0.28125-1.0938-0.42188-1.75-0.42188-1.5938 0-2.8516 0.61719-3.7656 1.8438-0.90625 1.2305-1.3594 2.9375-1.3594 5.125v11.766h-7.6562v-33.234h7.6562v12.812c1.1445-1.3945 2.3633-2.4219 3.6562-3.0781 1.3008-0.66406 2.7383-1 4.3125-1 2.7578 0 4.8516 0.85156 6.2812 2.5469 1.4375 1.6875 2.1562 4.1523 2.1562 7.3906z"/>
  </symbol>
  <symbol id="d" overflow="visible">
   <path d="m27.734-14.562v14.562h-7.7031v-11.156c0-2.0625-0.046875-3.4844-0.14062-4.2656-0.085937-0.78125-0.24219-1.3594-0.46875-1.7344-0.30469-0.5-0.71094-0.88281-1.2188-1.1562-0.51172-0.28125-1.0938-0.42188-1.75-0.42188-1.5938 0-2.8516 0.61719-3.7656 1.8438-0.90625 1.2305-1.3594 2.9375-1.3594 5.125v11.766h-7.6562v-23.922h7.6562v3.5c1.1445-1.3945 2.3633-2.4219 3.6562-3.0781 1.3008-0.66406 2.7383-1 4.3125-1 2.7578 0 4.8516 0.85156 6.2812 2.5469 1.4375 1.6875 2.1562 4.1523 2.1562 7.3906z"/>
  </symbol>
  <symbol id="l" overflow="visible">
   <path d="m0.21875-31.891h29.391v6.2188h-10.578v25.672h-8.2188v-25.672h-10.594z"/>
  </symbol>
 </defs>
 <g>
  <path d="m424.38 78.75v-8.75c-9.2812 0.011719-18.176 3.7031-24.738 10.262-6.5586 6.5625-10.25 15.457-10.262 24.738h8.75c0.007812-6.9609 2.7773-13.633 7.6953-18.555 4.9219-4.918 11.594-7.6875 18.555-7.6953z"/>
  <path d="m538.12 91.875h8.75c-0.011719-9.2812-3.7031-18.176-10.262-24.738-6.5625-6.5586-15.457-10.25-24.738-10.262v8.75c6.9609 0.007812 13.633 2.7773 18.555 7.6953 4.918 4.9219 7.6875 11.594 7.6953 18.555z"/>
  <path d="m468.12 100.62h-8.75c-0.007812 6.9609-2.7773 13.633-7.6953 18.555-4.9219 4.918-11.594 7.6875-18.555 7.6953v8.75c9.2812-0.011719 18.176-3.7031 24.738-10.262 6.5586-6.5625 10.25-15.457 10.262-24.738z"/>
  <path d="m542.5 135.62v-8.75c-6.9609-0.007812-13.633-2.7773-18.555-7.6953-4.918-4.9219-7.6875-11.594-7.6953-18.555h-8.75c0.011719 9.2812 3.7031 18.176 10.262 24.738 6.5625 6.5586 15.457 10.25 24.738 10.262z"/>
  <path d="m565.93 336.45c-0.91016-5.0625-1.7148-10.141-2.4062-15.238-0.30859-2.2617-0.62891-4.5195-0.89453-6.7891-0.60547-5.1016-1.0625-10.223-1.4531-15.348-0.16016-2.1211-0.37891-4.2344-0.50391-6.3594-0.41797-7.1406-0.67578-14.297-0.67578-21.465 0-2.3203-0.92188-4.5469-2.5625-6.1875s-3.8672-2.5625-6.1875-2.5625h-157.5c-4.832 0-8.75 3.918-8.75 8.75v2.707c0 7.2734-0.23438 14.543-0.66406 21.801-0.042969 0.77344-0.125 1.5469-0.17578 2.3203-0.42969 6.5547-1.0156 13.098-1.7891 19.617-0.089844 0.75-0.19141 1.5-0.28516 2.25-0.85156 6.8047-1.8711 13.59-3.0938 20.332l-0.14844 0.83203c-6.6641 36.453-18.762 71.703-35.891 104.57l-52.848 83.391h0.003906c-1.707 2.6953-1.8125 6.1055-0.27344 8.9023 1.5391 2.793 4.4727 4.5312 7.6641 4.5312h306.25c2.3203 0 4.5469-0.92188 6.1875-2.5625s2.5625-3.8672 2.5625-6.1875v-70c0-1.4648-0.36719-2.9023-1.0664-4.1875l-6.4102-11.758c-17.918-32.945-30.719-68.43-37.953-105.23-0.39844-2.0352-0.76953-4.0781-1.1367-6.125zm-167.21-9.082c0.43359-3.125 0.74609-6.2656 1.1055-9.3984 0.53125-4.7188 1.1172-9.4219 1.4766-14.16 0.54688-7.0195 0.86328-14.055 1.0234-21.094 0.019531-0.90625 0.11719-1.8086 0.13281-2.7148h140.13c0.17969 7.8633 0.60547 15.707 1.2812 23.539 0.29297 3.4961 0.79297 6.9648 1.1836 10.453 0.48047 4.2695 0.88672 8.5508 1.5039 12.801 0.078125 0.53516 0.10938 1.0781 0.19141 1.6094l-25.008-20.207c-3.7188-3.0039-9.1602-2.4688-12.219 1.2031l-35.188 42.219-20.266-40.531c-1.082-2.1602-3.0117-3.7812-5.3281-4.4727-2.3164-0.6875-4.8164-0.39062-6.9062 0.82422l-43.77 25.492c0.28125-1.8438 0.39844-3.7109 0.65234-5.5625zm196.27 138.61v59.02h-281.6l44.699-70.582c16.219-31.125 28.16-64.301 35.492-98.625l49.004-28.539 22.082 44.16h-0.003906c1.3203 2.6406 3.8867 4.4375 6.8203 4.7773 0.33203 0.039063 0.67187 0.058594 1.0078 0.058594 2.5977 0 5.0586-1.1523 6.7188-3.1484l38.234-45.879 34.426 27.824c7.8008 35.312 20.52 69.359 37.781 101.14z"/>
  <path d="m428.75 201.25h17.5v43.75h-17.5z"/>
  <path d="m463.75 201.25h17.5v43.75h-17.5z"/>
  <path d="m498.75 201.25h17.5v43.75h-17.5z"/>
  <path d="m123.99 481.25c3.8633-0.042969 7.5625 1.5742 10.152 4.4414l1.9688 1.8555c6.082 7.1094 14.969 11.199 24.324 11.203s18.246-4.082 24.332-11.184c4.4414-4.2656 6.8164-6.3164 12.176-6.3164 5.3477 0 7.7188 2.0469 12.156 6.3086v0.003906c3.1016 3.2031 6.6758 5.9102 10.598 8.0273 0.23047 0.11719 0.45312 0.23047 0.6875 0.33984v0.003906c1.5664 0.74609 3.1992 1.3477 4.8789 1.7969l0.023437 0.007812h0.023438c2.6367 0.68359 5.3477 1.0234 8.0703 1.0117 9.3203-0.078125 18.164-4.1523 24.277-11.191 4.4336-4.2656 6.8008-6.3086 12.152-6.3086s7.7188 2.0508 12.16 6.3086l0.73047 0.70312 12.09-12.656-0.69531-0.66797-0.003906 0.007812c-6.0664-7.1055-14.938-11.195-24.277-11.195s-18.215 4.0898-24.281 11.191c-2.4023 2.9062-5.6445 5-9.2852 5.9961v-60.938h8.75c3.5391 0 6.7305-2.1328 8.082-5.4023 1.3555-3.2695 0.60547-7.0312-1.8945-9.5352l-61.25-61.25c-1.6406-1.6406-3.8672-2.5625-6.1875-2.5625s-4.5469 0.92188-6.1875 2.5625l-61.25 61.25c-2.5 2.5039-3.25 6.2656-1.8945 9.5352 1.3516 3.2695 4.543 5.4023 8.082 5.4023h8.75v44.598c-2.3789-0.5625-4.8164-0.84375-7.2578-0.84766-9.332 0.074219-18.18 4.1484-24.309 11.184-4.4414 4.2656-6.8164 6.3164-12.184 6.3164v17.5c9.3281-0.078125 18.176-4.1484 24.301-11.184 4.4453-4.2656 6.8242-6.3164 12.191-6.3164zm94.758-8.6562c-0.14062-0.12891-0.32422-0.25391-0.46875-0.38281-0.93359-0.83203-1.9336-1.6602-3.0234-2.4648-0.17578-0.12891-0.32422-0.26172-0.5-0.38672-1.3086-0.91797-2.6797-1.7344-4.1094-2.4414-0.32422-0.16406-0.63672-0.32422-0.97266-0.48047-1.6328-0.74609-3.332-1.3359-5.0781-1.7617-0.34766-0.085937-0.71484-0.14453-1.0742-0.21484-2.1602-0.46484-4.3633-0.70313-6.5742-0.71094-9.3281 0.078125-18.176 4.1523-24.293 11.191-4.4414 4.2578-6.8164 6.3086-12.172 6.3086h-0.003906c-1.1758 0.015625-2.3516-0.11328-3.5-0.38281-0.21875-0.050782-0.39453-0.16797-0.60547-0.23047-0.79688-0.22656-1.5703-0.53516-2.3008-0.93359-0.11719-0.066406-0.23047-0.17188-0.34766-0.24219v0.003906c-1.7969-1.1953-3.4648-2.5703-4.9766-4.1094v-55.355h70zm-35-110.22 40.129 40.129h-80.258z"/>
  <path d="m110.01 530.92c3.8633-4.2109 5.5898-5.918 9.6133-5.918 4.0234 0 5.7539 1.707 9.6172 5.918 5.3008 7.1406 13.613 11.422 22.508 11.582 8.8867-0.16406 17.195-4.4453 22.484-11.586 3.8555-4.207 5.5742-5.9141 9.582-5.9141 4.0039 0 5.7266 1.7031 9.5781 5.9102h0.003906c5.1758 7.2695 13.551 11.59 22.48 11.59 8.9258 0 17.305-4.3203 22.48-11.59 3.8555-4.207 5.5781-5.9102 9.5781-5.9102 4.0039 0 5.7266 1.7031 9.5742 5.9102h0.003907c2.668 3.1797 5.8164 5.9258 9.3281 8.1367l8.8203-15.117v0.003906c-1.9688-1.3633-3.7344-2.9922-5.2461-4.8477-5.1797-7.2695-13.555-11.586-22.48-11.586-8.9297 0-17.305 4.3203-22.48 11.59-3.8555 4.2031-5.5742 5.9102-9.5781 5.9102s-5.7266-1.7031-9.5781-5.9102c-5.1797-7.2695-13.555-11.59-22.484-11.59-8.9258 0-17.305 4.3164-22.484 11.586-3.8555 4.2109-5.5742 5.9141-9.582 5.9141-4.0234 0-5.75-1.707-9.6133-5.918-5.3047-7.1406-13.617-11.422-22.512-11.582-8.8945 0.16016-17.207 4.4414-22.508 11.582-3.8633 4.2109-5.5898 5.918-9.6133 5.918v17.5c8.8945-0.16016 17.207-4.4414 22.508-11.582z"/>
  <path d="m392.02 157.47c7.4023 12.859 19.906 21.98 34.41 25.105 14.504 3.125 29.656-0.039063 41.695-8.7109 10.531 7.6016 23.512 11.008 36.418 9.5625 12.906-1.4492 24.809-7.6484 33.395-17.395 1.5469 0.14453 3.0625 0.21875 4.5625 0.21875 9.6523-0.011719 19.117-2.6836 27.352-7.7266 8.2344-5.0391 14.918-12.25 19.32-20.844 1.5859 1.4766 3.6641 2.3047 5.8281 2.3203 2.3203 0 4.5469-0.92188 6.1875-2.5625s2.5625-3.8672 2.5625-6.1875v-8.75c0-2.3203-0.92188-4.5469-2.5625-6.1875s-3.8672-2.5625-6.1875-2.5625c0.023438-14.961-6.4141-29.199-17.656-39.066-1.043-13.176-7.0039-25.473-16.703-34.449-9.7031-8.9766-22.426-13.969-35.641-13.984-6.4375 0.007812-12.812 1.2461-18.785 3.6445-9.4141-8-21.363-12.395-33.715-12.395s-24.305 4.3945-33.715 12.395c-5.9727-2.3984-12.348-3.6367-18.785-3.6445-10.094 0.039062-19.965 2.9844-28.43 8.4844-8.4648 5.5039-15.164 13.324-19.301 22.535-14.547 6.4961-25.344 19.262-29.34 34.68-4 15.418-0.76953 31.82 8.7852 44.57 9.5508 12.746 24.383 20.457 40.305 20.949zm-10.07-85.25c2.4531-0.88672 4.3828-2.8164 5.2695-5.2695 3.4492-9.4961 10.844-17.027 20.273-20.656 9.4297-3.625 19.969-2.9844 28.891 1.75 3.5078 1.8906 7.8438 1.168 10.547-1.7578 6.5586-7.1914 15.84-11.285 25.57-11.285s19.012 4.0938 25.57 11.285c2.6992 2.9219 7.0391 3.6484 10.543 1.7578 5.0195-2.7695 10.652-4.2461 16.387-4.293 9.2227 0.011719 18.07 3.6562 24.625 10.148 6.5508 6.4922 10.281 15.309 10.375 24.531-0.011719 0.17578-0.015625 0.34766-0.015625 0.50391-0.003906 2.7461 1.2852 5.332 3.4766 6.9844 8.8203 6.5352 14.027 16.855 14.039 27.832 0.066406 10.461-4.582 20.398-12.652 27.055-8.0703 6.6562-18.711 9.3242-28.969 7.2656-3.3477-0.625-6.7539 0.73828-8.75 3.4961-5.9102 8.3398-15.184 13.66-25.367 14.551-10.18 0.89062-20.238-2.7344-27.504-9.9219-3.4062-3.3359-8.8594-3.3359-12.266 0-8.2383 8.1211-19.965 11.637-31.316 9.3867-11.348-2.2461-20.852-9.9688-25.371-20.617-1.4961-3.457-5.0234-5.5859-8.7773-5.2891-0.60547 0.050781-1.2031 0.12891-1.7969 0.21094l-0.003907-0.003907c-0.32031 0.0625-0.64844 0.10156-0.97656 0.11719-11.07 0.03125-21.5-5.1914-28.105-14.074-6.6055-8.8828-8.6055-20.371-5.3906-30.965s11.266-19.031 21.695-22.742z"/>
  <path d="m143.21 199.28c1.5586 1.2773 3.5156 1.9766 5.5352 1.9727h17.5v-17.5h-13.672c-0.66406-0.32031-1.3633-0.55859-2.0859-0.70312-11.332-2.3281-20.789-10.102-25.266-20.77-4.4727-10.668-3.3945-22.859 2.8867-32.578 6.2812-9.7148 16.957-15.703 28.523-16 0.37109 0.050781 1.125 0.12109 1.5 0.12891 4.3672 0.16797 8.1523-2.9922 8.7695-7.3164 2.2852-13.715 10.957-25.523 23.363-31.801 12.402-6.2812 27.059-6.2812 39.461 0 12.406 6.2773 21.078 18.086 23.363 31.801 0.69922 4.2188 4.3516 7.3125 8.6289 7.3164 0.38672-0.003906 0.77734-0.03125 1.1641-0.078125 11.621 0.12891 22.422 6.0195 28.824 15.719 6.4023 9.6992 7.5742 21.945 3.1211 32.684-4.4492 10.738-13.938 18.566-25.324 20.895-0.72266 0.14453-1.4219 0.38281-2.0859 0.70312h-22.422v17.5h26.25c2.0195 0.003906 3.9766-0.69531 5.5352-1.9727 15.691-4.4414 28.43-15.918 34.477-31.062 6.043-15.148 4.707-32.242-3.6172-46.266-8.3242-14.02-22.691-23.379-38.883-25.328-4.9609-17.082-17.113-31.16-33.289-38.566-16.176-7.4062-34.77-7.4062-50.945 0-16.176 7.4062-28.328 21.484-33.289 38.566-16.191 1.9492-30.559 11.309-38.883 25.328-8.3242 14.023-9.6602 31.117-3.6172 46.266 6.0469 15.145 18.785 26.621 34.473 31.062z"/>
  <path d="m235.39 171.21c-1.457-3.0312-4.5234-4.9609-7.8867-4.9609h-26.25l15.75-21-13.996-10.5-26.25 35h-0.003906c-1.9883 2.6484-2.3086 6.1992-0.82812 9.1641 1.4844 2.9648 4.5117 4.8359 7.8281 4.8359h25.547l-23.625 29.535 13.664 10.93 35-43.75h-0.003907c2.1016-2.625 2.5117-6.2227 1.0547-9.2539z"/>
  <path d="m237.17 258.59 17.5-35 15.652 7.8281-17.5 35z"/>
  <path d="m123.42 258.59 17.5-35 15.652 7.8281-17.5 35z"/>
  <path d="m149.67 293.59 17.5-35 15.652 7.8281-17.5 35z"/>
  <path d="m193.42 293.59 17.5-35 15.652 7.8281-17.5 35z"/>
  <path d="m237.17 319.84 17.5-35 15.652 7.8281-17.5 35z"/>
  <path d="m97.172 319.84 17.5-35 15.652 7.8281-17.5 35z"/>
  <use x="70" y="691.25" xlink:href="#m"/>
  <use x="102.109375" y="691.25" xlink:href="#k"/>
  <use x="123.683594" y="691.25" xlink:href="#c"/>
  <use x="153.355469" y="691.25" xlink:href="#a"/>
  <use x="182.878906" y="691.25" xlink:href="#b"/>
  <use x="203.792969" y="691.25" xlink:href="#c"/>
  <use x="233.464844" y="691.25" xlink:href="#j"/>
  <use x="280.011719" y="691.25" xlink:href="#i"/>
  <use x="311.328125" y="691.25" xlink:href="#h"/>
  <use x="355.078125" y="691.25" xlink:href="#g"/>
  <use x="391.695312" y="691.25" xlink:href="#f"/>
  <use x="406.691406" y="691.25" xlink:href="#b"/>
  <use x="427.605469" y="691.25" xlink:href="#e"/>
  <use x="458.75" y="691.25" xlink:href="#f"/>
  <use x="473.746094" y="691.25" xlink:href="#d"/>
  <use x="504.894531" y="691.25" xlink:href="#a"/>
  <use x="534.417969" y="691.25" xlink:href="#d"/>
  <use x="580.792969" y="691.25" xlink:href="#l"/>
  <use x="610.636719" y="691.25" xlink:href="#a"/>
  <use x="640.160156" y="691.25" xlink:href="#b"/>
  <use x="661.074219" y="691.25" xlink:href="#a"/>
  <use x="690.597656" y="691.25" xlink:href="#e"/>
 </g>
</svg>
