<?xml version="1.0" encoding="UTF-8"?>
<svg width="700pt" height="700pt" version="1.1" viewBox="0 0 700 700" xmlns="http://www.w3.org/2000/svg" xmlns:xlink="http://www.w3.org/1999/xlink">
 <defs>
  <symbol id="m" overflow="visible">
   <path d="m29.312-1.75c-1.5117 0.78125-3.0898 1.3711-4.7344 1.7656-1.6367 0.40625-3.3398 0.60938-5.1094 0.60938-5.3125 0-9.5273-1.4844-12.641-4.4531-3.1055-2.9688-4.6562-7-4.6562-12.094s1.5508-9.125 4.6562-12.094c3.1133-2.9688 7.3281-4.4531 12.641-4.4531 1.7695 0 3.4727 0.19922 5.1094 0.59375 1.6445 0.39844 3.2227 0.99219 4.7344 1.7812v6.5938c-1.5312-1.0391-3.0391-1.8008-4.5156-2.2812-1.4805-0.48828-3.0391-0.73438-4.6719-0.73438-2.9375 0-5.2461 0.94531-6.9219 2.8281-1.6797 1.875-2.5156 4.4648-2.5156 7.7656 0 3.293 0.83594 5.8828 2.5156 7.7656 1.6758 1.875 3.9844 2.8125 6.9219 2.8125 1.6328 0 3.1914-0.23828 4.6719-0.71875 1.4766-0.48828 2.9844-1.2539 4.5156-2.2969z"/>
  </symbol>
  <symbol id="h" overflow="visible">
   <path d="m21.453-17.406c-0.67969-0.3125-1.3516-0.53906-2.0156-0.6875-0.65625-0.15625-1.3203-0.23438-1.9844-0.23438-1.9688 0-3.4844 0.63281-4.5469 1.8906-1.0547 1.2617-1.5781 3.0703-1.5781 5.4219v11.016h-7.6562v-23.922h7.6562v3.9219c0.97656-1.5625 2.1016-2.7031 3.375-3.4219 1.2812-0.71875 2.8125-1.0781 4.5938-1.0781 0.25 0 0.52344 0.011719 0.82812 0.03125 0.30078 0.023438 0.73438 0.070312 1.2969 0.14062z"/>
  </symbol>
  <symbol id="d" overflow="visible">
   <path d="m27.562-12.031v2.1875h-17.891c0.1875 1.793 0.83203 3.1367 1.9375 4.0312 1.1133 0.89844 2.6719 1.3438 4.6719 1.3438 1.6016 0 3.25-0.23438 4.9375-0.70312 1.6875-0.47656 3.4219-1.2031 5.2031-2.1719v5.8906c-1.8047 0.6875-3.6094 1.2031-5.4219 1.5469-1.8125 0.35156-3.6211 0.53125-5.4219 0.53125-4.3359 0-7.7031-1.0977-10.109-3.2969-2.3984-2.207-3.5938-5.2969-3.5938-9.2656 0-3.9062 1.1758-6.9727 3.5312-9.2031 2.3633-2.2383 5.6094-3.3594 9.7344-3.3594 3.7578 0 6.7695 1.1367 9.0312 3.4062 2.2578 2.2617 3.3906 5.2812 3.3906 9.0625zm-7.8594-2.5312c0-1.457-0.42969-2.6289-1.2812-3.5156-0.84375-0.89453-1.9492-1.3438-3.3125-1.3438-1.4922 0-2.6992 0.41797-3.625 1.25-0.91797 0.83594-1.4922 2.0391-1.7188 3.6094z"/>
  </symbol>
  <symbol id="b" overflow="visible">
   <path d="m14.391-10.766c-1.5938 0-2.793 0.27344-3.5938 0.8125-0.80469 0.54297-1.2031 1.3398-1.2031 2.3906 0 0.96875 0.32031 1.7305 0.96875 2.2812 0.64453 0.54297 1.5469 0.8125 2.7031 0.8125 1.4375 0 2.6445-0.51562 3.625-1.5469 0.98828-1.0312 1.4844-2.3203 1.4844-3.875v-0.875zm11.688-2.8906v13.656h-7.7031v-3.5469c-1.0312 1.4492-2.1875 2.5078-3.4688 3.1719s-2.8398 1-4.6719 1c-2.4805 0-4.4961-0.72266-6.0469-2.1719-1.543-1.4453-2.3125-3.3203-2.3125-5.625 0-2.8125 0.96094-4.8672 2.8906-6.1719 1.9375-1.3125 4.9688-1.9688 9.0938-1.9688h4.5156v-0.60938c0-1.207-0.48047-2.0938-1.4375-2.6562-0.94922-0.5625-2.4375-0.84375-4.4688-0.84375-1.6367 0-3.1562 0.16797-4.5625 0.5-1.4062 0.32422-2.7188 0.8125-3.9375 1.4688v-5.8281c1.6445-0.40625 3.2891-0.70703 4.9375-0.90625 1.6562-0.20703 3.3047-0.3125 4.9531-0.3125 4.3203 0 7.4375 0.85547 9.3438 2.5625 1.9141 1.6992 2.875 4.4609 2.875 8.2812z"/>
  </symbol>
  <symbol id="g" overflow="visible">
   <path d="m12.031-30.719v6.7969h7.875v5.4688h-7.875v10.141c0 1.1172 0.21875 1.8711 0.65625 2.2656 0.4375 0.38672 1.3125 0.57812 2.625 0.57812h3.9375v5.4688h-6.5625c-3.0234 0-5.1641-0.62891-6.4219-1.8906-1.2617-1.2578-1.8906-3.3984-1.8906-6.4219v-10.141h-3.7969v-5.4688h3.7969v-6.7969z"/>
  </symbol>
  <symbol id="a" overflow="visible">
   <path d="m19.953-20.422v-12.812h7.6875v33.234h-7.6875v-3.4531c-1.0547 1.4062-2.2148 2.4375-3.4844 3.0938-1.2734 0.65625-2.7422 0.98438-4.4062 0.98438-2.9492 0-5.3711-1.1719-7.2656-3.5156-1.8867-2.3438-2.8281-5.3594-2.8281-9.0469s0.94141-6.7031 2.8281-9.0469c1.8945-2.3438 4.3164-3.5156 7.2656-3.5156 1.6562 0 3.1172 0.33594 4.3906 1 1.2812 0.65625 2.4453 1.6836 3.5 3.0781zm-5.0469 15.484c1.6445 0 2.8945-0.59766 3.75-1.7969 0.86328-1.1953 1.2969-2.9297 1.2969-5.2031 0-2.2812-0.43359-4.0195-1.2969-5.2188-0.85547-1.1953-2.1055-1.7969-3.75-1.7969-1.625 0-2.8711 0.60156-3.7344 1.7969-0.85547 1.1992-1.2812 2.9375-1.2812 5.2188 0 2.2734 0.42578 4.0078 1.2812 5.2031 0.86328 1.1992 2.1094 1.7969 3.7344 1.7969z"/>
  </symbol>
  <symbol id="c" overflow="visible">
   <path d="m16.406-4.9375c1.6328 0 2.8828-0.59766 3.75-1.7969 0.86328-1.1953 1.2969-2.9297 1.2969-5.2031 0-2.2812-0.43359-4.0195-1.2969-5.2188-0.86719-1.1953-2.1172-1.7969-3.75-1.7969-1.6367 0-2.8906 0.60547-3.7656 1.8125-0.875 1.1992-1.3125 2.9336-1.3125 5.2031 0 2.2617 0.4375 3.9961 1.3125 5.2031 0.875 1.1992 2.1289 1.7969 3.7656 1.7969zm-5.0781-15.484c1.0508-1.3945 2.2188-2.4219 3.5-3.0781 1.2812-0.66406 2.7539-1 4.4219-1 2.9453 0 5.3672 1.1719 7.2656 3.5156 1.8945 2.3438 2.8438 5.3594 2.8438 9.0469s-0.94922 6.7031-2.8438 9.0469c-1.8984 2.3438-4.3203 3.5156-7.2656 3.5156-1.668 0-3.1406-0.33594-4.4219-1s-2.4492-1.6914-3.5-3.0781v3.4531h-7.6562v-33.234h7.6562z"/>
  </symbol>
  <symbol id="f" overflow="visible">
   <path d="m0.53125-23.922h7.6562l6.4219 16.234 5.4688-16.234h7.6562l-10.062 26.188c-1.0117 2.6641-2.1953 4.5234-3.5469 5.5781-1.3438 1.0625-3.1211 1.5938-5.3281 1.5938h-4.4219v-5.0156h2.3906c1.3008 0 2.2422-0.21094 2.8281-0.625 0.59375-0.40625 1.0547-1.1484 1.3906-2.2188l0.20312-0.65625z"/>
  </symbol>
  <symbol id="e" overflow="visible">
   <path d="m26.219-30.891v6.75c-1.7617-0.78125-3.4766-1.3672-5.1406-1.7656-1.668-0.40625-3.2422-0.60938-4.7188-0.60938-1.9609 0-3.4141 0.27344-4.3594 0.8125-0.9375 0.54297-1.4062 1.3867-1.4062 2.5312 0 0.85547 0.31641 1.5234 0.95312 2 0.63281 0.46875 1.7852 0.875 3.4531 1.2188l3.5 0.70312c3.5391 0.71875 6.0625 1.8047 7.5625 3.25 1.5 1.4492 2.25 3.5117 2.25 6.1875 0 3.5234-1.0469 6.1406-3.1406 7.8594-2.0859 1.7188-5.2734 2.5781-9.5625 2.5781-2.0234 0-4.0547-0.19531-6.0938-0.57812-2.0312-0.38281-4.0625-0.95703-6.0938-1.7188v-6.9375c2.0312 1.0859 3.9922 1.9023 5.8906 2.4531 1.9062 0.54297 3.7422 0.8125 5.5156 0.8125 1.7891 0 3.1602-0.29688 4.1094-0.89062 0.95703-0.60156 1.4375-1.457 1.4375-2.5625 0-1-0.32422-1.7695-0.96875-2.3125-0.64844-0.53906-1.9375-1.0234-3.875-1.4531l-3.1875-0.70312c-3.1875-0.6875-5.5234-1.7734-7-3.2656-1.4688-1.5-2.2031-3.5156-2.2031-6.0469 0-3.1758 1.0234-5.6172 3.0781-7.3281 2.0508-1.707 5-2.5625 8.8438-2.5625 1.75 0 3.5508 0.13281 5.4062 0.39062 1.8516 0.26172 3.7695 0.65625 5.75 1.1875z"/>
  </symbol>
  <symbol id="l" overflow="visible">
   <path d="m27.734-14.562v14.562h-7.7031v-11.109c0-2.0938-0.046875-3.5312-0.14062-4.3125-0.085937-0.78125-0.24219-1.3594-0.46875-1.7344-0.30469-0.5-0.71094-0.88281-1.2188-1.1562-0.51172-0.28125-1.0938-0.42188-1.75-0.42188-1.5938 0-2.8516 0.61719-3.7656 1.8438-0.90625 1.2305-1.3594 2.9375-1.3594 5.125v11.766h-7.6562v-33.234h7.6562v12.812c1.1445-1.3945 2.3633-2.4219 3.6562-3.0781 1.3008-0.66406 2.7383-1 4.3125-1 2.7578 0 4.8516 0.85156 6.2812 2.5469 1.4375 1.6875 2.1562 4.1523 2.1562 7.3906z"/>
  </symbol>
  <symbol id="k" overflow="visible">
   <path d="m4.0156-31.891h8.2188v19.109c0 2.6367 0.42969 4.5234 1.2969 5.6562 0.86328 1.1367 2.2695 1.7031 4.2188 1.7031 1.9688 0 3.3789-0.56641 4.2344-1.7031 0.86328-1.1328 1.2969-3.0195 1.2969-5.6562v-19.109h8.2344v19.109c0 4.5234-1.1367 7.8867-3.4062 10.094-2.2617 2.2109-5.7148 3.3125-10.359 3.3125-4.625 0-8.0742-1.1016-10.344-3.3125-2.2617-2.207-3.3906-5.5703-3.3906-10.094z"/>
  </symbol>
  <symbol id="j" overflow="visible">
   <path d="m3.6719-23.922h7.6562v23.922h-7.6562zm0-9.3125h7.6562v6.2344h-7.6562z"/>
  </symbol>
  <symbol id="i" overflow="visible">
   <path d="m27.734-14.562v14.562h-7.7031v-11.156c0-2.0625-0.046875-3.4844-0.14062-4.2656-0.085937-0.78125-0.24219-1.3594-0.46875-1.7344-0.30469-0.5-0.71094-0.88281-1.2188-1.1562-0.51172-0.28125-1.0938-0.42188-1.75-0.42188-1.5938 0-2.8516 0.61719-3.7656 1.8438-0.90625 1.2305-1.3594 2.9375-1.3594 5.125v11.766h-7.6562v-23.922h7.6562v3.5c1.1445-1.3945 2.3633-2.4219 3.6562-3.0781 1.3008-0.66406 2.7383-1 4.3125-1 2.7578 0 4.8516 0.85156 6.2812 2.5469 1.4375 1.6875 2.1562 4.1523 2.1562 7.3906z"/>
  </symbol>
 </defs>
 <g>
  <path d="m154.52 228.11h206.15c0.60938 0.089844 1.2266 0.089844 1.8359 0 17.215-3.7656 31.309-16.078 37.348-32.633 6.0391-16.555 3.1836-35.047-7.5664-49.012-10.746-13.965-27.895-21.457-45.441-19.855-0.91016-11.242-5.9609-21.742-14.172-29.473-8.2148-7.7266-19.004-12.129-30.281-12.352-2.8711-27.328-19.648-51.234-44.363-63.234-24.719-12-53.879-10.391-77.129 4.2539-23.25 14.645-37.293 40.254-37.145 67.73 0.003906 2.9219 0.17969 5.8438 0.52734 8.75-18.258 6.4336-32.719 20.641-39.477 38.781-6.7539 18.141-5.1094 38.344 4.4883 55.152 9.6016 16.809 26.168 28.492 45.223 31.891zm1.1367-111.39h0.003906c3.4648-0.83203 7.0195-1.2461 10.586-1.2266 6.4375-0.0625 12.812 1.2188 18.727 3.7617 1.0703 0.48438 2.2344 0.72266 3.4102 0.69922 3.6914-0.49219 6.6641-3.2656 7.4141-6.9102 0.75-3.6484-0.89062-7.3672-4.0898-9.2773-8.0469-3.4336-16.711-5.1914-25.461-5.1602h-5.6016v-5.25c0.81641-21.844 12.941-41.684 32.004-52.375 19.066-10.695 42.316-10.695 61.383 0 19.062 10.691 31.188 30.531 32.004 52.375 0.023438 7.6914-1.4023 15.32-4.2031 22.488-1.5195 4.3438 0.58203 9.125 4.8125 10.938 0.98437 0.35547 2.0195 0.53125 3.0625 0.52344 3.2969-0.011719 6.3047-1.8711 7.7891-4.8125 2.5859-6.6523 4.2344-13.633 4.8984-20.738 7.3984 0.22656 14.418 3.3203 19.578 8.6289 5.1602 5.3047 8.0547 12.41 8.0742 19.809-0.015625 1.7578-0.16016 3.5156-0.4375 5.25-0.64062 3.5391-1.9492 6.9258-3.8516 9.9766-2.2969 3.9883-1.1094 9.0742 2.7148 11.637 1.3242 0.86719 2.875 1.3242 4.4609 1.3125 2.8945-0.042969 5.582-1.5195 7.1758-3.9375 1.9531-3.2734 3.5117-6.7695 4.6367-10.414 12.035-2.6719 24.582 1.2812 32.914 10.367 8.332 9.0859 11.184 21.926 7.4805 33.688-3.7031 11.758-13.398 20.648-25.434 23.32h-202.82c-14.562-2.9453-26.965-12.422-33.637-25.699-6.6719-13.273-6.875-28.879-0.54688-42.324 6.3242-13.445 18.477-23.238 32.961-26.562z"/>
  <path d="m140 316.4c-4.4062-1.2383-9.0195 1.1289-10.586 5.4258l-1.3125 4.0234v0.003906c-1.2305 4.4258 1.1797 9.0508 5.5117 10.586 0.83984 0.13281 1.6953 0.13281 2.5352 0 3.6445-0.085938 6.8516-2.4219 8.0508-5.8633l1.3125-4.0234c0.97266-4.2891-1.3867-8.6328-5.5117-10.152z"/>
  <path d="m155.31 294.79 1.2266-4.0234v-0.003906c1.3438-4.457-1.043-9.1914-5.4258-10.762-4.4336-1.2891-9.1055 1.082-10.676 5.4258l-1.2266 4.0234c-1.2812 4.457 1.1367 9.1406 5.5156 10.676 0.83984 0.13281 1.6953 0.13281 2.5352 0 3.5117-0.003906 6.6797-2.1055 8.0508-5.3359z"/>
  <path d="m166.77 258.56 1.3125-4.0234c1.2383-4.4062-1.125-9.0195-5.4219-10.59-4.4336-1.2891-9.1055 1.0859-10.676 5.4258l-1.2266 4.375c-1.2891 4.4336 1.0859 9.1055 5.4258 10.676 0.87109 0.13281 1.7539 0.13281 2.625 0 3.6094-0.125 6.7734-2.4531 7.9609-5.8633z"/>
  <path d="m183.75 316.4c-4.4062-1.2383-9.0195 1.1289-10.586 5.4258l-1.3125 4.0234v0.003906c-1.2305 4.4258 1.1797 9.0508 5.5117 10.586 0.83984 0.13281 1.6953 0.13281 2.5352 0 3.6445-0.085938 6.8516-2.4219 8.0508-5.8633l1.3125-4.0234c0.97266-4.2891-1.3867-8.6328-5.5117-10.152z"/>
  <path d="m199.59 294.79 1.2266-4.0234v-0.003906c1.3438-4.457-1.0391-9.1914-5.4258-10.762-4.4297-1.2891-9.1055 1.082-10.676 5.4258l-0.96094 4.1992c-1.2812 4.457 1.1367 9.1406 5.5117 10.676 0.83984 0.13281 1.6992 0.13281 2.5391 0 3.457-0.13672 6.5078-2.2969 7.7852-5.5117z"/>
  <path d="m211.05 258.56 1.3125-4.0234c1.2383-4.4062-1.1289-9.0195-5.4258-10.59-4.4336-1.2891-9.1055 1.0859-10.676 5.4258l-1.2266 4.0234h0.003906c-1.293 4.4336 1.082 9.1055 5.4219 10.676 0.87109 0.13281 1.7578 0.13281 2.625 0 3.5234-0.066407 6.6602-2.2383 7.9648-5.5117z"/>
  <path d="m228.11 316.4c-4.4062-1.2383-9.0195 1.1289-10.59 5.4258l-1.3125 4.0234v0.003906c-1.2266 4.4258 1.1797 9.0508 5.5156 10.586 0.83984 0.13281 1.6953 0.13281 2.5352 0 3.6445-0.085938 6.8477-2.4219 8.0508-5.8633l1.3125-4.0234c0.97266-4.2891-1.3867-8.6328-5.5117-10.152z"/>
  <path d="m243.86 294.79 1.2266-4.0234-0.003906-0.003906c1.3477-4.457-1.0391-9.1914-5.4219-10.762-4.4336-1.2891-9.1055 1.082-10.676 5.4258l-1.4883 4.1992c-1.2891 4.4336 1.082 9.1055 5.4258 10.676 0.87109 0.13281 1.7539 0.13281 2.625 0 3.6484 0.074219 6.9609-2.1211 8.3125-5.5117z"/>
  <path d="m245 264.07c0.83984 0.125 1.6953 0.125 2.5391 0 3.6406-0.085938 6.8477-2.4219 8.0469-5.8633l1.3125-4.0234c1.4805-2.293 1.8008-5.1445 0.875-7.7109-0.92578-2.5664-2.9961-4.5508-5.5977-5.3711-2.6016-0.82031-5.4375-0.37891-7.668 1.1914-2.2305 1.5703-3.6016 4.0898-3.707 6.8164l-1.2266 3.9375c-1.5078 4.5391 0.90625 9.4492 5.4258 11.023z"/>
  <path d="m262.5 321.82-1.3125 4.0234v0.003906c-1.2305 4.4258 1.1797 9.0508 5.5117 10.586 0.83984 0.13281 1.6992 0.13281 2.5391 0 3.6406-0.085938 6.8477-2.4219 8.0508-5.8633l1.3125-4.0234c1.2266-4.4297-1.1797-9.0547-5.5156-10.59-4.5273-1.1953-9.1953 1.3906-10.586 5.8633z"/>
  <path d="m273.61 285.6-1.2266 4.0234c-1.2812 4.457 1.1367 9.1406 5.5117 10.676 0.84375 0.13281 1.6992 0.13281 2.5391 0 3.6406-0.089843 6.8477-2.4219 8.0508-5.8633l1.2266-4.0234h-0.003906c1.1367-4.3516-1.2109-8.8516-5.4219-10.414-4.4844-1.2734-9.1758 1.1875-10.676 5.6016z"/>
  <path d="m295.84 243.95c-4.4297-1.2891-9.1016 1.0859-10.672 5.4258l-1.2266 4.0234c-1.2891 4.4336 1.082 9.1055 5.4258 10.676 0.87109 0.13281 1.7539 0.13281 2.625 0 3.6094-0.12109 6.7734-2.4531 7.9609-5.8633l1.3125-4.0234c1.0352-4.293-1.293-8.6836-5.4258-10.238z"/>
  <path d="m306.25 321.82-1.3125 4.0234v0.003906c-1.2305 4.4258 1.1797 9.0508 5.5117 10.586 0.83984 0.13281 1.6992 0.13281 2.5391 0 3.6406-0.085938 6.8477-2.4219 8.0508-5.8633l1.3125-4.0234c1.2266-4.4297-1.1797-9.0547-5.5156-10.59-4.5273-1.1953-9.1953 1.3906-10.586 5.8633z"/>
  <path d="m317.98 285.6-1.3125 4.0234c-1.293 4.4336 1.082 9.1055 5.4219 10.676 0.87109 0.13281 1.7578 0.13281 2.625 0 3.6445-0.089843 6.8516-2.4219 8.0508-5.8633l1.2266-4.0234c1.1328-4.3516-1.2109-8.8516-5.4258-10.414-4.4531-1.2188-9.0898 1.2305-10.586 5.6016z"/>
  <path d="m333.64 264.07c0.84375 0.125 1.6953 0.125 2.5391 0 3.6406-0.085938 6.8477-2.4219 8.0508-5.8633l1.3125-4.0234c1.4766-2.293 1.7969-5.1445 0.87109-7.7109-0.92578-2.5664-2.9961-4.5508-5.5977-5.3711-2.6016-0.82031-5.4375-0.37891-7.668 1.1914s-3.6016 4.0898-3.707 6.8164l-1.2266 3.9375c-1.5078 4.5391 0.90625 9.4492 5.4258 11.023z"/>
  <path d="m462.35 226.36h106.31c8.5273-1.9688 16.145-6.75 21.621-13.574 5.4766-6.8281 8.4922-15.301 8.5664-24.051-0.046874-9.3008-3.457-18.27-9.6016-25.25s-14.605-11.5-23.824-12.727c6.125-16.246 4.7188-34.371-3.832-49.48s-23.367-25.645-40.449-28.754c-17.078-3.1133-34.66 1.5156-47.992 12.637-13.332 11.121-21.039 27.586-21.039 44.949-0.089843 1.543-0.089843 3.0938 0 4.6367-12.828 5.3906-22.691 16.07-27.051 29.285-4.3594 13.211-2.7891 27.664 4.3125 39.633 7.0977 11.965 19.027 20.273 32.711 22.781zm1.8359-77.613c6.3203-1.3906 12.918-0.80859 18.898 1.6641 1.0391 0.48828 2.1797 0.72656 3.3281 0.69922 3.9062-0.24219 7.1758-3.0469 8.0117-6.8711 0.83203-3.8242-0.97266-7.7344-4.4258-9.5781-6.6367-2.6523-13.777-3.8164-20.914-3.4141v-0.96094c-0.019532-14.348 7.3281-27.695 19.461-35.352 12.129-7.6562 27.34-8.5508 40.281-2.3633s21.797 18.586 23.453 32.836c1.6602 14.246-4.1172 28.348-15.293 37.34-3.5078 3-4.082 8.207-1.3125 11.898 1.625 1.9531 4.0195 3.1055 6.5625 3.1523 1.9492 0.011719 3.8438-0.67188 5.3359-1.9258 2.9375-2.3828 5.6367-5.0508 8.0508-7.9609 7.5195-1.8164 15.434 0.51953 20.762 6.125 5.3281 5.6055 7.2656 13.625 5.0742 21.043-2.1875 7.418-8.168 13.105-15.688 14.918h-101.06c-9.5234-1.8281-17.656-7.9766-22.016-16.641-4.3594-8.6602-4.4453-18.859-0.23828-27.594 4.2109-8.7383 12.238-15.023 21.73-17.016z"/>
  <path d="m432.07 320.86-1.2266 4.0234h0.003906c-1.2383 4.4062 1.125 9.0195 5.4219 10.59 0.87109 0.12891 1.7578 0.12891 2.625 0 3.6445-0.089843 6.8516-2.4258 8.0508-5.8633l1.2266-4.0234v-0.003906c1.2266-4.4258-1.1797-9.0508-5.5117-10.586-4.5312-1.1953-9.1992 1.3906-10.59 5.8633z"/>
  <path d="m443.62 284.64-1.3125 4.0234v0.003906c-1.2812 4.457 1.1367 9.1367 5.5117 10.672 0.84375 0.125 1.6953 0.125 2.5391 0 3.6406-0.085938 6.8477-2.4219 8.0508-5.8594l1.3125-4.0234v-0.003906c1.2266-4.4297-1.1797-9.0547-5.5156-10.586-4.5039-1.2031-9.1602 1.3359-10.586 5.7734z"/>
  <path d="m459.38 263.11c4.4297 1.2266 9.0547-1.1797 10.586-5.5117l1.3125-4.0234v-0.003906c0.35547-4.0781-2.168-7.8555-6.0703-9.0938-3.9023-1.2344-8.1406 0.39844-10.203 3.9336l-1.3125 4.0234c-1.2656 4.5078 1.2422 9.2109 5.6875 10.676z"/>
  <path d="m476.35 320.86-1.2266 4.0234c-1.2383 4.4062 1.125 9.0195 5.4258 10.59 0.83984 0.12109 1.6953 0.12109 2.5352 0 3.6445-0.089843 6.8516-2.4258 8.0508-5.8633l1.3125-4.0234v-0.003906c1.4727-2.2852 1.793-5.125 0.875-7.6875-0.91797-2.5586-2.9727-4.543-5.5625-5.375-2.5898-0.82813-5.418-0.41016-7.6523 1.1406-2.2383 1.5469-3.625 4.0469-3.7578 6.7617z"/>
  <path d="m487.9 284.64-1.3125 4.0234v0.003906c-1.2812 4.457 1.1367 9.1367 5.5156 10.672 0.83984 0.125 1.6953 0.125 2.5352 0 3.6445-0.085938 6.8477-2.4219 8.0508-5.8594l1.3125-4.0234v-0.003906c0.19531-3.957-2.293-7.5508-6.0664-8.7617-3.7734-1.2109-7.8906 0.26562-10.035 3.6016z"/>
  <path d="m503.65 263.11c0.84375 0.13281 1.6992 0.13281 2.5391 0 3.6406-0.089843 6.8477-2.4219 8.0508-5.8633l1.3125-4.0234c0.19531-3.9609-2.293-7.5547-6.0703-8.7656-3.7734-1.2109-7.8867 0.26953-10.031 3.6016l-1.3125 4.0234c-1.5 4.5664 0.96094 9.4883 5.5117 11.027z"/>
  <path d="m520.62 320.86-1.2266 4.0234c-1.2188 4.4531 1.2344 9.0898 5.6016 10.59 0.83984 0.12109 1.6953 0.12109 2.5391 0 3.6406-0.089843 6.8477-2.4258 8.0469-5.8633l1.3125-4.0234v-0.003906c1.2109-4.4766-1.2812-9.1211-5.6875-10.586-4.5273-1.1953-9.1953 1.3906-10.586 5.8633z"/>
  <path d="m532.18 284.64-1.3125 4.0234v0.003906c-1.2812 4.457 1.1367 9.1367 5.5117 10.672 0.83984 0.125 1.6953 0.125 2.5391 0 3.6406-0.085938 6.8477-2.4219 8.0469-5.8594l1.3125-4.0234v-0.003906c0.99609-4.3906-1.5-8.8164-5.7734-10.238-4.3203-1.082-8.7656 1.2539-10.324 5.4258z"/>
  <path d="m547.93 263.11c0.83984 0.13281 1.6953 0.13281 2.5352 0 3.6445-0.089843 6.8516-2.4219 8.0508-5.8633l1.4883-3.5c0.19531-3.957-2.293-7.5547-6.0664-8.7617-3.7734-1.2109-7.8906 0.26562-10.035 3.5977l-1.3125 4.0234v0.003906c-1.1953 4.3516 1.1172 8.8984 5.3398 10.5z"/>
  <path d="m293.65 417.64c1.1719 3.4766 4.3867 5.8516 8.0508 5.9492h9.1875v27.301l-4.6367-1.6602c-8.3516-3.2969-17.273-4.9023-26.25-4.7266-3.8086 1.0352-6.457 4.4961-6.457 8.4453 0 3.9453 2.6484 7.4062 6.457 8.4414 7.0391-0.18359 14.043 1.0977 20.562 3.7617 8.3555 3.2891 17.273 4.8945 26.25 4.7266 8.9766 0.17578 17.898-1.4297 26.25-4.7266 13.25-5.0117 27.875-5.0117 41.125 0 16.938 6.2812 35.562 6.2812 52.5 0 13.219-5.0156 27.816-5.0156 41.039 0 8.3555 3.2734 17.273 4.8789 26.25 4.7266 3.8086-1.0352 6.4531-4.4961 6.4531-8.4453 0-3.9453-2.6445-7.4062-6.4531-8.4414-7.043 0.18359-14.043-1.0977-20.562-3.7617-8.3555-3.2812-17.277-4.8906-26.25-4.7266-6.3203-0.12109-12.621 0.64453-18.727 2.2734v-23.188h9.3633c2.3203 0 4.5469-0.92188 6.1875-2.5625 1.6406-1.6406 2.5625-3.8672 2.5625-6.1875-0.074219-3.1602-1.8477-6.0391-4.6367-7.5234l-77.527-53.812c-2.9414-1.9609-6.7695-1.9609-9.7109 0l-77.875 54.688c-2.918 2.1875-4.1719 5.9531-3.1523 9.4492zm137.64 34.387h0.003906c-3.6992 0.66016-7.4453 0.98437-11.203 0.96484-7.0117 0.17578-13.984-1.1055-20.473-3.7617-16.938-6.2812-35.562-6.2812-52.5 0-6.1094 2.4922-12.652 3.7422-19.25 3.6719v-29.312h103.43zm-51.801-81.289 50.664 35.613-101.23 0.003906z"/>
  <path d="m607.51 491.05c-7.0312 0.19531-14.031-1.0547-20.562-3.6758-16.938-6.2773-35.562-6.2773-52.5 0-13.27 4.9023-27.855 4.9023-41.125 0-16.938-6.2773-35.562-6.2773-52.5 0-13.238 4.8984-27.797 4.8984-41.035 0-8.3594-3.2734-17.277-4.8789-26.25-4.7266-3.8125 1.0391-6.457 4.4961-6.457 8.4453s2.6445 7.4062 6.457 8.4453c7.0312-0.16797 14.023 1.082 20.562 3.6719 16.934 6.2812 35.562 6.2812 52.5 0 13.238-4.8945 27.797-4.8945 41.035 0 8.3477 3.3164 17.273 4.9219 26.25 4.7266 8.9805 0.22266 17.91-1.3867 26.25-4.7266 13.301-4.8984 27.914-4.8984 41.215 0 8.3398 3.332 17.27 4.9375 26.25 4.7266 2.6289 0.71484 5.4414 0.16406 7.6094-1.4922 2.1641-1.6562 3.4336-4.2266 3.4336-6.9531 0-2.7227-1.2695-5.293-3.4336-6.9492-2.168-1.6562-4.9805-2.207-7.6094-1.4922z"/>
  <path d="m212.27 487.38c-8.3516-3.2969-17.273-4.9023-26.25-4.7266-3.8086 1.0391-6.4531 4.4961-6.4531 8.4453s2.6445 7.4062 6.4531 8.4453c7.0312-0.16797 14.023 1.082 20.562 3.6719 8.3398 3.3398 17.273 4.9492 26.25 4.7266 8.9805 0.22266 17.914-1.3867 26.25-4.7266 6.6523-2.625 13.766-3.875 20.914-3.6719 7.0312-0.16797 14.023 1.082 20.562 3.6719 8.3398 3.332 17.27 4.9375 26.25 4.7266 2.6289 0.71484 5.4453 0.16406 7.6094-1.4922s3.4336-4.2266 3.4336-6.9531c0-2.7227-1.2695-5.293-3.4336-6.9492s-4.9805-2.207-7.6094-1.4922c-7.0352 0.19531-14.031-1.0547-20.562-3.6758-8.3516-3.2969-17.273-4.9023-26.25-4.7266-8.9766-0.17578-17.898 1.4297-26.25 4.7266-6.5273 2.6289-13.527 3.8828-20.562 3.6758-7.1523 0.24609-14.273-1.0078-20.914-3.6758z"/>
  <path d="m92.488 499.54c7-0.15625 13.961 1.0938 20.473 3.6719 8.3438 3.3242 17.273 4.9336 26.25 4.7266 3.8125-1.0352 6.457-4.4961 6.457-8.4453 0-3.9453-2.6445-7.4062-6.457-8.4414-7.0312 0.20703-14.035-1.0469-20.562-3.6758-8.3516-3.2852-17.273-4.8906-26.25-4.7266-2.6289-0.71484-5.4414-0.16016-7.6094 1.4922-2.1641 1.6562-3.4336 4.2266-3.4336 6.9531s1.2695 5.2969 3.4336 6.9531c2.168 1.6523 4.9805 2.207 7.6094 1.4922z"/>
  <path d="m560.7 444.5c-2.6289-0.71484-5.4414-0.16406-7.6094 1.4922-2.1641 1.6562-3.4336 4.2266-3.4336 6.9531 0 2.7227 1.2695 5.293 3.4336 6.9492 2.168 1.6562 4.9805 2.207 7.6094 1.4922 7.0391-0.17578 14.043 1.1055 20.562 3.7617 8.3555 3.2891 17.273 4.8945 26.25 4.7266 2.6328 0.71484 5.4453 0.16406 7.6094-1.4922 2.1641-1.6562 3.4375-4.2266 3.4375-6.9531 0-2.7227-1.2734-5.293-3.4375-6.9492-2.1641-1.6562-4.9766-2.207-7.6094-1.4922-7.0391 0.17578-14.039-1.1055-20.562-3.7617-8.3516-3.2891-17.273-4.8945-26.25-4.7266z"/>
  <path d="m92.488 461.39c7.0117-0.1875 13.984 1.0938 20.473 3.7617 8.3555 3.2812 17.277 4.8906 26.25 4.7266 8.1406 0.19141 16.242-1.1445 23.891-3.9375l2.3633-0.78906h-0.003906c6.4883-2.668 13.465-3.9492 20.477-3.7617 7.0391-0.18359 14.043 1.0977 20.562 3.7617 1.9258 0.69922 3.8516 1.3984 6.0391 2.0117v0.003906c6.5625 1.9062 13.375 2.8203 20.211 2.7109 2.6289 0.71484 5.4453 0.16406 7.6094-1.4922s3.4336-4.2266 3.4336-6.9531c0-2.7227-1.2695-5.293-3.4336-6.9492s-4.9805-2.207-7.6094-1.4922c-5.207 0.125-10.402-0.55078-15.398-2.0117-1.8359-0.52344-3.5-1.1367-5.1641-1.75-8.3516-3.2969-17.273-4.9023-26.25-4.7266-8.9766-0.16797-17.895 1.4375-26.25 4.7266l-2.1875 0.78906v-0.003906c-5.8477 2.1523-12.059 3.1641-18.289 2.9766-7.0391 0.18359-14.043-1.0977-20.562-3.7617-8.3516-3.2891-17.273-4.8945-26.25-4.7266-2.6289-0.71484-5.4414-0.16406-7.6094 1.4922-2.1641 1.6562-3.4336 4.2266-3.4336 6.9531 0 2.7227 1.2695 5.293 3.4336 6.9492 2.168 1.6562 4.9805 2.207 7.6094 1.4922z"/>
  <path d="m607.51 528.94c-7.0508 0.11328-14.051-1.2266-20.562-3.9375-8.3398-3.3281-17.27-4.9375-26.25-4.7266-2.6289-0.71484-5.4414-0.16016-7.6094 1.4922-2.1641 1.6562-3.4336 4.2266-3.4336 6.9531s1.2695 5.2969 3.4336 6.9531c2.168 1.6523 4.9805 2.207 7.6094 1.4922 7.0312-0.15625 14.02 1.0938 20.562 3.6719 8.3438 3.332 17.273 4.9375 26.25 4.7266 2.6328 0.71484 5.4453 0.16406 7.6094-1.4922 2.1641-1.6562 3.4375-4.2266 3.4375-6.9531 0-2.7227-1.2734-5.293-3.4375-6.9492-2.1641-1.6562-4.9766-2.207-7.6094-1.4922z"/>
  <path d="m306.25 525c-8.3516-3.2969-17.273-4.9023-26.25-4.7266-3.8086 1.0391-6.457 4.4961-6.457 8.4453s2.6484 7.4062 6.457 8.4453c7.0312-0.16797 14.023 1.082 20.562 3.6719 8.3398 3.332 17.27 4.9375 26.25 4.7266 8.9805 0.22266 17.91-1.3867 26.25-4.7266 13.27-4.9023 27.855-4.9023 41.125 0 16.938 6.2812 35.562 6.2812 52.5 0 13.242-4.8945 27.797-4.8945 41.039 0 8.3438 3.3164 17.27 4.9219 26.25 4.7266 3.8086-1.0352 6.4531-4.4961 6.4531-8.4453 0-3.9453-2.6445-7.4062-6.4531-8.4414-7.0938 0.23047-14.156-1.0234-20.738-3.6758-16.938-6.2773-35.562-6.2773-52.5 0-13.242 4.8984-27.797 4.8984-41.039 0-16.938-6.2773-35.562-6.2773-52.5 0-6.5273 2.6289-13.527 3.8828-20.562 3.6758-6.9727 0.17188-13.91-1.0781-20.387-3.6758z"/>
  <path d="m92.488 537.43c7-0.15234 13.961 1.0977 20.473 3.6758 8.3438 3.3242 17.273 4.9297 26.25 4.7227 8.1328 0.16406 16.223-1.1406 23.891-3.8477l2.3633-0.875h-0.003906c6.5117-2.5781 13.477-3.8281 20.477-3.6758 7.0312-0.16406 14.023 1.0859 20.562 3.6758l6.0391 2.1016v-0.003906c6.5664 1.8789 13.379 2.7617 20.211 2.625 2.6289 0.71484 5.4453 0.16406 7.6094-1.4922s3.4336-4.2266 3.4336-6.9492c0-2.7266-1.2695-5.2969-3.4336-6.9531s-4.9805-2.207-7.6094-1.4922c-5.2031 0.14453-10.395-0.50391-15.398-1.9258-1.8359-0.52344-3.5-1.1367-5.1641-1.75-8.3516-3.293-17.273-4.8984-26.25-4.7227-8.9766-0.16797-17.895 1.4375-26.25 4.7227l-2.1875 0.78906c-5.8672 2.0703-12.066 3.0508-18.289 2.8867-7.0234 0.10938-13.992-1.2305-20.473-3.9375-8.3555-3.2852-17.273-4.8906-26.25-4.7266-2.6328-0.71484-5.4453-0.16016-7.6094 1.4922-2.1641 1.6562-3.4375 4.2266-3.4375 6.9531s1.2734 5.2969 3.4375 6.9531c2.1641 1.6523 4.9766 2.207 7.6094 1.4922z"/>
  <use x="70" y="691.25" xlink:href="#m"/>
  <use x="102.109375" y="691.25" xlink:href="#h"/>
  <use x="123.683594" y="691.25" xlink:href="#d"/>
  <use x="153.355469" y="691.25" xlink:href="#b"/>
  <use x="182.878906" y="691.25" xlink:href="#g"/>
  <use x="203.792969" y="691.25" xlink:href="#d"/>
  <use x="233.464844" y="691.25" xlink:href="#a"/>
  <use x="280.011719" y="691.25" xlink:href="#c"/>
  <use x="311.328125" y="691.25" xlink:href="#f"/>
  <use x="355.078125" y="691.25" xlink:href="#e"/>
  <use x="386.589844" y="691.25" xlink:href="#b"/>
  <use x="416.113281" y="691.25" xlink:href="#l"/>
  <use x="447.257812" y="691.25" xlink:href="#b"/>
  <use x="476.78125" y="691.25" xlink:href="#c"/>
  <use x="523.328125" y="691.25" xlink:href="#k"/>
  <use x="558.855469" y="691.25" xlink:href="#a"/>
  <use x="590.171875" y="691.25" xlink:href="#a"/>
  <use x="621.488281" y="691.25" xlink:href="#j"/>
  <use x="636.484375" y="691.25" xlink:href="#i"/>
 </g>
</svg>
