<?xml version="1.0" encoding="UTF-8"?>
<svg width="700pt" height="700pt" version="1.1" viewBox="0 0 700 700" xmlns="http://www.w3.org/2000/svg" xmlns:xlink="http://www.w3.org/1999/xlink">
 <defs>
  <symbol id="g" overflow="visible">
   <path d="m3.6562-0.21875c-0.1875 0.09375-0.38672 0.16797-0.59375 0.21875-0.19922 0.050781-0.40625 0.078125-0.625 0.078125-0.66797 0-1.1992-0.17969-1.5938-0.54688-0.38672-0.375-0.57812-0.87891-0.57812-1.5156 0-0.64453 0.19141-1.1484 0.57812-1.5156 0.39453-0.375 0.92578-0.5625 1.5938-0.5625 0.21875 0 0.42578 0.027344 0.625 0.078125 0.20703 0.054687 0.40625 0.125 0.59375 0.21875v0.82812c-0.1875-0.125-0.375-0.21875-0.5625-0.28125-0.17969-0.0625-0.37109-0.09375-0.57812-0.09375-0.36719 0-0.65625 0.12109-0.875 0.35938-0.21094 0.23047-0.3125 0.55469-0.3125 0.96875 0 0.40625 0.10156 0.73047 0.3125 0.96875 0.21875 0.23047 0.50781 0.34375 0.875 0.34375 0.20703 0 0.39844-0.023437 0.57812-0.078125 0.1875-0.0625 0.375-0.16016 0.5625-0.29688z"/>
  </symbol>
  <symbol id="c" overflow="visible">
   <path d="m2.6875-2.1719c-0.085938-0.039063-0.16797-0.070313-0.25-0.09375-0.085938-0.019531-0.16797-0.03125-0.25-0.03125-0.25 0-0.44531 0.085937-0.57812 0.25-0.125 0.15625-0.1875 0.38281-0.1875 0.67188v1.375h-0.96875v-2.9844h0.96875v0.48438c0.11328-0.19531 0.25-0.33594 0.40625-0.42188 0.16406-0.09375 0.35938-0.14062 0.57812-0.14062h0.10938c0.039063 0 0.09375 0.007812 0.15625 0.015625z"/>
  </symbol>
  <symbol id="a" overflow="visible">
   <path d="m3.4375-1.5v0.26562h-2.2344c0.03125 0.23047 0.11328 0.40234 0.25 0.51562 0.13281 0.10547 0.32812 0.15625 0.57812 0.15625 0.20703 0 0.41406-0.023438 0.625-0.078125 0.20703-0.0625 0.42188-0.15625 0.64062-0.28125v0.73438c-0.21875 0.09375-0.44531 0.16406-0.67188 0.20312-0.23047 0.039062-0.45312 0.0625-0.67188 0.0625-0.54297 0-0.96484-0.13281-1.2656-0.40625-0.30469-0.28125-0.45312-0.67188-0.45312-1.1719 0-0.47656 0.14453-0.85938 0.4375-1.1406 0.30078-0.28125 0.70703-0.42188 1.2188-0.42188 0.46875 0 0.84375 0.14062 1.125 0.42188s0.42188 0.66406 0.42188 1.1406zm-0.96875-0.32812c0-0.17578-0.058594-0.31641-0.17188-0.42188-0.10547-0.11328-0.24219-0.17188-0.40625-0.17188-0.1875 0-0.33984 0.054687-0.45312 0.15625-0.11719 0.10547-0.1875 0.25-0.21875 0.4375z"/>
  </symbol>
  <symbol id="f" overflow="visible">
   <path d="m1.7969-1.3438c-0.19922 0-0.35156 0.039062-0.45312 0.10938-0.09375 0.0625-0.14062 0.16406-0.14062 0.29688 0 0.11719 0.035156 0.21094 0.10938 0.28125 0.082031 0.0625 0.19531 0.09375 0.34375 0.09375 0.17578 0 0.32812-0.0625 0.45312-0.1875s0.1875-0.28516 0.1875-0.48438v-0.10938zm1.4688-0.35938v1.7031h-0.96875v-0.4375c-0.125 0.17969-0.27344 0.30859-0.4375 0.39062-0.15625 0.082031-0.35156 0.125-0.57812 0.125-0.3125 0-0.57031-0.085938-0.76562-0.26562-0.1875-0.1875-0.28125-0.42188-0.28125-0.70312 0-0.35156 0.11719-0.61328 0.35938-0.78125 0.23828-0.16406 0.61719-0.25 1.1406-0.25h0.5625v-0.0625c0-0.15625-0.0625-0.26562-0.1875-0.32812-0.11719-0.070312-0.29688-0.10938-0.54688-0.10938-0.21094 0-0.40234 0.023437-0.57812 0.0625-0.17969 0.042969-0.33984 0.10156-0.48438 0.17188v-0.71875c0.19531-0.050781 0.39844-0.085938 0.60938-0.10938 0.20703-0.03125 0.41406-0.046875 0.625-0.046875 0.53906 0 0.92969 0.10938 1.1719 0.32812 0.23828 0.21094 0.35938 0.55469 0.35938 1.0312z"/>
  </symbol>
  <symbol id="b" overflow="visible">
   <path d="m1.5-3.8438v0.85938h0.98438v0.67188h-0.98438v1.2812c0 0.13672 0.023438 0.23047 0.078125 0.28125 0.0625 0.042969 0.17578 0.0625 0.34375 0.0625h0.48438v0.6875h-0.8125c-0.38672 0-0.65625-0.078125-0.8125-0.23438s-0.23438-0.42188-0.23438-0.79688v-1.2812h-0.46875v-0.67188h0.46875v-0.85938z"/>
  </symbol>
  <symbol id="k" overflow="visible">
   <path d="m2.5-2.5469v-1.6094h0.95312v4.1562h-0.95312v-0.4375c-0.13672 0.17969-0.28125 0.30859-0.4375 0.39062-0.15625 0.082031-0.33984 0.125-0.54688 0.125-0.375 0-0.68359-0.14453-0.92188-0.4375-0.23047-0.28906-0.34375-0.67188-0.34375-1.1406 0-0.45703 0.11328-0.83203 0.34375-1.125 0.23828-0.28906 0.54688-0.4375 0.92188-0.4375 0.19531 0 0.375 0.042969 0.53125 0.125 0.16406 0.085938 0.31641 0.21484 0.45312 0.39062zm-0.64062 1.9375c0.20703 0 0.36328-0.070313 0.46875-0.21875 0.11328-0.15625 0.17188-0.37891 0.17188-0.67188 0-0.28125-0.058594-0.49219-0.17188-0.64062-0.10547-0.15625-0.26172-0.23438-0.46875-0.23438-0.19922 0-0.35547 0.078125-0.46875 0.23438-0.10547 0.14844-0.15625 0.35938-0.15625 0.64062 0 0.29297 0.050781 0.51562 0.15625 0.67188 0.11328 0.14844 0.26953 0.21875 0.46875 0.21875z"/>
  </symbol>
  <symbol id="j" overflow="visible">
   <path d="m2.0469-0.60938c0.20703 0 0.36328-0.070313 0.46875-0.21875 0.11328-0.15625 0.17188-0.37891 0.17188-0.67188 0-0.28125-0.058594-0.49219-0.17188-0.64062-0.10547-0.15625-0.26172-0.23438-0.46875-0.23438-0.19922 0-0.35547 0.078125-0.46875 0.23438-0.10547 0.14844-0.15625 0.35938-0.15625 0.64062 0 0.29297 0.050781 0.51562 0.15625 0.67188 0.11328 0.14844 0.26953 0.21875 0.46875 0.21875zm-0.625-1.9375c0.125-0.17578 0.26562-0.30469 0.42188-0.39062 0.16406-0.082031 0.35156-0.125 0.5625-0.125 0.36328 0 0.66406 0.14844 0.90625 0.4375 0.23828 0.29297 0.35938 0.66797 0.35938 1.125 0 0.46875-0.12109 0.85156-0.35938 1.1406-0.24219 0.29297-0.54297 0.4375-0.90625 0.4375-0.21094 0-0.39844-0.042969-0.5625-0.125-0.15625-0.082031-0.29688-0.21094-0.42188-0.39062v0.4375h-0.96875v-4.1562h0.96875z"/>
  </symbol>
  <symbol id="i" overflow="visible">
   <path d="m0.0625-2.9844h0.95312l0.8125 2.0156 0.6875-2.0156h0.95312l-1.2656 3.2656c-0.125 0.33203-0.27344 0.56641-0.4375 0.70312-0.16797 0.13281-0.39062 0.20312-0.67188 0.20312h-0.54688v-0.64062h0.29688c0.16406 0 0.28516-0.027344 0.35938-0.078125 0.070313-0.054688 0.12891-0.14062 0.17188-0.26562l0.03125-0.09375z"/>
  </symbol>
  <symbol id="h" overflow="visible">
   <path d="m3.2812-3.8594v0.84375c-0.21875-0.10156-0.43359-0.17578-0.64062-0.21875-0.21094-0.050781-0.40625-0.078125-0.59375-0.078125-0.25 0-0.43359 0.039062-0.54688 0.10938-0.11719 0.0625-0.17188 0.16797-0.17188 0.3125 0 0.10547 0.035156 0.1875 0.10938 0.25 0.082031 0.054687 0.22656 0.10156 0.4375 0.14062l0.4375 0.09375c0.44531 0.09375 0.75781 0.23047 0.9375 0.40625 0.1875 0.17969 0.28125 0.4375 0.28125 0.78125 0 0.4375-0.13281 0.76562-0.39062 0.98438-0.26172 0.21094-0.65625 0.3125-1.1875 0.3125-0.25 0-0.50781-0.027344-0.76562-0.078125-0.25-0.039062-0.50781-0.10938-0.76562-0.20312v-0.875c0.25781 0.13672 0.50391 0.24219 0.73438 0.3125 0.23828 0.0625 0.47266 0.09375 0.70312 0.09375 0.21875 0 0.38281-0.035156 0.5-0.10938 0.125-0.070312 0.1875-0.17578 0.1875-0.3125 0-0.125-0.042969-0.21875-0.125-0.28125-0.085937-0.070312-0.24609-0.13281-0.48438-0.1875l-0.39062-0.09375c-0.40625-0.082031-0.70312-0.21875-0.89062-0.40625-0.17969-0.1875-0.26562-0.44141-0.26562-0.76562 0-0.39453 0.125-0.69531 0.375-0.90625 0.25781-0.21875 0.62891-0.32812 1.1094-0.32812 0.22656 0 0.45703 0.023438 0.6875 0.0625 0.22656 0.03125 0.46875 0.078125 0.71875 0.14062z"/>
  </symbol>
  <symbol id="e" overflow="visible">
   <path d="m3.4688-1.8281v1.8281h-0.96875v-1.3906c0-0.25781-0.007812-0.4375-0.015625-0.53125-0.011719-0.10156-0.03125-0.17578-0.0625-0.21875-0.03125-0.0625-0.085937-0.10938-0.15625-0.14062-0.0625-0.039062-0.13281-0.0625-0.20312-0.0625-0.21094 0-0.37109 0.078125-0.48438 0.23438-0.10547 0.15625-0.15625 0.37109-0.15625 0.64062v1.4688h-0.96875v-4.1562h0.96875v1.6094c0.13281-0.17578 0.28516-0.30469 0.45312-0.39062 0.16406-0.082031 0.34375-0.125 0.53125-0.125 0.34375 0 0.60156 0.10938 0.78125 0.32812 0.1875 0.21094 0.28125 0.51172 0.28125 0.90625z"/>
  </symbol>
  <symbol id="v" overflow="visible">
   <path d="m0.45312-4.1562h0.96875v2.2656l1.0938-1.0938h1.1094l-1.4531 1.3594 1.5625 1.625h-1.1562l-1.1562-1.25v1.25h-0.96875z"/>
  </symbol>
  <symbol id="u" overflow="visible">
   <path d="m0.45312-4.1562h0.96875v4.1562h-0.96875z"/>
  </symbol>
  <symbol id="t" overflow="visible">
   <path d="m0.5625-1.0312h0.95312v1.0312h-0.95312z"/>
  </symbol>
  <symbol id="s" overflow="visible">
   <path d="m2.4219-4.1562v0.625h-0.51562c-0.13672 0-0.23438 0.027344-0.29688 0.078125-0.054687 0.054687-0.078125 0.13672-0.078125 0.25v0.21875h0.82812v0.67188h-0.82812v2.3125h-0.95312v-2.3125h-0.46875v-0.67188h0.46875v-0.21875c0-0.32031 0.085937-0.5625 0.26562-0.71875 0.1875-0.15625 0.47266-0.23438 0.85938-0.23438z"/>
  </symbol>
  <symbol id="d" overflow="visible">
   <path d="m1.875-2.375c-0.21094 0-0.37109 0.078125-0.48438 0.23438-0.10547 0.14844-0.15625 0.35938-0.15625 0.64062 0 0.29297 0.050781 0.51562 0.15625 0.67188 0.11328 0.14844 0.27344 0.21875 0.48438 0.21875 0.20703 0 0.36719-0.070313 0.48438-0.21875 0.11328-0.15625 0.17188-0.37891 0.17188-0.67188 0-0.28125-0.058594-0.49219-0.17188-0.64062-0.11719-0.15625-0.27734-0.23438-0.48438-0.23438zm0-0.6875c0.51953 0 0.92188 0.14062 1.2031 0.42188 0.28906 0.27344 0.4375 0.65234 0.4375 1.1406 0 0.5-0.14844 0.89062-0.4375 1.1719-0.28125 0.27344-0.68359 0.40625-1.2031 0.40625-0.51172 0-0.91406-0.13281-1.2031-0.40625-0.29297-0.28125-0.4375-0.67188-0.4375-1.1719 0-0.48828 0.14453-0.86719 0.4375-1.1406 0.28906-0.28125 0.69141-0.42188 1.2031-0.42188z"/>
  </symbol>
  <symbol id="r" overflow="visible">
   <path d="m3.2344-2.5c0.11328-0.17578 0.25391-0.3125 0.42188-0.40625 0.16406-0.10156 0.35156-0.15625 0.5625-0.15625 0.33203 0 0.58594 0.10938 0.76562 0.32812 0.1875 0.21094 0.28125 0.51172 0.28125 0.90625v1.8281h-0.96875v-1.5625c0.007813-0.019531 0.015625-0.039062 0.015625-0.0625v-0.10938c0-0.21875-0.03125-0.375-0.09375-0.46875s-0.16406-0.14062-0.29688-0.14062c-0.1875 0-0.33594 0.078125-0.4375 0.23438-0.09375 0.14844-0.14062 0.35938-0.14062 0.64062v1.4688h-0.96875v-1.5625c0-0.33203-0.03125-0.54688-0.09375-0.64062-0.054688-0.09375-0.15234-0.14062-0.29688-0.14062-0.17969 0-0.32031 0.078125-0.42188 0.23438-0.09375 0.14844-0.14062 0.35938-0.14062 0.64062v1.4688h-0.96875v-2.9844h0.96875v0.4375c0.11328-0.17578 0.24219-0.30469 0.39062-0.39062 0.15625-0.082031 0.32812-0.125 0.51562-0.125 0.20703 0 0.39062 0.054688 0.54688 0.15625 0.15625 0.09375 0.27344 0.23047 0.35938 0.40625z"/>
  </symbol>
  <symbol id="q" overflow="visible">
   <path d="m0.5-3.9844h1.1562l1.4375 2.7344v-2.7344h0.98438v3.9844h-1.1562l-1.4375-2.7344v2.7344h-0.98438z"/>
  </symbol>
  <symbol id="p" overflow="visible">
   <path d="m0.42188-1.1719v-1.8125h0.96875v0.29688 0.60938 0.48438c0 0.24219 0.003906 0.41797 0.015625 0.53125 0.007812 0.10547 0.03125 0.17969 0.0625 0.21875 0.039062 0.0625 0.09375 0.11719 0.15625 0.15625 0.0625 0.03125 0.13281 0.046875 0.21875 0.046875 0.19531 0 0.35156-0.078125 0.46875-0.23438 0.11328-0.15625 0.17188-0.36719 0.17188-0.64062v-1.4688h0.95312v2.9844h-0.95312v-0.4375c-0.14844 0.17969-0.30469 0.30859-0.46875 0.39062-0.15625 0.082031-0.33594 0.125-0.53125 0.125-0.34375 0-0.60938-0.10156-0.79688-0.3125-0.17969-0.21875-0.26562-0.53125-0.26562-0.9375z"/>
  </symbol>
  <symbol id="o" overflow="visible">
   <path d="m3.4688-1.8281v1.8281h-0.96875v-1.3906c0-0.25781-0.007812-0.4375-0.015625-0.53125-0.011719-0.10156-0.03125-0.17578-0.0625-0.21875-0.03125-0.0625-0.085937-0.10938-0.15625-0.14062-0.0625-0.039062-0.13281-0.0625-0.20312-0.0625-0.21094 0-0.37109 0.078125-0.48438 0.23438-0.10547 0.15625-0.15625 0.37109-0.15625 0.64062v1.4688h-0.96875v-2.9844h0.96875v0.4375c0.13281-0.17578 0.28516-0.30469 0.45312-0.39062 0.16406-0.082031 0.34375-0.125 0.53125-0.125 0.34375 0 0.60156 0.10938 0.78125 0.32812 0.1875 0.21094 0.28125 0.51172 0.28125 0.90625z"/>
  </symbol>
  <symbol id="n" overflow="visible">
   <path d="m0.5-3.9844h1.7031c0.50781 0 0.89844 0.11719 1.1719 0.34375 0.26953 0.21875 0.40625 0.53906 0.40625 0.95312 0 0.41797-0.13672 0.74219-0.40625 0.96875-0.27344 0.21875-0.66406 0.32812-1.1719 0.32812h-0.67188v1.3906h-1.0312zm1.0312 0.75v1.1094h0.5625c0.19531 0 0.34766-0.046875 0.45312-0.14062 0.11328-0.10156 0.17188-0.24219 0.17188-0.42188 0-0.17578-0.058594-0.3125-0.17188-0.40625-0.10547-0.09375-0.25781-0.14062-0.45312-0.14062z"/>
  </symbol>
  <symbol id="m" overflow="visible">
   <path d="m0.45312-2.9844h0.96875v2.9375c0 0.39453-0.10156 0.69531-0.29688 0.90625-0.1875 0.21875-0.46484 0.32812-0.82812 0.32812h-0.48438v-0.64062h0.17188c0.17578 0 0.29688-0.042969 0.35938-0.125 0.070312-0.074219 0.10938-0.23047 0.10938-0.46875zm0-1.1719h0.96875v0.78125h-0.96875z"/>
  </symbol>
  <symbol id="l" overflow="visible">
   <path d="m2.875-2.8906v0.76562c-0.125-0.082031-0.25781-0.14453-0.39062-0.1875-0.13672-0.039062-0.27344-0.0625-0.40625-0.0625-0.27344 0-0.48047 0.078125-0.625 0.23438-0.14844 0.15625-0.21875 0.37109-0.21875 0.64062 0 0.28125 0.070313 0.5 0.21875 0.65625 0.14453 0.15625 0.35156 0.23438 0.625 0.23438 0.14453 0 0.28516-0.019531 0.42188-0.0625 0.13281-0.039063 0.25781-0.10938 0.375-0.20312v0.78125c-0.14844 0.0625-0.29688 0.10156-0.45312 0.125-0.15625 0.03125-0.3125 0.046875-0.46875 0.046875-0.54297 0-0.96484-0.13281-1.2656-0.40625-0.30469-0.28125-0.45312-0.67188-0.45312-1.1719 0-0.48828 0.14844-0.86719 0.45312-1.1406 0.30078-0.28125 0.72266-0.42188 1.2656-0.42188 0.15625 0 0.3125 0.015625 0.46875 0.046875 0.15625 0.023437 0.30469 0.0625 0.45312 0.125z"/>
  </symbol>
 </defs>
 <g>
  <path d="m592.71 511.23c-3.1875 0-5.9648-0.035156-8.5781-0.082031l-35.543-61.633-13.777-16.859-6.3125-20.809c-0.23438-0.79297-0.62109-1.5234-1.1523-2.1641l-16.688-20.391-39.145-74.199c-0.10156-0.19141-0.27734-0.30859-0.39453-0.48438-0.25781-0.39062-0.53125-0.74219-0.87109-1.0703-0.28906-0.27734-0.58984-0.50391-0.92188-0.72266-0.21484-0.14062-0.35938-0.34375-0.58984-0.46094-0.17578-0.085937-0.36719-0.078125-0.54688-0.14844-0.36719-0.14453-0.73438-0.22656-1.1211-0.30078-0.44141-0.082031-0.86328-0.14844-1.3047-0.14062-0.35156 0.003907-0.68359 0.070313-1.0312 0.13281-0.48438 0.089844-0.94141 0.21094-1.3945 0.41016-0.13672 0.058594-0.28516 0.050781-0.41797 0.12109-0.17969 0.09375-0.28516 0.25781-0.45312 0.36719-0.40625 0.26172-0.77344 0.55078-1.1133 0.90625-0.27734 0.28906-0.50391 0.59375-0.71875 0.92578-0.13672 0.21094-0.33984 0.35156-0.45312 0.58203l-24.273 48.668-36.863-18.543-27.809-49.871c-3.9961-7.2773-6.4922-65.219-4.168-75.758 0.96484-4.293 2.3008-7.7773 3.9961-10.359 7.918-12.109 18.059-12.715 23.328-11.945 4.1992 0.57422 8.6953 2.3242 14.152 5.5195 6.4844 3.7852 13.887 5.2031 21.371 4.1055 14.465-2.1094 26.082-14.215 27.621-28.781 1.1211-10.477-2.7539-20.523-10.156-27.41 12.41-13.391 16.844-32.086 11.57-50.555-4.7578-16.625-18.043-29.945-34.668-34.77-11.711-3.3828-23.703-2.8555-34.527 1.4141-7.9609-19.215-26.773-32.117-48.129-32.172-21.324 0.0625-40.133 12.965-48.09 32.172-10.809-4.2695-22.832-4.8047-34.527-1.4062-16.625 4.8125-29.898 18.117-34.66 34.738-5.2891 18.504-0.82422 37.238 11.629 50.641-7.4219 6.9023-11.418 16.855-10.309 27.34 1.5469 14.574 13.156 26.68 27.613 28.789 7.5508 1.1133 14.922-0.3125 21.379-4.1055 5.457-3.1953 9.9531-4.9453 14.137-5.5195 6.5234-0.88672 15.832 0.44922 23.344 11.945 0.75391 1.1445 1.4062 2.4102 1.9766 3.7773 5.3516 12.84 1.0117 74.941-5.8711 84.117l-49.594 66.113-18.449-34.977c-0.10547-0.20312-0.28906-0.32031-0.41406-0.50391-0.25-0.37891-0.52344-0.72266-0.85547-1.0469-0.29297-0.28125-0.59766-0.50781-0.93359-0.72656-0.21094-0.14062-0.35547-0.34375-0.58984-0.45703-0.17578-0.085938-0.36328-0.074219-0.53906-0.14453-0.37109-0.14453-0.74219-0.23047-1.1328-0.30469-0.43359-0.082031-0.85156-0.14844-1.2812-0.13672-0.36719 0.003906-0.71094 0.070312-1.0781 0.14062-0.46094 0.089844-0.89453 0.20312-1.3242 0.38672-0.15234 0.066406-0.3125 0.058594-0.46094 0.13672-0.19922 0.10547-0.32031 0.28516-0.50391 0.40625-0.37109 0.24609-0.71094 0.51172-1.0273 0.83594-0.30469 0.3125-0.55078 0.64062-0.78125 1-0.125 0.19531-0.3125 0.32812-0.42188 0.53906l-29.551 59.238-16.004 16.176c-0.71484 0.71484-1.2461 1.5859-1.5469 2.5508l-7.3242 23.094-12.047 14.758-47.164 66.934-7.9297-0.019531h-0.015625c-3.5156 0-6.3594 2.8477-6.3672 6.3594-0.007812 3.5156 2.8398 6.375 6.3555 6.3906l139.18 0.34375c10.887 0 16.309-0.40625 21.75-0.79297 5.1797-0.38672 10.375-0.76172 20.738-0.76172 10.344 0 15.543 0.37109 20.715 0.74609l5.0938 0.3125c0.15234-0.011719 5.4648-0.23438 14.129-0.42969 0.78516 0.33984 1.5664 0.72656 2.4336 0.72656 0.83984 0 1.6875-0.17187 2.5039-0.51172 0.17969-0.078125 0.29297-0.23047 0.46484-0.32031 17.297-0.30859 43.961-0.39453 71.445 1.0195 12.598 0.65234 25.383 0.90234 37.746 0.90234 28.383 0 54.512-1.3516 70.859-2.4102l29.504-0.046875c10.496 0 17.324 0.29688 24.152 0.60547 7 0.3125 13.98 0.62109 24.73 0.62109 3.5156 0 6.375-2.8594 6.375-6.375-0.003906-3.5195-2.8633-6.3828-6.3789-6.3828zm-305.64-326.44c-5.9023 0.81641-11.891 3.0859-18.852 7.1523-3.9414 2.3008-8.4609 3.1875-13.094 2.4883-8.7891-1.2734-15.848-8.6484-16.781-17.512-0.87109-8.2188 3.25-16.012 10.512-19.852 0.015625-0.007812 0.023437-0.023437 0.039062-0.03125 0.3125-0.16797 0.55078-0.46094 0.83594-0.67969 0.38281-0.30078 0.8125-0.5625 1.1094-0.93359 0.007812-0.007812 0.015625-0.011719 0.023437-0.019531 0.14062-0.17578 0.17578-0.39062 0.29297-0.57422 0.32812-0.51172 0.64844-1.0234 0.81641-1.6016 0.11328-0.39453 0.089844-0.79297 0.12891-1.1953 0.039063-0.41406 0.14063-0.8125 0.097657-1.2305-0.058594-0.59766-0.28516-1.1602-0.51172-1.7266-0.082031-0.20312-0.078125-0.41797-0.18359-0.61719-0.003906-0.011719-0.015625-0.015626-0.019531-0.023438-0.20312-0.375-0.54297-0.67188-0.82422-1.0078-0.26953-0.32031-0.48438-0.69531-0.80469-0.95313-0.007813-0.007812-0.011719-0.015624-0.019531-0.023437-12.793-10.172-17.863-26.523-13.242-42.676 3.5-12.238 13.688-22.449 25.949-25.996 10.918-3.1719 22.125-1.8984 31.555 3.5547 1.7188 0.99609 3.8164 1.1289 5.6758 0.35156 1.8359-0.77734 3.2031-2.3789 3.6953-4.3164 4.3867-17.527 20.086-29.801 38.141-29.852 18.094 0.046875 33.805 12.324 38.188 29.852 0.48047 1.9375 1.8516 3.5391 3.6875 4.3164 1.8203 0.77734 3.9492 0.64453 5.6758-0.35156 9.4414-5.4453 20.621-6.7109 31.555-3.5625 12.254 3.5547 22.457 13.77 25.957 26.027 4.6172 16.168-0.48047 32.527-13.297 42.691-1.6953 1.3359-2.5977 3.4375-2.3945 5.582 0.20312 2.1367 1.4766 4.043 3.375 5.0469 7.2461 3.8164 11.367 11.586 10.496 19.797-0.94922 8.8633-8.0078 16.238-16.797 17.512-4.6797 0.71484-9.1758-0.19531-13.094-2.4883-4.3867-2.5586-11.09-6.0898-18.852-7.1523-6.6875-0.90234-23.562-1.0273-35.73 17.59-2.5742 3.9258-4.4648 8.7031-5.7695 14.59-1.8945 8.5703-1.332 47.348 1.875 69.949l-5.1836 2.6836-6.8281-4.8594c-2.3008-1.625-5.3672-1.5625-7.5977 0.15625l-8.0234 6.2227-4.6367-2.1641c5.5781-25.105 6.75-68.449 1.6523-80.699-0.88672-2.1211-1.9141-4.0898-3.0703-5.8711-12.172-18.625-29.039-18.477-35.727-17.594zm6.9922 152.61 24.371-32.488c0.71484-0.94922 1.3867-2.2148 2.0352-3.6523l6.5234 3.043c0.86328 0.40625 1.7812 0.60547 2.6992 0.60547 1.3828 0 2.7617-0.46875 3.9023-1.3359l7.3633-5.707 6.1367 4.3711c1.9609 1.3828 4.5195 1.5391 6.6172 0.46875l5.6016-2.8984c0.25781 0.68359 0.51562 1.3945 0.78906 1.8906l26.035 46.691v34.105c0 3.7148-3.0195 6.7344-6.7188 6.7344-3.7148 0-6.7344-3.0195-6.7344-6.7344v-31.199c0-3.5156-2.8594-6.375-6.375-6.375s-6.3672 2.8594-6.3672 6.375v11.027c0 3.7148-3.0234 6.7344-6.7344 6.7344-3.707 0-6.7344-3.0195-6.7344-6.7344v-9.0195c0-3.5156-2.8555-6.375-6.3672-6.375-3.5156 0-6.3672 2.8594-6.3672 6.375v59.238c0 3.7031-3.0234 6.7188-6.7344 6.7188-3.707 0-6.7344-3.0195-6.7344-6.7188v-47.48c0-3.5156-2.8555-6.375-6.3672-6.375-3.5156 0-6.3672 2.8594-6.3672 6.375v11.008c0 3.7148-3.0234 6.7344-6.7344 6.7344-3.707 0-6.7344-3.0195-6.7344-6.7344zm20.809 173.71-4.293-0.29688c-5.4023-0.38672-10.832-0.79297-21.648-0.79297-10.824 0.015624-16.254 0.40625-21.656 0.80859-5.2109 0.37109-10.406 0.74609-20.824 0.74609l-115.66-0.28516 41.742-59.25 12.543-15.352c0.51172-0.62109 0.90234-1.3359 1.1445-2.1016l7.2227-22.785 15.645-15.816c0.47656-0.48047 0.87109-1.0273 1.1758-1.6328l6.0469-12.121 18.238 26.102v25.102l-18.926 27.25c-2.0078 2.8945-1.2891 6.8594 1.6016 8.8633 1.1055 0.77734 2.3711 1.1523 3.625 1.1523 2.0234 0 4.0039-0.96484 5.2422-2.7383l7.9883-11.508 11.785 10.543c1.2148 1.0898 2.7305 1.6328 4.2461 1.6328 1.75 0 3.4922-0.71484 4.75-2.1289 2.3398-2.6289 2.1172-6.6406-0.50391-8.9883l-12.961-11.594 4.7578-6.8516c0.73828-1.0742 1.1367-2.332 1.1367-3.6406v-18.551l9.0508 4.7539c0.94922 0.49609 1.9609 0.73047 2.957 0.73047 2.293 0 4.5117-1.2461 5.6445-3.4062 1.6406-3.125 0.44141-6.9688-2.6758-8.6172l-17.004-8.9336-22.469-32.168 11.945-23.941 16.922 31.945c0.23047 0.73047 0.57813 1.3945 1.0625 2.0078l10.602 20.016 14.176 17.48 5.3906 17.762c0.24219 0.79297 0.63672 1.5391 1.1641 2.1758l11.969 14.652 25.426 59.535c-4.207 0.13281-6.6328 0.23438-6.582 0.24219zm33.93-0.70312c-4.9922 0.027344-9.543 0.082032-13.633 0.15234l-27.781-65.051c-0.23438-0.54297-0.54297-1.0586-0.92578-1.5234l-11.742-14.371-5.3906-17.762c-0.24219-0.79297-0.62891-1.5234-1.1523-2.1641l-14.27-17.402-8.6758-16.445 16.094-21.457v21.684c0 10.746 8.7344 19.488 19.473 19.488 2.3867 0 4.6172-0.57422 6.7344-1.3633v18.348c0 10.73 8.7344 19.473 19.473 19.473 10.738 0 19.473-8.7383 19.473-19.473v-32.098c2.1172 0.78906 4.3477 1.3633 6.7344 1.3633 2.3867 0 4.6172-0.57422 6.7344-1.3633v2.0469c0 10.746 8.7344 19.488 19.48 19.488 10.73 0 19.473-8.7383 19.473-19.488v-22.957l31.316 15.762-4.4258 8.875-18.711 18.91c-0.71484 0.71484-1.2461 1.5859-1.5391 2.5508l-8.5703 27.016-14.418 17.777zm219.75 0.21875c-7-0.3125-13.98-0.62109-24.73-0.62109l-29.504 0.046876c-0.14062 0-1.8516 0.10937-1.9922 0.125-22.039 1.4297-65.102 3.5-105.96 1.4141-15.016-0.76172-29.797-1.082-42.973-1.1719l29.629-52.84 14.574-17.824c0.51172-0.62109 0.90234-1.3359 1.1367-2.1016l8.4766-26.703 18.336-18.539c0.48047-0.48047 0.87109-1.0273 1.1836-1.6328l29.32-58.773 13.68 25.84-17.25 24.699-14.66 8.5898c-3.0312 1.7734-4.0586 5.6758-2.2695 8.7109 1.1836 2.0234 3.3125 3.1562 5.4883 3.1562 1.1055 0 2.207-0.28125 3.2188-0.88672l5.2422-3.0703v13.258c0 1.3047 0.40625 2.5664 1.1523 3.6406l3.2188 4.6367-9.6602 8.6289c-2.6289 2.332-2.8477 6.3594-0.49609 8.9883 1.2461 1.3984 3 2.1289 4.7422 2.1289 1.5078 0 3.0312-0.54297 4.2461-1.6328l8.4844-7.5781 5.6523 8.1406c1.2266 1.7734 3.2188 2.7383 5.2266 2.7383 1.2617 0 2.5195-0.37109 3.6406-1.1523 2.8789-2.0078 3.5938-5.9727 1.5859-8.8633l-15.039-21.664v-19.488l14.184-20.309 13.641 25.766 16.578 20.469 6.3281 20.824c0.25 0.79297 0.63672 1.5391 1.1641 2.1758l13.98 16.969 31.02 53.934c-0.19141-0.007812-0.39453-0.019531-0.59375-0.027344z"/>
  <path d="m411.96 146.23c3.5156 0 6.375-2.8555 6.375-6.3672 0-3.5156-2.8594-6.3672-6.375-6.3672-13.375 0-24.262-10.887-24.262-24.27 0-3.5156-2.8594-6.3672-6.375-6.3672-3.5156 0-6.375 2.8555-6.375 6.3672-0.003906 20.402 16.605 37.004 37.012 37.004z"/>
  <path d="m289.82 115.06c-3.4141 0.87109-5.4727 4.3398-4.6055 7.7461 3.3125 12.973-4.5508 26.215-17.52 29.52-3.4062 0.87109-5.4648 4.3398-4.5977 7.7539 0.73828 2.8789 3.3281 4.7891 6.168 4.7891 0.51953 0 1.0586-0.0625 1.5859-0.19531 19.766-5.0469 31.75-25.242 26.711-45.008-0.875-3.4102-4.3984-5.4453-7.7422-4.6055z"/>
  <path d="m326.54 92.934c8.8789-8.0078 22.621-7.2695 30.621 1.6094 1.2617 1.3984 2.9922 2.1094 4.7344 2.1094 1.5234 0 3.0391-0.53516 4.2695-1.6328 2.6133-2.3555 2.8164-6.3828 0.46875-8.9961-12.699-14.105-34.512-15.266-48.617-2.5586-2.6133 2.3555-2.832 6.3828-0.47656 8.9961 2.3516 2.6172 6.3945 2.8125 9 0.47266z"/>
  <path d="m283.3 269.39c0.13281 0 0.26562 0 0.39844-0.007813 1.8047-0.11719 3.4766-0.98828 4.5977-2.4023l17.156-21.656c1.8984-2.3945 1.8281-5.793-0.15625-8.1016l-15.848-18.477c-1.2148-1.4141-2.9766-2.2227-4.8359-2.2227h-0.007813c-1.8672 0-3.6328 0.81641-4.8438 2.2383l-19.199 22.535c-2.1641 2.543-2 6.3281 0.38672 8.6719l17.895 17.598c1.1836 1.168 2.7969 1.8242 4.457 1.8242zm1.3242-36.699 7.582 8.8359-9.4961 11.977-8.6094-8.4609z"/>
  <path d="m425.27 258.41-14.199-16.688c-1.1367-1.3359-2.7852-2.1445-4.543-2.2305-1.7734-0.13281-3.4688 0.55859-4.7422 1.7891l-23.656 22.91c-2.2539 2.1836-2.582 5.6836-0.76172 8.25l12.785 18.062c1.0742 1.5156 2.7539 2.4961 4.6055 2.668 0.20313 0.015625 0.38672 0.023438 0.58984 0.023438 1.6484 0 3.2344-0.63672 4.4336-1.7969l25.07-24.285c2.4102-2.3359 2.5977-6.1445 0.41797-8.7031zm-29.02 18.672-5.3359-7.543 14.852-14.387 5.9258 6.9688z"/>
  <path d="m223.32 241.02c1.2188 1.0977 2.7461 1.6328 4.2617 1.6328 1.7422 0 3.4844-0.70703 4.7344-2.1094 2.3555-2.6211 2.1367-6.6484-0.47656-8.9961l-10.219-9.1836c-2.6289-2.3555-6.6562-2.1367-8.9961 0.47656-2.3555 2.6211-2.1367 6.6484 0.47656 8.9961z"/>
  <path d="m436.08 234.1c-2.3477 2.6211-2.1289 6.6484 0.48047 8.9961l10.219 9.1836c1.2148 1.0977 2.7383 1.6328 4.2617 1.6328 1.7422 0 3.4844-0.70703 4.7422-2.1094 2.3477-2.6211 2.1289-6.6484-0.48047-8.9961l-10.219-9.1836c-2.5938-2.3555-6.6523-2.1523-9.0039 0.47656z"/>
  <path d="m415.61 316.1c1.6641 0 3.3125-0.65234 4.5547-1.9297l9.5938-9.8438c2.457-2.5195 2.4102-6.5469-0.10938-9.0117-2.5352-2.457-6.5469-2.3789-9.0039 0.11719l-9.5938 9.8438c-2.457 2.5195-2.4102 6.5469 0.10937 9.0039 1.2461 1.2148 2.8477 1.8203 4.4492 1.8203z"/>
  <use x="70" y="576.40625" xlink:href="#g"/>
  <use x="74.011719" y="576.40625" xlink:href="#c"/>
  <use x="76.710938" y="576.40625" xlink:href="#a"/>
  <use x="80.417969" y="576.40625" xlink:href="#f"/>
  <use x="84.109375" y="576.40625" xlink:href="#b"/>
  <use x="86.722656" y="576.40625" xlink:href="#a"/>
  <use x="90.433594" y="576.40625" xlink:href="#k"/>
  <use x="96.25" y="576.40625" xlink:href="#j"/>
  <use x="100.167969" y="576.40625" xlink:href="#i"/>
  <use x="105.636719" y="576.40625" xlink:href="#h"/>
  <use x="109.574219" y="576.40625" xlink:href="#e"/>
  <use x="113.46875" y="576.40625" xlink:href="#f"/>
  <use x="117.15625" y="576.40625" xlink:href="#v"/>
  <use x="120.792969" y="576.40625" xlink:href="#a"/>
  <use x="124.503906" y="576.40625" xlink:href="#a"/>
  <use x="128.210938" y="576.40625" xlink:href="#u"/>
  <use x="131.992188" y="576.40625" xlink:href="#g"/>
  <use x="136.003906" y="576.40625" xlink:href="#e"/>
  <use x="139.898438" y="576.40625" xlink:href="#t"/>
  <use x="70" y="581.875" xlink:href="#s"/>
  <use x="72.378906" y="581.875" xlink:href="#c"/>
  <use x="75.078125" y="581.875" xlink:href="#d"/>
  <use x="78.832031" y="581.875" xlink:href="#r"/>
  <use x="86.4375" y="581.875" xlink:href="#b"/>
  <use x="89.050781" y="581.875" xlink:href="#e"/>
  <use x="92.941406" y="581.875" xlink:href="#a"/>
  <use x="98.554688" y="581.875" xlink:href="#q"/>
  <use x="103.132812" y="581.875" xlink:href="#d"/>
  <use x="106.890625" y="581.875" xlink:href="#p"/>
  <use x="110.785156" y="581.875" xlink:href="#o"/>
  <use x="116.582031" y="581.875" xlink:href="#n"/>
  <use x="120.589844" y="581.875" xlink:href="#c"/>
  <use x="123.285156" y="581.875" xlink:href="#d"/>
  <use x="127.042969" y="581.875" xlink:href="#m"/>
  <use x="128.917969" y="581.875" xlink:href="#a"/>
  <use x="132.625" y="581.875" xlink:href="#l"/>
  <use x="135.867188" y="581.875" xlink:href="#b"/>
 </g>
</svg>
