<?xml version="1.0" encoding="UTF-8"?>
<svg width="700pt" height="700pt" version="1.1" viewBox="0 0 700 700" xmlns="http://www.w3.org/2000/svg" xmlns:xlink="http://www.w3.org/1999/xlink">
 <defs>
  <symbol id="t" overflow="visible">
   <path d="m3.6562-0.21875c-0.1875 0.09375-0.38672 0.16797-0.59375 0.21875-0.19922 0.050781-0.40625 0.078125-0.625 0.078125-0.66797 0-1.1992-0.17969-1.5938-0.54688-0.38672-0.375-0.57812-0.87891-0.57812-1.5156 0-0.64453 0.19141-1.1484 0.57812-1.5156 0.39453-0.375 0.92578-0.5625 1.5938-0.5625 0.21875 0 0.42578 0.027344 0.625 0.078125 0.20703 0.054687 0.40625 0.125 0.59375 0.21875v0.82812c-0.1875-0.125-0.375-0.21875-0.5625-0.28125-0.17969-0.0625-0.37109-0.09375-0.57812-0.09375-0.36719 0-0.65625 0.12109-0.875 0.35938-0.21094 0.23047-0.3125 0.55469-0.3125 0.96875 0 0.40625 0.10156 0.73047 0.3125 0.96875 0.21875 0.23047 0.50781 0.34375 0.875 0.34375 0.20703 0 0.39844-0.023437 0.57812-0.078125 0.1875-0.0625 0.375-0.16016 0.5625-0.29688z"/>
  </symbol>
  <symbol id="d" overflow="visible">
   <path d="m2.6875-2.1719c-0.085938-0.039063-0.16797-0.070313-0.25-0.09375-0.085938-0.019531-0.16797-0.03125-0.25-0.03125-0.25 0-0.44531 0.085937-0.57812 0.25-0.125 0.15625-0.1875 0.38281-0.1875 0.67188v1.375h-0.96875v-2.9844h0.96875v0.48438c0.11328-0.19531 0.25-0.33594 0.40625-0.42188 0.16406-0.09375 0.35938-0.14062 0.57812-0.14062h0.10938c0.039063 0 0.09375 0.007812 0.15625 0.015625z"/>
  </symbol>
  <symbol id="a" overflow="visible">
   <path d="m3.4375-1.5v0.26562h-2.2344c0.03125 0.23047 0.11328 0.40234 0.25 0.51562 0.13281 0.10547 0.32812 0.15625 0.57812 0.15625 0.20703 0 0.41406-0.023438 0.625-0.078125 0.20703-0.0625 0.42188-0.15625 0.64062-0.28125v0.73438c-0.21875 0.09375-0.44531 0.16406-0.67188 0.20312-0.23047 0.039062-0.45312 0.0625-0.67188 0.0625-0.54297 0-0.96484-0.13281-1.2656-0.40625-0.30469-0.28125-0.45312-0.67188-0.45312-1.1719 0-0.47656 0.14453-0.85938 0.4375-1.1406 0.30078-0.28125 0.70703-0.42188 1.2188-0.42188 0.46875 0 0.84375 0.14062 1.125 0.42188s0.42188 0.66406 0.42188 1.1406zm-0.96875-0.32812c0-0.17578-0.058594-0.31641-0.17188-0.42188-0.10547-0.11328-0.24219-0.17188-0.40625-0.17188-0.1875 0-0.33984 0.054687-0.45312 0.15625-0.11719 0.10547-0.1875 0.25-0.21875 0.4375z"/>
  </symbol>
  <symbol id="j" overflow="visible">
   <path d="m1.7969-1.3438c-0.19922 0-0.35156 0.039062-0.45312 0.10938-0.09375 0.0625-0.14062 0.16406-0.14062 0.29688 0 0.11719 0.035156 0.21094 0.10938 0.28125 0.082031 0.0625 0.19531 0.09375 0.34375 0.09375 0.17578 0 0.32812-0.0625 0.45312-0.1875s0.1875-0.28516 0.1875-0.48438v-0.10938zm1.4688-0.35938v1.7031h-0.96875v-0.4375c-0.125 0.17969-0.27344 0.30859-0.4375 0.39062-0.15625 0.082031-0.35156 0.125-0.57812 0.125-0.3125 0-0.57031-0.085938-0.76562-0.26562-0.1875-0.1875-0.28125-0.42188-0.28125-0.70312 0-0.35156 0.11719-0.61328 0.35938-0.78125 0.23828-0.16406 0.61719-0.25 1.1406-0.25h0.5625v-0.0625c0-0.15625-0.0625-0.26562-0.1875-0.32812-0.11719-0.070312-0.29688-0.10938-0.54688-0.10938-0.21094 0-0.40234 0.023437-0.57812 0.0625-0.17969 0.042969-0.33984 0.10156-0.48438 0.17188v-0.71875c0.19531-0.050781 0.39844-0.085938 0.60938-0.10938 0.20703-0.03125 0.41406-0.046875 0.625-0.046875 0.53906 0 0.92969 0.10938 1.1719 0.32812 0.23828 0.21094 0.35938 0.55469 0.35938 1.0312z"/>
  </symbol>
  <symbol id="c" overflow="visible">
   <path d="m1.5-3.8438v0.85938h0.98438v0.67188h-0.98438v1.2812c0 0.13672 0.023438 0.23047 0.078125 0.28125 0.0625 0.042969 0.17578 0.0625 0.34375 0.0625h0.48438v0.6875h-0.8125c-0.38672 0-0.65625-0.078125-0.8125-0.23438s-0.23438-0.42188-0.23438-0.79688v-1.2812h-0.46875v-0.67188h0.46875v-0.85938z"/>
  </symbol>
  <symbol id="i" overflow="visible">
   <path d="m2.5-2.5469v-1.6094h0.95312v4.1562h-0.95312v-0.4375c-0.13672 0.17969-0.28125 0.30859-0.4375 0.39062-0.15625 0.082031-0.33984 0.125-0.54688 0.125-0.375 0-0.68359-0.14453-0.92188-0.4375-0.23047-0.28906-0.34375-0.67188-0.34375-1.1406 0-0.45703 0.11328-0.83203 0.34375-1.125 0.23828-0.28906 0.54688-0.4375 0.92188-0.4375 0.19531 0 0.375 0.042969 0.53125 0.125 0.16406 0.085938 0.31641 0.21484 0.45312 0.39062zm-0.64062 1.9375c0.20703 0 0.36328-0.070313 0.46875-0.21875 0.11328-0.15625 0.17188-0.37891 0.17188-0.67188 0-0.28125-0.058594-0.49219-0.17188-0.64062-0.10547-0.15625-0.26172-0.23438-0.46875-0.23438-0.19922 0-0.35547 0.078125-0.46875 0.23438-0.10547 0.14844-0.15625 0.35938-0.15625 0.64062 0 0.29297 0.050781 0.51562 0.15625 0.67188 0.11328 0.14844 0.26953 0.21875 0.46875 0.21875z"/>
  </symbol>
  <symbol id="h" overflow="visible">
   <path d="m2.0469-0.60938c0.20703 0 0.36328-0.070313 0.46875-0.21875 0.11328-0.15625 0.17188-0.37891 0.17188-0.67188 0-0.28125-0.058594-0.49219-0.17188-0.64062-0.10547-0.15625-0.26172-0.23438-0.46875-0.23438-0.19922 0-0.35547 0.078125-0.46875 0.23438-0.10547 0.14844-0.15625 0.35938-0.15625 0.64062 0 0.29297 0.050781 0.51562 0.15625 0.67188 0.11328 0.14844 0.26953 0.21875 0.46875 0.21875zm-0.625-1.9375c0.125-0.17578 0.26562-0.30469 0.42188-0.39062 0.16406-0.082031 0.35156-0.125 0.5625-0.125 0.36328 0 0.66406 0.14844 0.90625 0.4375 0.23828 0.29297 0.35938 0.66797 0.35938 1.125 0 0.46875-0.12109 0.85156-0.35938 1.1406-0.24219 0.29297-0.54297 0.4375-0.90625 0.4375-0.21094 0-0.39844-0.042969-0.5625-0.125-0.15625-0.082031-0.29688-0.21094-0.42188-0.39062v0.4375h-0.96875v-4.1562h0.96875z"/>
  </symbol>
  <symbol id="g" overflow="visible">
   <path d="m0.0625-2.9844h0.95312l0.8125 2.0156 0.6875-2.0156h0.95312l-1.2656 3.2656c-0.125 0.33203-0.27344 0.56641-0.4375 0.70312-0.16797 0.13281-0.39062 0.20312-0.67188 0.20312h-0.54688v-0.64062h0.29688c0.16406 0 0.28516-0.027344 0.35938-0.078125 0.070313-0.054688 0.12891-0.14062 0.17188-0.26562l0.03125-0.09375z"/>
  </symbol>
  <symbol id="f" overflow="visible">
   <path d="m0.5-3.9844h1.0312v3.5938c0 0.5-0.13672 0.86719-0.40625 1.1094-0.27344 0.25-0.67969 0.375-1.2188 0.375h-0.21875v-0.78125h0.17188c0.20703 0 0.36328-0.0625 0.46875-0.1875 0.11328-0.11719 0.17188-0.28516 0.17188-0.51562z"/>
  </symbol>
  <symbol id="s" overflow="visible">
   <path d="m0.45312-2.9844h0.96875v2.9844h-0.96875zm0-1.1719h0.96875v0.78125h-0.96875z"/>
  </symbol>
  <symbol id="e" overflow="visible">
   <path d="m3.4688-1.8281v1.8281h-0.96875v-1.3906c0-0.25781-0.007812-0.4375-0.015625-0.53125-0.011719-0.10156-0.03125-0.17578-0.0625-0.21875-0.03125-0.0625-0.085937-0.10938-0.15625-0.14062-0.0625-0.039062-0.13281-0.0625-0.20312-0.0625-0.21094 0-0.37109 0.078125-0.48438 0.23438-0.10547 0.15625-0.15625 0.37109-0.15625 0.64062v1.4688h-0.96875v-2.9844h0.96875v0.4375c0.13281-0.17578 0.28516-0.30469 0.45312-0.39062 0.16406-0.082031 0.34375-0.125 0.53125-0.125 0.34375 0 0.60156 0.10938 0.78125 0.32812 0.1875 0.21094 0.28125 0.51172 0.28125 0.90625z"/>
  </symbol>
  <symbol id="b" overflow="visible">
   <path d="m1.875-2.375c-0.21094 0-0.37109 0.078125-0.48438 0.23438-0.10547 0.14844-0.15625 0.35938-0.15625 0.64062 0 0.29297 0.050781 0.51562 0.15625 0.67188 0.11328 0.14844 0.27344 0.21875 0.48438 0.21875 0.20703 0 0.36719-0.070313 0.48438-0.21875 0.11328-0.15625 0.17188-0.37891 0.17188-0.67188 0-0.28125-0.058594-0.49219-0.17188-0.64062-0.11719-0.15625-0.27734-0.23438-0.48438-0.23438zm0-0.6875c0.51953 0 0.92188 0.14062 1.2031 0.42188 0.28906 0.27344 0.4375 0.65234 0.4375 1.1406 0 0.5-0.14844 0.89062-0.4375 1.1719-0.28125 0.27344-0.68359 0.40625-1.2031 0.40625-0.51172 0-0.91406-0.13281-1.2031-0.40625-0.29297-0.28125-0.4375-0.67188-0.4375-1.1719 0-0.48828 0.14453-0.86719 0.4375-1.1406 0.28906-0.28125 0.69141-0.42188 1.2031-0.42188z"/>
  </symbol>
  <symbol id="r" overflow="visible">
   <path d="m2.4219-4.1562v0.625h-0.51562c-0.13672 0-0.23438 0.027344-0.29688 0.078125-0.054687 0.054687-0.078125 0.13672-0.078125 0.25v0.21875h0.82812v0.67188h-0.82812v2.3125h-0.95312v-2.3125h-0.46875v-0.67188h0.46875v-0.21875c0-0.32031 0.085937-0.5625 0.26562-0.71875 0.1875-0.15625 0.47266-0.23438 0.85938-0.23438z"/>
  </symbol>
  <symbol id="q" overflow="visible">
   <path d="m3.2344-2.5c0.11328-0.17578 0.25391-0.3125 0.42188-0.40625 0.16406-0.10156 0.35156-0.15625 0.5625-0.15625 0.33203 0 0.58594 0.10938 0.76562 0.32812 0.1875 0.21094 0.28125 0.51172 0.28125 0.90625v1.8281h-0.96875v-1.5625c0.007813-0.019531 0.015625-0.039062 0.015625-0.0625v-0.10938c0-0.21875-0.03125-0.375-0.09375-0.46875s-0.16406-0.14062-0.29688-0.14062c-0.1875 0-0.33594 0.078125-0.4375 0.23438-0.09375 0.14844-0.14062 0.35938-0.14062 0.64062v1.4688h-0.96875v-1.5625c0-0.33203-0.03125-0.54688-0.09375-0.64062-0.054688-0.09375-0.15234-0.14062-0.29688-0.14062-0.17969 0-0.32031 0.078125-0.42188 0.23438-0.09375 0.14844-0.14062 0.35938-0.14062 0.64062v1.4688h-0.96875v-2.9844h0.96875v0.4375c0.11328-0.17578 0.24219-0.30469 0.39062-0.39062 0.15625-0.082031 0.32812-0.125 0.51562-0.125 0.20703 0 0.39062 0.054688 0.54688 0.15625 0.15625 0.09375 0.27344 0.23047 0.35938 0.40625z"/>
  </symbol>
  <symbol id="p" overflow="visible">
   <path d="m3.4688-1.8281v1.8281h-0.96875v-1.3906c0-0.25781-0.007812-0.4375-0.015625-0.53125-0.011719-0.10156-0.03125-0.17578-0.0625-0.21875-0.03125-0.0625-0.085937-0.10938-0.15625-0.14062-0.0625-0.039062-0.13281-0.0625-0.20312-0.0625-0.21094 0-0.37109 0.078125-0.48438 0.23438-0.10547 0.15625-0.15625 0.37109-0.15625 0.64062v1.4688h-0.96875v-4.1562h0.96875v1.6094c0.13281-0.17578 0.28516-0.30469 0.45312-0.39062 0.16406-0.082031 0.34375-0.125 0.53125-0.125 0.34375 0 0.60156 0.10938 0.78125 0.32812 0.1875 0.21094 0.28125 0.51172 0.28125 0.90625z"/>
  </symbol>
  <symbol id="o" overflow="visible">
   <path d="m0.5-3.9844h1.1562l1.4375 2.7344v-2.7344h0.98438v3.9844h-1.1562l-1.4375-2.7344v2.7344h-0.98438z"/>
  </symbol>
  <symbol id="n" overflow="visible">
   <path d="m0.42188-1.1719v-1.8125h0.96875v0.29688 0.60938 0.48438c0 0.24219 0.003906 0.41797 0.015625 0.53125 0.007812 0.10547 0.03125 0.17969 0.0625 0.21875 0.039062 0.0625 0.09375 0.11719 0.15625 0.15625 0.0625 0.03125 0.13281 0.046875 0.21875 0.046875 0.19531 0 0.35156-0.078125 0.46875-0.23438 0.11328-0.15625 0.17188-0.36719 0.17188-0.64062v-1.4688h0.95312v2.9844h-0.95312v-0.4375c-0.14844 0.17969-0.30469 0.30859-0.46875 0.39062-0.15625 0.082031-0.33594 0.125-0.53125 0.125-0.34375 0-0.60938-0.10156-0.79688-0.3125-0.17969-0.21875-0.26562-0.53125-0.26562-0.9375z"/>
  </symbol>
  <symbol id="m" overflow="visible">
   <path d="m0.5-3.9844h1.7031c0.50781 0 0.89844 0.11719 1.1719 0.34375 0.26953 0.21875 0.40625 0.53906 0.40625 0.95312 0 0.41797-0.13672 0.74219-0.40625 0.96875-0.27344 0.21875-0.66406 0.32812-1.1719 0.32812h-0.67188v1.3906h-1.0312zm1.0312 0.75v1.1094h0.5625c0.19531 0 0.34766-0.046875 0.45312-0.14062 0.11328-0.10156 0.17188-0.24219 0.17188-0.42188 0-0.17578-0.058594-0.3125-0.17188-0.40625-0.10547-0.09375-0.25781-0.14062-0.45312-0.14062z"/>
  </symbol>
  <symbol id="l" overflow="visible">
   <path d="m0.45312-2.9844h0.96875v2.9375c0 0.39453-0.10156 0.69531-0.29688 0.90625-0.1875 0.21875-0.46484 0.32812-0.82812 0.32812h-0.48438v-0.64062h0.17188c0.17578 0 0.29688-0.042969 0.35938-0.125 0.070312-0.074219 0.10938-0.23047 0.10938-0.46875zm0-1.1719h0.96875v0.78125h-0.96875z"/>
  </symbol>
  <symbol id="k" overflow="visible">
   <path d="m2.875-2.8906v0.76562c-0.125-0.082031-0.25781-0.14453-0.39062-0.1875-0.13672-0.039062-0.27344-0.0625-0.40625-0.0625-0.27344 0-0.48047 0.078125-0.625 0.23438-0.14844 0.15625-0.21875 0.37109-0.21875 0.64062 0 0.28125 0.070313 0.5 0.21875 0.65625 0.14453 0.15625 0.35156 0.23438 0.625 0.23438 0.14453 0 0.28516-0.019531 0.42188-0.0625 0.13281-0.039063 0.25781-0.10938 0.375-0.20312v0.78125c-0.14844 0.0625-0.29688 0.10156-0.45312 0.125-0.15625 0.03125-0.3125 0.046875-0.46875 0.046875-0.54297 0-0.96484-0.13281-1.2656-0.40625-0.30469-0.28125-0.45312-0.67188-0.45312-1.1719 0-0.48828 0.14844-0.86719 0.45312-1.1406 0.30078-0.28125 0.72266-0.42188 1.2656-0.42188 0.15625 0 0.3125 0.015625 0.46875 0.046875 0.15625 0.023437 0.30469 0.0625 0.45312 0.125z"/>
  </symbol>
 </defs>
 <g>
  <path d="m120.31 533.75c-0.61719-0.003906-1.2305-0.10547-1.8164-0.30469-1.8789-0.66406-3.2461-2.293-3.5742-4.2578-3.4453-19.852-25.844-17.5-26.797-17.379-1.4414 0.16797-2.8906-0.24609-4.0273-1.1523-1.1367-0.90234-1.8672-2.2188-2.0352-3.6602-0.34375-3 1.8125-5.7148 4.8125-6.0586 10.312-1.1914 29.629 1.6641 36.75 19.062 7.1211-2.9844 14.918-3.9688 22.555-2.8438 0.46875-13.977 7.7773-33.852 33.906-41.203 29.641-8.3359 47.633 7.1211 54.426 14.809v0.003906c2.9375-1.2773 6.0039-2.2422 9.1445-2.875 7.3047-1.6562 14.957-0.76562 21.688 2.5234 3.8242-7.8711 9.7578-14.531 17.141-19.238 7.3789-4.707 15.922-7.2773 24.672-7.4258h1.543c24.062 0 35.82 19.895 39.891 34.496 15.465-3.9336 31.871-1.3203 45.348 7.2305 11.586-5.9219 25.18-6.5156 37.242-1.6289 3.1289-10.938 12.207-25.156 32.637-29.039 22.883-4.375 37.383 8.4336 43.453 18.145 6.5625-0.44922 20.059-0.26172 30.922 7.0977 2.1797-11.926 7.8086-22.953 16.188-31.719 13.266-13.562 32.812-20.258 58.211-19.852h-0.003906c3.0234 0.023437 5.4492 2.4922 5.4258 5.5117-0.023438 3.0234-2.4922 5.4492-5.5117 5.4258h-0.085938c-22.16-0.31641-39.035 5.207-50.117 16.461-14.797 14.996-14.328 35.602-14.328 35.809 0.082031 2.4297-1.4492 4.625-3.7578 5.3828-2.3086 0.76172-4.8438-0.09375-6.2188-2.1016-9.8438-14.359-32.66-10.859-32.891-10.828h0.003907c-2.4375 0.40234-4.8398-0.87891-5.8633-3.125-0.37109-0.79688-9.668-20.047-33.371-15.488-23.91 4.5938-25.059 25.68-25.09 26.578-0.078125 1.9062-1.1484 3.6367-2.8203 4.5586-1.6719 0.92188-3.7031 0.90625-5.3594-0.042968-19.5-11.145-35.066-0.71094-35.723-0.26172-1.8789 1.3125-4.3789 1.3125-6.2578 0-22.344-15.543-43.617-6.168-43.828-6.0703h0.003906c-1.5625 0.70313-3.3633 0.63672-4.8672-0.18359-1.5039-0.82031-2.5391-2.3008-2.7891-3.9961-0.19531-1.2891-5.0625-31.445-30.449-31.445h-1.0938c-27.137 0.92969-34.004 24.5-34.289 25.508h-0.003906c-0.49219 1.8047-1.875 3.2305-3.668 3.7812-1.7891 0.55078-3.7344 0.14844-5.1562-1.0703-12.164-10.422-28.438-0.6875-28.59-0.57812-2.5625 1.5664-5.9062 0.77344-7.4922-1.7734-0.57813-0.90625-14.852-22.609-45.293-14.043-12.633 3.5547-20.781 10.762-24.16 21.414v0.003906c-1.5273 4.8711-2.0234 10.008-1.457 15.082 0.30078 1.8281-0.34375 3.6836-1.7109 4.9297-1.3711 1.25-3.2773 1.7188-5.0703 1.25-17.379-4.5703-26.348 2.875-26.719 3.2031-1.0078 0.90625-2.3203 1.3945-3.6758 1.3789z"/>
  <path d="m87.5 411.25c-2.4414 0-4.5898-1.625-5.2578-3.9727-0.66797-2.3516 0.30469-4.8594 2.3828-6.1445 0.29688-0.1875 30.176-18.801 64.27-50.52 31.25-29.062 72.547-75.469 91.961-131.25 1.7266-6.6172 7.3398-17.129 17.816-15.902 1.2031 0.097656 13.301 1.0938 21.328 1.0938 3.0195 0 5.4688 2.4453 5.4688 5.4688 0 3.0195-2.4492 5.4688-5.4688 5.4688-8.8711 0-21.789-1.0938-22.336-1.0938h-0.21875c-2.9414-0.37109-5.4688 5.7734-6.0469 7.9297 0 0.16406-0.085938 0.31641-0.14063 0.46875-20.137 58.121-62.824 106.09-95.09 136.06-34.859 32.398-64.531 50.871-65.789 51.637h-0.003906c-0.87109 0.51172-1.8633 0.77344-2.875 0.75391z"/>
  <path d="m612.5 390.47c-0.57812 0-1.1562-0.09375-1.707-0.27344-55.168-18.078-105.95-57.246-146.81-113.26-32.68-44.844-48.867-86.273-51.406-94.926-4.1016-13.977-16.516-12.59-17.039-12.523h-0.32031c-28.562 1.9766-57.211 2.3438-85.816 1.0938-17.586 0.12109-19.492 21.406-19.566 22.312 0.007813 0.078125 0.007813 0.16016 0 0.23828-4.4297 35.449-25.812 81.703-26.719 83.66v0.003906c-0.58203 1.3594-1.6914 2.4297-3.0742 2.9609-1.3828 0.53125-2.9219 0.47656-4.2656-0.14844-1.3438-0.62891-2.375-1.7695-2.8594-3.1719-0.48437-1.3984-0.37891-2.9375 0.28906-4.2578 0.20703-0.46094 21.516-46.57 25.77-80.293 0.94141-11.223 8.5078-32.242 30.625-32.242h0.32812c28.156 1.2305 56.363 0.86328 84.48-1.0938 7.6562-0.88672 23.395 2.1875 28.723 20.312 2.4297 8.2695 18.004 48.039 49.754 91.559 27.551 37.766 74.441 87.379 141.39 109.32v-0.003907c2.6914 0.74609 4.3867 3.4062 3.9336 6.1602-0.45703 2.7578-2.918 4.7305-5.707 4.5703z"/>
  <path d="m434.62 402.68c-3.7305-0.03125-7.3867-1.0469-10.602-2.9414-9.6367-5.5547-12.809-16.406-15.312-25.156-0.32813-1.0938-0.65625-2.2539-0.98438-3.3359-3.3789-10.938-6.3555-22.398-9.0898-34.945-4.4844-20.586-8.0938-43.125-11.375-70.953-1.3906-11.801-3.8281-25.977-10.422-30.875-2.2422-1.6719-4.8984-2.1875-8.3438-1.5625-8.8047 1.5547-10.039 30.516-7.5586 50.828v-0.003906c0.32812 3.2266 0.32812 6.4766 0 9.6992-0.76562 7.4688-3.0938 13.43-6.9141 17.719-4.168 4.6797-10.074 7.1523-17.062 7.1523v0.003907c-5.6797 0.16406-11.117-2.3086-14.73-6.6953-9.5586-11.66-5.5469-34.562-4.8906-37.953 2.832-21.133 4.4297-58.121-3.2812-67.91-9.0469-11.508-27.879-1.9023-28.066-1.793-2.6758 1.4023-5.9805 0.37109-7.3867-2.3047-1.4062-2.6758-0.375-5.9844 2.3008-7.3867 1.0938-0.57812 27.07-13.957 41.75 4.7266 13.125 16.648 6.3125 70.242 5.4688 76.301l-0.066406 0.33984c-1.0938 5.4688-2.8984 22.379 2.582 29.051v-0.003907c1.5352 1.832 3.8516 2.8203 6.2344 2.668 3.8945 0 6.8047-1.0938 8.8906-3.4883 5.5547-6.2227 4.2891-18.727 4.2656-18.855-1.1914-9.7656-6.0391-58.898 16.516-62.879 6.4297-1.0938 12.086 0 16.777 3.543 9.8438 7.3398 12.93 22.793 14.766 38.391 3.2266 27.453 6.7812 49.668 11.188 69.891 2.668 12.238 5.5664 23.383 8.8477 34.059 0.35156 1.0938 0.69922 2.3086 1.0391 3.5 2.1875 7.5703 4.4961 15.398 10.324 18.758h0.003907c2.5156 1.6055 5.6484 1.8945 8.4141 0.77734 2.2891-1.1016 3.8906-3.2578 4.2852-5.7656 0.88672-4.375 0.46875-9.9297-1.2266-16.406l-0.066406-0.26172c-0.46094-2.1875-11.09-52.5-8.8477-76.027 1.0938-10.883 6.4844-18.715 15.312-22.07 9.668-3.6523 22.227-1.0938 29.859 6.0156h0.003906c2.1133 2.0781 2.1836 5.4688 0.15625 7.6328-2.0273 2.168-5.4102 2.3242-7.6289 0.35156-4.0352-3.7734-12.031-6.2109-18.516-3.7617-4.8672 1.8359-7.6562 6.168-8.3008 12.863-2.0352 21.34 8.0391 69.805 8.6289 72.602 2.1016 8.0156 2.5469 15.148 1.3359 21.188l-0.003906-0.003907c-1.0781 5.9648-4.9961 11.031-10.5 13.574-2.4375 1.1172-5.0898 1.6992-7.7734 1.707z"/>
  <path d="m511.56 415.35c-4.9531-0.12109-9.6797-2.1055-13.234-5.5547-17.238-15.906-26.918-32.289-28.012-47.371-0.79688-11.18 4.6484-15.695 7.9727-17.402 5.8398-2.9961 13.891-1.7734 19.578 2.9648 5.0938 4.5156 9.7344 9.5195 13.848 14.941 8.6641 9.6562 13.922 19 15.652 27.77 1.6094 8.1797-0.15234 15.52-4.8242 20.137-2.9141 2.9062-6.8672 4.5312-10.98 4.5156zm-26.25-61.02c-0.70312-0.019531-1.3984 0.12891-2.0352 0.42578-2.1328 1.0938-2.1875 4.7812-2.0469 6.8789 1.0938 15.488 13.934 30.375 24.5 40.129 3.2266 2.9766 6.8906 3.4883 9.1211 1.2891 3.8828-3.8398 4.0469-15.793-11.43-33l0.003906 0.003906c-0.10938-0.11719-0.20703-0.24219-0.29688-0.37109-0.066406-0.078125-6.2656-8.3125-12.25-13.301-1.5781-1.2617-3.5312-1.9727-5.5547-2.0117z"/>
  <path d="m87.5 476.88c-2.5586-0.003906-4.7695-1.7773-5.3281-4.2734-0.55859-2.4961 0.6875-5.0469 3-6.1406 76.387-36.094 145.79-143.49 146.48-144.57h-0.003907c1.6328-2.543 5.0156-3.2812 7.5586-1.6523 2.543 1.6328 3.2812 5.0156 1.6523 7.5586-13.855 20.887-28.98 40.906-45.293 59.938-36.793 43.051-72.363 72.867-105.73 88.594-0.72266 0.35547-1.5195 0.54297-2.3281 0.54688z"/>
  <path d="m217.88 489.77c-2.1406 0-4.082-1.25-4.9727-3.1953-0.88672-1.9453-0.5625-4.2305 0.83984-5.8477 41.113-47.457 56.504-96.828 56.656-97.344 0.94141-2.8086 3.9492-4.3516 6.7773-3.4883 2.832 0.86719 4.4609 3.8281 3.6758 6.6797-0.63281 2.1211-16.164 52.02-58.82 101.32-1.0469 1.1992-2.5625 1.8867-4.1562 1.8789z"/>
  <path d="m413.75 511.52c-2.5938-0.007813-4.8281-1.832-5.3477-4.375-8.4219-39.672-11.332-86.406-11.363-86.855v-0.32812c0-0.57812-0.23047-14.613-10.238-15.312-19.062-1.3672-22.391-18.125-23.473-23.637l-0.085937-0.4375c-1.1484-5.7188-2.1875-28.844-2.2969-31.457-0.066407-1.4492 0.44922-2.8672 1.4297-3.9375 0.98047-1.0703 2.3477-1.707 3.7969-1.7695 3.0195-0.13281 5.5781 2.207 5.7109 5.2266 0.41406 9.5703 1.3438 26.109 2.0781 29.793l0.097656 0.46094c1.4102 7.1211 3.6094 14.141 13.531 14.844 16 1.1797 20.309 17.52 20.375 26.082 0.1875 2.9414 3.1289 47.348 11.133 85.094 0.62891 2.957-1.2539 5.8594-4.2109 6.4883-0.37109 0.082031-0.75391 0.12109-1.1367 0.12109z"/>
  <path d="m578.05 464.78c-1.4219 0-2.7852-0.55078-3.8047-1.543-16.242-15.75-31.488-42.656-32.133-43.836h-0.003906c-1.4805-2.6328-0.54297-5.9688 2.0898-7.4492 2.6328-1.4805 5.9688-0.54297 7.4492 2.0898 0.14062 0.26172 15.117 26.711 30.211 41.344h-0.003907c1.6016 1.5508 2.1016 3.9141 1.2656 5.9805-0.83984 2.0625-2.8438 3.4141-5.0703 3.4141z"/>
  <path d="m319.93 171.05c-2.5352-0.003906-4.7344-1.7461-5.3164-4.2109-1.8477-7.8516-2.1875-21.875 5.3711-31.184-4.5742-1.9258-8.6133-4.9414-11.758-8.7812-3.7617-4.832-5.7773-10.797-5.7227-16.922-9.8438 0.42578-28.012-0.50391-39.703-11.703-8.3906-8.0391-11.789-19.578-10.117-34.301v0.003906c0.33203-3.0117 3.0391-5.1875 6.0508-4.8594 3.0117 0.33203 5.1836 3.0391 4.8555 6.0508-1.2695 11.156 1.0273 19.621 6.8125 25.156 10.312 9.8438 30.363 9.2539 37.188 8.1797 1.7305-0.26953 3.4844 0.30469 4.7188 1.543 1.2383 1.2422 1.8047 2.9961 1.5273 4.7266-1.0156 6.332 0 11.461 2.9414 15.246 5.4688 6.9883 16.055 7.9609 16.156 7.9727 2.5625 0.21875 4.6289 2.1914 4.9609 4.7422 0.33203 2.5508-1.1602 4.9883-3.582 5.8555-5.6445 2-8.75 6.5625-9.6367 13.988-0.39063 3.9258-0.19531 7.8828 0.57812 11.75 0.6875 2.9297-1.1289 5.8633-4.0547 6.5625-0.41797 0.10937-0.83984 0.17187-1.2695 0.18359z"/>
  <path d="m394.84 169.53c-1.0586 0.003906-2.0898-0.30469-2.9766-0.88672-2.5234-1.6406-3.2461-5.0156-1.6172-7.5469 1.1484-1.8047 10.719-17.73-3.9062-27.484-1.7344-1.1602-2.6602-3.207-2.3828-5.2734 0.27734-2.0703 1.707-3.8008 3.6875-4.4609 1.5312-0.54688 15.312-6.0039 12.711-25.824h-0.003906c-0.20703-1.6211 0.31641-3.25 1.4336-4.4414 1.125-1.2031 2.7305-1.8398 4.375-1.7266 0.1875 0 20.672 1.0078 33.316-11.91 7.918-8.0703 11.32-20.125 10.105-35.809v-0.003907c-0.23047-3.0195 2.0312-5.6523 5.0547-5.8828 3.0195-0.23047 5.6523 2.0312 5.8828 5.0547 1.4531 19.008-3.0078 33.906-13.277 44.375-11.453 11.625-27.039 14.395-35.57 14.996 0 13.605-6.3984 22.434-12.828 27.344v-0.003906c5.3086 6.1133 7.5586 14.305 6.1133 22.27-0.85938 5.2109-2.7148 10.211-5.4688 14.723-1.0195 1.5703-2.7734 2.5117-4.6484 2.4922z"/>
  <path d="m466.78 50.816c-13.191 0-21.559-4.2109-26.086-7.5039-12.098 8.5312-25.582 3.6641-31.531-0.57812h-0.003906c-1.1797-0.84375-1.9805-2.1211-2.2227-3.5508-0.23828-1.4297 0.097656-2.8984 0.9375-4.0781 1.7539-2.4648 5.168-3.0391 7.6289-1.2852 1.2148 0.84375 11.977 7.8438 21.406-1.5977 1.1055-1.1055 2.6328-1.6875 4.1953-1.5938s3.0078 0.85547 3.9727 2.0859c0.37109 0.4375 10.707 12.238 39.133 4.6602h0.003906c1.4102-0.40234 2.9219-0.22266 4.1953 0.5 1.2773 0.72266 2.207 1.9297 2.5859 3.3477 0.37891 1.4141 0.17188 2.9258-0.57031 4.1875-0.74609 1.2617-1.9688 2.1758-3.3906 2.5273-6.5977 1.8398-13.406 2.8047-20.254 2.8789z"/>
  <path d="m530.38 86.34c-10.734-0.066406-21.02-4.3086-28.68-11.824-23.734 19.832-53.527 7.5156-54.863 6.9141-2.6953-1.2305-3.918-4.3867-2.7578-7.1133 1.1562-2.7266 4.2773-4.0352 7.0352-2.9492 1.2266 0.51562 28.066 11.418 46.953-8.4219 1.1367-1.1836 2.7422-1.8008 4.375-1.6836 1.6328 0.125 3.1211 0.96875 4.0586 2.3086 3.6562 4.6484 8.5664 8.1484 14.152 10.09 5.5859 1.9375 11.609 2.2305 17.359 0.84766 7.2852-1.6523 12.141-5.7422 14.328-12.164 2.8672-8.2031 0.625-18.059-3.2031-22.848-1.4219-1.8008-1.5703-4.2969-0.37109-6.25s3.4922-2.9531 5.7383-2.5c1.0938 0.21875 26.445 5.0859 30.734-15.445 0.75-2.7969 3.5469-4.5273 6.3789-3.9453 2.8359 0.57812 4.7305 3.2695 4.3203 6.1328-2.6797 12.883-11.551 21.383-24.969 23.941h-0.003906c-2.7305 0.51172-5.5 0.78516-8.2773 0.82031 2.5 7.6953 2.5 15.988 0 23.68-3.4688 9.9102-11.375 16.734-22.27 19.219-3.293 0.76953-6.6602 1.1719-10.039 1.1914z"/>
  <path d="m249.28 134.32c-3.2656-0.007813-6.5234-0.33984-9.7227-0.99609-11.898-2.375-20.277-7.6562-24.906-15.762-4.5156-7.8984-4.168-16.406-3.2812-21.59-7.5-4.0039-13.203-10.703-15.957-18.746-0.83984-2.4844-1.4023-5.0508-1.6758-7.6562-7.6562-1.0938-16.691-4.4961-22.234-11.605-3.3789-4.375-6.8125-11.879-3.9688-23.242 5.2031-20.867 24.684-24.676 34.234-23.789 3.0195 0.27734 5.2422 2.9531 4.9648 5.9727-0.27734 3.0195-2.9531 5.2422-5.9727 4.9648-1.9023-0.16406-18.484-1.0938-22.641 15.562-1.4453 5.7734-0.79688 10.312 1.9805 13.867 4.1758 5.3203 12.754 7.7578 18.965 7.7578 1.5625-0.007812 3.0508 0.64844 4.0977 1.8086 1.043 1.1602 1.543 2.7109 1.3711 4.2617 0 0.60156-1.3242 15.805 15.312 22.793 2.6562 1.1211 3.9883 4.1133 3.0391 6.8359 0 0.066406-3.1484 9.6562 1.3672 17.5 2.9961 5.1719 8.8906 8.6719 17.5 10.402 27.848 5.5664 37.34-20.234 37.734-21.328 0.44922-1.4102 1.4531-2.582 2.7812-3.2422 1.3242-0.65625 2.8633-0.75 4.2578-0.25391 1.3984 0.49219 2.5352 1.5352 3.1484 2.8828 0.61719 1.3477 0.65625 2.8867 0.11719 4.2656-3.9492 10.949-17.039 29.336-40.512 29.336z"/>
  <path d="m169.38 70.766c-4.3281 0.03125-8.6094-0.85938-12.566-2.6016-8.75-3.9062-13.684-11.234-15.98-15.672-9.2109-0.37109-16.723-3.4023-22.355-9.0469-10.633-10.633-10.195-26.559-10.195-27.227 0.097656-3.0195 2.625-5.3906 5.6445-5.293 3.0195 0.097657 5.3906 2.625 5.293 5.6445 0 0.15234-0.23047 12.031 7.0312 19.195 4.1562 4.1133 10.184 6.0586 17.938 5.7969 2.4141-0.085938 4.5977 1.4219 5.3711 3.707 0 0.066407 3.2812 9.2188 11.789 12.938 5.9062 2.5938 13.223 2.0469 21.723-1.6094v0.003906c2.7734-1.207 6 0.058594 7.2109 2.832 1.207 2.7734-0.0625 6-2.8359 7.207-5.6758 2.5938-11.828 3.9961-18.066 4.125z"/>
  <path d="m258.12 214.38c-2.6836-0.003906-4.9688-1.9531-5.3906-4.6055-0.085937-0.58984-2.1875-14.633 6.7695-24.062 6.0586-6.375 15.312-8.957 27.508-7.6562 3.0195 0.32422 5.207 3.0352 4.8828 6.0547s-3.0352 5.207-6.0547 4.8828c-8.6289-0.94141-14.82 0.50391-18.406 4.2891-5.2266 5.4688-3.9141 14.754-3.8945 14.852 0.23047 1.4336-0.12109 2.8984-0.96875 4.0742-0.85156 1.1758-2.1367 1.9648-3.5703 2.1953-0.29297 0.011718-0.58594 0.007812-0.875-0.023438z"/>
  <path d="m538.67 245c-6.5273 0-12.785-2.5938-17.402-7.207-4.6133-4.6172-7.207-10.875-7.207-17.402s2.5938-12.785 7.207-17.402c4.6172-4.6133 10.875-7.207 17.402-7.207s12.785 2.5938 17.402 7.207c4.6133 4.6172 7.207 10.875 7.207 17.402-0.003906 6.5234-2.6016 12.781-7.2148 17.395-4.6133 4.6133-10.871 7.2109-17.395 7.2148zm0-38.281c-5.5312 0-10.516 3.332-12.633 8.4414-2.1133 5.1055-0.94531 10.988 2.9648 14.898s9.793 5.0781 14.898 2.9648c5.1094-2.1172 8.4414-7.1016 8.4414-12.633-0.011719-7.5469-6.125-13.66-13.672-13.672z"/>
  <path d="m142.73 315c-6.5273 0-12.785-2.5938-17.402-7.207-4.6133-4.6172-7.207-10.875-7.207-17.402s2.5938-12.785 7.207-17.402c4.6172-4.6133 10.875-7.207 17.402-7.207s12.785 2.5938 17.402 7.207c4.6133 4.6172 7.207 10.875 7.207 17.402-0.003906 6.5234-2.6016 12.781-7.2148 17.395-4.6133 4.6133-10.871 7.2109-17.395 7.2148zm0-38.281c-5.5312 0-10.516 3.332-12.633 8.4414-2.1133 5.1055-0.94531 10.988 2.9648 14.898s9.793 5.0781 14.898 2.9648c5.1094-2.1172 8.4414-7.1016 8.4414-12.633-0.011719-7.5469-6.125-13.66-13.672-13.672z"/>
  <path d="m143.28 255.94c-2.9609 0-5.3867-2.3555-5.4688-5.3164-1.0938-39.168 9.0117-67.551 29.98-84.352 31.566-25.289 75.602-14.547 77.449-14.078v0.003906c2.9297 0.73828 4.707 3.7109 3.9688 6.6406-0.73828 2.9297-3.7109 4.707-6.6406 3.9688-0.40625-0.097657-40.73-9.8438-67.988 12.031-18.125 14.559-26.82 39.945-25.836 75.469h0.003906c0.042969 1.4531-0.49219 2.8633-1.4883 3.918-0.99609 1.0586-2.375 1.6758-3.8281 1.7148z"/>
  <path d="m522.81 190.31c-2.5234 0-4.7188-1.7266-5.3164-4.1797-0.078125-0.29687-5.7539-22.574-24.336-32.441-12.086-6.4297-27.234-6.3672-45.02 0.1875-1.3672 0.53906-2.8945 0.50391-4.2344-0.097656-1.3438-0.60156-2.3867-1.7188-2.8945-3.0977-0.50781-1.3789-0.44141-2.9062 0.1875-4.2344 0.62891-1.3281 1.7695-2.3477 3.1602-2.8281 20.879-7.6562 39.07-7.5352 54.043 0.46875 22.969 12.262 29.465 38.367 29.727 39.473 0.68359 2.9258-1.1172 5.8555-4.0352 6.5625-0.41797 0.11719-0.84766 0.17969-1.2812 0.1875z"/>
  <path d="m274.53 161.88c-2.5625 0-4.7852-1.7852-5.3359-4.2891l-2.1875-9.8438c-0.35937-1.4297-0.125-2.9492 0.65234-4.2031 0.77734-1.2578 2.0273-2.1445 3.4688-2.4648 1.4414-0.31641 2.9531-0.039063 4.1875 0.76953 1.2305 0.8125 2.0859 2.0859 2.3633 3.5391l2.1875 9.8438c0.35937 1.6172-0.035157 3.3086-1.0742 4.6016-1.0352 1.293-2.6055 2.0469-4.2617 2.0469z"/>
  <path d="m243.91 187.03c-0.32812-0.003906-0.66016-0.03125-0.98438-0.085938-5.1094-0.92969-11.211-1.9805-12.391-2.1016-3.0234-0.066406-5.418-2.5703-5.3516-5.5898 0.066406-3.0195 2.5703-5.4141 5.5898-5.3477 0.51562 0 1.5859 0 14.098 2.2734 2.7852 0.50391 4.7227 3.0469 4.4766 5.8672-0.25 2.8164-2.6094 4.9766-5.4375 4.9844z"/>
  <path d="m421.09 155.31c-0.48828 0-0.97266-0.066406-1.4453-0.19531-2.9102-0.80078-4.6211-3.8047-3.8281-6.7188l3.2812-12.031c0.34766-1.4375 1.2617-2.6758 2.5352-3.4297 1.2734-0.75391 2.8008-0.95703 4.2305-0.56641 1.4258 0.39062 2.6328 1.3438 3.3477 2.6406 0.71094 1.2969 0.86719 2.8281 0.43359 4.2461l-3.2812 12.031c-0.65234 2.375-2.8086 4.0234-5.2734 4.0234z"/>
  <path d="m448.44 177.19h-10.938c-3.0195 0-5.4688-2.4492-5.4688-5.4688s2.4492-5.4688 5.4688-5.4688h10.938c3.0195 0 5.4688 2.4492 5.4688 5.4688s-2.4492 5.4688-5.4688 5.4688z"/>
  <use x="70" y="576.40625" xlink:href="#t"/>
  <use x="74.011719" y="576.40625" xlink:href="#d"/>
  <use x="76.710938" y="576.40625" xlink:href="#a"/>
  <use x="80.417969" y="576.40625" xlink:href="#j"/>
  <use x="84.109375" y="576.40625" xlink:href="#c"/>
  <use x="86.722656" y="576.40625" xlink:href="#a"/>
  <use x="90.433594" y="576.40625" xlink:href="#i"/>
  <use x="96.25" y="576.40625" xlink:href="#h"/>
  <use x="100.167969" y="576.40625" xlink:href="#g"/>
  <use x="105.636719" y="576.40625" xlink:href="#f"/>
  <use x="107.667969" y="576.40625" xlink:href="#s"/>
  <use x="109.542969" y="576.40625" xlink:href="#e"/>
  <use x="113.4375" y="576.40625" xlink:href="#b"/>
  <use x="70" y="581.875" xlink:href="#r"/>
  <use x="72.378906" y="581.875" xlink:href="#d"/>
  <use x="75.078125" y="581.875" xlink:href="#b"/>
  <use x="78.832031" y="581.875" xlink:href="#q"/>
  <use x="86.4375" y="581.875" xlink:href="#c"/>
  <use x="89.050781" y="581.875" xlink:href="#p"/>
  <use x="92.941406" y="581.875" xlink:href="#a"/>
  <use x="98.554688" y="581.875" xlink:href="#o"/>
  <use x="103.132812" y="581.875" xlink:href="#b"/>
  <use x="106.890625" y="581.875" xlink:href="#n"/>
  <use x="110.785156" y="581.875" xlink:href="#e"/>
  <use x="116.582031" y="581.875" xlink:href="#m"/>
  <use x="120.589844" y="581.875" xlink:href="#d"/>
  <use x="123.285156" y="581.875" xlink:href="#b"/>
  <use x="127.042969" y="581.875" xlink:href="#l"/>
  <use x="128.917969" y="581.875" xlink:href="#a"/>
  <use x="132.625" y="581.875" xlink:href="#k"/>
  <use x="135.867188" y="581.875" xlink:href="#c"/>
 </g>
</svg>
