<?xml version="1.0" encoding="UTF-8"?>
<svg width="700pt" height="700pt" version="1.1" viewBox="0 0 700 700" xmlns="http://www.w3.org/2000/svg" xmlns:xlink="http://www.w3.org/1999/xlink">
 <defs>
  <symbol id="p" overflow="visible">
   <path d="m29.312-1.75c-1.5117 0.78125-3.0898 1.3711-4.7344 1.7656-1.6367 0.40625-3.3398 0.60938-5.1094 0.60938-5.3125 0-9.5273-1.4844-12.641-4.4531-3.1055-2.9688-4.6562-7-4.6562-12.094s1.5508-9.125 4.6562-12.094c3.1133-2.9688 7.3281-4.4531 12.641-4.4531 1.7695 0 3.4727 0.19922 5.1094 0.59375 1.6445 0.39844 3.2227 0.99219 4.7344 1.7812v6.5938c-1.5312-1.0391-3.0391-1.8008-4.5156-2.2812-1.4805-0.48828-3.0391-0.73438-4.6719-0.73438-2.9375 0-5.2461 0.94531-6.9219 2.8281-1.6797 1.875-2.5156 4.4648-2.5156 7.7656 0 3.293 0.83594 5.8828 2.5156 7.7656 1.6758 1.875 3.9844 2.8125 6.9219 2.8125 1.6328 0 3.1914-0.23828 4.6719-0.71875 1.4766-0.48828 2.9844-1.2539 4.5156-2.2969z"/>
  </symbol>
  <symbol id="c" overflow="visible">
   <path d="m21.453-17.406c-0.67969-0.3125-1.3516-0.53906-2.0156-0.6875-0.65625-0.15625-1.3203-0.23438-1.9844-0.23438-1.9688 0-3.4844 0.63281-4.5469 1.8906-1.0547 1.2617-1.5781 3.0703-1.5781 5.4219v11.016h-7.6562v-23.922h7.6562v3.9219c0.97656-1.5625 2.1016-2.7031 3.375-3.4219 1.2812-0.71875 2.8125-1.0781 4.5938-1.0781 0.25 0 0.52344 0.011719 0.82812 0.03125 0.30078 0.023438 0.73438 0.070312 1.2969 0.14062z"/>
  </symbol>
  <symbol id="a" overflow="visible">
   <path d="m27.562-12.031v2.1875h-17.891c0.1875 1.793 0.83203 3.1367 1.9375 4.0312 1.1133 0.89844 2.6719 1.3438 4.6719 1.3438 1.6016 0 3.25-0.23438 4.9375-0.70312 1.6875-0.47656 3.4219-1.2031 5.2031-2.1719v5.8906c-1.8047 0.6875-3.6094 1.2031-5.4219 1.5469-1.8125 0.35156-3.6211 0.53125-5.4219 0.53125-4.3359 0-7.7031-1.0977-10.109-3.2969-2.3984-2.207-3.5938-5.2969-3.5938-9.2656 0-3.9062 1.1758-6.9727 3.5312-9.2031 2.3633-2.2383 5.6094-3.3594 9.7344-3.3594 3.7578 0 6.7695 1.1367 9.0312 3.4062 2.2578 2.2617 3.3906 5.2812 3.3906 9.0625zm-7.8594-2.5312c0-1.457-0.42969-2.6289-1.2812-3.5156-0.84375-0.89453-1.9492-1.3438-3.3125-1.3438-1.4922 0-2.6992 0.41797-3.625 1.25-0.91797 0.83594-1.4922 2.0391-1.7188 3.6094z"/>
  </symbol>
  <symbol id="i" overflow="visible">
   <path d="m14.391-10.766c-1.5938 0-2.793 0.27344-3.5938 0.8125-0.80469 0.54297-1.2031 1.3398-1.2031 2.3906 0 0.96875 0.32031 1.7305 0.96875 2.2812 0.64453 0.54297 1.5469 0.8125 2.7031 0.8125 1.4375 0 2.6445-0.51562 3.625-1.5469 0.98828-1.0312 1.4844-2.3203 1.4844-3.875v-0.875zm11.688-2.8906v13.656h-7.7031v-3.5469c-1.0312 1.4492-2.1875 2.5078-3.4688 3.1719s-2.8398 1-4.6719 1c-2.4805 0-4.4961-0.72266-6.0469-2.1719-1.543-1.4453-2.3125-3.3203-2.3125-5.625 0-2.8125 0.96094-4.8672 2.8906-6.1719 1.9375-1.3125 4.9688-1.9688 9.0938-1.9688h4.5156v-0.60938c0-1.207-0.48047-2.0938-1.4375-2.6562-0.94922-0.5625-2.4375-0.84375-4.4688-0.84375-1.6367 0-3.1562 0.16797-4.5625 0.5-1.4062 0.32422-2.7188 0.8125-3.9375 1.4688v-5.8281c1.6445-0.40625 3.2891-0.70703 4.9375-0.90625 1.6562-0.20703 3.3047-0.3125 4.9531-0.3125 4.3203 0 7.4375 0.85547 9.3438 2.5625 1.9141 1.6992 2.875 4.4609 2.875 8.2812z"/>
  </symbol>
  <symbol id="b" overflow="visible">
   <path d="m12.031-30.719v6.7969h7.875v5.4688h-7.875v10.141c0 1.1172 0.21875 1.8711 0.65625 2.2656 0.4375 0.38672 1.3125 0.57812 2.625 0.57812h3.9375v5.4688h-6.5625c-3.0234 0-5.1641-0.62891-6.4219-1.8906-1.2617-1.2578-1.8906-3.3984-1.8906-6.4219v-10.141h-3.7969v-5.4688h3.7969v-6.7969z"/>
  </symbol>
  <symbol id="h" overflow="visible">
   <path d="m19.953-20.422v-12.812h7.6875v33.234h-7.6875v-3.4531c-1.0547 1.4062-2.2148 2.4375-3.4844 3.0938-1.2734 0.65625-2.7422 0.98438-4.4062 0.98438-2.9492 0-5.3711-1.1719-7.2656-3.5156-1.8867-2.3438-2.8281-5.3594-2.8281-9.0469s0.94141-6.7031 2.8281-9.0469c1.8945-2.3438 4.3164-3.5156 7.2656-3.5156 1.6562 0 3.1172 0.33594 4.3906 1 1.2812 0.65625 2.4453 1.6836 3.5 3.0781zm-5.0469 15.484c1.6445 0 2.8945-0.59766 3.75-1.7969 0.86328-1.1953 1.2969-2.9297 1.2969-5.2031 0-2.2812-0.43359-4.0195-1.2969-5.2188-0.85547-1.1953-2.1055-1.7969-3.75-1.7969-1.625 0-2.8711 0.60156-3.7344 1.7969-0.85547 1.1992-1.2812 2.9375-1.2812 5.2188 0 2.2734 0.42578 4.0078 1.2812 5.2031 0.86328 1.1992 2.1094 1.7969 3.7344 1.7969z"/>
  </symbol>
  <symbol id="g" overflow="visible">
   <path d="m16.406-4.9375c1.6328 0 2.8828-0.59766 3.75-1.7969 0.86328-1.1953 1.2969-2.9297 1.2969-5.2031 0-2.2812-0.43359-4.0195-1.2969-5.2188-0.86719-1.1953-2.1172-1.7969-3.75-1.7969-1.6367 0-2.8906 0.60547-3.7656 1.8125-0.875 1.1992-1.3125 2.9336-1.3125 5.2031 0 2.2617 0.4375 3.9961 1.3125 5.2031 0.875 1.1992 2.1289 1.7969 3.7656 1.7969zm-5.0781-15.484c1.0508-1.3945 2.2188-2.4219 3.5-3.0781 1.2812-0.66406 2.7539-1 4.4219-1 2.9453 0 5.3672 1.1719 7.2656 3.5156 1.8945 2.3438 2.8438 5.3594 2.8438 9.0469s-0.94922 6.7031-2.8438 9.0469c-1.8984 2.3438-4.3203 3.5156-7.2656 3.5156-1.668 0-3.1406-0.33594-4.4219-1s-2.4492-1.6914-3.5-3.0781v3.4531h-7.6562v-33.234h7.6562z"/>
  </symbol>
  <symbol id="f" overflow="visible">
   <path d="m0.53125-23.922h7.6562l6.4219 16.234 5.4688-16.234h7.6562l-10.062 26.188c-1.0117 2.6641-2.1953 4.5234-3.5469 5.5781-1.3438 1.0625-3.1211 1.5938-5.3281 1.5938h-4.4219v-5.0156h2.3906c1.3008 0 2.2422-0.21094 2.8281-0.625 0.59375-0.40625 1.0547-1.1484 1.3906-2.2188l0.20312-0.65625z"/>
  </symbol>
  <symbol id="e" overflow="visible">
   <path d="m4.0156-31.891h8.2188v11.641l11.859-11.641h9.5469l-15.359 15.094 16.938 16.797h-10.281l-12.703-12.562v12.562h-8.2188z"/>
  </symbol>
  <symbol id="d" overflow="visible">
   <path d="m15.062-19.031c-1.6992 0-2.9961 0.60938-3.8906 1.8281-0.88672 1.2188-1.3281 2.9766-1.3281 5.2656 0 2.293 0.44141 4.0469 1.3281 5.2656 0.89453 1.2188 2.1914 1.8281 3.8906 1.8281 1.6641 0 2.9375-0.60938 3.8125-1.8281 0.88281-1.2188 1.3281-2.9727 1.3281-5.2656 0-2.2891-0.44531-4.0469-1.3281-5.2656-0.875-1.2188-2.1484-1.8281-3.8125-1.8281zm0-5.4688c4.1133 0 7.3281 1.1094 9.6406 3.3281s3.4688 5.2969 3.4688 9.2344c0 3.9297-1.1562 7.0078-3.4688 9.2344-2.3125 2.2188-5.5273 3.3281-9.6406 3.3281-4.1367 0-7.3711-1.1094-9.7031-3.3281-2.3242-2.2266-3.4844-5.3047-3.4844-9.2344 0-3.9375 1.1602-7.0156 3.4844-9.2344 2.332-2.2188 5.5664-3.3281 9.7031-3.3281z"/>
  </symbol>
  <symbol id="o" overflow="visible">
   <path d="m25.844-19.953c0.96875-1.4766 2.1172-2.6016 3.4531-3.375 1.332-0.78125 2.7969-1.1719 4.3906-1.1719 2.75 0 4.8438 0.85156 6.2812 2.5469 1.4375 1.6875 2.1562 4.1523 2.1562 7.3906v14.562h-7.6875v-12.469c0.007812-0.1875 0.019531-0.37891 0.03125-0.57812 0.007812-0.19531 0.015625-0.48438 0.015625-0.85938 0-1.6953-0.25-2.9258-0.75-3.6875-0.5-0.75781-1.3086-1.1406-2.4219-1.1406-1.4492 0-2.5703 0.60156-3.3594 1.7969-0.79297 1.1992-1.2031 2.9297-1.2344 5.1875v11.75h-7.6875v-12.469c0-2.6562-0.23047-4.3633-0.6875-5.125-0.44922-0.75781-1.2578-1.1406-2.4219-1.1406-1.4688 0-2.6055 0.60547-3.4062 1.8125-0.79297 1.1992-1.1875 2.918-1.1875 5.1562v11.766h-7.7031v-23.922h7.7031v3.5c0.9375-1.3516 2.0156-2.3672 3.2344-3.0469 1.2188-0.6875 2.5547-1.0312 4.0156-1.0312 1.6562 0 3.1133 0.40234 4.375 1.2031 1.2695 0.79297 2.2344 1.9062 2.8906 3.3438z"/>
  </symbol>
  <symbol id="n" overflow="visible">
   <path d="m3.6719-33.234h7.6562v18.094l8.7969-8.7812h8.8906l-11.688 10.969 12.594 12.953h-9.2656l-9.3281-9.9688v9.9688h-7.6562z"/>
  </symbol>
  <symbol id="m" overflow="visible">
   <path d="m3.6719-23.922h7.6562v23.922h-7.6562zm0-9.3125h7.6562v6.2344h-7.6562z"/>
  </symbol>
  <symbol id="l" overflow="visible">
   <path d="m4.0156-31.891h9.1875l11.594 21.875v-21.875h7.7969v31.891h-9.1875l-11.594-21.875v21.875h-7.7969z"/>
  </symbol>
  <symbol id="k" overflow="visible">
   <path d="m27.734-14.562v14.562h-7.7031v-11.156c0-2.0625-0.046875-3.4844-0.14062-4.2656-0.085937-0.78125-0.24219-1.3594-0.46875-1.7344-0.30469-0.5-0.71094-0.88281-1.2188-1.1562-0.51172-0.28125-1.0938-0.42188-1.75-0.42188-1.5938 0-2.8516 0.61719-3.7656 1.8438-0.90625 1.2305-1.3594 2.9375-1.3594 5.125v11.766h-7.6562v-23.922h7.6562v3.5c1.1445-1.3945 2.3633-2.4219 3.6562-3.0781 1.3008-0.66406 2.7383-1 4.3125-1 2.7578 0 4.8516 0.85156 6.2812 2.5469 1.4375 1.6875 2.1562 4.1523 2.1562 7.3906z"/>
  </symbol>
  <symbol id="j" overflow="visible">
   <path d="m11.328-3.4531v12.547h-7.6562v-33.016h7.6562v3.5c1.0508-1.3945 2.2188-2.4219 3.5-3.0781 1.2812-0.66406 2.7539-1 4.4219-1 2.9453 0 5.3672 1.1719 7.2656 3.5156 1.8945 2.3438 2.8438 5.3594 2.8438 9.0469s-0.94922 6.7031-2.8438 9.0469c-1.8984 2.3438-4.3203 3.5156-7.2656 3.5156-1.668 0-3.1406-0.33594-4.4219-1s-2.4492-1.6914-3.5-3.0781zm5.0781-15.5c-1.6367 0-2.8906 0.60547-3.7656 1.8125-0.875 1.1992-1.3125 2.9336-1.3125 5.2031 0 2.2617 0.4375 3.9961 1.3125 5.2031 0.875 1.1992 2.1289 1.7969 3.7656 1.7969 1.6328 0 2.8828-0.59766 3.75-1.7969 0.86328-1.1953 1.2969-2.9297 1.2969-5.2031 0-2.2812-0.43359-4.0195-1.2969-5.2188-0.86719-1.1953-2.1172-1.7969-3.75-1.7969z"/>
  </symbol>
 </defs>
 <g>
  <path d="m140 122.5h17.5v17.5h-17.5z"/>
  <path d="m175 122.5h17.5v17.5h-17.5z"/>
  <path d="m140 157.5h17.5v17.5h-17.5z"/>
  <path d="m175 157.5h17.5v17.5h-17.5z"/>
  <path d="m140 192.5h17.5v17.5h-17.5z"/>
  <path d="m175 192.5h17.5v17.5h-17.5z"/>
  <path d="m542.5 122.5h17.5v17.5h-17.5z"/>
  <path d="m507.5 122.5h17.5v17.5h-17.5z"/>
  <path d="m542.5 157.5h17.5v17.5h-17.5z"/>
  <path d="m507.5 157.5h17.5v17.5h-17.5z"/>
  <path d="m542.5 192.5h17.5v17.5h-17.5z"/>
  <path d="m507.5 192.5h17.5v17.5h-17.5z"/>
  <path d="m595 297.5h-35v-52.5c-0.015625-4.6367-1.8633-9.082-5.1406-12.359s-7.7227-5.125-12.359-5.1406h-52.5v-107.45l87.5-29.137v189.09h17.5v-189.09c0.023438-5.6484-2.6836-10.961-7.2617-14.266-4.6133-3.2344-10.48-4.1094-15.84-2.3594l-87.586 29.223c-3.4453 1.1836-6.4336 3.4141-8.5547 6.3789-2.1172 2.9648-3.2539 6.5156-3.2578 10.16v56.875l-56.699 14.176c-3.793 0.9375-7.1641 3.1172-9.5742 6.1953-2.4141 3.0742-3.7227 6.8711-3.7266 10.777v89.426c-4.6367 0.015625-9.082 1.8633-12.359 5.1406s-5.125 7.7227-5.1406 12.359v21.523l-13.477 9.0117v0.003906c-4.3555 2.9219-7.1797 7.6406-7.6992 12.859-0.53125 5.2227 1.3359 10.406 5.0742 14.09l5.8633 5.8633-20.301 50.664-4.0234-32.375v-0.003906c-0.63281-5.0664-3.4453-9.6055-7.6992-12.426l-18.023-11.988 6.5625-32.637h-0.003906c0.63281-3.2305 0.34375-6.5781-0.82813-9.6562-1.1758-3.0781-3.1953-5.7656-5.8203-7.7539l-27.125-20.301v-93.801c-0.003906-3.9062-1.3125-7.7031-3.7266-10.777-2.4102-3.0781-5.7812-5.2578-9.5742-6.1953l-56.699-14.176v-56.875c-0.015625-3.6641-1.168-7.2305-3.3008-10.211-2.1328-2.9766-5.1367-5.2188-8.5977-6.4141l-87.5-29.137c-5.3594-1.75-11.227-0.875-15.84 2.3594-4.5781 3.3047-7.2852 8.6172-7.2617 14.266v206.59c-4.6367 0.015625-9.082 1.8633-12.359 5.1406s-5.125 7.7227-5.1406 12.359v218.75c0 2.3203 0.92188 4.5469 2.5625 6.1875s3.8672 2.5625 6.1875 2.5625h507.5c2.3203 0 4.5469-0.92188 6.1875-2.5625s2.5625-3.8672 2.5625-6.1875v-218.75c-0.015625-4.6367-1.8633-9.082-5.1406-12.359s-7.7227-5.125-12.359-5.1406zm-52.5-52.5v52.5h-17.5v-17.5c-0.015625-4.6367-1.8633-9.082-5.1406-12.359s-7.7227-5.125-12.359-5.1406h-17.5c-4.6367 0.015625-9.082 1.8633-12.359 5.1406s-5.125 7.7227-5.1406 12.359v17.5h-17.5v-52.5zm-35 35v17.5h-17.5v-17.5zm-87.5-71.926 52.5-13.125v32.551h-17.5c-4.6367 0.015625-9.082 1.8633-12.359 5.1406s-5.125 7.7227-5.1406 12.359v52.5h-17.5zm-175 36.926v35h17.5v-35c-0.015625-4.6367-1.8633-9.082-5.1406-12.359s-7.7227-5.125-12.359-5.1406h-17.5v-32.551l52.5 13.125v89.426h-52.5v-17.5c-0.015625-4.6367-1.8633-9.082-5.1406-12.359s-7.7227-5.125-12.359-5.1406h-17.5c-4.6367 0.015625-9.082 1.8633-12.359 5.1406s-5.125 7.7227-5.1406 12.359v17.5h-17.5v-52.5zm-35 35v17.5h-17.5v-17.5zm-87.5-189.09 87.5 29.137v107.45h-52.5c-4.6367 0.015625-9.082 1.8633-12.359 5.1406s-5.125 7.7227-5.1406 12.359v52.5h-17.5zm-17.5 224.09h180.86l23.273 17.5h-204.14zm490 17.5h-140v17.5h140v175h-490v-175h206.32l-3.7617 18.812c-0.66797 3.3906-0.32031 6.9023 1.0039 10.094 1.3242 3.1953 3.5625 5.9219 6.4336 7.8438l18.023 12.074 4.1133 32.375c0.66406 5.1602 3.5859 9.7578 7.9805 12.547 4.3906 2.7891 9.7969 3.4805 14.746 1.8828 4.9531-1.5977 8.9375-5.3125 10.875-10.141l20.211-50.664c1.293-3.1641 1.6172-6.6406 0.92969-9.9883-0.68359-3.3516-2.3477-6.4219-4.7773-8.8242l-5.8633-5.8633 13.477-9.0117c0.52344-0.35156 0.875-0.78906 1.3125-1.1367h41.473v-17.5h-35v-17.5h192.5z"/>
  <path d="m350 140c6.9531-0.035156 13.645-2.668 18.762-7.375 5.1172-4.7109 8.293-11.16 8.9062-18.086l5.1172-61.406v-0.003906c0.66797-9.1172-2.4922-18.102-8.7148-24.797-6.2227-6.6953-14.953-10.5-24.098-10.5-9.1406 0-17.871 3.8047-24.094 10.5-6.2266 6.6953-9.3828 15.68-8.7188 24.797l5.1172 61.406 0.003906 0.003906c0.61328 6.9336 3.7969 13.391 8.9258 18.102 5.1289 4.7109 11.828 7.3359 18.793 7.3594zm-11.375-100.03c2.918-3.1641 7.0273-4.9648 11.336-4.9648 4.3047 0 8.4141 1.8047 11.328 4.9727 2.918 3.1641 4.3789 7.4102 4.0234 11.699l-5.1172 61.406v0.003907c-0.41797 5.3203-4.8594 9.4219-10.195 9.4141-5.3281-0.027344-9.7578-4.1094-10.23-9.4141l-5.1172-61.406v-0.003907c-0.38281-4.293 1.0781-8.5508 4.0156-11.707z"/>
  <path d="m350 157.5c-6.9609 0-13.641 2.7656-18.562 7.6875s-7.6875 11.602-7.6875 18.562 2.7656 13.641 7.6875 18.562 11.602 7.6875 18.562 7.6875 13.641-2.7656 18.562-7.6875 7.6875-11.602 7.6875-18.562-2.7656-13.641-7.6875-18.562-11.602-7.6875-18.562-7.6875zm0 35c-3.5391 0-6.7305-2.1328-8.082-5.4023-1.3555-3.2695-0.60938-7.0312 1.8945-9.5352s6.2656-3.25 9.5352-1.8945c3.2695 1.3516 5.4023 4.543 5.4023 8.082 0 2.3203-0.92188 4.5469-2.5625 6.1875s-3.8672 2.5625-6.1875 2.5625z"/>
  <path d="m140 472.5h52.5v17.5h-52.5z"/>
  <path d="m166.25 437.5h52.5v17.5h-52.5z"/>
  <path d="m472.5 402.5h52.5v17.5h-52.5z"/>
  <path d="m446.25 367.5h52.5v17.5h-52.5z"/>
  <path d="m281.24 81.891-3.2383 11.148c-0.87109 3.0195-0.058594 6.2773 2.1367 8.5312l8.1094 8.3477-3.2305 11.164 16.855 4.918 4.6367-16.055c0.87891-3.0234 0.066406-6.2852-2.125-8.543l-8.1094-8.3398 3.2383-11.156-0.003906 0.003906c0.875-3.0273 0.054687-6.2891-2.1445-8.543l-8.0781-8.2773 3.2305-11.121-16.852-4.9688-4.6445 16.031c-0.87891 3.0234-0.066407 6.2891 2.1328 8.5469z"/>
  <path d="m404.7 127.58 11.656-11.988v0.003906c2.1914-2.2539 3.0078-5.5117 2.1328-8.5312l-3.2305-11.164 8.1016-8.3203 0.003906-0.003906c2.1953-2.2578 3.0078-5.5234 2.125-8.5469l-3.2305-11.105 8.0859-8.3047-12.531-12.25-11.641 11.988c-2.2031 2.2578-3.0195 5.5312-2.1367 8.5586l3.2305 11.105-8.0938 8.3125v-0.003907c-2.1953 2.2539-3.0078 5.5117-2.1367 8.5312l3.2305 11.172-8.1094 8.3477z"/>
  <use x="70" y="691.25" xlink:href="#p"/>
  <use x="102.109375" y="691.25" xlink:href="#c"/>
  <use x="123.683594" y="691.25" xlink:href="#a"/>
  <use x="153.355469" y="691.25" xlink:href="#i"/>
  <use x="182.878906" y="691.25" xlink:href="#b"/>
  <use x="203.792969" y="691.25" xlink:href="#a"/>
  <use x="233.464844" y="691.25" xlink:href="#h"/>
  <use x="280.011719" y="691.25" xlink:href="#g"/>
  <use x="311.328125" y="691.25" xlink:href="#f"/>
  <use x="355.078125" y="691.25" xlink:href="#e"/>
  <use x="388.980469" y="691.25" xlink:href="#d"/>
  <use x="419.039062" y="691.25" xlink:href="#o"/>
  <use x="464.625" y="691.25" xlink:href="#n"/>
  <use x="493.722656" y="691.25" xlink:href="#c"/>
  <use x="515.296875" y="691.25" xlink:href="#m"/>
  <use x="530.292969" y="691.25" xlink:href="#b"/>
  <use x="566.4375" y="691.25" xlink:href="#l"/>
  <use x="603.054687" y="691.25" xlink:href="#d"/>
  <use x="633.109375" y="691.25" xlink:href="#a"/>
  <use x="662.78125" y="691.25" xlink:href="#k"/>
  <use x="693.929687" y="691.25" xlink:href="#j"/>
 </g>
</svg>
