<?xml version="1.0" encoding="UTF-8"?>
<svg width="700pt" height="700pt" version="1.1" viewBox="0 0 700 700" xmlns="http://www.w3.org/2000/svg" xmlns:xlink="http://www.w3.org/1999/xlink">
 <defs>
  <symbol id="y" overflow="visible">
   <path d="m4.1719-0.25c-0.21875 0.11719-0.44922 0.19922-0.6875 0.25-0.23047 0.0625-0.46875 0.09375-0.71875 0.09375-0.75 0-1.3516-0.20703-1.7969-0.625-0.4375-0.42578-0.65625-1.0039-0.65625-1.7344 0-0.71875 0.21875-1.2852 0.65625-1.7031 0.44531-0.42578 1.0469-0.64062 1.7969-0.64062 0.25 0 0.48828 0.027344 0.71875 0.078125 0.23828 0.054688 0.46875 0.13672 0.6875 0.25v0.9375c-0.21875-0.14453-0.4375-0.25-0.65625-0.3125-0.21094-0.070312-0.42969-0.10938-0.65625-0.10938-0.41797 0-0.74609 0.13672-0.98438 0.40625-0.24219 0.26172-0.35938 0.625-0.35938 1.0938s0.11719 0.83984 0.35938 1.1094c0.23828 0.26172 0.56641 0.39062 0.98438 0.39062 0.22656 0 0.44531-0.03125 0.65625-0.09375 0.21875-0.070313 0.4375-0.17969 0.65625-0.32812z"/>
  </symbol>
  <symbol id="c" overflow="visible">
   <path d="m3.0469-2.4688c-0.09375-0.050781-0.1875-0.085938-0.28125-0.10938-0.09375-0.019531-0.1875-0.03125-0.28125-0.03125-0.28125 0-0.5 0.09375-0.65625 0.28125-0.14844 0.17969-0.21875 0.43359-0.21875 0.76562v1.5625h-1.0938v-3.4062h1.0938v0.5625c0.13281-0.21875 0.28906-0.37891 0.46875-0.48438 0.1875-0.10156 0.40625-0.15625 0.65625-0.15625 0.039063 0 0.082031 0.007813 0.125 0.015625 0.039063 0 0.10156 0.007812 0.1875 0.015625z"/>
  </symbol>
  <symbol id="a" overflow="visible">
   <path d="m3.9219-1.7031v0.29688h-2.5469c0.03125 0.26172 0.125 0.45312 0.28125 0.57812s0.375 0.1875 0.65625 0.1875c0.22656 0 0.46094-0.03125 0.70312-0.09375 0.23828-0.070313 0.48438-0.17578 0.73438-0.3125v0.84375c-0.25 0.09375-0.50781 0.16797-0.76562 0.21875-0.26172 0.050781-0.51562 0.078125-0.76562 0.078125-0.61719 0-1.0938-0.15625-1.4375-0.46875s-0.51562-0.75391-0.51562-1.3281c0-0.55078 0.16406-0.98438 0.5-1.2969 0.33203-0.32031 0.79688-0.48438 1.3906-0.48438 0.53125 0 0.95703 0.16406 1.2812 0.48438 0.32031 0.32422 0.48438 0.75781 0.48438 1.2969zm-1.125-0.375c0-0.19531-0.0625-0.35938-0.1875-0.48438-0.11719-0.13281-0.27344-0.20312-0.46875-0.20312-0.21094 0-0.38281 0.0625-0.51562 0.1875-0.125 0.11719-0.20312 0.28125-0.23438 0.5z"/>
  </symbol>
  <symbol id="k" overflow="visible">
   <path d="m2.0469-1.5312c-0.23047 0-0.40234 0.042969-0.51562 0.125-0.11719 0.074219-0.17188 0.18359-0.17188 0.32812 0 0.13672 0.046875 0.24609 0.14062 0.32812 0.09375 0.074219 0.22266 0.10938 0.39062 0.10938 0.19531 0 0.36328-0.070313 0.5-0.21875 0.14453-0.14453 0.21875-0.32812 0.21875-0.54688v-0.125zm1.6562-0.40625v1.9375h-1.0938v-0.5c-0.14844 0.21094-0.3125 0.35938-0.5 0.45312-0.17969 0.09375-0.39844 0.14062-0.65625 0.14062-0.35547 0-0.64062-0.10156-0.85938-0.3125-0.21875-0.20703-0.32812-0.47266-0.32812-0.79688 0-0.40625 0.13281-0.69531 0.40625-0.875 0.28125-0.1875 0.71094-0.28125 1.2969-0.28125h0.64062v-0.09375c0-0.16406-0.070313-0.28906-0.20312-0.375-0.13672-0.082031-0.35156-0.125-0.64062-0.125-0.23047 0-0.44531 0.027344-0.64062 0.078125-0.19922 0.042969-0.38672 0.10938-0.5625 0.20312v-0.82812c0.22656-0.050781 0.46094-0.09375 0.70312-0.125 0.23828-0.03125 0.47266-0.046875 0.70312-0.046875 0.61328 0 1.0547 0.125 1.3281 0.375 0.26953 0.24219 0.40625 0.63281 0.40625 1.1719z"/>
  </symbol>
  <symbol id="b" overflow="visible">
   <path d="m1.7031-4.3594v0.95312h1.125v0.78125h-1.125v1.4375c0 0.16797 0.03125 0.27734 0.09375 0.32812 0.0625 0.054687 0.1875 0.078125 0.375 0.078125h0.5625v0.78125h-0.9375c-0.42969 0-0.73047-0.085938-0.90625-0.26562-0.17969-0.17578-0.26562-0.48438-0.26562-0.92188v-1.4375h-0.54688v-0.78125h0.54688v-0.95312z"/>
  </symbol>
  <symbol id="j" overflow="visible">
   <path d="m2.8438-2.9062v-1.8125h1.0781v4.7188h-1.0781v-0.48438c-0.15625 0.19922-0.32422 0.34375-0.5 0.4375-0.17969 0.09375-0.38672 0.14062-0.625 0.14062-0.41797 0-0.76172-0.16406-1.0312-0.5-0.27344-0.33203-0.40625-0.76562-0.40625-1.2969 0-0.51953 0.13281-0.94531 0.40625-1.2812 0.26953-0.33203 0.61328-0.5 1.0312-0.5 0.22656 0 0.42969 0.046875 0.60938 0.14062 0.1875 0.09375 0.35938 0.24219 0.51562 0.4375zm-0.71875 2.2031c0.22656 0 0.40625-0.082031 0.53125-0.25 0.125-0.17578 0.1875-0.42578 0.1875-0.75 0-0.32031-0.0625-0.56641-0.1875-0.73438-0.125-0.16406-0.30469-0.25-0.53125-0.25-0.24219 0-0.42188 0.085938-0.54688 0.25-0.11719 0.16797-0.17188 0.41406-0.17188 0.73438 0 0.32422 0.054688 0.57422 0.17188 0.75 0.125 0.16797 0.30469 0.25 0.54688 0.25z"/>
  </symbol>
  <symbol id="i" overflow="visible">
   <path d="m2.3281-0.70312c0.23828 0 0.41406-0.082031 0.53125-0.25 0.125-0.17578 0.1875-0.42578 0.1875-0.75 0-0.32031-0.0625-0.56641-0.1875-0.73438-0.11719-0.16406-0.29297-0.25-0.53125-0.25-0.23047 0-0.40625 0.085938-0.53125 0.25-0.125 0.16797-0.1875 0.41406-0.1875 0.73438 0 0.32422 0.0625 0.57422 0.1875 0.75 0.125 0.16797 0.30078 0.25 0.53125 0.25zm-0.71875-2.2031c0.14453-0.19531 0.30469-0.34375 0.48438-0.4375 0.1875-0.09375 0.39844-0.14062 0.64062-0.14062 0.41406 0 0.75781 0.16797 1.0312 0.5 0.26953 0.33594 0.40625 0.76172 0.40625 1.2812 0 0.53125-0.13672 0.96484-0.40625 1.2969-0.27344 0.33594-0.61719 0.5-1.0312 0.5-0.24219 0-0.45312-0.046875-0.64062-0.14062-0.17969-0.09375-0.33984-0.23828-0.48438-0.4375v0.48438h-1.0938v-4.7188h1.0938z"/>
  </symbol>
  <symbol id="h" overflow="visible">
   <path d="m0.078125-3.4062h1.0781l0.92188 2.3125 0.78125-2.3125h1.0781l-1.4219 3.7344c-0.14844 0.375-0.32031 0.63281-0.51562 0.78125-0.1875 0.15625-0.4375 0.23438-0.75 0.23438h-0.625v-0.71875h0.34375c0.17578 0 0.30469-0.03125 0.39062-0.09375 0.082031-0.054688 0.14844-0.15625 0.20312-0.3125l0.03125-0.09375z"/>
  </symbol>
  <symbol id="g" overflow="visible">
   <path d="m3.7188-4.3906v0.95312c-0.24219-0.10156-0.48047-0.17969-0.71875-0.23438-0.24219-0.0625-0.46484-0.09375-0.67188-0.09375-0.28125 0-0.49219 0.042969-0.625 0.125-0.13672 0.074219-0.20312 0.1875-0.20312 0.34375 0 0.125 0.046875 0.22656 0.14062 0.29688 0.09375 0.0625 0.25391 0.11719 0.48438 0.15625l0.5 0.10938c0.50781 0.10547 0.86719 0.26172 1.0781 0.46875 0.20703 0.19922 0.3125 0.49219 0.3125 0.875 0 0.5-0.14844 0.875-0.4375 1.125-0.29297 0.24219-0.74609 0.35938-1.3594 0.35938-0.29297 0-0.58594-0.03125-0.875-0.09375-0.28125-0.050781-0.57031-0.12891-0.85938-0.23438v-0.98438c0.28906 0.14844 0.57031 0.26172 0.84375 0.34375 0.26953 0.074219 0.53125 0.10938 0.78125 0.10938s0.44141-0.039063 0.57812-0.125c0.13281-0.082031 0.20312-0.20312 0.20312-0.35938 0-0.14453-0.046875-0.25391-0.14062-0.32812-0.085938-0.070313-0.26562-0.14062-0.54688-0.20312l-0.45312-0.10938c-0.44922-0.09375-0.77734-0.24219-0.98438-0.45312-0.21094-0.21875-0.3125-0.50391-0.3125-0.85938 0-0.45703 0.14453-0.80469 0.4375-1.0469 0.28906-0.23828 0.70703-0.35938 1.25-0.35938 0.25 0 0.50391 0.023437 0.76562 0.0625 0.25781 0.03125 0.53125 0.085937 0.8125 0.15625z"/>
  </symbol>
  <symbol id="x" overflow="visible">
   <path d="m3.3281-0.82812h-1.8281l-0.29688 0.82812h-1.1719l1.6719-4.5312h1.4062l1.6719 4.5312h-1.1719zm-1.5469-0.84375h1.25l-0.625-1.7969z"/>
  </symbol>
  <symbol id="w" overflow="visible">
   <path d="m0.57812-4.5312h1.4844l1.0312 2.4219 1.0312-2.4219h1.4844v4.5312h-1.0938v-3.3125l-1.0469 2.4375h-0.75l-1.0469-2.4375v3.3125h-1.0938z"/>
  </symbol>
  <symbol id="v" overflow="visible">
   <path d="m1.7344-3.6562v2.7656h0.42188c0.47656 0 0.84375-0.11328 1.0938-0.34375 0.25-0.23828 0.375-0.58203 0.375-1.0312 0-0.45703-0.125-0.80078-0.375-1.0312-0.25-0.23828-0.61719-0.35938-1.0938-0.35938zm-1.1562-0.875h1.2188c0.69531 0 1.2109 0.054688 1.5469 0.15625 0.33203 0.09375 0.61719 0.25781 0.85938 0.48438 0.21875 0.21094 0.37891 0.44922 0.48438 0.71875 0.10156 0.26172 0.15625 0.5625 0.15625 0.90625 0 0.33594-0.054688 0.63672-0.15625 0.90625-0.10547 0.27344-0.26562 0.51172-0.48438 0.71875-0.24219 0.23047-0.53125 0.39844-0.875 0.5-0.33594 0.09375-0.84375 0.14062-1.5312 0.14062h-1.2188z"/>
  </symbol>
  <symbol id="f" overflow="visible">
   <path d="m3.1719-3.2969v0.82812c-0.23047-0.09375-0.45312-0.16406-0.67188-0.21875-0.21094-0.050781-0.41406-0.078125-0.60938-0.078125-0.21094 0-0.36719 0.027344-0.46875 0.078125-0.09375 0.054688-0.14062 0.13672-0.14062 0.25 0 0.085938 0.035156 0.15234 0.10938 0.20312 0.082031 0.042969 0.21875 0.074219 0.40625 0.09375l0.20312 0.03125c0.55078 0.074219 0.92188 0.19531 1.1094 0.35938 0.19531 0.15625 0.29688 0.40625 0.29688 0.75 0 0.36719-0.13672 0.64062-0.40625 0.82812-0.26172 0.17578-0.65625 0.26562-1.1875 0.26562-0.23047 0-0.46484-0.023438-0.70312-0.0625-0.24219-0.03125-0.48438-0.082031-0.73438-0.15625v-0.82812c0.21875 0.10547 0.4375 0.18359 0.65625 0.23438 0.22656 0.054688 0.46094 0.078125 0.70312 0.078125 0.20703 0 0.36328-0.023437 0.46875-0.078125 0.11328-0.0625 0.17188-0.14844 0.17188-0.26562 0-0.09375-0.039062-0.16016-0.10938-0.20312-0.074219-0.050781-0.21875-0.09375-0.4375-0.125l-0.20312-0.03125c-0.48047-0.050781-0.82031-0.16016-1.0156-0.32812-0.1875-0.16406-0.28125-0.41406-0.28125-0.75 0-0.35156 0.11719-0.61719 0.35938-0.79688 0.25-0.17578 0.62891-0.26562 1.1406-0.26562 0.19531 0 0.40625 0.015625 0.625 0.046875 0.22656 0.03125 0.46875 0.078125 0.71875 0.14062z"/>
  </symbol>
  <symbol id="u" overflow="visible">
   <path d="m0.51562-3.4062h1.0938v3.4062h-1.0938zm0-1.3125h1.0938v0.875h-1.0938z"/>
  </symbol>
  <symbol id="t" overflow="visible">
   <path d="m2.8438-0.57812c-0.15625 0.19922-0.32422 0.34375-0.5 0.4375-0.17969 0.09375-0.38672 0.14062-0.625 0.14062-0.41797 0-0.76172-0.16016-1.0312-0.48438-0.27344-0.33203-0.40625-0.75-0.40625-1.25 0-0.50781 0.13281-0.92578 0.40625-1.25 0.26953-0.33203 0.61328-0.5 1.0312-0.5 0.23828 0 0.44531 0.046875 0.625 0.14062 0.17578 0.09375 0.34375 0.24609 0.5 0.45312v-0.51562h1.0781v3.0625c0 0.55078-0.17188 0.96875-0.51562 1.25-0.34375 0.28906-0.84375 0.4375-1.5 0.4375-0.21094 0-0.41406-0.015625-0.60938-0.046875-0.19922-0.03125-0.39844-0.085937-0.59375-0.15625v-0.84375c0.1875 0.11328 0.36719 0.19531 0.54688 0.25 0.1875 0.050781 0.36719 0.078125 0.54688 0.078125 0.36328 0 0.62891-0.078125 0.79688-0.23438 0.16406-0.15625 0.25-0.39844 0.25-0.73438zm-0.71875-2.1094c-0.23047 0-0.40625 0.085938-0.53125 0.25-0.125 0.15625-0.1875 0.39062-0.1875 0.70312s0.054688 0.54688 0.17188 0.70312c0.125 0.15625 0.30469 0.23438 0.54688 0.23438 0.21875 0 0.39062-0.078125 0.51562-0.23438 0.13281-0.16406 0.20312-0.39844 0.20312-0.70312 0-0.3125-0.070312-0.54688-0.20312-0.70312-0.125-0.16406-0.29688-0.25-0.51562-0.25z"/>
  </symbol>
  <symbol id="e" overflow="visible">
   <path d="m3.9375-2.0781v2.0781h-1.0938v-1.5781c0-0.30078-0.007812-0.50391-0.015625-0.60938-0.011719-0.11328-0.03125-0.19531-0.0625-0.25-0.042969-0.070312-0.10156-0.125-0.17188-0.15625-0.074219-0.039062-0.15625-0.0625-0.25-0.0625-0.23047 0-0.41406 0.089844-0.54688 0.26562-0.125 0.16797-0.1875 0.40625-0.1875 0.71875v1.6719h-1.0938v-3.4062h1.0938v0.5c0.16406-0.19531 0.33594-0.34375 0.51562-0.4375 0.1875-0.09375 0.39062-0.14062 0.60938-0.14062 0.39453 0 0.69141 0.12109 0.89062 0.35938 0.20703 0.24219 0.3125 0.58984 0.3125 1.0469z"/>
  </symbol>
  <symbol id="s" overflow="visible">
   <path d="m2.7656-4.7188v0.70312h-0.60938c-0.15625 0-0.26562 0.03125-0.32812 0.09375-0.054687 0.054687-0.078125 0.14844-0.078125 0.28125v0.23438h0.92188v0.78125h-0.92188v2.625h-1.0938v-2.625h-0.53125v-0.78125h0.53125v-0.23438c0-0.36328 0.10156-0.63281 0.3125-0.8125 0.20703-0.17578 0.52344-0.26562 0.95312-0.26562z"/>
  </symbol>
  <symbol id="d" overflow="visible">
   <path d="m2.1406-2.7031c-0.24219 0-0.42188 0.089844-0.54688 0.26562-0.125 0.16797-0.1875 0.41406-0.1875 0.73438 0 0.33594 0.0625 0.58984 0.1875 0.76562 0.125 0.16797 0.30469 0.25 0.54688 0.25 0.23828 0 0.42188-0.082031 0.54688-0.25 0.125-0.17578 0.1875-0.42969 0.1875-0.76562 0-0.32031-0.0625-0.56641-0.1875-0.73438-0.125-0.17578-0.30859-0.26562-0.54688-0.26562zm0-0.78125c0.58203 0 1.0352 0.16406 1.3594 0.48438 0.33203 0.3125 0.5 0.74609 0.5 1.2969 0 0.5625-0.16797 1.0078-0.5 1.3281-0.32422 0.3125-0.77734 0.46875-1.3594 0.46875-0.58594 0-1.043-0.15625-1.375-0.46875-0.33594-0.32031-0.5-0.76562-0.5-1.3281 0-0.55078 0.16406-0.98438 0.5-1.2969 0.33203-0.32031 0.78906-0.48438 1.375-0.48438z"/>
  </symbol>
  <symbol id="r" overflow="visible">
   <path d="m3.6719-2.8438c0.13281-0.20703 0.29688-0.36328 0.48438-0.46875 0.19531-0.11328 0.40625-0.17188 0.625-0.17188 0.39453 0 0.69141 0.12109 0.89062 0.35938 0.20703 0.24219 0.3125 0.58984 0.3125 1.0469v2.0781h-1.0938v-1.7656-0.078125c0.007813-0.03125 0.015625-0.078125 0.015625-0.14062 0-0.23828-0.039062-0.41016-0.10938-0.51562-0.074219-0.10156-0.1875-0.15625-0.34375-0.15625-0.21094 0-0.37109 0.085938-0.48438 0.25-0.10547 0.16797-0.16406 0.41406-0.17188 0.73438v1.6719h-1.0938v-1.7656c0-0.38281-0.03125-0.62891-0.09375-0.73438-0.0625-0.10156-0.17969-0.15625-0.34375-0.15625-0.21094 0-0.37109 0.085938-0.48438 0.25-0.11719 0.16797-0.17188 0.41406-0.17188 0.73438v1.6719h-1.0938v-3.4062h1.0938v0.5c0.13281-0.1875 0.28516-0.32812 0.45312-0.42188 0.17578-0.10156 0.36719-0.15625 0.57812-0.15625 0.23828 0 0.44531 0.058594 0.625 0.17188 0.17578 0.11719 0.3125 0.27344 0.40625 0.46875z"/>
  </symbol>
  <symbol id="q" overflow="visible">
   <path d="m3.9375-2.0781v2.0781h-1.0938v-1.5781c0-0.30078-0.007812-0.50391-0.015625-0.60938-0.011719-0.11328-0.03125-0.19531-0.0625-0.25-0.042969-0.070312-0.10156-0.125-0.17188-0.15625-0.074219-0.039062-0.15625-0.0625-0.25-0.0625-0.23047 0-0.41406 0.089844-0.54688 0.26562-0.125 0.16797-0.1875 0.40625-0.1875 0.71875v1.6719h-1.0938v-4.7188h1.0938v1.8125c0.16406-0.19531 0.33594-0.34375 0.51562-0.4375 0.1875-0.09375 0.39062-0.14062 0.60938-0.14062 0.39453 0 0.69141 0.12109 0.89062 0.35938 0.20703 0.24219 0.3125 0.58984 0.3125 1.0469z"/>
  </symbol>
  <symbol id="p" overflow="visible">
   <path d="m0.57812-4.5312h1.2969l1.6562 3.1094v-3.1094h1.1094v4.5312h-1.3125l-1.6562-3.1094v3.1094h-1.0938z"/>
  </symbol>
  <symbol id="o" overflow="visible">
   <path d="m0.48438-1.3281v-2.0781h1.0938v0.34375 0.70312 0.54688c0 0.27344 0.003906 0.46875 0.015625 0.59375 0.007812 0.125 0.035156 0.21484 0.078125 0.26562 0.039063 0.074219 0.097656 0.13281 0.17188 0.17188 0.070312 0.03125 0.15625 0.046875 0.25 0.046875 0.21875 0 0.39062-0.082031 0.51562-0.25 0.13281-0.17578 0.20312-0.42188 0.20312-0.73438v-1.6875h1.0938v3.4062h-1.0938v-0.48438c-0.15625 0.19922-0.32812 0.34375-0.51562 0.4375s-0.39062 0.14062-0.60938 0.14062c-0.38672 0-0.68359-0.11719-0.89062-0.35938-0.21094-0.25-0.3125-0.60156-0.3125-1.0625z"/>
  </symbol>
  <symbol id="n" overflow="visible">
   <path d="m0.57812-4.5312h1.9375c0.57031 0 1.0078 0.13281 1.3125 0.39062 0.3125 0.25 0.46875 0.60938 0.46875 1.0781 0 0.48047-0.15625 0.85156-0.46875 1.1094-0.30469 0.25-0.74219 0.375-1.3125 0.375h-0.78125v1.5781h-1.1562zm1.1562 0.84375v1.2656h0.65625c0.22656 0 0.39844-0.050781 0.51562-0.15625 0.125-0.11328 0.1875-0.27344 0.1875-0.48438 0-0.19531-0.0625-0.34766-0.1875-0.45312-0.11719-0.11328-0.28906-0.17188-0.51562-0.17188z"/>
  </symbol>
  <symbol id="m" overflow="visible">
   <path d="m0.51562-3.4062h1.0938v3.3438c0 0.45703-0.10938 0.80469-0.32812 1.0469-0.21875 0.23828-0.53906 0.35938-0.95312 0.35938h-0.53125v-0.71875h0.1875c0.20703 0 0.34766-0.046875 0.42188-0.14062 0.070312-0.09375 0.10938-0.27734 0.10938-0.54688zm0-1.3125h1.0938v0.875h-1.0938z"/>
  </symbol>
  <symbol id="l" overflow="visible">
   <path d="m3.2656-3.2969v0.89062c-0.14844-0.10156-0.29297-0.17578-0.4375-0.21875-0.14844-0.050781-0.30469-0.078125-0.46875-0.078125-0.30469 0-0.53906 0.089844-0.70312 0.26562-0.16797 0.17969-0.25 0.42188-0.25 0.73438 0 0.32422 0.082031 0.57422 0.25 0.75 0.16406 0.17969 0.39844 0.26562 0.70312 0.26562 0.17578 0 0.33594-0.023438 0.48438-0.078125 0.15625-0.050781 0.29688-0.125 0.42188-0.21875v0.89062c-0.16797 0.0625-0.33984 0.10938-0.51562 0.14062-0.17969 0.03125-0.35547 0.046875-0.53125 0.046875-0.60547 0-1.0859-0.15625-1.4375-0.46875-0.34375-0.32031-0.51562-0.76562-0.51562-1.3281 0-0.55078 0.17188-0.98438 0.51562-1.2969 0.35156-0.32031 0.83203-0.48438 1.4375-0.48438 0.1875 0 0.36328 0.015625 0.53125 0.046875 0.17578 0.03125 0.34766 0.078125 0.51562 0.14062z"/>
  </symbol>
 </defs>
 <g>
  <path d="m571.26 388.64c-3.4844 0-6.2227-2.7383-6.2227-6.2227v-108.52c0-2.2383 1.2461-4.2305 3.1094-5.3516 1.8672-1.1211 4.3555-1.1211 6.2227 0l27.875 16.055 8.2148-14.188-106.52-71.805-106.52 71.805 8.2148 14.188 27.875-16.055c1.8672-1.1211 4.3555-1.1211 6.2227 0 1.8672 1.1211 3.1094 3.1094 3.1094 5.3516v108.52c0 3.4844-2.7383 6.2227-6.2227 6.2227s-6.2227-2.7383-6.2227-6.2227v-97.688l-23.895 13.812c-1.3672 0.87109-3.1094 0.99609-4.7305 0.62109-1.6172-0.375-2.9883-1.4922-3.7344-2.8633l-14.188-24.641c-1.6172-2.8633-0.74609-6.4727 1.8672-8.2148l114.86-77.406c2.1172-1.3672 4.8516-1.3672 6.9688 0l114.86 77.406c2.7383 1.8672 3.6094 5.4766 1.8672 8.2148l-14.309 24.52c-0.87109 1.3672-2.2383 2.4883-3.7344 2.8633-1.4922 0.375-3.2344 0.25-4.7305-0.62109l-23.895-13.812v97.688c-0.12109 3.4805-2.8594 6.3438-6.3438 6.3438z"/>
  <path d="m529.45 388.64c-3.4844 0-6.2227-2.7383-6.2227-6.2227v-58.863h-38.578v58.738c0 3.4844-2.7383 6.2227-6.2227 6.2227s-6.2227-2.7383-6.2227-6.2227v-64.961c0-3.4844 2.7383-6.2227 6.2227-6.2227h51.023c3.4844 0 6.2227 2.7383 6.2227 6.2227v64.961c0 3.4844-2.7383 6.3477-6.2227 6.3477z"/>
  <path d="m503.94 281c-14.934 0-27.004-12.07-27.004-27.004 0-14.934 12.07-27.004 27.004-27.004s27.004 12.07 27.004 27.004c0 14.934-12.07 27.004-27.004 27.004zm0-41.566c-8.0898 0-14.559 6.5938-14.559 14.559 0 7.9648 6.5938 14.559 14.559 14.559s14.559-6.5938 14.559-14.559c0-8.0859-6.4688-14.559-14.559-14.559z"/>
  <path d="m598.89 494.42h-199.61c-3.4844 0-6.2227-2.7383-6.2227-6.2227v-105.78c0-3.4844 2.7383-6.2227 6.2227-6.2227h199.61c3.4844 0 6.2227 2.7383 6.2227 6.2227v105.78c-0.003906 3.3594-2.7383 6.2227-6.2227 6.2227zm-193.39-12.445h187.16v-93.332h-187.16z"/>
  <path d="m522.61 435.06c-0.74609 0-1.3672-0.125-2.1172-0.375l-39.574-14.188c-1.8672-0.62109-3.3594-2.2383-3.8594-4.2305-0.49609-1.9922 0-4.1055 1.2461-5.6016l27.504-32.23c2.2383-2.6133 6.2227-2.9883 8.7109-0.74609 2.6133 2.2383 2.9883 6.2227 0.74609 8.7109l-21.652 25.387 28.871 10.328 27.004-11.324 10.578-30.613c1.1211-3.2344 4.7305-4.9766 7.9648-3.8594 3.2344 1.1211 4.9766 4.7305 3.8594 7.9648l-11.449 33.227c-0.62109 1.7422-1.8672 2.9883-3.4844 3.7344l-31.859 13.316c-0.87109 0.375-1.6172 0.5-2.4883 0.5z"/>
  <path d="m449.18 463.06c-2.2383 0-4.3555-1.2461-5.4766-3.3594l-14.559-28c-1.6172-2.9883-0.49609-6.7188 2.4883-8.3359l22.898-12.695-7.7148-26.008c-0.99609-3.2344 0.87109-6.7188 4.2305-7.7148 3.3594-0.99609 6.7188 0.87109 7.7148 4.2305l9.0859 30.863c0.87109 2.7383-0.375 5.7227-2.9883 7.2188l-22.027 12.195 11.82 22.648c1.6172 3.1094 0.375 6.8438-2.6133 8.3359-0.99219 0.37109-1.8633 0.62109-2.8594 0.62109z"/>
  <path d="m476.68 459.32c-3.3594 0-6.0977-2.7383-6.2227-6.0977-0.125-3.4844 2.6133-6.2227 6.0977-6.3477l36.09-0.87109 3.9805-18.418c0.74609-3.3594 3.9805-5.4766 7.3438-4.7305 3.3594 0.74609 5.4766 3.9805 4.7305 7.3438l-4.9766 23.27c-0.62109 2.8633-3.1094 4.8516-5.9727 4.9766l-40.941 0.99609c-0.003906-0.12109-0.003906-0.12109-0.12891-0.12109z"/>
  <path d="m584.08 461.19c-1.6172 0-3.1094-0.62109-4.3555-1.7422l-21.406-20.906c-0.62109-0.49609-0.99609-1.2461-1.3672-1.8672l-8.2148-18.543c-1.3672-3.1094 0-6.8438 3.1094-8.2148 3.1094-1.3672 6.8438 0 8.2148 3.1094l7.7148 17.422 20.535 20.035c2.4883 2.3633 2.4883 6.3477 0.125 8.8359-1.1172 1.25-2.7344 1.8711-4.3555 1.8711z"/>
  <path d="m344.52 249.39c-1.7422 0-3.4844-0.74609-4.6055-2.1172-1.9922-2.2383-2.1172-5.6016-0.25-7.9648l38.949-50.648-25.512-14.809c-1.8672-1.1211-3.1094-3.1094-3.1094-5.3516 0-2.2383 1.1211-4.2305 2.9883-5.3516l84-51.52c2.4883-1.6172 5.8477-1.1211 7.8398 1.1211 1.9922 2.2383 2.2383 5.4766 0.49609 7.8398l-35.094 48.41 26.008 15.059c1.8672 1.1211 3.1094 3.1094 3.1094 5.3516 0 2.2383-1.1211 4.2305-2.9883 5.3516l-88.355 53.637c-1.2344 0.74219-2.3555 0.99219-3.4766 0.99219zm23.645-80.891 22.648 13.066c1.6172 0.87109 2.6133 2.3633 2.9883 4.2305 0.375 1.8672-0.125 3.6094-1.1211 4.9766l-23.023 29.867 51.023-30.988-22.898-13.191c-1.4922-0.87109-2.6133-2.3633-2.9883-4.1055-0.375-1.7422 0-3.4844 0.99609-4.9766l20.781-28.746z"/>
  <path d="m131.35 301.9c-4.2305 0-8.5859-1.6172-11.82-4.8516l-1.6172-1.6172c-3.1094-3.1094-4.8516-7.3438-4.8516-11.82 0-4.4805 1.7422-8.7109 4.8516-11.82l76.285-76.285c2.1172-2.1172 4.8516-3.6094 7.7148-4.3555 2.8633-0.87109 5.9727-0.87109 8.8359-0.125l104.16 27.875c8.9609 2.3633 14.188 11.574 11.82 20.535l-0.62109 2.1172c-1.1211 4.3555-3.9805 7.9648-7.8398 10.203-3.8594 2.2383-8.3359 2.8633-12.691 1.7422l-93.957-25.137-68.691 68.691c-2.8672 3.2305-7.2227 4.8477-11.578 4.8477zm75.289-99.059c-0.375 0-0.74609 0.125-1.2461 0.125-0.125 0-0.25 0.125-0.375 0.125-0.74609 0.125-1.4922 0.49609-1.9922 1.1211l-76.285 76.285c-0.87109 0.74609-1.2461 1.8672-1.2461 2.9883 0 1.1211 0.49609 2.2383 1.2461 2.9883l1.6172 1.6172c1.6172 1.6172 4.4805 1.6172 6.0977 0l71.309-71.309c1.6172-1.6172 3.8594-2.2383 5.9727-1.6172l97.441 26.133c1.1211 0.25 2.2383 0.125 3.2344-0.49609 0.99609-0.62109 1.7422-1.4922 1.9922-2.6133l0.62109-2.1172c0.62109-2.2383-0.74609-4.7305-2.9883-5.2266l-104.16-27.875c-0.49219-0.003906-0.86719-0.12891-1.2383-0.12891z"/>
  <path d="m179.39 412.66c-2.7383 0-5.2266-1.8672-5.9727-4.6055l-32.605-121.83c-0.87109-3.3594 1.1211-6.7188 4.3555-7.5898 3.3594-0.87109 6.7188 1.1211 7.5898 4.3555l32.605 121.83c0.87109 3.3594-1.1211 6.7188-4.3555 7.5898-0.49609 0.24609-1.1211 0.24609-1.6172 0.24609zm45.797-12.195c-2.7383 0-5.2266-1.8672-5.9727-4.6055-0.87109-3.3594 1.1211-6.7188 4.3555-7.5898l98.188-26.258-30.988-115.86c-0.87109-3.3594 1.1211-6.7188 4.3555-7.5898 3.3594-0.87109 6.7188 1.1211 7.5898 4.3555l32.605 121.83c0.87109 3.3594-1.1211 6.7188-4.3555 7.5898l-104.16 27.879c-0.5 0.12109-1.1211 0.24609-1.6172 0.24609z"/>
  <path d="m232.15 398.59c-2.7383 0-5.2266-1.8672-5.9727-4.6055l-16.301-60.977c-0.87109-3.3594 1.1211-6.7188 4.3555-7.5898l44.426-11.945c1.6172-0.375 3.2344-0.25 4.7305 0.62109 1.3672 0.87109 2.4883 2.2383 2.8633 3.7344l16.301 60.977c0.87109 3.3594-1.1211 6.7188-4.3555 7.5898-3.2344 0.87109-6.7188-1.1211-7.5898-4.3555l-14.684-54.879-32.48 8.7109 14.684 54.879c0.87109 3.3594-1.1211 6.7188-4.3555 7.5898-0.50391 0.12891-1.125 0.25-1.6211 0.25z"/>
  <path d="m225.31 303.52c-4.3555 0-8.7109-1.1211-12.57-3.3594-5.8477-3.3594-10.078-8.8359-11.82-15.309-1.7422-6.4727-0.87109-13.316 2.4883-19.164s8.8359-10.078 15.309-11.82c6.4727-1.7422 13.316-0.87109 19.164 2.4883s10.078 8.8359 11.82 15.309c3.6094 13.441-4.4805 27.379-17.922 30.988-1.9922 0.49609-4.2305 0.86719-6.4688 0.86719zm0.12109-38.203c-1.1211 0-2.2383 0.125-3.3594 0.49609-3.3594 0.87109-6.0977 2.9883-7.8398 5.9727-1.7422 2.9883-2.2383 6.4727-1.2461 9.707 0.87109 3.3594 2.9883 6.0977 5.9727 7.8398 2.9883 1.7422 6.4727 2.2383 9.707 1.2461 6.8438-1.8672 10.949-8.8359 9.0859-15.68-0.87109-3.3594-2.9883-6.0977-5.9727-7.8398-1.9922-1.1211-4.1055-1.7422-6.3477-1.7422z"/>
  <path d="m375.88 412.66c-7.8398 0-14.188-5.6016-20.41-10.949-4.2305-3.7344-9.207-7.9648-12.32-7.9648-3.1094 0-7.9648 4.2305-12.32 7.9648-6.2227 5.3516-12.691 10.949-20.41 10.949-7.7148 0-14.188-5.6016-20.41-10.949-4.2305-3.7344-9.207-7.9648-12.32-7.9648-3.1094 0-7.9648 4.2305-12.32 7.9648-6.2227 5.3516-12.691 10.949-20.41 10.949-7.7148 0-14.188-5.6016-20.41-10.949-4.2305-3.7344-9.207-7.9648-12.32-7.9648-3.1094 0-7.9648 4.2305-12.32 7.9648-6.2227 5.3516-12.691 10.949-20.41 10.949-7.7148 0-14.188-5.6016-20.41-10.949-4.2305-3.7344-9.207-7.9648-12.32-7.9648-3.1094 0-7.9648 4.2305-12.32 7.9648-6.2227 5.3516-12.691 10.949-20.41 10.949-7.7148 0-14.188-5.6016-20.41-10.949-4.3555-3.7344-9.207-7.9648-12.32-7.9648-3.4844 0-6.2227-2.7383-6.2227-6.2227s2.7383-6.2227 6.2227-6.2227c7.8398 0 14.188 5.6016 20.41 10.949 4.3555 3.7344 9.207 7.9648 12.32 7.9648 3.1094 0 7.9648-4.2305 12.32-7.9648 6.2227-5.3516 12.691-10.949 20.41-10.949 7.7148 0 14.188 5.6016 20.41 10.949 4.2305 3.7344 9.207 7.9648 12.32 7.9648 3.1094 0 7.9648-4.2305 12.32-7.9648 6.2227-5.3516 12.691-10.949 20.41-10.949 7.7148 0 14.188 5.6016 20.41 10.949 4.2305 3.7344 9.207 7.9648 12.32 7.9648 3.1094 0 7.9648-4.2305 12.32-7.9648 6.2227-5.3516 12.691-10.949 20.41-10.949 7.7148 0 14.188 5.6016 20.41 10.949 4.2305 3.7344 9.207 7.9648 12.32 7.9648 3.1094 0 7.9648-4.2305 12.32-7.9648 6.2227-5.3516 12.691-10.949 20.41-10.949 7.7148 0 14.188 5.6016 20.41 10.949 4.3555 3.7344 9.207 7.9648 12.32 7.9648 3.4844 0 6.2227 2.7383 6.2227 6.2227 0 3.4883-2.8594 6.2227-6.2227 6.2227z"/>
  <path d="m375.88 445.01c-7.8398 0-14.188-5.6016-20.41-10.949-4.2305-3.7344-9.207-7.9648-12.32-7.9648-3.1094 0-7.9648 4.2305-12.32 7.9648-6.2227 5.3516-12.691 10.949-20.41 10.949-7.7148 0-14.188-5.6016-20.41-10.949-4.2305-3.7344-9.207-7.9648-12.32-7.9648-3.1094 0-7.9648 4.2305-12.32 7.9648-6.2227 5.3516-12.691 10.949-20.41 10.949-7.7148 0-14.188-5.6016-20.41-10.949-4.2305-3.7344-9.207-7.9648-12.32-7.9648-3.1094 0-7.9648 4.2305-12.32 7.9648-6.2227 5.3516-12.691 10.949-20.41 10.949-7.7148 0-14.188-5.6016-20.41-10.949-4.2305-3.7344-9.207-7.9648-12.32-7.9648-3.1094 0-7.9648 4.2305-12.32 7.9648-6.2227 5.3516-12.691 10.949-20.41 10.949-7.7148 0-14.188-5.6016-20.41-10.949-4.3555-3.7344-9.207-7.9648-12.32-7.9648-3.4844 0-6.2227-2.7383-6.2227-6.2227s2.7383-6.2227 6.2227-6.2227c7.8398 0 14.188 5.6016 20.41 10.949 4.3555 3.7344 9.207 7.9648 12.32 7.9648 3.1094 0 7.9648-4.2305 12.32-7.9648 6.2227-5.3516 12.691-10.949 20.41-10.949 7.7148 0 14.188 5.6016 20.41 10.949 4.2305 3.7344 9.207 7.9648 12.32 7.9648 3.1094 0 7.9648-4.2305 12.32-7.9648 6.2227-5.3516 12.691-10.949 20.41-10.949 7.7148 0 14.188 5.6016 20.41 10.949 4.2305 3.7344 9.207 7.9648 12.32 7.9648 3.1094 0 7.9648-4.2305 12.32-7.9648 6.2227-5.3516 12.691-10.949 20.41-10.949 7.7148 0 14.188 5.6016 20.41 10.949 4.2305 3.7344 9.207 7.9648 12.32 7.9648 3.1094 0 7.9648-4.2305 12.32-7.9648 6.2227-5.3516 12.691-10.949 20.41-10.949 7.7148 0 14.188 5.6016 20.41 10.949 4.3555 3.7344 9.207 7.9648 12.32 7.9648 3.4844 0 6.2227 2.7383 6.2227 6.2227 0 3.4883-2.8594 6.2227-6.2227 6.2227z"/>
  <path d="m375.88 477.37c-7.8398 0-14.188-5.6016-20.41-10.949-4.2305-3.7344-9.207-7.9648-12.32-7.9648-3.1094 0-7.9648 4.2305-12.32 7.9648-6.2227 5.3516-12.691 10.949-20.41 10.949-7.7148 0-14.188-5.6016-20.41-10.949-4.2305-3.7344-9.207-7.9648-12.32-7.9648-3.1094 0-7.9648 4.2305-12.32 7.9648-6.2227 5.3516-12.691 10.949-20.41 10.949-7.7148 0-14.188-5.6016-20.41-10.949-4.2305-3.7344-9.207-7.9648-12.32-7.9648-3.1094 0-7.9648 4.2305-12.32 7.9648-6.2227 5.3516-12.691 10.949-20.41 10.949-7.7148 0-14.188-5.6016-20.41-10.949-4.2305-3.7344-9.207-7.9648-12.32-7.9648-3.1094 0-7.9648 4.2305-12.32 7.9648-6.2227 5.3516-12.691 10.949-20.41 10.949-7.7148 0-14.188-5.6016-20.41-10.949-4.3555-3.7344-9.207-7.9648-12.32-7.9648-3.4844 0-6.2227-2.7383-6.2227-6.2227s2.7383-6.2227 6.2227-6.2227c7.8398 0 14.188 5.6016 20.41 10.949 4.3555 3.7344 9.207 7.9648 12.32 7.9648 3.1094 0 7.9648-4.2305 12.32-7.9648 6.2227-5.3516 12.691-10.949 20.41-10.949 7.7148 0 14.188 5.6016 20.41 10.949 4.2305 3.7344 9.207 7.9648 12.32 7.9648 3.1094 0 7.9648-4.2305 12.32-7.9648 6.2227-5.3516 12.691-10.949 20.41-10.949 7.7148 0 14.188 5.6016 20.41 10.949 4.2305 3.7344 9.207 7.9648 12.32 7.9648 3.1094 0 7.9648-4.2305 12.32-7.9648 6.2227-5.3516 12.691-10.949 20.41-10.949 7.7148 0 14.188 5.6016 20.41 10.949 4.2305 3.7344 9.207 7.9648 12.32 7.9648 3.1094 0 7.9648-4.2305 12.32-7.9648 6.2227-5.3516 12.691-10.949 20.41-10.949 7.7148 0 14.188 5.6016 20.41 10.949 4.3555 3.7344 9.207 7.9648 12.32 7.9648 3.4844 0 6.2227 2.7383 6.2227 6.2227 0 3.4883-2.8594 6.2227-6.2227 6.2227z"/>
  <path d="m125.25 195.5c-14.934 0-27.004-12.195-27.004-27.004v-1.3672c-9.332-4.3555-15.43-13.812-15.43-24.516 0-14.934 12.07-27.004 27.004-27.004 0.87109 0 1.8672 0 2.7383 0.125 4.2305-9.582 13.812-15.93 24.641-15.93 6.5938 0 12.816 2.3633 17.797 6.5938 4.6055-3.2344 10.078-5.1016 15.805-5.1016 8.3359 0 15.93 3.7344 20.906 9.957 2.4883-0.74609 4.9766-1.1211 7.5898-1.1211 14.934 0 27.004 12.195 27.004 27.004 0 11.574-7.3438 21.652-17.797 25.387v0.74609c0 14.934-12.195 27.004-27.004 27.004-9.457 0-18.293-5.1016-23.148-12.941-2.6133 0.74609-5.3516 1.1211-8.0898 0.99609-3.9805 10.203-13.812 17.172-25.012 17.172zm-15.434-67.449c-8.0898 0-14.559 6.5938-14.559 14.559 0 6.8438 4.6055 12.691 11.324 14.188 1.6172 0.375 3.1094 1.3672 3.9805 2.8633 0.87109 1.4922 1.1211 3.2344 0.62109 4.8516-0.375 1.2461-0.49609 2.6133-0.49609 3.8594 0 8.0898 6.5938 14.559 14.559 14.559 7.0938 0 13.316-5.3516 14.438-12.32 0.25-1.7422 1.2461-3.2344 2.7383-4.2305 1.4922-0.99609 3.2344-1.2461 4.9766-0.87109 3.7344 0.99609 7.7148 0.375 11.074-1.4922 1.6172-0.99609 3.6094-1.1211 5.4766-0.375 1.8672 0.74609 3.1094 2.1172 3.7344 3.9805 1.8672 6.0977 7.5898 10.328 13.938 10.328 8.0898 0 14.559-6.5938 14.559-14.559 0-1.3672-0.125-2.6133-0.49609-3.8594-0.49609-1.7422-0.125-3.6094 0.87109-5.1016 0.99609-1.4922 2.6133-2.4883 4.4805-2.7383 7.3438-0.87109 12.941-7.0938 12.941-14.559 0-8.0898-6.5938-14.559-14.559-14.559-2.4883 0-4.8516 0.62109-6.9688 1.7422-1.4922 0.87109-3.2344 0.99609-4.8516 0.49609-1.6172-0.49609-2.9883-1.6172-3.7344-3.1094-2.4883-4.9766-7.4648-7.9648-13.066-7.9648-4.4805 0-8.5859 1.9922-11.324 5.4766-1.2461 1.4922-3.1094 2.3633-5.1016 2.2383s-3.8594-1.1211-4.8516-2.7383c-2.7383-4.1055-7.2188-6.4727-12.195-6.4727-7.0938 0-13.066 4.9766-14.312 11.945-0.375 1.7422-1.4922 3.3594-2.9883 4.2305-1.4922 0.87109-3.4844 1.1211-5.2266 0.49609-1.6172-0.61719-3.2383-0.86328-4.9805-0.86328z"/>
  <path d="m502.2 161.41c-14.934 0-27.004-12.195-27.004-27.004v-1.3672c-9.332-4.3555-15.43-13.812-15.43-24.516 0-14.934 12.195-27.004 27.004-27.004 0.87109 0 1.8672 0 2.7383 0.125 4.2305-9.582 13.812-15.93 24.641-15.93 6.5938 0 12.941 2.3633 17.797 6.5938 4.6055-3.2344 10.078-5.1016 15.805-5.1016 8.2148 0 15.93 3.7344 21.031 9.957 2.4883-0.74609 4.9766-1.1211 7.5898-1.1211 14.934 0 27.004 12.195 27.004 27.004 0 11.574-7.3438 21.652-17.797 25.387v0.87109c0 14.934-12.195 27.004-27.004 27.004-9.457 0-18.293-5.1016-23.023-12.941-2.6133 0.74609-5.3516 1.1211-8.0898 0.99609-4.2305 10.078-14.188 17.047-25.262 17.047zm-15.43-67.574c-8.0898 0-14.559 6.5938-14.559 14.559 0 6.8438 4.6055 12.691 11.324 14.188 1.6172 0.375 3.1094 1.3672 3.9805 2.8633 0.87109 1.4922 1.1211 3.2344 0.62109 4.8516-0.375 1.2461-0.49609 2.6133-0.49609 3.8594 0 8.0898 6.5938 14.559 14.559 14.559 7.0938 0 13.316-5.3516 14.438-12.32 0.25-1.7422 1.2461-3.2344 2.7383-4.2305 1.4922-0.99609 3.2344-1.2461 4.9766-0.87109 3.7344 0.99609 7.7148 0.375 11.074-1.4922 1.6172-0.99609 3.6094-1.1211 5.4766-0.375 1.7422 0.74609 3.1094 2.1172 3.7344 3.9805 1.8672 6.0977 7.5898 10.328 13.938 10.328 8.0898 0 14.559-6.5938 14.559-14.559 0-1.3672-0.125-2.6133-0.49609-3.8594-0.49609-1.7422-0.125-3.6094 0.87109-5.1016 0.99609-1.4922 2.6133-2.4883 4.4805-2.7383 7.3438-0.87109 12.941-7.0938 12.941-14.559 0-8.0898-6.5938-14.559-14.559-14.559-2.4883 0-4.8516 0.62109-6.9688 1.7422-1.4922 0.87109-3.2344 0.99609-4.8516 0.49609-1.6172-0.49609-2.9883-1.6172-3.7344-3.1094-2.4883-4.9766-7.4648-7.9648-13.066-7.9648-4.4805 0-8.5859 1.9922-11.324 5.4766-1.2461 1.4922-3.1094 2.3633-5.1016 2.2383-1.9922-0.125-3.7344-1.1211-4.8516-2.7383-2.7383-4.1055-7.2188-6.4727-12.195-6.4727-6.9688 0-13.066 4.9766-14.312 11.945-0.375 1.7422-1.3672 3.3594-2.9883 4.2305-1.6172 0.87109-3.4844 1.1211-5.2266 0.49609-1.7461-0.49219-3.3633-0.86328-4.9805-0.86328z"/>
  <use x="70" y="578.667969" xlink:href="#y"/>
  <use x="74.566406" y="578.667969" xlink:href="#c"/>
  <use x="77.636719" y="578.667969" xlink:href="#a"/>
  <use x="81.855469" y="578.667969" xlink:href="#k"/>
  <use x="86.054688" y="578.667969" xlink:href="#b"/>
  <use x="89.027344" y="578.667969" xlink:href="#a"/>
  <use x="93.25" y="578.667969" xlink:href="#j"/>
  <use x="99.867188" y="578.667969" xlink:href="#i"/>
  <use x="104.324219" y="578.667969" xlink:href="#h"/>
  <use x="110.542969" y="578.667969" xlink:href="#g"/>
  <use x="115.027344" y="578.667969" xlink:href="#x"/>
  <use x="119.839844" y="578.667969" xlink:href="#w"/>
  <use x="128.199219" y="578.667969" xlink:href="#v"/>
  <use x="133.363281" y="578.667969" xlink:href="#a"/>
  <use x="137.585938" y="578.667969" xlink:href="#f"/>
  <use x="141.289062" y="578.667969" xlink:href="#u"/>
  <use x="143.421875" y="578.667969" xlink:href="#t"/>
  <use x="147.875" y="578.667969" xlink:href="#e"/>
  <use x="152.304688" y="578.667969" xlink:href="#f"/>
  <use x="70" y="584.890625" xlink:href="#s"/>
  <use x="72.707031" y="584.890625" xlink:href="#c"/>
  <use x="75.777344" y="584.890625" xlink:href="#d"/>
  <use x="80.050781" y="584.890625" xlink:href="#r"/>
  <use x="88.699219" y="584.890625" xlink:href="#b"/>
  <use x="91.675781" y="584.890625" xlink:href="#q"/>
  <use x="96.105469" y="584.890625" xlink:href="#a"/>
  <use x="102.492188" y="584.890625" xlink:href="#p"/>
  <use x="107.699219" y="584.890625" xlink:href="#d"/>
  <use x="111.972656" y="584.890625" xlink:href="#o"/>
  <use x="116.402344" y="584.890625" xlink:href="#e"/>
  <use x="123" y="584.890625" xlink:href="#n"/>
  <use x="127.558594" y="584.890625" xlink:href="#c"/>
  <use x="130.628906" y="584.890625" xlink:href="#d"/>
  <use x="134.902344" y="584.890625" xlink:href="#m"/>
  <use x="137.035156" y="584.890625" xlink:href="#a"/>
  <use x="141.253906" y="584.890625" xlink:href="#l"/>
  <use x="144.941406" y="584.890625" xlink:href="#b"/>
 </g>
</svg>
