<?xml version="1.0" encoding="UTF-8"?>
<svg width="700pt" height="700pt" version="1.1" viewBox="0 0 700 700" xmlns="http://www.w3.org/2000/svg" xmlns:xlink="http://www.w3.org/1999/xlink">
 <defs>
  <symbol id="o" overflow="visible">
   <path d="m29.312-1.75c-1.5117 0.78125-3.0898 1.3711-4.7344 1.7656-1.6367 0.40625-3.3398 0.60938-5.1094 0.60938-5.3125 0-9.5273-1.4844-12.641-4.4531-3.1055-2.9688-4.6562-7-4.6562-12.094s1.5508-9.125 4.6562-12.094c3.1133-2.9688 7.3281-4.4531 12.641-4.4531 1.7695 0 3.4727 0.19922 5.1094 0.59375 1.6445 0.39844 3.2227 0.99219 4.7344 1.7812v6.5938c-1.5312-1.0391-3.0391-1.8008-4.5156-2.2812-1.4805-0.48828-3.0391-0.73438-4.6719-0.73438-2.9375 0-5.2461 0.94531-6.9219 2.8281-1.6797 1.875-2.5156 4.4648-2.5156 7.7656 0 3.293 0.83594 5.8828 2.5156 7.7656 1.6758 1.875 3.9844 2.8125 6.9219 2.8125 1.6328 0 3.1914-0.23828 4.6719-0.71875 1.4766-0.48828 2.9844-1.2539 4.5156-2.2969z"/>
  </symbol>
  <symbol id="j" overflow="visible">
   <path d="m21.453-17.406c-0.67969-0.3125-1.3516-0.53906-2.0156-0.6875-0.65625-0.15625-1.3203-0.23438-1.9844-0.23438-1.9688 0-3.4844 0.63281-4.5469 1.8906-1.0547 1.2617-1.5781 3.0703-1.5781 5.4219v11.016h-7.6562v-23.922h7.6562v3.9219c0.97656-1.5625 2.1016-2.7031 3.375-3.4219 1.2812-0.71875 2.8125-1.0781 4.5938-1.0781 0.25 0 0.52344 0.011719 0.82812 0.03125 0.30078 0.023438 0.73438 0.070312 1.2969 0.14062z"/>
  </symbol>
  <symbol id="d" overflow="visible">
   <path d="m27.562-12.031v2.1875h-17.891c0.1875 1.793 0.83203 3.1367 1.9375 4.0312 1.1133 0.89844 2.6719 1.3438 4.6719 1.3438 1.6016 0 3.25-0.23438 4.9375-0.70312 1.6875-0.47656 3.4219-1.2031 5.2031-2.1719v5.8906c-1.8047 0.6875-3.6094 1.2031-5.4219 1.5469-1.8125 0.35156-3.6211 0.53125-5.4219 0.53125-4.3359 0-7.7031-1.0977-10.109-3.2969-2.3984-2.207-3.5938-5.2969-3.5938-9.2656 0-3.9062 1.1758-6.9727 3.5312-9.2031 2.3633-2.2383 5.6094-3.3594 9.7344-3.3594 3.7578 0 6.7695 1.1367 9.0312 3.4062 2.2578 2.2617 3.3906 5.2812 3.3906 9.0625zm-7.8594-2.5312c0-1.457-0.42969-2.6289-1.2812-3.5156-0.84375-0.89453-1.9492-1.3438-3.3125-1.3438-1.4922 0-2.6992 0.41797-3.625 1.25-0.91797 0.83594-1.4922 2.0391-1.7188 3.6094z"/>
  </symbol>
  <symbol id="c" overflow="visible">
   <path d="m14.391-10.766c-1.5938 0-2.793 0.27344-3.5938 0.8125-0.80469 0.54297-1.2031 1.3398-1.2031 2.3906 0 0.96875 0.32031 1.7305 0.96875 2.2812 0.64453 0.54297 1.5469 0.8125 2.7031 0.8125 1.4375 0 2.6445-0.51562 3.625-1.5469 0.98828-1.0312 1.4844-2.3203 1.4844-3.875v-0.875zm11.688-2.8906v13.656h-7.7031v-3.5469c-1.0312 1.4492-2.1875 2.5078-3.4688 3.1719s-2.8398 1-4.6719 1c-2.4805 0-4.4961-0.72266-6.0469-2.1719-1.543-1.4453-2.3125-3.3203-2.3125-5.625 0-2.8125 0.96094-4.8672 2.8906-6.1719 1.9375-1.3125 4.9688-1.9688 9.0938-1.9688h4.5156v-0.60938c0-1.207-0.48047-2.0938-1.4375-2.6562-0.94922-0.5625-2.4375-0.84375-4.4688-0.84375-1.6367 0-3.1562 0.16797-4.5625 0.5-1.4062 0.32422-2.7188 0.8125-3.9375 1.4688v-5.8281c1.6445-0.40625 3.2891-0.70703 4.9375-0.90625 1.6562-0.20703 3.3047-0.3125 4.9531-0.3125 4.3203 0 7.4375 0.85547 9.3438 2.5625 1.9141 1.6992 2.875 4.4609 2.875 8.2812z"/>
  </symbol>
  <symbol id="i" overflow="visible">
   <path d="m12.031-30.719v6.7969h7.875v5.4688h-7.875v10.141c0 1.1172 0.21875 1.8711 0.65625 2.2656 0.4375 0.38672 1.3125 0.57812 2.625 0.57812h3.9375v5.4688h-6.5625c-3.0234 0-5.1641-0.62891-6.4219-1.8906-1.2617-1.2578-1.8906-3.3984-1.8906-6.4219v-10.141h-3.7969v-5.4688h3.7969v-6.7969z"/>
  </symbol>
  <symbol id="b" overflow="visible">
   <path d="m19.953-20.422v-12.812h7.6875v33.234h-7.6875v-3.4531c-1.0547 1.4062-2.2148 2.4375-3.4844 3.0938-1.2734 0.65625-2.7422 0.98438-4.4062 0.98438-2.9492 0-5.3711-1.1719-7.2656-3.5156-1.8867-2.3438-2.8281-5.3594-2.8281-9.0469s0.94141-6.7031 2.8281-9.0469c1.8945-2.3438 4.3164-3.5156 7.2656-3.5156 1.6562 0 3.1172 0.33594 4.3906 1 1.2812 0.65625 2.4453 1.6836 3.5 3.0781zm-5.0469 15.484c1.6445 0 2.8945-0.59766 3.75-1.7969 0.86328-1.1953 1.2969-2.9297 1.2969-5.2031 0-2.2812-0.43359-4.0195-1.2969-5.2188-0.85547-1.1953-2.1055-1.7969-3.75-1.7969-1.625 0-2.8711 0.60156-3.7344 1.7969-0.85547 1.1992-1.2812 2.9375-1.2812 5.2188 0 2.2734 0.42578 4.0078 1.2812 5.2031 0.86328 1.1992 2.1094 1.7969 3.7344 1.7969z"/>
  </symbol>
  <symbol id="a" overflow="visible">
   <path d="m16.406-4.9375c1.6328 0 2.8828-0.59766 3.75-1.7969 0.86328-1.1953 1.2969-2.9297 1.2969-5.2031 0-2.2812-0.43359-4.0195-1.2969-5.2188-0.86719-1.1953-2.1172-1.7969-3.75-1.7969-1.6367 0-2.8906 0.60547-3.7656 1.8125-0.875 1.1992-1.3125 2.9336-1.3125 5.2031 0 2.2617 0.4375 3.9961 1.3125 5.2031 0.875 1.1992 2.1289 1.7969 3.7656 1.7969zm-5.0781-15.484c1.0508-1.3945 2.2188-2.4219 3.5-3.0781 1.2812-0.66406 2.7539-1 4.4219-1 2.9453 0 5.3672 1.1719 7.2656 3.5156 1.8945 2.3438 2.8438 5.3594 2.8438 9.0469s-0.94922 6.7031-2.8438 9.0469c-1.8984 2.3438-4.3203 3.5156-7.2656 3.5156-1.668 0-3.1406-0.33594-4.4219-1s-2.4492-1.6914-3.5-3.0781v3.4531h-7.6562v-33.234h7.6562z"/>
  </symbol>
  <symbol id="h" overflow="visible">
   <path d="m0.53125-23.922h7.6562l6.4219 16.234 5.4688-16.234h7.6562l-10.062 26.188c-1.0117 2.6641-2.1953 4.5234-3.5469 5.5781-1.3438 1.0625-3.1211 1.5938-5.3281 1.5938h-4.4219v-5.0156h2.3906c1.3008 0 2.2422-0.21094 2.8281-0.625 0.59375-0.40625 1.0547-1.1484 1.3906-2.2188l0.20312-0.65625z"/>
  </symbol>
  <symbol id="g" overflow="visible">
   <path d="m23.375-5.8125h-12.859l-2.0312 5.8125h-8.2656l11.812-31.891h9.7969l11.812 31.891h-8.2656zm-10.812-5.9219h8.7344l-4.3594-12.688z"/>
  </symbol>
  <symbol id="f" overflow="visible">
   <path d="m3.4219-9.3125v-14.609h7.6875v2.3906c0 1.293-0.011719 2.918-0.03125 4.875-0.011719 1.9609-0.015625 3.2656-0.015625 3.9219 0 1.9297 0.046875 3.3125 0.14062 4.1562 0.10156 0.84375 0.28125 1.4609 0.53125 1.8438 0.3125 0.5 0.71875 0.88672 1.2188 1.1562 0.50781 0.27344 1.0938 0.40625 1.75 0.40625 1.5938 0 2.8438-0.60938 3.75-1.8281 0.91406-1.2266 1.375-2.9297 1.375-5.1094v-11.812h7.6406v23.922h-7.6406v-3.4531c-1.1562 1.3867-2.3828 2.4141-3.6719 3.0781-1.2812 0.66406-2.6992 1-4.25 1-2.7734 0-4.8828-0.84766-6.3281-2.5469-1.4375-1.6953-2.1562-4.1602-2.1562-7.3906z"/>
  </symbol>
  <symbol id="e" overflow="visible">
   <path d="m3.6719-33.234h7.6562v33.234h-7.6562z"/>
  </symbol>
  <symbol id="n" overflow="visible">
   <path d="m15.062-19.031c-1.6992 0-2.9961 0.60938-3.8906 1.8281-0.88672 1.2188-1.3281 2.9766-1.3281 5.2656 0 2.293 0.44141 4.0469 1.3281 5.2656 0.89453 1.2188 2.1914 1.8281 3.8906 1.8281 1.6641 0 2.9375-0.60938 3.8125-1.8281 0.88281-1.2188 1.3281-2.9727 1.3281-5.2656 0-2.2891-0.44531-4.0469-1.3281-5.2656-0.875-1.2188-2.1484-1.8281-3.8125-1.8281zm0-5.4688c4.1133 0 7.3281 1.1094 9.6406 3.3281s3.4688 5.2969 3.4688 9.2344c0 3.9297-1.1562 7.0078-3.4688 9.2344-2.3125 2.2188-5.5273 3.3281-9.6406 3.3281-4.1367 0-7.3711-1.1094-9.7031-3.3281-2.3242-2.2266-3.4844-5.3047-3.4844-9.2344 0-3.9375 1.1602-7.0156 3.4844-9.2344 2.332-2.2188 5.5664-3.3281 9.7031-3.3281z"/>
  </symbol>
  <symbol id="m" overflow="visible">
   <path d="m27.734-14.562v14.562h-7.7031v-11.109c0-2.0938-0.046875-3.5312-0.14062-4.3125-0.085937-0.78125-0.24219-1.3594-0.46875-1.7344-0.30469-0.5-0.71094-0.88281-1.2188-1.1562-0.51172-0.28125-1.0938-0.42188-1.75-0.42188-1.5938 0-2.8516 0.61719-3.7656 1.8438-0.90625 1.2305-1.3594 2.9375-1.3594 5.125v11.766h-7.6562v-33.234h7.6562v12.812c1.1445-1.3945 2.3633-2.4219 3.6562-3.0781 1.3008-0.66406 2.7383-1 4.3125-1 2.7578 0 4.8516 0.85156 6.2812 2.5469 1.4375 1.6875 2.1562 4.1523 2.1562 7.3906z"/>
  </symbol>
  <symbol id="l" overflow="visible">
   <path d="m4.0156-31.891h22.203v6.2188h-13.984v5.9375h13.141v6.2188h-13.141v13.516h-8.2188z"/>
  </symbol>
  <symbol id="k" overflow="visible">
   <path d="m2.5-23.922h20.875v5.3438l-12.609 13.109h12.609v5.4688h-21.406v-5.3438l12.594-13.109h-12.062z"/>
  </symbol>
 </defs>
 <g>
  <path d="m357.88 324.2 69.492 108.58c0.58594 0.91797 0.99609 1.9336 1.2148 3l8.75 43.75c0.50781 2.5742-0.15625 5.2344-1.8203 7.2617-1.6641 2.0312-4.1406 3.2031-6.7656 3.2031h-280c-4.8281 0-8.75-3.9219-8.75-8.75v-402.5c0-4.8281 3.9219-8.75 8.75-8.75h70c4.0781 0 7.6133 2.8086 8.5234 6.7812l25.094 108.72 56.289 16.082c2.6758 0.76953 4.8281 2.7656 5.8008 5.3828l43.418 117.24zm-121.41-129.8-24.676-106.9h-54.285v385h260.57l-6.3359-31.668-69.109-107.99c-0.33984-0.52344-0.62109-1.0938-0.83984-1.6797l-42.211-113.97-42.973-12.277 23.195 108.25c1.0078 4.7266-2.0039 9.3789-6.7188 10.395-4.7266 1.0078-9.3789-2.0039-10.395-6.7188l-26.234-122.44z" fill-rule="evenodd"/>
  <path d="m411.74 440.83-69.109-107.99c-0.33984-0.52344-0.62109-1.0938-0.83984-1.6797l-27.547-74.375c-1.3125-3.543-0.20313-7.5234 2.7578-9.8789 2.957-2.3555 7.0859-2.5469 10.246-0.47266l80.047 52.5c0.80469 0.52344 1.5234 1.1797 2.1094 1.9414l60.445 77.707 86.414 60.496c2.3438 1.6367 3.7344 4.3125 3.7344 7.168v35c0 4.8281-3.9219 8.75-8.75 8.75h-122.5c-4.1719 0-7.7617-2.9414-8.582-7.0352l-8.4258-42.133zm-15.25-128.07-56.594-37.117 17.98 48.555 69.492 108.58c0.58594 0.91797 0.99609 1.9336 1.2148 3l7.3398 36.715h106.57v-21.691l-83.766-58.641c-0.71875-0.5-1.3555-1.1016-1.8906-1.793l-60.359-77.605z" fill-rule="evenodd"/>
  <path d="m272.6 365.21-39.594-15.848c-4.4883-1.7852-6.668-6.8867-4.875-11.367 1.7852-4.4883 6.8867-6.668 11.367-4.875l43.75 17.5c2.6172 1.043 4.5586 3.2734 5.2422 5.9922l8.75 35c1.1719 4.6914-1.6797 9.4414-6.3594 10.613-4.6914 1.1719-9.4414-1.6797-10.613-6.3594l-7.6641-30.66z" fill-rule="evenodd"/>
  <path d="m183.92 159.21 8.75 43.75c0.95312 4.7344 5.5664 7.8125 10.297 6.8672 4.7344-0.95312 7.8125-5.5664 6.8672-10.297l-8.75-43.75c-0.95312-4.7344-5.5664-7.8125-10.297-6.8672-4.7344 0.95312-7.8125 5.5664-6.8672 10.297z" fill-rule="evenodd"/>
  <path d="m422.77 429.2-52.5-17.5c-4.5781-1.5234-9.5391 0.95313-11.07 5.5391-1.5234 4.5781 0.95313 9.5391 5.5391 11.07l52.5 17.5c4.5781 1.5234 9.5391-0.95313 11.07-5.5391 1.5234-4.5781-0.95313-9.5391-5.5391-11.07z" fill-rule="evenodd"/>
  <path d="m468.09 377.41-61.25-35c-4.1914-2.3984-9.5391-0.9375-11.934 3.2539-2.3984 4.1914-0.9375 9.5391 3.2539 11.934l61.25 35c4.1914 2.3984 9.5391 0.9375 11.934-3.2539 2.3984-4.1914 0.9375-9.5391-3.2539-11.934z" fill-rule="evenodd"/>
  <path d="m331.27 183.84c-3.7891 0.54297-6.7812 3.4727-7.4023 7.2461l-10.047 61.25c-0.55859 3.4297 0.95312 6.8594 3.8672 8.75l53.797 35c3.0781 2.0039 7.0781 1.8711 10.02-0.33203l35-26.25c2.2031-1.6523 3.5-4.2422 3.5-7v-43.75c0-1.3555-0.31641-2.6953-0.92578-3.9102l-17.5-35c-1.6797-3.3672-5.3281-5.2852-9.0547-4.75l-61.25 8.75zm8.8281 16.414-8.0859 49.281 43.883 28.551 26.609-19.957v-37.309l-13.754-27.512-48.648 6.9492z" fill-rule="evenodd"/>
  <path d="m288.93 96.25 0.42969 0.015625 0.38281 0.03125 0.050781 0.007813 0.12109 0.015624 0.24609 0.035157 0.42969 0.078125 0.42187 0.10547 0.42188 0.12109 0.085937 0.027344 26.25 8.75c3.5781 1.1914 5.9844 4.543 5.9844 8.3047v35c0 4.8281-3.9219 8.75-8.75 8.75h-26.25c-3.7617 0-7.1133-2.4062-8.3047-5.9844l-8.75-26.25c-0.73437-2.1953-0.55859-4.6016 0.48047-6.6758l8.75-17.5 0.035157-0.085937 0.21094-0.38672 0.19141-0.30469 0.035157-0.0625 0.24609-0.35938 0.26172-0.33984 0.12109-0.14844 0.11328-0.14844 0.29688-0.31641 0.035156-0.042969c0.79688-0.80469 1.7227-1.4453 2.7383-1.8906l0.375-0.15625c1.0312-0.40234 2.1445-0.61328 3.2734-0.59375h0.0625zm0.52344 26.922 5.6094 16.828h11.191v-19.941l-13.062-4.3594-3.7344 7.4727z" fill-rule="evenodd"/>
  <path d="m472.5 323.75c-4.2773 0-7.9258 3.0898-8.6289 7.3164l-8.75 52.5c-0.42969 2.5391 0.28906 5.1289 1.9531 7.0859 1.6641 1.9688 4.1055 3.0977 6.6758 3.0977h43.75c1.7227 0 3.4141-0.50781 4.8555-1.4688l26.25-17.5c3.668-2.4492 4.9453-7.2461 2.9648-11.191l-17.5-35c-1.4805-2.9648-4.5078-4.8398-7.8242-4.8398h-43.75zm7.4102 17.5-5.8359 35h30.773l17.621-11.742-11.629-23.258z" fill-rule="evenodd"/>
  <use x="70" y="691.25" xlink:href="#o"/>
  <use x="102.109375" y="691.25" xlink:href="#j"/>
  <use x="123.683594" y="691.25" xlink:href="#d"/>
  <use x="153.355469" y="691.25" xlink:href="#c"/>
  <use x="182.878906" y="691.25" xlink:href="#i"/>
  <use x="203.792969" y="691.25" xlink:href="#d"/>
  <use x="233.464844" y="691.25" xlink:href="#b"/>
  <use x="280.011719" y="691.25" xlink:href="#a"/>
  <use x="311.328125" y="691.25" xlink:href="#h"/>
  <use x="355.078125" y="691.25" xlink:href="#g"/>
  <use x="388.9375" y="691.25" xlink:href="#a"/>
  <use x="420.257812" y="691.25" xlink:href="#b"/>
  <use x="451.574219" y="691.25" xlink:href="#f"/>
  <use x="482.71875" y="691.25" xlink:href="#e"/>
  <use x="497.714844" y="691.25" xlink:href="#e"/>
  <use x="512.710938" y="691.25" xlink:href="#n"/>
  <use x="542.769531" y="691.25" xlink:href="#m"/>
  <use x="589.148438" y="691.25" xlink:href="#l"/>
  <use x="619.03125" y="691.25" xlink:href="#c"/>
  <use x="648.554688" y="691.25" xlink:href="#f"/>
  <use x="679.703125" y="691.25" xlink:href="#k"/>
 </g>
</svg>
