<?xml version="1.0" encoding="UTF-8"?>
<svg width="700pt" height="700pt" version="1.1" viewBox="0 0 700 700" xmlns="http://www.w3.org/2000/svg" xmlns:xlink="http://www.w3.org/1999/xlink">
 <defs>
  <symbol id="u" overflow="visible">
   <path d="m18.766-1.125c-0.96875 0.5-1.9805 0.875-3.0312 1.125-1.043 0.25781-2.1367 0.39062-3.2812 0.39062-3.3984 0-6.0898-0.94531-8.0781-2.8438-1.9922-1.9062-2.9844-4.4844-2.9844-7.7344 0-3.2578 0.99219-5.8359 2.9844-7.7344 1.9883-1.9062 4.6797-2.8594 8.0781-2.8594 1.1445 0 2.2383 0.13281 3.2812 0.39062 1.0508 0.25 2.0625 0.625 3.0312 1.125v4.2188c-0.98047-0.65625-1.9453-1.1406-2.8906-1.4531-0.94922-0.3125-1.9492-0.46875-3-0.46875-1.875 0-3.3516 0.60547-4.4219 1.8125-1.0742 1.1992-1.6094 2.8555-1.6094 4.9688 0 2.1055 0.53516 3.7617 1.6094 4.9688 1.0703 1.1992 2.5469 1.7969 4.4219 1.7969 1.0508 0 2.0508-0.14844 3-0.45312 0.94531-0.3125 1.9102-0.80078 2.8906-1.4688z"/>
  </symbol>
  <symbol id="a" overflow="visible">
   <path d="m13.734-11.141c-0.4375-0.19531-0.87109-0.34375-1.2969-0.4375-0.41797-0.10156-0.83984-0.15625-1.2656-0.15625-1.2617 0-2.2305 0.40625-2.9062 1.2188-0.67969 0.80469-1.0156 1.9531-1.0156 3.4531v7.0625h-4.8906v-15.312h4.8906v2.5156c0.625-1 1.3438-1.7266 2.1562-2.1875 0.82031-0.46875 1.8008-0.70312 2.9375-0.70312 0.16406 0 0.34375 0.011719 0.53125 0.03125 0.19531 0.011719 0.47656 0.039062 0.84375 0.078125z"/>
  </symbol>
  <symbol id="b" overflow="visible">
   <path d="m17.641-7.7031v1.4062h-11.453c0.125 1.1484 0.53906 2.0078 1.25 2.5781 0.70703 0.57422 1.7031 0.85938 2.9844 0.85938 1.0312 0 2.082-0.14844 3.1562-0.45312 1.082-0.3125 2.1914-0.77344 3.3281-1.3906v3.7656c-1.1562 0.4375-2.3125 0.76562-3.4688 0.98438-1.1562 0.22656-2.3125 0.34375-3.4688 0.34375-2.7734 0-4.9297-0.70312-6.4688-2.1094-1.5312-1.4062-2.2969-3.3789-2.2969-5.9219 0-2.5 0.75391-4.4609 2.2656-5.8906 1.5078-1.4375 3.582-2.1562 6.2188-2.1562 2.4062 0 4.332 0.73047 5.7812 2.1875 1.4453 1.4492 2.1719 3.3828 2.1719 5.7969zm-5.0312-1.625c0-0.92578-0.27344-1.6719-0.8125-2.2344-0.54297-0.57031-1.25-0.85938-2.125-0.85938-0.94922 0-1.7188 0.26562-2.3125 0.79688s-0.96484 1.2969-1.1094 2.2969z"/>
  </symbol>
  <symbol id="e" overflow="visible">
   <path d="m9.2188-6.8906c-1.0234 0-1.793 0.17188-2.3125 0.51562-0.51172 0.34375-0.76562 0.85547-0.76562 1.5312 0 0.625 0.20703 1.1172 0.625 1.4688 0.41406 0.34375 0.98828 0.51562 1.7188 0.51562 0.92578 0 1.7031-0.32812 2.3281-0.98438 0.63281-0.66406 0.95312-1.4922 0.95312-2.4844v-0.5625zm7.4688-1.8438v8.7344h-4.9219v-2.2656c-0.65625 0.92969-1.3984 1.6055-2.2188 2.0312-0.82422 0.41406-1.8242 0.625-3 0.625-1.5859 0-2.8711-0.45703-3.8594-1.375-0.99219-0.92578-1.4844-2.1289-1.4844-3.6094 0-1.7891 0.61328-3.1016 1.8438-3.9375 1.2383-0.84375 3.1797-1.2656 5.8281-1.2656h2.8906v-0.39062c0-0.76953-0.30859-1.332-0.92188-1.6875-0.61719-0.36328-1.5703-0.54688-2.8594-0.54688-1.0547 0-2.0312 0.10547-2.9375 0.3125-0.89844 0.21094-1.7305 0.52344-2.5 0.9375v-3.7344c1.0391-0.25 2.0859-0.44141 3.1406-0.57812 1.0625-0.13281 2.125-0.20312 3.1875-0.20312 2.7578 0 4.75 0.54688 5.9688 1.6406 1.2266 1.0859 1.8438 2.8555 1.8438 5.3125z"/>
  </symbol>
  <symbol id="d" overflow="visible">
   <path d="m7.7031-19.656v4.3438h5.0469v3.5h-5.0469v6.5c0 0.71094 0.14062 1.1875 0.42188 1.4375s0.83594 0.375 1.6719 0.375h2.5156v3.5h-4.1875c-1.9375 0-3.3125-0.39844-4.125-1.2031-0.80469-0.8125-1.2031-2.1797-1.2031-4.1094v-6.5h-2.4219v-3.5h2.4219v-4.3438z"/>
  </symbol>
  <symbol id="j" overflow="visible">
   <path d="m12.766-13.078v-8.2031h4.9219v21.281h-4.9219v-2.2188c-0.66797 0.90625-1.4062 1.5703-2.2188 1.9844s-1.7578 0.625-2.8281 0.625c-1.8867 0-3.4336-0.75-4.6406-2.25-1.2109-1.5-1.8125-3.4258-1.8125-5.7812 0-2.3633 0.60156-4.2969 1.8125-5.7969 1.207-1.5 2.7539-2.25 4.6406-2.25 1.0625 0 2 0.21484 2.8125 0.64062 0.82031 0.42969 1.5664 1.0859 2.2344 1.9688zm-3.2188 9.9219c1.0391 0 1.8359-0.37891 2.3906-1.1406 0.55078-0.76953 0.82812-1.8828 0.82812-3.3438 0-1.457-0.27734-2.5664-0.82812-3.3281-0.55469-0.76953-1.3516-1.1562-2.3906-1.1562-1.043 0-1.8398 0.38672-2.3906 1.1562-0.55469 0.76172-0.82812 1.8711-0.82812 3.3281 0 1.4609 0.27344 2.5742 0.82812 3.3438 0.55078 0.76172 1.3477 1.1406 2.3906 1.1406z"/>
  </symbol>
  <symbol id="g" overflow="visible">
   <path d="m10.5-3.1562c1.0508 0 1.8516-0.37891 2.4062-1.1406 0.55078-0.76953 0.82812-1.8828 0.82812-3.3438 0-1.457-0.27734-2.5664-0.82812-3.3281-0.55469-0.76953-1.3555-1.1562-2.4062-1.1562-1.0547 0-1.8594 0.38672-2.4219 1.1562-0.55469 0.77344-0.82812 1.8828-0.82812 3.3281 0 1.4492 0.27344 2.5586 0.82812 3.3281 0.5625 0.77344 1.3672 1.1562 2.4219 1.1562zm-3.25-9.9219c0.67578-0.88281 1.4219-1.5391 2.2344-1.9688 0.82031-0.42578 1.7656-0.64062 2.8281-0.64062 1.8945 0 3.4453 0.75 4.6562 2.25 1.207 1.5 1.8125 3.4336 1.8125 5.7969 0 2.3555-0.60547 4.2812-1.8125 5.7812-1.2109 1.5-2.7617 2.25-4.6562 2.25-1.0625 0-2.0078-0.21094-2.8281-0.625-0.8125-0.42578-1.5586-1.0859-2.2344-1.9844v2.2188h-4.8906v-21.281h4.8906z"/>
  </symbol>
  <symbol id="i" overflow="visible">
   <path d="m0.34375-15.312h4.8906l4.125 10.391 3.5-10.391h4.8906l-6.4375 16.766c-0.64844 1.6953-1.4023 2.8828-2.2656 3.5625-0.86719 0.6875-2 1.0312-3.4062 1.0312h-2.8438v-3.2188h1.5312c0.83203 0 1.4375-0.13672 1.8125-0.40625 0.38281-0.26172 0.67969-0.73047 0.89062-1.4062l0.14062-0.42188z"/>
  </symbol>
  <symbol id="f" overflow="visible">
   <path d="m2.5781-20.406h5.875l7.4219 14v-14h4.9844v20.406h-5.875l-7.4219-14v14h-4.9844z"/>
  </symbol>
  <symbol id="c" overflow="visible">
   <path d="m9.6406-12.188c-1.0859 0-1.9141 0.39062-2.4844 1.1719-0.57422 0.78125-0.85938 1.9062-0.85938 3.375s0.28516 2.5938 0.85938 3.375c0.57031 0.77344 1.3984 1.1562 2.4844 1.1562 1.0625 0 1.875-0.38281 2.4375-1.1562 0.57031-0.78125 0.85938-1.9062 0.85938-3.375s-0.28906-2.5938-0.85938-3.375c-0.5625-0.78125-1.375-1.1719-2.4375-1.1719zm0-3.5c2.6328 0 4.6914 0.71484 6.1719 2.1406 1.4766 1.418 2.2188 3.3867 2.2188 5.9062 0 2.5117-0.74219 4.4805-2.2188 5.9062-1.4805 1.418-3.5391 2.125-6.1719 2.125-2.6484 0-4.7148-0.70703-6.2031-2.125-1.4922-1.4258-2.2344-3.3945-2.2344-5.9062 0-2.5195 0.74219-4.4883 2.2344-5.9062 1.4883-1.4258 3.5547-2.1406 6.2031-2.1406z"/>
  </symbol>
  <symbol id="h" overflow="visible">
   <path d="m2.1875-5.9688v-9.3438h4.9219v1.5312c0 0.83594-0.007813 1.875-0.015625 3.125-0.011719 1.25-0.015625 2.0859-0.015625 2.5 0 1.2422 0.03125 2.1328 0.09375 2.6719 0.070313 0.54297 0.17969 0.93359 0.32812 1.1719 0.20703 0.32422 0.47266 0.57422 0.79688 0.75 0.32031 0.16797 0.69141 0.25 1.1094 0.25 1.0195 0 1.8203-0.39062 2.4062-1.1719 0.58203-0.78125 0.875-1.8672 0.875-3.2656v-7.5625h4.8906v15.312h-4.8906v-2.2188c-0.74219 0.89844-1.5234 1.5586-2.3438 1.9844-0.82422 0.41406-1.7344 0.625-2.7344 0.625-1.7617 0-3.1055-0.53906-4.0312-1.625-0.92969-1.082-1.3906-2.6602-1.3906-4.7344z"/>
  </symbol>
  <symbol id="t" overflow="visible">
   <path d="m2.5781-20.406h6.6875l4.6562 10.922 4.6719-10.922h6.6875v20.406h-4.9844v-14.938l-4.7031 11.016h-3.3281l-4.7031-11.016v14.938h-4.9844z"/>
  </symbol>
  <symbol id="s" overflow="visible">
   <path d="m2.3594-21.281h4.8906v11.594l5.625-5.625h5.6875l-7.4688 7.0312 8.0625 8.2812h-5.9375l-5.9688-6.3906v6.3906h-4.8906z"/>
  </symbol>
  <symbol id="r" overflow="visible">
   <path d="m2.3594-15.312h4.8906v15.312h-4.8906zm0-5.9688h4.8906v4h-4.8906z"/>
  </symbol>
  <symbol id="q" overflow="visible">
   <path d="m12.422-21.281v3.2188h-2.7031c-0.6875 0-1.1719 0.125-1.4531 0.375-0.27344 0.25-0.40625 0.6875-0.40625 1.3125v1.0625h4.1875v3.5h-4.1875v11.812h-4.8906v-11.812h-2.4375v-3.5h2.4375v-1.0625c0-1.6641 0.46094-2.8984 1.3906-3.7031 0.92578-0.80078 2.3672-1.2031 4.3281-1.2031z"/>
  </symbol>
  <symbol id="p" overflow="visible">
   <path d="m16.547-12.766c0.61328-0.94531 1.3477-1.6719 2.2031-2.1719 0.85156-0.5 1.7891-0.75 2.8125-0.75 1.7578 0 3.0977 0.54688 4.0156 1.6406 0.92578 1.0859 1.3906 2.6562 1.3906 4.7188v9.3281h-4.9219v-7.9844-0.35938c0.007813-0.13281 0.015625-0.32031 0.015625-0.5625 0-1.082-0.16406-1.8633-0.48438-2.3438-0.3125-0.48828-0.82422-0.73438-1.5312-0.73438-0.92969 0-1.6484 0.38672-2.1562 1.1562-0.51172 0.76172-0.77344 1.8672-0.78125 3.3125v7.5156h-4.9219v-7.9844c0-1.6953-0.14844-2.7852-0.4375-3.2656-0.29297-0.48828-0.8125-0.73438-1.5625-0.73438-0.9375 0-1.6641 0.38672-2.1719 1.1562-0.51172 0.76172-0.76562 1.8594-0.76562 3.2969v7.5312h-4.9219v-15.312h4.9219v2.2344c0.60156-0.86328 1.2891-1.5156 2.0625-1.9531 0.78125-0.4375 1.6406-0.65625 2.5781-0.65625 1.0625 0 2 0.25781 2.8125 0.76562 0.8125 0.51172 1.4258 1.2305 1.8438 2.1562z"/>
  </symbol>
  <symbol id="o" overflow="visible">
   <path d="m17.75-9.3281v9.3281h-4.9219v-7.1094c0-1.3438-0.03125-2.2656-0.09375-2.7656s-0.16797-0.86719-0.3125-1.1094c-0.1875-0.3125-0.44922-0.55469-0.78125-0.73438-0.32422-0.17578-0.69531-0.26562-1.1094-0.26562-1.0234 0-1.8242 0.39844-2.4062 1.1875-0.58594 0.78125-0.875 1.8711-0.875 3.2656v7.5312h-4.8906v-21.281h4.8906v8.2031c0.73828-0.88281 1.5195-1.5391 2.3438-1.9688 0.83203-0.42578 1.75-0.64062 2.75-0.64062 1.7695 0 3.1133 0.54688 4.0312 1.6406 0.91406 1.0859 1.375 2.6562 1.375 4.7188z"/>
  </symbol>
  <symbol id="n" overflow="visible">
   <path d="m17.75-9.3281v9.3281h-4.9219v-7.1406c0-1.3203-0.03125-2.2344-0.09375-2.7344s-0.16797-0.86719-0.3125-1.1094c-0.1875-0.3125-0.44922-0.55469-0.78125-0.73438-0.32422-0.17578-0.69531-0.26562-1.1094-0.26562-1.0234 0-1.8242 0.39844-2.4062 1.1875-0.58594 0.78125-0.875 1.8711-0.875 3.2656v7.5312h-4.8906v-15.312h4.8906v2.2344c0.73828-0.88281 1.5195-1.5391 2.3438-1.9688 0.83203-0.42578 1.75-0.64062 2.75-0.64062 1.7695 0 3.1133 0.54688 4.0312 1.6406 0.91406 1.0859 1.375 2.6562 1.375 4.7188z"/>
  </symbol>
  <symbol id="m" overflow="visible">
   <path d="m2.5781-20.406h8.7344c2.5938 0 4.582 0.57812 5.9688 1.7344 1.3945 1.1484 2.0938 2.7891 2.0938 4.9219 0 2.1367-0.69922 3.7812-2.0938 4.9375-1.3867 1.1562-3.375 1.7344-5.9688 1.7344h-3.4844v7.0781h-5.25zm5.25 3.8125v5.7031h2.9219c1.0195 0 1.8047-0.25 2.3594-0.75 0.5625-0.5 0.84375-1.2031 0.84375-2.1094 0-0.91406-0.28125-1.6172-0.84375-2.1094-0.55469-0.48828-1.3398-0.73438-2.3594-0.73438z"/>
  </symbol>
  <symbol id="l" overflow="visible">
   <path d="m2.3594-15.312h4.8906v15.031c0 2.0508-0.49609 3.6172-1.4844 4.7031-0.98047 1.082-2.4062 1.625-4.2812 1.625h-2.4219v-3.2188h0.85938c0.92578 0 1.5625-0.21094 1.9062-0.625 0.35156-0.41797 0.53125-1.2461 0.53125-2.4844zm0-5.9688h4.8906v4h-4.8906z"/>
  </symbol>
  <symbol id="k" overflow="visible">
   <path d="m14.719-14.828v3.9844c-0.65625-0.45703-1.3242-0.79688-2-1.0156-0.66797-0.21875-1.3594-0.32812-2.0781-0.32812-1.3672 0-2.4336 0.40234-3.2031 1.2031-0.76172 0.79297-1.1406 1.9062-1.1406 3.3438 0 1.4297 0.37891 2.543 1.1406 3.3438 0.76953 0.79297 1.8359 1.1875 3.2031 1.1875 0.75781 0 1.4844-0.10938 2.1719-0.32812 0.6875-0.22656 1.3203-0.56641 1.9062-1.0156v4c-0.76172 0.28125-1.5391 0.48828-2.3281 0.625-0.78125 0.14453-1.5742 0.21875-2.375 0.21875-2.7617 0-4.9219-0.70703-6.4844-2.125-1.5547-1.4141-2.3281-3.3828-2.3281-5.9062 0-2.5312 0.77344-4.5039 2.3281-5.9219 1.5625-1.4141 3.7227-2.125 6.4844-2.125 0.80078 0 1.5938 0.074219 2.375 0.21875 0.78125 0.13672 1.5547 0.35156 2.3281 0.64062z"/>
  </symbol>
 </defs>
 <g>
  <path d="m112.41 390.18c19.719 0 34.113-15.371 34.719-16.027 0 0 0-0.003906 0.003907-0.003906 0.14453-0.15625 11.637-12.402 26.48-12.402 8.5195 0 16.688 4.1719 24.289 12.402 0 0 0 0.003906 0.003906 0.003906 9.8047 10.633 20.754 16.027 32.535 16.027 19.652 0 34.02-15.262 34.715-16.012 0-0.003907 0-0.003907 0.003906-0.003907 0.11719-0.11719 11.762-12.426 26.488-12.426h0.074218c8.4961 0.027344 16.645 4.1992 24.219 12.41 0 0 0 0.003906 0.003907 0.003906 9.8047 10.629 20.754 16.023 32.535 16.023 19.711 0 34.113-15.367 34.727-16.023 0.16797-0.17969 11.637-12.434 26.555-12.414 8.5 0.027344 16.648 4.1992 24.227 12.414 0.77344 0.83594 1.5586 1.5781 2.3477 2.3516 0.042968 0.050782 0.0625 0.11719 0.11328 0.16406 0.042969 0.042969 0.10547 0.054687 0.14453 0.09375 9.1211 8.8711 19.164 13.418 29.914 13.418h0.003906c19.711 0 34.113-15.367 34.719-16.023 0.11719-0.11719 11.625-12.414 26.488-12.414 8.5195 0.003906 16.695 4.1758 24.293 12.414 0.60547 0.65625 15.012 16.027 34.727 16.027 11.781 0 22.727-5.3945 32.531-16.027 2.0938-2.2734 1.9531-5.8203-0.32422-7.9141-2.2773-2.0938-5.8125-1.9531-7.9141 0.32422-7.5781 8.2148-15.727 12.395-24.219 12.422h-0.078125c-14.684 0-26.285-12.207-26.48-12.422-9.8047-10.629-20.746-16.016-32.531-16.023h-0.003906c-19.711 0-34.113 15.367-34.719 16.023-0.11719 0.11719-11.621 12.414-26.48 12.414h-0.003907c-6.2148 0-12.246-2.25-18.004-6.6523l14.172-14.539c0.003906-0.003906 0.003906-0.003906 0.011719-0.011718l0.042969-0.042969c0.14062-0.14453 0.19531-0.33984 0.32422-0.50391 0.32422-0.40234 0.64453-0.81641 0.83984-1.3008 0.19141-0.46875 0.24219-0.96875 0.29688-1.4688 0.027344-0.21875 0.12891-0.41016 0.12891-0.63672v-45.07c0-8.875-7.2227-16.102-16.102-16.102-8.875 0-16.102 7.2227-16.102 16.102v34.848l-9.043 9.4258c-4.3242-1.6367-8.793-2.4805-13.395-2.4805-9.3398 0-17.457 3.457-23.504 7.1523l-25.738-25.738c-6.0859-6.082-16.695-6.0742-22.77 0-3.0391 3.0352-4.7148 7.0859-4.7148 11.379 0 4.3047 1.6758 8.3438 4.7812 11.445l22.398 21.719c-3.5039 1.4336-7.4219 2.4766-11.66 2.4766-8.5234 0-16.699-4.1758-24.297-12.414 0-0.003906-0.003906-0.003906-0.011719-0.003906-9.8008-10.625-20.746-16.016-32.523-16.016-19.645 0.003906-34.004 15.254-34.699 16.004 0 0.003907 0 0.003907-0.003906 0.003907-0.11719 0.11719-11.766 12.434-26.504 12.434h-0.078124c-8.5-0.027343-16.648-4.207-24.227-12.422 0-0.003906-0.003906-0.003906-0.011719-0.003906-9.8008-10.625-20.742-16.012-32.52-16.012-19.684 0-34.066 15.316-34.707 16.012l-0.003906 0.003906c-0.11719 0.125-11.625 12.422-26.48 12.422-8.5234 0-16.699-4.1758-24.297-12.422-2.1016-2.2734-5.6445-2.418-7.9141-0.32422-2.2734 2.1016-2.418 5.6406-0.32422 7.9141 9.8086 10.633 20.754 16.023 32.531 16.023zm329.36-40.453c0.17188-0.17969 0.24219-0.41406 0.38672-0.60937 0.28125-0.375 0.57813-0.74609 0.75-1.1875 0.16797-0.42188 0.20313-0.85547 0.26172-1.3008 0.039063-0.26953 0.15625-0.50391 0.15625-0.77734v-37.102c0-2.6992 2.1992-4.8984 4.8984-4.8984s4.8984 2.1992 4.8984 4.8984v42.789l-12.789 13.125c-2.3008-2.3008-4.6602-4.3281-7.0781-6.0703zm-96.172-2.9258c-0.92578-0.92578-1.4336-2.1562-1.4336-3.4648 0-1.3047 0.50781-2.5352 1.4375-3.4609 1.8477-1.8477 5.0742-1.8477 6.9258 0l24.594 24.594c-1.2617 1.1523-2.0234 1.9609-2.1523 2.0938-0.042968 0.042969-1.7812 1.8867-4.7266 4.1328z"/>
  <path d="m112.79 478.48c19.719 0 34.121-15.371 34.727-16.027 0.16797-0.17969 11.781-12.414 26.48-12.414h0.074218c8.4961 0.027344 16.645 4.1953 24.219 12.41 0 0 0 0.003906 0.003906 0.003906 9.8047 10.633 20.754 16.027 32.535 16.027 19.645 0 34.004-15.262 34.699-16.012l0.003906-0.003906c0.11719-0.11719 11.766-12.426 26.5-12.426h0.078125c8.4961 0.023438 16.645 4.1992 24.219 12.414 0 0.003906 0.003906 0.003906 0.003906 0.003906 9.8047 10.629 20.746 16.023 32.523 16.016 19.719 0 34.113-15.367 34.715-16.023 0.16797-0.17969 11.781-12.414 26.492-12.414h0.074218c8.5078 0.023438 16.66 4.1992 24.23 12.414 9.8008 10.629 20.738 16.023 32.52 16.023h0.003907c19.711 0 34.113-15.367 34.719-16.023 0.16797-0.17969 11.781-12.414 26.48-12.414h0.078124c8.5 0.023438 16.648 4.1992 24.227 12.414 0.59766 0.65625 15.004 16.027 34.715 16.027 11.781 0 22.73-5.3945 32.543-16.027 2.0938-2.2734 1.9531-5.8125-0.32422-7.9141-2.2734-2.0938-5.8125-1.9531-7.9141 0.32422-7.582 8.2227-15.73 12.398-24.227 12.422h-0.074219c-14.668 0-26.258-12.188-26.48-12.422-9.8125-10.633-20.758-16.023-32.543-16.023-19.719 0-34.109 15.367-34.715 16.023-0.11719 0.11719-11.621 12.414-26.48 12.414h-0.003906c-8.5195 0-16.688-4.1758-24.281-12.414-9.8125-10.629-20.754-16.023-32.543-16.023-19.719 0-34.125 15.367-34.73 16.023-0.11719 0.125-11.621 12.414-26.48 12.414-8.5234 0.003906-16.699-4.1719-24.297-12.414-9.8047-10.629-20.746-16.023-32.531-16.023-19.594 0-33.93 15.164-34.691 15.992-0.003906 0.003906-0.015625 0.011719-0.023437 0.015625-0.11719 0.125-11.762 12.434-26.488 12.434h-0.074218c-8.4961-0.023438-16.648-4.1992-24.227-12.422 0-0.003907-0.003906-0.003907-0.011719-0.003907-9.8008-10.629-20.746-16.016-32.523-16.016-19.684 0.003906-34.07 15.32-34.707 16.016 0 0-0.003906 0-0.003906 0.003907-0.11719 0.125-11.625 12.426-26.488 12.422-8.5234 0-16.699-4.1758-24.293-12.422-2.1016-2.2734-5.6328-2.4258-7.9141-0.32422-2.2734 2.0938-2.418 5.6406-0.32422 7.9141 9.8047 10.645 20.746 16.035 32.531 16.035z"/>
  <path d="m112.78 434.33c19.652 0 34.016-15.254 34.707-16.004 0-0.003906 0-0.003906 0.003906-0.003906 0.11719-0.11719 11.762-12.426 26.492-12.426h0.078125c8.4961 0.023437 16.645 4.1992 24.219 12.414 9.8047 10.633 20.754 16.023 32.535 16.023 19.719 0 34.113-15.367 34.719-16.023 0.23438-0.25781 0.33984-0.57031 0.51953-0.85156 2.8438-2.7383 12.98-11.559 25.609-11.559 8.5234 0 16.699 4.1758 24.297 12.414 9.8047 10.629 20.754 16.023 32.531 16.023 19.719 0 34.113-15.367 34.719-16.023 0.16797-0.17969 11.789-12.414 26.488-12.414h0.074219c8.5 0.023437 16.656 4.1992 24.227 12.414 9.8047 10.629 20.742 16.023 32.523 16.023h0.003907c19.711 0 34.109-15.367 34.715-16.023 0.16797-0.17969 11.781-12.414 26.48-12.414h0.078125c8.5 0.023437 16.648 4.1992 24.227 12.414 0.60547 0.65625 15.008 16.023 34.719 16.023h0.003906c11.781 0 22.727-5.3945 32.523-16.023 2.0938-2.2734 1.9531-5.8203-0.32422-7.9141-2.2734-2.0898-5.8125-1.9531-7.9141 0.32422-7.5781 8.2148-15.719 12.395-24.215 12.414h-0.078125c-14.695 0-26.312-12.234-26.48-12.414-9.8125-10.629-20.758-16.023-32.543-16.023-19.719 0-34.113 15.367-34.719 16.023-0.16797 0.17969-11.781 12.414-26.48 12.414h-0.078125c-8.5-0.023437-16.645-4.1992-24.215-12.414-9.8047-10.629-20.754-16.023-32.535-16.023-19.719 0-34.121 15.367-34.727 16.023-0.11719 0.11719-11.621 12.414-26.48 12.414-8.5234 0-16.699-4.1758-24.297-12.414-9.8047-10.629-20.754-16.023-32.531-16.023-19.711 0-34.109 15.367-34.715 16.023-0.23047 0.25391-0.33203 0.55859-0.50391 0.82813-2.8633 2.7266-13.086 11.582-25.633 11.582h-0.074219c-8.5-0.023438-16.648-4.1992-24.227-12.414-9.8047-10.629-20.746-16.023-32.531-16.023-19.641 0-34.008 15.254-34.703 16.004 0 0.003906 0 0.003906-0.003906 0.003906-0.11719 0.11719-11.766 12.426-26.5 12.426h-0.078125c-8.4961-0.023437-16.645-4.1992-24.219-12.414-2.0938-2.2773-5.6406-2.418-7.9141-0.32422-2.2734 2.1016-2.418 5.6406-0.32422 7.9141 9.8281 10.629 20.77 16.023 32.551 16.023z"/>
  <path d="m619.8 498.69c-2.2734-2.0898-5.8203-1.9492-7.9141 0.32422-7.5781 8.2148-15.73 12.398-24.227 12.422h-0.074219c-14.621 0-26.207-12.125-26.48-12.422-9.8047-10.629-20.754-16.023-32.535-16.023-19.719 0-34.121 15.367-34.727 16.023-0.16797 0.17969-11.789 12.414-26.48 12.414h-0.078125c-8.4961-0.027344-16.637-4.1992-24.203-12.414-9.8125-10.629-20.758-16.023-32.547-16.023-19.719 0-34.125 15.367-34.73 16.023-0.11719 0.125-11.613 12.414-26.477 12.414-8.5234 0-16.695-4.1758-24.293-12.41 0 0 0-0.003906-0.003906-0.003906-9.8047-10.629-20.746-16.023-32.531-16.023-19.629 0-33.988 15.23-34.699 16.004-0.003906 0.003906-0.015625 0.003906-0.027344 0.015625-0.11719 0.125-11.625 12.422-26.48 12.422-8.5234 0-16.699-4.1758-24.297-12.422 0-0.003907-0.003907-0.003907-0.011719-0.003907-9.8008-10.625-20.742-16.012-32.52-16.016-19.684 0-34.07 15.32-34.707 16.016 0 0-0.003906 0.003907-0.003906 0.003907-0.11328 0.11719-11.625 12.422-26.488 12.422-8.5234 0-16.699-4.1758-24.293-12.422-2.1016-2.2734-5.6406-2.418-7.9141-0.32422-2.2734 2.0938-2.418 5.6406-0.32422 7.9141 9.8047 10.633 20.746 16.027 32.531 16.027 19.719 0 34.121-15.371 34.727-16.027 0 0 0-0.003906 0.003907-0.003906 0.14453-0.15625 11.641-12.41 26.48-12.41 8.5195 0.003906 16.688 4.1758 24.289 12.41 0 0 0 0.003906 0.003906 0.003906 9.8047 10.633 20.754 16.027 32.535 16.027 19.621 0 33.969-15.215 34.699-16.004 0.003906-0.003906 0.011719-0.003906 0.015625-0.011719 0.11719-0.11719 11.762-12.426 26.492-12.426h0.078126c8.4961 0.023438 16.645 4.1992 24.219 12.414 0 0.003907 0.003906 0.003907 0.003906 0.003907 9.8047 10.625 20.754 16.016 32.531 16.016h0.003906c19.707 0 34.105-15.367 34.707-16.023 0.16797-0.17969 11.789-12.414 26.492-12.414h0.078125c8.5 0.023437 16.656 4.1992 24.23 12.414 9.8008 10.629 20.738 16.023 32.512 16.023h0.003907c19.711 0 34.109-15.367 34.715-16.023 0.16797-0.17969 11.789-12.414 26.488-12.414h0.074219c8.5 0.023437 16.656 4.1992 24.227 12.414 0.60547 0.65625 15.008 16.027 34.719 16.027 11.781 0 22.73-5.3945 32.535-16.027 2.0859-2.2656 1.9453-5.8047-0.32812-7.9062z"/>
  <path d="m172.59 50.176c-0.050781 0.375-0.074219 0.74609-0.042969 1.1328 0.011719 0.17188-0.042969 0.33203-0.015625 0.5 0.039063 0.23438 0.16406 0.42969 0.23047 0.65625 0.050781 0.17969 0.027344 0.35938 0.10156 0.53906l11.137 27.922-10.965 23.816c-0.085937 0.17187-0.066406 0.36328-0.12891 0.54297-0.10547 0.30078-0.28516 0.57031-0.33594 0.90234-0.023438 0.15234 0.027343 0.29297 0.015625 0.44922-0.023438 0.30859 0.011718 0.58984 0.039062 0.89453 0.035156 0.42969 0.074219 0.83984 0.20312 1.2422 0.089844 0.28125 0.23438 0.51953 0.35938 0.78516 0.19141 0.375 0.375 0.73438 0.64453 1.0586 0.19531 0.23437 0.42969 0.42187 0.66797 0.62109 0.3125 0.27344 0.62109 0.52734 0.99609 0.72656 0.10547 0.054687 0.17188 0.15625 0.28516 0.20703 0.21094 0.10156 0.4375 0.074219 0.65625 0.14453 0.26172 0.085938 0.49219 0.24219 0.77734 0.29297l18.621 2.9922c0.29297 0.042969 0.58203 0.066407 0.86719 0.066407h0.015625 0.011719c0.8125 0 1.5664-0.22266 2.2773-0.54688 0.20312-0.089844 0.36328-0.21094 0.55469-0.32422 0.54688-0.33203 1.0195-0.73828 1.4297-1.2383 0.089844-0.11328 0.23047-0.15234 0.30859-0.26953l8.9922-12.773 107.37 17.953c7.0664 26.695 29.895 61.426 62.301 61.426v107.14c0 3.0977 2.5039 5.6016 5.6016 5.6016s5.6016-2.5039 5.6016-5.6016v-6.9766h22.977v6.9766c0 3.0977 2.5039 5.6016 5.6016 5.6016s5.6016-2.5039 5.6016-5.6016l-0.011718-107.16h75.41c8.4883 0 15.102-2.4648 19.66-7.332 4.1875-4.4688 6.3125-10.605 6.3125-18.25 0-9.4453-3.5234-21.004-9.543-32.73-0.16797-0.42578-0.36328-0.81641-0.62891-1.1758-15.473-29.332-46.379-59.258-76.957-59.258h-48.422l0.003906-12.566h110c3.0977 0 5.6016-2.5078 5.6016-5.6016 0-3.0898-2.5039-5.6016-5.6016-5.6016h-231.2c-3.0898 0-5.6016 2.5078-5.6016 5.6016 0 3.0898 2.5078 5.6016 5.6016 5.6016h110v12.566h-167.61l-10.922-16.168-0.11328-0.16797c-0.13281-0.20312-0.33984-0.3125-0.5-0.49219-0.30859-0.35156-0.60547-0.71094-0.99219-0.97266-0.26172-0.17969-0.55859-0.26172-0.84375-0.39063-0.36328-0.16797-0.71094-0.36328-1.1133-0.44922-0.39844-0.089844-0.80469-0.050782-1.2148-0.050782-0.28516 0-0.55859-0.078124-0.85547-0.035156l-18.621 2.9844c-0.21875 0.03125-0.38672 0.16016-0.58984 0.21875-0.20312 0.054688-0.41016 0.027344-0.60547 0.11328-0.16406 0.066407-0.26953 0.19531-0.42188 0.27344-0.34766 0.17188-0.64844 0.37891-0.94141 0.61719-0.28125 0.22266-0.53906 0.44922-0.76562 0.71875-0.23438 0.27344-0.41406 0.55859-0.59375 0.875-0.17969 0.3125-0.33594 0.62109-0.44922 0.96484-0.10938 0.31641-0.17188 0.64844-0.21875 1zm218.57 178.03h22.977v14.723h-22.977zm22.973-11.203h-22.977v-14.723h22.977zm-22.973 51.848v-14.723h22.977v14.723zm22.973-77.77h-22.977v-11.199h22.977zm98.102-26.184c-2.3594 2.5156-6.2227 3.7852-11.492 3.7852h-120.79c-27.395 0-47.395-33.609-52.289-56.324-0.003906-0.015625-0.015625-0.035156-0.023437-0.054687-0.12891-0.56641-0.39844-1.0703-0.6875-1.5664-0.078126-0.13281-0.10547-0.30078-0.19531-0.42969-0.3125-0.44141-0.73828-0.78906-1.1719-1.125-0.13281-0.10547-0.23047-0.26172-0.37109-0.35156-0.18359-0.11719-0.42188-0.15234-0.62109-0.24609-0.46484-0.22266-0.91797-0.45313-1.4297-0.54297-0.015625 0-0.027344-0.015625-0.042969-0.015625l-114.46-19.137c-0.28516-0.042969-0.55469 0.035156-0.83984 0.027344-0.41016-0.003907-0.80469-0.039063-1.2031 0.039062-0.36328 0.078125-0.68359 0.24609-1.0234 0.39062-0.32422 0.13281-0.64844 0.23438-0.94531 0.42969-0.34766 0.23047-0.60938 0.54688-0.90234 0.85156-0.19141 0.20312-0.42578 0.33203-0.58984 0.55859l-9.0117 12.797-7.8555-1.2617 8.8828-19.297c0.011718-0.023437 0.003906-0.042969 0.015625-0.066406 0.21094-0.46875 0.28125-0.98438 0.35156-1.5 0.027344-0.21094 0.12891-0.41406 0.13281-0.62891 0.003906-0.23047-0.089844-0.45312-0.11328-0.68359-0.050781-0.5-0.089843-1.0039-0.26172-1.4688-0.003906-0.023437-0.003906-0.042969-0.011719-0.074219l-9.4414-23.656 8.1875-1.3086 10.707 15.844c0.15625 0.23438 0.35938 0.41406 0.54297 0.61719 0.085937 0.089844 0.15234 0.19141 0.24219 0.27344 0.46484 0.44141 0.98047 0.78906 1.5469 1.0469 0.11719 0.050782 0.23438 0.089844 0.35938 0.13281 0.62891 0.23438 1.2773 0.39062 1.9414 0.39062h0.003907 174.82c0.44922 0.11719 0.87891 0.27344 1.3672 0.27344 0.48828 0 0.91797-0.16406 1.3672-0.27344h29.566c15.578 47.98 43.242 58.406 73.078 58.406 6.3711 0 12.852-0.52734 19.32-1.1992 4.1953 8.9766 6.6211 17.629 6.6211 24.758-0.003907 4.7031-1.1133 8.2656-3.2852 10.59zm-9.1289-46c-31.723 2.7812-58.984-1.4883-74.84-46.562h11.316c24.121 0 49.082 22.781 63.523 46.562z"/>
  <path d="m419.74 101.46h-36.16c-3.0977 0-5.6016 2.5078-5.6016 5.6016v52.656c0 3.0898 2.5039 5.6016 5.6016 5.6016h36.16c3.0977 0 5.6016-2.5078 5.6016-5.6016v-52.656c-0.003906-3.0898-2.5078-5.6016-5.6016-5.6016zm-5.6016 52.66h-24.961v-41.457h24.961z"/>
  <path d="m399.99 299.65c-13.125 0-23.801 10.672-23.801 23.801 0 13.125 10.672 23.801 23.801 23.801 13.121 0 23.793-10.672 23.793-23.801s-10.672-23.801-23.793-23.801zm0 36.398c-6.9453 0-12.602-5.6562-12.602-12.602 0-6.9453 5.6562-12.602 12.602-12.602 6.9453 0 12.594 5.6562 12.594 12.602 0 6.9453-5.6523 12.602-12.594 12.602z"/>
  <use x="70" y="644" xlink:href="#u"/>
  <use x="90.550781" y="644" xlink:href="#a"/>
  <use x="104.359375" y="644" xlink:href="#b"/>
  <use x="123.347656" y="644" xlink:href="#e"/>
  <use x="142.242188" y="644" xlink:href="#d"/>
  <use x="155.628906" y="644" xlink:href="#b"/>
  <use x="174.617188" y="644" xlink:href="#j"/>
  <use x="204.410156" y="644" xlink:href="#g"/>
  <use x="224.453125" y="644" xlink:href="#i"/>
  <use x="252.453125" y="644" xlink:href="#f"/>
  <use x="275.882812" y="644" xlink:href="#c"/>
  <use x="295.121094" y="644" xlink:href="#h"/>
  <use x="315.054688" y="644" xlink:href="#a"/>
  <use x="328.863281" y="644" xlink:href="#e"/>
  <use x="357.507812" y="644" xlink:href="#t"/>
  <use x="385.367188" y="644" xlink:href="#g"/>
  <use x="405.414062" y="644" xlink:href="#e"/>
  <use x="424.304688" y="644" xlink:href="#a"/>
  <use x="438.117187" y="644" xlink:href="#s"/>
  <use x="456.734375" y="644" xlink:href="#r"/>
  <use x="70" y="672" xlink:href="#q"/>
  <use x="82.183594" y="672" xlink:href="#a"/>
  <use x="95.992188" y="672" xlink:href="#c"/>
  <use x="115.226562" y="672" xlink:href="#p"/>
  <use x="154.152344" y="672" xlink:href="#d"/>
  <use x="167.535156" y="672" xlink:href="#o"/>
  <use x="187.46875" y="672" xlink:href="#b"/>
  <use x="216.207031" y="672" xlink:href="#f"/>
  <use x="239.640625" y="672" xlink:href="#c"/>
  <use x="258.878906" y="672" xlink:href="#h"/>
  <use x="278.8125" y="672" xlink:href="#n"/>
  <use x="308.492188" y="672" xlink:href="#m"/>
  <use x="329.015625" y="672" xlink:href="#a"/>
  <use x="342.820312" y="672" xlink:href="#c"/>
  <use x="362.058594" y="672" xlink:href="#l"/>
  <use x="371.65625" y="672" xlink:href="#b"/>
  <use x="390.648438" y="672" xlink:href="#k"/>
  <use x="407.242188" y="672" xlink:href="#d"/>
 </g>
</svg>
