<?xml version="1.0" encoding="UTF-8"?>
<svg width="700pt" height="700pt" version="1.1" viewBox="0 0 700 700" xmlns="http://www.w3.org/2000/svg" xmlns:xlink="http://www.w3.org/1999/xlink">
 <defs>
  <symbol id="l" overflow="visible">
   <path d="m29.312-1.75c-1.5117 0.78125-3.0898 1.3711-4.7344 1.7656-1.6367 0.40625-3.3398 0.60938-5.1094 0.60938-5.3125 0-9.5273-1.4844-12.641-4.4531-3.1055-2.9688-4.6562-7-4.6562-12.094s1.5508-9.125 4.6562-12.094c3.1133-2.9688 7.3281-4.4531 12.641-4.4531 1.7695 0 3.4727 0.19922 5.1094 0.59375 1.6445 0.39844 3.2227 0.99219 4.7344 1.7812v6.5938c-1.5312-1.0391-3.0391-1.8008-4.5156-2.2812-1.4805-0.48828-3.0391-0.73438-4.6719-0.73438-2.9375 0-5.2461 0.94531-6.9219 2.8281-1.6797 1.875-2.5156 4.4648-2.5156 7.7656 0 3.293 0.83594 5.8828 2.5156 7.7656 1.6758 1.875 3.9844 2.8125 6.9219 2.8125 1.6328 0 3.1914-0.23828 4.6719-0.71875 1.4766-0.48828 2.9844-1.2539 4.5156-2.2969z"/>
  </symbol>
  <symbol id="f" overflow="visible">
   <path d="m21.453-17.406c-0.67969-0.3125-1.3516-0.53906-2.0156-0.6875-0.65625-0.15625-1.3203-0.23438-1.9844-0.23438-1.9688 0-3.4844 0.63281-4.5469 1.8906-1.0547 1.2617-1.5781 3.0703-1.5781 5.4219v11.016h-7.6562v-23.922h7.6562v3.9219c0.97656-1.5625 2.1016-2.7031 3.375-3.4219 1.2812-0.71875 2.8125-1.0781 4.5938-1.0781 0.25 0 0.52344 0.011719 0.82812 0.03125 0.30078 0.023438 0.73438 0.070312 1.2969 0.14062z"/>
  </symbol>
  <symbol id="e" overflow="visible">
   <path d="m27.562-12.031v2.1875h-17.891c0.1875 1.793 0.83203 3.1367 1.9375 4.0312 1.1133 0.89844 2.6719 1.3438 4.6719 1.3438 1.6016 0 3.25-0.23438 4.9375-0.70312 1.6875-0.47656 3.4219-1.2031 5.2031-2.1719v5.8906c-1.8047 0.6875-3.6094 1.2031-5.4219 1.5469-1.8125 0.35156-3.6211 0.53125-5.4219 0.53125-4.3359 0-7.7031-1.0977-10.109-3.2969-2.3984-2.207-3.5938-5.2969-3.5938-9.2656 0-3.9062 1.1758-6.9727 3.5312-9.2031 2.3633-2.2383 5.6094-3.3594 9.7344-3.3594 3.7578 0 6.7695 1.1367 9.0312 3.4062 2.2578 2.2617 3.3906 5.2812 3.3906 9.0625zm-7.8594-2.5312c0-1.457-0.42969-2.6289-1.2812-3.5156-0.84375-0.89453-1.9492-1.3438-3.3125-1.3438-1.4922 0-2.6992 0.41797-3.625 1.25-0.91797 0.83594-1.4922 2.0391-1.7188 3.6094z"/>
  </symbol>
  <symbol id="b" overflow="visible">
   <path d="m14.391-10.766c-1.5938 0-2.793 0.27344-3.5938 0.8125-0.80469 0.54297-1.2031 1.3398-1.2031 2.3906 0 0.96875 0.32031 1.7305 0.96875 2.2812 0.64453 0.54297 1.5469 0.8125 2.7031 0.8125 1.4375 0 2.6445-0.51562 3.625-1.5469 0.98828-1.0312 1.4844-2.3203 1.4844-3.875v-0.875zm11.688-2.8906v13.656h-7.7031v-3.5469c-1.0312 1.4492-2.1875 2.5078-3.4688 3.1719s-2.8398 1-4.6719 1c-2.4805 0-4.4961-0.72266-6.0469-2.1719-1.543-1.4453-2.3125-3.3203-2.3125-5.625 0-2.8125 0.96094-4.8672 2.8906-6.1719 1.9375-1.3125 4.9688-1.9688 9.0938-1.9688h4.5156v-0.60938c0-1.207-0.48047-2.0938-1.4375-2.6562-0.94922-0.5625-2.4375-0.84375-4.4688-0.84375-1.6367 0-3.1562 0.16797-4.5625 0.5-1.4062 0.32422-2.7188 0.8125-3.9375 1.4688v-5.8281c1.6445-0.40625 3.2891-0.70703 4.9375-0.90625 1.6562-0.20703 3.3047-0.3125 4.9531-0.3125 4.3203 0 7.4375 0.85547 9.3438 2.5625 1.9141 1.6992 2.875 4.4609 2.875 8.2812z"/>
  </symbol>
  <symbol id="d" overflow="visible">
   <path d="m12.031-30.719v6.7969h7.875v5.4688h-7.875v10.141c0 1.1172 0.21875 1.8711 0.65625 2.2656 0.4375 0.38672 1.3125 0.57812 2.625 0.57812h3.9375v5.4688h-6.5625c-3.0234 0-5.1641-0.62891-6.4219-1.8906-1.2617-1.2578-1.8906-3.3984-1.8906-6.4219v-10.141h-3.7969v-5.4688h3.7969v-6.7969z"/>
  </symbol>
  <symbol id="j" overflow="visible">
   <path d="m19.953-20.422v-12.812h7.6875v33.234h-7.6875v-3.4531c-1.0547 1.4062-2.2148 2.4375-3.4844 3.0938-1.2734 0.65625-2.7422 0.98438-4.4062 0.98438-2.9492 0-5.3711-1.1719-7.2656-3.5156-1.8867-2.3438-2.8281-5.3594-2.8281-9.0469s0.94141-6.7031 2.8281-9.0469c1.8945-2.3438 4.3164-3.5156 7.2656-3.5156 1.6562 0 3.1172 0.33594 4.3906 1 1.2812 0.65625 2.4453 1.6836 3.5 3.0781zm-5.0469 15.484c1.6445 0 2.8945-0.59766 3.75-1.7969 0.86328-1.1953 1.2969-2.9297 1.2969-5.2031 0-2.2812-0.43359-4.0195-1.2969-5.2188-0.85547-1.1953-2.1055-1.7969-3.75-1.7969-1.625 0-2.8711 0.60156-3.7344 1.7969-0.85547 1.1992-1.2812 2.9375-1.2812 5.2188 0 2.2734 0.42578 4.0078 1.2812 5.2031 0.86328 1.1992 2.1094 1.7969 3.7344 1.7969z"/>
  </symbol>
  <symbol id="a" overflow="visible">
   <path d="m16.406-4.9375c1.6328 0 2.8828-0.59766 3.75-1.7969 0.86328-1.1953 1.2969-2.9297 1.2969-5.2031 0-2.2812-0.43359-4.0195-1.2969-5.2188-0.86719-1.1953-2.1172-1.7969-3.75-1.7969-1.6367 0-2.8906 0.60547-3.7656 1.8125-0.875 1.1992-1.3125 2.9336-1.3125 5.2031 0 2.2617 0.4375 3.9961 1.3125 5.2031 0.875 1.1992 2.1289 1.7969 3.7656 1.7969zm-5.0781-15.484c1.0508-1.3945 2.2188-2.4219 3.5-3.0781 1.2812-0.66406 2.7539-1 4.4219-1 2.9453 0 5.3672 1.1719 7.2656 3.5156 1.8945 2.3438 2.8438 5.3594 2.8438 9.0469s-0.94922 6.7031-2.8438 9.0469c-1.8984 2.3438-4.3203 3.5156-7.2656 3.5156-1.668 0-3.1406-0.33594-4.4219-1s-2.4492-1.6914-3.5-3.0781v3.4531h-7.6562v-33.234h7.6562z"/>
  </symbol>
  <symbol id="i" overflow="visible">
   <path d="m0.53125-23.922h7.6562l6.4219 16.234 5.4688-16.234h7.6562l-10.062 26.188c-1.0117 2.6641-2.1953 4.5234-3.5469 5.5781-1.3438 1.0625-3.1211 1.5938-5.3281 1.5938h-4.4219v-5.0156h2.3906c1.3008 0 2.2422-0.21094 2.8281-0.625 0.59375-0.40625 1.0547-1.1484 1.3906-2.2188l0.20312-0.65625z"/>
  </symbol>
  <symbol id="h" overflow="visible">
   <path d="m22.359-23.172v5.7969c-1.6367-0.67578-3.2148-1.1875-4.7344-1.5312-1.5234-0.34375-2.9609-0.51562-4.3125-0.51562-1.4609 0-2.543 0.18359-3.25 0.54688-0.69922 0.36719-1.0469 0.92188-1.0469 1.6719 0 0.61719 0.26562 1.0898 0.79688 1.4219 0.53125 0.32422 1.4883 0.5625 2.875 0.71875l1.3438 0.1875c3.9141 0.5 6.5508 1.3242 7.9062 2.4688 1.3516 1.1367 2.0312 2.9219 2.0312 5.3594 0 2.5547-0.94531 4.4688-2.8281 5.75-1.875 1.2812-4.6797 1.9219-8.4062 1.9219-1.5859 0-3.2188-0.125-4.9062-0.375s-3.4219-0.625-5.2031-1.125v-5.8125c1.5195 0.74219 3.082 1.2969 4.6875 1.6719 1.6016 0.36719 3.2344 0.54688 4.8906 0.54688 1.4883 0 2.6094-0.20312 3.3594-0.60938 0.75781-0.41406 1.1406-1.0312 1.1406-1.8438 0-0.6875-0.26172-1.1953-0.78125-1.5312-0.52344-0.33203-1.5586-0.59375-3.1094-0.78125l-1.3438-0.17188c-3.4062-0.42578-5.793-1.2109-7.1562-2.3594-1.3672-1.1562-2.0469-2.9102-2.0469-5.2656 0-2.5312 0.86719-4.4062 2.6094-5.625 1.7383-1.2266 4.3984-1.8438 7.9844-1.8438 1.4062 0 2.8828 0.10938 4.4375 0.32812 1.5508 0.21094 3.2383 0.54297 5.0625 1z"/>
  </symbol>
  <symbol id="c" overflow="visible">
   <path d="m3.6719-23.922h7.6562v23.922h-7.6562zm0-9.3125h7.6562v6.2344h-7.6562z"/>
  </symbol>
  <symbol id="g" overflow="visible">
   <path d="m27.734-14.562v14.562h-7.7031v-11.109c0-2.0938-0.046875-3.5312-0.14062-4.3125-0.085937-0.78125-0.24219-1.3594-0.46875-1.7344-0.30469-0.5-0.71094-0.88281-1.2188-1.1562-0.51172-0.28125-1.0938-0.42188-1.75-0.42188-1.5938 0-2.8516 0.61719-3.7656 1.8438-0.90625 1.2305-1.3594 2.9375-1.3594 5.125v11.766h-7.6562v-33.234h7.6562v12.812c1.1445-1.3945 2.3633-2.4219 3.6562-3.0781 1.3008-0.66406 2.7383-1 4.3125-1 2.7578 0 4.8516 0.85156 6.2812 2.5469 1.4375 1.6875 2.1562 4.1523 2.1562 7.3906z"/>
  </symbol>
  <symbol id="k" overflow="visible">
   <path d="m25.844-19.953c0.96875-1.4766 2.1172-2.6016 3.4531-3.375 1.332-0.78125 2.7969-1.1719 4.3906-1.1719 2.75 0 4.8438 0.85156 6.2812 2.5469 1.4375 1.6875 2.1562 4.1523 2.1562 7.3906v14.562h-7.6875v-12.469c0.007812-0.1875 0.019531-0.37891 0.03125-0.57812 0.007812-0.19531 0.015625-0.48438 0.015625-0.85938 0-1.6953-0.25-2.9258-0.75-3.6875-0.5-0.75781-1.3086-1.1406-2.4219-1.1406-1.4492 0-2.5703 0.60156-3.3594 1.7969-0.79297 1.1992-1.2031 2.9297-1.2344 5.1875v11.75h-7.6875v-12.469c0-2.6562-0.23047-4.3633-0.6875-5.125-0.44922-0.75781-1.2578-1.1406-2.4219-1.1406-1.4688 0-2.6055 0.60547-3.4062 1.8125-0.79297 1.1992-1.1875 2.918-1.1875 5.1562v11.766h-7.7031v-23.922h7.7031v3.5c0.9375-1.3516 2.0156-2.3672 3.2344-3.0469 1.2188-0.6875 2.5547-1.0312 4.0156-1.0312 1.6562 0 3.1133 0.40234 4.375 1.2031 1.2695 0.79297 2.2344 1.9062 2.8906 3.3438z"/>
  </symbol>
 </defs>
 <g>
  <path d="m208.77 326.52c-4.832 0-8.75-3.918-8.75-8.75v-125.26c0-2.4609 1.0391-4.8125 2.8555-6.4688l59-53.77c3.3398-3.043 8.457-3.043 11.789 0l59.004 53.77c1.8203 1.6562 2.8594 4.0078 2.8594 6.4688v124.94c0 4.832-3.918 8.75-8.75 8.75-4.832 0-8.75-3.918-8.75-8.75l-0.007813-121.08-50.254-45.793-50.25 45.793 0.003906 121.4c0 4.832-3.918 8.75-8.75 8.75z"/>
  <path d="m248 329.28c-4.832 0-8.75-3.918-8.75-8.75v-26.48c0-15.527 12.633-28.16 28.16-28.16s28.16 12.633 28.16 28.16v17.73c0 4.832-3.918 8.75-8.75 8.75-4.832 0-8.75-3.918-8.75-8.75v-17.73c0-5.8789-4.7812-10.66-10.66-10.66s-10.66 4.7812-10.66 10.66v26.48c0 4.832-3.918 8.75-8.75 8.75z"/>
  <path d="m240.75 244.77h-0.1875c-4.832-0.10156-8.6641-4.1016-8.5664-8.9336l0.33203-15.93c0.10547-4.832 4.1992-8.3906 8.9336-8.5664 4.832 0.10156 8.6641 4.1016 8.5664 8.9336l-0.33203 15.93c-0.10547 4.7695-4 8.5664-8.7461 8.5664z"/>
  <path d="m291.29 244.12h-0.1875c-4.832-0.10156-8.6641-4.1016-8.5664-8.9336l0.33203-15.93c0.10547-4.832 4.3438-8.3789 8.9336-8.5664 4.832 0.10156 8.6641 4.1016 8.5664 8.9336l-0.33203 15.93c-0.10547 4.7656-4 8.5664-8.7461 8.5664z"/>
  <path d="m160.91 466.89c-2.3086 0-4.5234-0.91406-6.1641-2.543-1.6523-1.6406-2.5859-3.875-2.5859-6.207v-154.84c0-4.832 3.918-8.75 8.75-8.75s8.75 3.918 8.75 8.75v146.03l357.61-2.625v-141.67c0-4.832 3.918-8.75 8.75-8.75s8.75 3.918 8.75 8.75v150.36c0 4.8047-3.8789 8.7148-8.6875 8.75l-375.11 2.75c-0.019531 0.007813-0.042969 0.007813-0.0625 0.007813z"/>
  <path d="m227.31 379.16c-13.961 0-27.855-3.9297-40.102-11.688l-29.902-20.059c-4.0117-2.6953-5.0859-8.1289-2.3906-12.141 2.6914-4.0117 8.125-5.0898 12.141-2.3906l29.711 19.934c16.387 10.383 36.895 11.73 54.707 3.5 19.859-9.1992 42.672-9.2617 62.602-0.16797l9.5273 4.3477c4.3945 2.0078 6.332 7.1992 4.3242 11.594-2.0117 4.3945-7.2109 6.3203-11.594 4.3242l-9.5234-4.3477c-15.273-6.9688-32.77-6.9219-47.984 0.12891-10.074 4.6562-20.812 6.9648-31.516 6.9648z"/>
  <path d="m469.92 381.29c-11.32 0-22.664-2.5781-33.176-7.7578-15.93-7.8555-33.828-8.1484-49.586-1.0078-4.3867 2.0156-9.5781 0.050781-11.582-4.3555-1.9961-4.4023-0.046875-9.5859 4.3555-11.582 20.523-9.3125 43.898-8.9336 64.129 1.0391 17.805 8.7812 38.16 8.0586 54.891-1.7383l32.137-18.82c4.1719-2.4609 9.5273-1.043 11.973 3.1289 2.4453 4.1719 1.043 9.5312-3.1289 11.973l-32.137 18.82c-11.703 6.8516-24.773 10.301-37.875 10.301z"/>
  <path d="m347.95 337.09c-10.617 0-21.238-2.2578-31.129-6.7734l-9.5195-4.3438c-15.266-6.9727-32.762-6.9297-47.984 0.125-23.027 10.66-49.543 9.0117-71.066-4.375l-30.914-13.867c-4.4102-1.9766-6.3828-7.1562-4.4062-11.566 1.9844-4.4102 7.1602-6.375 11.566-4.4062l31.465 14.117c0.37891 0.17188 0.75 0.37109 1.1016 0.59375 16.574 10.496 37.094 11.863 54.898 3.6172 19.867-9.1992 42.688-9.2578 62.605-0.16406l9.5195 4.3438c15.125 6.9062 32.477 6.9258 47.59 0.054687l8.7461-3.9648c20.527-9.3164 43.898-8.9453 64.129 1.0391 17.793 8.7891 38.156 8.0586 54.891-1.7383 0.36719-0.21484 0.74609-0.40234 1.1406-0.5625l32.133-12.996c4.5-1.7891 9.5781 0.35938 11.395 4.832 1.8125 4.4805-0.35547 9.5781-4.832 11.395l-31.562 12.762c-21.723 12.457-48.02 13.305-70.484 2.2148-15.934-7.8594-33.859-8.1523-49.586-1.0039l-8.7422 3.9648c-9.832 4.4727-20.391 6.7031-30.953 6.7031z"/>
  <path d="m536.01 435.57h-370.93c-4.832 0-8.75-3.918-8.75-8.75 0-4.832 3.918-8.75 8.75-8.75h370.93c4.832 0 8.75 3.918 8.75 8.75 0.003907 4.832-3.9141 8.75-8.7461 8.75z"/>
  <path d="m397.49 241.55c-4.832 0-8.75-3.918-8.75-8.75v-19.141c0-4.832 3.918-8.75 8.75-8.75 4.832 0 8.75 3.918 8.75 8.75v19.141c0 4.832-3.918 8.75-8.75 8.75z"/>
  <path d="m433.59 255.55c-4.832 0-8.75-3.918-8.75-8.75v-19.141c0-4.832 3.918-8.75 8.75-8.75 4.832 0 8.75 3.918 8.75 8.75v19.141c0 4.832-3.918 8.75-8.75 8.75z"/>
  <path d="m469.68 242.43c-4.832 0-8.75-3.918-8.75-8.75v-19.141c0-4.832 3.918-8.75 8.75-8.75 4.832 0 8.75 3.918 8.75 8.75v19.141c0 4.832-3.918 8.75-8.75 8.75z"/>
  <path d="m493.93 197.09h-67.34c-4.832 0-8.75-3.918-8.75-8.75s3.918-8.75 8.75-8.75h67.34c10.066 0 18.258-7.2422 18.258-16.141 0-8.0781-6.7344-14.98-15.668-16.051-4.3398-0.51562-7.6289-4.1641-7.707-8.5352-0.14844-8.8203-8.3047-15.992-18.188-15.992-1.5352 0-3.0352 0.15625-4.4609 0.47266-4.6367 1.0586-9.2891-1.8633-10.402-6.5039-3.0586-12.77-15.773-22.039-30.227-22.039-12.004 0-22.988 6.3711-27.98 16.234-1.3281 2.6289-3.8906 4.4102-6.8203 4.7422-9.1172 1.0352-15.992 7.9336-15.992 16.043 0 1.2773 0.20312 2.6875 0.625 4.3125 1.1875 4.5703-1.4688 9.2578-6.0039 10.59-5.4961 1.6133-9.9727 5.6523-11.68 10.535-1.668 4.7773-1.293 8.2539 1.3281 12.402 3.2812 5.375 9.4375 8.6406 16.137 8.6406l19.43-0.22656h0.10156c4.7852 0 8.6953 3.8477 8.75 8.6484 0.054688 4.832-3.8164 8.7969-8.6484 8.8516l-19.535 0.22656c-12.859 0-24.742-6.4766-31.102-16.902-5.418-8.5664-6.418-17.574-2.9883-27.414 2.7734-7.918 8.5664-14.512 16.098-18.598-0.011719-0.35938-0.015625-0.71484-0.015625-1.0664 0-15.543 11.305-28.883 26.961-32.633 8.6484-13.426 24.391-21.887 41.332-21.887 19.656 0 37.336 11.434 44.738 28.066 17.07-0.0625 31.398 11.102 35.121 26.117 14.234 4.5078 24.297 17.27 24.297 31.961 0 18.555-16.039 33.645-35.758 33.645z"/>
  <use x="70" y="691.25" xlink:href="#l"/>
  <use x="102.109375" y="691.25" xlink:href="#f"/>
  <use x="123.683594" y="691.25" xlink:href="#e"/>
  <use x="153.355469" y="691.25" xlink:href="#b"/>
  <use x="182.878906" y="691.25" xlink:href="#d"/>
  <use x="203.792969" y="691.25" xlink:href="#e"/>
  <use x="233.464844" y="691.25" xlink:href="#j"/>
  <use x="280.011719" y="691.25" xlink:href="#a"/>
  <use x="311.328125" y="691.25" xlink:href="#i"/>
  <use x="355.078125" y="691.25" xlink:href="#a"/>
  <use x="386.398438" y="691.25" xlink:href="#b"/>
  <use x="415.917969" y="691.25" xlink:href="#h"/>
  <use x="441.960938" y="691.25" xlink:href="#c"/>
  <use x="456.957031" y="691.25" xlink:href="#d"/>
  <use x="477.871094" y="691.25" xlink:href="#g"/>
  <use x="524.25" y="691.25" xlink:href="#c"/>
  <use x="539.246094" y="691.25" xlink:href="#a"/>
  <use x="570.5625" y="691.25" xlink:href="#f"/>
  <use x="592.136719" y="691.25" xlink:href="#b"/>
  <use x="621.660156" y="691.25" xlink:href="#g"/>
  <use x="652.804688" y="691.25" xlink:href="#c"/>
  <use x="667.804688" y="691.25" xlink:href="#k"/>
 </g>
</svg>
