<?xml version="1.0" encoding="UTF-8"?>
<svg width="700pt" height="700pt" version="1.1" viewBox="0 0 700 700" xmlns="http://www.w3.org/2000/svg" xmlns:xlink="http://www.w3.org/1999/xlink">
 <defs>
  <symbol id="m" overflow="visible">
   <path d="m29.312-1.75c-1.5117 0.78125-3.0898 1.3711-4.7344 1.7656-1.6367 0.40625-3.3398 0.60938-5.1094 0.60938-5.3125 0-9.5273-1.4844-12.641-4.4531-3.1055-2.9688-4.6562-7-4.6562-12.094s1.5508-9.125 4.6562-12.094c3.1133-2.9688 7.3281-4.4531 12.641-4.4531 1.7695 0 3.4727 0.19922 5.1094 0.59375 1.6445 0.39844 3.2227 0.99219 4.7344 1.7812v6.5938c-1.5312-1.0391-3.0391-1.8008-4.5156-2.2812-1.4805-0.48828-3.0391-0.73438-4.6719-0.73438-2.9375 0-5.2461 0.94531-6.9219 2.8281-1.6797 1.875-2.5156 4.4648-2.5156 7.7656 0 3.293 0.83594 5.8828 2.5156 7.7656 1.6758 1.875 3.9844 2.8125 6.9219 2.8125 1.6328 0 3.1914-0.23828 4.6719-0.71875 1.4766-0.48828 2.9844-1.2539 4.5156-2.2969z"/>
  </symbol>
  <symbol id="e" overflow="visible">
   <path d="m21.453-17.406c-0.67969-0.3125-1.3516-0.53906-2.0156-0.6875-0.65625-0.15625-1.3203-0.23438-1.9844-0.23438-1.9688 0-3.4844 0.63281-4.5469 1.8906-1.0547 1.2617-1.5781 3.0703-1.5781 5.4219v11.016h-7.6562v-23.922h7.6562v3.9219c0.97656-1.5625 2.1016-2.7031 3.375-3.4219 1.2812-0.71875 2.8125-1.0781 4.5938-1.0781 0.25 0 0.52344 0.011719 0.82812 0.03125 0.30078 0.023438 0.73438 0.070312 1.2969 0.14062z"/>
  </symbol>
  <symbol id="d" overflow="visible">
   <path d="m27.562-12.031v2.1875h-17.891c0.1875 1.793 0.83203 3.1367 1.9375 4.0312 1.1133 0.89844 2.6719 1.3438 4.6719 1.3438 1.6016 0 3.25-0.23438 4.9375-0.70312 1.6875-0.47656 3.4219-1.2031 5.2031-2.1719v5.8906c-1.8047 0.6875-3.6094 1.2031-5.4219 1.5469-1.8125 0.35156-3.6211 0.53125-5.4219 0.53125-4.3359 0-7.7031-1.0977-10.109-3.2969-2.3984-2.207-3.5938-5.2969-3.5938-9.2656 0-3.9062 1.1758-6.9727 3.5312-9.2031 2.3633-2.2383 5.6094-3.3594 9.7344-3.3594 3.7578 0 6.7695 1.1367 9.0312 3.4062 2.2578 2.2617 3.3906 5.2812 3.3906 9.0625zm-7.8594-2.5312c0-1.457-0.42969-2.6289-1.2812-3.5156-0.84375-0.89453-1.9492-1.3438-3.3125-1.3438-1.4922 0-2.6992 0.41797-3.625 1.25-0.91797 0.83594-1.4922 2.0391-1.7188 3.6094z"/>
  </symbol>
  <symbol id="i" overflow="visible">
   <path d="m14.391-10.766c-1.5938 0-2.793 0.27344-3.5938 0.8125-0.80469 0.54297-1.2031 1.3398-1.2031 2.3906 0 0.96875 0.32031 1.7305 0.96875 2.2812 0.64453 0.54297 1.5469 0.8125 2.7031 0.8125 1.4375 0 2.6445-0.51562 3.625-1.5469 0.98828-1.0312 1.4844-2.3203 1.4844-3.875v-0.875zm11.688-2.8906v13.656h-7.7031v-3.5469c-1.0312 1.4492-2.1875 2.5078-3.4688 3.1719s-2.8398 1-4.6719 1c-2.4805 0-4.4961-0.72266-6.0469-2.1719-1.543-1.4453-2.3125-3.3203-2.3125-5.625 0-2.8125 0.96094-4.8672 2.8906-6.1719 1.9375-1.3125 4.9688-1.9688 9.0938-1.9688h4.5156v-0.60938c0-1.207-0.48047-2.0938-1.4375-2.6562-0.94922-0.5625-2.4375-0.84375-4.4688-0.84375-1.6367 0-3.1562 0.16797-4.5625 0.5-1.4062 0.32422-2.7188 0.8125-3.9375 1.4688v-5.8281c1.6445-0.40625 3.2891-0.70703 4.9375-0.90625 1.6562-0.20703 3.3047-0.3125 4.9531-0.3125 4.3203 0 7.4375 0.85547 9.3438 2.5625 1.9141 1.6992 2.875 4.4609 2.875 8.2812z"/>
  </symbol>
  <symbol id="h" overflow="visible">
   <path d="m12.031-30.719v6.7969h7.875v5.4688h-7.875v10.141c0 1.1172 0.21875 1.8711 0.65625 2.2656 0.4375 0.38672 1.3125 0.57812 2.625 0.57812h3.9375v5.4688h-6.5625c-3.0234 0-5.1641-0.62891-6.4219-1.8906-1.2617-1.2578-1.8906-3.3984-1.8906-6.4219v-10.141h-3.7969v-5.4688h3.7969v-6.7969z"/>
  </symbol>
  <symbol id="a" overflow="visible">
   <path d="m19.953-20.422v-12.812h7.6875v33.234h-7.6875v-3.4531c-1.0547 1.4062-2.2148 2.4375-3.4844 3.0938-1.2734 0.65625-2.7422 0.98438-4.4062 0.98438-2.9492 0-5.3711-1.1719-7.2656-3.5156-1.8867-2.3438-2.8281-5.3594-2.8281-9.0469s0.94141-6.7031 2.8281-9.0469c1.8945-2.3438 4.3164-3.5156 7.2656-3.5156 1.6562 0 3.1172 0.33594 4.3906 1 1.2812 0.65625 2.4453 1.6836 3.5 3.0781zm-5.0469 15.484c1.6445 0 2.8945-0.59766 3.75-1.7969 0.86328-1.1953 1.2969-2.9297 1.2969-5.2031 0-2.2812-0.43359-4.0195-1.2969-5.2188-0.85547-1.1953-2.1055-1.7969-3.75-1.7969-1.625 0-2.8711 0.60156-3.7344 1.7969-0.85547 1.1992-1.2812 2.9375-1.2812 5.2188 0 2.2734 0.42578 4.0078 1.2812 5.2031 0.86328 1.1992 2.1094 1.7969 3.7344 1.7969z"/>
  </symbol>
  <symbol id="c" overflow="visible">
   <path d="m16.406-4.9375c1.6328 0 2.8828-0.59766 3.75-1.7969 0.86328-1.1953 1.2969-2.9297 1.2969-5.2031 0-2.2812-0.43359-4.0195-1.2969-5.2188-0.86719-1.1953-2.1172-1.7969-3.75-1.7969-1.6367 0-2.8906 0.60547-3.7656 1.8125-0.875 1.1992-1.3125 2.9336-1.3125 5.2031 0 2.2617 0.4375 3.9961 1.3125 5.2031 0.875 1.1992 2.1289 1.7969 3.7656 1.7969zm-5.0781-15.484c1.0508-1.3945 2.2188-2.4219 3.5-3.0781 1.2812-0.66406 2.7539-1 4.4219-1 2.9453 0 5.3672 1.1719 7.2656 3.5156 1.8945 2.3438 2.8438 5.3594 2.8438 9.0469s-0.94922 6.7031-2.8438 9.0469c-1.8984 2.3438-4.3203 3.5156-7.2656 3.5156-1.668 0-3.1406-0.33594-4.4219-1s-2.4492-1.6914-3.5-3.0781v3.4531h-7.6562v-33.234h7.6562z"/>
  </symbol>
  <symbol id="g" overflow="visible">
   <path d="m0.53125-23.922h7.6562l6.4219 16.234 5.4688-16.234h7.6562l-10.062 26.188c-1.0117 2.6641-2.1953 4.5234-3.5469 5.5781-1.3438 1.0625-3.1211 1.5938-5.3281 1.5938h-4.4219v-5.0156h2.3906c1.3008 0 2.2422-0.21094 2.8281-0.625 0.59375-0.40625 1.0547-1.1484 1.3906-2.2188l0.20312-0.65625z"/>
  </symbol>
  <symbol id="b" overflow="visible">
   <path d="m23.375-5.8125h-12.859l-2.0312 5.8125h-8.2656l11.812-31.891h9.7969l11.812 31.891h-8.2656zm-10.812-5.9219h8.7344l-4.3594-12.688z"/>
  </symbol>
  <symbol id="l" overflow="visible">
   <path d="m27.734-14.562v14.562h-7.7031v-11.156c0-2.0625-0.046875-3.4844-0.14062-4.2656-0.085937-0.78125-0.24219-1.3594-0.46875-1.7344-0.30469-0.5-0.71094-0.88281-1.2188-1.1562-0.51172-0.28125-1.0938-0.42188-1.75-0.42188-1.5938 0-2.8516 0.61719-3.7656 1.8438-0.90625 1.2305-1.3594 2.9375-1.3594 5.125v11.766h-7.6562v-23.922h7.6562v3.5c1.1445-1.3945 2.3633-2.4219 3.6562-3.0781 1.3008-0.66406 2.7383-1 4.3125-1 2.7578 0 4.8516 0.85156 6.2812 2.5469 1.4375 1.6875 2.1562 4.1523 2.1562 7.3906z"/>
  </symbol>
  <symbol id="f" overflow="visible">
   <path d="m3.6719-23.922h7.6562v23.922h-7.6562zm0-9.3125h7.6562v6.2344h-7.6562z"/>
  </symbol>
  <symbol id="k" overflow="visible">
   <path d="m4.0156-31.891h9.1875l11.594 21.875v-21.875h7.7969v31.891h-9.1875l-11.594-21.875v21.875h-7.7969z"/>
  </symbol>
  <symbol id="j" overflow="visible">
   <path d="m3.4219-9.3125v-14.609h7.6875v2.3906c0 1.293-0.011719 2.918-0.03125 4.875-0.011719 1.9609-0.015625 3.2656-0.015625 3.9219 0 1.9297 0.046875 3.3125 0.14062 4.1562 0.10156 0.84375 0.28125 1.4609 0.53125 1.8438 0.3125 0.5 0.71875 0.88672 1.2188 1.1562 0.50781 0.27344 1.0938 0.40625 1.75 0.40625 1.5938 0 2.8438-0.60938 3.75-1.8281 0.91406-1.2266 1.375-2.9297 1.375-5.1094v-11.812h7.6406v23.922h-7.6406v-3.4531c-1.1562 1.3867-2.3828 2.4141-3.6719 3.0781-1.2812 0.66406-2.6992 1-4.25 1-2.7734 0-4.8828-0.84766-6.3281-2.5469-1.4375-1.6953-2.1562-4.1602-2.1562-7.3906z"/>
  </symbol>
 </defs>
 <g>
  <path d="m595 262.5h-52.5v-83.914c0.78906-1.1367 1.4883-2.2734 2.1016-3.5 3.3242 1.2266 6.9141 1.8359 10.5 1.8359 17.676 0 32.113-14.352 32.113-32.113 0-1.2266 0-2.3633-0.17578-3.5859 9.5391-5.6016 15.75-16.012 15.75-27.477 0-11.461-6.2109-21.875-15.75-27.477 0.17578-1.2266 0.17578-2.3633 0.17578-3.5859 0-17.676-14.352-32.113-32.113-32.113-3.5859 0-7.1758 0.61328-10.5 1.8359-5.3359-10.324-16.188-17.324-28.352-17.324s-23.012 7-28.352 17.324c-3.3242-1.2266-6.9141-1.8359-10.5-1.8359-17.676 0-32.113 14.352-32.113 32.113 0 1.2266 0 2.3633 0.17578 3.5859-9.5391 5.6016-15.75 16.012-15.75 27.477 0 11.461 6.2109 21.875 15.75 27.477-0.17578 1.2266-0.17578 2.3633-0.17578 3.5859 0 17.676 14.352 32.113 32.113 32.113 3.5859 0 7.1758-0.61328 10.5-1.8359 0.61328 1.2266 1.3125 2.3633 2.1016 3.5v83.914h-3.1484c-2.625 0-5.0742 1.1367-6.7383 3.2383l-23.102 28.086c-1.3125 1.5742-2.0117 3.5-2.0117 5.5117v57.312l-32.375 64.836-44.801 14-19.773-45.852c-0.96094-2.2734-2.9766-4.1133-5.3359-4.8984l-49.352-15.926-17.676-30.273c-0.78906-1.3984-1.9258-2.4492-3.3242-3.2383l-37.012-20.387v-43.75c0-4.8125-3.9375-8.75-8.75-8.75h-26.602v-83.914c0.78906-1.1367 1.4883-2.2734 2.1016-3.5 3.3242 1.2266 6.9141 1.8359 10.5 1.8359 17.676 0 32.113-14.352 32.113-32.113 0-1.2266 0-2.4492-0.17578-3.5859 9.5391-5.6016 15.75-16.012 15.75-27.477 0-11.461-6.2109-21.875-15.75-27.477 0.17578-1.2266 0.17578-2.3633 0.17578-3.5859 0-17.676-14.438-32.113-32.113-32.113-3.5859 0-7.1758 0.61328-10.5 1.8359-5.3359-10.324-16.188-17.324-28.352-17.324s-23.012 7-28.352 17.324c-3.3242-1.2266-6.9141-1.8359-10.5-1.8359-17.676 0-32.113 14.352-32.113 32.113 0 1.2266 0 2.4492 0.17578 3.5859-9.5391 5.6016-15.75 16.012-15.75 27.477 0 11.461 6.2109 21.875 15.75 27.477-0.17578 1.2266-0.17578 2.3633-0.17578 3.5859 0 17.676 14.438 32.113 32.113 32.113 3.5859 0 7.1758-0.61328 10.5-1.8359 0.61328 1.2266 1.3125 2.3633 2.1016 3.5v83.914h-52.5c-4.8125 0-8.75 3.9375-8.75 8.75v245c0 4.8125 3.9375 8.75 8.75 8.75h490c4.8125 0 8.75-3.9375 8.75-8.75v-245c0-4.8125-3.9375-8.75-8.75-8.75zm-107.8-106.93c-2.7109 2.5391-6.2109 3.9375-9.8008 3.9375-8.0508 0-14.613-6.5625-14.613-14.613 0-1.8359 0.35156-3.6758 1.0508-5.5117 0.96094-2.3633 0.78906-4.8984-0.35156-7.1758-1.1367-2.2734-3.1484-3.8516-5.6016-4.5508-6.3008-1.6641-10.762-7.4375-10.762-13.914 0-6.4766 4.4609-12.25 10.762-13.914 2.4492-0.61328 4.4609-2.2734 5.6016-4.5508 1.1367-2.1875 1.2266-4.8125 0.35156-7.1758-0.69922-1.8359-1.0508-3.6758-1.0508-5.5117 0-8.0508 6.5625-14.613 14.613-14.613 3.5859 0 7.0859 1.3984 9.8008 3.9375 2.4492 2.2734 6.0391 2.8867 9.1875 1.75 3.1484-1.2266 5.25-4.1992 5.5117-7.5234 0.52344-7.6992 6.9141-13.648 14.438-13.648 7.5234 0 13.914 5.9492 14.438 13.648 0.26172 3.3242 2.3633 6.3008 5.5117 7.5234 3.1484 1.2266 6.6484 0.61328 9.1875-1.75 2.7109-2.5391 6.2109-3.9375 9.8008-3.9375 8.0508 0 14.613 6.5625 14.613 14.613 0 1.8359-0.35156 3.6758-1.0508 5.5117-0.96094 2.3633-0.78906 4.8984 0.35156 7.1758 1.1367 2.2734 3.1484 3.8516 5.6016 4.5508 6.3008 1.6641 10.762 7.4375 10.762 13.914 0 6.4766-4.4609 12.25-10.762 13.914-2.4492 0.61328-4.4609 2.2734-5.6016 4.5508-1.1367 2.1875-1.2266 4.8125-0.35156 7.1758 0.69922 1.8359 1.0508 3.6758 1.0508 5.5117 0 8.0508-6.5625 14.613-14.613 14.613-3.5859 0-7.0859-1.3984-9.8008-3.9375-2.4492-2.2734-6.0391-2.9766-9.1875-1.75-3.1484 1.2266-5.25 4.1992-5.5117 7.5234-0.52344 7.6992-6.9141 13.648-14.438 13.648-7.5234 0-13.914-5.9492-14.438-13.648-0.26172-3.3242-2.3633-6.3008-5.5117-7.5234-1.0508-0.4375-2.1016-0.61328-3.2383-0.61328-2.1875 0-4.2891 0.78906-5.9492 2.3633zm20.387 35.699c2.8008 0.78906 5.6875 1.2266 8.75 1.2266s5.9492-0.4375 8.75-1.2266v71.227h-17.5zm-16.539 88.727h95.199v26.25h-113.75v-3.7617l18.461-22.488zm-336.43-124.43c-2.7109 2.5391-6.2109 3.9375-9.8008 3.9375-8.0508 0-14.613-6.5625-14.613-14.613 0-1.8359 0.35156-3.6758 1.0508-5.4258 0.96094-2.3633 0.78906-4.8984-0.35156-7.1758-1.1367-2.2734-3.1484-3.8516-5.6016-4.5508-6.3008-1.6641-10.762-7.4375-10.762-13.914 0-6.4766 4.4609-12.25 10.762-13.914 2.4492-0.61328 4.4609-2.2734 5.6016-4.5508 1.1367-2.2734 1.2266-4.8125 0.35156-7.1758-0.69922-1.8359-1.0508-3.5859-1.0508-5.4258 0-8.0508 6.5625-14.613 14.613-14.613 3.5859 0 7.0859 1.3984 9.8008 3.9375 2.4492 2.2734 6.0391 2.8867 9.1875 1.75 3.1484-1.2266 5.25-4.1992 5.5117-7.5234 0.52344-7.6992 6.9141-13.648 14.438-13.648s13.914 5.9492 14.438 13.648c0.26172 3.3242 2.3633 6.3008 5.5117 7.5234 3.1484 1.2266 6.6484 0.61328 9.1875-1.75 2.7109-2.5391 6.2109-3.9375 9.8008-3.9375 8.0508 0 14.613 6.5625 14.613 14.613 0 1.8359-0.35156 3.6758-1.0508 5.4258-0.96094 2.3633-0.78906 4.8984 0.35156 7.1758 1.1367 2.2734 3.1484 3.8516 5.6016 4.5508 6.3008 1.6641 10.762 7.4375 10.762 13.914 0 6.4766-4.4609 12.25-10.762 13.914-2.4492 0.61328-4.4609 2.2734-5.6016 4.5508-1.1367 2.2734-1.2266 4.8125-0.35156 7.1758 0.69922 1.8359 1.0508 3.5859 1.0508 5.4258 0 8.0508-6.5625 14.613-14.613 14.613-3.5859 0-7.0859-1.3984-9.8008-3.9375-2.4492-2.2734-6.0391-2.9766-9.1875-1.75-3.1484 1.2266-5.25 4.1992-5.5117 7.5234-0.52344 7.6992-6.9141 13.648-14.438 13.648s-13.914-5.9492-14.438-13.648c-0.26172-3.3242-2.3633-6.3008-5.5117-7.5234-1.0508-0.4375-2.1016-0.61328-3.2383-0.61328-2.1875 0-4.2891 0.78906-5.9492 2.3633zm20.387 35.699c2.8008 0.78906 5.6875 1.2266 8.75 1.2266s5.9492-0.4375 8.75-1.2266v71.227h-17.5zm52.852 88.727v26.25h-114.1v-26.25zm-114.1 227.5v-183.75h109.81l-20.738 30.012c-1.3984 2.1016-1.9258 4.6367-1.3125 7.0859l7.2617 29.051-21.086 14.086c-1.2266 0.78906-2.1875 1.9258-2.8867 3.2383l-17.5 33.512c-2.2734 4.2891-0.61328 9.5391 3.6758 11.812 1.3125 0.69922 2.7109 0.96094 4.0234 0.96094 3.1484 0 6.2109-1.75 7.7891-4.7266l16.449-31.5 19.25-12.863 26.512 19.949v17.062c0 3.1484 1.6641 6.0391 4.375 7.6133l13.738 7.7891c1.3984 0.78906 2.8867 1.1367 4.2891 1.1367 3.0625 0 6.0391-1.5742 7.6133-4.375 2.3633-4.1992 0.96094-9.5391-3.2383-11.898l-9.2734-5.3359v-16.363c0-2.7109-1.3125-5.3359-3.5-7l-32.551-24.414-7-28.176 19.863-28.789 32.461 17.938 18.113 31.062c1.0508 1.8359 2.8008 3.2383 4.8984 3.9375l48.738 15.75 21.352 49.438c1.75 4.1133 6.3867 6.2109 10.676 4.8984l55.824-17.5c2.2734-0.69922 4.1133-2.2734 5.25-4.4609l30.887-61.863 24.762 13.648 13.301 25.113-30.449 30.449c-0.96094 0.96094-1.6641 2.1016-2.1016 3.4141l-8.75 26.25c-1.4883 4.5508 0.96094 9.5391 5.5117 11.023 0.96094 0.35156 1.8359 0.4375 2.8008 0.4375 3.6758 0 7.0859-2.2734 8.3125-5.9492l8.1367-24.324 23.539-23.539 4.2891 12.863c0.26172 0.69922 0.61328 1.3984 1.0508 2.1016l17.5 26.25c1.6641 2.5391 4.4609 3.9375 7.2617 3.9375 1.6641 0 3.3242-0.4375 4.8125-1.4883 4.0234-2.7109 5.0742-8.1367 2.4492-12.164l-16.887-25.289-8.3984-25.113-0.26172-0.52344c-0.085937-0.26172-0.17578-0.52344-0.26172-0.78906l-17.5-33.164c-0.78906-1.4883-2.0117-2.7109-3.5-3.5859l-30.449-16.887v-29.836h113.75v183.75l-472.68 0.011718zm148.75-299.51c0.52344 1.0508 1.0508 2.1016 1.75 3.1484-6.2109 9.1875-7.3516 21.262-2.3633 31.586 4.9883 10.324 14.961 17.062 26.074 18.023 0.35156 1.1367 0.875 2.2734 1.3984 3.3242 5.5117 11.551 16.977 18.289 29.051 18.289 4.6367 0 9.2734-0.96094 13.738-3.1484 3.2383-1.5742 6.2109-3.6758 8.75-6.125 1.0508 0.78906 2.1875 1.4883 3.3242 2.1875l36.227 75.688c1.9258 4.1992 5.4258 7.4375 9.8008 9.0117 2.0117 0.69922 4.0234 1.1367 6.125 1.1367 2.5391 0 5.0742-0.52344 7.5234-1.6641l15.75-7.5234c8.6641-4.1133 12.426-14.613 8.3125-23.363l-36.137-75.688c0.17578-1.3125 0.35156-2.7109 0.4375-4.0234 3.5-0.35156 7-1.3125 10.238-2.8867 7.7891-3.6758 13.562-10.148 16.449-18.199s2.3633-16.801-1.3125-24.5c-0.52344-1.0508-1.0508-2.1016-1.75-3.1484 6.2109-9.1875 7.3516-21.262 2.3633-31.586-4.8984-10.414-14.961-17.062-26.074-18.023-0.35156-1.1367-0.875-2.2734-1.3984-3.3242-7.6133-16.012-26.773-22.75-42.789-15.137-3.2383 1.5742-6.2109 3.6758-8.75 6.125-9.2734-7-22.051-8.75-33.074-3.5-11.023 5.25-17.762 16.273-18.113 27.914-3.5 0.35156-7 1.3125-10.238 2.8867-16.012 7.6133-22.75 26.773-15.137 42.789zm133.52 135.54-30.711-64.227c2.8867-0.4375 5.7734-1.3125 8.4883-2.625 2.7109-1.3125 5.1641-2.9766 7.3516-4.8984l30.625 64.312-15.75 7.4375zm-114.45-138.6c-1.4883-1.3125-2.5391-2.8008-3.3242-4.4609-3.5-7.2617-0.35156-16.012 6.9141-19.426 3.2383-1.5742 6.9141-1.8359 10.5-0.69922 3.2383 1.0508 6.7383 0 9.0117-2.3633 2.2734-2.4492 2.9766-6.0391 1.75-9.1875-2.8008-7.1758 0.35156-15.312 7.1758-18.551 6.8242-3.2383 15.137-0.61328 18.898 6.125 1.6641 2.8867 4.8125 4.6367 8.2266 4.375 3.3242-0.26172 6.3008-2.3633 7.5234-5.5117 1.3984-3.4141 3.9375-6.2109 7.1758-7.6992 7.2617-3.4141 16.012-0.35156 19.426 6.9141 0.78906 1.6641 1.2266 3.4141 1.3984 5.4258 0.17578 2.5391 1.3984 4.8125 3.4141 6.3008 2.0117 1.5742 4.5508 2.1016 7 1.6641 6.4766-1.2266 12.949 2.1016 15.75 7.9609 2.8008 5.8633 1.3125 12.949-3.7617 17.238-1.9258 1.6641-3.0625 4.0234-3.0625 6.4766 0 2.5391 0.96094 4.8984 2.8008 6.5625 1.4883 1.3125 2.5391 2.8008 3.3242 4.4609 1.6641 3.5 1.9258 7.5234 0.61328 11.113-1.3125 3.6758-3.9375 6.5625-7.5234 8.3125-3.2383 1.5742-6.9141 1.75-10.5 0.69922-3.2383-0.96094-6.7383 0-9.0117 2.3633-2.2734 2.4492-2.9766 6.0391-1.75 9.1875 2.8008 7.1758-0.35156 15.312-7.1758 18.551-6.8242 3.2383-15.137 0.52344-18.898-6.125-1.6641-2.8867-4.8125-4.6367-8.2266-4.4609-3.3242 0.26172-6.3008 2.3633-7.5234 5.5117-1.3984 3.4141-3.9375 6.2109-7.1758 7.6992-7.2617 3.4141-16.012 0.35156-19.426-6.9141-0.78906-1.6641-1.2266-3.4141-1.3984-5.4258-0.17578-2.5391-1.3984-4.8125-3.3242-6.3867-1.5742-1.2266-3.4141-1.8359-5.3359-1.8359-0.52344 0-1.0508 0-1.5742 0.17578-6.4766 1.1367-12.949-2.1016-15.75-7.9609-2.8008-5.8633-1.3125-12.949 3.6758-17.238 1.9258-1.6641 3.0625-4.0234 3.0625-6.4766 0-2.5391-0.96094-4.8984-2.8008-6.6484z"/>
  <use x="70" y="691.25" xlink:href="#m"/>
  <use x="102.109375" y="691.25" xlink:href="#e"/>
  <use x="123.683594" y="691.25" xlink:href="#d"/>
  <use x="153.355469" y="691.25" xlink:href="#i"/>
  <use x="182.878906" y="691.25" xlink:href="#h"/>
  <use x="203.792969" y="691.25" xlink:href="#d"/>
  <use x="233.464844" y="691.25" xlink:href="#a"/>
  <use x="280.011719" y="691.25" xlink:href="#c"/>
  <use x="311.328125" y="691.25" xlink:href="#g"/>
  <use x="355.078125" y="691.25" xlink:href="#b"/>
  <use x="388.9375" y="691.25" xlink:href="#l"/>
  <use x="420.085938" y="691.25" xlink:href="#a"/>
  <use x="451.402344" y="691.25" xlink:href="#f"/>
  <use x="481.628906" y="691.25" xlink:href="#k"/>
  <use x="518.246094" y="691.25" xlink:href="#j"/>
  <use x="549.390625" y="691.25" xlink:href="#e"/>
  <use x="586.199219" y="691.25" xlink:href="#b"/>
  <use x="620.058594" y="691.25" xlink:href="#c"/>
  <use x="651.375" y="691.25" xlink:href="#a"/>
  <use x="682.691406" y="691.25" xlink:href="#f"/>
 </g>
</svg>
