<?xml version="1.0" encoding="UTF-8"?>
<svg width="700pt" height="700pt" version="1.1" viewBox="0 0 700 700" xmlns="http://www.w3.org/2000/svg" xmlns:xlink="http://www.w3.org/1999/xlink">
 <defs>
  <symbol id="m" overflow="visible">
   <path d="m29.312-1.75c-1.5117 0.78125-3.0898 1.3711-4.7344 1.7656-1.6367 0.40625-3.3398 0.60938-5.1094 0.60938-5.3125 0-9.5273-1.4844-12.641-4.4531-3.1055-2.9688-4.6562-7-4.6562-12.094s1.5508-9.125 4.6562-12.094c3.1133-2.9688 7.3281-4.4531 12.641-4.4531 1.7695 0 3.4727 0.19922 5.1094 0.59375 1.6445 0.39844 3.2227 0.99219 4.7344 1.7812v6.5938c-1.5312-1.0391-3.0391-1.8008-4.5156-2.2812-1.4805-0.48828-3.0391-0.73438-4.6719-0.73438-2.9375 0-5.2461 0.94531-6.9219 2.8281-1.6797 1.875-2.5156 4.4648-2.5156 7.7656 0 3.293 0.83594 5.8828 2.5156 7.7656 1.6758 1.875 3.9844 2.8125 6.9219 2.8125 1.6328 0 3.1914-0.23828 4.6719-0.71875 1.4766-0.48828 2.9844-1.2539 4.5156-2.2969z"/>
  </symbol>
  <symbol id="d" overflow="visible">
   <path d="m21.453-17.406c-0.67969-0.3125-1.3516-0.53906-2.0156-0.6875-0.65625-0.15625-1.3203-0.23438-1.9844-0.23438-1.9688 0-3.4844 0.63281-4.5469 1.8906-1.0547 1.2617-1.5781 3.0703-1.5781 5.4219v11.016h-7.6562v-23.922h7.6562v3.9219c0.97656-1.5625 2.1016-2.7031 3.375-3.4219 1.2812-0.71875 2.8125-1.0781 4.5938-1.0781 0.25 0 0.52344 0.011719 0.82812 0.03125 0.30078 0.023438 0.73438 0.070312 1.2969 0.14062z"/>
  </symbol>
  <symbol id="a" overflow="visible">
   <path d="m27.562-12.031v2.1875h-17.891c0.1875 1.793 0.83203 3.1367 1.9375 4.0312 1.1133 0.89844 2.6719 1.3438 4.6719 1.3438 1.6016 0 3.25-0.23438 4.9375-0.70312 1.6875-0.47656 3.4219-1.2031 5.2031-2.1719v5.8906c-1.8047 0.6875-3.6094 1.2031-5.4219 1.5469-1.8125 0.35156-3.6211 0.53125-5.4219 0.53125-4.3359 0-7.7031-1.0977-10.109-3.2969-2.3984-2.207-3.5938-5.2969-3.5938-9.2656 0-3.9062 1.1758-6.9727 3.5312-9.2031 2.3633-2.2383 5.6094-3.3594 9.7344-3.3594 3.7578 0 6.7695 1.1367 9.0312 3.4062 2.2578 2.2617 3.3906 5.2812 3.3906 9.0625zm-7.8594-2.5312c0-1.457-0.42969-2.6289-1.2812-3.5156-0.84375-0.89453-1.9492-1.3438-3.3125-1.3438-1.4922 0-2.6992 0.41797-3.625 1.25-0.91797 0.83594-1.4922 2.0391-1.7188 3.6094z"/>
  </symbol>
  <symbol id="c" overflow="visible">
   <path d="m14.391-10.766c-1.5938 0-2.793 0.27344-3.5938 0.8125-0.80469 0.54297-1.2031 1.3398-1.2031 2.3906 0 0.96875 0.32031 1.7305 0.96875 2.2812 0.64453 0.54297 1.5469 0.8125 2.7031 0.8125 1.4375 0 2.6445-0.51562 3.625-1.5469 0.98828-1.0312 1.4844-2.3203 1.4844-3.875v-0.875zm11.688-2.8906v13.656h-7.7031v-3.5469c-1.0312 1.4492-2.1875 2.5078-3.4688 3.1719s-2.8398 1-4.6719 1c-2.4805 0-4.4961-0.72266-6.0469-2.1719-1.543-1.4453-2.3125-3.3203-2.3125-5.625 0-2.8125 0.96094-4.8672 2.8906-6.1719 1.9375-1.3125 4.9688-1.9688 9.0938-1.9688h4.5156v-0.60938c0-1.207-0.48047-2.0938-1.4375-2.6562-0.94922-0.5625-2.4375-0.84375-4.4688-0.84375-1.6367 0-3.1562 0.16797-4.5625 0.5-1.4062 0.32422-2.7188 0.8125-3.9375 1.4688v-5.8281c1.6445-0.40625 3.2891-0.70703 4.9375-0.90625 1.6562-0.20703 3.3047-0.3125 4.9531-0.3125 4.3203 0 7.4375 0.85547 9.3438 2.5625 1.9141 1.6992 2.875 4.4609 2.875 8.2812z"/>
  </symbol>
  <symbol id="b" overflow="visible">
   <path d="m12.031-30.719v6.7969h7.875v5.4688h-7.875v10.141c0 1.1172 0.21875 1.8711 0.65625 2.2656 0.4375 0.38672 1.3125 0.57812 2.625 0.57812h3.9375v5.4688h-6.5625c-3.0234 0-5.1641-0.62891-6.4219-1.8906-1.2617-1.2578-1.8906-3.3984-1.8906-6.4219v-10.141h-3.7969v-5.4688h3.7969v-6.7969z"/>
  </symbol>
  <symbol id="i" overflow="visible">
   <path d="m19.953-20.422v-12.812h7.6875v33.234h-7.6875v-3.4531c-1.0547 1.4062-2.2148 2.4375-3.4844 3.0938-1.2734 0.65625-2.7422 0.98438-4.4062 0.98438-2.9492 0-5.3711-1.1719-7.2656-3.5156-1.8867-2.3438-2.8281-5.3594-2.8281-9.0469s0.94141-6.7031 2.8281-9.0469c1.8945-2.3438 4.3164-3.5156 7.2656-3.5156 1.6562 0 3.1172 0.33594 4.3906 1 1.2812 0.65625 2.4453 1.6836 3.5 3.0781zm-5.0469 15.484c1.6445 0 2.8945-0.59766 3.75-1.7969 0.86328-1.1953 1.2969-2.9297 1.2969-5.2031 0-2.2812-0.43359-4.0195-1.2969-5.2188-0.85547-1.1953-2.1055-1.7969-3.75-1.7969-1.625 0-2.8711 0.60156-3.7344 1.7969-0.85547 1.1992-1.2812 2.9375-1.2812 5.2188 0 2.2734 0.42578 4.0078 1.2812 5.2031 0.86328 1.1992 2.1094 1.7969 3.7344 1.7969z"/>
  </symbol>
  <symbol id="h" overflow="visible">
   <path d="m16.406-4.9375c1.6328 0 2.8828-0.59766 3.75-1.7969 0.86328-1.1953 1.2969-2.9297 1.2969-5.2031 0-2.2812-0.43359-4.0195-1.2969-5.2188-0.86719-1.1953-2.1172-1.7969-3.75-1.7969-1.6367 0-2.8906 0.60547-3.7656 1.8125-0.875 1.1992-1.3125 2.9336-1.3125 5.2031 0 2.2617 0.4375 3.9961 1.3125 5.2031 0.875 1.1992 2.1289 1.7969 3.7656 1.7969zm-5.0781-15.484c1.0508-1.3945 2.2188-2.4219 3.5-3.0781 1.2812-0.66406 2.7539-1 4.4219-1 2.9453 0 5.3672 1.1719 7.2656 3.5156 1.8945 2.3438 2.8438 5.3594 2.8438 9.0469s-0.94922 6.7031-2.8438 9.0469c-1.8984 2.3438-4.3203 3.5156-7.2656 3.5156-1.668 0-3.1406-0.33594-4.4219-1s-2.4492-1.6914-3.5-3.0781v3.4531h-7.6562v-33.234h7.6562z"/>
  </symbol>
  <symbol id="g" overflow="visible">
   <path d="m0.53125-23.922h7.6562l6.4219 16.234 5.4688-16.234h7.6562l-10.062 26.188c-1.0117 2.6641-2.1953 4.5234-3.5469 5.5781-1.3438 1.0625-3.1211 1.5938-5.3281 1.5938h-4.4219v-5.0156h2.3906c1.3008 0 2.2422-0.21094 2.8281-0.625 0.59375-0.40625 1.0547-1.1484 1.3906-2.2188l0.20312-0.65625z"/>
  </symbol>
  <symbol id="f" overflow="visible">
   <path d="m0.21875-31.891h8.2656l8.4531 23.531 8.4375-23.531h8.2656l-11.812 31.891h-9.7969z"/>
  </symbol>
  <symbol id="e" overflow="visible">
   <path d="m23-23.172v6.2344c-1.0312-0.71875-2.0742-1.2422-3.125-1.5781-1.043-0.34375-2.125-0.51562-3.25-0.51562-2.1367 0-3.8047 0.625-5 1.875-1.1875 1.2422-1.7812 2.9805-1.7812 5.2188 0 2.2305 0.59375 3.9688 1.7812 5.2188 1.1953 1.25 2.8633 1.875 5 1.875 1.1953 0 2.332-0.17578 3.4062-0.53125 1.0703-0.36328 2.0625-0.89453 2.9688-1.5938v6.2656c-1.1875 0.4375-2.4023 0.76562-3.6406 0.98438-1.2305 0.22656-2.4648 0.34375-3.7031 0.34375-4.3125 0-7.6875-1.1094-10.125-3.3281s-3.6562-5.2969-3.6562-9.2344c0-3.9453 1.2188-7.0234 3.6562-9.2344 2.4375-2.2188 5.8125-3.3281 10.125-3.3281 1.25 0 2.4844 0.10938 3.7031 0.32812s2.4297 0.55469 3.6406 1z"/>
  </symbol>
  <symbol id="l" overflow="visible">
   <path d="m15.062-19.031c-1.6992 0-2.9961 0.60938-3.8906 1.8281-0.88672 1.2188-1.3281 2.9766-1.3281 5.2656 0 2.293 0.44141 4.0469 1.3281 5.2656 0.89453 1.2188 2.1914 1.8281 3.8906 1.8281 1.6641 0 2.9375-0.60938 3.8125-1.8281 0.88281-1.2188 1.3281-2.9727 1.3281-5.2656 0-2.2891-0.44531-4.0469-1.3281-5.2656-0.875-1.2188-2.1484-1.8281-3.8125-1.8281zm0-5.4688c4.1133 0 7.3281 1.1094 9.6406 3.3281s3.4688 5.2969 3.4688 9.2344c0 3.9297-1.1562 7.0078-3.4688 9.2344-2.3125 2.2188-5.5273 3.3281-9.6406 3.3281-4.1367 0-7.3711-1.1094-9.7031-3.3281-2.3242-2.2266-3.4844-5.3047-3.4844-9.2344 0-3.9375 1.1602-7.0156 3.4844-9.2344 2.332-2.2188 5.5664-3.3281 9.7031-3.3281z"/>
  </symbol>
  <symbol id="k" overflow="visible">
   <path d="m4.0156-31.891h13.656c4.0508 0 7.1602 0.90234 9.3281 2.7031 2.1758 1.8047 3.2656 4.3711 3.2656 7.7031 0 3.3438-1.0898 5.918-3.2656 7.7188-2.168 1.8047-5.2773 2.7031-9.3281 2.7031h-5.4375v11.062h-8.2188zm8.2188 5.9531v8.9062h4.5625c1.5938 0 2.8203-0.38281 3.6875-1.1562 0.875-0.78125 1.3125-1.8789 1.3125-3.2969 0-1.4258-0.4375-2.5234-1.3125-3.2969-0.86719-0.76953-2.0938-1.1562-3.6875-1.1562z"/>
  </symbol>
  <symbol id="j" overflow="visible">
   <path d="m3.6719-33.234h7.6562v33.234h-7.6562z"/>
  </symbol>
 </defs>
 <g>
  <path d="m404.43 508.73h-311.32c-4.8359 0-8.75-3.918-8.75-8.75 0-4.8359 3.9141-8.75 8.75-8.75h298.98l-19.074-54.688c-0.35938-0.92187-0.53516-1.9023-0.52344-2.8906v-48.648l-43.75-26.25c-3.3203-2.0078-4.9258-5.9609-3.9375-9.7109l15.574-60.023-244.12 79.797c-4.5234 1.293-9.2617-1.2266-10.719-5.6992-1.4609-4.4727 0.87891-9.3008 5.293-10.926l259.18-84.523c3.0586-1.0156 6.4219-0.26562 8.7617 1.9453 2.3438 2.2109 3.2773 5.5312 2.4375 8.6406l-17.938 69.125 42.438 25.375c2.5977 1.582 4.1875 4.3984 4.1992 7.4375v51.977l22.664 64.926v-0.003906c0.93359 2.6719 0.51953 5.6289-1.1133 7.9375-1.6328 2.3125-4.2812 3.6914-7.1133 3.7031z"/>
  <path d="m612.5 508.73h-208.07c-2.7539 0.085938-5.3906-1.1289-7.1133-3.2812-1.7227-2.1523-2.3281-4.9883-1.6367-7.6562l20.387-79.625 19.074-55.648-37.539-41.648 0.003906-0.003907c-2.1719-2.3594-2.875-5.7188-1.8398-8.75l16.012-53.375c1.2461-4.0664 5.2305-6.6523 9.4531-6.125l192.5 24.5c4.832 0.62891 8.2383 5.0547 7.6094 9.8867-0.625 4.832-5.0547 8.2422-9.8867 7.6133l-184.8-23.363-12.512 41.562 37.625 41.824c2.168 2.3594 2.875 5.7188 1.8398 8.75l-20.477 59.762-17.5 68.074 196.88 0.003906c4.832 0 8.75 3.9141 8.75 8.75 0 4.832-3.918 8.75-8.75 8.75z"/>
  <path d="m153.39 350c-4.043 0.14844-7.6602-2.4922-8.75-6.3867l-65.887-234.5c-0.62891-2.2344-0.34766-4.625 0.78906-6.6523 1.1367-2.0078 3.0234-3.4883 5.25-4.1094l166.25-46.812c4.6367-1.293 9.4453 1.4062 10.762 6.0352l64.137 227.5c1.3047 4.6641-1.418 9.5039-6.082 10.809-4.6641 1.3047-9.5-1.418-10.805-6.082l-61.25-218.75-149.54 41.738 63.613 225.66c1.2891 4.6367-1.4062 9.4453-6.0391 10.762-0.76563 0.39844-1.5938 0.66406-2.4492 0.78906z"/>
  <path d="m142.8 147.88c-4.043 0.14844-7.6602-2.4922-8.75-6.3867-1.293-4.6367 1.4062-9.4453 6.0352-10.762l14.086-3.9375h0.003906c2.2695-0.78516 4.7617-0.59766 6.8906 0.51172s3.707 3.043 4.3711 5.3516c0.66016 2.3047 0.34375 4.7852-0.875 6.8516-1.2188 2.0703-3.2344 3.5469-5.5742 4.082l-14.176 4.0234v0.003906c-0.66016 0.14844-1.3359 0.23828-2.0117 0.26172z"/>
  <path d="m209.21 129.24c-3.8477-0.24609-7.082-2.9844-7.9609-6.7383-0.64844-2.2383-0.37109-4.6445 0.76172-6.6797 1.1328-2.0391 3.0312-3.5391 5.2773-4.1719l14.176-3.9375h-0.003906c4.6406-1.2891 9.4492 1.4102 10.766 6.0391 0.64453 2.2383 0.37109 4.6445-0.76172 6.6797-1.1328 2.0391-3.0352 3.5391-5.2773 4.1719l-14.176 3.9375c-0.87891 0.41406-1.8281 0.65234-2.8008 0.69922z"/>
  <path d="m154.35 189c-4.8359 0.65234-9.2812-2.7344-9.9336-7.5703-0.65234-4.832 2.7383-9.2773 7.5703-9.9297l14.262-3.6758c4.6641-1.3047 9.5 1.418 10.805 6.082 1.3047 4.6641-1.418 9.5-6.0781 10.805l-14.176 3.9375c-0.79297 0.25781-1.6211 0.375-2.4492 0.35156z"/>
  <path d="m220.76 170.27c-4.043 0.15234-7.6602-2.4883-8.75-6.3867-0.59766-2.3242-0.21875-4.793 1.0586-6.8281 1.2734-2.0352 3.3281-3.457 5.6797-3.9336l14.176-3.9375c4.7109-1.207 9.5117 1.6328 10.719 6.3438s-1.6328 9.5117-6.3438 10.719l-14.176 4.0234c-0.78516 0.085937-1.5781 0.085937-2.3633 0z"/>
  <path d="m166.25 230.12c-4.043 0.14844-7.6602-2.4922-8.75-6.3867-0.64844-2.2422-0.37109-4.6445 0.76172-6.6836 1.1328-2.0352 3.0312-3.5352 5.2773-4.168l14.176-3.9375h-0.003906c4.4922-0.91016 8.9219 1.7969 10.164 6.207 1.2383 4.4102-1.1328 9.0312-5.4375 10.594l-14.176 4.0234c-0.65234 0.21094-1.3281 0.32812-2.0117 0.35156z"/>
  <path d="m232.31 211.4c-4.832 0.65234-9.2773-2.7344-9.9297-7.5664-0.65234-4.832 2.7344-9.2812 7.5664-9.9336l14.176-4.0234c4.6641-1.3047 9.5 1.418 10.805 6.082 1.3047 4.6641-1.418 9.5-6.0781 10.805l-14.176 3.9375c-0.74219 0.36719-1.543 0.60156-2.3633 0.69922z"/>
  <path d="m211.14 329.18c-4.0156 0.16016-7.625-2.4414-8.75-6.3008l-16.711-60.375c-1.293-4.6367 1.4062-9.4453 6.0352-10.762l48.477-13.738c2.25-0.64453 4.668-0.35938 6.707 0.79297 2.0391 1.1523 3.5312 3.0703 4.1445 5.332l16.977 60.461h-0.003906c1.0742 4.5234-1.5781 9.0977-6.0352 10.414-2.2422 0.61719-4.6328 0.31641-6.6523-0.83203-2.0195-1.1484-3.5-3.0508-4.1133-5.293l-14.961-51.801-31.676 8.75 14.699 52.5c0.64844 2.2422 0.375 4.6445-0.75781 6.6836-1.1367 2.0352-3.0352 3.5352-5.2773 4.168z"/>
  <path d="m278.43 430.32c-1.2422 0.042969-2.4766-0.22656-3.5898-0.78516-4.3555-2.0234-6.2695-7.1758-4.2852-11.551l18.812-40.773v-0.003906c0.55469-1.2031 1.3594-2.2773 2.3633-3.1484l35.961-29.312c1.7969-1.4766 4.1094-2.1797 6.4219-1.9492 2.3164 0.23047 4.4453 1.3711 5.9141 3.1758 3.0195 3.7266 2.4727 9.1914-1.2227 12.25l-34.387 28.086-18.027 38.938c-1.4336 3.1016-4.543 5.082-7.9609 5.0742z"/>
  <path d="m519.05 343.79h-1.4883l-27.562-4.9883c-4.832-0.84766-8.0625-5.4492-7.2188-10.281s5.4492-8.0664 10.281-7.2188l27.648 4.8984c4.8359 0.41016 8.418 4.6602 8.0078 9.4961-0.41016 4.832-4.6602 8.4141-9.4922 8.0039z"/>
  <path d="m457.8 333.11h-1.4883l-53.812-9.3633c-4.832-0.84375-8.0625-5.4492-7.2188-10.281s5.4492-8.0625 10.281-7.2188l53.375 9.3633c4.832 0.41016 8.418 4.6602 8.0078 9.4922-0.41406 4.832-4.6641 8.418-9.4961 8.0078z"/>
  <path d="m522.9 418.77h-1.1367l-90.562-11.375c-4.832-0.60156-8.2578-5.0078-7.6562-9.8438 0.60547-4.832 5.0117-8.2578 9.8438-7.6562l90.562 11.461v0.003906c4.832 0.28906 8.5156 4.4414 8.2266 9.2734-0.28906 4.832-4.4414 8.5156-9.2773 8.2266z"/>
  <path d="m110.25 417.11c-3.7383 0.023438-7.0781-2.332-8.3125-5.8633-1.5039-4.5664 0.96094-9.4883 5.5117-11.023l77.961-25.637 0.003906-0.003906c2.2305-0.82031 4.6992-0.69922 6.8398 0.33984 2.1367 1.0352 3.7617 2.8984 4.5 5.1602 0.73828 2.2578 0.52344 4.7227-0.59375 6.8203-1.1133 2.0977-3.0352 3.6523-5.3242 4.3047l-77.875 25.637v0.003906c-0.88672 0.21094-1.8008 0.30078-2.7109 0.26172z"/>
  <path d="m225.66 379.14c-4.2969-0.007813-7.9492-3.1328-8.625-7.375-0.67187-4.2422 1.832-8.3477 5.9102-9.6875l31.586-10.414 0.003906 0.003906c4.5898-1.5234 9.5469 0.96484 11.066 5.5547 1.5234 4.5898-0.96484 9.5469-5.5547 11.07l-31.586 10.414-0.003906-0.003906c-0.90625 0.27344-1.8477 0.42188-2.7969 0.4375z"/>
  <use x="70" y="691.25" xlink:href="#m"/>
  <use x="102.109375" y="691.25" xlink:href="#d"/>
  <use x="123.683594" y="691.25" xlink:href="#a"/>
  <use x="153.355469" y="691.25" xlink:href="#c"/>
  <use x="182.878906" y="691.25" xlink:href="#b"/>
  <use x="203.792969" y="691.25" xlink:href="#a"/>
  <use x="233.464844" y="691.25" xlink:href="#i"/>
  <use x="280.011719" y="691.25" xlink:href="#h"/>
  <use x="311.328125" y="691.25" xlink:href="#g"/>
  <use x="355.078125" y="691.25" xlink:href="#f"/>
  <use x="388.9375" y="691.25" xlink:href="#a"/>
  <use x="418.613281" y="691.25" xlink:href="#e"/>
  <use x="444.546875" y="691.25" xlink:href="#b"/>
  <use x="465.460938" y="691.25" xlink:href="#l"/>
  <use x="495.515625" y="691.25" xlink:href="#d"/>
  <use x="532.324219" y="691.25" xlink:href="#k"/>
  <use x="564.386719" y="691.25" xlink:href="#j"/>
  <use x="579.382812" y="691.25" xlink:href="#c"/>
  <use x="608.90625" y="691.25" xlink:href="#e"/>
  <use x="634.839844" y="691.25" xlink:href="#a"/>
 </g>
</svg>
