<?xml version="1.0" encoding="UTF-8"?>
<svg width="700pt" height="700pt" version="1.1" viewBox="0 0 700 700" xmlns="http://www.w3.org/2000/svg" xmlns:xlink="http://www.w3.org/1999/xlink">
 <defs>
  <symbol id="m" overflow="visible">
   <path d="m29.312-1.75c-1.5117 0.78125-3.0898 1.3711-4.7344 1.7656-1.6367 0.40625-3.3398 0.60938-5.1094 0.60938-5.3125 0-9.5273-1.4844-12.641-4.4531-3.1055-2.9688-4.6562-7-4.6562-12.094s1.5508-9.125 4.6562-12.094c3.1133-2.9688 7.3281-4.4531 12.641-4.4531 1.7695 0 3.4727 0.19922 5.1094 0.59375 1.6445 0.39844 3.2227 0.99219 4.7344 1.7812v6.5938c-1.5312-1.0391-3.0391-1.8008-4.5156-2.2812-1.4805-0.48828-3.0391-0.73438-4.6719-0.73438-2.9375 0-5.2461 0.94531-6.9219 2.8281-1.6797 1.875-2.5156 4.4648-2.5156 7.7656 0 3.293 0.83594 5.8828 2.5156 7.7656 1.6758 1.875 3.9844 2.8125 6.9219 2.8125 1.6328 0 3.1914-0.23828 4.6719-0.71875 1.4766-0.48828 2.9844-1.2539 4.5156-2.2969z"/>
  </symbol>
  <symbol id="b" overflow="visible">
   <path d="m21.453-17.406c-0.67969-0.3125-1.3516-0.53906-2.0156-0.6875-0.65625-0.15625-1.3203-0.23438-1.9844-0.23438-1.9688 0-3.4844 0.63281-4.5469 1.8906-1.0547 1.2617-1.5781 3.0703-1.5781 5.4219v11.016h-7.6562v-23.922h7.6562v3.9219c0.97656-1.5625 2.1016-2.7031 3.375-3.4219 1.2812-0.71875 2.8125-1.0781 4.5938-1.0781 0.25 0 0.52344 0.011719 0.82812 0.03125 0.30078 0.023438 0.73438 0.070312 1.2969 0.14062z"/>
  </symbol>
  <symbol id="a" overflow="visible">
   <path d="m27.562-12.031v2.1875h-17.891c0.1875 1.793 0.83203 3.1367 1.9375 4.0312 1.1133 0.89844 2.6719 1.3438 4.6719 1.3438 1.6016 0 3.25-0.23438 4.9375-0.70312 1.6875-0.47656 3.4219-1.2031 5.2031-2.1719v5.8906c-1.8047 0.6875-3.6094 1.2031-5.4219 1.5469-1.8125 0.35156-3.6211 0.53125-5.4219 0.53125-4.3359 0-7.7031-1.0977-10.109-3.2969-2.3984-2.207-3.5938-5.2969-3.5938-9.2656 0-3.9062 1.1758-6.9727 3.5312-9.2031 2.3633-2.2383 5.6094-3.3594 9.7344-3.3594 3.7578 0 6.7695 1.1367 9.0312 3.4062 2.2578 2.2617 3.3906 5.2812 3.3906 9.0625zm-7.8594-2.5312c0-1.457-0.42969-2.6289-1.2812-3.5156-0.84375-0.89453-1.9492-1.3438-3.3125-1.3438-1.4922 0-2.6992 0.41797-3.625 1.25-0.91797 0.83594-1.4922 2.0391-1.7188 3.6094z"/>
  </symbol>
  <symbol id="i" overflow="visible">
   <path d="m14.391-10.766c-1.5938 0-2.793 0.27344-3.5938 0.8125-0.80469 0.54297-1.2031 1.3398-1.2031 2.3906 0 0.96875 0.32031 1.7305 0.96875 2.2812 0.64453 0.54297 1.5469 0.8125 2.7031 0.8125 1.4375 0 2.6445-0.51562 3.625-1.5469 0.98828-1.0312 1.4844-2.3203 1.4844-3.875v-0.875zm11.688-2.8906v13.656h-7.7031v-3.5469c-1.0312 1.4492-2.1875 2.5078-3.4688 3.1719s-2.8398 1-4.6719 1c-2.4805 0-4.4961-0.72266-6.0469-2.1719-1.543-1.4453-2.3125-3.3203-2.3125-5.625 0-2.8125 0.96094-4.8672 2.8906-6.1719 1.9375-1.3125 4.9688-1.9688 9.0938-1.9688h4.5156v-0.60938c0-1.207-0.48047-2.0938-1.4375-2.6562-0.94922-0.5625-2.4375-0.84375-4.4688-0.84375-1.6367 0-3.1562 0.16797-4.5625 0.5-1.4062 0.32422-2.7188 0.8125-3.9375 1.4688v-5.8281c1.6445-0.40625 3.2891-0.70703 4.9375-0.90625 1.6562-0.20703 3.3047-0.3125 4.9531-0.3125 4.3203 0 7.4375 0.85547 9.3438 2.5625 1.9141 1.6992 2.875 4.4609 2.875 8.2812z"/>
  </symbol>
  <symbol id="h" overflow="visible">
   <path d="m12.031-30.719v6.7969h7.875v5.4688h-7.875v10.141c0 1.1172 0.21875 1.8711 0.65625 2.2656 0.4375 0.38672 1.3125 0.57812 2.625 0.57812h3.9375v5.4688h-6.5625c-3.0234 0-5.1641-0.62891-6.4219-1.8906-1.2617-1.2578-1.8906-3.3984-1.8906-6.4219v-10.141h-3.7969v-5.4688h3.7969v-6.7969z"/>
  </symbol>
  <symbol id="g" overflow="visible">
   <path d="m19.953-20.422v-12.812h7.6875v33.234h-7.6875v-3.4531c-1.0547 1.4062-2.2148 2.4375-3.4844 3.0938-1.2734 0.65625-2.7422 0.98438-4.4062 0.98438-2.9492 0-5.3711-1.1719-7.2656-3.5156-1.8867-2.3438-2.8281-5.3594-2.8281-9.0469s0.94141-6.7031 2.8281-9.0469c1.8945-2.3438 4.3164-3.5156 7.2656-3.5156 1.6562 0 3.1172 0.33594 4.3906 1 1.2812 0.65625 2.4453 1.6836 3.5 3.0781zm-5.0469 15.484c1.6445 0 2.8945-0.59766 3.75-1.7969 0.86328-1.1953 1.2969-2.9297 1.2969-5.2031 0-2.2812-0.43359-4.0195-1.2969-5.2188-0.85547-1.1953-2.1055-1.7969-3.75-1.7969-1.625 0-2.8711 0.60156-3.7344 1.7969-0.85547 1.1992-1.2812 2.9375-1.2812 5.2188 0 2.2734 0.42578 4.0078 1.2812 5.2031 0.86328 1.1992 2.1094 1.7969 3.7344 1.7969z"/>
  </symbol>
  <symbol id="f" overflow="visible">
   <path d="m16.406-4.9375c1.6328 0 2.8828-0.59766 3.75-1.7969 0.86328-1.1953 1.2969-2.9297 1.2969-5.2031 0-2.2812-0.43359-4.0195-1.2969-5.2188-0.86719-1.1953-2.1172-1.7969-3.75-1.7969-1.6367 0-2.8906 0.60547-3.7656 1.8125-0.875 1.1992-1.3125 2.9336-1.3125 5.2031 0 2.2617 0.4375 3.9961 1.3125 5.2031 0.875 1.1992 2.1289 1.7969 3.7656 1.7969zm-5.0781-15.484c1.0508-1.3945 2.2188-2.4219 3.5-3.0781 1.2812-0.66406 2.7539-1 4.4219-1 2.9453 0 5.3672 1.1719 7.2656 3.5156 1.8945 2.3438 2.8438 5.3594 2.8438 9.0469s-0.94922 6.7031-2.8438 9.0469c-1.8984 2.3438-4.3203 3.5156-7.2656 3.5156-1.668 0-3.1406-0.33594-4.4219-1s-2.4492-1.6914-3.5-3.0781v3.4531h-7.6562v-33.234h7.6562z"/>
  </symbol>
  <symbol id="c" overflow="visible">
   <path d="m0.53125-23.922h7.6562l6.4219 16.234 5.4688-16.234h7.6562l-10.062 26.188c-1.0117 2.6641-2.1953 4.5234-3.5469 5.5781-1.3438 1.0625-3.1211 1.5938-5.3281 1.5938h-4.4219v-5.0156h2.3906c1.3008 0 2.2422-0.21094 2.8281-0.625 0.59375-0.40625 1.0547-1.1484 1.3906-2.2188l0.20312-0.65625z"/>
  </symbol>
  <symbol id="e" overflow="visible">
   <path d="m0.65625-23.922h7.6562l5.9531 16.531 5.9375-16.531h7.6719l-9.4219 23.922h-8.3906z"/>
  </symbol>
  <symbol id="l" overflow="visible">
   <path d="m11.328-3.4531v12.547h-7.6562v-33.016h7.6562v3.5c1.0508-1.3945 2.2188-2.4219 3.5-3.0781 1.2812-0.66406 2.7539-1 4.4219-1 2.9453 0 5.3672 1.1719 7.2656 3.5156 1.8945 2.3438 2.8438 5.3594 2.8438 9.0469s-0.94922 6.7031-2.8438 9.0469c-1.8984 2.3438-4.3203 3.5156-7.2656 3.5156-1.668 0-3.1406-0.33594-4.4219-1s-2.4492-1.6914-3.5-3.0781zm5.0781-15.5c-1.6367 0-2.8906 0.60547-3.7656 1.8125-0.875 1.1992-1.3125 2.9336-1.3125 5.2031 0 2.2617 0.4375 3.9961 1.3125 5.2031 0.875 1.1992 2.1289 1.7969 3.7656 1.7969 1.6328 0 2.8828-0.59766 3.75-1.7969 0.86328-1.1953 1.2969-2.9297 1.2969-5.2031 0-2.2812-0.43359-4.0195-1.2969-5.2188-0.86719-1.1953-2.1172-1.7969-3.75-1.7969z"/>
  </symbol>
  <symbol id="d" overflow="visible">
   <path d="m15.062-19.031c-1.6992 0-2.9961 0.60938-3.8906 1.8281-0.88672 1.2188-1.3281 2.9766-1.3281 5.2656 0 2.293 0.44141 4.0469 1.3281 5.2656 0.89453 1.2188 2.1914 1.8281 3.8906 1.8281 1.6641 0 2.9375-0.60938 3.8125-1.8281 0.88281-1.2188 1.3281-2.9727 1.3281-5.2656 0-2.2891-0.44531-4.0469-1.3281-5.2656-0.875-1.2188-2.1484-1.8281-3.8125-1.8281zm0-5.4688c4.1133 0 7.3281 1.1094 9.6406 3.3281s3.4688 5.2969 3.4688 9.2344c0 3.9297-1.1562 7.0078-3.4688 9.2344-2.3125 2.2188-5.5273 3.3281-9.6406 3.3281-4.1367 0-7.3711-1.1094-9.7031-3.3281-2.3242-2.2266-3.4844-5.3047-3.4844-9.2344 0-3.9375 1.1602-7.0156 3.4844-9.2344 2.332-2.2188 5.5664-3.3281 9.7031-3.3281z"/>
  </symbol>
  <symbol id="k" overflow="visible">
   <path d="m27.734-14.562v14.562h-7.7031v-11.156c0-2.0625-0.046875-3.4844-0.14062-4.2656-0.085937-0.78125-0.24219-1.3594-0.46875-1.7344-0.30469-0.5-0.71094-0.88281-1.2188-1.1562-0.51172-0.28125-1.0938-0.42188-1.75-0.42188-1.5938 0-2.8516 0.61719-3.7656 1.8438-0.90625 1.2305-1.3594 2.9375-1.3594 5.125v11.766h-7.6562v-23.922h7.6562v3.5c1.1445-1.3945 2.3633-2.4219 3.6562-3.0781 1.3008-0.66406 2.7383-1 4.3125-1 2.7578 0 4.8516 0.85156 6.2812 2.5469 1.4375 1.6875 2.1562 4.1523 2.1562 7.3906z"/>
  </symbol>
  <symbol id="j" overflow="visible">
   <path d="m25.844-19.953c0.96875-1.4766 2.1172-2.6016 3.4531-3.375 1.332-0.78125 2.7969-1.1719 4.3906-1.1719 2.75 0 4.8438 0.85156 6.2812 2.5469 1.4375 1.6875 2.1562 4.1523 2.1562 7.3906v14.562h-7.6875v-12.469c0.007812-0.1875 0.019531-0.37891 0.03125-0.57812 0.007812-0.19531 0.015625-0.48438 0.015625-0.85938 0-1.6953-0.25-2.9258-0.75-3.6875-0.5-0.75781-1.3086-1.1406-2.4219-1.1406-1.4492 0-2.5703 0.60156-3.3594 1.7969-0.79297 1.1992-1.2031 2.9297-1.2344 5.1875v11.75h-7.6875v-12.469c0-2.6562-0.23047-4.3633-0.6875-5.125-0.44922-0.75781-1.2578-1.1406-2.4219-1.1406-1.4688 0-2.6055 0.60547-3.4062 1.8125-0.79297 1.1992-1.1875 2.918-1.1875 5.1562v11.766h-7.7031v-23.922h7.7031v3.5c0.9375-1.3516 2.0156-2.3672 3.2344-3.0469 1.2188-0.6875 2.5547-1.0312 4.0156-1.0312 1.6562 0 3.1133 0.40234 4.375 1.2031 1.2695 0.79297 2.2344 1.9062 2.8906 3.3438z"/>
  </symbol>
 </defs>
 <g>
  <path d="m356.7 360.03 8.7852 28.48 17.762-8.7227c1.7656-0.86719 3.7539-1.5234 5.8203-2.082l-10.551-24.91z"/>
  <path d="m178.2 189.54c6.6133 0 13.02-2.5117 18.035-7.0781 0.83984-0.76172 1.8906-1.1367 2.9492-1.1367 1.1641 0 2.3281 0.46484 3.1836 1.375 9.6875 10.273 25.828 16.406 43.18 16.406 15.496 0 30.082-4.8906 40.023-13.422 1.4102-1.2148 3.4375-1.3984 5.0586-0.46484 4.1719 2.4336 8.5938 3.668 13.141 3.668 14.473 0 26.25-11.777 26.25-26.25 0-14.473-11.777-26.25-26.25-26.25-0.10547 0.007813-1.6797 0.18359-1.793 0.19141-1.2266 0.035156-2.3906-0.35938-3.2656-1.1797-0.88281-0.82422-1.3828-1.9766-1.3828-3.1836 0.027344-20.449-23.215-36.801-51.781-36.801-28.57 0-51.816 16.355-51.816 36.453 0 0.0625 0.10547 1.3984 0.10547 1.4609 0.070312 1.4805-0.61328 2.8867-1.8203 3.7539-1.1992 0.86719-2.7578 1.0664-4.1406 0.53516-18.172-7.0781-36.594 6.9844-36.594 25.023 0.011719 14.832 12.078 26.898 26.918 26.898z"/>
  <path d="m199.12 361.97 6.5547 15.363c2.582 0.59375 5.0391 1.3828 7.2031 2.4414l33.773 16.59 6.9219-3.4023-19.566-45.875z"/>
  <path d="m285.34 320.25-11.594 5.6953 21.465 50.328c7.2695-0.42188 14.805 0.70703 20.492 3.5l33.773 16.59 8.0508-3.9531-10.457-33.906c-0.69922-2.2734 0.55078-4.6992 2.8086-5.4414l29.715-9.8438c2.1797-0.70703 4.5234 0.35156 5.4062 2.4492l12.957 30.617c7.2891-0.42969 14.859 0.69922 20.562 3.5l33.766 16.582 9.9844-4.8984 6.7891-15.199c-5.4688-3.6211-9.668-9.125-12.137-16.371-2.1875-6.4062-2.9648-13.902-2.4688-21.98-0.36719 0.10547-0.71875 0.31641-1.1016 0.31641-0.64844 0-1.3047-0.14844-1.9258-0.44531l-35.699-17.535c-7.4727-3.668-20.098-3.668-27.562 0l-35.699 17.535c-0.59375 0.29688-1.2148 0.41016-1.8359 0.42188-0.027344 0-0.0625 0.027343-0.097656 0.027343-0.14062 0-0.26953-0.085937-0.41016-0.097656-0.4375-0.042969-0.86719-0.12109-1.2695-0.29688-0.078125-0.035156-0.16797-0.015625-0.23438-0.050781l-35.715-17.543c-7.4609-3.668-20.098-3.668-27.562 0z"/>
  <path d="m474.54 385.45 9.3555-4.5859c-2.3633-0.007813-4.6367-0.40234-6.8594-0.98828z"/>
  <path d="m530.42 323.71c13.09-36.383 10.047-67.164-0.88281-72.047-1.1445-0.51562-2.4766-0.77734-3.9375-0.77734-11.777 0-33.426 16.887-50.328 48.176-11.277 20.879-15.129 43.109-10.062 58.02 1.6523 4.8633 4.1562 8.582 7.4453 11.141l12.363-27.668c0.98047-2.1953 3.5703-3.2109 5.7852-2.2031 2.2031 0.98828 3.1953 3.5703 2.2031 5.7852l-12.348 27.633c1.0938 0.19141 2.2031 0.35156 3.3438 0.35156 16.816-0.015625 36.336-20.367 46.418-48.41zm-40.883-24.211-2.8281 12.484c-0.46484 2.0312-2.2656 3.4141-4.2617 3.4141-0.32422 0-0.64844-0.035156-0.97266-0.10547-2.3633-0.53516-3.832-2.8789-3.2969-5.2344l2.8281-12.484c0.53516-2.3633 2.8711-3.8242 5.2344-3.2969 2.3516 0.52344 3.832 2.8672 3.2969 5.2227z"/>
  <path d="m280.42 379.79c1.7852-0.875 3.7891-1.5312 5.8633-2.0898l-35.098-82.312-23.977 10.219-1.0508 4.6211c-0.46484 2.0312-2.2656 3.4023-4.2617 3.4023-0.32422 0-0.64844-0.035156-0.97266-0.10547-1.8711-0.42969-3.1406-2.0039-3.332-3.8164l-67.691 28.859 19.328 45.324 8.3555-4.1133c5.0586-2.4766 11.578-3.668 18.07-3.6211l-6.3008-14.789c-0.94531-2.2227 0.085937-4.7852 2.3086-5.7383l42.918-18.312c1.0664-0.45312 2.2734-0.46484 3.3516-0.035156 1.0781 0.42969 1.9336 1.2773 2.3906 2.3438l21.105 49.473z"/>
  <path d="m570.39 338.23c-8.5586 0-22.547-3.5859-31.867-8.1641l-0.99609-0.48828c-8.5234 21.961-22.242 38.988-36.793 46.707 7.2969-0.4375 14.883 0.69141 20.598 3.5l19.992 9.8164c8.0234 3.9375 21.086 7.2617 28.535 7.2617h10.379v-58.633z"/>
  <path d="m396.88 189.54c6.6133 0 13.02-2.5195 18.043-7.0859 0.83984-0.76172 1.8906-1.1367 2.9414-1.1367 1.1641 0 2.3281 0.46484 3.1836 1.375 9.6875 10.273 25.828 16.406 43.172 16.406 15.496 0 30.082-4.8906 40.023-13.422 1.4102-1.2148 3.4375-1.3984 5.0586-0.46484 4.1719 2.4336 8.5938 3.668 13.141 3.668 14.473 0 26.25-11.777 26.25-26.25s-11.777-26.25-26.25-26.25c-0.98828 0.12109-1.3906 0.17578-1.793 0.19141-1.2266 0.10547-2.5039-0.38672-3.3867-1.2969-0.88281-0.90234-1.3398-2.1445-1.2422-3.4023 0.007812-20.117-23.23-36.461-51.793-36.461-28.57 0-51.816 16.355-51.816 36.453 0 0.050781 0.10547 1.3477 0.11328 1.3984 0.097656 1.4883-0.57812 2.9219-1.7852 3.8047-1.207 0.88281-2.7656 1.0859-4.1641 0.55078-18.141-7.043-36.594 6.9727-36.594 25.023 0 14.832 12.066 26.898 26.898 26.898z"/>
  <path d="m537.47 397.46-19.992-9.8164c-7.4727-3.6758-20.09-3.6758-27.562 0l-35.707 17.527c-0.62109 0.30469-1.2773 0.44531-1.9258 0.44531s-1.3047-0.14844-1.9258-0.44531l-35.699-17.527c-7.4805-3.6758-20.098-3.6758-27.562 0l-35.699 17.527c-0.59375 0.28906-1.2148 0.40234-1.8281 0.42188-0.035156 0-0.0625 0.027344-0.10547 0.027344-0.14844 0-0.29688-0.085938-0.44531-0.10547-0.42969-0.042969-0.83984-0.12109-1.2422-0.28906-0.078126-0.035156-0.15625-0.015624-0.23438-0.050781l-35.699-17.535c-7.4727-3.668-20.098-3.668-27.562 0l-35.699 17.535c-0.59375 0.28906-1.2148 0.41016-1.8359 0.42188-0.035157 0-0.0625 0.027344-0.097657 0.027344-0.14062 0-0.26953-0.078125-0.40234-0.097656-0.44531-0.042969-0.875-0.12109-1.2852-0.29688-0.070312-0.035157-0.15625-0.015625-0.22656-0.050781l-35.699-17.535c-7.4727-3.668-20.098-3.668-27.562 0l-12.695 6.2383-0.007813 0.007813h-0.007813l-7.2695 3.5781c-9.3281 4.5781-23.32 8.1562-31.859 8.1562l-9.8594-0.011719v58.977h9.8438c7.1562 0 19.977-3.3242 28-7.2617l19.992-9.8281c9.8945-4.8555 25.391-4.8477 35.281 0l33.773 16.59 33.773-16.59c8.9961-4.4102 22.582-4.7695 32.418-1.1562l27.973-25.645c1.5469-1.4102 3.8672-1.5391 5.5547-0.28906l36.734 27.16 0.13281-0.0625c9.8867-4.8633 25.383-4.8555 35.281 0l33.766 16.582 33.773-16.582c9.8867-4.8633 25.383-4.8633 35.281 0l19.992 9.8164c8.0234 3.9375 21.086 7.2617 28.535 7.2617h10.379v-58.977h-10.379c-8.8516 0.003906-23.078-3.5742-32.406-8.1484z"/>
  <path d="m157.61 389.61 3.7695-1.8477-19.512-45.754-13.746 5.8633c-0.55078 0.23438-1.1367 0.35156-1.7148 0.35156-0.76172 0-1.5234-0.20312-2.1953-0.59375-1.1992-0.69141-1.9961-1.9062-2.1523-3.2812l-0.70703-6.1094h-1.5781v58.633h9.8438c7.1484-0.007813 19.969-3.3242 27.992-7.2617z"/>
  <path d="m142.41 332.25c0.015626-0.007812 0.027344-0.015625 0.035157-0.027344 0.007812-0.007812 0.027343 0 0.042969-0.007812l77.176-32.91 0.79688-3.5c0.54297-2.3555 2.8789-3.832 5.2422-3.2969 1.5391 0.35156 2.6328 1.5039 3.1055 2.9062l22.969-9.793 12.383-5.2852-33.453-40.434-106.67 45.477 6.0273 52.133zm33.363-22.188 2.8281-12.484c0.53516-2.3633 2.8867-3.8242 5.2344-3.2969 2.3633 0.53516 3.832 2.8789 3.2969 5.2344l-2.8281 12.484c-0.46484 2.0312-2.2656 3.4141-4.2617 3.4141-0.32422 0-0.64844-0.035157-0.97266-0.10547-2.3516-0.54688-3.8281-2.8945-3.2969-5.2461z"/>
  <path d="m321.45 450.34 28.016 13.766 24.801-12.18-30.199-22.324z"/>
  <path d="m195.78 221.98-2.8359 12.477c-0.53516 2.3555 0.9375 4.6992 3.2969 5.2422 0.32422 0.070312 0.65625 0.10547 0.97266 0.10547 1.9961 0 3.7969-1.375 4.2617-3.4023l2.8359-12.477c0.53516-2.3555-0.9375-4.6992-3.2969-5.2422-2.3281-0.53906-4.6914 0.94141-5.2344 3.2969z"/>
  <path d="m279.95 239.69c0.32422 0.070312 0.65625 0.10547 0.97266 0.10547 1.9961 0 3.7969-1.375 4.2617-3.4023l2.8359-12.477c0.53516-2.3555-0.9375-4.6992-3.2969-5.2422-2.3711-0.53516-4.6992 0.94531-5.2422 3.2969l-2.8359 12.477c-0.53125 2.3555 0.94141 4.7109 3.3047 5.2422z"/>
  <path d="m461.55 218.68c-2.3438-0.52344-4.6992 0.9375-5.2344 3.2969l-2.8281 12.477c-0.53516 2.3555 0.94531 4.6992 3.2969 5.2344 0.32422 0.070312 0.64844 0.10547 0.97266 0.10547 2.0039 0 3.8047-1.375 4.2617-3.4141l2.8281-12.477c0.54297-2.3438-0.93359-4.6875-3.2969-5.2227z"/>
  <path d="m439.15 297.57-2.8359 12.484c-0.53516 2.3633 0.94531 4.6992 3.2969 5.2422 0.32422 0.070313 0.65625 0.10547 0.97266 0.10547 1.9961 0 3.8047-1.375 4.2617-3.4023l2.8359-12.484c0.53516-2.3633-0.94531-4.6992-3.2969-5.2422-2.3438-0.51953-4.6992 0.94141-5.2344 3.2969z"/>
  <path d="m391.99 288.17-2.8359 12.484c-0.53516 2.3633 0.94531 4.6992 3.2969 5.2422 0.32422 0.070312 0.65625 0.10547 0.97266 0.10547 1.9961 0 3.8047-1.375 4.2617-3.4023l2.8359-12.484c0.53516-2.3633-0.94531-4.6992-3.2969-5.2422-2.3477-0.51562-4.6914 0.93359-5.2344 3.2969z"/>
  <path d="m270.89 287.3-2.8359 12.484c-0.53516 2.3633 0.94531 4.6992 3.2969 5.2422 0.32422 0.070312 0.65625 0.10547 0.97266 0.10547 1.9961 0 3.8047-1.375 4.2617-3.4023l2.8359-12.484c0.53516-2.3633-0.94531-4.6992-3.2969-5.2422-2.3477-0.51562-4.6914 0.9375-5.2344 3.2969z"/>
  <path d="m243.04 208.06c-2.3555-0.51562-4.6992 0.9375-5.2422 3.2969l-2.8359 12.484c-0.53516 2.3633 0.94531 4.6992 3.2969 5.2422 0.32422 0.070313 0.65625 0.10547 0.97266 0.10547 1.9961 0 3.8047-1.375 4.2617-3.4023l2.8359-12.484c0.54297-2.3633-0.93359-4.6992-3.2891-5.2422z"/>
  <path d="m414.48 221.98-2.8359 12.477c-0.53516 2.3555 0.9375 4.6992 3.2969 5.2422 0.32422 0.070312 0.65625 0.10547 0.97266 0.10547 1.9961 0 3.7969-1.375 4.2617-3.4023l2.8359-12.477c0.53516-2.3555-0.9375-4.6992-3.2969-5.2422-2.3398-0.53906-4.7031 0.94141-5.2344 3.2969z"/>
  <path d="m498.64 239.69c0.32422 0.070312 0.65625 0.10547 0.97266 0.10547 1.9961 0 3.7969-1.375 4.2617-3.4023l2.8359-12.477c0.53516-2.3555-0.9375-4.6992-3.2969-5.2422-2.3633-0.53516-4.6992 0.94531-5.2422 3.2969l-2.8359 12.477c-0.52734 2.3555 0.94141 4.7109 3.3047 5.2422z"/>
  <use x="70" y="691.25" xlink:href="#m"/>
  <use x="102.109375" y="691.25" xlink:href="#b"/>
  <use x="123.683594" y="691.25" xlink:href="#a"/>
  <use x="153.355469" y="691.25" xlink:href="#i"/>
  <use x="182.878906" y="691.25" xlink:href="#h"/>
  <use x="203.792969" y="691.25" xlink:href="#a"/>
  <use x="233.464844" y="691.25" xlink:href="#g"/>
  <use x="280.011719" y="691.25" xlink:href="#f"/>
  <use x="311.328125" y="691.25" xlink:href="#c"/>
  <use x="355.078125" y="691.25" xlink:href="#e"/>
  <use x="383.597656" y="691.25" xlink:href="#a"/>
  <use x="413.269531" y="691.25" xlink:href="#b"/>
  <use x="434.847656" y="691.25" xlink:href="#b"/>
  <use x="456.421875" y="691.25" xlink:href="#c"/>
  <use x="500.171875" y="691.25" xlink:href="#l"/>
  <use x="531.488281" y="691.25" xlink:href="#d"/>
  <use x="561.546875" y="691.25" xlink:href="#a"/>
  <use x="591.21875" y="691.25" xlink:href="#b"/>
  <use x="612.792969" y="691.25" xlink:href="#k"/>
  <use x="643.941406" y="691.25" xlink:href="#d"/>
  <use x="673.996094" y="691.25" xlink:href="#j"/>
 </g>
</svg>
