<?xml version="1.0" encoding="UTF-8"?>
<svg width="700pt" height="700pt" version="1.1" viewBox="0 0 700 700" xmlns="http://www.w3.org/2000/svg">
 <g fill-rule="evenodd">
  <path d="m555.61 378.16c-7.2773 0-14.73-5.2852-22.621-10.883-8.6992-6.168-18.559-13.16-28.461-13.16-8.5742 0-18.008 5.0352-27.996 10.367-8.0508 4.2969-16.375 8.7422-25.398 11.285-2.3281 0.65625-4.7422-0.69531-5.3984-3.0195s0.69531-4.7422 3.0195-5.3984c8.1133-2.2891 16.016-6.5078 23.656-10.586 10.98-5.8633 21.352-11.398 32.113-11.398 12.688 0 23.758 7.8477 33.523 14.773 6.7227 4.7695 13.074 9.2695 17.562 9.2695 2.418 0 4.375 1.957 4.375 4.375 0 2.418-1.957 4.375-4.375 4.375zm-392.74 0c-2.418 0-4.375-1.957-4.375-4.375 0-2.418 1.957-4.375 4.375-4.375 4.4883 0 10.84-4.5039 17.566-9.2695 9.7656-6.9258 20.832-14.773 33.52-14.773 10.762 0 21.062 5.5117 31.969 11.348 7.6055 4.0664 15.469 8.2773 23.586 10.566 2.3242 0.65625 3.6797 3.0742 3.0234 5.3984-0.65625 2.3242-3.0742 3.6797-5.3984 3.0195-9.0312-2.5469-17.32-6.9805-25.336-11.273-9.9141-5.3047-19.273-10.312-27.84-10.312-9.8984 0-19.762 6.9922-28.461 13.16-7.8945 5.5977-15.348 10.887-22.625 10.887z"/>
  <path d="m555.61 421.95c-7.2773 0-14.734-5.2852-22.625-10.883-8.6992-6.168-18.559-13.16-28.461-13.16-8.6211 0-18.457 5.1758-28.871 10.656-12.508 6.582-25.445 13.387-39.465 13.387-13.141 0-26.41-6.1914-39.242-12.176-12.504-5.832-25.434-11.867-37.715-11.867s-25.207 6.0312-37.715 11.867c-12.832 5.9883-26.102 12.176-39.242 12.176-14.02 0-26.953-6.8086-39.465-13.387-10.414-5.4805-20.246-10.656-28.871-10.656-9.8984 0-19.762 6.9922-28.461 13.16-7.8945 5.5938-15.348 10.883-22.625 10.883-2.418 0-4.375-1.957-4.375-4.375s1.957-4.375 4.375-4.375c4.4883 0 10.84-4.5039 17.566-9.2695 9.7656-6.9258 20.832-14.773 33.52-14.773 10.781 0 21.547 5.6641 32.941 11.66 11.566 6.0898 23.531 12.383 35.387 12.383 11.203 0 23.023-5.5156 35.543-11.355 13.367-6.2383 27.191-12.688 41.414-12.688 14.219 0 28.043 6.4492 41.414 12.688 12.516 5.8398 24.34 11.355 35.543 11.355 11.859 0 23.82-6.293 35.387-12.383 11.395-5.9961 22.16-11.66 32.941-11.66 12.688 0 23.758 7.8477 33.523 14.773 6.7227 4.7695 13.074 9.2695 17.562 9.2695 2.418 0 4.375 1.957 4.375 4.375s-1.9531 4.375-4.3711 4.375z"/>
  <path d="m276.17 421.49c-2.0898 0-3.9375-1.5039-4.3047-3.6328l-14.395-83.543c-0.41016-2.3828 1.1875-4.6445 3.5703-5.0547 2.3828-0.41016 4.6445 1.1875 5.0547 3.5703l14.395 83.543c0.41016 2.3828-1.1875 4.6445-3.5703 5.0547-0.25 0.042968-0.5 0.0625-0.74609 0.0625zm133.44-6.3906c-2.0898 0-3.9375-1.5039-4.3047-3.6328-0.41016-2.3828 1.1875-4.6445 3.5703-5.0547l41.402-7.1328-16.43-95.355c-0.41016-2.3828 1.1875-4.6445 3.5664-5.0547 2.3789-0.41406 4.6445 1.1875 5.0547 3.5703l17.172 99.668c0.41016 2.3789-1.1875 4.6445-3.5703 5.0547l-45.711 7.875c-0.25 0.042969-0.50391 0.066407-0.75 0.066407z"/>
  <path d="m392.34 407.2c-2.0898 0-3.9375-1.5039-4.3047-3.6328l-6.6133-38.379c-2.1562-12.52-14.105-20.949-26.617-18.793-12.52 2.1602-20.949 14.098-18.793 26.617l4.2891 24.883c0.41016 2.3828-1.1875 4.6445-3.5703 5.0547-2.3789 0.41406-4.6445-1.1875-5.0547-3.5664l-4.2891-24.883c-2.9766-17.273 8.6562-33.75 25.93-36.727 17.273-2.9727 33.75 8.6562 36.727 25.93l6.6133 38.379c0.41016 2.3828-1.1875 4.6445-3.5664 5.0547-0.25 0.042969-0.5 0.0625-0.74609 0.0625z"/>
  <path d="m252.09 351.67c-0.87109 0-1.7539-0.25781-2.5195-0.80078l-24.062-16.988c-0.94922-0.66797-1.5898-1.6875-1.7891-2.8281-0.19922-1.1445 0.070313-2.3164 0.73828-3.2656l99.668-141.17c1.3945-1.9727 4.1211-2.4453 6.0977-1.0508l141.17 99.668c0.94922 0.66797 1.5898 1.6875 1.7891 2.8281 0.19922 1.1445-0.070313 2.3164-0.73828 3.2656l-16.988 24.062c-1.3945 1.9727-4.1211 2.4453-6.0977 1.0508l-113.53-80.156-80.156 113.53c-0.85156 1.207-2.2031 1.8516-3.5781 1.8516zm-17.961-22.414 16.914 11.941 80.156-113.53c1.3945-1.9727 4.125-2.4453 6.0977-1.0508l113.53 80.156 11.941-16.914-134.02-94.621z"/>
  <path d="m346.41 326.36c-13.895 0-25.695-9.9531-28.055-23.664-1.293-7.5039 0.41406-15.059 4.8047-21.277s10.941-10.355 18.441-11.648c1.6094-0.27734 3.2461-0.41797 4.8672-0.41797 13.895 0 25.695 9.9531 28.059 23.664 1.293 7.5039-0.41406 15.059-4.8047 21.277s-10.941 10.355-18.441 11.648c-1.6094 0.27734-3.25 0.41797-4.8711 0.41797zm0.058594-48.258c-1.125 0-2.2617 0.097656-3.3828 0.28906-5.1992 0.89453-9.7383 3.7617-12.781 8.0742-3.043 4.3086-4.2266 9.5469-3.3281 14.742 1.6367 9.5039 9.8125 16.398 19.434 16.398 1.125 0 2.2617-0.097656 3.3828-0.28906 5.1992-0.89453 9.7383-3.7617 12.781-8.0742 3.043-4.3086 4.2266-9.5469 3.3281-14.742-1.6367-9.5039-9.8125-16.402-19.434-16.402z"/>
  <path d="m555.61 463.43c-7.2773 0-14.734-5.2852-22.625-10.883-8.6992-6.168-18.559-13.16-28.461-13.16-8.6211 0-18.457 5.1758-28.871 10.656-12.508 6.582-25.445 13.387-39.465 13.387-13.141 0-26.41-6.1914-39.242-12.176-12.504-5.832-25.434-11.867-37.715-11.867s-25.207 6.0312-37.715 11.867c-12.832 5.9883-26.102 12.176-39.242 12.176-14.02 0-26.953-6.8086-39.465-13.387-10.414-5.4805-20.246-10.656-28.871-10.656-9.8984 0-19.762 6.9922-28.461 13.16-7.8945 5.5977-15.348 10.883-22.625 10.883-2.418 0-4.375-1.957-4.375-4.375s1.957-4.375 4.375-4.375c4.4883 0 10.84-4.5039 17.566-9.2734 9.7656-6.9258 20.832-14.773 33.52-14.773 10.781 0 21.547 5.6641 32.941 11.66 11.566 6.0859 23.531 12.383 35.387 12.383 11.203 0 23.023-5.5156 35.543-11.355 13.367-6.2383 27.191-12.688 41.414-12.688 14.219 0 28.043 6.4492 41.414 12.688 12.516 5.8398 24.34 11.355 35.543 11.355 11.859 0 23.82-6.293 35.387-12.383 11.395-5.9961 22.16-11.66 32.941-11.66 12.688 0 23.758 7.8477 33.523 14.773 6.7227 4.7695 13.074 9.2734 17.562 9.2734 2.418 0 4.375 1.957 4.375 4.375s-1.9531 4.375-4.3711 4.375z"/>
  <path d="m185.61 237.68c-0.375 0-0.75391-0.046875-1.1328-0.14844-2.332-0.625-3.7188-3.0234-3.0938-5.3594l2.9922-11.168c0.625-2.3359 3.0234-3.7188 5.3594-3.0938 2.332 0.625 3.7188 3.0234 3.0938 5.3594l-2.9922 11.172c-0.52344 1.9531-2.293 3.2422-4.2227 3.2422z"/>
  <path d="m175.73 339.77c-0.375 0-0.75781-0.050781-1.1328-0.14844-2.3359-0.625-3.7188-3.0234-3.0938-5.3594l2.9922-11.172c0.625-2.332 3.0312-3.7148 5.3594-3.0938 2.3359 0.625 3.7188 3.0234 3.0938 5.3594l-2.9922 11.172c-0.52344 1.9531-2.293 3.2422-4.2227 3.2422z"/>
  <path d="m217.51 312.35c-0.375 0-0.75781-0.050781-1.1328-0.14844-2.3359-0.625-3.7188-3.0234-3.0938-5.3594l2.9922-11.172c0.625-2.332 3.0273-3.7148 5.3594-3.0938 2.3359 0.625 3.7188 3.0234 3.0938 5.3594l-2.9922 11.172c-0.52344 1.9531-2.293 3.2422-4.2227 3.2422z"/>
  <path d="m187.48 297.98c-0.375 0-0.75391-0.046875-1.1328-0.15234-2.332-0.625-3.7188-3.0234-3.0938-5.3594l2.9922-11.172c0.625-2.332 3.0273-3.7148 5.3594-3.0938 2.332 0.625 3.7188 3.0234 3.0938 5.3594l-2.9922 11.172c-0.52344 1.9531-2.293 3.2422-4.2227 3.2422z"/>
  <path d="m233.18 264.04c-0.375 0-0.75391-0.046875-1.1328-0.14844-2.332-0.625-3.7188-3.0234-3.0938-5.3594l2.9922-11.168c0.625-2.3359 3.0273-3.7188 5.3594-3.0938 2.332 0.625 3.7188 3.0234 3.0938 5.3594l-2.9922 11.172c-0.52344 1.9531-2.293 3.2422-4.2227 3.2422z"/>
  <path d="m212.29 241.84c-0.375 0-0.75781-0.046875-1.1367-0.15234-2.332-0.625-3.7188-3.0234-3.0938-5.3594l2.9922-11.172c0.625-2.332 3.0273-3.7188 5.3594-3.0938 2.332 0.625 3.7188 3.0234 3.0938 5.3594l-2.9922 11.172c-0.52344 1.9531-2.2891 3.2422-4.2227 3.2422z"/>
  <path d="m263.21 193.53c-0.375 0-0.75781-0.046875-1.1328-0.14844-2.3359-0.625-3.7188-3.0234-3.0938-5.3594l2.9922-11.172c0.625-2.332 3.0273-3.7188 5.3594-3.0938 2.3359 0.625 3.7188 3.0234 3.0938 5.3594l-2.9922 11.172c-0.52344 1.9531-2.293 3.2422-4.2227 3.2422z"/>
  <path d="m285.41 231.39c-0.375 0-0.75391-0.046875-1.1328-0.14844-2.332-0.625-3.7188-3.0234-3.0938-5.3594l2.9922-11.172c0.625-2.332 3.0273-3.7148 5.3594-3.0938 2.332 0.625 3.7188 3.0234 3.0938 5.3594l-2.9922 11.172c-0.52344 1.9531-2.2891 3.2422-4.2227 3.2422z"/>
  <path d="m212.29 198.75c-0.375 0-0.75781-0.046875-1.1367-0.15234-2.332-0.625-3.7188-3.0234-3.0938-5.3594l2.9922-11.172c0.625-2.332 3.0273-3.7188 5.3594-3.0938 2.332 0.625 3.7188 3.0234 3.0938 5.3594l-2.9922 11.172c-0.52344 1.9531-2.2891 3.2422-4.2227 3.2422z"/>
  <path d="m166.59 192.23c-0.375 0-0.75391-0.046874-1.1328-0.14844-2.332-0.625-3.7188-3.0234-3.0938-5.3594l2.9922-11.172c0.625-2.3359 3.0234-3.7188 5.3594-3.0938 2.3359 0.625 3.7188 3.0234 3.0938 5.3594l-2.9922 11.172c-0.52344 1.9531-2.293 3.2422-4.2227 3.2422z"/>
  <path d="m166.59 192.23c-0.375 0-0.75391-0.046874-1.1328-0.14844-2.332-0.625-3.7188-3.0234-3.0938-5.3594l2.9922-11.172c0.625-2.3359 3.0234-3.7188 5.3594-3.0938 2.3359 0.625 3.7188 3.0234 3.0938 5.3594l-2.9922 11.172c-0.52344 1.9531-2.293 3.2422-4.2227 3.2422z"/>
  <path d="m166.59 241.84c-0.375 0-0.75391-0.046875-1.1328-0.15234-2.332-0.625-3.7188-3.0234-3.0938-5.3594l2.9922-11.172c0.625-2.3359 3.0234-3.7188 5.3594-3.0938 2.3359 0.625 3.7188 3.0234 3.0938 5.3594l-2.9922 11.172c-0.52344 1.9531-2.293 3.2422-4.2227 3.2422z"/>
  <path d="m166.59 241.84c-0.375 0-0.75391-0.046875-1.1328-0.15234-2.332-0.625-3.7188-3.0234-3.0938-5.3594l2.9922-11.172c0.625-2.3359 3.0234-3.7188 5.3594-3.0938 2.3359 0.625 3.7188 3.0234 3.0938 5.3594l-2.9922 11.172c-0.52344 1.9531-2.293 3.2422-4.2227 3.2422z"/>
  <path d="m144.39 275.79c-0.375 0-0.75391-0.046874-1.1328-0.14844-2.332-0.625-3.7188-3.0234-3.0938-5.3594l2.9922-11.172c0.625-2.3359 3.0273-3.7188 5.3594-3.0938s3.7188 3.0234 3.0938 5.3594l-2.9922 11.172c-0.52344 1.9531-2.2891 3.2422-4.2227 3.2422z"/>
  <path d="m291.93 190.92c-0.375 0-0.75781-0.046875-1.1367-0.14844-2.332-0.625-3.7188-3.0234-3.0938-5.3594l2.9922-11.172c0.625-2.332 3.0273-3.7188 5.3594-3.0938 2.332 0.625 3.7188 3.0234 3.0938 5.3594l-2.9922 11.172c-0.52344 1.9531-2.2891 3.2422-4.2227 3.2422z"/>
  <path d="m160.06 307.12c-0.375 0-0.75391-0.050782-1.1328-0.14844-2.3359-0.625-3.7188-3.0234-3.0938-5.3594l2.9922-11.172c0.625-2.332 3.0273-3.7148 5.3594-3.0938 2.3359 0.625 3.7188 3.0234 3.0938 5.3594l-2.9922 11.172c-0.52344 1.9531-2.293 3.2422-4.2227 3.2422z"/>
  <path d="m188.79 260.12c-0.375 0-0.75391-0.046876-1.1328-0.14844-2.332-0.625-3.7188-3.0234-3.0938-5.3594l2.9922-11.172c0.625-2.3359 3.0234-3.7188 5.3594-3.0938 2.332 0.625 3.7188 3.0234 3.0938 5.3594l-2.9922 11.172c-0.52344 1.9531-2.293 3.2422-4.2227 3.2422z"/>
  <path d="m216.21 274.48c-0.375 0-0.75391-0.046875-1.1328-0.14844-2.332-0.625-3.7188-3.0234-3.0938-5.3594l2.9922-11.168c0.625-2.3359 3.0234-3.7188 5.3594-3.0938 2.332 0.625 3.7188 3.0234 3.0938 5.3594l-2.9922 11.172c-0.52344 1.9531-2.293 3.2422-4.2227 3.2422z"/>
  <path d="m252.76 231.39c-0.375 0-0.75781-0.046875-1.1328-0.14844-2.3359-0.625-3.7188-3.0234-3.0938-5.3594l2.9922-11.172c0.625-2.332 3.0273-3.7148 5.3594-3.0938 2.3359 0.625 3.7188 3.0234 3.0938 5.3594l-2.9922 11.172c-0.52344 1.9531-2.2891 3.2422-4.2227 3.2422z"/>
  <path d="m234.48 202.67c-0.375 0-0.75781-0.046875-1.1367-0.15234-2.3359-0.625-3.7188-3.0234-3.0938-5.3594l2.9922-11.172c0.625-2.3359 3.0273-3.7188 5.3594-3.0938 2.3359 0.625 3.7188 3.0234 3.0938 5.3594l-2.9922 11.172c-0.52344 1.9531-2.293 3.2422-4.2227 3.2422z"/>
  <path d="m197.93 168.72c-0.375 0-0.75781-0.046875-1.1328-0.14844-2.3359-0.625-3.7188-3.0234-3.0938-5.3594l2.9922-11.172c0.625-2.3359 3.0273-3.7188 5.3594-3.0938 2.3359 0.625 3.7188 3.0234 3.0938 5.3594l-2.9922 11.172c-0.52344 1.9531-2.293 3.2422-4.2227 3.2422z"/>
  <path d="m246.23 151.75c-0.375 0-0.75781-0.046875-1.1367-0.14844-2.332-0.625-3.7188-3.0234-3.0938-5.3594l2.9922-11.168c0.625-2.332 3.0273-3.7148 5.3594-3.0938 2.332 0.625 3.7188 3.0234 3.0938 5.3594l-2.9922 11.172c-0.52344 1.9531-2.2891 3.2422-4.2227 3.2422z"/>
  <path d="m299.77 145.22c-0.375 0-0.75781-0.046875-1.1367-0.14844-2.332-0.625-3.7188-3.0234-3.0938-5.3594l2.9922-11.168c0.625-2.332 3.0234-3.7148 5.3594-3.0938 2.332 0.625 3.7188 3.0234 3.0938 5.3594l-2.9922 11.172c-0.52344 1.9531-2.2891 3.2422-4.2227 3.2422z"/>
  <path d="m333.71 145.22c-0.375 0-0.75391-0.046875-1.1328-0.14844-2.332-0.625-3.7188-3.0234-3.0938-5.3594l2.9922-11.168c0.625-2.332 3.0273-3.7188 5.3594-3.0938 2.332 0.625 3.7188 3.0234 3.0938 5.3594l-2.9922 11.172c-0.52344 1.9531-2.293 3.2422-4.2227 3.2422z"/>
  <path d="m318.05 166.11c-0.375 0-0.75781-0.046875-1.1328-0.14844-2.3359-0.625-3.7188-3.0234-3.0938-5.3594l2.9922-11.172c0.625-2.332 3.0273-3.7188 5.3594-3.0938 2.3359 0.625 3.7188 3.0234 3.0938 5.3594l-2.9922 11.172c-0.52344 1.9531-2.293 3.2422-4.2227 3.2422z"/>
  <path d="m310.21 194.84c-0.375 0-0.75391-0.046876-1.1328-0.15234-2.332-0.625-3.7188-3.0234-3.0938-5.3594l2.9922-11.172c0.625-2.332 3.0273-3.7148 5.3594-3.0938 2.332 0.625 3.7188 3.0234 3.0938 5.3594l-2.9922 11.172c-0.52344 1.9531-2.293 3.2422-4.2227 3.2422z"/>
  <path d="m274.96 166.11c-0.375 0-0.75781-0.046875-1.1328-0.14844-2.3359-0.625-3.7188-3.0234-3.0938-5.3594l2.9922-11.172c0.625-2.332 3.0273-3.7188 5.3594-3.0938 2.3359 0.625 3.7188 3.0234 3.0938 5.3594l-2.9922 11.172c-0.52344 1.9531-2.293 3.2422-4.2227 3.2422z"/>
  <path d="m272.35 137.39c-0.375 0-0.75391-0.046875-1.1328-0.15234-2.332-0.625-3.7188-3.0234-3.0938-5.3594l2.9922-11.172c0.625-2.3359 3.0273-3.7188 5.3594-3.0938 2.332 0.625 3.7188 3.0234 3.0938 5.3594l-2.9922 11.172c-0.52344 1.9531-2.2891 3.2422-4.2227 3.2422z"/>
  <path d="m227.96 168.72c-0.375 0-0.75391-0.046875-1.1328-0.14844-2.332-0.625-3.7188-3.0234-3.0938-5.3594l2.9922-11.172c0.625-2.3359 3.0234-3.7188 5.3594-3.0938 2.332 0.625 3.7188 3.0234 3.0938 5.3594l-2.9922 11.172c-0.52344 1.9531-2.293 3.2422-4.2227 3.2422z"/>
  <path d="m385.94 154.36c-0.375 0-0.75391-0.046875-1.1328-0.15234-2.332-0.625-3.7188-3.0234-3.0938-5.3594l2.9922-11.172c0.625-2.332 3.0195-3.7227 5.3594-3.0938 2.332 0.625 3.7188 3.0234 3.0938 5.3594l-2.9922 11.172c-0.52344 1.9531-2.293 3.2422-4.2227 3.2422z"/>
  <path d="m393.77 125.64c-0.375 0-0.75391-0.046875-1.1328-0.14844-2.332-0.625-3.7188-3.0234-3.0938-5.3594l2.9922-11.172c0.625-2.332 3.0156-3.7227 5.3594-3.0938 2.332 0.625 3.7188 3.0234 3.0938 5.3594l-2.9922 11.168c-0.52344 1.9531-2.293 3.2422-4.2227 3.2422z"/>
  <path d="m400.3 214.42c-0.375 0-0.75391-0.046875-1.1367-0.14844-2.332-0.625-3.7188-3.0234-3.0938-5.3594l2.9922-11.168c0.625-2.332 3.0156-3.7227 5.3594-3.0938 2.332 0.625 3.7188 3.0234 3.0938 5.3594l-2.9922 11.168c-0.52344 1.9531-2.2891 3.2422-4.2227 3.2422z"/>
  <path d="m400.3 214.42c-0.375 0-0.75391-0.046875-1.1367-0.14844-2.332-0.625-3.7188-3.0234-3.0938-5.3594l2.9922-11.168c0.625-2.332 3.0156-3.7227 5.3594-3.0938 2.332 0.625 3.7188 3.0234 3.0938 5.3594l-2.9922 11.168c-0.52344 1.9531-2.2891 3.2422-4.2227 3.2422z"/>
  <path d="m452.53 218.34c-0.375 0-0.75391-0.046875-1.1328-0.15234-2.3359-0.625-3.7188-3.0234-3.0938-5.3594l2.9922-11.172c0.625-2.332 3.0234-3.7188 5.3594-3.0938s3.7188 3.0234 3.0938 5.3594l-2.9922 11.172c-0.52344 1.9531-2.293 3.2422-4.2227 3.2422z"/>
  <path d="m452.53 218.34c-0.375 0-0.75391-0.046875-1.1328-0.15234-2.3359-0.625-3.7188-3.0234-3.0938-5.3594l2.9922-11.172c0.625-2.332 3.0234-3.7188 5.3594-3.0938s3.7188 3.0234 3.0938 5.3594l-2.9922 11.172c-0.52344 1.9531-2.293 3.2422-4.2227 3.2422z"/>
  <path d="m441.07 181.78c-0.375 0-0.75391-0.046875-1.1328-0.14844-2.3359-0.625-3.7188-3.0234-3.0938-5.3594l2.9922-11.168c0.625-2.332 3.0273-3.7188 5.3594-3.0938 2.3359 0.625 3.7188 3.0234 3.0938 5.3594l-2.9922 11.168c-0.52344 1.9531-2.293 3.2422-4.2227 3.2422z"/>
  <path d="m448.61 248.37c-0.375 0-0.75391-0.046876-1.1328-0.14844-2.332-0.625-3.7188-3.0234-3.0938-5.3594l2.9922-11.172c0.625-2.332 3.0156-3.7227 5.3594-3.0938 2.332 0.625 3.7188 3.0234 3.0938 5.3594l-2.9922 11.172c-0.52344 1.9531-2.293 3.2422-4.2227 3.2422z"/>
  <path d="m413.36 232.7c-0.375 0-0.75391-0.046875-1.1328-0.15234-2.332-0.625-3.7188-3.0234-3.0938-5.3594l2.9922-11.172c0.625-2.332 3.0156-3.7227 5.3594-3.0938 2.332 0.625 3.7188 3.0234 3.0938 5.3594l-2.9922 11.172c-0.52344 1.9531-2.2891 3.2422-4.2227 3.2422z"/>
  <path d="m423.8 167.42c-0.375 0-0.75391-0.046875-1.1367-0.14844-2.3359-0.625-3.7188-3.0234-3.0938-5.3594l2.9922-11.172c0.625-2.332 3.0156-3.7188 5.3594-3.0938 2.3359 0.625 3.7188 3.0234 3.0938 5.3594l-2.9922 11.172c-0.52344 1.9531-2.293 3.2422-4.2227 3.2422z"/>
  <path d="m380.91 180.11c-0.375 0-0.75391-0.046875-1.1328-0.14844-2.3359-0.625-3.7188-3.0234-3.0938-5.3594l2.9922-11.168c0.625-2.332 3.0273-3.7188 5.3594-3.0938 2.3359 0.625 3.7188 3.0234 3.0938 5.3594l-2.9922 11.168c-0.52344 1.9531-2.293 3.2422-4.2227 3.2422z"/>
  <path d="m413.36 192.23c-0.375 0-0.75391-0.046874-1.1328-0.14844-2.332-0.625-3.7188-3.0234-3.0938-5.3594l2.9922-11.172c0.625-2.332 3.0156-3.7227 5.3594-3.0938 2.332 0.625 3.7188 3.0234 3.0938 5.3594l-2.9922 11.172c-0.52344 1.9531-2.2891 3.2422-4.2227 3.2422z"/>
  <path d="m462.24 172.86c-0.375 0-0.75391-0.046875-1.1328-0.15234-2.332-0.625-3.7188-3.0234-3.0938-5.3594l2.9922-11.172c0.625-2.332 3.0156-3.7227 5.3594-3.0938 2.332 0.625 3.7188 3.0234 3.0938 5.3594l-2.9922 11.172c-0.52344 1.9531-2.2891 3.2422-4.2227 3.2422z"/>
  <path d="m324.57 116.5c-0.375 0-0.75781-0.046875-1.1367-0.14844-2.332-0.625-3.7188-3.0234-3.0938-5.3594l2.9922-11.172c0.625-2.332 3.0273-3.7188 5.3594-3.0938 2.332 0.625 3.7188 3.0234 3.0938 5.3594l-2.9922 11.172c-0.52344 1.9531-2.2891 3.2422-4.2227 3.2422z"/>
  <path d="m499.54 249.68c-0.375 0-0.75391-0.046875-1.1328-0.15234-2.332-0.625-3.7188-3.0234-3.0938-5.3594l2.9922-11.172c0.625-2.332 3.0156-3.7188 5.3594-3.0938 2.332 0.625 3.7188 3.0234 3.0938 5.3594l-2.9922 11.172c-0.52344 1.9531-2.293 3.2422-4.2227 3.2422z"/>
  <path d="m478.64 277.09c-0.375 0-0.75391-0.046875-1.1328-0.15234-2.3359-0.625-3.7188-3.0234-3.0938-5.3594l2.9922-11.172c0.625-2.332 3.0273-3.7148 5.3594-3.0938 2.3359 0.625 3.7188 3.0234 3.0938 5.3594l-2.9922 11.172c-0.52344 1.9531-2.293 3.2422-4.2227 3.2422z"/>
  <path d="m478.64 277.09c-0.375 0-0.75391-0.046875-1.1328-0.15234-2.3359-0.625-3.7188-3.0234-3.0938-5.3594l2.9922-11.172c0.625-2.332 3.0273-3.7148 5.3594-3.0938 2.3359 0.625 3.7188 3.0234 3.0938 5.3594l-2.9922 11.172c-0.52344 1.9531-2.293 3.2422-4.2227 3.2422z"/>
  <path d="m503.45 307.12c-0.375 0-0.75391-0.050782-1.1328-0.14844-2.332-0.625-3.7188-3.0234-3.0938-5.3594l2.9922-11.172c0.625-2.332 3.0195-3.7188 5.3594-3.0938 2.332 0.625 3.7188 3.0234 3.0938 5.3594l-2.9922 11.172c-0.52344 1.9531-2.2891 3.2422-4.2227 3.2422z"/>
  <path d="m526.95 313.65c-0.375 0-0.75391-0.050782-1.1328-0.15234-2.3359-0.625-3.7188-3.0234-3.0938-5.3594l2.9922-11.172c0.625-2.3359 3.0273-3.7148 5.3594-3.0938 2.3359 0.625 3.7188 3.0234 3.0938 5.3594l-2.9922 11.172c-0.52344 1.9531-2.293 3.2422-4.2227 3.2422z"/>
  <path d="m517.81 286.23c-0.375 0-0.75391-0.046875-1.1328-0.14844-2.332-0.625-3.7188-3.0234-3.0938-5.3594l2.9922-11.168c0.625-2.332 3.0156-3.7227 5.3594-3.0938 2.332 0.625 3.7188 3.0234 3.0938 5.3594l-2.9922 11.172c-0.52344 1.9531-2.2891 3.2422-4.2227 3.2422z"/>
  <path d="m448.61 248.37c-0.375 0-0.75391-0.046876-1.1328-0.14844-2.332-0.625-3.7188-3.0234-3.0938-5.3594l2.9922-11.172c0.625-2.332 3.0156-3.7227 5.3594-3.0938 2.332 0.625 3.7188 3.0234 3.0938 5.3594l-2.9922 11.172c-0.52344 1.9531-2.293 3.2422-4.2227 3.2422z"/>
  <path d="m477.34 244.45c-0.375 0-0.75391-0.046875-1.1328-0.14844-2.332-0.625-3.7188-3.0234-3.0938-5.3594l2.9922-11.172c0.625-2.332 3.0156-3.7227 5.3594-3.0938 2.332 0.625 3.7188 3.0234 3.0938 5.3594l-2.9922 11.168c-0.52344 1.9531-2.2891 3.2422-4.2227 3.2422z"/>
  <path d="m517.81 243.14c-0.375 0-0.75391-0.046875-1.1328-0.14844-2.332-0.625-3.7188-3.0234-3.0938-5.3594l2.9922-11.168c0.625-2.332 3.0156-3.7227 5.3594-3.0938 2.332 0.625 3.7188 3.0234 3.0938 5.3594l-2.9922 11.172c-0.52344 1.9531-2.2891 3.2422-4.2227 3.2422z"/>
  <path d="m488.08 215.27c-0.375 0-0.75391-0.046875-1.1328-0.14844-2.332-0.625-3.7188-3.0234-3.0938-5.3594l2.9922-11.172c0.625-2.332 3.0156-3.7227 5.3594-3.0938 2.332 0.625 3.7188 3.0234 3.0938 5.3594l-2.9922 11.172c-0.52344 1.9531-2.2891 3.2422-4.2227 3.2422z"/>
  <path d="m482.56 197.45c-0.375 0-0.75391-0.046875-1.1328-0.14844-2.332-0.625-3.7188-3.0234-3.0938-5.3594l2.9922-11.172c0.625-2.332 3.0156-3.7227 5.3594-3.0938 2.332 0.625 3.7188 3.0234 3.0938 5.3594l-2.9922 11.172c-0.52344 1.9531-2.2891 3.2422-4.2227 3.2422z"/>
  <path d="m470.81 147.83c-0.375 0-0.75391-0.046875-1.1328-0.14844-2.332-0.625-3.7188-3.0234-3.0938-5.3594l2.9922-11.172c0.625-2.332 3.0156-3.7227 5.3594-3.0938 2.332 0.625 3.7188 3.0234 3.0938 5.3594l-2.9922 11.172c-0.52344 1.9531-2.293 3.2422-4.2227 3.2422z"/>
  <path d="m438.17 141.3c-0.375 0-0.75391-0.046876-1.1328-0.15234-2.332-0.625-3.7188-3.0234-3.0938-5.3594l2.9922-11.172c0.62109-2.332 3.0156-3.7227 5.3594-3.0938 2.332 0.625 3.7188 3.0234 3.0938 5.3594l-2.9922 11.172c-0.52344 1.9531-2.2891 3.2422-4.2227 3.2422z"/>
  <path d="m432.95 203.98c-0.375 0-0.75391-0.046874-1.1328-0.14844-2.3359-0.625-3.7188-3.0234-3.0938-5.3594l2.9922-11.172c0.625-2.332 3.0156-3.7227 5.3594-3.0938 2.3359 0.625 3.7188 3.0234 3.0938 5.3594l-2.9922 11.172c-0.52344 1.9531-2.2891 3.2422-4.2227 3.2422z"/>
  <path d="m359.83 175.25c-0.375 0-0.75391-0.046875-1.1328-0.14844-2.3359-0.625-3.7188-3.0234-3.0938-5.3594l2.9922-11.172c0.625-2.332 3.0156-3.7227 5.3594-3.0938 2.3359 0.625 3.7188 3.0234 3.0938 5.3594l-2.9922 11.172c-0.52344 1.9531-2.293 3.2422-4.2227 3.2422z"/>
  <path d="m517.81 213.11c-0.375 0-0.75391-0.046875-1.1328-0.14844-2.332-0.625-3.7188-3.0234-3.0938-5.3594l2.9922-11.172c0.625-2.332 3.0156-3.7227 5.3594-3.0938 2.332 0.625 3.7188 3.0234 3.0938 5.3594l-2.9922 11.172c-0.52344 1.9531-2.2891 3.2422-4.2227 3.2422z"/>
  <path d="m499.54 175.25c-0.375 0-0.75391-0.046875-1.1328-0.14844-2.332-0.625-3.7188-3.0234-3.0938-5.3594l2.9922-11.172c0.625-2.332 3.0156-3.7227 5.3594-3.0938 2.332 0.625 3.7188 3.0234 3.0938 5.3594l-2.9922 11.172c-0.52344 1.9531-2.293 3.2422-4.2227 3.2422z"/>
  <path d="m489.09 153.05c-0.375 0-0.75391-0.046876-1.1328-0.14844-2.332-0.625-3.7188-3.0234-3.0938-5.3594l2.9922-11.172c0.625-2.332 3.0195-3.7227 5.3594-3.0938 2.332 0.625 3.7188 3.0234 3.0938 5.3594l-2.9922 11.168c-0.52344 1.9531-2.293 3.2422-4.2227 3.2422z"/>
  <path d="m473.42 334.54c-0.375 0-0.75391-0.050781-1.1328-0.15234-2.332-0.625-3.7188-3.0234-3.0938-5.3594l2.9922-11.172c0.625-2.332 3.0156-3.7188 5.3594-3.0938 2.332 0.625 3.7188 3.0234 3.0938 5.3594l-2.9922 11.172c-0.52344 1.9531-2.293 3.2422-4.2227 3.2422z"/>
  <path d="m506.06 333.23c-0.375 0-0.75391-0.046875-1.1328-0.14844-2.332-0.625-3.7188-3.0234-3.0938-5.3594l2.9922-11.172c0.625-2.332 3.0156-3.7227 5.3594-3.0938 2.332 0.625 3.7188 3.0234 3.0938 5.3594l-2.9922 11.172c-0.52344 1.9531-2.2891 3.2422-4.2227 3.2422z"/>
  <path d="m359.83 128.25c-0.375 0-0.75391-0.046875-1.1328-0.14844-2.3359-0.625-3.7188-3.0234-3.0938-5.3594l2.9922-11.168c0.625-2.332 3.0273-3.7188 5.3594-3.0938 2.3359 0.625 3.7188 3.0234 3.0938 5.3594l-2.9922 11.172c-0.52344 1.9531-2.293 3.2422-4.2227 3.2422z"/>
 </g>
</svg>
